<svg xmlns="http://www.w3.org/2000/svg" fill="none" viewBox="0 0 32 32"><circle cx="16" cy="16" r="16" fill="#00D7BD"/><path fill="#fff" d="M15.248 26.05c-4.35-.55-7.731-3.69-8.657-8.038-.21-1.006-.254-2.52-.096-3.543.524-3.403 2.446-6.089 5.433-7.576 1.494-.743 2.42-.962 4.194-1.014 1.572-.053 2.42.06 3.73.498 2.332.779 4.324 2.397 5.53 4.488.13.227.227.428.21.446-.123.096-3.775 2.152-3.792 2.134l-.315-.595c-.882-1.67-2.55-2.676-4.62-2.773-1.757-.087-3.032.385-4.194 1.54-1.153 1.146-1.686 2.528-1.686 4.383 0 1.18.2 2.038.699 3.017.402.77 1.424 1.811 2.184 2.214 1.598.848 3.948.848 5.556 0 .672-.359 1.764-1.435 2.105-2.082.14-.263.262-.499.28-.516.008-.018.873.454 1.904 1.05l1.887 1.075-.227.394c-.393.682-1.153 1.627-1.782 2.23-2.202 2.083-5.25 3.054-8.343 2.669Z"/></svg>