<svg viewBox="0 0 144 30" xmlns="http://www.w3.org/2000/svg"><g fill-rule="nonzero" fill="none"><path d="M2.68 23.677c.992 1.408 2.222 2.642 3.63 3.637l4.958-8.604-8.587 4.967m3.63-20.97C4.902 3.7 3.672 4.935 2.68 6.343l8.588 4.966L6.31 2.705M21.272 1.35C19.74.638 18.072.18 16.312.023v9.933l4.96-8.604M8.65 28.67c1.533.71 3.203 1.173 4.96 1.33v-9.935L8.65 28.67M27.244 6.343c-.992-1.408-2.222-2.644-3.63-3.636l-4.957 8.602 8.587-4.968m-3.63 20.972c1.408-.995 2.638-2.23 3.63-3.637l-8.588-4.967 4.958 8.604" fill="#8CC63F"/><path d="M29.923 13.655c-.16-1.76-.617-3.435-1.325-4.967l-8.59 4.967h9.915zM0 16.363c.16 1.765.616 3.436 1.325 4.966l8.592-4.968H0zm1.325-7.675C.615 10.22.158 11.895 0 13.655h9.917L1.325 8.688zm18.683 7.675l8.59 4.966c.71-1.53 1.168-3.203 1.325-4.968h-9.915zM8.65 1.35l4.96 8.605V.022c-1.757.157-3.427.615-4.96 1.33V1.35zM16.313 30c1.758-.157 3.426-.62 4.96-1.33l-4.96-8.605V30z" fill="#00853F"/><path d="M47.156 11.663c-.095-1.322-1.51-2.202-2.922-2.202-3.402 0-4.032 3.12-4.032 5.554 0 2.85.862 5.545 3.86 5.545 1.468 0 2.807-.728 3.034-2.198h2.007c-.19 2.316-2.522 3.842-5.212 3.842-4.067 0-5.69-3.325-5.69-7.19 0-3.386 1.488-7.328 6.11-7.195 2.652.076 4.642 1.377 4.85 3.845h-2.003v-.002zM57.312 16.2c.038-1.61-.69-2.854-2.446-2.854-1.51 0-2.406 1.28-2.406 2.855h4.852zm-4.852 1.26c-.132 1.684.556 3.423 2.406 3.423 1.414 0 2.12-.553 2.332-1.95h1.91c-.29 2.18-1.967 3.27-4.26 3.27-3.073 0-4.295-2.178-4.295-5.01 0-2.812 1.41-5.166 4.447-5.166 2.865.056 4.22 1.875 4.22 4.53v.902h-6.76zm10.397-3.73h.037c.613-1.208 1.95-1.703 2.903-1.703.668 0 3.63.173 3.63 3.253v6.634h-1.815V15.87c0-1.588-.667-2.448-2.2-2.448 0 0-.99-.057-1.754.71-.267.264-.764.69-.764 2.563v5.22H61.08v-9.6h1.777v1.414zm9.44-1.42v-2.04l1.813-.575v2.618h2.215v1.32H74.11v6.165c0 .685.535 1.01 1.185 1.01.285 0 .667-.036.952-.112v1.396c-.417.02-.82.112-1.237.112-.44 0-.786-.017-1.223-.092-.287-.058-.767-.21-1.07-.633-.326-.46-.42-.497-.42-1.78v-6.07h-1.642v-1.32h1.64zm12.003.004h1.81v9.6h-1.77v-1.412h-.04c-.725 1.202-1.948 1.7-3.284 1.7-2.005 0-3.152-1.526-3.152-3.462v-6.426h1.816v5.68c0 1.666.38 2.89 2.12 2.89.743 0 1.754-.382 2.14-1.38.34-.895.36-2.024.36-2.255v-4.937zm6.05 9.6h-1.814v-9.6h1.814v1.853h.04c.268-1.318 1.487-1.988 2.806-1.988.228 0 .42.02.63.02v1.72c-.248-.094-.535-.094-.783-.094-2.293.075-2.693 1.3-2.693 3.328v4.76zm8.842 3.676h-1.856l1.452-3.712-3.99-9.564h2.02l3 7.575 3.06-7.577h1.946L99.192 25.59zm6.99-3.676V8.104h2.96V19.62h5.977v2.294h-8.938zm10.73 0h2.866v-9.6h-2.866v9.6zm-.095-11.342h3.056v-2.47h-3.056v2.47zm8.55 2.85l.038.06c.595-.883 1.49-1.455 2.942-1.455.954 0 2.807.705 3.15 2.104.153.594.193 1.208.193 1.533v6.252h-2.866V16.14c-.016-1.034-.306-2.198-1.718-2.198-.9 0-1.68.803-1.72 2.2v5.772h-2.862v-9.6h2.844v1.108zm11.958 2.778l.037.034 2.827-4.034h3.186l-3.304 4.208 3.513 5.506h-3.34l-2.884-5.257-.036.038v5.22h-2.862V8.102h2.862V16.2z" fill="#333"/></g></svg>