<svg xmlns="http://www.w3.org/2000/svg" viewBox="0 0 32 32">
  <rect fill="#FFF" width="32" height="32"/>
  <path fill="#0C9ED9" d="M24.884 8.395c0-.89-.542-1.394-1.587-1.394H8.587C7.542 7.001 7 7.501 7 8.395v1.349l16.335-.033c1.006 0 1.548-.465 1.548-1.316"/>
  <path fill="#000" d="M6.995 14.645v8.876c0 .929.542 1.355 1.587 1.355h14.864c1.006 0 1.548-.426 1.548-1.355 0-.89-.542-1.355-1.548-1.355H10.638c-.5 0-.7-.232-.7-.7V17.39h9.677c1.045 0 1.587-.465 1.587-1.355 0-.852-.542-1.355-1.587-1.355z"/>
</svg>