<svg id="icon-business-big-data" viewBox="0 0 96 96" xmlns="http://www.w3.org/2000/svg">
  <g fill="none" fill-rule="nonzero">
    <path class="-path--shadow" fill="#3CC6F3" d="M61.672 39.134l-.003 16.476c-.244 2.403-4.848 4.152-10.854 4.152-5.91 0-10.115-1.71-10.364-4.175v-16.74c0-2.441 4.76-4.318 10.61-4.318 5.851 0 10.61 1.877 10.61 4.319V39.134zM30.404 66.572l-1.414-1.414 1.414 1.414zm2.038-4.867c.943-.943 2.357.472 1.415 1.415l-6.905 6.904c-.943.943-2.357-.471-1.414-1.414l6.904-6.905zm31.879-31.878l1.414 1.414-1.414-1.414zm1.414 1.414c-.943.943-2.357-.471-1.414-1.414l3.452-3.452c.943-.943 2.357.471 1.414 1.414l-6.905 6.905c-.942.943-2.357-.472-1.414-1.414l3.453-3.453c.942-.943 2.357.472 1.414 1.414zm-36.745 0l1.415-1.414-1.415 1.414zm1.415-1.414c.942.943-.472 2.357-1.415 1.414l-3.452-3.452c-.943-.943.471-2.357 1.414-1.414l6.905 6.905c.943.942-.471 2.357-1.414 1.414L28.99 31.24c-.942-.942.472-2.357 1.415-1.414zM64.32 66.572l1.414-1.414-1.414 1.414zm0 0l-3.453-3.453c-.943-.942.472-2.357 1.414-1.414l6.905 6.905c.943.943-.471 2.357-1.414 1.414l-3.452-3.452c-.943-.943.471-2.357 1.414-1.414.943.942-.472 2.357-1.414 1.414zM72.345 47.2v2-2zm0 2c-1.333 0-1.333-2 0-2h4.882c1.334 0 1.334 2 0 2h-9.764c-1.334 0-1.334-2 0-2h4.882c1.333 0 1.333 2 0 2zm-49.965 0v-2 2zm0-2c1.333 0 1.333 2 0 2h-4.882c-1.334 0-1.334-2 0-2h9.765c1.333 0 1.333 2 0 2H22.38c-1.333 0-1.333-2 0-2zm25.982-23.983h-2 2zm-2 0c0-1.333 2-1.333 2 0V28.1c0 1.334-2 1.334-2 0v-9.764c0-1.334 2-1.334 2 0v4.882c0 1.333-2 1.333-2 0zm0 49.965h2-2zm2 0c0 1.333-2 1.333-2 0V68.3c0-1.334 2-1.334 2 0v9.764c0 1.334-2 1.334-2 0v-4.882c0-1.333 2-1.333 2 0z"/>
    <path class="-path--primary" fill="#083176" d="M24.784 15.908a.66.66 0 01.002.048l-.002 2.671a.66.66 0 01.002.05l-.004 5.103c-.16 1.686-2.75 2.739-6.053 2.739-3.25 0-5.642-1.04-5.806-2.8v-4.787-2.703a1.545 1.545 0 01-.052-.398c0-1.699 2.72-2.78 6.011-2.78 3.267 0 5.904 1.078 5.904 2.78 0 .026 0 .051-.002.077zm-1.298 1.734c-1.08.617-2.74.968-4.604.968-1.868 0-3.553-.348-4.66-.96v1.23a.659.659 0 01.001.052v.86c.1.748 2.028 1.54 4.635 1.54 2.625 0 4.557-.803 4.628-1.498v-2.192zm-9.263-1.647c.129.22.496.494 1.108.737.918.365 2.188.578 3.551.578 2.613 0 4.604-.813 4.604-1.48 0-.665-1.99-1.478-4.604-1.478-1.363 0-2.633.213-3.55.577-.687.273-1.065.584-1.144.814a.65.65 0 01.035.213v.04zm-.001 5.62l-.002 2.043c.075.787 1.855 1.561 4.51 1.561 2.696 0 4.687-.809 4.755-1.5v-2.09c-1.077.64-2.734 1.003-4.627 1.003-1.897 0-3.557-.364-4.636-1.017zm-1.31 22.593a.66.66 0 01.003.049l-.002 2.67a.66.66 0 01.002.05l-.004 5.104c-.16 1.686-2.75 2.738-6.053 2.738-3.25 0-5.643-1.04-5.806-2.8v-4.786-2.703A1.545 1.545 0 011 44.13c0-1.699 2.72-2.779 6.01-2.779 3.268 0 5.905 1.077 5.905 2.78 0 .025 0 .05-.002.076zm-1.297 1.734c-1.081.618-2.74.968-4.604.968-1.869 0-3.553-.348-4.66-.96l-.001 1.23a.659.659 0 01.002.053v.859c.1.748 2.027 1.54 4.634 1.54 2.625 0 4.558-.803 4.629-1.498v-2.192zm-9.263-1.647c.128.22.495.494 1.108.738.917.364 2.187.577 3.55.577 2.614 0 4.605-.813 4.605-1.479 0-.666-1.991-1.479-4.604-1.479-1.364 0-2.634.213-3.551.578-.686.272-1.064.583-1.144.813a.65.65 0 01.036.214v.038zm-.002 5.62l-.001 2.043c.074.787 1.855 1.561 4.509 1.561 2.697 0 4.687-.809 4.756-1.5v-2.09c-1.078.64-2.734 1.003-4.628 1.003-1.897 0-3.556-.364-4.636-1.017zm91.267-5.707a.66.66 0 01.002.049l-.002 2.67a.66.66 0 01.002.05l-.004 5.104c-.16 1.686-2.75 2.738-6.053 2.738-3.25 0-5.642-1.04-5.806-2.8v-4.786-2.703a1.545 1.545 0 01-.052-.399c0-1.699 2.72-2.779 6.01-2.779 3.268 0 5.905 1.077 5.905 2.78 0 .025 0 .05-.002.076zm-1.298 1.734c-1.081.618-2.74.968-4.604.968-1.869 0-3.553-.348-4.66-.96l-.001 1.23a.659.659 0 01.002.053v.859c.1.748 2.028 1.54 4.634 1.54 2.625 0 4.558-.803 4.629-1.498v-2.192zm-9.263-1.647c.128.22.495.494 1.108.738.918.364 2.187.577 3.55.577 2.614 0 4.605-.813 4.605-1.479 0-.666-1.991-1.479-4.604-1.479-1.364 0-2.633.213-3.55.578-.687.272-1.065.583-1.145.813a.65.65 0 01.036.214v.038zm-.002 5.62v2.043c.074.787 1.854 1.561 4.508 1.561 2.697 0 4.688-.809 4.756-1.5v-2.09c-1.077.64-2.734 1.003-4.628 1.003-1.897 0-3.556-.364-4.636-1.017zm-1.132-34.007a.66.66 0 01.001.048l-.002 2.671a.66.66 0 01.002.05l-.003 5.103c-.16 1.686-2.75 2.739-6.053 2.739-3.25 0-5.643-1.04-5.807-2.8v-4.787-2.703a1.545 1.545 0 01-.051-.398c0-1.699 2.72-2.78 6.01-2.78 3.267 0 5.904 1.078 5.904 2.78l-.001.077zm-1.299 1.734c-1.08.617-2.74.968-4.604.968-1.868 0-3.553-.348-4.66-.96v1.23a.659.659 0 01.001.052v.86c.1.748 2.028 1.54 4.635 1.54 2.625 0 4.558-.803 4.628-1.498v-2.192zm-9.263-1.647c.129.22.496.494 1.109.737.917.365 2.187.578 3.55.578 2.613 0 4.604-.813 4.604-1.48 0-.665-1.99-1.478-4.604-1.478-1.363 0-2.633.213-3.55.577-.687.273-1.065.584-1.144.814a.65.65 0 01.036.213v.04zm-.001 5.62l-.001 2.043c.074.787 1.855 1.561 4.509 1.561 2.696 0 4.687-.809 4.755-1.5v-2.09c-1.077.64-2.733 1.003-4.627 1.003-1.897 0-3.557-.364-4.636-1.017zM24.784 72.688a.66.66 0 01.002.05l-.002 2.67a.66.66 0 01.002.05l-.004 5.103c-.16 1.686-2.75 2.739-6.053 2.739-3.25 0-5.642-1.04-5.806-2.8v-4.787-2.703a1.545 1.545 0 01-.052-.398c0-1.7 2.72-2.78 6.011-2.78 3.267 0 5.904 1.077 5.904 2.78 0 .025 0 .051-.002.076zm-1.298 1.735c-1.08.617-2.74.968-4.604.968-1.868 0-3.553-.349-4.66-.96v1.23a.659.659 0 01.001.052v.86c.1.748 2.028 1.54 4.635 1.54 2.625 0 4.557-.804 4.628-1.498v-2.192zm-9.263-1.647c.129.22.496.494 1.108.737.918.364 2.188.578 3.551.578 2.613 0 4.604-.813 4.604-1.48 0-.665-1.99-1.478-4.604-1.478-1.363 0-2.633.213-3.55.577-.687.273-1.065.584-1.144.814a.65.65 0 01.035.213v.039zm-.001 5.62l-.002 2.043c.075.787 1.855 1.56 4.51 1.56 2.696 0 4.687-.808 4.755-1.5v-2.09c-1.077.64-2.734 1.004-4.627 1.004-1.897 0-3.557-.364-4.636-1.017zm67.7-5.708a.66.66 0 01.001.05l-.002 2.67a.66.66 0 01.002.05l-.003 5.103c-.16 1.686-2.75 2.739-6.053 2.739-3.25 0-5.643-1.04-5.807-2.8v-4.787-2.703a1.545 1.545 0 01-.051-.398c0-1.7 2.72-2.78 6.01-2.78 3.267 0 5.904 1.077 5.904 2.78l-.001.076zm-1.299 1.735c-1.08.617-2.74.968-4.604.968-1.868 0-3.553-.349-4.66-.96v1.23a.659.659 0 01.001.052v.86c.1.748 2.028 1.54 4.635 1.54 2.625 0 4.558-.804 4.628-1.498v-2.192zm-9.263-1.647c.129.22.496.494 1.109.737.917.364 2.187.578 3.55.578 2.613 0 4.604-.813 4.604-1.48 0-.665-1.99-1.478-4.604-1.478-1.363 0-2.633.213-3.55.577-.687.273-1.065.584-1.144.814a.65.65 0 01.036.213v.039zm-.001 5.62l-.001 2.043c.074.787 1.855 1.56 4.509 1.56 2.696 0 4.687-.808 4.755-1.5v-2.09c-1.077.64-2.733 1.004-4.627 1.004-1.897 0-3.557-.364-4.636-1.017zM53.265 3.856a.66.66 0 01.002.049l-.002 2.67a.66.66 0 01.002.05l-.004 5.104c-.16 1.686-2.75 2.738-6.053 2.738-3.25 0-5.643-1.04-5.806-2.8V6.881 4.178a1.545 1.545 0 01-.052-.399c0-1.699 2.72-2.779 6.01-2.779 3.268 0 5.905 1.077 5.905 2.78 0 .025 0 .05-.002.076zM51.967 5.59c-1.081.618-2.74.968-4.604.968-1.869 0-3.553-.348-4.66-.96l-.001 1.23a.659.659 0 01.002.053v.859c.1.748 2.028 1.54 4.634 1.54 2.625 0 4.558-.803 4.629-1.498V5.59zm-9.263-1.647c.128.22.495.494 1.108.737.917.365 2.187.578 3.55.578 2.614 0 4.605-.813 4.605-1.479 0-.666-1.991-1.479-4.604-1.479-1.364 0-2.634.213-3.55.578-.687.272-1.065.583-1.145.813a.65.65 0 01.036.214v.038zm-.002 5.62l-.001 2.043c.074.787 1.855 1.561 4.509 1.561 2.697 0 4.688-.809 4.756-1.5v-2.09c-1.078.64-2.734 1.003-4.628 1.003-1.897 0-3.556-.364-4.636-1.017zM53.265 84.56a.66.66 0 01.002.049l-.002 2.67a.66.66 0 01.002.05l-.004 5.104c-.16 1.686-2.75 2.738-6.053 2.738-3.25 0-5.643-1.04-5.806-2.8v-4.786-2.703a1.545 1.545 0 01-.052-.399c0-1.699 2.72-2.779 6.01-2.779 3.268 0 5.905 1.077 5.905 2.78 0 .025 0 .05-.002.076zm-1.298 1.734c-1.081.618-2.74.968-4.604.968-1.869 0-3.553-.348-4.66-.96l-.001 1.23a.659.659 0 01.002.053v.859c.1.748 2.028 1.54 4.634 1.54 2.625 0 4.558-.803 4.629-1.498v-2.192zm-9.263-1.647c.128.22.495.494 1.108.738.917.364 2.187.577 3.55.577 2.614 0 4.605-.813 4.605-1.479 0-.666-1.991-1.479-4.604-1.479-1.364 0-2.634.213-3.55.578-.687.272-1.065.583-1.145.813a.65.65 0 01.036.214v.038zm-.002 5.62l-.001 2.043c.074.787 1.855 1.561 4.509 1.561 2.697 0 4.688-.809 4.756-1.5v-2.09c-1.078.64-2.734 1.003-4.628 1.003-1.897 0-3.556-.364-4.636-1.017zM35.079 42.275a2.766 2.766 0 01-.131-.841c0-3.149 5.276-5.245 11.686-5.245s11.687 2.096 11.687 5.245a2.787 2.787 0 01-.213 1.07l-.003 3.078c.003.03.004.06.004.09l-.004 5.337c.003.028.004.057.004.087l-.006 6.158c-.298 3.149-5.326 5.192-11.773 5.192-6.343 0-10.974-2.013-11.279-5.286v-5.556-6.441l.001-.044v-2.615c0-.079.01-.155.027-.229zm1.971 2.263v.566l.001.059v.925c.182 1.75 4.351 3.504 9.534 3.504 5.203 0 9.377-1.767 9.523-3.441v-1.544c-2.13 1.304-5.594 2.071-9.474 2.071-3.946 0-7.464-.794-9.584-2.14zm19.06 4.69c-2.089 1.476-5.598 2.364-9.525 2.364-3.93 0-7.445-.889-9.536-2.39l-.002 2.312c.003.03.004.06.004.09v.077c.212 1.702 4.195 3.34 9.535 3.34 5.374 0 9.366-1.66 9.523-3.284v-2.509zM37.048 54.75l-.002 2.316c.168 1.777 3.857 3.381 9.283 3.381 5.515 0 9.62-1.668 9.777-3.287v-2.382c-2.055 1.414-5.509 2.245-9.521 2.245-4.018 0-7.479-.832-9.537-2.273zm9.585-10.07c5.394 0 9.687-1.705 9.687-3.245s-4.293-3.245-9.687-3.245c-5.393 0-9.686 1.705-9.686 3.245s4.293 3.244 9.686 3.244z"/>
  </g>
</svg>