<svg id="icon-business-reports" viewBox="0 0 96 96" xmlns="http://www.w3.org/2000/svg">
  <g fill="none" fill-rule="nonzero">
    <path class="-path--primary" fill="#083176" d="M68.773 37.173a1 1 0 01.3.715v31.11a6.001 6.001 0 01-6 6.002H32A6.001 6.001 0 0126 68.999V28A6.001 6.001 0 0132.001 22h20.84a1 1 0 01.7.285l15.232 14.888zM52.433 24H32.002A4.001 4.001 0 0028 28.001V69A4.001 4.001 0 0032.001 73h31.072a4.001 4.001 0 004-4.001v-30.69L52.434 24z"/>
    <path class="-path--secondary" fill="#F99D20" d="M33.794 38.232a1 1 0 012 0v29.58a1 1 0 01-2 0v-29.58zm6.523 7.634a1 1 0 012 0V67.81a1 1 0 01-2 0V45.866zm6.523 5.964a1 1 0 012 0v15.981a1 1 0 01-2 0v-15.98zm6.523-9.165a1 1 0 012 0v25.146a1 1 0 01-2 0V42.665zm6.523 14.111a1 1 0 012 0v11.035a1 1 0 01-2 0V56.776z"/>
  </g>
</svg>