<svg id="icon-device-switch" viewBox="0 0 96 96" xmlns="http://www.w3.org/2000/svg">
  <g fill="none" fill-rule="nonzero">
    <path class="-path--primary" fill="#083176" d="M30.026 25h36.465a5.026 5.026 0 015.026 5.026v36.205a5.026 5.026 0 01-5.026 5.027H30.026A5.026 5.026 0 0125 66.23V30.026A5.026 5.026 0 0130.026 25zm0 2A3.026 3.026 0 0027 30.026v36.205a3.026 3.026 0 003.026 3.027h36.465a3.026 3.026 0 003.026-3.027V30.026A3.026 3.026 0 0066.491 27H30.026z"/>
    <path class="-path--secondary" fill="#F99D20" d="M33.479 41.486a.998.998 0 01-.382-.733 1 1 0 01.315-.84l3.632-3.366a1 1 0 011.36 1.466L36.585 39.7h25.696a1 1 0 010 2H36.19l1.758 2.237a1 1 0 01-1.573 1.236l-2.896-3.686zm29.572 14.852L59.47 59.66a1 1 0 11-1.36-1.467l1.763-1.634H34.236a1 1 0 010-2h26.003l-1.928-2.235a1 1 0 011.515-1.306l3.353 3.888a1 1 0 01-.128 1.432z"/>
  </g>
</svg>