<svg id="icon-business-cost-control" viewBox="0 0 96 96" xmlns="http://www.w3.org/2000/svg">
  <g fill="none" fill-rule="nonzero">
    <circle class="-path--shadow" fill="#3CC6F3" cx="52.103" cy="44.711" r="23.375"/>
    <path class="-path--secondary" fill="#F99D20" d="M62.232 26.982v.006a.982.982 0 01-.399.914 1.01 1.01 0 01-.507.194l-7.249 1.125a1 1 0 01-.306-1.977l4.804-.745c-9.764-5.91-22.52-4.177-30.335 4.453-8.38 9.252-8.312 23.37.156 32.54a1 1 0 11-1.47 1.357c-9.17-9.931-9.243-25.22-.169-35.24 8.56-9.45 22.59-11.264 33.21-4.602l-.616-4.882a1 1 0 111.984-.25l.896 7.097.001.01zM36.061 76.284a1 1 0 01-1.948.455l-1.633-6.984a1 1 0 111.947-.455l1.634 6.984zm-.266-6.417c9.859 5.867 22.643 3.982 30.372-4.757 8.198-9.27 8.048-23.24-.348-32.33a1 1 0 011.47-1.357c9.092 9.845 9.254 24.974.376 35.012-8.877 10.038-23.913 11.725-34.795 3.904a1 1 0 01.296-1.77l6.935-2.085a1 1 0 11.576 1.916l-4.882 1.467z"/>
    <circle class="-path--primary" fill="#083176" cx="47.109" cy="48.137" r="17.033"/>
    <path class="-path--white" fill="#FFF" d="M45.877 57.618v-2.206a9.358 9.358 0 01-3.95-1l.697-2.719a8.214 8.214 0 003.857 1.022c1.324 0 2.23-.51 2.23-1.44 0-.883-.743-1.442-2.462-2.023-2.487-.836-4.184-1.998-4.184-4.251 0-2.046 1.441-3.648 3.928-4.137v-2.208h2.277v2.046a8.355 8.355 0 013.37.766l-.674 2.626a7.71 7.71 0 00-3.346-.79c-1.51 0-2 .65-2 1.301 0 .767.815 1.255 2.79 1.998 2.765.977 3.88 2.254 3.88 4.347 0 2.068-1.464 3.833-4.135 4.299v2.369h-2.278z"/>
  </g>
</svg>