<svg id="icon-people-us-network" xmlns="http://www.w3.org/2000/svg" viewBox="0 0 96 96">
  <g fill="none" fill-rule="nonzero">
    <path class="-path--shadow" fill="#3CC6F3" d="M15.216 20.007l38.012 5.805c.026.004.052.01.078.018l15.845 4.684c.16.048.292.16.364.31l2.973 6.194a.589.589 0 00.836.25l13.853-8.393a.589.589 0 00.253-.313l1.498-4.388a.589.589 0 011.054-.125l2.803 4.42a.589.589 0 01.016.602L76.55 58.177a.589.589 0 00-.037.493l3.734 10.04a.589.589 0 01-.968.622l-7.712-7.71a.589.589 0 00-.48-.169l-14.079 1.54a.589.589 0 00-.384.202l-6.416 7.521a.588.588 0 01-.895 0l-6.794-7.942a.589.589 0 00-.767-.112l-1.896 1.23a.589.589 0 01-.803-.158l-3.151-4.52a.589.589 0 00-.471-.251l-9.043-.182a.589.589 0 01-.353-.127l-11.225-8.886a.589.589 0 01-.183-.247l-4.363-11.183a.589.589 0 01-.024-.354l4.317-17.536a.589.589 0 01.66-.441z"/>
    <path class="-path--primary" fill="#083176" d="M70.1 52.826l1.52-.01 10.665-19.099-2.11-3.328-1.167 3.416a1.59 1.59 0 01-.681.846L64.88 42.797a1.59 1.59 0 01-2.256-.672l-2.8-5.834L44.629 31.8l-36.54-5.58-3.787 15.387H9.03c.108-.018.218-.017.326 0h13.106a3.978 3.978 0 017.827 1 3.977 3.977 0 01-7.827 1H11.108l4.297 6.23h14.89a3.978 3.978 0 017.826 1 3.977 3.977 0 01-7.827 1H14.88a1 1 0 01-.823-.433l-5.379-7.797H4.351l3.82 9.786 10.708 8.478 8.638.173c.508.01.981.263 1.272.68l2.822 4.048 1.483-.962a1.59 1.59 0 012.073.3l6.27 7.33 5.907-6.925a1.59 1.59 0 011.037-.548l13.672-1.495a1.59 1.59 0 011.296.456l6.027 6.024a.024.024 0 00.04-.025l-2.905-7.812a1.59 1.59 0 01.102-1.329l3.887-6.961-7.147.048a3.978 3.978 0 01-7.828-.994 3.977 3.977 0 017.825-1.006l4.388-.03-3.416-5.359H48.61a3.978 3.978 0 01-7.88-.769 3.977 3.977 0 017.76-1.23h16.38a1 1 0 01.844.462l4.386 6.88zm-8.621 1.052a1.977 1.977 0 100 .007v-.007zM18.7 63.867a1.59 1.59 0 01-.954-.343L6.842 54.89a1.59 1.59 0 01-.494-.668l-4.24-10.862a1.59 1.59 0 01-.062-.958l4.191-17.027a1.59 1.59 0 011.784-1.192l36.937 5.642c.072.01.142.026.211.047l15.396 4.552c.431.127.788.431.983.836l2.683 5.59 12.932-7.833 1.204-3.527a1.873 1.873 0 013.354-.397l2.384 3.759a1.59 1.59 0 01.045 1.626L68.451 62.595l2.84 7.633a2.024 2.024 0 01-3.33 2.138l-5.886-5.885-13.315 1.455-6.114 7.168a1.59 1.59 0 01-2.418.001l-6.347-7.422-1.515.982a1.59 1.59 0 01-2.169-.425l-2.929-4.202-8.568-.171zm7.613-19.284a1.977 1.977 0 100-3.953 1.977 1.977 0 000 3.953zm7.831 8.23a1.977 1.977 0 100-3.954 1.977 1.977 0 000 3.953zm10.563-4.122a1.977 1.977 0 100-3.953 1.977 1.977 0 000 3.953z"/>
  </g>
</svg>