<svg id="icon-device-laptop" viewBox="0 0 96 96" xmlns="http://www.w3.org/2000/svg">
  <g fill="none" fill-rule="nonzero">
    <path class="-path--shadow" fill="#3CC6F3" d="M28.787 24a1 1 0 011-1h55.2a1 1 0 011 1v38.871a1 1 0 01-1 1h-55.2a1 1 0 01-1-1V24z"/>
    <path class="-path--primary" fill="#083176" d="M73.421 30.477h-53.2v34.801h53.2V30.477zM10 71.674a1 1 0 011-1h71.642a1 1 0 011 1v.958a1 1 0 01-1 1H11a1 1 0 01-1-1v-.958zm72.642.958v-.958h-1v.958h1zM11 71.674v.958h1v-.958h-1zm7.221-44.267a1 1 0 011-1h55.2a1 1 0 011 1v38.871a1 1 0 01-1 1h-55.2a1 1 0 01-1-1v-38.87z"/>
    <circle class="-path--white" fill="#FFF" cx="46.821" cy="28.43" r="1"/>
  </g>
</svg>