<svg id="icon-business-deal" viewBox="0 0 96 96" xmlns="http://www.w3.org/2000/svg">
  <g fill="none" fill-rule="nonzero">
    <circle class="-path--shadow" fill="#3CC6F3" cx="56.046" cy="44.514" r="30.514"/>
    <path class="-path--primary" fill="#083176" d="M72.408 51.806c-.23.135-.503.298-.801.479l-.102.061a120.376 120.376 0 00-1.647 1.024l-.606.383-1.753-2.614-5.175 3.467-.408-.751a17.48 17.48 0 01-2.796 2.26l.08.135c.305.533.512 1.07.57 1.607.183 1.689-1.1 2.744-3.773 2.845a3.506 3.506 0 01-.381 1.584c-.595 1.168-1.806 1.864-3.65 1.864h-.196l-7.842-4.481.73-1.278 7.497 4.284c1.185-.038 1.83-.43 2.149-1.056a2.09 2.09 0 00.218-1.04v-.01l.78-.083-8.716-5.047.738-1.274 8.74 5.06c1.806-.08 2.317-.518 2.242-1.21-.033-.302-.17-.661-.384-1.033a4.72 4.72 0 00-.374-.561 93.215 93.215 0 00-16.315-10.7l-2.136.563c-.067.65-.4 1.346-1.115 1.984-.776.693-1.939 1.24-3.542 1.614-2.73.637-4.19.029-4.089-1.581.02-.317.108-.631.24-.94a2.57 2.57 0 01.2-.392 36.969 36.969 0 012.538-4.474 49.692 49.692 0 01-5.865-1.446l.305-.979-6.407 11.805.03-.024 2.492 3.27.024-.033c.39-.59.997-1 1.722-1.147 1.564-.245 2.629.533 3.177 1.869l.01.025 1.292-1.718.301-.043c2.369-.339 3.86.453 4.478 1.983.185.458.27.92.289 1.354 1.079.406 1.852.957 2.341 1.632.607.837.712 1.734.524 2.538a3.072 3.072 0 01-.003.016 3.837 3.837 0 012.24 1.67 3.325 3.325 0 01-.145 3.768l-.097.13 2.705.857c1.717.412 2.925.142 3.762-.535.321-.26.508-.51.575-.645l1.317.659c-.155.31-.465.725-.967 1.131-1.193.965-2.87 1.34-5.08.807l-2.975-.94.243-.768-1.665 2.244-.238.07c-2.013.585-3.429-.22-4.21-1.83a4.656 4.656 0 01-.177-.434l-.191.033a3.836 3.836 0 01-4.295-2.57c-1.977-.083-3.185-.928-3.647-2.298a3.942 3.942 0 01-.195-1.41c-1.393-.279-2.272-.985-2.647-2.004-.226-.613-.238-1.241-.129-1.825a2.74 2.74 0 01.074-.308l.035-.112.069-.095 1.44-2.01-1.114.85-2.115-2.776-.733 1.35-5.175-3.467-1.754 2.614-.605-.383a111.423 111.423 0 00-1.648-1.024l-.101-.061c-.427-.26-.8-.48-1.076-.637C10.425 68.23 24.159 81.4 40.969 81.4c16.756 0 30.456-13.085 31.44-29.594zm.056-1.71l.001-.193a31.36 31.36 0 00-6.625-19.326l-5.92 3.947.489 1.106 7.919 14.102 1.35 2.013c.358-.224.718-.446 1.061-.656l.104-.062c.765-.466 1.296-.775 1.621-.931zm-7.56-20.665c-5.776-6.748-14.356-11.024-23.935-11.024-9.526 0-18.065 4.229-23.84 10.912l7.002 4.668-.747 1.687 5.056 3.16-.454.836a48.22 48.22 0 006.299 1.498 6.372 6.372 0 013.928-2.121 45.746 45.746 0 015.236-.636c2.05-.17 3.31-.019 4.877.47.201.064 1.044.34 1.276.413.498.156.942.277 1.427.385 1.325.294 2.382.244 3.186-.011l-.453-.834 5.056-3.16-.747-1.687 6.834-4.556zm-48.716 1.03a31.362 31.362 0 00-6.715 19.656L9.512 50c.27.09.866.43 1.848 1.027l.103.062c.343.21.704.432 1.062.656l1.35-2.013 7.919-14.102.49-1.106-6.096-4.064zm45.016 22.082L54.926 40.98c-.06.023-.124.045-.191.068-1.062.354-2.408.428-4.026.069a18.472 18.472 0 01-1.546-.417c-.246-.076-1.089-.354-1.276-.412-1.39-.434-2.46-.563-4.33-.408a44.676 44.676 0 00-5.115.622 4.92 4.92 0 00-3.256 1.888 36.316 36.316 0 00-3.11 5.29 2.053 2.053 0 00-.131.261 1.458 1.458 0 00-.125.454c-.008.13.002.149.107.193.337.14 1.056.124 2.178-.138 1.38-.322 2.321-.765 2.896-1.279.544-.486.677-.928.628-1.27v-.002l-.187-.7 3.96-1.043.251.128a94.687 94.687 0 0116.48 10.716 16.007 16.007 0 003.038-2.487l.033.031zM34.457 66.427c.02.092.038.18.052.237.08.322.184.628.32.909.46.949 1.126 1.37 2.243 1.118l1.881-2.536c.46-.616.494-1.452.08-2.106a2.37 2.37 0 00-1.686-1.094l.04-.296-2.93 3.768zm.236-7.625l-4.483 5.884a2.364 2.364 0 002.408 1.708l3.985-5.124.006-.023c.098-.422.044-.89-.283-1.34-.306-.422-.833-.8-1.633-1.105zm-8.187 2.42l-.002.016c-.06.403-.047.845.085 1.238.269.798.982 1.283 2.462 1.302l4.657-6.112c.006-.33-.044-.71-.185-1.058-.335-.83-1.09-1.269-2.608-1.114l-1.719 2.285v.008l-2.69 3.436zm32.98-24.229l-3.77 2.356 7.13 13.135 3.88-2.599-7.24-12.892zm-44.01 12.892l3.88 2.599 7.13-13.135-3.77-2.356-7.24 12.892zm33.719 16.099c.697.056 1.205-.272 1.609-.914a3.736 3.736 0 00.443-1.033l1.437.32c-.087.39-.283.939-.634 1.496-.704 1.12-1.763 1.764-3.157 1.578l-.115-.015-6.994-3.338.634-1.328 6.777 3.234zM25.12 55.922l-1.442 2.014a2.406 2.406 0 00-.009.042c-.065.345-.057.718.063 1.045.206.558.725.953 1.759 1.108l2.199-2.809a3.846 3.846 0 00-.246-.953c-.312-.76-.777-1.1-1.554-.98-.31.063-.58.247-.77.533zm15.848 26.95C22.76 82.872 8 68.112 8 49.903c0-18.208 14.76-32.968 32.969-32.968 18.208 0 32.968 14.76 32.968 32.968 0 18.208-14.76 32.969-32.968 32.969z"/>
  </g>
</svg>