<svg id="icon-products-designs" viewBox="0 0 96 96" xmlns="http://www.w3.org/2000/svg">
  <g fill="none" fill-rule="nonzero">
    <path class="-path--shadow" fill="#3CC6F3" d="M38.659 11h44.32a2 2 0 012 2v55.254a2 2 0 01-2 2H38.66a2 2 0 01-2-2V13a2 2 0 012-2z"/>
    <path class="-path--primary" fill="#083176" d="M11 45.004c0-.891 1.077-1.337 1.707-.707l38.275 38.276c.63.63.184 1.707-.707 1.707H12a1 1 0 01-1-1V45.004zm2 2.414V82.28h34.86L13 47.418zm5.286 14.963c0-.891 1.077-1.337 1.707-.707l13.612 13.613c.63.63.184 1.707-.707 1.707H19.286a1 1 0 01-1-1V62.38zm2 12.613h10.198L20.286 64.795v10.199zm32.096-35.269h7.254l5.941-5.94V18.5a.76.76 0 00-.76-.76H20.334a.76.76 0 00-.761.76v27.867a1 1 0 01-2 0V18.5a2.76 2.76 0 012.76-2.76h44.482a2.76 2.76 0 012.761 2.76v13.284l7.993-7.993a5.39 5.39 0 01.748-.987c1.405-1.48 3.241-1.739 5.04.06 1.797 1.797 1.538 3.633.058 5.038a5.39 5.39 0 01-.987.748L67.577 41.502v32.73a2.76 2.76 0 01-2.76 2.762h-15.44a1 1 0 010-2h15.44c.42 0 .76-.34.76-.761v-30.73l-5.555 5.554V62.19a1 1 0 01-1 1H37.558a1 1 0 01-1-1v-9.797c-7.394-.694-13.18-6.919-13.18-14.495 0-8.04 6.518-14.56 14.559-14.56 8.04 0 14.56 6.52 14.56 14.56 0 .62-.04 1.23-.115 1.828zm-1.886-1.828c0-6.936-5.623-12.56-12.56-12.56-6.936 0-12.559 5.624-12.559 12.56 0 6.47 4.893 11.798 11.181 12.485v-9.657a1 1 0 011-1h12.806c.087-.597.132-1.207.132-1.828zM38.558 52.444v8.745h19.464V51.057l-.182.182a.846.846 0 01-.336.222l-5.709 2.05a.85.85 0 01-1.087-1.087l2.043-5.681a.846.846 0 01.208-.34l4.677-4.678h-5.648C50.359 47.717 45 52.173 38.558 52.444zm0-10.72v8.717c5.329-.26 9.785-3.84 11.344-8.716H38.558zm22.333-.85l-.84.84-5.29 5.29 2.456 2.455.805-.806c.716-.742 1.085-1.112 1.11-1.11l6.471-6.471.746-.746 12.36-12.36-2.454-2.456-8.704 8.704-.746.746-5.914 5.915zM80.018 26.87a4.01 4.01 0 00.228-.2c.846-.804.953-1.561-.09-2.605-1.045-1.044-1.802-.937-2.605-.09a4.01 4.01 0 00-.2.227l2.667 2.668zm-24.35 23.444l-1.761-1.762-.989 2.75 2.75-.988z"/>
  </g>
</svg>