<svg id="icon-business-consulting" viewBox="0 0 96 96" xmlns="http://www.w3.org/2000/svg">
  <g fill="none" fill-rule="nonzero">
    <path class="-path--shadow" fill="#3CC6F3" d="M52.695 73.33H29.511a4.631 4.631 0 01-4.63-4.63v-4.59c0-1.706.937-3.274 2.44-4.08l4.513-2.423 1.605-.897a4.631 4.631 0 013.817-.32l2.257.805a4.631 4.631 0 003.165-.019l2.152-.797a4.631 4.631 0 013.875.305l1.623.911 4.552 2.435a4.631 4.631 0 012.446 4.083V68.7a4.631 4.631 0 01-4.63 4.63zM40.622 52.165c-5.158 0-9.354-4.987-9.354-11.118s4.196-11.119 9.354-11.119c5.157 0 9.353 4.988 9.353 11.119 0 6.13-4.196 11.118-9.353 11.118z"/>
    <path class="-path--secondary" fill="#F99D20" d="M76.411 32.683A10.502 10.502 0 0065.88 22.151v10.436l10.532.096z"/>
    <path class="-path--primary" fill="#083176" d="M63.485 34.981h10.916v.287c0 6.799-4.98 12.352-11.203 12.352-6.815-.017-12.335-5.537-12.352-12.352 0-6.128 5.554-11.202 12.352-11.202h.287V34.98zm-47.363 23.41a.957.957 0 110 1.915A3.122 3.122 0 0113 57.184V20.122A3.122 3.122 0 0116.122 17h62.606a3.122 3.122 0 013.122 3.122v37.062a3.122 3.122 0 01-3.122 3.122H56.994a.957.957 0 110-1.915h21.734c.667 0 1.207-.54 1.207-1.207V20.122a1.207 1.207 0 00-1.207-1.207H16.122a1.207 1.207 0 00-1.207 1.207v37.062c0 .666.54 1.207 1.207 1.207zm30.003 19.673H19.8a5.693 5.693 0 01-5.692-5.693V66.71a5.693 5.693 0 013-5.016l5.16-2.77 1.92-1.073a5.693 5.693 0 014.692-.393l2.778.992c.836.298 1.75.292 2.582-.016l2.664-.986a5.693 5.693 0 014.764.374l1.924 1.08 5.22 2.792a5.693 5.693 0 013.007 5.02v5.658a5.693 5.693 0 01-5.693 5.693zm0-1.915a3.778 3.778 0 003.778-3.778v-5.658a3.778 3.778 0 00-1.996-3.331l-5.236-2.801-1.941-1.09a3.778 3.778 0 00-3.162-.249l-2.664.987a5.693 5.693 0 01-3.89.023l-2.779-.991a3.778 3.778 0 00-3.113.26l-1.934 1.082-5.175 2.778a3.778 3.778 0 00-1.991 3.328v5.662a3.778 3.778 0 003.777 3.778h26.326zm-13.16-19.142c-5.723 0-10.285-5.667-10.285-12.544 0-6.877 4.561-12.543 10.285-12.543 5.723 0 10.284 5.666 10.284 12.543 0 6.877-4.561 12.544-10.284 12.544zm0-1.915c4.563 0 8.37-4.729 8.37-10.629 0-5.9-3.807-10.628-8.37-10.628-4.563 0-8.37 4.729-8.37 10.628 0 5.9 3.807 10.629 8.37 10.629z"/>
  </g>
</svg>