<svg id="icon-device-ip-phone" viewBox="0 0 96 96" xmlns="http://www.w3.org/2000/svg">
  <g fill="none" fill-rule="nonzero">
    <path class="-path--shadow" fill="#3CC6F3" d="M86.677 65.235c0 .17-.138.307-.307.307H20.897a.307.307 0 01-.307-.307V19.951c0-.17.138-.307.307-.307H86.37c.17 0 .307.138.307.307v45.284z"/>
    <path class="-path--primary" fill="#083176" d="M70.282 71.975v4.36a1 1 0 01-1 1H50.876a1 1 0 01-1-1v-4.36H11a1 1 0 01-1-1V25.691a1 1 0 011-1h38.876V20a1 1 0 011-1h18.406a1 1 0 011 1v4.691h6.19a1 1 0 011 1v45.284a1 1 0 01-1 1h-6.19zm0-2h5.19V26.691h-5.19v43.284zm-2-44.296V21H51.876v54.335h16.406V25.703a1.021 1.021 0 010-.024zM49.876 69.975V26.691H12v43.284h37.876zm-35.35-40.923a.6.6 0 01.6-.6h27.028a.6.6 0 01.6.6v8.258a.6.6 0 01-.6.6H15.125a.6.6 0 01-.6-.6v-8.258zm1.2 7.658h25.828v-7.058H15.725v7.058zm-1.25 15.354a.65.65 0 01.65-.65h5.647a.65.65 0 01.65.65v5.648a.65.65 0 01-.65.65h-5.648a.65.65 0 01-.65-.65v-5.648zm1.3 4.998h4.347v-4.348h-4.348v4.348zm9.571-4.998a.65.65 0 01.65-.65h5.648a.65.65 0 01.65.65v5.648a.65.65 0 01-.65.65h-5.648a.65.65 0 01-.65-.65v-5.648zm1.3 4.998h4.348v-4.348h-4.348v4.348zm9.573-4.998a.65.65 0 01.65-.65h5.648a.65.65 0 01.65.65v5.648a.65.65 0 01-.65.65H36.87a.65.65 0 01-.65-.65v-5.648zm1.3 4.998h4.348v-4.348H37.52v4.348zm-23.045 4.392a.65.65 0 01.65-.65h5.648a.65.65 0 01.65.65v5.648a.65.65 0 01-.65.65h-5.648a.65.65 0 01-.65-.65v-5.648zm1.3 4.998h4.348v-4.348h-4.348v4.348zm9.572-4.998a.65.65 0 01.65-.65h5.648a.65.65 0 01.65.65v5.648a.65.65 0 01-.65.65h-5.648a.65.65 0 01-.65-.65v-5.648zm1.3 4.998h4.348v-4.348h-4.348v4.348zm9.573-4.998a.65.65 0 01.65-.65h5.648a.65.65 0 01.65.65v5.648a.65.65 0 01-.65.65H36.87a.65.65 0 01-.65-.65v-5.648zm1.3 4.998h4.348v-4.348H37.52v4.348zM14.475 41.934a.65.65 0 01.65-.65h5.648a.65.65 0 01.65.65v5.648a.65.65 0 01-.65.65h-5.648a.65.65 0 01-.65-.65v-5.648zm1.3 4.998h4.348v-4.348h-4.348v4.348zm9.572-4.998a.65.65 0 01.65-.65h5.648a.65.65 0 01.65.65v5.648a.65.65 0 01-.65.65h-5.648a.65.65 0 01-.65-.65v-5.648zm1.3 4.998h4.348v-4.348h-4.348v4.348zm9.573-4.998a.65.65 0 01.65-.65h5.648a.65.65 0 01.65.65v5.648a.65.65 0 01-.65.65H36.87a.65.65 0 01-.65-.65v-5.648zm1.3.65v4.348h4.348v-4.348H37.52zm-11.73-11.8h1.133v5.152H25.79v-5.151zm2.423 0h2.104a1.764 1.764 0 011.972 1.782v.015a1.841 1.841 0 01-2.082 1.81h-.861v1.545h-1.133v-5.151zm2.03 2.598a.798.798 0 00.899-.78v-.014c0-.508-.354-.78-.92-.78h-.876v1.574h.897z"/>
  </g>
</svg>