<svg id="icon-business-finance" viewBox="0 0 96 96" xmlns="http://www.w3.org/2000/svg">
  <g fill="none" fill-rule="nonzero">
    <path class="-path--shadow" fill="#3CC6F3" d="M26.04 32.228a1.106 1.106 0 01-1.106-1.106v-7.016A1.106 1.106 0 0126.04 23h11.686l3.165 3.32h38.104a1.106 1.106 0 011.106 1.106v3.696a1.106 1.106 0 01-1.106 1.106h3.408c.61 0 1.106.495 1.106 1.106l-5.532 32.832a1.106 1.106 0 01-1.106 1.106H28.164a1.106 1.106 0 01-1.106-1.106l-5.532-32.832c0-.61.495-1.106 1.106-1.106h3.408z"/>
    <path class="-path--primary" fill="#083176" d="M16.41 36.183a2.141 2.141 0 01-.002-.106v-7.015c0-1.163.943-2.107 2.106-2.107h12.114l3.165 3.32H71.47a2.106 2.106 0 012.106 2.106v3.696c0 .036 0 .071-.002.106h1.304c1.163 0 2.106.944 2.106 2.107l-.013.166-5.52 32.762a2.106 2.106 0 01-2.105 2.01H20.639a2.107 2.107 0 01-2.105-2.01l-5.52-32.762L13 38.29c0-1.163.943-2.107 2.106-2.107h1.305zm2.104 0H71.47a.106.106 0 00.106-.106v-3.696a.106.106 0 00-.106-.106H32.937l-3.165-3.32H18.514a.106.106 0 00-.106.107v7.015c0 .059.048.106.106.106zm56.363 2h-59.77a.106.106 0 00-.1.068l5.511 32.704.014.166c0 .059.048.106.107.106h48.706a.106.106 0 00.106-.106l.014-.166 5.511-32.704a.106.106 0 00-.099-.068zM44.992 64.128a9.423 9.423 0 110-18.845 9.423 9.423 0 010 18.845z"/>
    <path class="-path--white" fill="#FFF" d="M44.31 59.95v-1.22a5.177 5.177 0 01-2.185-.553l.386-1.504a4.544 4.544 0 002.133.565c.733 0 1.235-.282 1.235-.796 0-.49-.412-.798-1.363-1.12-1.376-.462-2.314-1.105-2.314-2.352a2.376 2.376 0 012.172-2.288v-1.221h1.26v1.131c.644.01 1.28.154 1.865.424l-.373 1.453a4.265 4.265 0 00-1.851-.438c-.836 0-1.106.36-1.106.72 0 .425.45.695 1.543 1.106 1.53.54 2.147 1.247 2.147 2.405a2.464 2.464 0 01-2.289 2.378v1.31h-1.26z"/>
  </g>
</svg>