<svg id="icon-people-admin" viewBox="0 0 96 96" xmlns="http://www.w3.org/2000/svg">
  <g fill="none" fill-rule="nonzero">
    <path class="-path--shadow" fill="#3CC6F3" d="M86.058 36.361a.87.87 0 00.226-1.126l-7.57-13.153a.87.87 0 00-1.087-.37l-10.284 4.254a24.16 24.16 0 00-4.134-2.365l-1.416-10.843a.87.87 0 00-.864-.758H45.753a.87.87 0 00-.863.758l-1.416 10.843a24.136 24.136 0 00-3.268 1.775l-10.586-4.43a.87.87 0 00-1.09.365l-7.622 13.123a.87.87 0 00.222 1.128l8.31 6.398a23.987 23.987 0 00-.2 5.856l-8.72 6.66a.87.87 0 00-.227 1.126l7.57 13.153a.87.87 0 001.087.37l9.869-4.083a24.166 24.166 0 004.566 2.71l1.392 10.657a.87.87 0 00.863.758h15.176a.87.87 0 00.864-.758l1.378-10.552a24.157 24.157 0 004.509-2.592l9.982 4.177a.87.87 0 001.089-.366l7.622-13.122a.87.87 0 00-.222-1.128l-8.634-6.647c.086-.824.13-1.652.132-2.48a24.385 24.385 0 00-.157-2.712l8.679-6.626z"/>
    <path class="-path--primary" fill="#083176" d="M76.088 41.039l-8.62 6.58c.098.88.148 1.765.15 2.65v.005a24.497 24.497 0 01-.126 2.42L76.07 59.3a1 1 0 01.254 1.294l-7.622 13.123a1 1 0 01-1.25.42l-9.916-4.15a24.285 24.285 0 01-4.407 2.534L51.76 83a1 1 0 01-.992.87H35.593A1 1 0 0134.6 83l-1.383-10.586a24.294 24.294 0 01-4.465-2.65l-9.801 4.055a1 1 0 01-1.25-.425l-7.569-13.153a1 1 0 01.26-1.294l8.665-6.615a24.117 24.117 0 01.195-5.742l-8.25-6.351a1 1 0 01-.254-1.295L18.37 25.82a1 1 0 011.25-.42l10.524 4.404a24.266 24.266 0 013.163-1.718l1.406-10.771a1 1 0 01.992-.87h15.176a1 1 0 01.991.87l1.407 10.771a24.288 24.288 0 014.032 2.307l10.218-4.227a1 1 0 011.249.425l7.57 13.153a1 1 0 01-.26 1.294zm-10.645 11.98c.114-.912.172-1.829.174-2.747a22.501 22.501 0 00-.202-2.965 1 1 0 01.384-.93l8.378-6.395-6.694-11.632-9.923 4.106a1 1 0 01-.978-.121 22.288 22.288 0 00-4.61-2.637 1 1 0 01-.602-.791l-1.366-10.461h-13.42l-1.366 10.46a1 1 0 01-.603.792 22.266 22.266 0 00-3.804 2.064 1 1 0 01-.946.094L19.66 27.585l-6.74 11.604 8.029 6.182a1 1 0 01.374.97 22.117 22.117 0 00-.221 6.339 1 1 0 01-.388.903l-8.41 6.421 6.694 11.632 9.523-3.94a1 1 0 011.001.138 22.294 22.294 0 005.009 2.974 1 1 0 01.598.79L36.47 81.87h13.42l1.328-10.175a1 1 0 01.61-.794 22.285 22.285 0 004.963-2.853 1 1 0 01.992-.127l9.63 4.03 6.74-11.604-8.33-6.413a1 1 0 01-.381-.916zM32.316 63.586a17.239 17.239 0 0010.925 3.883c4.144 0 7.949-1.457 10.929-3.886a1.013 1.013 0 01-.004-.093v-2.852c0-.795-.438-1.525-1.139-1.9l-3.495-1.87-1.293-.726A2.155 2.155 0 0046.435 56l-1.775.658a4.155 4.155 0 01-2.84.017l-1.85-.66a2.155 2.155 0 00-1.776.148l-1.294.723-3.448 1.851a2.155 2.155 0 00-1.136 1.899v2.95zm-2-1.912v-1.038c0-1.53.841-2.937 2.19-3.661l3.433-1.843 1.279-.715a4.155 4.155 0 013.424-.287l1.851.661c.477.17.998.167 1.473-.009l1.775-.657a4.155 4.155 0 013.477.273l1.275.716 3.478 1.86a4.155 4.155 0 012.195 3.664v1.036a17.246 17.246 0 004.385-11.516c0-9.56-7.75-17.31-17.31-17.31-9.56 0-17.31 7.75-17.31 17.31 0 4.422 1.657 8.456 4.385 11.516zm12.925 7.795c-10.665 0-19.31-8.646-19.31-19.31 0-10.666 8.645-19.311 19.31-19.311s19.31 8.645 19.31 19.31-8.645 19.31-19.31 19.31zm.001-16.937c-4.032 0-7.214-3.953-7.214-8.72 0-4.766 3.182-8.719 7.214-8.719 4.033 0 7.215 3.953 7.215 8.72 0 4.766-3.182 8.719-7.215 8.719zm0-2c2.821 0 5.215-2.974 5.215-6.72 0-3.746-2.394-6.719-5.215-6.719-2.82 0-5.214 2.973-5.214 6.72 0 3.745 2.394 6.719 5.214 6.719z"/>
  </g>
</svg>