<svg id="icon-business-opportunities" viewBox="0 0 96 96" xmlns="http://www.w3.org/2000/svg">
  <g fill="none" fill-rule="nonzero">
    <path class="-path--shadow" fill="#3CC6F3" d="M74.812 63.809a8.403 8.403 0 01-4.147 4.553L47.118 80.065a7.538 7.538 0 00-4.13 6.993H25.81l2.755-9.372a75.794 75.794 0 012.293-6.647l1.413-3.557a12.112 12.112 0 017.792-7.071l11.62-3.514a2.928 2.928 0 013.448 1.42 2.762 2.762 0 01-1.412 3.808l-5.855 2.518a2.13 2.13 0 00-.676 3.505c.66.61 1.61.791 2.448.467l14.934-5.416a8.991 8.991 0 004.791-4.268l2.848-4.96a3.114 3.114 0 013.599-1.462 2.851 2.851 0 011.857 3.709l-2.853 7.59zM53.106 15.977a12.17 12.17 0 015.544 23.305v4.348a1.55 1.55 0 01-1.55 1.55h-6.64a1.55 1.55 0 01-1.55-1.55v-4.348a12.168 12.168 0 014.196-23.305zM49.458 49.36a.548.548 0 01-.548-.548v-1.568h9.74v1.568a.548.548 0 01-.547.548h-1.888v2.435h-4.87v-2.435h-1.887z"/>
    <path class="-path--secondary" fill="#F99D20" d="M24.654 28.351h2.435a2.435 2.435 0 110 4.87h-2.435a2.435 2.435 0 010-4.87zm46.267 0h2.436a2.435 2.435 0 110 4.87H70.92a2.435 2.435 0 010-4.87zM49.005 4a2.435 2.435 0 012.435 2.435V8.87a2.435 2.435 0 01-4.87 0V6.435A2.435 2.435 0 0149.005 4zm-18.94 7.846a2.435 2.435 0 013.443 0l1.722 1.722a2.435 2.435 0 11-3.444 3.443l-1.722-1.721a2.435 2.435 0 010-3.444zm32.715 1.721l1.722-1.722a2.435 2.435 0 013.444 3.444l-1.722 1.722a2.435 2.435 0 01-3.444-3.444z"/>
    <path class="-path--primary" fill="#083176" d="M37.383 36.986a13.146 13.146 0 01-1.346-8.54 13.147 13.147 0 014.24-7.535 13.147 13.147 0 018-3.28c3.181-.179 6.2.796 8.606 2.59a13.143 13.143 0 014.94 7.51 13.143 13.143 0 01-1.029 8.93 13.143 13.143 0 01-6.519 6.19l.6-.917v4.348c0 .704-.285 1.342-.746 1.803-.462.462-1.1.747-1.804.747h-6.64a2.542 2.542 0 01-1.803-.747 2.542 2.542 0 01-.747-1.803v-4.348l.6.917a13.146 13.146 0 01-6.352-5.865zm14.942 9.846a.55.55 0 00.55-.55v-4.348a1 1 0 01.6-.917 11.17 11.17 0 00-5.089-21.39 11.169 11.169 0 00-3.851 21.39 1 1 0 01.6.917v4.348c0 .304.246.55.55.55h6.64zm-7.642 5.182a.548.548 0 01-.548-.548v-1.337h9.74v1.337a.548.548 0 01-.547.548H51.44v1.559a.876.876 0 01-.876.876h-3.118a.876.876 0 01-.876-.876v-1.56h-1.887zm27.109 7.896l-2.855 7.595a9.4 9.4 0 01-4.637 5.093l-23.54 11.7a6.538 6.538 0 00-3.583 6.065 1 1 0 01-1 1.036H19.002a1 1 0 01-.96-1.282l2.755-9.372a76.797 76.797 0 012.323-6.735l1.416-3.563a13.109 13.109 0 018.43-7.653l11.613-3.512c1.799-.556 3.74.243 4.635 1.921a3.762 3.762 0 01-1.908 5.181l-5.873 2.525a1.13 1.13 0 00-.375 1.845c.38.351.926.456 1.429.261l14.92-5.41a8.024 8.024 0 004.278-3.832l2.843-4.952a4.116 4.116 0 014.759-1.93 3.851 3.851 0 012.506 5.02zm-8.378 10.895a7.403 7.403 0 003.653-4.01l2.85-7.58a1.851 1.851 0 00-1.203-2.407 2.117 2.117 0 00-2.448 1l-2.826 4.923A10 10 0 0158.1 67.48l-14.914 5.408a3.362 3.362 0 01-3.504-.68 3.13 3.13 0 01.976-5.143l5.871-2.525a1.762 1.762 0 00.91-2.412 1.93 1.93 0 00-2.277-.933L33.537 64.71a11.109 11.109 0 00-7.146 6.482l-1.414 3.557a74.8 74.8 0 00-2.262 6.56l-2.378 8.09h14.867a8.542 8.542 0 014.66-6.889l23.55-11.705z"/>
  </g>
</svg>