<svg id="icon-business-checklist" viewBox="0 0 96 96" xmlns="http://www.w3.org/2000/svg">
  <g fill="none" fill-rule="nonzero">
    <path class="-path--shadow" fill="#3CC6F3" d="M68.063 22.487h-5.26V19a1 1 0 00-1-1H43.125a1 1 0 00-1 1v3.487h-5.063a2 2 0 00-2 2v46a2 2 0 002 2h31a2 2 0 002-2v-46a2 2 0 00-2-2z"/>
    <path class="-path--primary" fill="#083176" d="M54.74 25.432H59a3 3 0 013 3v46a3 3 0 01-3 3H28a3 3 0 01-3-3v-46a3 3 0 013-3h4.063v-2.487a2 2 0 012-2h18.676a2 2 0 012 2v2.487zm-22.677 2H28a1 1 0 00-1 1v46a1 1 0 001 1h31a1 1 0 001-1v-46a1 1 0 00-1-1h-4.26v3.06a2 2 0 01-2 2H34.062a2 2 0 01-2-2v-3.06zm2-4.487v7.548h18.676v-7.548H34.063zm4.56 20.007l1.662 2.23 6.593-8.167 1.283 1.036-7.927 9.82-2.933-3.933 1.321-.986zm-6.318 12.436v-1.65h20.027v1.65H32.305zm0 5.076v-1.649h22.027v1.649H32.305zm0 4.891v-1.649h18.027v1.649H32.305z"/>
  </g>
</svg>