<svg id="icon-platform-voice-unified-communications" viewBox="0 0 96 96" xmlns="http://www.w3.org/2000/svg">
  <g fill="none" fill-rule="nonzero">
    <path class="-path--primary" fill="#083176" d="M26.766 33.715h-2v-2.079C24.793 19.126 34.941 9 47.451 9c12.51 0 22.658 10.127 22.685 22.638v1.694h-2v-1.691C68.11 20.234 58.858 11 47.45 11c-11.407 0-20.66 9.234-20.685 20.638v2.077zM67.915 48.17a1 1 0 111.98.279c-1.27 9.035-7.557 14.212-16.53 14.212a1 1 0 010-2c7.998 0 13.421-4.466 14.55-12.49z"/>
    <path class="-path--shadow" fill="#3CC6F3" d="M25.509 32.958c1.112 0 2.014.901 2.014 2.014v11.427a2.014 2.014 0 01-2.014 2.014A6.509 6.509 0 0119 41.904v-2.438a6.509 6.509 0 016.509-6.508zm44.039 0a6.663 6.663 0 016.663 6.663v2.129a6.663 6.663 0 01-6.664 6.663 2.168 2.168 0 01-2.168-2.168V35.126a2.168 2.168 0 012.168-2.168zM43.429 61.976a4.1 4.1 0 014.1-4.1h1.736a4.1 4.1 0 010 8.2H47.53a4.1 4.1 0 01-4.1-4.1z"/>
    <path class="-path--secondary" fill="#F99D20" d="M40.912 71.365a1 1 0 111.433-1.395 7.21 7.21 0 0010.33 0 1 1 0 011.434 1.395 9.21 9.21 0 01-13.197 0zm-6.114 4.112a1 1 0 111.433-1.395 15.743 15.743 0 0022.558 0 1 1 0 111.433 1.395 17.743 17.743 0 01-25.424 0zm-5.492 4.62a1 1 0 111.433-1.395 23.408 23.408 0 0033.542 0 1 1 0 011.433 1.395 25.408 25.408 0 01-36.408 0z"/>
  </g>
</svg>