<svg id="icon-people-support" viewBox="0 0 96 96" xmlns="http://www.w3.org/2000/svg">
  <g fill="none" fill-rule="nonzero">
    <path class="-path--shadow" fill="#3CC6F3" d="M72.185 78.168H36.84a7.06 7.06 0 01-7.06-7.06V64.11c0-2.6 1.43-4.99 3.722-6.22l6.878-3.692 2.447-1.369a7.06 7.06 0 015.819-.487l3.441 1.228a7.06 7.06 0 004.825-.029l3.28-1.215a7.06 7.06 0 015.909.464l2.474 1.39 6.938 3.71a7.06 7.06 0 013.73 6.226v6.992a7.06 7.06 0 01-7.06 7.06zM53.779 45.9c-7.863 0-14.26-7.603-14.26-16.95 0-9.346 6.397-16.95 14.26-16.95 7.862 0 14.26 7.604 14.26 16.95 0 9.347-6.398 16.95-14.26 16.95z"/>
    <path class="-path--primary" fill="#083176" d="M47.225 42.71a3.491 3.491 0 01-3.296 2.339h-1.476a3.49 3.49 0 110-6.98h1.476a3.49 3.49 0 013.486 3.654c1.958.2 3.92.244 5.775.071a18.759 18.759 0 003.05-.52c1.596-2.818 2.54-6.264 2.54-9.992 0-9.564-6.209-17.276-13.728-17.276-7.518 0-13.726 7.712-13.726 17.276 0 9.563 6.208 17.275 13.726 17.275 4.16 0 7.917-2.36 10.445-6.087-.7.142-1.44.248-2.215.32-1.955.182-4.01.133-6.057-.08zm15.47-8.19a5.08 5.08 0 01-2.034.422c-.105 0-.208-.01-.307-.029a22.01 22.01 0 01-1.552 5.372c2.196-1.192 3.546-3.075 3.893-5.765zm1.066-.628c-.243 3.915-2.266 6.456-5.643 7.812-2.773 5.231-7.576 8.709-13.066 8.709-8.642 0-15.582-8.62-15.582-19.131 0-10.511 6.94-19.131 15.582-19.131 6.443 0 11.94 4.79 14.32 11.582a1.656 1.656 0 011.29-.615 5.098 5.098 0 015.097 5.097v1.63a5.09 5.09 0 01-1.998 4.047zm1.97 49.606H24.366A8.367 8.367 0 0116 75.13v-8.896a8.367 8.367 0 014.41-7.373l8.117-4.356 3.016-1.687a8.367 8.367 0 016.896-.578l4.366 1.558a6.512 6.512 0 004.45-.026l4.185-1.55a8.367 8.367 0 017.003.55l3.034 1.703 8.2 4.386a8.367 8.367 0 014.42 7.378v8.891a8.367 8.367 0 01-8.367 8.368zm0-1.856a6.512 6.512 0 006.51-6.512v-8.89a6.512 6.512 0 00-3.44-5.743l-8.216-4.395-3.05-1.712a6.512 6.512 0 00-5.45-.429l-4.185 1.55a8.367 8.367 0 01-5.719.035l-4.365-1.558a6.512 6.512 0 00-5.367.45l-3.03 1.694-8.131 4.364a6.512 6.512 0 00-3.432 5.738v8.896a6.512 6.512 0 006.511 6.512H65.73z"/>
  </g>
</svg>