<svg id="icon-platform-edge-compute" viewBox="0 0 96 96" xmlns="http://www.w3.org/2000/svg">
  <g fill="none" fill-rule="nonzero">
    <path class="-path--shadow" fill="#3CC6F3" stroke="#3CC6F3" d="M43.902 19.213c0-5.088 10.46-9.213 23.362-9.213 12.902 0 23.362 4.125 23.362 9.213 0 .216-.02.43-.056.642l.056.001-.005 34.657c-.5 4.939-10.387 8.888-23.912 8.888a45.287 45.287 0 01-15.871-2.438A22.62 22.62 0 0043.9 45.368V19.213z"/>
    <path class="-path--primary" fill="#083176" d="M49.391 70.606c-3.557 8.527-11.974 14.52-21.79 14.52C14.566 85.126 4 74.559 4 61.525 4 48.49 14.566 37.924 27.6 37.924c1.683 0 3.323.176 4.906.51v-5.02h.002V26.53a4.94 4.94 0 01-.235-1.5c0-6.077 11.252-10.546 25.034-10.546 13.782 0 25.034 4.469 25.034 10.545 0 .835-.213 1.64-.615 2.406h.136l-.003 7.125h.005l-.004 12.198h.004l-.009 13.732c-.585 6.185-11.316 10.546-25.23 10.546a58.16 58.16 0 01-7.234-.43zm.708-1.93c2.165.246 4.342.367 6.524.36 12.984 0 22.792-3.986 23.237-8.64l.003-8.041c-3.738 3.944-12.3 6.482-22.664 6.482a58.533 58.533 0 01-6.187-.317c.125.984.19 1.987.19 3.005 0 2.493-.387 4.895-1.103 7.151zm.561-12.202v-.004c2.17.248 4.352.371 6.537.367 12.668 0 22.23-3.978 22.667-8.637v-8.36c-3.801 4.082-12.563 6.786-22.667 6.786-4.573 0-8.94-.561-12.698-1.577a23.553 23.553 0 016.161 11.425zM39.482 43.25a21.12 21.12 0 01-2.181-1.172 17.173 17.173 0 01-.481-.308 21.712 21.712 0 00-9.22-2.04c-12.036 0-21.793 9.757-21.793 21.794S15.564 83.319 27.6 83.319s21.794-9.757 21.794-21.794c0-7.654-3.945-14.386-9.913-18.274zm-1.19-2.772l.062-.1c4.242 2.628 11.224 4.247 18.843 4.247 12.28 0 22.256-4.223 22.665-8.989v-5.923c-4.054 3.553-12.652 5.861-22.555 5.861-10.108 0-18.855-2.404-22.8-6.083l-.002 3.923v2.154c.15 1.66 1.467 3.335 3.849 4.81l-.062.1zm-.955 1.542l-.036.058.036-.058zm19.97-8.446c12.765 0 23.034-4.078 23.034-8.546 0-4.467-10.269-8.545-23.034-8.545-12.765 0-23.034 4.078-23.034 8.545 0 4.468 10.269 8.546 23.034 8.546z"/>
    <path class="-path--primary" fill="#083176" d="M19.556 50.608V49.1c0-1.167 1.75-1.167 1.75 0 0 1.166-1.75 1.166-1.75 0v-2.48c0-1.167 1.75-1.167 1.75 0v3.987h1.751V49.1c0-1.167 1.75-1.167 1.75 0 0 1.166-1.75 1.166-1.75 0v-2.48c0-1.167 1.75-1.167 1.75 0v3.987h1.751V49.1c0-1.167 1.75-1.167 1.75 0 0 1.166-1.75 1.166-1.75 0v-2.48c0-1.167 1.75-1.167 1.75 0v3.987h1.75V49.1c0-1.167 1.751-1.167 1.751 0 0 1.166-1.75 1.166-1.75 0v-2.48c0-1.167 1.75-1.167 1.75 0v3.987h1.75V49.1c0-1.167 1.751-1.167 1.751 0 0 1.166-1.75 1.166-1.75 0v-2.48c0-1.167 1.75-1.167 1.75 0v3.987h2.702c.483 0 .875.392.875.875v1.76h1.66c1.167 0 1.167 1.751 0 1.751-1.166 0-1.166-1.75 0-1.75h2.48c1.167 0 1.167 1.75 0 1.75h-4.14v1.75h1.66c1.167 0 1.167 1.751 0 1.751-1.166 0-1.166-1.75 0-1.75h2.48c1.167 0 1.167 1.75 0 1.75h-4.14v1.75h1.66c1.167 0 1.167 1.751 0 1.751-1.166 0-1.166-1.75 0-1.75h2.48c1.167 0 1.167 1.75 0 1.75h-4.14v1.75h1.66c1.167 0 1.167 1.75 0 1.75-1.166 0-1.166-1.75 0-1.75h2.48c1.167 0 1.167 1.75 0 1.75h-4.14v1.751h1.66c1.167 0 1.167 1.75 0 1.75-1.166 0-1.166-1.75 0-1.75h2.48c1.167 0 1.167 1.75 0 1.75h-4.14v1.595a.875.875 0 01-.875.875H35.31v4.154c0 1.167-1.75 1.167-1.75 0v-2.48c0-1.167 1.75-1.167 1.75 0s-1.75 1.167-1.75 0v-1.674h-1.75v4.154c0 1.167-1.751 1.167-1.751 0v-2.48c0-1.167 1.75-1.167 1.75 0s-1.75 1.167-1.75 0v-1.674h-1.75v4.154c0 1.167-1.75 1.167-1.75 0v-2.48c0-1.167 1.75-1.167 1.75 0s-1.75 1.167-1.75 0v-1.674h-1.751v4.154c0 1.167-1.75 1.167-1.75 0v-2.48c0-1.167 1.75-1.167 1.75 0s-1.75 1.167-1.75 0v-1.674h-1.751v4.154c0 1.167-1.75 1.167-1.75 0v-2.48c0-1.167 1.75-1.167 1.75 0s-1.75 1.167-1.75 0v-1.674h-2.55a.875.875 0 01-.876-.875v-1.594h-4.025c-1.166 0-1.166-1.75 0-1.75h2.48c1.167 0 1.167 1.75 0 1.75s-1.167-1.75 0-1.75h1.545v-1.751h-4.025c-1.166 0-1.166-1.75 0-1.75h2.48c1.167 0 1.167 1.75 0 1.75s-1.167-1.75 0-1.75h1.545v-1.751h-4.025c-1.166 0-1.166-1.75 0-1.75h2.48c1.167 0 1.167 1.75 0 1.75s-1.167-1.75 0-1.75h1.545v-1.75h-4.025c-1.166 0-1.166-1.751 0-1.751h2.48c1.167 0 1.167 1.75 0 1.75s-1.167-1.75 0-1.75h1.545v-1.75h-4.025c-1.166 0-1.166-1.751 0-1.751h2.48c1.167 0 1.167 1.75 0 1.75s-1.167-1.75 0-1.75h1.545v-1.761c0-.483.392-.875.875-.875h2.55zm-1.674 17.85v1.259h19.254V52.358h-2.28a.962.962 0 01-.842 0h-2.658a.962.962 0 01-.843 0h-2.658a.962.962 0 01-.843 0h-2.658a.962.962 0 01-.843 0h-2.658a.962.962 0 01-.843 0h-2.128v1.426a.97.97 0 010 .67v2.83a.97.97 0 010 .671v2.83a.97.97 0 010 .67v2.831a.97.97 0 010 .67v2.831a.97.97 0 010 .67zm2.334-13.259c0-.483.392-.875.876-.875h12.834c.484 0 .876.392.876.875v11.677a.875.875 0 01-.876.875H21.092a.875.875 0 01-.876-.875V55.199zM21.966 66h11.085v-9.925H21.967V66zm-7.38 1.247v1.75-1.75zm0-3.5v1.75-1.75zm0-3.501v1.75-1.75zm0-3.501v1.75-1.75zm0-3.501v1.75-1.75zm25.962 14.003v1.75-1.75zm0-3.5v1.75-1.75zm0-3.501v1.75-1.75zm0-3.501v1.75-1.75zm0-3.501v1.75-1.75zM33.56 73.14h1.75-1.75zm-3.501 0h1.75-1.75zm-3.5 0h1.75-1.75zm-3.502 0h1.75-1.75zm-3.5 0h1.75-1.75zm14.003-24.04h1.75-1.75zm-3.501 0h1.75-1.75zm-3.5 0h1.75-1.75zm-3.502 0h1.75-1.75zm-3.5 0h1.75-1.75z"/>
  </g>
</svg>