<svg id="icon-business-time" viewBox="0 0 96 96" xmlns="http://www.w3.org/2000/svg">
  <g fill="none" fill-rule="nonzero">
    <circle class="-path--shadow" fill="#3CC6F3" cx="51.817" cy="46.122" r="29.122"/>
    <path class="-path--primary" fill="#083176" d="M57.13 21.49a1 1 0 11-.74 1.857c-12.233-4.867-26.204-.565-33.58 10.34-7.374 10.907-6.165 25.476 2.908 35.016s23.563 11.479 34.825 4.66c11.262-6.819 16.26-20.557 12.012-33.018a1 1 0 011.893-.646c4.551 13.35-.803 28.07-12.87 35.375-12.065 7.305-27.589 5.228-37.309-4.993-9.72-10.22-11.016-25.83-3.115-37.513 7.901-11.684 22.87-16.294 35.975-11.079zm8.567 13.848a4.684 4.684 0 110-9.369 4.684 4.684 0 010 9.369zM34.514 62.136a2.5 2.5 0 01-1.472-4.522l11.448-8.321a.162.162 0 00.068-.132V31.653a2.5 2.5 0 115 0v17.508a5.177 5.177 0 01-2.128 4.177l-11.448 8.32a2.49 2.49 0 01-1.468.478z"/>
  </g>
</svg>