<svg id="icon-device-video-streaming" viewBox="0 0 96 96" xmlns="http://www.w3.org/2000/svg">
  <g fill="none" fill-rule="nonzero">
    <path class="-path--shadow" fill="#3CC6F3" d="M25.311 19h55.973v39.026H25.311z"/>
    <path class="-path--secondary" fill="#F99D20" d="M89.334 37.104a2.873 2.873 0 110 1.3H77.482a.65.65 0 110-1.3h11.852zM4.937 43.81a.647.647 0 010-.599 1.831 1.831 0 100 .599zm1.257-.95h13.937a.65.65 0 010 1.3H6.194a3.132 3.132 0 110-1.3zm8.022 4.165v4.093h6.553a.65.65 0 110 1.3h-7.203a.65.65 0 01-.65-.65v-4.093H8.024a.65.65 0 110-1.3h5.542a.65.65 0 01.65.65zm76.292-14.512a.65.65 0 110 1.3H77.242a.65.65 0 010-1.3h13.266zm.656 18.065a.65.65 0 110 1.3H77.963a.65.65 0 110-1.3h13.201zm.968-11.253a1.571 1.571 0 100-3.143 1.571 1.571 0 000 3.143zM5.004 34.644a.65.65 0 010-1.3H19.97a.65.65 0 110 1.3H5.004zm6.318 4.697a.65.65 0 110-1.3h8.579a.65.65 0 110 1.3h-8.579zm72.51 7.401v-4.938H77.81a.65.65 0 110-1.3h6.672a.65.65 0 01.65.65v4.938h9.293a.65.65 0 110 1.3h-9.943a.65.65 0 01-.65-.65z"/>
    <path class="-path--primary" fill="#083176" d="M20.024 22.953a1 1 0 011-1h55.973a1 1 0 011 1v39.026a1 1 0 01-1 1H21.024a1 1 0 01-1-1V22.953zm2 1v37.026h53.973V23.953H22.024zm18.752 28.99a1 1 0 01-1.443-.896V32.885a1 1 0 011.443-.897l19.412 9.581a1 1 0 010 1.794l-19.412 9.58zm.557-18.45v15.945l16.153-7.972-16.153-7.972zm-9.29 38.17a1.005 1.005 0 010-.396 2.444 2.444 0 100 .396zm1.896-1.198h43.058a1 1 0 110 2H33.939a4.445 4.445 0 01-8.662 0h-4.253a1 1 0 110-2h4.253a4.445 4.445 0 018.662 0z"/>
  </g>
</svg>