<svg id="icon-platform-connected-security" viewBox="0 0 96 96" xmlns="http://www.w3.org/2000/svg">
  <g fill="none" fill-rule="nonzero">
    <path class="-path--shadow" fill="#3CC6F3" d="M42.659 36.91c0-.512.415-.928.928-.928h31.998c.512 0 .928.416.928.928v29.943a.928.928 0 01-.928.928H43.587a.928.928 0 01-.928-.928V36.91z"/>
    <path class="-path--secondary" fill="#F99D20" d="M7.592 61.266A3.856 3.856 0 010 60.32a3.855 3.855 0 017.592-.946.999.999 0 01.325-.054h24.735a1 1 0 010 2H7.917a.999.999 0 01-.325-.054zm17.186 3.1v4.456h8.609a1 1 0 010 2h-9.61a1 1 0 01-1-1v-4.457h-9.333a1 1 0 010-2h10.334a1 1 0 011 1zm59.836-16.953a1 1 0 010 2H69.35a1 1 0 010-2h15.265zm.756 20.788a1 1 0 010 2H70.178a1 1 0 010-2H85.37zm3.295-13.506h-19.04a1 1 0 010-2h19.04a3.558 3.558 0 016.97 1 3.556 3.556 0 01-6.97 1zm3.414.557a1.556 1.556 0 100-3.113 1.556 1.556 0 000 3.113zM3.855 62.175a1.855 1.855 0 100-3.71 1.855 1.855 0 000 3.71zm11.389-11.806a1 1 0 010-2h17.224a1 1 0 010 2H15.244zm7.271 5.405a1 1 0 010-2h9.872a1 1 0 010 2h-9.872zM78 64.039v-5.43h-7.998a1 1 0 010-2H79a1 1 0 011 1v5.43h13.079a1 1 0 010 2h-14.08a1 1 0 01-1-1z"/>
    <path class="-path--primary" fill="#083176" d="M63.428 39.695v-7.49a7.8 7.8 0 00-.339-1.168 10.456 10.456 0 00-1.582-2.861C59.472 25.567 56.29 24 51.607 24c-4.681 0-7.864 1.567-9.9 4.176-.71.91-1.227 1.886-1.581 2.861a7.8 7.8 0 00-.34 1.168v7.49c.191-.016.384-.024.578-.024H62.85c.195 0 .388.008.578.024zm2 .466a7.002 7.002 0 014.422 6.51v20.272a7 7 0 01-7 7H40.364a7 7 0 01-7-7V46.671a7.002 7.002 0 014.423-6.51v-8.04l.011-.153c.2-1.294.878-3.159 2.333-5.023C42.544 23.853 46.307 22 51.607 22c5.3 0 9.064 1.853 11.477 4.945 1.454 1.864 2.132 3.729 2.332 5.023l.012.153v8.04zm-25.064 1.51a5 5 0 00-5 5v20.272a5 5 0 005 5H62.85a5 5 0 005-5V46.671a5 5 0 00-5-5H40.364z"/><path fill="#083176" d="M47.636 54.774A3.971 3.971 0 1153.6 58.21v4.48a1 1 0 01-1 1h-1.833a1 1 0 01-1-1v-4.397a3.97 3.97 0 01-2.13-3.52z"/>
  </g>
</svg>