<svg id="icon-business-lower-costs" viewBox="0 0 96 96" xmlns="http://www.w3.org/2000/svg">
  <g fill="none" fill-rule="nonzero">
    <path class="-path--primary" fill="#083176" d="M27.535 34.287h10.279a2 2 0 012 2v42.47a2 2 0 01-2 2h-10.28a2 2 0 01-2-2v-42.47a2 2 0 012-2zm0 2v42.47h10.279v-42.47h-10.28zm16.186 10.9H54a2 2 0 012 2v29.57a2 2 0 01-2 2H43.72a2 2 0 01-2-2v-29.57a2 2 0 012-2zm0 2v29.57H54v-29.57H43.72zm16.186 10.347h10.279a2 2 0 012 2v17.224a2 2 0 01-2 2h-10.28a2 2 0 01-2-2V61.534a2 2 0 012-2zm0 2v17.224h10.279V61.534h-10.28zM32.79 32.581a8.79 8.79 0 110-17.581 8.79 8.79 0 010 17.581zm-.636-3.897h1.176V27.46a2.299 2.299 0 002.134-2.219c0-1.08-.575-1.739-2.003-2.243-1.02-.384-1.44-.636-1.44-1.031 0-.336.253-.672 1.033-.672.599.004 1.189.144 1.727.408l.347-1.355a4.312 4.312 0 00-1.739-.396v-1.055h-1.175v1.14a2.216 2.216 0 00-2.027 2.134c0 1.163.875 1.763 2.16 2.194.886.3 1.27.588 1.27 1.044 0 .48-.468.743-1.151.743a4.24 4.24 0 01-1.991-.527l-.36 1.403a4.83 4.83 0 002.04.516v1.139z"/>
    <path class="-path--secondary" fill="#F99D20" d="M69.596 49.384l-.274-.852-.838-2.605c-.408-1.27 1.496-1.881 1.905-.612l.837 2.605c.408 1.269-1.496 1.881-1.904.612-.408-1.27 1.496-1.882 1.904-.612l.834 2.594c.011.035.022.071.03.107a.954.954 0 01-.063.654.954.954 0 01-.476.454 1.12 1.12 0 01-.103.043l-2.501.926c.608-.225.756-.785.603-1.247.364.1.728.195 1.094.284.133.067.28.1.427.1l.023.006.001-.005c.12-.002.24-.024.353-.064l-2.501.926-.593-1.6.593 1.6.476-1.282-.476 1.282-2.512.93c-1.25.464-1.945-1.412-.695-1.875l2.162-.8c-5.495-1.804-10.723-4.943-15.616-9.056a66.482 66.482 0 01-7.444-7.35 57.11 57.11 0 01-1.994-2.428 36.846 36.846 0 01-.704-.94l1.636-1.152c.107.153.325.45.65.869a55.12 55.12 0 001.924 2.343 64.5 64.5 0 007.22 7.127c5.029 4.228 10.404 7.373 16.022 9.018zm1.63-1.464l-1.904.612 1.904-.612z"/>
  </g>
</svg>