<svg id="icon-device-server" viewBox="0 0 96 96" xmlns="http://www.w3.org/2000/svg">
  <g fill="none" fill-rule="nonzero">
    <path class="-path--shadow" fill="#3CC6F3" d="M25.574 13h57.724c.79 0 1.43.64 1.43 1.43v15.938c0 .789-.64 1.429-1.43 1.429H25.574c-.79 0-1.43-.64-1.43-1.43V14.43c0-.79.64-1.429 1.43-1.429zm0 23.28h57.724c.79 0 1.43.64 1.43 1.43v15.938c0 .79-.64 1.43-1.43 1.43H25.574c-.79 0-1.43-.64-1.43-1.43V37.71c0-.79.64-1.43 1.43-1.43zm-.001 23.367h57.723c.79 0 1.43.64 1.43 1.43v15.937c0 .79-.64 1.43-1.43 1.43H25.573c-.79 0-1.43-.64-1.43-1.43V61.076c0-.79.64-1.43 1.43-1.43z"/>
    <path class="-path--primary" fill="#083176" d="M70.566 62.166a3.701 3.701 0 013.698 3.56l.33 8.656v5.79a3.701 3.701 0 01-3.702 3.702h-56.19A3.701 3.701 0 0111 80.173V65.867a3.701 3.701 0 013.701-3.7h55.865zm2.028 12.254l-.329-8.618a1.701 1.701 0 00-1.7-1.636H14.702c-.94 0-1.701.762-1.701 1.701v14.306c0 .94.762 1.7 1.701 1.7h56.19a1.701 1.701 0 001.702-1.7V74.42zm-2.028-36.254a3.701 3.701 0 013.698 3.56l.33 8.656v5.79a3.701 3.701 0 01-3.702 3.702h-56.19A3.701 3.701 0 0111 56.173V41.867a3.701 3.701 0 013.701-3.7h55.865zm2.028 12.254l-.329-8.618a1.701 1.701 0 00-1.7-1.636H14.702c-.94 0-1.701.762-1.701 1.701v14.306c0 .94.762 1.7 1.701 1.7h56.19a1.701 1.701 0 001.702-1.7V50.42zm-2.028-35.254a3.701 3.701 0 013.698 3.56l.33 8.656v5.79a3.701 3.701 0 01-3.702 3.702h-56.19A3.701 3.701 0 0111 33.173V18.867a3.701 3.701 0 013.701-3.7h55.865zm2.028 12.254l-.329-8.618a1.701 1.701 0 00-1.7-1.636H14.702c-.94 0-1.701.762-1.701 1.701v14.306c0 .94.762 1.7 1.701 1.7h56.19a1.701 1.701 0 001.702-1.7V27.42z"/>
    <path class="-path--secondary" fill="#F99D20" d="M18.7 27.674a1.945 1.945 0 110-3.89 1.945 1.945 0 010 3.89zm6 0a1.945 1.945 0 110-3.89 1.945 1.945 0 010 3.89zm6 0a1.945 1.945 0 110-3.89 1.945 1.945 0 010 3.89zm-12 24a1.945 1.945 0 110-3.89 1.945 1.945 0 010 3.89zm6 0a1.945 1.945 0 110-3.89 1.945 1.945 0 010 3.89zm6 0a1.945 1.945 0 110-3.89 1.945 1.945 0 010 3.89zm-12 23a1.945 1.945 0 110-3.89 1.945 1.945 0 010 3.89zm6 0a1.945 1.945 0 110-3.89 1.945 1.945 0 010 3.89zm6 0a1.945 1.945 0 110-3.89 1.945 1.945 0 010 3.89z"/>
  </g>
</svg>