<svg id="icon-platform-adaptive-networking" viewBox="0 0 96 96" xmlns="http://www.w3.org/2000/svg">
  <g fill="none" fill-rule="nonzero">
    <path class="-path--secondary" fill="#F99D20" d="M34.341 80.422a3.857 3.857 0 01-1 7.58 3.856 3.856 0 01-1-7.58v-18.26a1 1 0 112 0v18.26zm4.496-8.541a1 1 0 11-2 0V57.637a1 1 0 112 0v14.244zm-20.411 3.653a1 1 0 11-2 0V62.78a1 1 0 112 0v12.755zM33.34 86.002a1.856 1.856 0 100-3.711 1.856 1.856 0 000 3.71zM21.787 67.418h6.185v-4.836a1 1 0 112 0v5.836a1 1 0 01-1 1h-6.185v14.728a1 1 0 11-2 0V68.418a1 1 0 011-1z"/>
    <path class="-path--shadow" fill="#3CC6F3" d="M83.675 25.325c-1.103 0-2.2.16-3.257.474-.037-9.229-6.743-17.078-15.853-18.554-9.11-1.477-17.951 3.852-20.901 12.597a14.43 14.43 0 00-4.602-.753C31 19.175 24.473 25.67 24.348 33.733a13.82 13.82 0 012.068-.45 8.069 8.069 0 018.03-1.767 10.388 10.388 0 0120.169 3.2 6.41 6.41 0 111.787 12.567h-7.85a8.61 8.61 0 012.474 1.909h32.649c6.491-.139 11.681-5.44 11.681-11.933 0-6.493-5.19-11.795-11.681-11.934z"/>
    <path class="-path--primary" fill="#083176" d="M48.319 48.283H31.92a9.085 9.085 0 01-8.02-13.356 12.942 12.942 0 00-7.74 7.797 1 1 0 01-1.254.613 9.835 9.835 0 10-3.071 19.178H44.64a7.591 7.591 0 007.552-8.358.997.997 0 01-.067-.496 7.591 7.591 0 00-3.807-5.378zm3.243 0a9.609 9.609 0 012.427 4.496h15.055a11.388 11.388 0 10-3.175-22.322 1 1 0 01-1.279-.932 19.074 19.074 0 00-37.031-5.876 1 1 0 01-1.254.614 14.633 14.633 0 00-18.77 17.39 11.832 11.832 0 017.086-.476 14.941 14.941 0 0111.35-8.847 9.087 9.087 0 017.88-2.01 11.39 11.39 0 0121.67 3.195 7.41 7.41 0 11.881 14.768h-4.84zm2.67 6.496a9.591 9.591 0 01-9.59 9.736H11.836a11.835 11.835 0 01-6.133-21.958 16.633 16.633 0 0120.31-20.466c3.679-9.02 13.11-14.386 22.813-12.846 9.61 1.525 16.87 9.41 17.694 19a13.388 13.388 0 112.524 26.534H54.23zm7.573-13.907a5.41 5.41 0 00-6.911-5.195 1 1 0 01-1.279-.932 9.388 9.388 0 00-18.227-2.893 1 1 0 01-1.254.614 7.085 7.085 0 10-2.213 13.817h24.48a5.41 5.41 0 005.404-5.41z"/>
  </g>
</svg>