<svg id="icon-device-mobile-phone" viewBox="0 0 96 96" xmlns="http://www.w3.org/2000/svg">
  <g fill="none" fill-rule="nonzero">
    <path class="-path--shadow" fill="#3CC6F3" d="M65.576 75h-26.51a3.279 3.279 0 01-3.279-3.279V15.28A3.279 3.279 0 0139.066 12h26.51a3.279 3.279 0 013.278 3.279V71.72A3.279 3.279 0 0165.576 75z"/>
    <path class="-path--primary" fill="#083176" d="M46.41 74.61a2.5 2.5 0 110-5.002 2.5 2.5 0 010 5.002zM30 77.763h33.552V21.716H30v56.047zm0 2a2.525 2.525 0 002.525 2.472h28.502a2.525 2.525 0 002.525-2.472H30zm0-60.047h33.552v-.691a2.525 2.525 0 00-2.525-2.525H32.525A2.525 2.525 0 0030 19.025v.691zm31.027 64.52H32.525A4.525 4.525 0 0128 79.71V19.025c0-2.5 2.026-4.525 4.525-4.525h28.502c2.5 0 4.525 2.026 4.525 4.525V79.71c0 2.5-2.026 4.525-4.525 4.525z"/>
  </g>
</svg>