<svg id="icon-business-support-ticket" xmlns="http://www.w3.org/2000/svg" viewBox="0 0 96 96">
  <g fill="none" fill-rule="nonzero">
    <path class="-path--shadow" fill="#3CC6F3" d="M87.1 41.62a5.5 5.5 0 00-1.61-4.1l-6.53-6.62a.93.93 0 00-1.36.02 3.77 3.77 0 01-4.13.9 3.57 3.57 0 01-1.2-.82 3.48 3.48 0 01-1.03-2.64 3.85 3.85 0 011.15-2.7l.01-.02a.98.98 0 000-1.38l-4.24-4.3-2.3-2.33a5.32 5.32 0 00-4-1.63 5.64 5.64 0 00-4.03 1.75L23.73 52.3a5.8 5.8 0 00-1.72 4.05 5.42 5.42 0 001.59 4.08l6.55 6.65a.93.93 0 001.06.2.96.96 0 00.31-.2 3.78 3.78 0 012.72-1.18 3.35 3.35 0 012.59 1.06 3.55 3.55 0 011.04 2.68 3.79 3.79 0 01-1.14 2.7.98.98 0 00-.02 1.39l6.53 6.61a5.36 5.36 0 003.8 1.65l.22-.01a5.64 5.64 0 004.03-1.75l2.17-2.2 31.91-32.36a5.8 5.8 0 001.73-4.06z"/>
    <path class="-path--primary" fill="#083176" d="M59.24 35.98a1 1 0 01.17.24c.66 1.3.98 2.74.94 4.2a10.18 10.18 0 01-9.98 10.04c-1.2.04-2.4-.17-3.52-.61L33.9 62.92l-.3.3c-.71.63-1.63.98-2.58.98h-.24a3.92 3.92 0 01-2.74-1.34 4.27 4.27 0 01.02-5.86l12.95-13.07a10.18 10.18 0 019.38-13.62h.26c1.34 0 2.66.33 3.85.94a.97.97 0 01.23 1.55l-5.95 6.01L51.93 42l5.95-6a.95.95 0 011.36 0zM50.36 48.5a8.2 8.2 0 007.85-10.12l-5.6 5.66a.95.95 0 01-1.35 0l-4.5-4.55a.98.98 0 010-1.38l5.59-5.64a6.46 6.46 0 00-1.7-.23h-.2a8.21 8.21 0 00-7.54 11.23l.12.31a.99.99 0 01-.2 1.06l-.24.24-13.14 13.27a2.31 2.31 0 00.02 3.18 2.05 2.05 0 002.22.6 1.91 1.91 0 00.84-.57l13.44-13.58a.95.95 0 011.07-.2l.31.15a6.8 6.8 0 003 .57h.01zm25.1-7.88a5.8 5.8 0 01-1.74 4.06L41.81 77.04l-2.17 2.2a5.65 5.65 0 01-4.03 1.75l-.22.01a5.36 5.36 0 01-3.8-1.65l-6.53-6.61a1 1 0 01.02-1.4 3.78 3.78 0 001.14-2.7 3.55 3.55 0 00-1.04-2.67 3.36 3.36 0 00-2.6-1.06 3.78 3.78 0 00-2.72 1.17.96.96 0 01-1.04.22.93.93 0 01-.32-.2l-6.55-6.66a5.41 5.41 0 01-1.6-4.08 5.8 5.8 0 011.74-4.05l34.09-34.56a5.65 5.65 0 018.02-.12l2.3 2.33 4.25 4.3a.98.98 0 010 1.38l-.01.01a3.84 3.84 0 00-1.15 2.71A3.5 3.5 0 0060.62 30a3.57 3.57 0 002.62 1.08 3.76 3.76 0 002.7-1.16.95.95 0 011.06-.23c.11.05.22.12.3.21l6.54 6.62a5.5 5.5 0 011.61 4.1zm-3.08 2.67a3.85 3.85 0 001.16-2.72 3.57 3.57 0 00-1.04-2.68l-5.9-5.98a5.65 5.65 0 01-7.32-.54 5.42 5.42 0 01-1.6-4.06 5.8 5.8 0 011.1-3.31l-3.62-3.67L52.85 18a3.4 3.4 0 00-2.6-1.05 3.75 3.75 0 00-2.7 1.17L13.44 52.7a3.85 3.85 0 00-1.16 2.72 3.49 3.49 0 001.02 2.65l5.94 6.02c.35-.26.73-.48 1.13-.65a5.3 5.3 0 012.2-.48 5.26 5.26 0 013.98 1.63 5.47 5.47 0 011.6 4.09c0 1.2-.4 2.36-1.1 3.32l5.9 5.98c.34.36.76.64 1.21.82.44.19.92.27 1.4.24a3.77 3.77 0 002.71-1.16l2.18-2.22L72.38 43.3z"/>
  </g>
</svg>