<svg id="icon-products-network-solutions" viewBox="0 0 96 96" xmlns="http://www.w3.org/2000/svg">
  <g fill="none" fill-rule="nonzero">
    <circle class="-path--shadow" fill="#3CC6F3" cx="71.387" cy="44.853" r="24.853"/>
    <path class="-path--secondary" fill="#F99D20" d="M11.199 60.35A5.527 5.527 0 01.24 59.34a5.526 5.526 0 0110.963-.988l23.498.073a1 1 0 01-.006 2l-23.496-.073zm7.43-27.26A5.528 5.528 0 017.68 32.026a5.526 5.526 0 0110.973-.932l.048-.001 18.587.05a1 1 0 01-.005 2l-18.587-.05c-.023 0-.045-.001-.067-.003zm1.027 35.258a1 1 0 01.006-2l21.222.055a1 1 0 01-.005 2l-21.223-.055zm-13.89-5.484a3.526 3.526 0 100-7.051 3.526 3.526 0 000 7.051zm7.44-27.312a3.526 3.526 0 100-7.052 3.526 3.526 0 000 7.052zm9.646 7.01l-.025 9.006 9.334.02a1 1 0 01-.004 2l-10.335-.023a1 1 0 01-.998-1.002l.025-9.008-19.852-.058a1 1 0 11.006-2l20.852.061a1 1 0 01.997 1.003z"/>
    <path class="-path--primary" fill="#083176" d="M48.31 52.79l-13.228 4.647a25.257 25.257 0 005.529 8.494l11.499-4.04c-1.421-2.726-2.713-5.795-3.8-9.101zm1.887-.663c1.096 3.335 2.408 6.403 3.83 9.091l16.258-5.71c-.386-3.046-1.076-6.33-2.094-9.702l-17.994 6.32zm19.883-6.985c1.013 3.34 1.726 6.61 2.143 9.685l11.453-4.024c.087-.852.132-1.716.132-2.59 0-2.61-.397-5.128-1.132-7.496L70.08 45.142zm-8.575 28.134c-2.88-1.688-5.825-5.081-8.423-9.606L42.27 67.47a25.132 25.132 0 0016.306 5.976 25.5 25.5 0 002.93-.169zm4.044-.807c.591-.17 1.174-.36 1.747-.572 2.635-1.734 3.805-7.236 3.205-14.346l-15.488 5.44c3.484 5.959 7.46 9.626 10.536 9.478zm5.545-2.344c6.26-3.584 10.835-9.771 12.252-17.086l-10.888 3.825c.516 5.416.054 10.09-1.364 13.26zM47.712 50.88c-.99-3.337-1.68-6.6-2.072-9.662l-12.152 4.268a25.516 25.516 0 00-.146 2.726c0 2.551.379 5.014 1.083 7.335l13.287-4.667zm1.89-.664L67.583 43.9c-1.115-3.32-2.442-6.367-3.876-9.028L47.58 40.536c.36 3.031 1.027 6.309 2.02 9.68zm19.869-6.98l12.536-4.403a25.263 25.263 0 00-5.563-8.436l-10.818 3.8c1.433 2.701 2.74 5.75 3.845 9.04zM47.086 25.741c-6.744 3.455-11.728 9.856-13.255 17.505l11.588-4.07c-.486-5.578.077-10.34 1.667-13.435zm9.207-2.66c2.845 1.625 5.76 4.924 8.346 9.343l10.133-3.56a25.13 25.13 0 00-16.197-5.884c-.77 0-1.53.034-2.282.101zm6.412 10.022c-3.773-6.326-8.086-9.96-11.2-8.998-3.201.99-4.708 6.71-4.125 14.381l15.325-5.383zm5.467 40.602a5.358 5.358 0 01-2.266.742c-2.333.65-4.791.998-7.331.998-15.04 0-27.233-12.193-27.233-27.233 0-.965.05-1.92.149-2.859a1.004 1.004 0 01.159-1.246C33.63 31.015 44.93 20.98 58.575 20.98c15.04 0 27.233 12.192 27.233 27.232 0 11.662-7.331 21.612-17.636 25.493z"/>
  </g>
</svg>