<svg id="icon-people-executive" viewBox="0 0 96 96" xmlns="http://www.w3.org/2000/svg">
  <g fill="none" fill-rule="nonzero">
    <path class="-path--shadow" fill="#3CC6F3" d="M28.698 87.085a4.427 4.427 0 110-8.854 4.427 4.427 0 010 8.854zm20.242 0a4.427 4.427 0 110-8.854 4.427 4.427 0 010 8.854zm19.998 0a4.427 4.427 0 110-8.854 4.427 4.427 0 010 8.854zm-5.696-25.887H33.758a5.89 5.89 0 01-5.89-5.889v-5.838a5.89 5.89 0 013.105-5.189l5.738-3.08 2.042-1.141a5.89 5.89 0 014.854-.407l2.87 1.024a5.89 5.89 0 004.025-.024l2.737-1.014a5.89 5.89 0 014.929.388l2.064 1.159 5.788 3.096a5.89 5.89 0 013.111 5.193v5.833a5.89 5.89 0 01-5.889 5.89zM47.887 34.28c-6.559 0-11.895-6.343-11.895-14.14C35.992 12.343 41.328 6 47.887 6c6.56 0 11.896 6.343 11.896 14.14 0 7.797-5.336 14.14-11.896 14.14z"/>
    <path class="-path--primary" fill="#083176" d="M66.59 80.426a4.35 4.35 0 01-1 8.582 4.349 4.349 0 01-1-8.582v-5.163H46.47v5.163a4.35 4.35 0 01-1 8.582 4.349 4.349 0 01-1-8.582v-5.163H26.348v5.163a4.35 4.35 0 01-1 8.582 4.349 4.349 0 01-1-8.582V74.26a1 1 0 011.094-.996h19.026v-7.355H28.432a7.022 7.022 0 01-7.022-7.022v-7.2a7.022 7.022 0 013.7-6.188l6.567-3.524 2.441-1.365a7.022 7.022 0 015.787-.485l3.534 1.26c1.11.397 2.326.39 3.432-.02l3.388-1.255a7.022 7.022 0 015.876.462l2.451 1.377 6.638 3.55a7.022 7.022 0 013.71 6.192v7.196a7.022 7.022 0 01-7.023 7.022H46.47v7.355h19.027a1 1 0 011.094.996v6.167zM61.91 63.908a5.022 5.022 0 005.022-5.022V51.69a5.022 5.022 0 00-2.653-4.429l-6.655-3.56-2.469-1.386a5.022 5.022 0 00-4.203-.33l-3.387 1.255a7.022 7.022 0 01-4.8.029l-3.533-1.261a5.022 5.022 0 00-4.139.346l-2.456 1.374-6.581 3.532a5.022 5.022 0 00-2.647 4.425v7.201a5.022 5.022 0 005.022 5.022h33.48zm-16.736-24.78c-7.147 0-12.862-7.1-12.862-15.734 0-8.635 5.715-15.734 12.862-15.734 7.146 0 12.862 7.1 12.862 15.734 0 8.635-5.716 15.734-12.862 15.734zm0-2c5.934 0 10.862-6.12 10.862-13.734S51.109 9.66 45.175 9.66c-5.935 0-10.862 6.12-10.862 13.734s4.927 13.734 10.862 13.734zm-19.826 49.88a2.349 2.349 0 100-4.697 2.349 2.349 0 000 4.697zm20.12 0a2.349 2.349 0 100-4.697 2.349 2.349 0 000 4.697zm20.12 0a2.349 2.349 0 100-4.697 2.349 2.349 0 000 4.697z"/>
  </g>
</svg>