<svg id="icon-business-briefcase" viewBox="0 0 96 96" xmlns="http://www.w3.org/2000/svg">
  <g fill="none" fill-rule="nonzero">
    <path class="-path--shadow" fill="#3CC6F3" d="M80.797 30.809H68.14V24.5a2.5 2.5 0 00-2.5-2.5H46.736a2.5 2.5 0 00-2.5 2.5v6.309H31.58a3 3 0 00-3 3v30.32a3 3 0 003 3h49.218a3 3 0 003-3v-30.32a3 3 0 00-3-3z"/>
    <path class="-path--primary" fill="#083176" d="M60.895 42.265v-6.7H24.456v6.7h36.439zm4.454 0h5.002v-4.7a2 2 0 00-2-2h-3.002v6.7zm-4.454 2H24.456v4.316h-4.454v-4.316H15v25.023a2 2 0 002 2h51.35a2 2 0 002-2V44.265H65.35v4.316h-4.454v-4.316zm-40.893-2v-6.7H17a2 2 0 00-2 2v4.7h5.002zm9.26-8.7v-5.65a3.5 3.5 0 013.5-3.5h19.827a3.5 3.5 0 013.5 3.5v5.65H68.35a4 4 0 014 4v31.723a4 4 0 01-4 4H17a4 4 0 01-4-4V37.565a4 4 0 014-4h12.262zm2 0h22.827v-5.65a1.5 1.5 0 00-1.5-1.5H32.762a1.5 1.5 0 00-1.5 1.5v5.65zm7.316 30.025l-7.385-3.33-7.396 8.75-1.478-1.249 8.339-9.866 7.521 3.392 10.185-9.804 5.215 5.76 5.11-7.748 1.615 1.065-6.484 9.834-5.551-6.133-9.691 9.329z"/>
  </g>
</svg>