<svg id="icon-products-apps" viewBox="0 0 96 96" xmlns="http://www.w3.org/2000/svg">
  <g fill="none" fill-rule="nonzero">
    <path class="-path--shadow" fill="#3CC6F3" d="M74.638 66.668c-.123-.244-.247-.48-.369-.706a2.341 2.341 0 00-3.383-.993c-1.93-1.94-3.025.066-3.025.066l-.393.178c-1.657-1.036-3.341.948-3.341.948l-3.529-7.624c-1.512-3.268-5.283-1.711-3.699 1.712a164.944 164.944 0 012.657 6.057h.41a1 1 0 010 2h-37.03a1 1 0 01-1-1V10a1 1 0 011-1h57.307a1 1 0 011 1v57.306a1 1 0 01-1 1h-4.835a1 1 0 01-.77-1.638z"/>
    <path class="-path--primary" fill="#083176" d="M13 13.829a1 1 0 011-1h26.502a1 1 0 011 1v26.502a1 1 0 01-1 1H14a1 1 0 01-1-1V13.829zm2 1v24.502h24.502V14.829H15zm28.804-1a1 1 0 011-1h26.502a1 1 0 011 1v26.502a1 1 0 01-1 1H44.804a1 1 0 01-1-1V13.829zm2 25.502h24.502V14.829H45.804v24.502zM13 44.61a1 1 0 011-1h26.502a1 1 0 011 1v26.502a1 1 0 01-1 1H14a1 1 0 01-1-1V44.61zm2 1v24.502h24.502V45.61H15zm30.805 0v24.502h15.658a1 1 0 010 2H44.805a1 1 0 01-1-1V44.611a1 1 0 011-1h26.5a1 1 0 011 1v20.166a1 1 0 01-2 0V45.611h-24.5z"/>
    <path class="-path--secondary" fill="#F99D20" d="M63.224 66.5a1.022 1.022 0 01-.004-.01l-3.53-7.624c-.48-1.038-1.192-1.38-1.702-1.157-.495.217-.688.936-.183 2.025a147.003 147.003 0 016.114 15.207 1 1 0 01-1.29 1.26 14.203 14.203 0 00-1.206-.349c-.98-.235-1.958-.37-2.85-.351-1.08.022-1.93.267-2.495.743-.716.603-.795.972-.578 1.224.335.39 1.218.604 2.252.402 1.536-.3 2.876.178 4.392 1.324.328.247.662.522 1.084.887.151.13.866.756 1.066.929 1.383 1.19 2.376 1.866 3.525 2.3 4.447 1.676 7.928.448 8.807-4.11.649-3.363-.779-8.29-3.264-12.91a1.341 1.341 0 00-1.077-.77l.823 1.778a1 1 0 01-1.815.84l-1.142-2.468a1.005 1.005 0 01-.066-.191 1.098 1.098 0 00-1.434-.183l1.333 2.881a1 1 0 11-1.815.84l-1.609-3.475a1.002 1.002 0 01-.024-.057 1.414 1.414 0 00-1.3.6l1.415 3.056a1 1 0 11-1.815.84l-1.612-3.48zm1.122-2.337a3.413 3.413 0 013.154-.502 3.098 3.098 0 013.568.029 3.341 3.341 0 012.017-.043c.925.271 1.688.93 2.065 1.75 2.658 4.937 4.198 10.25 3.44 14.182-1.15 5.96-5.993 7.669-11.476 5.602-1.418-.535-2.578-1.325-4.125-2.656-.208-.179-.925-.806-1.069-.93a19.293 19.293 0 00-.982-.806c-1.106-.835-1.924-1.127-2.803-.956-1.682.329-3.294-.064-4.152-1.061-1.027-1.196-.685-2.801.807-4.058.966-.814 2.245-1.182 3.742-1.213.931-.019 1.903.094 2.876.298a145.038 145.038 0 00-5.417-13.22c-.943-2.039-.419-3.996 1.195-4.702 1.583-.693 3.41.185 4.32 2.149l2.84 6.137z"/>
  </g>
</svg>