<svg id="icon-business-solutions" viewBox="0 0 96 96" xmlns="http://www.w3.org/2000/svg">
  <g fill="none" fill-rule="nonzero">
    <path class="-path--shadow" fill="#3CC6F3" d="M70.052 54.038l-2.99 2.99-3.299-3.299 2.99-2.99c4.298-4.298-1.11-9.52-5.244-5.386l-2.99 2.99-4.567-4.568a16.834 16.834 0 001.993-7.83 16.576 16.576 0 00-4.983-11.961A16.919 16.919 0 0039.002 19a16.578 16.578 0 00-11.961 4.984 16.918 16.918 0 00-4.984 11.96 16.578 16.578 0 004.984 11.96 16.668 16.668 0 0019.792 2.99l19.56 19.56c5.495 5.496 12.61-1.287 7.107-6.79l-1.651-1.992 2.99-2.99c4.275-4.275-.44-8.99-4.787-4.644z"/>
    <path class="-path--primary" fill="#083176" d="M31.48 49.405a9.73 9.73 0 014.838-18.14 9.472 9.472 0 016.877 2.89 9.613 9.613 0 01.002 13.777 9.73 9.73 0 01-11.717 1.473zm10.316-2.9l.004-.005a7.613 7.613 0 002.303-5.456c0-2.055-.83-4.022-2.327-5.48a7.494 7.494 0 00-5.446-2.299 7.73 7.73 0 105.466 13.24zm10.151 1.89l.216.215.03.029 3.238 3.238.158-.158 2.015-2.016c2.34-2.34 5.19-2.653 6.892-.924 1.682 1.708 1.386 4.56-.867 6.813-.284.284-.738.743-1.313 1.329l-.014.013-.954.972 1.148 1.174.861.862.158-.158 2.016-2.016c2.34-2.34 5.19-2.653 6.892-.924 1.682 1.709 1.386 4.56-.867 6.813l-1.263 1.263-.934.934 1.015 1.084c2.88 2.88 2.926 6.536.523 8.784-2.372 2.22-6.087 2.08-8.892-.724l-18.33-18.33c-6.555 3.171-14.442 1.833-19.572-3.387A16.971 16.971 0 0119 41.042a17.294 17.294 0 015.087-12.22 16.972 16.972 0 0112.24-5.102c4.59.01 8.99 1.842 12.22 5.087a16.97 16.97 0 015.1 12.244 17.217 17.217 0 01-1.7 7.343zm2.776 5.603l-1.347-1.348a1.018 1.018 0 01-.028-.027l-3.328-3.327a1 1 0 01-.174-1.18 15.217 15.217 0 001.802-7.078 14.977 14.977 0 00-4.51-10.81 15.305 15.305 0 00-10.82-4.508 14.982 14.982 0 00-10.81 4.51A15.304 15.304 0 0021 41.05a14.986 14.986 0 004.515 10.816 15.058 15.058 0 0017.88 2.7 1 1 0 011.18.174L63.42 73.583c2.055 2.055 4.54 2.149 6.111.679 1.558-1.457 1.528-3.811-.594-5.933l-1.698-1.816a1 1 0 01.024-1.39l1.617-1.617 1.263-1.264c1.532-1.53 1.699-3.139.856-3.995-.843-.856-2.436-.681-4.053.936l-2.015 2.015-.866.865a1 1 0 01-1.414 0l-1.576-1.577-1.84-1.881a1 1 0 010-1.398 879.876 879.876 0 011.642-1.675l.013-.013c.58-.59 1.037-1.052 1.326-1.342 1.532-1.531 1.699-3.14.856-3.995-.843-.856-2.436-.682-4.053.935l-2.015 2.016-.865.865a1 1 0 01-1.415 0z"/>
  </g>
</svg>