<svg id="icon-business-calendar" viewBox="0 0 96 96" xmlns="http://www.w3.org/2000/svg">
  <g fill="none" fill-rule="nonzero">
    <path class="-path--shadow" fill="#3CC6F3" d="M27.478 19.785h50.34a4.22 4.22 0 014.22 4.221V67.35a4.22 4.22 0 01-4.22 4.22h-50.34a4.22 4.22 0 01-4.22-4.22V24.006a4.22 4.22 0 014.22-4.22z"/>
    <path class="-path--primary" fill="#083176" d="M60.208 27.084v.906H57.41v-.906H29.418v.906h-2.8v-.907h-8.405A3.186 3.186 0 0015 30.304V40.79h56.783V30.296a3.187 3.187 0 00-3.221-3.212h-8.354zm-33.59-2v-5.688a1.4 1.4 0 012.8 0v5.687h27.991v-5.687a1.4 1.4 0 012.8 0v5.688H68.553a5.186 5.186 0 015.229 5.22V41.79a1 1 0 01-1 1H14a1 1 0 01-1-1V30.312a5.188 5.188 0 015.221-5.229H26.618zm4.91 6.854a3.8 3.8 0 11-7.309 1.461 3.778 3.778 0 013.803-3.807 3.8 3.8 0 013.506 2.346zm-3.51-.346h-.007a1.779 1.779 0 00-1.792 1.8 1.8 1.8 0 101.8-1.8zm34.3.346a3.8 3.8 0 11-7.308 1.461 3.778 3.778 0 013.802-3.807 3.8 3.8 0 013.507 2.346zm-3.51-.346h-.007a1.779 1.779 0 00-1.791 1.8 1.8 1.8 0 101.799-1.8zM13 45.677a1 1 0 011-1h58.783a1 1 0 011 1V73.64a5.187 5.187 0 01-5.221 5.229H18.23A5.187 5.187 0 0113 73.647v-27.97zm2 1v26.978a3.187 3.187 0 003.221 3.213h50.35a3.187 3.187 0 003.212-3.221v-26.97H15zm7.712 6.391c0-.3.244-.544.545-.544h10.338c.3 0 .544.244.544.544v6.874c0 .3-.244.544-.544.544H23.257a.545.545 0 01-.545-.544v-6.874zm1.09 6.329h9.248v-5.784h-9.248v5.784zm13.876-6.329c0-.3.244-.544.545-.544H48.56c.301 0 .545.244.545.544v6.874c0 .3-.244.544-.545.544H38.223a.545.545 0 01-.545-.544v-6.874zm1.09 6.329h9.248v-5.784h-9.248v5.784zm13.876-6.329c0-.3.244-.544.544-.544h10.338c.3 0 .545.244.545.544v6.874c0 .3-.244.544-.545.544H53.188a.545.545 0 01-.544-.544v-6.874zm1.09.545v5.784h9.247v-5.784h-9.248zM22.711 64.468c0-.301.244-.545.545-.545h10.338c.3 0 .544.244.544.545v6.873c0 .3-.244.545-.544.545H23.257a.545.545 0 01-.545-.545v-6.873zm1.09 6.328h9.248v-5.784h-9.248v5.784zm13.876-6.328c0-.301.244-.545.545-.545H48.56c.301 0 .545.244.545.545v6.873c0 .3-.244.545-.545.545H38.223a.545.545 0 01-.545-.545v-6.873zm1.09 6.328h9.248v-5.784h-9.248v5.784zm13.876-6.328c0-.301.244-.545.544-.545h10.338c.3 0 .545.244.545.545v6.873c0 .3-.244.545-.545.545H53.188a.545.545 0 01-.544-.545v-6.873zm1.09 6.328h9.247v-5.784h-9.248v5.784z"/>
  </g>
</svg>