<svg id="icon-platform-it-agility-hybrid-cloud" xmlns="http://www.w3.org/2000/svg" viewBox="0 0 96 96">
  <g fill="none" fill-rule="nonzero">
    <path class="-path--shadow" fill="#3CC6F3" d="M59.84 16a27.437 27.437 0 00-27.022 32.306 13.873 13.873 0 0117.32 13.06 8.522 8.522 0 0110.848 9.52c14.927-.622 26.617-13.067 26.306-28.004C86.98 27.945 74.78 15.999 59.84 16z"/>
    <path class="-path--primary" fill="#083176" d="M18.615 55.608c.472-.048.947-.068 1.424-.059l3.281-1.156a14.899 14.899 0 019.348-7.086 65.806 65.806 0 01-1.392-7.452l-13.609 4.764c-.41 3.6-.123 7.326.948 10.989zm-1.974.372c-4.146-14.529 3.191-29.96 17.218-35.856 14.345-6.03 30.92-.085 38.16 13.689a30.178 30.178 0 011.743 3.983c4.572 12.932-.237 27.608-12.098 35.213a1 1 0 01-.253.116 9.571 9.571 0 01-8.885 6.035h-32.72a11.806 11.806 0 01-3.165-23.18zm45.417 14.334a27.937 27.937 0 0010.925-17.378L60.7 57.218c.264 2.72.309 5.291.127 7.63a9.524 9.524 0 011.23 5.466zm-3.125-7.82c.021-1.46-.039-3-.179-4.598l-6.112 2.13c2.42.031 4.622.96 6.29 2.469zm-8.137-3.942l7.739-2.698c-.437-3.466-1.229-7.158-2.36-10.883l-11.96 4.201a14.9 14.9 0 016.58 9.38zM41.75 47.918l13.817-4.854c-1.253-3.75-2.751-7.188-4.372-10.182l-17.98 6.294a63.102 63.102 0 001.427 7.78 14.88 14.88 0 013.949.098 14.9 14.9 0 013.16.864zm-16.783 7.628a1.006 1.006 0 01-.133.25c-.271.52-.509 1.063-.71 1.628a1 1 0 01-1.255.614 9.806 9.806 0 10-3.062 19.122h32.718a7.568 7.568 0 000-15.135c-.713 0-1.423.101-2.109.3a1 1 0 01-1.278-.932 12.884 12.884 0 00-24.17-5.847zm28.149-23.337c1.62 3.036 3.096 6.475 4.339 10.192l14.047-4.934c-.365-.92-.782-1.83-1.252-2.724a27.963 27.963 0 00-4.993-6.784l-12.141 4.25zm4.948 12.098c1.13 3.708 1.935 7.39 2.4 10.875l12.848-4.478c.399-3.76.04-7.624-1.139-11.353l-14.11 4.956zM33.034 22.7c-7.99 3.96-13.38 11.354-15.02 19.678l13.043-4.566c-.561-6.357.114-11.727 1.976-15.112zm9.574-2.776c3.231 1.724 6.57 5.455 9.519 10.512l11.462-4.012a28.05 28.05 0 00-20.981-6.5zm7.585 11.19c-4.206-7.088-9.04-11.169-12.55-10.084-3.575 1.105-5.295 7.483-4.627 16.097l17.177-6.014z"/>
  </g>
</svg>