<svg id="icon-business-growth" viewBox="0 0 96 96" xmlns="http://www.w3.org/2000/svg">
  <g fill="none" fill-rule="nonzero">
    <path class="-path--primary" fill="#083176" d="M22 72.902h8.713v-8.735a1 1 0 012 0v9.735a1 1 0 01-1 1H21a1 1 0 01-1-1v-4.535a1 1 0 012 0v3.535zm0-35.007v22.75a1 1 0 11-2 0v-23.75a1 1 0 011-1h10.713a1 1 0 011 1v18.358a1 1 0 11-2 0V37.895H22zm17.37 35.007h8.713V54.431a1 1 0 012 0v19.471a1 1 0 01-1 1H38.37a1 1 0 01-1-1V60.645a1 1 0 012 0v12.257zm8.713-41.955H39.37v20.381a1 1 0 11-2 0V29.947a1 1 0 011-1h10.713a1 1 0 011 1v16.239a1 1 0 11-2 0V30.947zm8.656 41.955h8.713V46.186a1 1 0 012 0v27.716a1 1 0 01-1 1H55.74a1 1 0 01-1-1V51.328a1 1 0 012 0v21.574zM65.452 24H56.74v18.721a1 1 0 11-2 0V23a1 1 0 011-1h10.713a1 1 0 011 1v13.895a1 1 0 11-2 0V24z"/>
    <path class="-path--secondary" fill="#F99D20" d="M75.463 35.948l-3.768-1.08a1 1 0 01.55-1.923l6.13 1.758c.546.114.955.688.746 1.303l-2.11 6.222a1 1 0 01-1.895-.642l1.32-3.889-58.98 30.164a1 1 0 01-.911-1.78l58.918-30.133z"/>
  </g>
</svg>