<svg id="icon-device-router" viewBox="0 0 96 96" xmlns="http://www.w3.org/2000/svg">
  <g fill="none" fill-rule="nonzero">
    <path class="-path--primary" fill="#083176" d="M21.62 50.254a1 1 0 01-2 .01l-.053-10.59a1 1 0 012-.01l.054 10.59zm48.931.372a1 1 0 01-2 .01l-.054-10.59a1 1 0 012-.01l.054 10.59z"/>
    <path class="-path--shadow" fill="#3CC6F3" d="M18.708 48.938h64.644v16H18.708z"/>
    <path class="-path--primary" fill="#083176" d="M12 51.209a1 1 0 011-1h66.112a1 1 0 011 1v17.457a1 1 0 01-1 1H13a1 1 0 01-1-1V51.21zm2 1v15.457h64.112V52.21H14zm45.808 7.725v.027a2.732 2.732 0 01-2.743 2.606 2.635 2.635 0 01-2.633-2.613 2.663 2.663 0 012.636-2.752 2.752 2.752 0 012.74 2.732zm6.618 0v.027a2.732 2.732 0 01-2.743 2.606 2.635 2.635 0 01-2.633-2.613 2.663 2.663 0 012.636-2.752 2.752 2.752 0 012.74 2.732zm5.789 1.902a2.653 2.653 0 01-1.913.73 2.635 2.635 0 01-2.634-2.612 2.663 2.663 0 012.621-2.752 2.686 2.686 0 012.755 2.745 2.664 2.664 0 01-.83 1.889z"/>
    <path class="-path--secondary" fill="#F99D20" d="M50.414 39.257a1 1 0 01-1.438 1.39 5.59 5.59 0 00-8.01-.032 1 1 0 01-1.427-1.401 7.59 7.59 0 0110.875.043zm4.92-3.281a1 1 0 11-1.438 1.39 12.438 12.438 0 00-17.824-.071 1 1 0 11-1.427-1.401 14.439 14.439 0 0120.69.082zm4.423-3.691a1 1 0 11-1.438 1.39 18.59 18.59 0 00-26.64-.106 1 1 0 01-1.427-1.4 20.59 20.59 0 0129.505.116z"/>
  </g>
</svg>