<svg viewBox="0 0 16 16" version="1.1"
  xmlns="http://www.w3.org/2000/svg">
  <path d="M8 16c-4.41 0-8-3.59-8-8s3.59-8 8-8 8 3.59 8 8-3.59 8-8 8zM8 1.6C4.47 1.6 1.6 4.47 1.6 8c0 3.53 2.87 6.4 6.4 6.4 3.53 0 6.4-2.87 6.4-6.4 0-3.53-2.87-6.4-6.4-6.4zm-1.12 9.707c0-.527.292-1.753.896-3.746.01-.032.018-.065.023-.094-.023.01-.05.024-.08.043-.05.03-.2.15-.64.59-.067.067-.172.073-.246.014l-.26-.205c-.043-.034-.07-.083-.073-.136-.004-.054.014-.107.05-.146.405-.456.784-.787 1.125-.983.358-.206.66-.306.924-.306.17 0 .307.043.41.128.11.094.167.224.167.377 0 .1-.046.362-.39 1.54-.494 1.685-.61 2.296-.62 2.507.094-.056.314-.215.785-.666.073-.07.188-.07.26.002l.23.23c.038.036.06.086.058.14 0 .05-.022.1-.06.137-.56.536-.958.87-1.22 1.023-.28.162-.51.242-.703.242-.192 0-.35-.065-.466-.194-.113-.124-.17-.292-.17-.5zM9.24 5.23c-.157.176-.34.265-.544.265-.17 0-.318-.065-.432-.187-.113-.12-.17-.275-.17-.463 0-.23.074-.43.22-.593.152-.167.336-.252.548-.252.172 0 .323.063.436.182.115.12.172.27.172.45 0 .227-.077.428-.23.598z" fill="#919191" fill-rule="evenodd"/>
</svg>
