<svg viewBox="0 0 16 16" version="1.1"
  xmlns="http://www.w3.org/2000/svg">
  <path d="M8 16c-4.41 0-8-3.59-8-8s3.59-8 8-8 8 3.59 8 8-3.59 8-8 8zm-1.12-4.693c0 .207.057.375.17.5.118.128.275.193.467.193.194 0 .424-.08.703-.242.262-.152.66-.487 1.22-1.023.038-.036.06-.086.06-.138 0-.053-.02-.103-.057-.14l-.23-.23c-.073-.07-.188-.072-.26 0-.472.45-.692.61-.785.665.008-.21.125-.822.618-2.506.345-1.18.39-1.44.39-1.54 0-.154-.057-.284-.167-.378-.103-.085-.24-.13-.41-.13-.265 0-.567.1-.925.307-.34.196-.72.527-1.126.983-.036.04-.054.092-.05.146.005.053.03.102.073.135l.26.204c.075.06.18.053.247-.014.44-.44.59-.56.64-.59.03-.02.057-.035.08-.044-.006.03-.014.062-.024.095-.604 1.994-.897 3.22-.897 3.747zM9.146 5.23c.153-.17.23-.37.23-.597 0-.18-.058-.332-.172-.45C9.092 4.062 8.94 4 8.77 4c-.213 0-.397.085-.55.252-.145.163-.22.362-.22.593 0 .188.058.344.17.463.114.122.264.187.433.187.204 0 .387-.09.544-.265z" fill="#757575" fill-rule="evenodd"/>
</svg>
