<svg id="icon-box-deployment" viewBox="0 0 16 16" xmlns="http://www.w3.org/2000/svg">
  <path d="M8 16a3.368 3.368 0 0 1-1.5507-.3813l-4.5659-2.3814C.7217 12.6314 0 11.4211 0 10.0787V5.9213C0 4.579.7217 3.3686 1.8836 2.7627L6.4493.3813A3.368 3.368 0 0 1 8 0a3.368 3.368 0 0 1 1.5507.3813l4.5659 2.3814C15.2783 3.3686 16 4.5789 16 5.9213v4.1574c0 1.3424-.7217 2.5527-1.8834 3.1586l-4.566 2.3814A3.368 3.368 0 0 1 8 16zM8 2c-.2214 0-.4438.0549-.6431.159l-4.529 2.362C2.3248 4.7833 2 5.3395 2 5.938v4.1238c0 .5986.325 1.1548.8278 1.4171l4.529 2.3622A1.397 1.397 0 0 0 8 14a1.397 1.397 0 0 0 .6431-.1588l4.529-2.3622c.503-.2623.8279-.8185.8279-1.4171V5.9381c0-.5986-.325-1.1548-.8278-1.4171l-4.529-2.3622A1.397 1.397 0 0 0 8 2zm2.7973 5.599a.6675.6675 0 0 1-.0846 1.0277l-.0183.0119-3.6461 2.2473A.6701.6701 0 0 1 6.6742 11H6.674C6.3023 10.9999 6 10.6993 6 10.3297V5.5298C6 5.2376 6.239 5 6.5327 5a.5322.5322 0 0 1 .1693.0276.517.517 0 0 1 .1605.0888l3.9052 2.4538.0296.0288z" fill-rule="evenodd"/>
</svg>