<svg id="icon-hand-gear" viewBox="0 0 16 16" xmlns="http://www.w3.org/2000/svg">
	<path d="M4.58 6.22a.63.63 0 0 0-.22.85l.69 1.2a.7.7 0 0 0 .87.28l.92-.38.04-.02a3.98 3.98 0 0 0 1.04.62v.04l.06.94a.67.67 0 0 0 .66.61l1.45.04a.67.67 0 0 0 .7-.58l.1-.97A4.11 4.11 0 0 0 12 8.3l.04.02.89.43a.71.71 0 0 0 .9-.24l.74-1.16a.62.62 0 0 0-.19-.86l-.8-.55-.08-.05a3.2 3.2 0 0 0 .06-.57 3.8 3.8 0 0 0-.03-.57l.07-.04.84-.51a.63.63 0 0 0 .23-.85l-.7-1.2a.7.7 0 0 0-.87-.3l-.9.39-.05.02a4.04 4.04 0 0 0-1.04-.62v-.04l-.06-.94a.67.67 0 0 0-.67-.61L8.93 0a.67.67 0 0 0-.7.58l-.11.92v.04a4.1 4.1 0 0 0-1.08.57l-.05-.03-.88-.42a.7.7 0 0 0-.9.24l-.74 1.16a.62.62 0 0 0 .17.86l.82.57.06.03a3.25 3.25 0 0 0-.06.57 4.18 4.18 0 0 0 .03.57l-.08.04Zm4.98-2.95a1.94 1.94 0 0 1-.1 3.88h-.01a1.94 1.94 0 1 1 .11-3.88Z"/>
	<path d="M15.82 10.93c-.33-.29-1.23.36-1.23.36s.33-.76-.16-.9c-.37-.1-1.54.75-1.54.75s.14-.64-.3-.53a32 32 0 0 0-2.3 1.02s-.21.12 0 .21c.15.07.6.21.64.23.04.03.74.22.9.64.2.45 0 .96-1.21 1.2a5.07 5.07 0 0 1-4.15-1 .75.75 0 0 1-.28-.37c-.04-.15.1-.37.41-.17a8.07 8.07 0 0 0 2.03.92 8.88 8.88 0 0 0 1.25.13 1.9 1.9 0 0 0 .81-.12.43.43 0 0 0 .01-.81 2.11 2.11 0 0 0-.29-.12 19.93 19.93 0 0 1-3.75-2.01 4.57 4.57 0 0 0-2.7-.58 4.83 4.83 0 0 0-2.33 1.73A8.63 8.63 0 0 1 .1 12.6a.21.21 0 0 0-.1.23l.68 2.99a.22.22 0 0 0 .33.13 8.84 8.84 0 0 1 2.83-1.35 4.26 4.26 0 0 1 2.33.51 10.68 10.68 0 0 0 3.1.8 7.8 7.8 0 0 0 2.77-.97l1.54-.93 1.17-.94a5.37 5.37 0 0 0 1.14-1.42c.13-.29.18-.51-.07-.73Z"/>
</svg>