<svg id="icon-circle-code-outline" viewBox="0 0 16 16" xmlns="http://www.w3.org/2000/svg">
  <path d="M8 16c-4.4112 0-8-3.5888-8-8s3.5888-8 8-8 8 3.5888 8 8-3.5888 8-8 8zM8 1.6C4.4712 1.6 1.6 4.471 1.6 8c0 3.529 2.8712 6.4 6.4 6.4 3.529 0 6.4-2.871 6.4-6.4 0-3.529-2.871-6.4-6.4-6.4zm.7187 3.4235c.144.0422.264.1424.3381.2821a.6409.6409 0 0 1 .0542.4574l-1.2045 4.7922c-.0658.262-.287.4448-.5379.4448a.5194.5194 0 0 1-.1465-.0212l-.008-.0023c-.1441-.0422-.2641-.1424-.3381-.282a.641.641 0 0 1-.0543-.4575l1.2046-4.7923C8.092 5.183 8.3133 5 8.5642 5a.5198.5198 0 0 1 .1465.0212l.008.0023zM6.1272 6.0352l-1.568 1.694a.3165.3165 0 0 0-.083.2164.317.317 0 0 0 .083.2166l1.568 1.694c.2175.2349.2175.6172 0 .8521l-.006.0065c-.1054.1139-.2454.1766-.3944.1766-.149 0-.2891-.0627-.3944-.1766l-2.169-2.3431C3.058 8.258 3 8.1067 3 7.9457c0-.1609.058-.3122.1634-.426l2.169-2.3432C5.4377 5.0627 5.5778 5 5.7268 5c.149 0 .289.0627.3944.1765l.006.0065c.1054.1139.1634.2652.1634.4261 0 .161-.058.3123-.1634.4261zm6.7095 1.4845c.1053.1138.1633.2651.1633.4261 0 .161-.058.3123-.1634.4261l-2.169 2.3432c-.1053.1138-.2454.1765-.3944.1765-.149 0-.289-.0627-.3944-.1765l-.006-.0065c-.1054-.1139-.1634-.2652-.1634-.4261 0-.161.058-.3123.1634-.4261l1.568-1.694a.3171.3171 0 0 0 .083-.2166.317.317 0 0 0-.083-.2166l-1.568-1.694c-.1054-.1138-.1634-.265-.1634-.426 0-.161.058-.3123.1634-.4262l.006-.0065c.1054-.1138.2454-.1765.3944-.1765.149 0 .2891.0627.3944.1765l2.169 2.3432z" fill-rule="evenodd"/>
</svg>