<svg id="icon-comments" viewBox="0 0 16 16" xmlns="http://www.w3.org/2000/svg">
  <path d="M6.273 10.336c-.646 0-1.072.023-1.072.023l-2.169 2.306-.153-3.068C1.148 8.749 0 7.304 0 5.668 0 3.075 2.807 1 6.273 1c3.467 0 6.271 2.075 6.271 4.668 0 2.572-2.807 4.668-6.27 4.668zM16 9.008c0 1.333-.923 2.503-2.327 3.174l-.123 2.485-1.758-1.865s-.349-.02-.866-.02c-1.902 0-3.559-.779-4.43-1.927h.295c3.463 0 6.27-2.096 6.27-4.668a3.59 3.59 0 0 0-.056-.636c1.767.592 3 1.909 2.995 3.457z" fill-rule="nonzero"/>
</svg>