<svg id="icon-refresh" viewBox="0 0 16 16" xmlns="http://www.w3.org/2000/svg">
  <path d="M15.74 9.667a.179.179 0 0 1-.01.073c-.445 1.86-1.376 3.37-2.793 4.526C11.521 15.422 9.861 16 7.958 16a7.804 7.804 0 0 1-2.942-.573 7.951 7.951 0 0 1-2.537-1.635l-1.344 1.343a.64.64 0 0 1-.468.198.64.64 0 0 1-.47-.198.64.64 0 0 1-.197-.468V10a.64.64 0 0 1 .198-.469.64.64 0 0 1 .469-.198h4.666a.64.64 0 0 1 .47.198A.64.64 0 0 1 6 10a.64.64 0 0 1-.198.469l-1.427 1.427a5.374 5.374 0 0 0 1.677 1.062c.625.25 1.274.375 1.948.375.93 0 1.799-.225 2.604-.677a5.252 5.252 0 0 0 1.938-1.864c.076-.118.26-.525.552-1.22.055-.159.16-.239.312-.239h2a.32.32 0 0 1 .235.1.32.32 0 0 1 .099.234zM16 1.333V6a.64.64 0 0 1-.198.469.64.64 0 0 1-.469.198h-4.666a.64.64 0 0 1-.47-.198A.64.64 0 0 1 10 6a.64.64 0 0 1 .198-.469l1.437-1.437C10.608 3.142 9.395 2.667 8 2.667c-.93 0-1.799.225-2.604.677a5.252 5.252 0 0 0-1.938 1.864c-.076.118-.26.525-.552 1.22-.055.159-.16.239-.312.239H.52a.32.32 0 0 1-.235-.1.32.32 0 0 1-.098-.234V6.26C.637 4.4 1.575 2.89 3 1.734 4.424.578 6.09 0 8 0c1.014 0 2 .193 2.958.578a8.07 8.07 0 0 1 2.552 1.63L14.865.865a.64.64 0 0 1 .468-.198.64.64 0 0 1 .47.198.64.64 0 0 1 .197.468z" fill-rule="evenodd"/>
</svg>