<svg id="icon-chart-line" viewBox="0 0 16 16" xmlns="http://www.w3.org/2000/svg">
  <path d="M1.5 14.5H16V16H0V0h1.5v14.5zm4.811-5.647L4.286 12.28l-1.378-.814 3.251-5.505 2.545 3.435 3.234-5.837-.017-.009-2.017-1.087c-.06821626-.03755716-.10843076-.11129441-.10306566-.18898105C9.80629944 2.19633231 9.85626852 2.1288232 9.929 2.101l2.083-.774 2.283-.848c.0537894-.01985994.1135156-.0156783.1640129.0114831.0504972.02716141.0869081.07468988.0999871.1305169l.546 2.373.5 2.166c.016905.07616779-.0120263.15521296-.0741066.20247131-.0620803.04725834-.1459751.05410157-.2148934.01752869l-1.969-1.062-4.448 8.027-2.588-3.492z" fill-rule="nonzero"/>
</svg>