<svg id="icon-mail-open-dollar" viewBox="0 0 16 16" xmlns="http://www.w3.org/2000/svg">
  <path d="M16 14.694c0 .721-.672 1.306-1.5 1.306h-13C.672 16 0 15.415 0 14.694V8.27l7.09 4.907a1.678 1.678 0 0 0 1.87-.003L16 8.27v6.424ZM8.241 4.286c.111.02.205.11.205.236v.616c.42.056.746.185.974.306a2.315 2.315 0 0 1 .36.237l.022.018.009.008.002.002a.232.232 0 0 1 .04.292l-.36.593v-.001a.24.24 0 0 1-.078.082.25.25 0 0 1-.102.035l-.005.002-.001-.001a.272.272 0 0 1-.198-.05l-.004-.002c-.005-.005-.133-.107-.335-.208a1.837 1.837 0 0 0-.804-.206c-.267 0-.484.061-.63.156-.144.094-.217.218-.217.358 0 .156.096.282.297.403.203.122.485.221.805.334.405.143.858.302 1.207.553.355.256.612.613.612 1.144 0 .865-.66 1.536-1.594 1.712v.616a.233.233 0 0 1-.078.176.252.252 0 0 1-.176.066h-.601a.264.264 0 0 1-.175-.067.238.238 0 0 1-.078-.173v-.615c-.992-.156-1.546-.686-1.6-.743l-.002.001a.237.237 0 0 1-.017-.313l.004-.001.458-.547.002-.004a.27.27 0 0 1 .178-.085.242.242 0 0 1 .175.054l.001.001.01.006.007.007.021.016c.019.014.045.036.08.06.068.05.168.115.29.18.246.131.58.26.95.26.202 0 .407-.05.557-.146a.472.472 0 0 0 .238-.412c0-.134-.087-.25-.283-.367a2.577 2.577 0 0 0-.344-.166l-.424-.16c-.398-.143-.863-.311-1.227-.576-.37-.27-.644-.645-.644-1.198 0-.791.656-1.422 1.57-1.614v-.639c0-.146.13-.24.254-.24h.6l.05.004ZM7.256.193A1.437 1.437 0 0 1 8.692.191l2.399 1.737h2.893c.561 0 1.016.455 1.016 1.015v1.815l.438.317c.342.24.562.608.562 1.02v.869l-2.333 1.625V3.263H2.334v5.315L0 6.964v-.87c0-.405.212-.769.545-1.008l.049-.045L1 4.745V2.943c0-.56.455-1.015 1.016-1.015h2.856L7.256.193Z"/>
</svg>