<svg id="icon-phone" viewBox="0 0 16 16" xmlns="http://www.w3.org/2000/svg">
  <path d="M15.993 14.951v-3.067c-.0026-.2317-.0957-.4532-.2593-.6173-.1637-.164-.385-.2576-.6167-.2607-1.0654-.0012-2.124-.1699-3.137-.5-.155-.0526-.3216-.0604-.4808-.0225-.1592.0378-.3045.1198-.4192.2365l-1.393 1.751C7.0371 11.1712 4.8863 9.03871 3.564 6.4l1.733-1.476c.11412-.11784.19419-.2644.2317-.4241.0375-.1597.03104-.32658-.0187-.4829-.33435-1.01196-.50319-2.07124-.5-3.137-.00209-.232744-.09547-.455365-.26005-.619947C4.58536.0954718 4.36274.00208752 4.13 0H1.056C.576 0 0 .213 0 .88c.0321252 3.99893 1.63448 7.82507 4.46158 10.6535C7.28869 14.3619 11.1141 15.966 15.113 16c.1224-.006.2424-.0361.3532-.0885.1108-.0524.2101-.1261.2924-.217.0823-.0908.1458-.1969.1871-.3123.0412-.1154.0594-.2378.0533-.3602-.0012-.0237-.0032-.0474-.006-.071z" fill-rule="nonzero"/>
</svg>