<svg id="icon-video-camera-mute" viewBox="0 0 16 16" xmlns="http://www.w3.org/2000/svg">
  <path d="M11.525 11.485l.001-.008-8.907-8.964h-.001L1.202 1.088a.275.275 0 0 0-.2-.088.275.275 0 0 0-.2.088l-.715.719a.278.278 0 0 0 0 .403l1.031 1.038a2.439 2.439 0 0 0-.727 1.776v6.17c0 .696.245 1.29.736 1.785.49.494 1.081.74 1.772.74h6.133c.685 0 1.272-.242 1.76-.728l.915.921a.275.275 0 0 0 .2.088c.076 0 .142-.03.2-.088l.715-.719a.278.278 0 0 0 0-.403l-1.297-1.305zm4.136-8.662a.602.602 0 0 0-.218-.044.516.516 0 0 0-.392.167l-3.51 3.524V5.023a2.44 2.44 0 0 0-.737-1.784 2.409 2.409 0 0 0-1.772-.74H4.835l10.827 10.895a.524.524 0 0 0 .338-.516V3.34a.524.524 0 0 0-.34-.518z" fill-rule="evenodd"/>
</svg>