<svg id="icon-circle-reload-outline" viewBox="0 0 16 16" xmlns="http://www.w3.org/2000/svg">
  <path d="M8 16c-4.4112 0-8-3.5888-8-8s3.5888-8 8-8 8 3.5888 8 8-3.5888 8-8 8zM8 1.6C4.4712 1.6 1.6 4.471 1.6 8c0 3.529 2.8712 6.4 6.4 6.4 3.529 0 6.4-2.871 6.4-6.4 0-3.529-2.871-6.4-6.4-6.4zm3.5786 8.5668l-.006.012c-1.1998 1.9907-3.7595 2.6747-5.7618 1.5232-2.0282-1.1662-2.7163-3.7741-1.5369-5.8248C5.44 3.8496 7.9951 3.1263 10.0131 4.2378l.6536-1.1366 1.409 3.4028-3.6499.4935.7826-1.3607c-1.254-.6725-2.8298-.2197-3.5518 1.0357-.7351 1.2783-.3062 2.9043.9582 3.6314 1.2408.7137 2.8252.2965 3.5787-.9274l.0054-.0063c.2224-.3852.7117-.5193 1.0927-.2993.3809.2199.5094.7107.287 1.0959z" fill-rule="evenodd"/>
</svg>