<svg id="icon-chat-outline" viewBox="0 0 16 16" xmlns="http://www.w3.org/2000/svg">
  <path d="M15.7 7.72a7.1 7.1 0 01-1.44 4.38L16 16l-4-1.74a7.75 7.75 0 01-4.11 1.18h-.03A7.79 7.79 0 010 7.72 7.79 7.79 0 017.86 0a7.79 7.79 0 017.85 7.72zm-3.8 5.13l.6.26 1.04.46-.43-.96-.3-.67.45-.59a5.81 5.81 0 001.2-3.63 6.55 6.55 0 00-6.6-6.47 6.55 6.55 0 00-6.61 6.47 6.55 6.55 0 006.6 6.47c1.24 0 2.44-.34 3.49-.99l.55-.35zM3.36 6.58a1.34 1.34 0 111.5 2.24 1.34 1.34 0 01-1.5-2.24zm8.06-.22a1.34 1.34 0 100 2.68 1.34 1.34 0 000-2.68zm-4.4.22a1.34 1.34 0 111.49 2.24 1.34 1.34 0 01-1.5-2.24z" fill-rule="evenodd"/>
</svg>