<svg id="icon-circle-arrow-down" viewBox="0 0 16 16" xmlns="http://www.w3.org/2000/svg">
  <path d="M8 0c4.4112 0 8 3.5888 8 8s-3.5888 8-8 8-8-3.5888-8-8 3.5888-8 8-8zm.6748 12.0687l3.4168-3.4948c.3728-.3813.3728-.9993 0-1.3801a.9387.9387 0 0 0-1.3492 0l-1.788 1.8288V4.6214c0-.5394-.4276-.9759-.9544-.9759s-.9542.4367-.9542.976v4.4011l-1.788-1.8288a.939.939 0 0 0-1.3494 0c-.3728.3808-.3728.9988 0 1.38l3.417 3.495a.9445.9445 0 0 0 .6748.2857.9444.9444 0 0 0 .6746-.2858z" fill-rule="evenodd"/>
</svg>