<svg id="icon-chart-bar" viewBox="0 0 16 16" xmlns="http://www.w3.org/2000/svg">
  <path d="M1.09 0c.603 0 1.092.503 1.092 1.123v12.63h12.727c.602.001 1.09.503 1.091 1.123 0 .62-.488 1.124-1.09 1.124H1.09C.489 16 0 15.496 0 14.876V1.123C0 .503.488 0 1.09 0Zm3.638 7.546c.602 0 1.09.488 1.09 1.09v2.182a1.09 1.09 0 0 1-2.181 0V8.637c0-.603.488-1.091 1.09-1.091Zm2.909-2.91c.602 0 1.09.49 1.09 1.092v5.09a1.09 1.09 0 0 1-2.181 0v-5.09c0-.603.488-1.091 1.09-1.091Zm2.909 2.182c.602 0 1.09.49 1.09 1.092v2.908a1.091 1.091 0 0 1-2.182 0V7.91c0-.603.49-1.092 1.092-1.092Zm2.91-4.364c.602 0 1.09.49 1.09 1.092v7.272a1.091 1.091 0 0 1-2.183 0V3.545c0-.603.49-1.09 1.092-1.09Z"/>
</svg>