<svg id="icon-logo-openstack" viewBox="0 0 16 16" xmlns="http://www.w3.org/2000/svg">
  <path d="M15.7607 10.8886l-2.7564.2219-1.6838-1.5853.45-.0372-.6287-.5855-.0166-3.7696 1.909 1.1694c-.0055.0043-.011.008-.0166.0123.0257.014.0512.0264.0767.0387l.1097.0932.0303-.0315c.0553.0223.1104.043.1655.0636l.3642-.032.7284-.06.7283-.0603.3641-.03c.1155-.068.2311-.1347.345-.2212l.0347.0324.0185 4.3498-.6297.0519.4074.3794zM5.1636 12.7742c-.048-.0414-.0743-.101-.074-.168l.002-.843-3.1397.2599.006.0656-1.8513-1.6362-.031.0311v-.0307l.6309-.052-.6294-.586-.0178-4.2375-.0579-.0492.0026-.0027 1.9766 1.681c-.0092.007-.0185.0132-.0276.0204.0408.0222.0814.0415.122.0598l.0005.0005.0002-.0002c.087.0392.1736.0718.2599.104l.3642-.0321.7292-.06.7287-.0603.3645-.03c.1155-.0682.2314-.1345.3454-.2211l.0348.0324.0166 4.12 5.7351-.4724c.0087-.0007.0172-.0022.0259-.0034a.6912.6912 0 0 0 .07-.0143.5802.5802 0 0 0 .1004-.0382c.0037-.0018.0072-.0039.011-.0058a.7372.7372 0 0 0 .0533-.0321l.0044-.003c.0125-.009.0248-.0182.0357-.0282a.194.194 0 0 0 .027-.023l.003-.0029c.0076-.0073.0159-.015.0219-.023.0072-.0079.0145-.015.0207-.0233.0057-.0072.0121-.0153.0177-.0228a.2405.2405 0 0 0 .0152-.0228c.0048-.0071.0104-.0145.0144-.022.004-.0062.0072-.0128.0105-.019a.4433.4433 0 0 0 .01-.0202l.0034-.0071c.004-.0085.0065-.0164.0097-.0245.004-.0083.0063-.0175.0095-.0252l.001-.0036c.0025-.008.0045-.0161.0066-.0242.0023-.0094.0054-.018.006-.0277.0024-.0108.0033-.0211.0048-.0322a.2757.2757 0 0 0 .0025-.037c0-.0031 0-.0067.0007-.0103l.0007-.542-.0147-.014.001-.0008 1.7035 1.604-.0018.7143c-.0005.1511-.1373.2903-.2985.3038l-7.182.592c-.0702.0058-.136-.0134-.184-.0548zm8.075-1.296l2.7586-.2218.0028.0304-.0182.0015-.006 2.7626c-.0008.4788-.415.9025-.9276.9455L2.9203 15.9965c-.2757.0231-.5226-.071-.6917-.2375.005.0049.0094.0102.0145.015L.3155 13.979a.7976.7976 0 0 1-.0517-.0531c-.0057-.0064-.0107-.0133-.0162-.0198a.7873.7873 0 0 1-.0306-.0385c-.0055-.0075-.0104-.0154-.0156-.023a.7228.7228 0 0 1-.0256-.04c-.0047-.008-.009-.0163-.0134-.0245a.6997.6997 0 0 1-.0216-.0428c-.004-.0084-.0075-.017-.0112-.0257a.7384.7384 0 0 1-.038-.117c-.0025-.0108-.0051-.0216-.0072-.0327-.0025-.0126-.0043-.0256-.0061-.0385-.002-.014-.0041-.0278-.0054-.042l-.0005-.004C.0708 13.455.07 13.432.0692 13.4087l.0059-2.716L0 10.6262l.002-.002 1.9073 1.6858.0634-.0636.015.1606 2.6935-.223-.001.421a.5877.5877 0 0 0 .207.4534c.1188.1024.271.1571.4338.1571a.7292.7292 0 0 0 .063-.0027l7.1816-.592c.3756-.0313.6708-.333.6719-.6867l.0011-.456zM2.0037 15.2998a.7405.7405 0 0 1 .0006.0037l-.0006-.0037zm.0137.0897c-.005-.0252-.0084-.051-.0119-.0769a1.22 1.22 0 0 0 .0141.087c-.0007-.0035-.0016-.0067-.0022-.01zm.0198.067c-.0055-.0182-.0098-.037-.0146-.0556a1.15 1.15 0 0 0 .0198.0714c-.0017-.0053-.0036-.0105-.0052-.0158zm.026.0655c-.0054-.0128-.01-.0261-.0148-.0391a1.16 1.16 0 0 0 .025.0626c-.0035-.0078-.007-.0156-.0103-.0235zm.0521.1c-.007-.012-.0135-.0245-.0202-.037-.0045-.0082-.0084-.0167-.0127-.025.0108.021.0215.0424.0335.0628l-.0006-.0007zm.0406.0574c-.0079-.0109-.015-.0222-.0226-.0333l-.009-.014c.0117.0178.0234.0358.036.053-.0013-.002-.003-.0038-.0044-.0057zm.0453.0534c-.0073-.0082-.0138-.017-.0208-.0254-.0024-.003-.0046-.006-.007-.0088.0122.0149.0245.0299.0375.0442-.003-.0034-.0066-.0065-.0097-.01zM.223 5.452l.4962-.0409-.646-.601.0097-2.8685v-.0193a1.1337 1.1337 0 0 1 .0048-.071 1.637 1.637 0 0 1 .0088-.0606c.0014-.0081.0035-.0159.0052-.0238l.001-.0045c.002-.0088.0035-.018.0058-.0266a.4938.4938 0 0 1 .014-.047l.008-.0237c.0033-.0096.0062-.0193.01-.0289.0035-.0099.008-.0196.0121-.0293l.0058-.014.0013-.003a.8504.8504 0 0 1 .0207-.0444c.004-.0074.0081-.0144.0122-.0216l.0073-.013c.0018-.0032.0034-.0065.0054-.0096a.9411.9411 0 0 1 .0263-.0435c.003-.0047.0062-.009.0093-.0134l.003-.0044c.0057-.0083.0113-.0167.0173-.025.0098-.0123.0188-.0242.0283-.0357a.7584.7584 0 0 1 .0133-.0162.5878.5878 0 0 1 .0311-.0364c.006-.0064.0124-.0125.0186-.0189l.006-.0061c.0068-.0069.0134-.014.0202-.0206.0106-.0096.0212-.0187.0318-.028.0058-.005.0113-.0101.0172-.015l.0062-.0054c.0074-.0061.0154-.0115.023-.0175.0146-.0114.0293-.023.0446-.0337.0012-.0009.0023-.0019.0036-.0027a.9054.9054 0 0 1 .1206-.0726c.004-.002.0083-.0035.0122-.0055.017-.0084.0345-.016.0519-.0234.0139-.006.0276-.0124.0418-.0178.031-.0117.0626-.022.0948-.0308a1.1567 1.1567 0 0 1 .0801-.018c.0073-.0015.0146-.0027.022-.004.0113-.0018.0226-.0042.0339-.0057C.9783.9995.9935.998 1.011.996L13.1374.0034c.0136-.0016.0272-.0022.04-.0028.0187-.0008.0365-.0005.0542-.0002h.0067c.0045 0 .0091-.0003.0134-.0001a.8283.8283 0 0 1 .0672.0049c.0034.0003.0068.001.0102.0014.0038.0004.0075.001.0112.0015.0139.0018.0279.0034.041.0057.0121.002.024.005.0359.0075l.0122.0026c.0037.0008.0075.0014.0111.0023.0191.005.0376.01.056.0158.004.0012.0073.0026.011.0038l.012.004c.0109.0036.022.007.033.011.0144.006.029.0126.0432.0192l.0026.001c.003.0015.0063.0027.0092.0041a.8474.8474 0 0 1 .0553.0287c.0032.002.0064.0041.0097.006l.012.0076c.0118.0071.0237.014.035.0218.0065.0043.0126.0095.019.0141a.8466.8466 0 0 1 .019.0141c.0068.0052.014.0098.0204.0152.0128.0111.0255.0217.0375.0332l1.5513 1.4446a1.0607 1.0607 0 0 0-.2853-.0542l-.4636-.0107-1.8027.1484-3.606.297-3.6057.297-1.8033.147-.8984.1692c-.331.0722-.593.2976-.713.562.1925-.2238.4743-.3534.7432-.3588l.9036.0145 1.8028-.15 3.606-.2968 3.6061-.297 1.8028-.1485.4386-.08c.1289-.02.255-.0104.3807.0355.249.087.4472.3258.4854.6135l.0218 2.9016-.6527.0536.5993.5583c-.127-.0656-.2518-.112-.3774-.1596l-.3641.03-.7284.06-.7284.0603-.3642.028a6.2073 6.2073 0 0 0-.1607.0956l-2.0789-1.2809-.0003-.0463-5.7203.468c-.2662.022-.4853.2433-.4853.4935l-.0007.5457-.6594.054.6059.564c-.127-.0656-.2522-.1119-.3774-.1595l-.3646.03-.7292.06-.7287.0602-.3647.028a6.5291 6.5291 0 0 0-.149.0883L.2228 5.452z" fill-rule="evenodd"/>
</svg>