<svg id="icon-logo-hp" viewBox="0 0 16 16" xmlns="http://www.w3.org/2000/svg">
  <path d="M16 8c0 4.4183-3.5817 8-8 8a8.1356 8.1356 0 0 1-.3734-.009c.5633-1.5845 1.1254-3.1696 1.694-4.7525.6197-.0116 1.2395.0039 1.8594-.0077.3951-.0133.786-.2543.9161-.6387.524-1.4755 1.061-2.9466 1.5687-4.4284.0833-.2234.1293-.473.0631-.7075-.0897-.2968-.3617-.5068-.6533-.5854-.2539-.0786-.5215-.0503-.7822-.0546-.7959-.0021-1.591.0039-2.3856-.0038-.0129.0266-.039.0794-.0515.1052-1.2853 3.61-2.5684 7.221-3.8587 10.8294C2.5479 14.8578 0 11.7265 0 8 0 4.2043 2.6434 1.0261 6.1897.2057 4.8946 3.7967 3.6296 7.399 2.3351 10.9903c.0829.0253.1696.0154.2551.0163.473-.0022.9467.0013 1.4196-.0009.0649-.0004.0576-.0897.0846-.131.5705-1.6098 1.1473-3.218 1.7194-4.8266.0344-.1.0666-.2006.1122-.295.2963.0047.5931-.0018.8895.003-.622 1.7438-1.2383 3.4903-1.8693 5.2311.0657.0267.1379.0185.207.0198.497-.0043.994.0034 1.4905-.0034.5618-1.585 1.1301-3.167 1.6927-4.7506.1208-.3239.131-.707-.06-1.0055-.1671-.265-.4842-.3913-.7866-.4038-.414-.012-.828.0013-1.2421-.006C6.8163 3.224 7.4019 1.616 7.9662.0004 7.9775.0004 7.9887 0 8 0c4.4183 0 8 3.5817 8 8zm-5.4644 2.3206c-.2972.021-.597.0086-.8947.0065.543-1.5172 1.0807-3.0364 1.6241-4.5535.0494-.0558.137-.0219.2032-.0317.2293.0042.4595-.0018.689.0034-.5349 1.527-1.095 3.0454-1.6216 4.5753z" fill-rule="evenodd"/>
</svg>