<svg id="icon-brain-nodes" viewBox="0 0 16 16" xmlns="http://www.w3.org/2000/svg">
    <path d="M5.721 8.6c.026-.003.67-.005 1.932-.007v-4.71l-.001-.409-2.904.005-.134.032a.784.784 0 0 0-.491.492l-.008.022c-.022.069-.024.108-.026.322l-.002.123v.294c.001.038.001.04.005.075a1.25 1.25 0 1 1-.614-.002v-.369c0-.179.004-.375.008-.414.026-.256.136-.514.304-.714.22-.261.54-.43.88-.464.042-.004.533-.007 1.27-.007h1.71v-.132A2.746 2.746 0 0 0 5.224.02a2.21 2.21 0 0 0-.48-.01c-.33.03-.618.105-.907.237a2.574 2.574 0 0 0-.725.483 2.68 2.68 0 0 0-.735 1.125c-.05.14-.069.175-.11.218-.032.034-.065.054-.19.104a3.315 3.315 0 0 0-2 2.353 3.236 3.236 0 0 0 .453 2.47c.173.269.328.446.636.73.074.068.082.077.098.106.014.026.022.041.027.057.007.023.006.049.006.117 0 .09 0 .09-.007.106a.416.416 0 0 1-.128.163c-.48.431-.782.873-.979 1.433a3.214 3.214 0 0 0 .222 2.63c.355.653.95 1.191 1.623 1.464.163.065.187.078.228.116.05.046.066.074.12.227.163.455.391.806.732 1.12.223.208.44.354.72.483.495.228 1.02.301 1.534.213a2.75 2.75 0 0 0 2.28-2.484c.007-.074.01-.713.01-1.68V9.198L5.8 9.202l-.133.033a.781.781 0 0 0-.444.382c-.079.153-.085.207-.085.61v.317a1.25 1.25 0 1 1-.607-.013v-.335c0-.181.004-.374.008-.412A1.32 1.32 0 0 1 5.722 8.6ZM10.279 7.4c-.026.003-.67.005-1.932.007v4.71l.001.409 2.904-.005.134-.032a.785.785 0 0 0 .491-.492l.008-.022c.022-.069.024-.108.026-.322l.002-.123v-.008a9.6 9.6 0 0 0 0-.286.698.698 0 0 0-.005-.075 1.25 1.25 0 1 1 .615.002l-.001.369c0 .179-.004.375-.008.414a1.348 1.348 0 0 1-.304.714c-.22.261-.54.43-.88.464-.042.004-.533.007-1.27.007H8.35v.132a2.746 2.746 0 0 0 2.426 2.718c.187.021.32.024.48.01.33-.03.618-.105.906-.237.283-.13.502-.274.726-.483a2.68 2.68 0 0 0 .735-1.125c.05-.14.069-.175.11-.218.032-.034.066-.054.19-.104a3.315 3.315 0 0 0 2-2.353 3.236 3.236 0 0 0-.453-2.47c-.173-.269-.328-.446-.636-.73-.074-.068-.082-.077-.098-.106-.014-.026-.022-.041-.027-.057-.007-.023-.006-.049-.006-.117 0-.09 0-.09.007-.106a.417.417 0 0 1 .128-.163c.48-.431.782-.873.979-1.433a3.214 3.214 0 0 0-.222-2.63 3.308 3.308 0 0 0-1.623-1.464c-.163-.065-.187-.078-.228-.116-.05-.046-.066-.074-.12-.227a2.689 2.689 0 0 0-.732-1.12 2.607 2.607 0 0 0-.72-.483 2.595 2.595 0 0 0-1.534-.213 2.75 2.75 0 0 0-2.28 2.484c-.007.074-.01.713-.01 1.68v2.603l1.853-.005.133-.033a.781.781 0 0 0 .444-.382c.079-.153.085-.207.085-.61v-.317a1.25 1.25 0 1 1 .607.013v.335a8.1 8.1 0 0 1-.008.412A1.32 1.32 0 0 1 10.278 7.4Z"/>
</svg>