<svg id="icon-verified" viewBox="0 0 16 16" xmlns="http://www.w3.org/2000/svg">
  <path d="M9.569 5.336L7.101 8.801l-.67-.95a.78.78 0 0 0-1.102-.175.821.821 0 0 0-.165 1.137l1.308 1.837a.776.776 0 0 0 .64.342.776.776 0 0 0 .64-.34l3.081-4.347a.825.825 0 0 0-.163-1.14c-.352-.262-.863-.178-1.101.171M15.254 8a2.356 2.356 0 0 0 .62-2.474c-.297-.882-1.071-1.508-2.008-1.645a2.373 2.373 0 0 0-1.002-2.354c-.759-.532-1.8-.6-2.625-.186A2.5 2.5 0 0 0 7.999 0C7.04 0 6.185.519 5.76 1.338a2.613 2.613 0 0 0-2.625.188A2.378 2.378 0 0 0 2.133 3.88c-.937.136-1.711.763-2.008 1.646a2.36 2.36 0 0 0 .62 2.473 2.358 2.358 0 0 0-.62 2.474c.297.881 1.071 1.509 2.008 1.645a2.374 2.374 0 0 0 1.003 2.354c.759.532 1.8.6 2.626.186.423.82 1.28 1.34 2.238 1.34a2.5 2.5 0 0 0 2.239-1.34c.358.18.755.274 1.16.274.53 0 1.036-.16 1.466-.462a2.375 2.375 0 0 0 1.002-2.352c.938-.137 1.712-.764 2.008-1.647a2.353 2.353 0 0 0-.621-2.472zm-2.939 3.208a1.552 1.552 0 0 1-.624 1.682 1.741 1.741 0 0 1-1.87.053l-.196-.12-.086.212A1.643 1.643 0 0 1 8 14.047a1.646 1.646 0 0 1-1.54-1.013l-.087-.213-.195.121a1.732 1.732 0 0 1-1.868-.053 1.55 1.55 0 0 1-.626-1.681l.062-.231-.238-.014c-.686-.042-1.265-.472-1.475-1.097a1.544 1.544 0 0 1 .521-1.714L2.745 8l-.19-.153a1.549 1.549 0 0 1-.522-1.715c.21-.626.789-1.056 1.474-1.096l.239-.014-.062-.231a1.552 1.552 0 0 1 .625-1.683c.543-.38 1.304-.4 1.869-.053l.195.12.087-.213A1.647 1.647 0 0 1 8 1.951c.684 0 1.288.397 1.54 1.012l.086.213.196-.12a1.735 1.735 0 0 1 1.867.052c.551.386.796 1.046.625 1.683l-.061.23.238.015c.686.04 1.265.471 1.475 1.096.21.621.005 1.295-.52 1.715L13.252 8l.192.152c.527.419.731 1.09.522 1.713-.21.625-.788 1.056-1.475 1.097l-.238.014.061.23z" fill-rule="evenodd"/>
</svg>