<svg id="icon-database-outline" viewBox="0 0 16 16" xmlns="http://www.w3.org/2000/svg">
  <path d="M2.139 9.46h.006c0 .95 2.626 1.947 5.908 1.947 3.278 0 5.912-1 5.912-1.947h.018l.01-2.044c-1.217.852-3.444 1.37-5.967 1.37-2.499 0-4.707-.508-5.932-1.346l.045 2.02zm.035 1.572l.046 2.061c0 .948 2.613 1.946 5.871 1.946 3.265 0 5.875-1 5.875-1.962l.01-2.076c-1.209.852-3.42 1.37-5.923 1.37-2.477 0-4.663-.505-5.88-1.339zm-.115-5.16h.01c0 .944 2.654 1.945 5.957 1.945s5.958-1.001 5.958-1.944H14l.01-2.2c-1.202.694-3.398 1.158-5.917 1.158-2.639 0-4.925-.508-6.086-1.258l.051 2.3zM15 2.417v.002l-.052 10.662c0 1.736-3.09 2.92-6.857 2.92-3.76 0-6.854-1.182-6.854-2.896L1 2.416C1 .94 4.319 0 8.094 0 11.826 0 15 .936 15 2.416zM8.094 1.049h-.008c-3.67 0-5.634.969-5.866 1.396.232.425 2.188 1.396 5.874 1.396 3.686 0 5.637-.971 5.87-1.396-.233-.427-2.197-1.396-5.87-1.396z" fill-rule="nonzero"/>
</svg>