<svg id="icon-logout" viewBox="0 0 16 16" xmlns="http://www.w3.org/2000/svg">
  <path d="M14.0090003 0c.5276-.0002649 1.0337.20900325 1.4071.58179725.3733.372794.5834.878593.5838997 1.406203V14.0100003c0 .5276-.2094997 1.0336-.5824997 1.4068-.373.3732-.8789.5829-1.4065.5831997H1.99100025c-.52761.0003003-1.033726-.2089997-1.407082-.5817997S.0005307 14.5396003 0 14.0120003V12h2.04100025v2.0100003L14.0490003 14V1.99000025L2.04100025 2v2H0V1.99000025c-.0002649-.52734.20889825-1.033206.58150425-1.406375.372606-.373168.878156-.58309455 1.405496-.58362525H14.0090003zM7.26008025 12.0740203c-.03265.00028-.06503-.00592-.09529-.01822-.03025-.0123-.05778-.0304-.08101-.0534-.02323-.0229-.0417-.0502-.05434-.0803-.01265-.0301-.01923-.0624-.01936-.0951V8.99700025h-5.003v-1.994h5.003v-2.865l.062-.165c.04368-.0493.10505-.07936.17077-.08367.06572-.00431.13049.0175.18023.06067l2.09 1.834 2.29002005 2.01.021.022c.0218.02456.0385.05317.0493.0842.0107.03103.0153.06387.0133.09665-.0019.03278-.0103.06486-.0247.0944-.0143.02953-.0344.05596-.0589.07775L9.51308025 10.1790003l-2.089 1.834-.164.06102z" fill-rule="nonzero"/>
</svg>