<svg id="icon-logo-linkedin" viewBox="0 0 16 16" xmlns="http://www.w3.org/2000/svg">
  <path d="M16 9.37364V15.289h-3.4293V9.76982c0-1.38646-.496-2.33266-1.7373-2.33266-.94761 0-1.51151.63767-1.75959 1.25451-.09047.22052-.11375.52745-.11375.83613v5.7612H5.52958s.0462-9.34765 0-10.31613h3.43014v1.46226c-.00696.01094-.016.02273-.02254.03333h.02254v-.03333c.45573-.70191 1.26958-1.70462 3.09128-1.70462 2.257 0 3.949 1.47443 3.949 4.64313zM1.94116 0C.767605 0 0 .769764 0 1.78203c0 .9902.745397 1.78333 1.89563 1.78333h.02292c1.19629 0 1.94027-.79298 1.94027-1.78333C3.83628.769764 3.11484 0 1.94116 0zM.20374 15.289h3.42917V4.97287H.20374V15.289z" fill-rule="nonzero"/>
</svg>