<svg id="icon-video-camera" viewBox="0 0 16 16" xmlns="http://www.w3.org/2000/svg">
  <path d="M16 2.9v10.2c0 .263-.116.447-.348.553a.595.595 0 0 1-.223.047.519.519 0 0 1-.402-.178L11.43 9.744V11.3c0 .744-.252 1.38-.755 1.908S9.566 14 8.857 14H2.57c-.708 0-1.314-.264-1.817-.792A2.665 2.665 0 0 1 0 11.3V4.7c0-.744.252-1.38.755-1.908S1.863 2 2.572 2h6.285c.709 0 1.314.264 1.817.792.503.528.755 1.164.755 1.908v1.547l3.598-3.768a.519.519 0 0 1 .402-.178.595.595 0 0 1 .223.046c.232.106.348.29.348.553z" fill-rule="evenodd"/>
</svg>