<svg id="icon-globe-outline" viewBox="0 0 16 16" xmlns="http://www.w3.org/2000/svg">
  <path d="M7.742 0C3.4663 0 0 3.4662 0 7.742c0 4.276 3.4662 7.7421 7.742 7.7421 4.276 0 7.7421-3.4662 7.7421-7.742C15.4841 3.466 12.018 0 7.7421 0zm0 14.045c-.7301 0-1.4283-.1313-2.081-.3606.0025-.1237.017-.2468.07-.3705.0658-.1648.1648-.2967.2637-.4286.4615-.6923.5934-1.6485 1.154-2.2749.2307-.2308.5274-.4286.7252-.6923.1649-.2308.2638-.5605.1649-.8243-.033-.033-.099-.066-.1649-.066-.2637.033-.5604-.0988-.7912-.2637-.2638-.1648-.4946-.4286-.7583-.5934-.4946-.3627-1.187-.4286-1.7804-.2308-.2638.0989-.4945.2308-.7913.2637-.2967.033-.6264-.1318-.6594-.3956-.033-.1978.099-.4286-.033-.5935-.0659-.0659-.1318-.0989-.1978-.1318-.3956-.2308-.6264-.7254-.4945-1.187 0-.0659.099-.1318.1319-.0989.066.099.1648.1649.2637.2308.033.066.099.099.1649.066.033 0 .066-.066.0989-.099.5605-.8242 1.3188-1.5165 2.209-1.9781.4286-.2308.956-.4286 1.1869-.8902.1978-.3956.0989-.8572-.066-1.2858-.0397-.079-.0708-.146-.1037-.2167.478-.1164.975-.1848 1.4885-.1848.3573 0 .7054.0369 1.0463.094-.0427.0423-.0732.0767-.0572.0767h.444c.24.0558.4738.127.7026.2095.1135.2865.032.6438-.0586.9774-.099.3297-.132.6924-.132.9891-.0329.066.066.1319.165.099.1648-.099.3626-.165.5604-.2309.033-.033.1319 0 .1319.066.066.2637-.033.5275-.2308.6923-.099.066-.1978.099-.2967.1649-.7583.3956-1.22 1.3188-1.055 2.176 0 .1648.0659.3297.1648.4615.2308.2968.6264.3627.989.3627.3627.033.7254 0 1.0551.1649.2967.1648.4946.4615.5935.7912.0989.3297.1648.6594.2308.9891.0989.4616.2967.8902.5604 1.2858.066.033.1979.033.1979-.033.033-.1648 0-.3626.0659-.5274.066-.2638.2638-.4286.4286-.6265.3297-.3956.5275-.9231.7583-1.3847.0044-.0073.0107-.0155.015-.0228-.2429 3.2553-2.9629 5.8313-6.2792 5.8313zM1.439 7.742c0-.4552.051-.8979.143-1.326.0708.0582.1324.1178.1596.1721.066.1319.066.3297.1319.4616.0659.1319.1978.1978.3297.2967.7253.5275 1.1539 1.4507 1.022 2.3409 0 .066-.033.1648 0 .2308.033.0989.1319.1648.2308.2307.3297.1979.5275.5605.7253.8902.4073.7564.706 1.5651.8854 2.4015C2.927 12.4315 1.439 10.2599 1.439 7.742zm3.8808-5.8176l.0669.1343a6.36 6.36 0 0 0 .0805.1687c.1323.3598.0892.4645.0887.4654-.0485.097-.3418.2454-.5358.3438a7.1895 7.1895 0 0 0-.2298.1193c-.786.4073-1.4948.974-2.083 1.662h-.2312c-.1212 0-.2351.0277-.3447.0665.6778-1.3256 1.807-2.3826 3.1884-2.96zM4.2085 9.1006c.1959-.0524.3617-.1227.5052-.1833.0562-.0232.1125-.0475.1372-.0577.3108-.1042.6846-.0654.8999.0926l.0601.0408c.0679.0422.16.1226.258.207.1362.1183.2894.2512.4736.3695a2.855 2.855 0 0 0 .1804.1163 5.3763 5.3763 0 0 0-.2599.2386l-.0373.0397c-.4315.482-.656 1.0531-.8538 1.5569-.015.0378-.0296.0751-.0441.112a10.9069 10.9069 0 0 0-.515-1.0934l-.045-.0746c-.1853-.3118-.4083-.686-.752-.9668a3.2959 3.2959 0 0 0-.0073-.3976zm9.1937-1.7096a4.7412 4.7412 0 0 0-.2284.3486l-.0349.063c-.061.1222-.1207.2498-.1804.3778-.061.1309-.1207.2594-.1813.3786a7.4267 7.4267 0 0 0-.0844-.305c-.1803-.6007-.5536-1.0836-1.0884-1.3793-.431-.2158-.8427-.2347-1.1734-.2497-.0751-.0034-.1512-.0068-.2269-.0131l-.0882-.0044c-.0907 0-.1542-.0063-.1969-.0136l-.0048-.0242c-.0815-.4238.1658-.9319.5513-1.133l.1338-.0752c.0839-.0417.1672-.0859.2516-.1421l.0839-.0626c.4766-.398.69-1.0075.5653-1.6063-.061-.3709-.32-.6763-.6662-.8087.031-.1362.0568-.287.0699-.4441 1.5728.9173 2.7122 2.4921 3.0395 4.3476l-.5411.7457z" fill-rule="evenodd"/>
</svg>