<svg id="icon-logo-rackspace" viewBox="0 0 16 16" xmlns="http://www.w3.org/2000/svg">
  <path d="M8.3084 4.3323c-.3134.6423-.1889 1.169.279 1.1773.4676.008 1.1018-.5054 1.4153-1.147.3136-.6422.1886-1.1693-.279-1.1778-.4679-.0074-1.1016.506-1.4153 1.1475zm3.8124-2.3173a.0106.0106 0 0 1 .0058.013c-.2797.7697-.7434 1.6448-1.2033 2.309C9.955 5.733 8.5646 6.6138 7.8188 6.3033c-.7453-.3105-.5659-1.694.4035-3.091.218-.3136.457-.601.705-.8546a.0125.0125 0 0 0 .0032-.0077.011.011 0 0 0-.0109-.0105s-.0013 0-.0016.0002a8.7852 8.7852 0 0 0-.9246.176.0101.0101 0 0 0-.0058.0036c-3.272 3.896-4.6645 8.9558-4.4732 13.47A.0104.0104 0 0 1 3.5035 16c-.0013 0-.0026 0-.004-.0005-1.929-.7547-3.3384-2.564-3.4854-4.8546l-.0016-.0268C-.231 7.0427 3.115 2.8677 7.4876 1.793c1.6943-.4165 3.295-.3066 4.6332.222zm-1.237 10.9922a.0111.0111 0 0 0 .0045-.0088.0104.0104 0 0 0-.0008-.004c-1.079-2.5474-1.5578-5.5638 2.3103-10.8585a.0101.0101 0 0 0 .0016-.0057.0099.0099 0 0 0-.0043-.0082c-1.1225-.8684-2.843-1.292-4.9895-1.0282-.0005.0003-.001.0003-.0013.0003a.011.011 0 0 1-.0111-.0108c0-.0023.001-.0049.0026-.0067.3129-.3568.6464-.71 1.0025-1.0598a.009.009 0 0 1 .0069-.003c3.663-.2146 6.5688 2.0969 6.7823 5.6733.243 4.0714-3.0968 8.242-7.463 9.322-1.5071.3694-2.92.3285-4.1464-.0447-.0043-.0008-.0072-.0049-.0072-.0095-.0871-1.6046.2348-3.2763.9419-4.4428 1.1562-1.9063 2.9055-1.744 3.9067.3614.3754.789.5924 1.7368.6563 2.7155.0002.0054.0053.01.011.01a.0175.0175 0 0 0 .0051-.001c.3426-.1785.6743-.3765.992-.5908z" fill-rule="evenodd"/>
</svg>