<svg id="icon-bell-off-outline" viewBox="0 0 16 16" xmlns="http://www.w3.org/2000/svg">
  <path d="M11.0604269 3.88718589C10.5340325 3.38207233 9.86168921 3.05199009 9.136 2.946l-.373-.042-.407.046c-.77722.08935-1.49956.44492-2.0444 1.00634-.54484.56143-.8786 1.29411-.9446 2.07366l-.24003425 2.92484047 5.93346115-5.06765458zM3.61781855 10.2437739L3.973 5.915c.09145-1.1029.56252-2.13996 1.33294-2.93445.77041-.79448 1.7925-1.29723 2.89206-1.42255-.1034-.08001-.18734-.18239-.24554-.29946-.05819-.11708-.08911-.24581-.09046-.37654 0-.233921.09292-.458261.25833-.623668C8.28574.0929247 8.51008 0 8.744 0c.23392 0 .45826.0929247.62367.258332C9.53308.423739 9.626.648079 9.626.882c-.00123.12956-.03152.2572-.08863.3735-.05711.11631-.1396.21831-.24137.2985 1.0752519.15074064 2.0693215.6519933 2.8290389 1.42392133L14.4781296.96819204l1.5262029 1.78695402L1.52620291 15.1206369 0 13.3336829l3.61781855-3.089909zm9.97403855-3.38883839L13.931 10.984h.001c.0399.4916.2634.9503.626 1.2847.3626.3344.8377.5202 1.331.5203v1.172H5.27172461l1.64069469-1.4012856L13.013 12.559c-.271-.4427-.4344-.9427-.477-1.46l-.2565244-3.12318476 1.3123815-1.12087973zM8.743 16.0000034c-.20105.0000966-.40016-.0393034-.58596-.1162034-.1858-.0768-.35465-.1894-.49691-.3315s-.25515-.3108-.33221-.4965c-.07706-.1857-.11679-.3847-.11692-.5858h3.064c0 .2011-.03964.4002-.11666.586-.07701.1857-.18989.3545-.33217.4966-.14229.1421-.31119.2547-.49705.3315-.18586.0768-.38503.1162-.58612.1159034z" fill-rule="nonzero"/>
</svg>