<svg id="icon-lock" viewBox="0 0 16 16" xmlns="http://www.w3.org/2000/svg">
	<path d="M13.716 6.99h-.885V4.836a4.83 4.83 0 1 0-9.662 0v2.156h-.885A1.288 1.288 0 0 0 1 8.276v6.439A1.288 1.288 0 0 0 2.284 16h11.432A1.288 1.288 0 0 0 15 14.715V8.276a1.288 1.288 0 0 0-1.284-1.285Zm-5.012 4.812v1.243a.695.695 0 0 1-.67.716h-.068a.694.694 0 0 1-.67-.716v-1.243a1.422 1.422 0 0 1-.604-1.177A1.355 1.355 0 0 1 8 9.23a1.355 1.355 0 0 1 1.308 1.395 1.423 1.423 0 0 1-.604 1.177Zm2.627-4.811H4.669V4.835a3.33 3.33 0 1 1 6.662 0Z" fill-rule="nonzero"/>
</svg>