<svg id="icon-file-invoice-gear" viewBox="0 0 16 16" xmlns="http://www.w3.org/2000/svg">
    <path d="M2.29 1.29v13.42h4.14V16H1.64c-.35 0-.64-.29-.64-.64V.64A.65.65 0 0 1 1.64 0h12.04a.65.65 0 0 1 .65.64V6h-1.3V1.29H2.29Zm4.1 6.01v1.3H3.72V7.3h2.67Zm5.11-3.54v-.01 1.3H3.7V3.76h7.8ZM6 10.74v-.01 1.3H3.7v-1.29H6Zm9.73 1.69a.55.55 0 0 1 .18.76l-.65 1.05a.62.62 0 0 1-.78.23l-.8-.36-.04-.02c-.29.22-.62.39-.96.52l-.08.86a.6.6 0 0 1-.62.53l-1.28-.01a.6.6 0 0 1-.6-.53l-.07-.83v-.04a3.53 3.53 0 0 1-.94-.54l-.03.02-.81.36a.62.62 0 0 1-.78-.24l-.64-1.05a.56.56 0 0 1 .19-.76l.72-.48.08-.03a2.89 2.89 0 0 1 0-1.02l-.06-.02-.73-.5a.55.55 0 0 1-.18-.76l.65-1.05a.63.63 0 0 1 .79-.23l.79.37.04.02c.29-.23.61-.4.95-.53v-.04l.08-.82a.6.6 0 0 1 .62-.52h1.28a.6.6 0 0 1 .6.54l.07.83v.03c.34.14.66.32.94.54l.04-.02.8-.36a.63.63 0 0 1 .79.24l.63 1.06a.56.56 0 0 1-.18.76l-.74.47-.07.05c.06.33.05.67 0 1l.08.04.72.48Zm-4.36.69a1.74 1.74 0 1 0-.01 0h.01Z" fill-rule="nonzero"/>
</svg>