<svg id="icon-edit-create" viewBox="0 0 16 16" xmlns="http://www.w3.org/2000/svg">
  <path d="M5.76 9.944v.004h-.001a5.542 5.542 0 00.51 3.944L4.1 16H0v-4.173L9.068 2.75l1.375 1.38-8.719 8.42.646.67 3.39-3.276zm6.211-4.283a5.695 5.695 0 00-.732-.055c-.37 0-.74.037-1.103.109l.962-.929.873.875zm4.03-1.796a1 1 0 01-.284.701l-1.654 1.695-4.249-4.305 1.64-1.658.01-.01a1 1 0 011.414.01l2.834 2.868a1 1 0 01.288.699zm-5.357 6.779V8.859h1.19l.004 1.788h1.785v1.189h-1.789v1.784h-1.19v-1.787H8.859v-1.189h1.785zM8.596 7.282a4.758 4.758 0 012.643-.802l-.001.001a4.76 4.76 0 014.76 4.757v.002a4.758 4.758 0 11-7.402-3.958zm.529 7.12a3.806 3.806 0 104.232-6.328 3.806 3.806 0 00-4.232 6.328z" fill-rule="evenodd"/>
</svg>