<svg id="icon-shield" viewBox="0 0 16 16" xmlns="http://www.w3.org/2000/svg">
  <path d="M15 8.67v-8c-.0018891-.17713-.0766116-.346491-.2081108-.471747C14.660495.0729963 14.482714.0018222 14.2968521 0H1.7031479c-.18649162 0-.36534306.0705891-.49720952.196238C1.0740824.321888 1 .492305 1 .67v8c0 4.38 6.44377328 7.15 6.71663664 7.27.08871208.0395.18544214.0599.28336336.0599.09791072 0 .19463029-.0204.28335286-.0599C8.55621622 15.82 15 13.05 15 8.67zm-1.5742117.66c0 1.51-1.931033 2.87-3.0959497 3.75-.73244924.5361-1.51193591 1.0112-2.32984385 1.42v-13h5.42579355v7.83z" fill-rule="nonzero"/>
</svg>