<svg id="icon-logo-linkedin" viewBox="0 0 16 16" xmlns="http://www.w3.org/2000/svg">
  <path d="M2.2857 0h11.4286C14.9767 0 16 1.0233 16 2.2857v11.4286C16 14.9767 14.9767 16 13.7143 16H2.2857C1.0233 16 0 14.9767 0 13.7143V2.2857C0 1.0233 1.0233 0 2.2857 0zM14 14V8.9349c0-2.1431-1.2148-3.1793-2.9117-3.1793-1.6977 0-2.4121 1.322-2.4121 1.322V6H6.3v8h2.3762V9.8005c0-1.1252.518-1.7948 1.5093-1.7948.9114 0 1.3489.6434 1.3489 1.7948V14H14zM3.4652 4.9525c.8094 0 1.4649-.661 1.4649-1.4763C4.93 2.661 4.2746 2 3.4652 2 2.656 2 2 2.661 2 3.4762c0 .8153.6559 1.4763 1.4652 1.4763zM2.2382 14H4.716V6H2.2383v8z" fill-rule="evenodd"/>
</svg>