<svg id="icon-comment-dots-outline" viewBox="0 0 16 16" xmlns="http://www.w3.org/2000/svg">
  <path d="M0 6.227C0 2.751 3.608 0 8 0c4.392 0 8 2.751 8 6.227 0 3.478-3.61 6.238-8 6.238-.357 0-.715.006-1.072.019L3.691 16l-.223-4.637C1.326 10.221 0 8.33 0 6.227zm4.535 7.426l1.964-2.133.19-.01.097-.005c.405-.016.81-.024 1.214-.024 3.913 0 7.044-2.394 7.044-5.253C15.044 3.37 11.915.984 8 .984 4.085.984.956 3.37.956 6.228c0 1.77 1.197 3.406 3.18 4.38l.258.126.14 2.92zM8 7.333a1 1 0 1 1 0-2 1 1 0 0 1 0 2zm3.333 0a1 1 0 1 1 0-2 1 1 0 0 1 0 2zm-6.666 0a1 1 0 1 1 0-2 1 1 0 0 1 0 2z" fill-rule="nonzero"/>
</svg>