<svg id="icon-logo-slack" viewBox="0 0 16 16" xmlns="http://www.w3.org/2000/svg">
  <path d="M3.362 10.11c0 .926-.756 1.682-1.681 1.682S0 11.036 0 10.11.756 8.43 1.68 8.43h1.682v1.68zm.846 0c0-.924.756-1.68 1.681-1.68s1.681.756 1.681 1.68v4.21c0 .924-.756 1.68-1.68 1.68-.926 0-1.682-.756-1.682-1.68v-4.21zM5.89 3.363c-.925 0-1.68-.756-1.68-1.681S4.963 0 5.888 0C6.814 0 7.57.756 7.57 1.68v1.682H5.89zm0 .846c.925 0 1.681.756 1.681 1.681S6.814 7.57 5.89 7.57H1.68C.757 7.57 0 6.814 0 5.89c0-.926.756-1.682 1.68-1.682h4.21zm6.75 1.681c0-.925.755-1.68 1.68-1.68.925 0 1.681.755 1.681 1.68 0 .925-.756 1.681-1.68 1.681h-1.682V5.89zm-.847 0c0 .925-.756 1.681-1.681 1.681S8.43 6.814 8.43 5.89V1.68C8.43.757 9.186 0 10.11 0c.926 0 1.682.756 1.682 1.68v4.21zm-1.681 6.75c.925 0 1.68.755 1.68 1.68 0 .925-.755 1.681-1.68 1.681-.925 0-1.681-.756-1.681-1.68v-1.682h1.68zm0-.847c-.925 0-1.681-.756-1.681-1.681s.756-1.681 1.68-1.681h4.21c.924 0 1.68.756 1.68 1.68 0 .926-.756 1.682-1.68 1.682h-4.21z" fill-rule="evenodd"/>
</svg>
