<svg id="icon-table-column" viewBox="0 0 16 16" xmlns="http://www.w3.org/2000/svg"><path fill-rule="evenodd" d="M2.444 15.078a1.516 1.516 0 0 1-1.516-1.517V2.439A1.519 1.519 0 0 1 2.443.922h11.115a1.516 1.516 0 0 1 1.514 1.517v11.139a1.5 1.5 0 0 1-1.5 1.5H2.444Zm4.091-4.576h6.674v2.496H6.535v-2.496Zm-1.24 2.496h-.363v.004H2.798v-2.5h2.498l-.001 2.496Zm7.914-6.235-6.668-.012v2.5h6.668V6.763Zm0-1.261H6.543v-2.5h6.67v1.92h-.004v.58Zm-7.914 3.75.001-2.5H2.798v2.5h2.497Zm.001-6.254-.001 2.5H2.798v-2.5h2.498Z"/></svg>