<svg id="icon-logo-youtube" viewBox="0 0 16 16" xmlns="http://www.w3.org/2000/svg">
  <path d="M2.2857 0h11.4286C14.9767 0 16 1.0233 16 2.2857v11.4286C16 14.9767 14.9767 16 13.7143 16H2.2857C1.0233 16 0 14.9767 0 13.7143V2.2857C0 1.0233 1.0233 0 2.2857 0zm4.6818 9.2909l-.0003-2.7964 2.7019 1.403L6.9675 9.291zM12.9 6.0099s-.0978-.6857-.3975-.9877c-.3803-.3966-.8066-.3984-1.0019-.4214C10.1012 4.5 8.0022 4.5 8.0022 4.5h-.0044s-2.099 0-3.4984.1008c-.1956.023-.6216.0248-1.0022.4214-.2997.302-.3972.9878-.3972.9878S3 6.8155 3 7.6207v.7552c0 .8055.1 1.6107.1 1.6107s.0975.6858.3972.9878c.3806.3965.8803.384 1.1028.4255.8.0765 3.4.1001 3.4.1001s2.1013-.0031 3.5006-.1039c.1953-.0233.6216-.0252 1.0019-.4217.2997-.302.3975-.9878.3975-.9878s.1-.8052.1-1.6107v-.7552c0-.8052-.1-1.6107-.1-1.6107z" fill-rule="evenodd"/>
</svg>