<svg id="icon-user-remove" viewBox="0 0 16 16" xmlns="http://www.w3.org/2000/svg">
  <path d="M7.989 9.113c2.002 0 3.625-1.816 3.625-4.057 0-2.24-1.623-4.057-3.625-4.057S4.364 2.815 4.364 5.056c0 2.24 1.623 4.057 3.625 4.057Zm2.048 1.473h-.002.002Zm-.002 0a3.72 3.72 0 0 0 .528 4.412H0a5.94 5.94 0 0 1 4.442-5.745A4.463 4.463 0 0 0 8 11.118a4.192 4.192 0 0 0 2.036-.531ZM16 11.15l-1.489 1.489L16 14.131l-.871.87-1.489-1.489-1.489 1.489-.871-.87 1.488-1.492-1.489-1.489.871-.871 1.489 1.489 1.489-1.489.871.871Z" fill-rule="evenodd"/>
</svg>