<svg id="icon-logo-vsphere" viewBox="0 0 16 16" xmlns="http://www.w3.org/2000/svg">
  <path d="M12.4732 4.239c-.0771-.5222-.2936-.7284-.8289-.7334-1.0512-.01-2.1025-.0048-3.1538.0021-.2624.0017-.5378.0487-.6714.2965-.0964.1785-.1533.3988-.1563.6014-.0149.9963-.005 1.993-.006 2.9894-.0003.2638-.059.3177-.3296.3203-.1075.001-.215.0005-.3226.0004-.8661-.0011-1.7323-.0057-2.5983-.0022-.5519.0022-.82.223-.8942.7201-.0095.0639-.0101.1293-.0101.1941-.0011.9847-.0029 1.9693-.0015 2.954.0009.6236.2891.9098.9224.9147.5077.004 1.0154.0008 1.5231.001.5197.0003 1.0396.0067 1.5591-.0017.4641-.0074.7955-.2273.8217-.7238.006-.1117.0187-.2234.019-.335.0014-.8963.0012-1.7925.0007-2.6888-.0001-.4627-.0008-.4616.4658-.4614.9259.0004 1.8517.0023 2.7776-.002.571-.0026.8046-.2064.886-.759a2.0918 2.0918 0 0 0 .0228-.2991c.0017-.8903.0018-1.7807-.0002-2.671a2.1929 2.1929 0 0 0-.0253-.3167m3.4317-2.8114c-.1337-.743-.597-1.2032-1.3449-1.337C14.347.0523 14.1308.0298 13.9161 0H6.1457c-.1506.0223-.3013.044-.4518.0668-.9627.1455-1.447.6127-1.5507 1.5757-.059.5486-.0411 1.1054-.0554 1.6586-.0044.1749-.0006.3499-.0006.5249-.0002.3306-.0087.339-.3507.3393-.4176.0004-.8361-.015-1.2528.0056-.3804.0187-.7632.0526-1.137.1218C.6622 4.4193.2265 4.88.106 5.56c-.0396.2233-.071.448-.1061.672v7.6674c.0315.2244.0554.4501.096.673.1376.7551.597 1.2054 1.3618 1.3379.2076.036.4174.0601.626.0898H9.819c.215-.0292.4313-.0505.6446-.089.7045-.1271 1.172-.5177 1.3328-1.2235.0541-.2375.096-.482.105-.7247.0227-.5995.0244-1.2.0316-1.8.0038-.3246.0011-.321.3362-.3258.5993-.0083 1.1988-.0118 1.7974-.037.2387-.01.4808-.0517.7114-.1143.6393-.1733.992-.616 1.1195-1.2448.0474-.2333.0691-.4718.1025-.7079V2.1007c-.0313-.2245-.0551-.4503-.0951-.6732zm-1.908 7.1695a1.4397 1.4397 0 0 1-.0184.227c-.1041.6447-.4406.949-1.1043.9637-.8952.02-1.7908.0221-2.6861.0309-.2953.003-.3146.0156-.3119.3086.0052.5555.0236 1.111.0232 1.6665-.0004.3916-.0041.7848-.0398 1.1743-.06.6542-.408.9699-1.0785.9994-.444.0196-.8889.029-1.3333.0303a641.7565 641.7565 0 0 1-3.7551-.001 6.3187 6.3187 0 0 1-.6745-.037c-.661-.0733-.9906-.425-1.003-1.1177-.0168-.9183-.0042-1.8372-.0042-2.7558h-.0105c0-.7958-.0017-1.5917.0012-2.3875.0008-.181.003-.3641.03-.5425.094-.62.4236-.9248 1.0619-.9398.8116-.0192 1.6238-.0078 2.4358-.0104.704-.0023.5633.0166.5711-.5628.009-.6787-.0044-1.3577.0058-2.0363.004-.268.03-.5378.0736-.8025.0636-.3867.3512-.668.7438-.729.2686-.0417.5422-.0704.8136-.0715 1.5482-.0063 3.0966-.004 4.6449-.0003.213.0005.4272.0148.6385.0407.6184.0755.9197.408.9716 1.0583.0056.07.0077.1404.0077.2105a6836.656 6836.656 0 0 1-.003 5.284z" fill-rule="evenodd"/>
</svg>