<svg id="icon-handshake" viewBox="0 0 16 16" xmlns="http://www.w3.org/2000/svg">
  <path d="M15.738 2.94699h-6.69l-.007-.003c-.9228-.50498-1.99063-.67895-3.026-.493-1.006.144-2.405.496-2.405.496l-3.35.001c-.06914.00053-.135268.02837-.1839704.07745C.0273268 3.07451 0 3.14085 0 3.20999V9.02c0 .06931.0274657.1358.0763841.1849.0489189.04911.1153029.07683.1846159.07709L2.14 9.284l-.12.14999c-.02064.0257-.04.0524-.058.08-.10544.20542-.15705.43422-.15.66501.03047.2566.16135.4907.364.651.17995.144.40453.2208.635.217.022 0 .044-.002.067-.004.03362.2395.15361.4586.33741.6158.18379.1573.41872.242.66059.2382.02236-.0002.04471-.0012.067-.003.03401.2392.15397.4578.33747.615.18349.1572.41795.2421.65953.239l.068-.003c.0338.2393.15371.458.33725.6152.18354.1573.41811.2421.65975.2388928.032 0 .064-.0030928.097-.0060928.12984-.0142.25556-.0541.36989-.1172.11432-.0632.21497-.1484.29611-.2508l.25-.312c.03013-.0404.05689-.0832.08-.128.527.313.758.24 1.004.136.322-.137.36-.367.42-.658.1554.0829.32886.1262.505.126h.016c.21572-.003.42556-.0708.60228-.1945.17671-.1238.31215-.2978.38872-.4995l.112.109c.1313.128.2932.2203.4702.2682.177.0478.3633.0497.5413.0053.1779-.0444.3415-.1335.4753-.2589.1338-.1254.2334-.2829.2892-.4576.2044.1009.4355.1346.6603.0961.2247-.0384.4315-.147.5907-.3101.0986-.1013.1763-.221.2286-.3523.0523-.1314.0782-.2717.0762-.4131-.0019-.1413-.0317-.2809-.0876-.4107-.0559-.12983-.1368-.24737-.2382-.34591l-.226-.22.675-.12599h2.137c.069 0 .1352-.02719.1842-.07568.0491-.04849.077-.11436.0778-.18332V3.20999c0-.06948-.0276-.13612-.0767-.18526-.0492-.04913-.1158-.07674-.1853-.07674v-.001zm-12.403 7.026l-.25.31201c-.06152.0749-.15005.1226-.24645.1328-.0964.0101-.19293-.018-.26873-.0785-.0758-.0604-.12477-.1482-.13634-.2445-.01157-.09621.0152-.19314.07452-.26981l.25-.312c.03004-.03805.06735-.06976.10975-.09328.0424-.02352.08906-.03838.13725-.04371.01196-.00124.02398-.00191.036-.00201.06991-.00103.13868.01781.1983.05435.05962.03654.10763.08926.13843.15203.03081.06277.04315.133.03559.20251-.00757.06951-.03473.13544-.07832.19011zm1.064.85001l-.25.313c-.02925.0405-.06643.0746-.10927.1003-.04283.0257-.09044.0425-.13994.0492-.0495.0068-.09986.0034-.14801-.0099-.04816-.0133-.09312-.0362-.13216-.0674-.03903-.0311-.07133-.0699-.09494-.1139-.0236-.0441-.03802-.0924-.04238-.1422-.00436-.0498.00143-.0999.01702-.1474.01559-.0474.04066-.0912.07368-.1287l.25-.313c.03013-.0379.06748-.0694.10988-.0927.0424-.0234.089-.0381.13712-.0433.01194-.0016.02396-.0026.036-.003.07001-.001.13885.0179.1985.0546.05965.0366.10763.0895.13836.1524.03072.063.04291.1333.03514.2029-.00776.0696-.03516.1355-.079.1901v-.001zm1.065.85l-.25.313c-.02925.0405-.06643.0746-.10927.1003-.04283.0257-.09044.0425-.13994.0492-.0495.0068-.09986.0034-.14801-.0099-.04816-.0133-.09312-.0362-.13216-.0674-.03903-.0311-.07133-.0699-.09494-.1139-.0236-.0441-.03802-.0924-.04238-.1422-.00436-.0498.00143-.0999.01702-.1474.01559-.0474.04066-.0912.07368-.1287l.25-.313c.06265-.0711.15027-.1154.24469-.1237.09442-.0083.1884.0201.26247.0793.07406.0591.12252.1445.13534.2384.01282.0939-.01099.1892-.0665.266zm1.065.851l-.25.313c-.06202.0736-.15035.1201-.24614.1295-.09579.0094-.19147-.019-.26661-.0792-.07515-.0601-.12382-.1473-.13564-.2428-.01181-.0955.01416-.1919.07239-.2685l.25-.312c.03004-.0381.06735-.0698.10975-.0933.0424-.0235.08906-.0384.13725-.0437.01196-.0012.02398-.0019.036-.002.07001-.001.13885.0179.1985.0546.05965.0367.10763.0895.13836.1524.03072.0629.04291.1333.03514.2029-.00776.0696-.03516.1355-.079.1901v-.001zm6.178-1.83c-.0787.0811-.1864.1278-.2994.1297-.1131.0018-.2222-.0412-.3036-.1197l-1.079-1.04801-.003-.003-1.063-1.031c-.03041-.03063-.06662-.05491-.10652-.0714-.03989-.01649-.08267-.02486-.12584-.02464-.04317.00022-.08586.00905-.12558.02595-.03972.01691-.07567.04156-.10576.07251-.03009.03095-.05371.06759-.06949.10777-.01577.04019-.02338.08311-.02239.12627.001.04315.01058.08568.02819.12509.01762.03941.0429.07492.07439.10446l1.688 1.639c.0401.039.0722.0855.0943.1369.0221.0514.0339.1066.0347.1626.0008.0559-.0094.1115-.0301.1635-.0207.052-.0514.0994-.0904.1395-.039.0401-.0855.0722-.1369.0943-.0514.0221-.1066.0339-.1626.0347-.0559.0008-.1115-.0094-.1635-.0301-.052-.0207-.0994-.0514-.1395-.0904L8.912 9.69999l-.01-.01-.812-.787c-.03041-.03063-.06662-.05491-.10652-.0714-.03989-.01649-.08267-.02486-.12584-.02464-.04317.00022-.08586.00905-.12558.02595-.03972.01691-.07567.04156-.10576.07251-.03009.03095-.05371.06759-.06949.10777-.01577.04019-.02339.08311-.02239.12627.001.04315.01058.08568.02819.12509.01762.03941.0429.07492.07439.10446l1.688 1.64c.08102.0789.12738.1868.12889.2998.0015.1131-.04199.2222-.12089.3032-.0789.081-.18676.1274-.29984.1289-.11309.0015-.22214-.042-.30316-.1209l-.473-.46c-.01-.01-1.217-1.18701-1.228-1.19601l-.006-.005c-.0648-.05965-.14992-.09235-.23799-.09142-.08808.00093-.17248.03542-.23601.09642-.224.22401.034.48501.034.48501l1.32 1.22c.04368.038.07887.0848.10329.1373.02442.0525.03753.1096.03848.1675.00094.0579-.0103.1153-.033.1686-.02271.0533-.05636.1012-.09877.1406-.233.244-.594-.013-.64-.048-.01125-.1312-.04915-.2588-.1114-.3748-.06224-.1161-.14752-.2182-.2506-.3002-.01009-.0094-.02078-.018-.032-.026l-.018-.015c-.19809-.1583-.44936-.2345-.702-.213-.03515-.2508-.165-.4786-.36287-.6367-.19787-.1581-.44875-.2344-.70113-.2133-.03515-.2512-.16506-.47934-.36309-.63777-.19803-.15842-.44917-.23507-.70191-.21424-.03613-.25592-.17062-.48768-.3749-.64602-.20428-.15835-.46225-.2308-.7191-.20198-.05715.01261-.11304.03035-.167.053-.11864-.05643-.23976-.10748-.363-.153v-4.863h1.232c.02114.00003.04224-.00198.063-.006.72858-.22538 1.46988-.40737 2.22-.54499.59364-.08372 1.19599-.08506 1.79-.00401-.3409.15345-.65149.36683-.917.63001L4.332 6.301c-.19761.19647-.31731.45791-.33692.73587-.01961.27797.06221.55363.23028.77589.16807.22227.41101.37608.68381.43294.2728.05686.55696.01291.79983-.12371l2.58-1.456h.891l3.518 3.42501c.0402.039.0724.0855.0946.1369.0223.0514.0341.1067.0350437.1627.0007563.056-.0094437.1117-.0301437.1637-.0207.0521-.0514.0995-.0905.1397zm.887-2.03601l-1.196.22501-2.286-2.21601h.228c.0862 0 .1689-.03424.2298-.09519.061-.06094.0952-.14361.0952-.2298 0-.0862-.0342-.16887-.0952-.22981-.0609-.06095-.1436-.09519-.2298-.09519H8.204l-.16.042-2.655 1.49799c-.10577.05908-.22933.07792-.34789.05304-.11857-.02488-.22414-.0918-.29723-.18841-.0731-.09661-.10879-.21639-.1005-.33726.00829-.12086.06001-.23464.14562-.32037l2.462-2.434c.46329-.45805 1.0885-.71499 1.74-.71499h4.234c.0979 0 .1917.03887.2609.10807.0692.0692.1081.16306.1081.26092v4.674z" fill-rule="nonzero"/>
</svg>