<svg id="icon-triangle-wrench" viewBox="0 0 16 16" xmlns="http://www.w3.org/2000/svg">
  <path d="M3.647 12.216a.429.429 0 11.486.707.429.429 0 01-.486-.707zM9.64 1.015l6.164 12.33A1.834 1.834 0 0114.164 16H1.836a1.834 1.834 0 01-1.64-2.656L6.36 1.015a1.834 1.834 0 013.28 0zM3.583 14.26c.14 0 .275-.055.376-.153l3.387-3.33a3.266 3.266 0 01-1.64-1.613l-3.388 3.33a.517.517 0 000 .738l.889.875c.1.098.235.153.376.153zm5.95-3.973c.366-.126.7-.332.976-.602a2.533 2.533 0 00.686-2.439.22.22 0 00-.364-.096L9.482 8.475l-1.23-.201-.205-1.21 1.348-1.325a.212.212 0 00-.097-.358 2.64 2.64 0 00-2.481.675 2.525 2.525 0 00-.703 2.3c.11.497.36.951.724 1.307.423.414.97.678 1.557.75.384.043.773 0 1.139-.126z" fill-rule="nonzero"/>
</svg>