<svg id="icon-compose-cancel" viewBox="0 0 16 16" xmlns="http://www.w3.org/2000/svg">
  <path d="M2.467 13.953a.66.66 0 00.254.047H9.32l1.998 2H2.631a2.594 2.594 0 01-2.42-1.575A2.602 2.602 0 010 13.433v-8.76l2.052 2.053v6.621a.662.662 0 00.415.606zM10.23 8.66l1.958 1.96-.006-1.341 2.053-2v6.153a2.508 2.508 0 01-.63 1.65L.176 1.645A2.629 2.629 0 012.627 0h8.594L9.17 2H3.574l4.062 4.066 2.945-2.894 2.616 2.571-2.968 2.917zm-6.05.803l.308-.3 2.591 2.592-.283.28-3.375.758.76-3.33zM15.71 1.955a.067.067 0 01.042.025.915.915 0 01-.042 1.291l-1.756 1.726-2.616-2.57L13.095.7a.958.958 0 011.338 0l1.277 1.255z" fill-rule="nonzero"/>
</svg>