<svg id="icon-circle-play-outline" viewBox="0 0 16 16" xmlns="http://www.w3.org/2000/svg">
  <path d="M8 16c-4.4112 0-8-3.5888-8-8s3.5888-8 8-8 8 3.5888 8 8-3.5888 8-8 8zM8 1.6C4.4712 1.6 1.6 4.471 1.6 8c0 3.529 2.8712 6.4 6.4 6.4 3.529 0 6.4-2.871 6.4-6.4 0-3.529-2.871-6.4-6.4-6.4zM6 5.1845c0-.378.248-.6845.5542-.6845.095 0 .1553.0307.2613.0828l3.8877 2.793c.1808.1323.2645.3448.2968.59v.0686c-.0323.245-.116.4576-.2968.59l-3.8876 2.793c-.106.052-.1664.0826-.2614.0826-.306 0-.5542-.3065-.5542-.6845v-5.631" fill-rule="evenodd"/>
</svg>