<svg id="icon-circle-user" viewBox="0 0 16 16" xmlns="http://www.w3.org/2000/svg">
  <path d="M8 0C6.4177536 0 4.8710336.469192 3.5554436 1.34824c-1.3156.87905-2.34098 2.12848-2.946477 3.59029-.60550057 1.46181-.763927 3.07034-.455245 4.62219.308681 1.55188 1.070612 2.97728 2.189432 4.09618 1.11882 1.1188 2.54428 1.8807 4.09613 2.1894 1.55185.3087 3.16038.1502 4.62222-.4553 1.4618-.6055 2.7112-1.6308 3.5903-2.9464C15.5308036 11.129 16 9.58225 16 8c0-2.12173-.8428964-4.15656-2.3430964-5.65685C12.1566036.842855 10.1217036 0 8 0zm-.0099964 2.256c.84182.0498 1.62972.43069 2.1916 1.05949.5619.6288.8522 1.45441.8074 2.29651.0448.8421-.2455 1.66771-.8074 2.29651-.56188.6288-1.34978 1.00969-2.1916 1.05949-.84182-.0498-1.62972-.43069-2.19163-1.05949-.56191-.6288-.85217-1.45441-.80737-2.29651-.0448-.8421.24546-1.66771.80737-2.29651s1.34981-1.00969 2.19163-1.05949zm.01 11.43c-1.08743.0001-2.15426-.2967-3.08543-.8583-.93117-.5616-1.69136-1.3668-2.19857-2.3287.6306-.68362 1.44245-1.17399 2.341-1.414.33561.46967.77669.85411 1.2878 1.1224.51111.2683 1.07802.4131 1.6552.4226.57703-.0092 1.14385-.1536 1.65496-.4216.51114-.26795.95224-.65204 1.28804-1.1214.898.24 1.7095.72999 2.34 1.413-.5073.9616-1.2674 1.7664-2.1983 2.3279-.931.5614-1.99754.8581-3.0847.8581z" fill-rule="nonzero"/>
</svg>