<svg id="icon-comments-outline" viewBox="0 0 16 16" xmlns="http://www.w3.org/2000/svg">
  <path d="M13.116 5.392C14.822 6.102 16 7.53 16 9.2c0 1.44-.874 2.736-2.285 3.523L13.56 16l-2.237-2.496a16.777 16.777 0 0 0-.67-.014c-1.83 0-3.46-.737-4.428-1.873-.151.002-.302.006-.453.012l-2.76 3.087-.191-4.051C1.08 9.68 0 8.079 0 6.307 0 3.339 2.986 1 6.611 1c3.242 0 5.967 1.871 6.505 4.392zm.096.943c-.017 2.75-2.602 4.956-5.873 5.247.83.664 2.004 1.085 3.313 1.085a17.087 17.087 0 0 1 .87.022l.154.01 1.196 1.335.087-1.837.21-.105c1.282-.646 2.051-1.728 2.051-2.892 0-1.173-.793-2.234-2.008-2.865zm-9.351 5.95l1.476-1.651.192-.011a23.817 23.817 0 0 1 1.074-.025c3.142 0 5.646-1.963 5.646-4.291 0-2.331-2.495-4.29-5.638-4.29-3.145 0-5.648 1.96-5.648 4.29 0 1.431.952 2.77 2.535 3.582l.256.131.107 2.265z" fill-rule="nonzero"/>
</svg>