<svg id="icon-logo-dimensiondata" viewBox="0 0 16 16" xmlns="http://www.w3.org/2000/svg">
  <path d="M8.7293 1.4031l3.491 6.0114c-1.2335.7101-2.6637 1.1184-4.1925 1.1184-1.5293 0-2.9621-.4088-4.1965-1.121l3.4921-6.0123A.8157.8157 0 0 1 8.026 1a.8138.8138 0 0 1 .7034.4031zM15.1883 15l-6.9821-.0028c-.0005-1.4173.3598-2.8532 1.1253-4.1691.7646-1.3176 1.8373-2.345 3.0747-3.0527l3.4883 6.0135c.1362.2424.1465.5484-.0042.807a.8122.8122 0 0 1-.702.4041zm-14.376-.0026c-.2831-.0033-.554-.1664-.704-.4256a.8077.8077 0 0 1-.002-.8044L3.6135 7.763c1.2356.7108 2.3061 1.7414 3.0662 3.062a8.2504 8.2504 0 0 1 1.1121 4.1734l-6.9795-.001z" fill-rule="evenodd"/>
</svg>