<svg id="icon-circle-question-outline" viewBox="0 0 16 16" xmlns="http://www.w3.org/2000/svg">
  <path d="M7.56781032 11.1413062c.13748-.0561.28487-.0837.43331-.0813.29251-.0007.57401.1114.786.313.10781.0948.19377.2118.25195.343.05819.1312.0872.2735.08505.417.00147.145-.02709.2887-.08388.422-.0568.1334-.1406.2536-.24612.353-.15861.1553-.35923.2608-.57709.3035-.21786.0426-.44344.0205-.64891-.0635-.13235-.0536-.25421-.1301-.36-.226-.10429-.095-.18801-.2104-.246-.339-.06199-.132-.09344-.2762-.092-.422-.00135-.145.02737-.2888.08433-.4222.05697-.1334.14096-.2535.24667-.3528.10448-.1055.22921-.1887.36669-.2447zm1.76431-8.05131c.34567.11324.66621.29218.94397998.527.2699.23701.4825.53206.622.863.1554.37259.2317.77339.224 1.177.006.27752-.0363.55396-.125.817-.0825.23081-.197.44893-.34.648-.1442.20261-.3066.39172-.485.565l-.58497998.563c-.132.122-.24467.22967-.338.323-.08842.08752-.16659.18481-.233.29-.06324.10439-.10854.21864-.134.338-.03005.15077-.04413.30429-.042.458v.53601h-1.691v-.77601c-.00253-.17665.00917-.35322.035-.528.01979-.13933.06236-.27447.126-.4.06523-.12245.14589-.23604.24-.338l.36-.388 1.085-1.1c.11813-.12074.2103-.26439.27083-.42209.06054-.15771.08816-.32613.08117-.49491.00616-.16576-.02251-.33098-.08418-.48497-.06167-.15399-.15495-.29333-.27382-.40903-.12124-.11496-.26412-.20467-.42035-.2639-.15623-.05923-.32267-.0868-.48965-.0811-.18125-.00593-.3617.02665-.52942.0956-.16773.06895-.31892.17271-.44358.3044-.25301.26688-.40689.61242-.436.979l-1.8-.141c.04762-.41723.16669-.82315.352-1.2.17124-.34178.40926-.64577.7-.894.29222-.24761.62935-.43671.993-.557.40015-.13073.81905-.19492 1.24-.19.39978-.00375.79744.05841 1.177.184zm-5.76826-1.74736c1.31667-.877366 2.86393-1.34460002 4.44614-1.3426362 1.05066.00132477 2.09079998.2095842 3.06089998.6128972.9702.403309 1.8514.993779 2.5934 1.737679.7419.74391 1.3301 1.62668 1.7308 2.5979.4008.97122.6063 2.01188.6048997 3.06254-.0021997 1.5822-.4734997 3.12819-1.3542997 4.44259s-2.1316 2.338-3.5942 2.9415c-1.46254998.6036-3.07123998.7598-4.62263998.4491-1.55139-.3107-2.97581-1.0745-4.09313-2.1948-1.11732-1.1202-1.877365-2.5466-2.184026-4.09885-.306661-1.55221-.14616583-3.16049.46119-4.62148.607356-1.46099 1.634296-2.70908 2.950966-3.58644zm6.91213998 12.63237c.7857-.3233 1.4994-.7991 2.1-1.4v.001c.603-.6011 1.0791-1.3173 1.4-2.106.4885-1.1821.6162-2.48233.3671-3.73689-.2492-1.25456-.864-2.40734-1.7671-3.3131-.6001-.60144-1.314-1.07736-2.1-1.4-.88418998-.36889-1.83923998-.53688-2.79622998-.49184-.957.04504-1.89205.30198-2.73769.75227-.84563.4503-1.58074 1.08272-2.15228 1.85162-.57154.7689-.96524 1.6551-1.15269 2.59463-.18746.93953-.16398 1.90897.06872 2.83833.2327.92938.66883 1.79548 1.27691 2.53578.60808.7404 1.37294 1.3365 2.23938 1.7453.86643.4089 1.81283.6202 2.77088.6189119.85153-.0015119 1.69471-.1679119 2.48299998-.4900119z" fill-rule="nonzero"/>
</svg>