<svg id="icon-logout" viewBox="0 0 16 16" xmlns="http://www.w3.org/2000/svg">
  <path d="M14.009 2.5e-7c.5276-.00026514 1.0337.209003 1.4071.581797.3733.372794.5834.878593.5839 1.406203v2.012h-2.041v-2.01l-12.008.01V14.0100003l12.008-.01v-2H16v2.01c0 .5276-.2095 1.0336-.5825 1.4068s-.8789.5829-1.4065.5832H1.991c-.52761.0003-1.033726-.209-1.407082-.5818s-.5833878-.8786-.583918-1.4062V1.99000025c0-.52761.209523-1.03362.582504-1.406789C.955485.21004325 1.46139.00026563 1.989 2.5e-7h12.02zm-.512 10.19700005l-2.502 2.197V9.01501025H5.98901v-1.994H10.995v-3.416l2.502 2.198 2.503 2.197-2.503 2.19699005z" fill-rule="nonzero"/>
</svg>