<svg id="icon-circle-x" viewBox="0 0 16 16" xmlns="http://www.w3.org/2000/svg">
  <path d="M8 16c-4.4112 0-8-3.5888-8-8s3.5888-8 8-8 8 3.5888 8 8-3.5888 8-8 8zm1.9193-4.6797c.09.09.209.1398.3364.1398a.4727.4727 0 0 0 .336-.1398l.7322-.7328a.47.47 0 0 0 .1398-.336.4725.4725 0 0 0-.1392-.3364L9.3873 7.978l1.9372-1.9377a.4725.4725 0 0 0 .1392-.3364.4725.4725 0 0 0-.1392-.336l-.7329-.7333c-.18-.18-.4923-.179-.6723 0L7.9816 6.5723 6.044 4.6346c-.18-.18-.4918-.179-.6723 0l-.7323.7334a.4703.4703 0 0 0-.1393.3359.472.472 0 0 0 .1387.3364L6.5764 7.978 4.6388 9.915a.472.472 0 0 0-.1388.3365c0 .1275.0493.2464.1387.3359l.733.7328c.1804.1795.4922.18.6722 0l1.9377-1.9371 1.9377 1.9371z" fill-rule="evenodd"/>
</svg>