<svg id="icon-filter" viewBox="0 0 16 16" xmlns="http://www.w3.org/2000/svg">
	<path d="M.763 3.051h5.07a2.275 2.275 0 004.295 0h5.109a.763.763 0 000-1.526h-5.109a2.275 2.275 0 00-4.295 0H.763a.763.763 0 000 1.526zm7.218-1.527a.763.763 0 11-.763.763.763.763 0 01.763-.763zM15.237 7.237H5.95a2.274 2.274 0 00-4.294 0H.763a.763.763 0 000 1.527h.894a2.274 2.274 0 004.294 0h9.286a.763.763 0 000-1.527zM3.804 8.763A.763.763 0 114.567 8a.763.763 0 01-.763.763zM15.237 12.95h-.91a2.275 2.275 0 00-4.294 0H.763a.763.763 0 000 1.527h9.27a2.275 2.275 0 004.294 0h.91a.763.763 0 100-1.527zm-3.057 1.526a.763.763 0 11.763-.763.763.763 0 01-.763.763z" fill-rule="nonzero"/>
</svg>