<svg id="icon-circle-user" viewBox="0 0 16 16" xmlns="http://www.w3.org/2000/svg">
  <path d="M8 0c4.418278 0 8 3.581722 8 8s-3.581722 8-8 8-8-3.581722-8-8 3.581722-8 8-8zM6.76705348 2.46413298C6.01355328 2.79718883 5.50877406 3.56242545 5.538 4.424v1.328c.00597334.07603889-.01490446.15176514-.059.214-.24189689.40094436-.16139997.91764185.191 1.226.078.074.07.166.1.266.13015062.45220809.35400026.87196876.657 1.232.11818741.15182846.18066985.3396288.177.532.02702139.24585733-.08718307.48588027-.295.62a1.02799915 1.02799915 0 00-.1.081 10.08399832 10.08399832 0 01-1.712.923c-.465.209-.941.393-1.415.582C4.20084427 13.0394081 6.0382537 14.0003307 8 14.0000378c.0076683 0 .01527663-.0001549.026 0 1.9617463.0002929 3.7991557-.9606297 4.918-2.5720378-.474-.189-.95-.373-1.415-.582a10.08399908 10.08399908 0 01-1.712-.923 1.02799915 1.02799915 0 00-.1-.081c-.20781693-.13411973-.32202139-.37414267-.295-.62-.00366985-.1923712.05881259-.38017154.177-.532.30299974-.36003124.5268494-.77979191.657-1.232.03-.1.022-.192.1-.266.3524-.30835815.4328969-.82505564.191-1.226-.0440955-.06223486-.0649733-.13796111-.059-.214V4.424c.0361194-1.06479191-.74338376-1.98244034-1.8-2.119-.44096911-.08741702-.89254259-.08192298-1.3325593-.00050195C7.3495186 2.30370777 7.34370373 2.3038693 7.338 2.305c-.18492761.0239005-.54215071.14533691-.55.148-.00711784.00243798-.01409991.00615825-.02094652.01113298z" fill-rule="nonzero"/>
</svg>