<svg id="icon-database" viewBox="0 0 16 16" xmlns="http://www.w3.org/2000/svg">
  <path d="M8.003 4.941c-3.865 0-6.997-1.106-6.997-2.47C1.006 1.106 4.138 0 8.003 0 11.867 0 15 1.106 15 2.47c0 1.365-3.133 2.471-6.997 2.471zM15 6.181c0 1.364-3.133 2.484-6.997 2.484S1 7.545 1 6.181V3.547c0 1.364 3.133 2.485 7 2.485s6.997-1.104 6.997-2.47L15 6.18zm0 3.65c0 1.363-3.133 2.484-6.997 2.484S1 11.194 1 9.83V7.194c0 1.366 3.133 2.47 7 2.47s6.997-1.104 6.997-2.47L15 9.83zm0 3.685C15 14.896 11.867 16 8.003 16S1 14.896 1 13.516v-2.631c0 1.363 3.133 2.484 7 2.484s6.997-1.104 6.997-2.484l.003 2.63z" fill-rule="nonzero"/>
</svg>