<svg id="icon-voip" viewBox="0 0 16 16" xmlns="http://www.w3.org/2000/svg">
  <path d="M11.0301.604002c.9776.405898 1.865 1.001718 2.6109 1.752998v-.001c.7492.74773 1.3433 1.63624 1.7482 2.61445.4048.9782.6124 2.02682.6108 3.08555.0085 1.05765-.1972 2.1061-.6048 3.082-.4067.9767-1.003 1.8632-1.7542 2.608-.7439.7534-1.6319 1.3492-2.6109 1.752-.3772.1512-.7655.2732-1.16147.365v-1.814c.25797-.2668.46917-.5751.62477-.912.1455-.2502.2757-.509.3898-.775H7.35871l-.00999-1.024V8.633H4.51394V7.59h2.84477V4.813H4.62489c-.14359.5229-.25048 1.05519-.31986 1.593-.19315-.38643-.50635-.69977-.89261-.893.01424-.07451.02734-.14934.04043-.22417.02733-.15617.05467-.31237.09251-.46583H.563644c.402979-.92082.975336-1.75767 1.687276-2.467.74394-.75337 1.63187-1.34921 2.61087-1.751998.97376-.399418 2.01625-.60426961 3.06868-.60300028L7.99844 0C9.0389-.00039545 10.0692.204868 11.0301.604002zM3.87422 3.78c.16213-.45092.36314-.8869.60074-1.303h-.001c.15708-.27582.33205-.54105.52377-.794-1.03048.47905-1.93124 1.19812-2.62686 2.097h1.50335zm1.10952.01h2.37497l.001-2.662c-.88042.33692-1.59499 1.00374-1.99214 1.859-.14625.25852-.2745.52682-.38383.803zm7.01396.001h1.5034c-.6899-.9025-1.59-1.62243-2.6219-2.097.1917.24856.3647.51094.5178.785.242.41697.4431.85634.6007 1.312zM9.64893 1.81526c-.36285-.32541-.79094-.5696-1.25566-.71626l-.001 2.69 2.50293-.008c-.1138-.27401-.2467-.53967-.3978-.795-.1964-.44619-.4856-.84533-.84847-1.17074zM11.245 4.824H8.39327V7.6h3.28163c-.0305-.93933-.1748-1.87148-.4299-2.776zM8.39327 8.622v2.707l2.86173-.001c.2443-.8827.3852-1.79077.4199-2.706H8.39327zm3.01373 5.032c-.1505.2706-.3209.5297-.5098.775v.001c1.0091-.4794 1.8953-1.1834 2.5909-2.058h-1.4914c-.1633.4419-.3605.8705-.5897 1.282zm.9076-2.315h1.8412l.001-.001c.4419-.8395.7105-1.75946.7896-2.705h-2.236c-.0377.9133-.1704 1.8202-.3958 2.706zm.011-6.515c.2314.90775.3609 1.83852.3858 2.775l2.237.001c-.0592-.97034-.325-1.91681-.7796-2.776h-1.8432zM6.139 12.785c.55382.2326 1.14073.3767 1.73925.427v.001c.13052.0122.25103.0752.33554.1755.08452.1003.12627.2297.11626.3605l-.14394 1.704c.00177.0721-.01106.1437-.03773.2107-.02666.067-.0666.1278-.11741.179-.0508.0511-.11143.0914-.17822.1184-.06679.027-.13836.0403-.2104.0389-1.09321-.059-2.16302-.3397-3.14445-.8251-.98143-.4854-1.85399-1.1653-2.56467-1.9984-.71068-.8332-1.24466-1.8021-1.569493-2.8481C.0389046 9.28246-.0700043 8.18136.0436263 7.092c.0030077-.0698.0213718-.13808.053783-.19998.0324117-.06189.0780717-.11586.1337257-.15808.055654-.04221.119931-.07162.188249-.08613.068318-.0145.138995-.01376.206991.00219l1.950155.144c.13071.01197.25147.07489.33619.17518.08473.10029.12661.22989.11662.36082-.05269.59818-.00848 1.20094.13094 1.785.02517.08973.02322.18491-.0056.27353-.02881.08863-.08321.16673-.15633.22447l-1.3924.747c.6185 1.5433 1.72555 2.8412 3.15164 3.695l.80965-1.114c.06326-.0873.15443-.1504.25842-.1787.10398-.0284.21454-.0204.31334.0227z" fill-rule="evenodd"/>
</svg>