<svg id="icon-circle-gear-outline" viewBox="0 0 16 16" xmlns="http://www.w3.org/2000/svg">
  <path d="M8 16c-4.4112 0-8-3.5888-8-8s3.5888-8 8-8 8 3.5888 8 8-3.5888 8-8 8zM8 1.6C4.4712 1.6 1.6 4.471 1.6 8c0 3.529 2.8712 6.4 6.4 6.4 3.529 0 6.4-2.871 6.4-6.4 0-3.529-2.871-6.4-6.4-6.4zm4.3561 5.9138a4.3957 4.3957 0 0 1 0 .8506c-.028.2032-.185.3699-.3882.3975-.2497.0275-.758.0922-.758.0922-.2219.0464-.3883.25-.3883.481 0 .1015.0277.1941.0834.268 0 .0092.3047.4066.4621.61.1292.1572.1197.3882-.0092.5453a3.6914 3.6914 0 0 1-.6012.601c-.083.074-.1752.1016-.2771.1016-.0923 0-.1942-.0276-.268-.0923l-.6006-.4622c-.0737-.0555-.1756-.0835-.2772-.0835-.2404 0-.4345.1758-.4809.4071l-.092.7394c-.0278.2034-.1941.3605-.3976.3882-.1385.0094-.2861.0186-.4248.0186-.1388 0-.2867-.0092-.4252-.0186-.2035-.028-.3698-.1848-.3975-.3882 0 0-.0922-.7303-.0922-.7394-.0371-.2313-.2404-.407-.4809-.407-.1105 0-.2124.0371-.2955.0926l-.5823.453c-.0738.0647-.1757.0923-.268.0923-.1017 0-.194-.0367-.2771-.1016a3.6955 3.6955 0 0 1-.601-.601c-.1295-.157-.1386-.388-.0092-.5453l.4436-.5824a.4772.4772 0 0 0 .1018-.2956.4815.4815 0 0 0-.4253-.481l-.7208-.0922c-.2033-.0276-.3603-.194-.3882-.3975a4.3762 4.3762 0 0 1 0-.8506c.0188-.2033.1848-.3697.3882-.3973l.7208-.0926c.2404-.0367.4253-.24.4253-.4898 0-.1015-.037-.2033-.1018-.2864 0 0-.2955-.3883-.4436-.5823a.4204.4204 0 0 1 .0091-.5454c.1758-.222.379-.4254.601-.601.157-.1295.3883-.1388.5452-.0093l.5823.453c.0831.0556.185.0923.2955.0923.2405 0 .4438-.1754.4809-.4066l.0922-.7395c.0277-.2034.194-.3605.3975-.3881a4.3518 4.3518 0 0 1 .85 0c.2032.0277.3698.1847.3975.3881l.0921.7395c.0464.2312.2405.4066.481.4066.1015 0 .194-.0367.2771-.0829 0 0 .3972-.3053.6007-.4624.1569-.1295.388-.1202.545.0092.222.1757.4255.3792.6012.601.129.1573.1384.3884.0092.5455 0 0-.462.6008-.462.6099-.0558.0738-.0835.1666-.0835.2588 0 .2401.1665.4346.3883.4898 0 0 .5083.065.758.0926.2033.0275.3604.194.3882.3973zM7.9386 9.4455c-.8318 0-1.5064-.6747-1.5064-1.5067 0-.8317.6747-1.5064 1.5064-1.5064.8316 0 1.5062.6747 1.5062 1.5064 0 .8322-.6746 1.5067-1.5062 1.5067z" fill-rule="evenodd"/>
</svg>