<svg id="icon-edge-solutions" viewBox="0 0 16 16" xmlns="http://www.w3.org/2000/svg">
  <path d="M6.856 8.547h-4.45A2.482 2.482 0 01.001 5.994 2.51 2.51 0 012.017 3.48a1.362 1.362 0 01-.03-.312A1.528 1.528 0 014.68 2.07 3.023 3.023 0 017.49 0h.002a3.102 3.102 0 013.01 3.192c0 .101-.008.202-.016.296a2.505 2.505 0 011.908 1.93c-.197-.01-.395-.016-.593-.016-.24 0-.48.011-.72.024a1.251 1.251 0 00-.864-.718 1.25 1.25 0 01-.976-1.326l.002-.02c.004-.055.01-.112.01-.171a1.864 1.864 0 00-1.769-1.94 1.776 1.776 0 00-1.618 1.213 1.25 1.25 0 01-2.147.407.278.278 0 00-.486.204c.002.037.003.075.003.113a1.28 1.28 0 01-.518 1.32 1.265 1.265 0 01-.455.197 1.26 1.26 0 00-1.012 1.263v.063a1.233 1.233 0 001.193 1.266h4.29l-.009.013c-.115.334-.1.699.045 1.021l.086.216zm.752.374V8.92v.001zm0 0v1.339H5.705a1.225 1.225 0 00-1.05-.617 1.244 1.244 0 100 2.487 1.225 1.225 0 001.05-.617h1.903v1.156s.973 1.263 4.2 1.263C15 13.932 16 12.674 16 12.674V11.3s-.96 1.255-4.193 1.255c-3.239 0-4.145-1.216-4.145-1.216v-1s1.033 1.218 4.145 1.218C14.873 11.558 16 10.3 16 10.3V8.927s-.974 1.255-4.193 1.255c-3.045 0-4.161-1.219-4.199-1.26zm-3.207 2.342a.447.447 0 10.496-.745.447.447 0 00-.496.745zm3.261 2.177v.274s.597 1.216 4.145 1.216c3.377 0 4.193-1.255 4.193-1.255v.982S15.521 16 11.801 16C8 16 7.658 14.694 7.658 14.694H2.812a1.226 1.226 0 01-1.05.617 1.244 1.244 0 010-2.488 1.224 1.224 0 011.05.617h4.85zm-6.18 1.007a.447.447 0 10.496-.744.447.447 0 00-.496.744zm6.126-6.563c0-.816 1.878-1.482 4.193-1.482 2.315 0 4.2.666 4.2 1.482v.042c-.597.628-1.318 1.083-4.194 1.083-2.552 0-3.607-.458-4.199-1.088v-.037z" fill-rule="evenodd"/>
</svg>