<svg id="icon-link" viewBox="0 0 16 16" xmlns="http://www.w3.org/2000/svg">
  <path d="M8.204 11.625c.507.12 1.017.167 1.577.145l.719-.03-.449.562-.047.06a1.243 1.243 0 0 1-.11.133c-.225.224-.453.455-.673.677-.54.548-1.1 1.115-1.672 1.654-.71.67-1.596 1.056-2.633 1.145a1.591 1.591 0 0 1-.084.02l-.035.009h-.53l-.035-.007a1.472 1.472 0 0 1-.05-.012l-.038-.009a4.509 4.509 0 0 1-4.01-3.487 6.878 6.878 0 0 1-.094-.53c-.011-.076-.023-.153-.036-.229L0 11.699v-.482l.005-.028c.016-.089.03-.181.044-.27.033-.207.067-.42.12-.633a4.2 4.2 0 0 1 1.098-1.958c.777-.79 1.426-1.449 2.118-2.116A4.46 4.46 0 0 1 6.5 4.958a4.52 4.52 0 0 1 4.061 2.494l.022.046.114.231-.198.165a1.56 1.56 0 0 1-1.001.342 1.741 1.741 0 0 1-1.25-.517 2.544 2.544 0 0 0-1.737-.712c-.654 0-1.285.27-1.776.758l-.504.5c-.476.471-.967.958-1.44 1.445-.678.699-.89 1.516-.628 2.429.26.91.863 1.487 1.791 1.714.217.053.43.08.635.08.613 0 1.177-.24 1.677-.716.292-.278.583-.57.864-.853.188-.189.383-.384.577-.575a.605.605 0 0 1 .4-.175c.033 0 .066.003.097.01zM12.503.135c2.19.507 3.685 2.57 3.478 4.8-.1 1.065-.517 1.982-1.244 2.727-.628.644-1.373 1.4-2.13 2.128A4.462 4.462 0 0 1 9.5 11.036a4.527 4.527 0 0 1-3.998-2.369c-.022-.041-.042-.081-.06-.12a6.356 6.356 0 0 0-.024-.047l-.113-.227.191-.167c.26-.226.613-.35.994-.35.455 0 .9.175 1.221.482.36.343.73.558 1.129.657.238.06.472.09.694.09.618 0 1.18-.236 1.669-.7.65-.617 1.31-1.276 2.02-2.016.695-.724.896-1.56.598-2.486-.3-.931-.95-1.494-1.933-1.673a2.675 2.675 0 0 0-.478-.045c-.628 0-1.2.247-1.699.733-.508.495-1.001.994-1.374 1.375a.614.614 0 0 1-.461.202.876.876 0 0 1-.136-.01c-.366-.058-.742-.103-1.106-.146l-.421-.05-.562-.07.335-.446a.814.814 0 0 1 .103-.131c.231-.231.465-.468.69-.696.555-.561 1.128-1.141 1.715-1.692C9.188.483 10.068.111 11.109.028L11.14.02l.052-.013.035-.007h.489l.027.005.23.035c.172.026.351.053.53.095z" fill-rule="evenodd"/>
</svg>