<svg id="icon-bell" viewBox="0 0 16 16" xmlns="http://www.w3.org/2000/svg">
  <path d="M8.143 16.0000017c.20109.0002983.40026-.0391017.58612-.1159017.18586-.0768.35476-.1894.49705-.3315.14228-.1421.25516-.3109.33217-.4966.07702-.1858.11666-.3849.11666-.586H6.611c.00013.2011.03986.4001.11692.5858.07706.1857.18995.3544.33221.4965s.31111.2547.49691.3315c.1858.0769.38491.1163.58596.1162017zM13.331 10.984l-.4-4.87c-.0741-1.13109-.5357-2.2021-1.3071-3.03267-.7713-.83057-1.80536-1.36996-2.9279-1.52733.10177-.08019.18426-.18219.24137-.2985.05711-.1163.0874-.24394.08863-.3735 0-.233921-.09292-.458261-.25833-.623668C8.60226.0929247 8.37792 0 8.144 0c-.23392 0-.45826.0929247-.62367.258332C7.35492.423739 7.262.648079 7.262.882c.00135.13073.03227.25946.09046.37654.0582.11707.14214.21945.24554.29946-1.09956.12532-2.12165.62807-2.89206 1.42255C3.93552 3.77504 3.46445 4.8121 3.373 5.915l-.416 5.07c-.04135.4907-.2654.9479-.62782 1.2813-.36242.3333-.83678.5184-1.32918.5187v1.176h14.289v-1.172c-.4933-.0001-.9684-.1859-1.331-.5203-.3626-.3344-.5861-.7931-.626-1.2847h-.001z" fill-rule="nonzero"/>
</svg>