<svg id="icon-box-outline" viewBox="0 0 16 16" xmlns="http://www.w3.org/2000/svg">
  <path d="M8 16a3.3675 3.3675 0 0 1-1.5506-.3813l-4.5658-2.3814C.7218 12.6314 0 11.4211 0 10.0786V5.9214C0 4.579.7218 3.3686 1.8836 2.7627L6.4494.3813A3.3675 3.3675 0 0 1 8 0a3.368 3.368 0 0 1 1.5507.3813l4.5659 2.3814C15.2783 3.3686 16 4.5789 16 5.9214v4.1572c0 1.3425-.7217 2.5528-1.8834 3.1587l-4.566 2.3814A3.368 3.368 0 0 1 8 16zM8 2.0005c-.2214 0-.4438.055-.6431.1588l-4.529 2.3622C2.325 4.7838 2 5.34 2 5.9387v4.1236c0 .5987.325 1.155.828 1.4172l4.5289 2.3622c.1993.1038.4217.1588.6431.1588.2215 0 .444-.055.6432-.1588l4.529-2.3622c.5029-.2623.8278-.8185.8278-1.4172V5.9387c0-.5987-.325-1.155-.8278-1.4172l-4.529-2.3622A1.3985 1.3985 0 0 0 8 2.0005z" fill-rule="evenodd"/>
</svg>