<svg id="icon-file-invoice" viewBox="0 0 16 16" xmlns="http://www.w3.org/2000/svg">
  <path d="M11.58 3.53263886c-.1866681.00267344-.3666711-.06929588-.5-.19991152-.1334013-.13225594-.2089163-.31197402-.21-.49977878V.17412544l3.44 3.35851342h-2.73zm.26 1.10950889L15 4.6411482v9.8256509c-.0657068.8987737-.83981 1.5791495-1.74 1.529323H2.87c-.4655675.0309632-.92433656-.1244505-1.27513766-.4319689-.3508011-.3075183-.56482069-.7418827-.59486234-1.2073055V1.74343081C1.06947223.71409156 1.96014492-.06434302 2.99.00420065h6.73v2.74878331c.10010934 1.08878322 1.026432 1.91424325 2.12 1.88916379zM5.921 12.1388295v.0039982c1.06243999-.1312886 1.86618805-1.0241837 1.885-2.0940731 0-1.25344516-1.089-1.68425447-2.05-2.05309121-.743-.28887214-1.382-.53276419-1.382-1.08851819 0-.47978763.463-.80764251 1.125-.80764251.52276861.02786167 1.02226096.22504403 1.42299361.56175135.01772388.01731073.03986556.02941411.06400639.03498451.02418671.0108935.05141704.01301441.077.00599735.02526698-.00410401.04923213-.01402804.07-.02898717.01891763-.01683409.03481372-.03677992.047-.0589739l.421-.75966375c.01774076-.03229253.02408169-.06961704.018-.1059531-.00567363-.03509852-.02209405-.0675756-.047-.09295885-.45836082-.40761445-1.03511562-.65803804-1.646-.71468366V3.49965346H4.878v1.46135316c-1.01014197.11932401-1.78839548.94698566-1.845 1.9621315 0 1.31041997 1.171 1.78421025 2.114 2.15204744.709.28087567 1.324.53076507 1.324 1.03054384 0 .5907385-.551.8596195-1.066.8596195-.61930623-.0386298-1.20741259-.2851801-1.669-.6996903-.03040038-.0354622-.07668734-.0531413-.123-.0469792-.02287584-.0009295-.0455086.0049872-.065.0169925a.3879409.3879409 0 00-.052.0469792l-.539.7086863c-.02299088.0324134-.03523205.0712182-.03500639.1109509.0018231.0370275.01629562.0723107.04100639.0999558.51829783.5170657 1.19427523.8466392 1.921.9365854v1.4353647l1.037.0099955v-1.4453602zm7.4 1.4453602v-.9995575h-5.8v.9995575h5.8zm0-2.4729054v-.9995575H8.73v.9995575h4.591zm0-2.41293194v-.99955757H8.245v.99955757h5.076z" fill-rule="nonzero"/>
</svg>