<svg id="icon-date" viewBox="0 0 16 16" xmlns="http://www.w3.org/2000/svg">
    <path d="M13.5 2A1.5 1.5 0 0 1 15 3.5v11a1.5 1.5 0 0 1-1.5 1.5h-11A1.5 1.5 0 0 1 1 14.5v-11A1.5 1.5 0 0 1 2.5 2H4V.5a.5.5 0 0 1 .5-.5h1a.5.5 0 0 1 .5.5V2h4V.5a.5.5 0 0 1 .5-.5h1a.5.5 0 0 1 .5.5V2h1.5Zm-11 12.5h11v-9h-11v9Zm2-5A.5.5 0 0 1 4 9V8a.5.5 0 0 1 .5-.5h1A.5.5 0 0 1 6 8v1a.5.5 0 0 1-.5.5h-1Zm3 0A.5.5 0 0 1 7 9V8a.5.5 0 0 1 .5-.5h1A.5.5 0 0 1 9 8v1a.5.5 0 0 1-.5.5h-1Zm3 0A.5.5 0 0 1 10 9V8a.5.5 0 0 1 .5-.5h1a.5.5 0 0 1 .5.5v1a.5.5 0 0 1-.5.5h-1Zm-6 3A.5.5 0 0 1 4 12v-1a.5.5 0 0 1 .5-.5h1a.5.5 0 0 1 .5.5v1a.5.5 0 0 1-.5.5h-1Zm3 0A.5.5 0 0 1 7 12v-1a.5.5 0 0 1 .5-.5h1a.5.5 0 0 1 .5.5v1a.5.5 0 0 1-.5.5h-1Zm3 0a.5.5 0 0 1-.5-.5v-1a.5.5 0 0 1 .5-.5h1a.5.5 0 0 1 .5.5v1a.5.5 0 0 1-.5.5h-1Z" fill-rule="nonzero"/>
</svg>