<svg id="icon-compose" width="16" height="16" xmlns="http://www.w3.org/2000/svg">
  <path d="M12.14 13.6a.658.658 0 00.054-.252l.002-4.068 2.054-1.999v6.155A2.6 2.6 0 0111.615 16H2.632A2.6 2.6 0 010 13.434V2.564A2.6 2.6 0 012.636 0h8.6L9.182 2H2.725a.66.66 0 00-.671.651v10.697a.66.66 0 00.67.652h8.8a.66.66 0 00.617-.4zM6.8 12.037l-3.377.758.759-3.329 6.406-6.292 2.618 2.571L6.8 12.036zM15.723 1.96l.016.016a.918.918 0 01-.016 1.3L13.965 5l-2.617-2.57L13.105.705a.957.957 0 011.34 0l1.278 1.255z" fill-rule="evenodd"/>
</svg>