<svg id="icon-thumbtack-angle" viewBox="0 0 16 16" xmlns="http://www.w3.org/2000/svg">
  <path d="M14.96 4.33L10.493.328004c-.1254-.112695-.2718-.199428-.4309-.2551895-.15913-.055761-.32769-.07944413-.49599-.06968096-.1683.00976316-.333.05277906-.48457.12656246-.15158.073783-.28704.176871-.39854.303308-.22631.256168-.34225.591366-.32259.932616.01967.34125.17335.66091.42759.88938l.363.326-3.475 3.434c-.75322-.28153-1.57238-.33639-2.35641-.1578-.78403.17859-1.49862.58282-2.05559 1.1628L4.43 9.857.617999 15.73c-.010085.0384-.009365.0788.00208.1167.011445.038.03317.0721.062771.0985.0296.0263.065924.044.104954.0511.03903.007.079244.0031.116195-.0113L6.259 11.495l3.14 2.813c.51491-.6191.8373-1.3754.9274-2.1756.0901-.8002-.0561-1.6093-.4204-2.3274l2.987-3.871.364.325c.1254.1127.2718.19943.4309.25519.1591.05577.3277.07945.496.06969.1683-.00977.333-.05278.4846-.12657.1515-.07378.287-.17687.3985-.30331.2263-.25616.3422-.59136.3226-.93261-.0197-.34125-.1734-.66091-.4276-.88939l-.002-.002zm-4.858.011L7.559 6.82c-.04976.04944-.10883.0885-.1738.11494-.06496.02643-.13453.03971-.20466.03907345C7.1104 6.97334 7.0411 6.95878 6.97663 6.93114c-.06446-.02763-.1228-.06779-.17163-.11814-.09905-.10186-.15397-.23865-.1528668-.38073C6.65328 6.2902 6.71035 6.15429 6.811 6.054l2.543-2.477c.04969-.04949.10871-.08864.17364-.11515.06493-.02652.13448-.03989.20461-.03934689.07014.00057689.13946.01504689.20396.04259689.06449.02755.12289.06762.17179.1179.0994.10191.1545.23892.1533192.38124C10.2602 4.10656 10.203 4.24268 10.102 4.343v-.002z" fill-rule="nonzero"/>
</svg>