<svg id="icon-compose" xmlns="http://www.w3.org/2000/svg" viewBox="0 0 16 16">
  <path d="M12.194 13.348l.002-4.069L14.25 7.28v6.156A2.6 2.6 0 0111.615 16H2.632A2.6 2.6 0 010 13.433V2.564A2.598 2.598 0 012.635 0h8.6L9.18 2H2.724a.661.661 0 00-.67.651V13.35a.66.66 0 00.67.65h8.8a.66.66 0 00.67-.651zm-8.771-.555l.759-3.329 6.406-6.291 2.618 2.57L6.8 12.036l-3.377.758zM15.74 1.976h-.001a.92.92 0 01-.016 1.3L13.965 5l-2.616-2.569L13.105.706a.957.957 0 011.34 0l1.278 1.254.017.016z" fill-rule="nonzero"/>
</svg>