<svg id="icon-circle-reload" viewBox="0 0 16 16" xmlns="http://www.w3.org/2000/svg">
  <path d="M8 16c-4.4112 0-8-3.5888-8-8s3.5888-8 8-8 8 3.5888 8 8-3.5888 8-8 8zm3.8811-5.9344c.2224-.3852.094-.876-.287-1.0959-.381-.22-.8702-.0858-1.0926.2994l-.0055.0062c-.7535 1.2239-2.3378 1.641-3.5787.9275-1.2644-.7271-1.6933-2.3532-.9581-3.6315C6.6812 5.316 8.257 4.863 9.511 5.5356l-.7826 1.3608 3.6499-.4936L10.9693 3l-.6537 1.1367c-2.018-1.1115-4.573-.3883-5.7391 1.6394-1.1794 2.0506-.4914 4.6585 1.5368 5.8248 2.0024 1.1514 4.562.4675 5.7618-1.5233l.006-.012z" fill-rule="evenodd"/>
</svg>