<svg id="icon-box" viewBox="0 0 16 16" xmlns="http://www.w3.org/2000/svg">
  <path d="M8.2151 5.9535a.3912.3912 0 0 1-.367.0016L2.1876 2.9542c-.2474-.1312-.2513-.4663-.0044-.5981a4.7199 4.7199 0 0 1 .126-.0648L5.9537.4868A4.7194 4.7194 0 0 1 8.0363 0c.7192 0 1.4393.1684 2.0825.4868l3.6445 1.8045c.0149.0073.0296.0148.0444.0223.2528.1284.2571.4665.0083.6016L8.2151 5.9535zM6.924 7.4819c.1087.064.176.1833.176.3127v7.8462c0 .2407-.2236.4116-.447.3445a4.1409 4.1409 0 0 1-.7988-.3343l-3.4309-1.8796C.9286 12.9527 0 11.3064 0 9.4754V6.604c0-.8698.21-1.6974.5901-2.4147.0937-.1768.3078-.242.4774-.1425L6.924 7.4819zM14.91 4.0486c.1629-.0986.3734-.0427.467.1279.401.731.6229 1.5828.6229 2.4791v2.8558c0 1.821-.9155 3.458-2.3892 4.2723l-3.3825 1.8692a4.0605 4.0605 0 0 1-.7876.3325C9.2205 16.052 9 15.882 9 15.6428V7.8324c0-.1274.065-.2452.1707-.3092L14.91 4.0486z" fill-rule="evenodd"/>
</svg>