<svg id="icon-wifi" viewBox="0 0 16 16" xmlns="http://www.w3.org/2000/svg">
  <path d="M7.877 14.667a2.02 2.02 0 0 1-2.023-2.018 2.02 2.02 0 0 1 2.023-2.019 2.02 2.02 0 0 1 2.022 2.019 2.02 2.02 0 0 1-2.022 2.018zM4.583 10.34l-.719-.642a5.512 5.512 0 0 1 8.272.074l-.73.628a4.546 4.546 0 0 0-6.822-.06zm-2.4-2.428L1.44 7.3A8.495 8.495 0 0 1 7.952 4.22a8.498 8.498 0 0 1 6.609 3.208l-.756.598a7.531 7.531 0 0 0-5.853-2.844 7.528 7.528 0 0 0-5.769 2.73zM16 4.707l-.733.626C11.807 1.293 5.72.818 1.672 4.27c-.338.288-.655.6-.95.931L0 4.563c.324-.365.674-.707 1.045-1.024C5.498-.26 12.194.264 16 4.707z" fill-rule="nonzero"/>
</svg>