<svg id="icon-globe-network" viewBox="0 0 16 16" xmlns="http://www.w3.org/2000/svg">
  <path d="M13.657 2.344A7.949 7.949 0 0 0 8 0a7.949 7.949 0 0 0-5.657 2.344A7.945 7.945 0 0 0 0 8c0 2.136.832 4.146 2.343 5.657A7.952 7.952 0 0 0 8 16a7.952 7.952 0 0 0 5.657-2.343A7.946 7.946 0 0 0 16 8a7.946 7.946 0 0 0-2.343-5.656zM.854 8.484h2.45c.034 1.021.178 2.007.424 2.918h-2.04a7.393 7.393 0 0 1-.834-2.919zm7.502-4.671V.873c.876.153 1.663.852 2.303 1.985.167.294.321.59.455.954H8.356zm3.047.84c.27.912.426 1.933.456 2.992H8.356V4.652h3.047zM7.517.894v2.917h-2.63c.133-.364.279-.66.444-.954.614-1.085 1.384-1.773 2.186-1.963zm0 3.757v2.993H4.142c.03-1.059.186-2.08.456-2.993h2.919zM3.302 7.644H.85a6.943 6.943 0 0 1 .834-2.993h2.042c-.25.913-.395 1.934-.423 2.993zm.842.84h3.373v2.918H4.6a12.04 12.04 0 0 1-.456-2.919zm3.373 3.758v2.863c-.803-.19-1.572-.855-2.186-1.94a7.723 7.723 0 0 1-.441-.924h2.627zm.84 2.886v-2.886h2.752a7.916 7.916 0 0 1-.45.924c-.64 1.133-1.427 1.809-2.303 1.962zm0-3.726V8.483h3.498a12.04 12.04 0 0 1-.455 2.92H8.356zm4.339-2.919h2.45a7.376 7.376 0 0 1-.835 2.92h-2.04c.247-.912.391-1.898.425-2.92zm.002-.84a12.663 12.663 0 0 0-.424-2.992h2.042c.482.876.778 1.898.834 2.993h-2.452zm1.09-3.83H12.01c-.175-.51-.38-.95-.616-1.368a6.506 6.506 0 0 0-.768-1.09 7.178 7.178 0 0 1 3.163 2.458zM5.375 1.35a6.498 6.498 0 0 0-.768 1.101 7.956 7.956 0 0 0-.616 1.361H2.21A7.19 7.19 0 0 1 5.374 1.35zM2.218 12.242h1.775c.174.474.379.922.613 1.336.236.416.493.788.768 1.101-1.27-.502-2.361-1.379-3.156-2.437zm8.408 2.432c.276-.314.533-.674.768-1.09.234-.414.44-.867.613-1.341h1.774a7.378 7.378 0 0 1-3.155 2.431z" fill-rule="evenodd"/>
</svg>