<svg id="icon-logo-linkedin" viewBox="0 0 16 16" xmlns="http://www.w3.org/2000/svg">
  <path d="M2.4688 13.3958H4.875V6.1667H2.4687v7.2291zm2.5625-9.4583c-.007-.3611-.132-.6597-.375-.8958-.2431-.2361-.566-.3542-.9688-.3542-.4028 0-.7309.118-.9844.3542-.2534.236-.3802.5347-.3802.8958 0 .3542.1233.651.3698.8906.2465.2396.5677.3594.9636.3594h.0104c.4097 0 .7395-.1198.9895-.3594.25-.2396.375-.5364.375-.8906zm6.0937 9.4583h2.4063V9.25c0-1.0694-.2535-1.8785-.7605-2.427-.507-.5487-1.177-.823-2.0104-.823-.9444 0-1.6701.4063-2.177 1.2188h.0208V6.1666H6.1979c.0209.4583.0209 2.868 0 7.2291h2.4063V9.3542c0-.264.0243-.4584.0729-.5834.1042-.243.2604-.4496.4687-.6198.2084-.1701.4653-.2552.7709-.2552.8055 0 1.2083.5452 1.2083 1.6354v3.8646zM16 3v10c0 .8264-.2934 1.533-.8802 2.1198C14.533 15.7066 13.8264 16 13 16H3c-.8264 0-1.533-.2934-2.1198-.8802C.2934 14.533 0 13.8264 0 13V3C0 2.1736.2934 1.467.8802.8802 1.467.2934 2.1736 0 3 0h10c.8264 0 1.533.2934 2.1198.8802C15.7066 1.467 16 2.1736 16 3z" fill-rule="nonzero"/>
</svg>