<svg id="icon-circle-question" viewBox="0 0 16 16" xmlns="http://www.w3.org/2000/svg">
  <path d="M3.56386 1.34263C4.88053.465264 6.42779-.00197002 8.01-.0000062c1.05066.00132477 2.0908.2095842 3.0609.6128972.9702.403309 1.8514.993779 2.5934 1.737679.7419.74391 1.3301 1.62668 1.7308 2.5979.4008.97122.6063 2.01188.6048997 3.06254C15.9978 9.59321 15.5265 11.1392 14.6457 12.4536s-2.1316 2.338-3.5942 2.9415c-1.46255.6036-3.07124.7598-4.62264.4491-1.55139-.3107-2.97581-1.0745-4.09313-2.1948C1.21841 12.5292.458365 11.1028.151704 9.55055c-.306661-1.55221-.14616583-3.16049.46119-4.62148C1.22025 3.46808 2.24719 2.21999 3.56386 1.34263zm4.00395 9.79867c-.13748.056-.26221.1392-.36669.2447-.10571.0993-.1897.2194-.24667.3528-.05696.1334-.08568.2772-.08433.4222-.00144.1458.03001.29.092.422.05799.1286.14171.244.246.339.10579.0959.22765.1724.36.226.20547.084.43105.1061.64891.0635.21786-.0427.41848-.1482.57709-.3035.10552-.0994.18932-.2196.24612-.353.05679-.1333.08535-.277.08388-.422.00215-.1435-.02686-.2858-.08505-.417-.05818-.1312-.14414-.2482-.25195-.343-.21199-.2016-.49349-.3137-.786-.313-.14844-.0024-.29583.0252-.43331.0813zm1.76431-8.05131c-.37956-.12559-.77722-.18775-1.177-.184-.42095-.00492-.83985.05927-1.24.19-.36365.12029-.70078.30939-.993.557-.29074.24823-.52876.55222-.7.894-.18531.37685-.30438.78277-.352 1.2l1.8.141c.02911-.36658.18299-.71212.436-.979.12466-.13169.27585-.23545.44358-.3044.16772-.06895.34817-.10153.52942-.0956.16698-.0057.33342.02187.48965.0811.15623.05923.29911.14894.42035.2639.11887.1157.21215.25504.27382.40903.06167.15399.09034.31921.08418.48497.00699.16878-.02063.3372-.08117.49491-.06053.1577-.1527.30135-.27083.42209l-1.085 1.1-.36.388c-.09411.10196-.17477.21555-.24.338-.06364.12553-.10621.26067-.126.4-.02583.17478-.03753.35135-.035.528v.77601h1.691v-.53601c-.00213-.15371.01195-.30723.042-.458.02546-.11936.07076-.23361.134-.338.06641-.10519.14458-.20248.233-.29.09333-.09333.206-.201.338-.323l.58498-.563c.1784-.17328.3408-.36239.485-.565.143-.19907.2575-.41719.34-.648.0887-.26304.131-.53948.125-.817.0077-.40361-.0686-.80441-.224-1.177-.1395-.33094-.3521-.62599-.622-.863-.27777-.23482-.59831-.41376-.94398-.527z" fill-rule="evenodd"/>
</svg>