<svg id="icon-print" viewBox="0 0 16 16" xmlns="http://www.w3.org/2000/svg">
  <path d="M5.242 10.288h5.52v1h-5.52v-1zm0 2.116h5.52v1h-5.52v-1zM15.27 4.665c.096 0 .1911.01895.2798.05576.0887.03681.1693.09076.2371.15876.0678.068.1215.14871.1581.23751.0366.0888.0553.18394.055.27997v5.287c0 .096-.0187.1911-.0554.2799-.0367.0887-.0905.1694-.1584.2373-.0679.0679-.1486.1217-.2373.1584-.0888.0367-.1839.0555-.2799.0554h-1.67V16H2.402v-4.585H.732c-.194138 0-.380326-.0771-.517602-.2144C.0771212 11.0633 0 10.8771 0 10.683V5.397c0-.19414.0771212-.38033.214398-.5176C.351674 4.74212.537862 4.665.732 4.665h1.67V0h9.197l2 2v2.665h1.671zM3.907 1.5l-.005 3.165h8.197V2.622l-.005-.005h-1.117V1.5h-7.07zm8.197 9.915v-2.39H3.907V14.5h8.197v-3.085zm.664-3.9c.1326 0 .2598-.05268.3536-.14645.0937-.09377.1464-.22094.1464-.35355 0-.13261-.0527-.25979-.1464-.35355-.0938-.09377-.221-.14645-.3536-.14645h-1.335c-.1326 0-.2598.05268-.3536.14645-.0937.09376-.1464.22094-.1464.35355 0 .13261.0527.25978.1464.35355.0938.09377.221.14645.3536.14645h1.335z" fill-rule="nonzero"/>
</svg>