<svg id="icon-api" viewBox="0 0 16 16" xmlns="http://www.w3.org/2000/svg">
  <path d="M13.6 0A2.4 2.4 0 0 1 16 2.4v11.2a2.4 2.4 0 0 1-2.4 2.4H2.4A2.4 2.4 0 0 1 0 13.6V2.4A2.4 2.4 0 0 1 2.4 0h11.2ZM6.004 4.8a.934.934 0 0 0-.645.26L2.666 7.672a.871.871 0 0 0-.197.967.871.871 0 0 0 .197.286l2.693 2.613c.173.167.404.26.645.26a.923.923 0 0 0 .845-.546.868.868 0 0 0-.197-.968L4.606 8.298l2.045-1.982a.872.872 0 0 0 .198-.97.872.872 0 0 0-.198-.287.936.936 0 0 0-.647-.259Zm3.992 0a.923.923 0 0 0-.844.546.868.868 0 0 0 .196.969l2.046 1.987-2.045 1.982a.872.872 0 0 0 0 1.257.936.936 0 0 0 1.293 0l2.692-2.614a.872.872 0 0 0 .198-.967.871.871 0 0 0-.198-.286L10.642 5.06a.926.926 0 0 0-.646-.26Z" clip-rule="evenodd"/>
</svg>