<svg id="icon-arrow-to-bottom" viewBox="0 0 16 16" xmlns="http://www.w3.org/2000/svg">
  <path d="M5.8 8.5L4 6.5c-.1-.1-.1-.1-.1-.2-.00586-.04076-.00214-.08232.01087-.12139.013-.03907.03493-.07457.06405-.10369.02912-.02911.06462-.05105.10369-.06405C4.11768 5.99786 4.15924 5.99414 4.2 6H7V0h2v6h3c.0484.05539.0751.12645.0751.2s-.0267.14461-.0751.2l-1.8 2.1-2 2.3c-.2.1-.3.1-.4 0l-2-2.3zM14 9.9h2V14c-.0016.5299-.2128 1.0377-.5875 1.4125-.3748.3747-.8826.5859-1.4125.5875H2c-.52995-.0016-1.037735-.2128-1.412465-.5875C.212805 15.0377.00158273 14.5299 0 14V9.9h2v3.7c-.00409.0667.00604.1336.02972.1961s.06037.1193.10764.1665c.04727.0473.10405.084.16656.1077.06252.0237.12935.0338.19608.0297h11c.0667.0041.1336-.006.1961-.0297s.1193-.0604.1665-.1077c.0473-.0472.084-.104.1077-.1665.0237-.0625.0338-.1294.0297-.1961V9.9z" fill-rule="nonzero"/>
</svg>