<svg id="icon-circle-alert" viewBox="0 0 16 16" xmlns="http://www.w3.org/2000/svg">
  <path d="M0 8c0 4.4112 3.5888 8 8 8s8-3.5888 8-8-3.5888-8-8-8-8 3.5888-8 8zm8.00003 2.4999962c.15391-.0002962.30579.0351038.44373.1034038.13795.0682.25821.1675.35137.29.13682.1794.20896.3997.20472.6253-.00425.2255-.08464.443-.22811.6171-.14347.1741-.34159.2945-.56217.3417-.22058.0473-.45065.0186-.65284-.0815-.20218-.1-.36459-.2655-.46084-.4695-.09625-.204-.12068-.4346-.06933-.6543.05136-.2196.17549-.4155.35221-.5557.17673-.1402.39568-.2165038.62126-.2165038zM8.007 3.48295191c.26521.00190809.51882.10905809.70504.29789809.18622.18885.2898.44393.28796.70915v4.03499c-.00289.26122-.10942.5106-.29616.69327-.18675.18267-.43841.28367-.69963.28090745L8 9.49899c-.26332.00002-.51602-.10382-.70325-.28899-.18722-.18516-.29385-.4367-.29675-.7V4.476c.00187-.26522.10901-.51883.29785-.70505.18885-.18622.44394-.2898.70915-.28799809z" fill-rule="nonzero"/>
</svg>