<svg id="icon-map-marker-alt" viewBox="0 0 16 16" xmlns="http://www.w3.org/2000/svg">
  <path d="M8 0c1.083 0 2.083.27 3 .812A6.115 6.115 0 0 1 13.187 3c.542.917.813 1.917.813 3 0 .667-.083 1.255-.25 1.766-.167.51-.49 1.14-.969 1.89-.333.521-1.02 1.531-2.062 3.031l-2.094 3A.717.717 0 0 1 8 16a.717.717 0 0 1-.625-.313l-2.094-3c-1.041-1.5-1.729-2.51-2.062-3.03-.48-.75-.802-1.381-.969-1.891C2.083 7.256 2 6.666 2 6c0-1.083.27-2.083.812-3A6.115 6.115 0 0 1 5 .812 5.791 5.791 0 0 1 8 0z" fill-rule="nonzero"/>
</svg>
