<svg id="icon-arrow-sync" viewBox="0 0 16 16" xmlns="http://www.w3.org/2000/svg">
  <path d="M4.14 10.974h9.557a.624.624 0 0 1 0 1.248H4.141l2.73 2.718a.618.618 0 0 1-.003.879.632.632 0 0 1-.89-.003l-3.794-3.778a.618.618 0 0 1-.002-.881l.15-.149L5.98 7.376a.628.628 0 0 1 .887 0 .623.623 0 0 1 0 .883L4.14 10.974zm8.04-7.193L9.455 1.067a.622.622 0 0 1 0-.884.628.628 0 0 1 .887 0l3.649 3.633.15.149a.618.618 0 0 1-.003.88l-3.794 3.778a.632.632 0 0 1-.894-.002.618.618 0 0 1 .002-.874l2.73-2.717H2.623a.624.624 0 0 1 0-1.249h9.557z" fill-rule="evenodd"/>
</svg>
