<svg id="icon-mail-incoming" viewBox="0 0 16 16" xmlns="http://www.w3.org/2000/svg">
	<path d="M5.398 6.274 0 1.926v5.88a5.054 5.054 0 0 1 5.398-1.532ZM8.056 8.277c.571.847.876 1.847.875 2.87a5.25 5.25 0 0 1-.056.725H16V1.917l-7.944 6.36ZM1.272 1l6.71 5.431L14.73 1H1.272zM3.846 7.296C1.733 7.296.02 9.02.019 11.147.02 13.275 1.732 15 3.845 15s3.827-1.724 3.827-3.851S5.96 7.297 3.846 7.296Zm.08 5.992-.64-.644 1.025-1.038h-2.67v-.915h2.67L3.28 9.657l.64-.644 2.13 2.134-2.124 2.14Z" fill-rule="nonzero"/>
</svg>