<svg id="icon-external-link" viewBox="0 0 16 16" xmlns="http://www.w3.org/2000/svg">
  <path d="M15.5427.00008186c.2732-.00511826.4876.230526.4538.498904l-.6954 5.52061599c-.0475.37742-.5213.52483-.7784.24215l-1.8619-2.04677-7.3335 6.53570005c-.36819.3282-.93542.2987-1.26695-.0657s-.30181-.92586005.06639-1.25407005l7.33346-6.5356-1.86188-2.046762c-.25714-.282686-.05955-.733596.32468-.740967l5.6197-.107501zm-9.26116.792863c.49446 0 .8953.39671699.8953.88620699 0 .4895-.40074.88632-.8953.88665l-4.48733.00303V13.2294819l10.76529-.0053V8.78446185c0-.49037.4016-.88795.8971-.88795.4954 0 .8971.39758.8971.88795v4.44502005c0 .9777-.8011 1.7706-1.7897 1.7706H1.78883c-.988614 0-1.78883-.7929-1.78883-1.7706V2.56352185c0-.97769.800216-1.770577 1.78883-1.770577h4.49271z" fill-rule="nonzero"/>
</svg>