<svg id="icon-file-export" viewBox="0 0 16 16" xmlns="http://www.w3.org/2000/svg">
  <path d="M8.172 3.53468483c-.09193 0-.18295-.01811-.26788-.05329-.08493-.03517-.16209-.08674-.22709-.15174-.06501-.065-.11657-.14217-.15175-.22709-.03517-.08493-.05328-.17596-.05328-.26788v-2.660002l3.44 3.360002h-2.74zm7.789 6.66700997c.0132.0145.0235.0315.0302.0499.0066.0185.0096.0381.0089672.0577-.0012672.0196-.0060672.0388-.0144672.0566-.0083.0177-.0201.0336-.0347.0468l-1.366 1.2-1.245 1.094c-.0214.0189-.0479.0313-.0761.0355-.0283.0042-.0572.0002-.0832-.0117-.026-.0118-.0481-.031-.0635-.0551-.0153-.0241-.0234-.0521-.0232-.0807v-1.688h-1.492v3.56c-.0379.4297-.2398.8284-.5638 1.1132-.324.2849-.7451.4342-1.1762.4168H1.87c-.46483.0286-.922134-.1276-1.272361-.4346-.350227-.3069-.5650251-.7398-.597639-1.2044V1.74270483c.0354135-.49368.264386-.953393.637082-1.27908.372698-.325687.858948-.4909865 1.352918-.4599208h4.332v2.7480008c.04825.52497.29394 1.01206.68745 1.36288.39351.35082.90551.53921 1.43255.52712h3.16v5.077H3.164c-.07809 0-.15541.0154-.22755.04531-.07213.02991-.13765.07376-.19283.12902-.05517.05527-.0989.12085997-.12869.19305997-.02979.0722-.04506.1495-.04493.2276.00013.078.01563.1552.0456.2272.02997.0721.07383.1375.12909.1925.05525.0551.1208.0987.19292.1285.07212.0297.14938.0449.22739.0448h8.437V9.71870483h1.493v-1.71c-.0002-.02859.0079-.05663.0232-.08072.0154-.0241.0375-.04323.0635-.05508.026-.01184.0549-.0159.0832-.01168.0282.00423.0547.01655.0761.03548l1.245 1.095 1.365 1.19998997.01.01zM3.16 7.34170483v-.001c-.15754.00066-.30836.06388-.41929.17575-.11093.11186-.17287.26321-.17222036.42075.00067036.15754.06389036.30836.17576036.41929.05539.05492.12105.0984.19325.12795.07219.02955.14949.04459.2275.04426h5.268c.07999.00293.15975-.01034.23449-.03901.07473-.02867.1429-.07215.20041-.12782.05751-.05568.10318-.12241.13425-.19617.03108-.07377.04692-.15306.04659055-.23311-.00034055-.08004-.01686055-.15919-.04855055-.23269-.0317-.07351-.07792-.13985-.1359-.19504-.05797-.05519-.12651-.09809-.20148-.12613-.07498-.02804-.15484-.04063-.23481-.03703H3.16zm5.863 5.34898997v-.002c-.00013-.078-.01563-.1552-.0456-.2272-.02997-.072-.07383-.1375-.12909-.1925-.05525-.0551-.1208-.0987-.19292-.1285-.07212-.0297-.14938-.0449-.22739-.0448H3.165c-.08012-.0033-.16008.0097-.23508.0381-.07499.0284-.14347.0716-.20132.1271-.05786.0556-.10389.1222-.13533.196-.03145.0738-.04766.1531-.04766.2333s.01621.1596.04766.2333c.03144.0738.07747.1404.13533.196.05785.0555.12633.0988.20132.1272.075.0284.15496.0413.23508.038H8.43c.15737-.0003.30819-.063.41937-.1743.11119-.1114.17363-.2623.17363-.4197z" fill-rule="nonzero"/>
</svg>