<svg id="icon-box-script" viewBox="0 0 16 16" xmlns="http://www.w3.org/2000/svg">
  <path d="M8 16a3.368 3.368 0 0 1-1.5507-.3813l-4.5657-2.3814C.7216 12.6314 0 11.4211 0 10.0786V5.9213C0 4.579.7217 3.3686 1.8836 2.7627L6.4493.3813A3.368 3.368 0 0 1 8 0a3.368 3.368 0 0 1 1.5507.3813l4.5659 2.3814C15.2783 3.3686 16 4.5789 16 5.9213v4.1573c0 1.3425-.7217 2.5528-1.8834 3.1587l-4.566 2.3814A3.368 3.368 0 0 1 8 16zM8 1.9995a1.397 1.397 0 0 0-.6431.1588l-4.529 2.3622C2.3248 4.7828 2 5.339 2 5.9376v4.1237c0 .5987.325 1.155.8278 1.4172l4.529 2.3622A1.397 1.397 0 0 0 8 13.9995a1.397 1.397 0 0 0 .6431-.1588l4.529-2.3622c.503-.2623.8279-.8185.8279-1.4172V5.9376c0-.5986-.325-1.1548-.828-1.4171L8.6432 2.1583A1.397 1.397 0 0 0 8 1.9995zM5.8112 8.6641c.4897.4407.996.8963 1.4923 1.346.1363.1237.2058.2798.1955.4396-.0102.1574-.097.3035-.2445.4115-.0622.0456-.1348.0728-.199.097-.0252.0094-.0506.0189-.0748.0295l-.0268.0118h-.2336l-.018-.0047c-.1917-.0503-.3234-.1693-.4292-.265a1092.936 1092.936 0 0 0-2.5136-2.2644c-.1064-.0956-.214-.2016-.2564-.3525L3.5 8.1017v-.206l.004-.0127c.0508-.1573.1634-.2678.2844-.3764.7953-.7143 1.606-1.4447 2.4783-2.2327.1142-.1032.2437-.2201.4362-.2698l.0177-.0046h.2477l.0252.0102a.3587.3587 0 0 1 .0167.007c.0047.002.0093.0042.0143.0058.2271.0661.3908.2144.4492.4068.0606.1996-.0068.4122-.1803.5689-.3343.3019-.669.6034-1.0039.9048l-.453.408-.7657.6901.059.0524c.0937.083.1866.1653.279.2484l.4024.3622zm6.6846-.7812l.0042.0128v.2083l-.0045.0133c-.0393.1158-.109.2176-.2133.311-.8572.7694-1.7172 1.5437-2.556 2.3016-.1056.0954-.237.2142-.4291.2649l-.0181.0047h-.221l-.017-.004c-.216-.0528-.3663-.153-.4593-.3065-.1363-.225-.1002-.4784.0946-.6612.0943-.0887.1923-.1763.287-.261.0388-.0348.0777-.0695.1163-.1043l1.8455-1.6641c-.2038-.1838-.407-.368-.6105-.5521-.5196-.4707-1.057-.9574-1.593-1.4287-.1965-.1728-.2642-.4056-.1812-.6227.0717-.1878.24-.329.4436-.3743l.0302-.0211H9.28l.0189.0053c.1726.048.2992.1475.4101.2478a917.033 917.033 0 0 0 2.5026 2.254c.1206.1083.233.2185.2842.3763z" fill-rule="evenodd"/>
</svg>