<svg id="icon-ticket-wrench-multiple" viewBox="0 0 16 16" xmlns="http://www.w3.org/2000/svg">
	<path d="M4.58 3.25a1.72 1.72 0 0 0-.35 2.28l.74-.85.23-1.72a1.34 1.34 0 0 0-.58.27Z"/>
	<path d="M2.58 1.64a.88.88 0 0 1 .33-.59.77.77 0 0 1 .5-.18.83.83 0 0 1 .11 0l1.66.24a.89.89 0 0 0 .16.65.78.78 0 0 0 .55.34.84.84 0 0 0 .12.01.78.78 0 0 0 .5-.18.88.88 0 0 0 .32-.6l1.3.19.1-.12A1.15 1.15 0 0 1 9.2.92 1.62 1.62 0 0 0 8.58.7L3.64 0A1.56 1.56 0 0 0 3.4 0a1.6 1.6 0 0 0-1.04.39 1.76 1.76 0 0 0-.62 1.15l-1 7.57.98-1.02ZM14.95 6.3l-1.46-1.51a1.04 1.04 0 0 1-.75.33.97.97 0 0 1-.74-.3 1.02 1.02 0 0 1-.3-.76 1.1 1.1 0 0 1 .33-.78l-1.47-1.5a.96.96 0 0 0-.74-.3 1.04 1.04 0 0 0-.75.33L1.44 9.64a1.1 1.1 0 0 0-.32.77 1.02 1.02 0 0 0 .3.76l1.46 1.51a1.05 1.05 0 0 1 .34-.24.9.9 0 0 1 .4-.09.96.96 0 0 1 .75.3 1.03 1.03 0 0 1 .3.77 1.08 1.08 0 0 1-.33.77l1.46 1.5a1 1 0 0 0 .35.24.93.93 0 0 0 .4.07 1.04 1.04 0 0 0 .75-.33l7.63-7.85a1.1 1.1 0 0 0 .32-.77 1.04 1.04 0 0 0-.3-.77Zm-5.1 2.78a1.73 1.73 0 0 1-.76-.15l-.07-.03-3 3.07a.44.44 0 0 1-.05.05.66.66 0 0 1-.92-.03l-.03-.02a.76.76 0 0 1 0-1.03l2.94-3.01.06-.06-.03-.07a2.08 2.08 0 0 1 1.18-2.71 2.12 2.12 0 0 1 .7-.15h.05a1.64 1.64 0 0 1 .76.2L9.2 6.63l1 1.03 1.49-1.52a1.75 1.75 0 0 1 .19.85 2.07 2.07 0 0 1-2.03 2.07Z"/>
</svg>