<svg id="icon-api-outline" viewBox="0 0 16 16" xmlns="http://www.w3.org/2000/svg">
  <path d="M12.796 0A3.206 3.206 0 0 1 16 3.205v9.59A3.205 3.205 0 0 1 12.796 16H3.204A3.205 3.205 0 0 1 0 12.795v-9.59A3.204 3.204 0 0 1 3.204 0h9.592ZM3.504 1.672a1.835 1.835 0 0 0-1.832 1.833v8.99a1.835 1.835 0 0 0 1.832 1.833h8.992a1.833 1.833 0 0 0 1.832-1.833V3.504a1.835 1.835 0 0 0-1.832-1.832H3.504ZM6.344 4.8c.24 0 .473.093.647.26a.873.873 0 0 1 .198.968.875.875 0 0 1-.198.287L4.946 8.298l2.046 1.987a.868.868 0 0 1 0 1.254.924.924 0 0 1-.648.26.925.925 0 0 1-.645-.26L3.007 8.926a.874.874 0 0 1-.267-.627.873.873 0 0 1 .267-.626L5.699 5.06a.935.935 0 0 1 .645-.26Zm3.312 0c.24 0 .473.093.646.26l2.692 2.614a.871.871 0 0 1 0 1.253l-2.692 2.613a.936.936 0 0 1-1.293 0 .871.871 0 0 1 0-1.257l2.046-1.981-2.047-1.988a.87.87 0 0 1-.268-.627.87.87 0 0 1 .269-.627.925.925 0 0 1 .647-.26Z"/>
</svg>
