<svg id="icon-square-minus-outline" viewBox="0 0 16 16" xmlns="http://www.w3.org/2000/svg">
  <path d="M12.9826 16H3.01703C1.35134 15.99861.00139 14.64865 0 12.98222V3.01704C.00139 1.35134 1.35135.00139 3.01778 0h9.96518C14.64866.00139 15.99861 1.35135 16 3.01778v9.96481C15.9993 14.64877 14.64877 15.9993 12.9826 16zm-.00038-1.77778c.68455-.00028 1.23972-.55545 1.24-1.24v-9.9637c-.00057-.685-.55573-1.24017-1.24-1.24074h-9.9637c-.685.00057-1.24017.55573-1.24074 1.24v9.9637c.00057.685.55573 1.24017 1.24 1.24074h9.96444zM9 7h3v2H4V7h5z" fill-rule="nonzero"/>
</svg>