<svg id="icon-chart-line" viewBox="0 0 16 16" xmlns="http://www.w3.org/2000/svg">
  <path d="M1.09 0c.603 0 1.092.503 1.092 1.123v12.63h12.727c.602.001 1.09.503 1.091 1.123 0 .62-.488 1.124-1.09 1.124H1.09C.489 16 0 15.496 0 14.876V1.123C0 .503.488 0 1.09 0Zm12.532 3.476a1.027 1.027 0 0 1 1.447 0c.4.397.4 1.042 0 1.44l-4.245 4.223c-.422.42-1.107.42-1.53.002L7.462 7.615 4.89 10.174c-.4.397-1.049.397-1.449 0a1.015 1.015 0 0 1 0-1.44l3.25-3.232a1.088 1.088 0 0 1 1.528-.003l1.836 1.522 3.566-3.545Z"/>
</svg>