<svg id="icon-list-alt" viewBox="0 0 16 16" xmlns="http://www.w3.org/2000/svg">
    <path d="M1.666 16C.746 16 0 15.258 0 14.342c0-.916.746-1.658 1.666-1.658.92 0 1.666.742 1.666 1.658 0 .916-.746 1.658-1.666 1.658Zm0-9.654h-.001a1.658 1.658 0 1 1 .012 3.316 1.658 1.658 0 0 1-.011-3.316Zm0-3.03C.746 3.316 0 2.574 0 1.658 0 .742.746 0 1.666 0c.92 0 1.666.742 1.666 1.658 0 .916-.746 1.658-1.666 1.658Zm12.96 9.658A1.371 1.371 0 0 1 16 14.342a1.371 1.371 0 0 1-1.374 1.368H6.574A1.371 1.371 0 0 1 5.2 14.342a1.371 1.371 0 0 1 1.374-1.368h8.052Zm0-6.338A1.371 1.371 0 0 1 16 8.004a1.371 1.371 0 0 1-1.374 1.368H6.574A1.371 1.371 0 0 1 5.2 8.004a1.371 1.371 0 0 1 1.374-1.368h8.052Zm-8.052-3.61A1.371 1.371 0 0 1 5.2 1.658 1.371 1.371 0 0 1 6.574.29h8.052a1.368 1.368 0 0 1 0 2.736H6.574Z" fill-rule="nonzero"/>
</svg>