<svg id="icon-circle-wrench" viewBox="0 0 16 16" xmlns="http://www.w3.org/2000/svg">
  <path d="M4.929 10.436a.428.428 0 11.486.705.428.428 0 01-.486-.705zM3.555 1.348a8 8 0 118.89 13.304 8 8 0 01-8.89-13.304zm1.31 11.13c.14 0 .276-.055.376-.153l3.388-3.33a3.267 3.267 0 01-1.641-1.613L3.6 10.712a.517.517 0 000 .738l.89.875c.1.098.235.153.375.153zm5.951-3.974c.366-.125.699-.33.975-.601a2.537 2.537 0 00.687-2.439.219.219 0 00-.364-.096l-1.348 1.325-1.231-.201-.205-1.21 1.347-1.325a.212.212 0 00-.096-.358 2.64 2.64 0 00-2.482.675 2.525 2.525 0 00-.703 2.3c.11.497.361.951.725 1.307.423.414.97.678 1.557.75.384.043.773 0 1.138-.127z" fill-rule="nonzero"/>
</svg>