<svg id="icon-visible-off" viewBox="0 0 16 16" xmlns="http://www.w3.org/2000/svg">
  <path d="M7.998 2.088c4.419 0 8.002 3.904 8.002 5.49 0 .84-1.067 2.374-2.736 3.61l-1.727-1.726c.3224-.57598.4944-1.22395.5-1.884v-.001c-.0013-1.06865-.427-2.09302-1.1835-2.84782C10.097 3.97437 9.07165 3.55094 8.003 3.552c-.65807.0047-1.30458.17346-1.881.491L4.838 2.764c.99765-.43399 2.0721-.66384 3.16-.676zm6.106 11.774l-.005-.002.035.035-.92.919-2.312-2.312c-.92405.3637-1.90698.5549-2.9.564C3.582 13.066 0 9.125 0 7.576c0-.798.972-2.248 2.52-3.456l-2.2-2.2.919-.92 12.865 12.862zm-6.101-2.2579965C8.57077 11.603 9.13183 11.4813 9.649 11.247l-1.063-1.063c-.39128.0903-.79792.091-1.1895.002-.39157-.0891-.75794-.2655-1.07169-.51618-.31374-.25065-.56673-.56901-.74005-.93125-.17331-.36225-.26246-.759-.26076-1.16057.00098-.1973.02413-.39387.069-.586L4.33 5.929c-.23691.51755-.36033 1.0798-.362 1.649v.001c.00066.52923.10555 1.05314.30868 1.54183.20313.48869.50053.93257.87521 1.30637.37469.3737.81932.67 1.30851.8719.4892.202 1.01337.3056 1.5426.3049035zm-.001-6.69900425h.001C8.71255 4.90447 9.39326 5.18576 9.89545 5.68701c.50215.50126.78475 1.18144.78555 1.89099-.0044.29471-.0588.58654-.161.863L7.142 5.064c.27573-.10083.56645-.15458.86-.15900075z" fill-rule="nonzero"/>
</svg>