<svg id="icon-ticket-wrench" viewBox="0 0 16 16" xmlns="http://www.w3.org/2000/svg">
  <path d="M15.6580687 5.30806866l-1.65-1.655c-.1103.11432-.2423.20549-.3882.26816-.146.06268-.303.0956-.4618.09684-.1562.0057-.3118-.02144-.4569-.07966-.145-.05822-.2762-.14623-.3851-.25834-.1117-.10782-.1992-.23806-.257-.38214-.0577-.14409-.0843-.29876-.078-.45386.0012-.15893.0342-.31602.0971-.462.0628-.14598.1543-.27791.2689-.388l-1.661-1.66c-.1082-.11156-.2389-.198918-.3833-.2563158-.1445-.0573982-.2994-.08353373-.45470004-.07668416-.15845.0018384-.31496.03503916-.46051.09768606-.14554.0626469-.27724.1534999-.38749.2673139l-8.635001 8.637c-.114229.1103-.20527.2423-.267778.38827-.0625077.14596-.09522209.30295-.09622217.46173-.00683513.15500004.01921307.30980004.07643297.45400004.0572202.1443.1443162.2748.2555672.383l1.660001 1.66c.11151-.1146.24478-.2057.392-.268.14367-.0681.30104-.1023.46-.1.15487-.0067.30941.0194.45349.0766.14407.0573.27442.1443.38251.2554.11239.1089.20057.2402.25881.3855.05824.1452.08522.3011.07919.4575.00008.159-.03214.3163-.09471.4624-.06258.1461-.15419.278-.26929.3876l1.653 1.653c.11008.1124.24216.2009.388.26.14422.0587.29947.0853.455.078.15878-.001.31577-.0337.46173-.0962.14597-.0625.27797-.1536.38827-.2678l8.63300004-8.63600004c.1143-.11028.2055-.24226.2682-.38822.0626-.14595.0956-.30294.0968-.46178.0047-.15603-.0232-.31133-.0819-.45597s-.147-.27544-.2591-.38403zm-5.77400004 3.065c-.29623.00953-.59092-.04647-.863-.164l-.078-.036-3.394 3.38100004c-.0185.0221-.03855.0428-.06.062-.0743.066-.16087.1167-.25478.1492-.0939.0325-.1933.0462-.29249.0402-.09919-.0059-.19624-.0314-.28559-.0749-.08935-.0434-.16926-.1041-.23514-.1785l-.002-.002c-.14618-.1522-.22782-.355-.22782-.566 0-.211.08164-.4138.22782-.566l3.328-3.31600004.06-.059-.034-.078c-.11349-.27439-.16964-.5691-.165-.866.00962-.60252.2542-1.17745.6816-1.60224.42741-.42479 1.00383-.66584 1.6064-.67176046h.065c.30040004-.00020954.59660004.07109046.86400004.20800046l-1.67900004 1.674 1.14000004 1.135 1.678-1.672c.1486.28616.2213.6057.211.928-.0099.60288-.2548 1.17806-.6825 1.60301-.4278.42496-1.0046.66608-1.60750004.67199h-.001z" fill-rule="nonzero"/>
</svg>