<svg id="icon-visible" viewBox="0 0 16 16" xmlns="http://www.w3.org/2000/svg">
  <path d="M8 2.51c4.418 0 8 3.906 8 5.491 0 1.548-3.581 5.49-8 5.49-4.419 0-8-3.95-8-5.49S3.581 2.51 8 2.51zm0 9.5170046C8.52925 12.0278 9.05347 11.9242 9.54268 11.7223c.48922-.202.93382-.4984 1.30832-.8723.3746-.3739.6718-.818.8746-1.30685.2028-.48886.3073-1.0129.3074001-1.54215C12.0332 7.20475 11.7973 6.42631 11.3552 5.76407c-.4421-.66224-1.0706-1.17855-1.80606-1.48367-.73547-.30512-1.54489-.38536-2.32595-.23058-.78106.15479-1.49871.53765-2.06223 1.10019-.56353.56255-.94764 1.27953-1.10378 2.06032-.15614.78079-.0773 1.59035.22654 2.32635.30385.73602.81906 1.36542 1.48053 1.80862.66147.4433 1.4395.6805 2.23575.6817046zm0-6.70000625C8.35137 5.32661 8.69938 5.39544 9.02414 5.52957c.32476.13413.61992.33093.86861.57915.24865.24823.44605.54301.58075.86752.1348.32451.2042.67239.2045 1.02376 0 .52846-.1566 1.04506-.4501 1.48452-.29353.43946-.7107.78208-1.19883.98448-.48814.2025-1.02533.2557-1.54371.153-.51837-.1027-.99466-.3568-1.36869-.73014-.37402-.37333-.62899-.84914-.7327-1.36732-.1037-.51819-.05148-1.05548.15007-1.54399s.54337-.90633.98229-1.20064C6.95524 5.4856 7.47155 5.32799 8 5.32699835z" fill-rule="nonzero"/>
</svg>