<svg id="icon-arrow-sort" viewBox="0 0 16 16" xmlns="http://www.w3.org/2000/svg">
  <path d="M15.82 9.26a.617.617 0 00-.88.001l-2.718 2.648-.005.005v-9.3a.6.6 0 00-.18-.428.657.657 0 00-.44-.175.63.63 0 00-.44.175.62.62 0 00-.18.428v9.3L8.255 9.257a.864.864 0 00-.2-.127.705.705 0 00-.24-.05.66.66 0 00-.44.177.612.612 0 00-.19.434c.002.08.019.16.05.234a.746.746 0 00.14.2l3.782 3.69a.617.617 0 00.68.135.907.907 0 00.2-.136l.15-.146 3.632-3.552a.599.599 0 000-.856zM7.944 6.875a.617.617 0 00.48 0 .905.905 0 00.2-.136.6.6 0 000-.856L4.992 2.33l-.15-.146a.617.617 0 00-.88 0L.18 5.875H.178a.611.611 0 00.002.865.617.617 0 00.68.136.906.906 0 00.2-.136l2.722-2.657v9.3a.6.6 0 00.18.428c.12.11.277.171.44.175a.63.63 0 00.44-.175.62.62 0 00.18-.428v-9.3L7.744 6.74a.56.56 0 00.2.136v-.001z" fill-rule="nonzero"/>
</svg>