<svg id="icon-table-column-settings" viewBox="0 0 16 16" xmlns="http://www.w3.org/2000/svg">
  <path d="M6.015 9.58h-.408v2.5h.567c-.1719.2801-.26288.6023-.26288.931 0 .3287.09098.6509.26288.931l.131.214H1.516c-.19917 0-.39638-.0392-.580379-.1155-.183995-.0762-.351162-.188-.491948-.3289-.140787-.1409-.252434-.3081-.328561-.4921C.0389845 13.0354 0 12.8382 0 12.639V1.517c0-.19908.0389514-.39624.115016-.580224C.191081.752796.302638.5856.443319.444733.584.303867.751049.192089.934928.115781 1.11881.0394738 1.31592 0 1.515 0H12.63c.4019.00053012.7871.160622 1.071.445086.2839.284464.4433.670014.4430004 1.071914v5.952C14.104 7.484 14.063 7.493 14.023 7.51l-.016.007v-.039c-.0555-.42942-.2572-.82662-.5712-1.12476-.314-.29815-.7211-.47904-1.1528-.51224l-6.67-.012v2.5h1.112l-.71 1.251zm-.4-7.5v2.5h6.67v-2.5h-6.67zm-1.248 10l.001-2.5H1.87v2.5h2.497zm0-3.75l.001-2.5H1.87v2.5h2.497zm0-3.754l.001-2.5H1.87v2.5h2.497zm11.383 7.992c.1188.0742.2034.1925.2352.3289.0319.1364.0084.2799-.0652.3991l-.612 1c-.0771.1214-.1952.2111-.3329.2526-.1377.0415-.2858.032-.4171-.0266l-.76-.342-.04-.022c-.2764.2134-.5831.3842-.91.507l-.071.828c-.0162.1416-.0846.272-.1919.3658-.1072.0938-.2456.1441-.3881.1412h-1.223c-.1427.0038-.2816-.0462-.3891-.1401-.1075-.094-.1756-.225-.1909-.3669l-.072-.8v-.033c-.32565-.1219-.63056-.2932-.904-.508l-.028.016-.772.343c-.13044.0611-.27871.0723-.41686.0316S7.9445 14.412 7.868 14.29l-.613-1c-.07213-.1198-.09452-.263-.06238-.3991.03215-.136.11628-.2541.23438-.3289l.689-.458.067-.033c-.02432-.1609-.03768-.3233-.04-.486-.00097-.1628.01208-.3254.039-.486l-.05-.027-.705-.464c-.1194-.0739-.20458-.1922-.23683-.3289-.03225-.1367-.00893-.28059.06483-.4001l.613-1c.07706-.12143.19524-.21109.33294-.25258.1377-.04149.28574-.03206.41706.02658l.761.342.039.022c.2741-.21379.57885-.38505.904-.508v-.038l.072-.857c.015-.14193.0829-.273.1902-.36714.1073-.09413.2461-.14442.3888-.14086h1.224c.1429-.00405.2821.04605.3896.14025.1076.0942.1756.22555.1904.36775l.071.862v.033c.3242.12224.6278.29357.9.508l.045-.022.755-.342c.1312-.05873.2792-.06832.4169-.02701.1376.04131.2559.13075.3331.25201l.612 1c.0724.11983.0952.2632.0634.3996-.0317.1363-.1155.2549-.2334.3304l-.7.457-.06.04c.0237.1589.0363.3193.038.48.0014.1628-.0114.3254-.038.486l.071.038.689.453.01.006zm-4.174.6730003c.2174 0 .4327-.0428003.6336-.1261003.2008-.0832.3833-.2052.537-.359.1537-.1538.2756-.3363.3587-.5373.0831-.2009.1258-.4162.1257002-.6336 0-.3276-.0971002-.6478-.2792002-.9201-.182-.2724-.4407-.4846-.7433-.6099-.3027-.12535-.6357-.15808-.9569-.09411-.3213.06401-.6164.22181-.8479.45351-.2316.2317-.3892.5268-.453.8481-.06379.3213-.03085.6543.0946.9569.1255.3026.3379.5612.6104.743.2725.1818.5927.2788.9203.2786003z" fill-rule="nonzero"/>
</svg>