<svg id="icon-ban" viewBox="0 0 16 16" xmlns="http://www.w3.org/2000/svg">
  <path d="M2.8113 11.7427L4.5764 9.978l1.4052-1.4057 1.9377-1.9377a.4408.4408 0 0 1 .0098-.0095l.6473-.6471 1.4052-1.4057 1.761-1.761A6.3656 6.3656 0 0 0 8 1.6C4.4712 1.6 1.6 4.471 1.6 8c0 1.3962.4495 2.6895 1.2113 3.7427zM4.21 13.1542C5.2717 13.937 6.5828 14.4 8 14.4c3.529 0 6.4-2.871 6.4-6.4 0-1.417-.463-2.728-1.2455-3.7897L11.3873 5.978 9.9816 7.3832l-.6493.6491a.4885.4885 0 0 1-.0078.008L7.3873 9.978l-1.4057 1.4052-1.7715 1.771zM8 16c-4.4112 0-8-3.5888-8-8s3.5888-8 8-8 8 3.5888 8 8-3.5888 8-8 8z" fill-rule="evenodd"/>
</svg>