<svg id="icon-circle-code" viewBox="0 0 16 16" xmlns="http://www.w3.org/2000/svg">
  <path d="M8 16c-4.4112 0-8-3.5888-8-8s3.5888-8 8-8 8 3.5888 8 8-3.5888 8-8 8zm.7187-10.9765l-.008-.0023A.5198.5198 0 0 0 8.5642 5c-.251 0-.4721.1829-.538.4447L6.8218 10.237a.641.641 0 0 0 .0543.4575c.074.1396.194.2398.338.282l.008.0023A.5194.5194 0 0 0 7.3687 11c.2509 0 .472-.1829.5379-.4448L9.111 5.763a.6409.6409 0 0 0-.0542-.4574c-.074-.1397-.194-.2399-.338-.282zM6.1272 6.0352c.1054-.1138.1634-.2651.1634-.426 0-.161-.058-.3123-.1634-.4262l-.006-.0065C6.0158 5.0627 5.8758 5 5.7268 5c-.149 0-.2891.0627-.3944.1765l-2.169 2.3432C3.058 7.6335 3 7.7848 3 7.9457c0 .161.058.3123.1634.426l2.169 2.3431c.1053.1139.2454.1766.3944.1766.149 0 .289-.0627.3944-.1766l.006-.0065c.2175-.235.2175-.6172 0-.8522l-1.568-1.694a.317.317 0 0 1-.083-.2165.3165.3165 0 0 1 .083-.2164l1.568-1.694zm6.7095 1.4845l-2.169-2.3432C10.5622 5.0627 10.4221 5 10.2731 5c-.149 0-.289.0627-.3944.1765l-.006.0065c-.1054.1139-.1634.2652-.1634.4261 0 .161.058.3123.1634.4261l1.568 1.694a.317.317 0 0 1 .083.2166.3171.3171 0 0 1-.083.2166l-1.568 1.694c-.1054.1138-.1634.265-.1634.426 0 .161.058.3123.1634.4262l.006.0065c.1054.1138.2454.1765.3944.1765.149 0 .2891-.0627.3944-.1765l2.169-2.3432c.1054-.1138.1634-.2651.1634-.4261 0-.161-.058-.3123-.1633-.4261z" fill-rule="evenodd"/>
</svg>