<svg id="icon-user-settings" viewBox="0 0 16 16" xmlns="http://www.w3.org/2000/svg">
  <path d="M10.037 10.588c-.39887.6941-.56303 1.4985-.46808 2.2934.09495.7949.44398 1.5379.99508 2.1186H0c.00089403-1.3141.437483-2.5909 1.24143-3.6304C2.04538 10.33 3.17131 9.58636 4.443 9.255c.40603.56733.9394 1.0316 1.5573 1.3555.61791.3238 1.30314.4984 2.0007.5095.71285-.0014 1.41357-.1845 2.036-.532zM7.98901 9.114c-2.00203 0-3.625-1.81638-3.625-4.057 0-2.24062 1.62297-4.057 3.625-4.057C9.99105 1 11.614 2.81638 11.614 5.057c0 2.24062-1.62295 4.057-3.62499 4.057zM15.731 11.87c.0632.0023.1235.0268.1704.0692.0468.0425.0772.1001.0856.1628.0179.1682.0179.3378 0 .506-.0079.0594-.0347.1146-.0765.1575-.0418.0429-.0963.0711-.1555.0805l-.451.054c-.0464.01-.0897.0311-.1261.0615-.0364.0305-.0649.0693-.083.1132-.0181.0439-.0253.0915-.0209.1387.0044.0473.0202.0928.046.1326 0 .006.184.243.273.363.0365.0459.0558.103.0547.1616-.0011.0586-.0225.1149-.0607.1594-.1065.1305-.2257.2501-.356.357-.0461.0397-.1052.061-.166.06-.0577-.0006-.1137-.0195-.16-.054l-.356-.274c-.0499-.0316-.1079-.0479-.167-.047-.0681.0019-.1336.0272-.1853.0716-.0517.0444-.0866.1053-.0987.1724l-.054.44c-.0093.059-.0374.1134-.0801.1552-.0427.0418-.0977.0687-.1569.0768-.083.006-.171.012-.255.012-.084 0-.173-.006-.256-.012-.0592-.0079-.1143-.0348-.1571-.0766-.0427-.0418-.0707-.0963-.0799-.1554l-.053-.44c-.0115-.0676-.0462-.129-.0983-.1736s-.1182-.0695-.1867-.0704c-.0629.0022-.1242.0204-.178.053l-.345.268c-.0458.0353-.1021.0543-.16.054-.0601-.0027-.118-.0236-.166-.06-.1303-.1069-.2495-.2264-.356-.357-.0382-.0445-.0596-.1008-.0607-.1594-.0011-.0586.0182-.1157.0547-.1616l.261-.345c.0409-.0505.0622-.1141.06-.179.0001-.0698-.0252-.1372-.0712-.1897-.0461-.0524-.1096-.0863-.1788-.0953l-.427-.054c-.059-.0096-.1133-.0379-.1549-.0808-.0416-.0428-.0683-.098-.0761-.1572-.0178-.1682-.0178-.3378 0-.506.0067-.0597.033-.1154.0748-.1585.0419-.043.0968-.071.1562-.0795l.427-.053c.0695-.0111.1328-.0466.1786-.1001.0458-.0535.0711-.1215.0714-.1919-.0028-.062-.0237-.1217-.06-.172 0 0-.171-.232-.261-.346-.0369-.0454-.058-.1016-.06-.16.0008-.059.022-.1159.06-.161.1068-.1306.2264-.2502.357-.357.0442-.0383.1005-.0598.1589-.0609.0585-.0011.1155.0183.1611.0549l.344.268c.0534.0338.1149.0524.178.054.069.0003.1358-.0244.1882-.0694.0523-.045.0867-.1073.0968-.1756l.053-.44c.0092-.05921.0374-.11383.0803-.15567.043-.04183.0983-.06861.1577-.07633.1675-.01784.3365-.01784.504 0 .0593.00813.1145.0352.1572.07718.0427.04198.0707.09663.0798.15582l.054.44c.0122.0673.0472.1282.0991.1727.0519.0444.1176.0696.1859.0713.0581-.0041.1147-.0204.166-.048 0 0 .237-.178.356-.274.0456-.0366.1026-.056.1611-.0549.0585.0011.1147.0226.1589.0609.1317.1053.2511.225.356.357.0385.0457.0602.1032.0613.1629.0011.0598-.0185.1181-.0553.1651 0 0-.273.357-.273.363-.0331.0443-.0497.0988-.047.154.0009.0675.0242.1327.0662.1856.042.0528.1003.0903.1658.1064 0 0 .302.041.45.053zm-2.366 1.38c.2376-.0003.4653-.0949.6331-.263.1678-.1681.262-.396.2619001-.6335-.0001001-.2376-.0946001-.4653-.2626001-.6332-.168-.168-.3958-.2623-.6334-.2623-.2375 0-.4654.0943-.6334.2623-.168.1679-.2625.3956-.2626001.6332-.0000999.2375.0941001.4654.2619001.6335.1678.1681.3956.2627.6331.263h.002z" fill-rule="nonzero"/>
</svg>