<svg id="icon-paste" viewBox="0 0 16 16" xmlns="http://www.w3.org/2000/svg">
	<path d="M10.001 8.245V4.998h-4.25a.75.75 0 00-.75.75v9.5a.75.75 0 00.75.75h7.5a.75.75 0 00.75-.75v-6.25h-3.25a.752.752 0 01-.75-.752zm2.039 6.373h-5.2a.411.411 0 010-.823h5.2a.411.411 0 010 .823zm-5.609-2.062a.412.412 0 01.409-.408h5.2a.412.412 0 010 .824h-5.2a.412.412 0 01-.409-.416zm6.07-1.647v.001a.436.436 0 01-.46.412h-5.2a.412.412 0 010-.824h5.2a.436.436 0 01.46.411z"/><path d="M10.001 3.998v-2.25a.75.75 0 00-.75-.75H6.732a2 2 0 00-3.462 0H.75a.75.75 0 00-.75.748v10.502a.75.75 0 00.75.75H4V5.747a1.753 1.753 0 011.75-1.75zm-5-1.25a.75.75 0 11.75-.75.75.75 0 01-.75.75zM11.535 8h2.466l-3-3v2.46a.537.537 0 00.534.54z" fill-rule="nonzero"/>
</svg>