<svg id="icon-comments-dots-outline" viewBox="0 0 16 16" xmlns="http://www.w3.org/2000/svg">
    <path d="M4 1h10a1 1 0 0 1 1 1v7a1 1 0 0 1-1 1V4a2 2 0 0 0-2-2H3a1 1 0 0 1 1-1Zm10 11v-1a2 2 0 0 0 2-2V2a2 2 0 0 0-2-2H4a2 2 0 0 0-2 2 2 2 0 0 0-2 2v8a2 2 0 0 0 2 2h1v1a1 1 0 0 0 1.6.8L7 14h5a2 2 0 0 0 2-2Zm-2-9H2a1 1 0 0 0-1 1v8a1 1 0 0 0 1 1h2v2l1.333-1 1.334-1H12a1 1 0 0 0 1-1V4a1 1 0 0 0-1-1ZM4 9a1 1 0 1 0 0-2 1 1 0 0 0 0 2Zm3 0a1 1 0 1 0 0-2 1 1 0 0 0 0 2Zm4-1a1 1 0 1 1-2 0 1 1 0 0 1 2 0Z" fill-rule="evenodd"/>
</svg>