<svg id="icon-logo-cloudstack" viewBox="0 0 16 16" xmlns="http://www.w3.org/2000/svg">
  <path d="M15.8758 4.6826c-.0655-.1238-.1914-.1893-.3642-.1893a.8245.8245 0 0 0-.1575.0162l.01-.104c.0084-.1152-.0196-.2056-.0832-.2687-.0808-.0802-.191-.0864-.2229-.0864-.0066 0-.0103.0002-.0105.0002-.0855.005-.156.0365-.2094.0934-.1118.1191-.1055.3125-.1036.344-.0059.1166-.1105.2687-.1828.2942-.0732.0258-.1377.116-.1506.1348-.0965.1468-.0384.385-.0011.5003l-2.8681.9516a6.0261 6.0261 0 0 1-.7576.1597c-.0325-.006-.0567-.017-.072-.0331a.372.372 0 0 0 .1542-.0176c.1231-.0309.2592-.1004.3651-.1866.0435-.0355.1185-.1239.127-.1338l.0054-.0075c.2409-.3853 1.1052-.8545 1.114-.8592l.0119-.0081c.2423-.2037.24-.4771.2266-.5903.0752-.0416.1304-.1085.1611-.1961.0707-.2016.001-.4668-.1006-.614-.078-.113-.2155-.1726-.3978-.1726a.8506.8506 0 0 0-.0996.006c-.0203-.0715-.0053-.2378.0265-.3706.0866-.3469-.0656-.749-.0722-.766l-.0026-.0059C12.0882 2.3117 11.7873 2 11.1093 2c-.203 0-.3538.03-.3758.0346C9.621 2.204 9.1237 3.0849 9.009 3.3219a.7908.7908 0 0 0-.1726-.0167c-.16 0-.3164.0327-.3239.0343-.4812.108-.5075.5748-.4547.8041.0693.3667.5232.4848.68.5149.148.8038.8376 1.3592.8675 1.3828l.0108.0072c.0222.0117.0354.0254.0396.0407-.2885-.0085-.5196.1836-.5264.1895-.137.1064-.314.1603-.5265.1603-.1595 0-.2795-.0321-.2806-.0324l-.0089-.0025-.0092-.0002c-.1239-.0032-.208-.0281-.2372-.0702a.0774.0774 0 0 1-.012-.0522c.117-.0211.2061-.0754.2652-.1617.162-.2365.0286-.6365.0076-.6953-.1-.7117-.5134-.7887-.6868-.7887a.503.503 0 0 0-.0977.0087c-.2496.0392-.4535.1812-.5895.4108-.1008.17-.129.3278-.1302.3344l-.0006.0046c-.0453.4731.5117.8036.6404.8733.1737.4817.4875.5888.501.5932l.009.003 1.0432.0654c-.115.353-.482.5352-.689.612-.1308-.217-.7511-1.1198-2.14-1.3451-.0756-.6709.33-1.2902.3613-1.337.8502-.972.6684-1.6385.644-1.7137-.0564-.3473-.3121-.923-1.3874-.923-.1964 0-.3333.0215-.3353.022-.5518.0593-.9162.1961-1.083.4067-.097.1223-.0929.2286-.0887.261-.0026.0729.0188.132.0639.176.053.0518.135.078.2436.078.1373 0 .2784-.042.2992-.0485.1295-.0329.2784-.1089.4197-.2142.123-.0918.2885-.111.4057-.111.077 0 .1309.0085.134.009.3277.0424.5571.1564.6816.339.1911.2802.074.6364.0719.6426-.0452.1551-.1755.3267-.2533.4293a2.4913 2.4913 0 0 0-.0401.0539c-.372.5218-.4804.7908-.485.8024-.171.4395-.1936.9346-.1961 1.1044-.566.039-1.3672.2673-2.089 1.1018l-.0059.008c-.0201.0318-.4747.7573-.5441 1.3319a2.2327 2.2327 0 0 0-.3287-.0231c-.585 0-1.6796.205-2.4404 1.582-.0107.0225-.2609.5612-.2333 1.2718.0255.6576.3057 1.587 1.4954 2.2814.0385.0259.429.2732 1.2459.2732.0854 0 .1737-.0027.2591-.008.0087-.0002.2158-.0059.3673-.2155l.006-.0102c.0043-.0091.041-.0918-.0098-.1642-.0598-.0851-.199-.104-.4271-.056a1.7557 1.7557 0 0 1-.194.0095c-.2226 0-.5549-.032-.8714-.1843-.011-.0057-1.1036-.58-1.2849-1.4177l-.003-.0098c-.0032-.0084-.326-.8497.203-1.7165.0034-.0053.339-.528.7074-.765l.0083-.0063c.0048-.0042.485-.4172 1.2094-.4172.1076 0 .2167.009.3245.0271l.0064.0007c.0045.0005.466.0471 1.3646.7225l.0114.0085.014.0037a.5096.5096 0 0 0 .117.0144c.0999 0 .1513-.0368.1768-.0676.0388-.0468.0467-.1113.0236-.1917l-.0025-.007c-.0105-.0247-.2636-.597-1.2496-.822.0027-.1722.037-.7454.3604-1.0113l.0096-.0079.006-.0105c.0061-.0108.6258-1.0718 1.938-1.0718.0739 0 .1497.0033.2253.01l.0107.0003a.9689.9689 0 0 1 .068.003c.0106.0155.0279.0277.057.0277h.032l.0155-.0164c.42.0585 1.3241.3308 1.8844 1.5677.0157.0502.2052.6793.0909 1.2055l-.085.0638c-.09.0392-.7792.3588-1.1188 1.0915l-.0024.0058c-.0101.0292-.2448.7183.0133 1.0021l.0093.0103.0131.0061a.2969.2969 0 0 0 .1169.0237c.0626 0 .1794-.0217.2574-.1664l.0095-.0177-.0025-.0195c-.0009-.0065-.0766-.6547.4934-1.2483.0481-.034.4989-.3404 1.1046-.3404.5266 0 1.0203.226 1.4677.6718.0488.0694.73 1.079-.099 2.0047-.5367.4317-.4781.5131-.45.5523l.0108.0118c.0085.0073.0877.0714.2419.0714.0858 0 .1787-.02.2763-.0594l.01-.0041.0083-.0067c.0364-.0296.8923-.7353.9163-1.6984.0136-.5402-.2395-1.0504-.7524-1.5172.0188-.1143.0562-.4652-.1563-.6207-.0246-.0353-.0928-.1019-.2575-.1019-.1423 0-.3282.0503-.5524.1496-.0202.0055-.118.03-.2536.03a1.1326 1.1326 0 0 1-.0597-.0016c.1556-.0899.3226-.271.3544-.3064.3588-.3077 1.0213-1.4006 1.0497-1.4477.1849-.3123.4348-.4336.437-.4347l.0233-.0109.0042-.0092c.1756-.1121 2.0967-.8664 3.388-1.3625l.1614.0919.0068.0034c.132.0577.2681.087.4045.087.3883 0 .6484-.2338.6593-.2437l.0097-.011c.307-.4394.0323-.9677.0206-.9899zm-7.2543-.3821c-.0702-.0281-.1652-.089-.1781-.215l-.0009-.0058c-.0003-.0015-.028-.1527.0486-.2563.038-.0513.095-.0829.1777-.0972.0002 0 .0199-.0042.0457-.0042.0488 0 .074.0135.0876.0276-.0482.0773-.1558.2769-.1806.5509zm-.82 1.7432c-.0195 0-.032-.003-.0322-.003l-.0078-.0017c-.3766-.0648-.5323-.3587-.5513-.3974-.08-.2888.1732-.535.1785-.54.0783-.0836.1721-.101.237-.101.0266 0 .0465.003.0545.0044.248.1016.33.4728.3309.4766l.0026.009c.0767.202.0603.3011.0573.3152-.086.2069-.2056.2379-.2695.2379zm4.5292-1.993a.1294.1294 0 0 1 .0926.0353c.0014.0013.1377.129.083.23-.0123.0042-.0315.0061-.0362.004-.0241-.0268-.1265-.1374-.2369-.2054-.001-.0007-.0215-.014-.0228-.0325.0258-.0127.0723-.0314.1203-.0314zm-2.0542 3.4352l-.0019.0046c-.0046.0136-.4665 1.3278-1.5165 1.5197-.006-.1879-.0357-.6698-.1854-.947.1774-.0846.6576-.3527 1.2272-.9953.0014-.0018.1684-.2106.386-.158a.2303.2303 0 0 1 .1342.1084c.0585.105.0434.2667-.0436.4676zm-.1247-1.4412c-.0084-.0048-.8347-.4809-.7038-1.1483.0255-.0297.1159-.122.2812-.1575l.096-.0205-.0516-.0778c-.0054-.008-.5276-.81-.057-1.3671.004-.0048.41-.4768.9242-.4768.2262 0 .4441.0919.6478.273l.0397.0353.0466-.027c.0017-.001.1785-.102.3405-.102.085 0 .145.0273.1866.0855-.0108.09-.0468.4254-.0234.7145.0023.0166.0596.4067.4064.64.0356.0391.2433.2879.0021.5166-.0834.0548-.9499.6304-1.1332 1.0051-.029.0349-.2257.2561-.5371.2561-.1485 0-.3041-.0497-.465-.149zm4.7843-1.4715c.0508.012.0817.0627.0851.0984l-.1.0016a1.9458 1.9458 0 0 0 .0149-.1zm.7128.8607c-.0057.009-.152.2282-.5528.2124h-.0029l-.0116.0001c-.0764 0-.3262-.014-.332-.1943l-.0003-.009-.0029-.0086c-.0017-.0051-.0423-.1247-.1131-.2041-.0079-.0157-.0415-.1016.0827-.22.031-.0263.061-.0415.09-.0563.0976-.0496.1636-.098.1768-.2954.012-.033.0203-.0899.0346-.1863.0082-.0558.02-.1357.0273-.1704.0139-.0082.031-.0156.0425-.0156.01 0 .027.0273.0342.0882l.0009.0056c.0122.0582.0315.2317-.0254.334l-.0722.1298.1526-.0362c.0014-.0003.1416-.0332.2738-.0332.0882 0 .1343.0145.1574.0267.0239.0126.0581.0556.0825.1386.0412.1402.0404.361-.042.494zM9.9986 4.1714a.1505.1505 0 0 1-.1466-.1109l-.0041-.0158.0044-.0158c.048-.1747.1908-.2749.3915-.2749a.5034.5034 0 0 1 .0738.0051c.3052.0185.4054.2039.4158.2998l.0006.006-.0005.006c-.006.0654-.0554.1077-.1262.1077a.2187.2187 0 0 1-.0678-.0115l-.039-.0138-.0058-.0384c-.0146-.0974-.152-.1341-.1847-.1415-.1479.0088-.1586.0906-.1592.1072l-.0013.035-.0323.0198c-.0418.0239-.0816.036-.1186.036zm1.2316.0111c-.031 0-.0633-.0083-.0989-.0255l-.0412-.0199.0033-.043c.0009-.0112.024-.274.2727-.328a.5454.5454 0 0 1 .1393-.0177c.1652 0 .2952.0743.3661.2093.0175.0376.0634.155-.0182.2088l-.0078.0051-.0089.003a.1411.1411 0 0 1-.0445.0068c-.04 0-.1349-.0161-.167-.1625-.0144-.0206-.066-.0798-.14-.0655l-.0068.001c-.0074.001-.0794.0121-.1012.0859-.0066.0719-.058.1422-.1468.1422zm.2434 1.1477c-.112.1702-.2488.3618-.457.4807-.0987.0565-.2143.0828-.3636.0828h-.0003c-.0712 0-.2509-.0082-.3805-.0833-.119-.069-.1919-.153-.2226-.2566-.0226-.076-.0155-.148-.0086-.2176a.9435.9435 0 0 0 .0062-.0926c0-.0206.0014-.0436.003-.0677.0036-.055.008-.1231-.011-.1575a.1896.1896 0 0 1-.0259-.0175c-.039-.0315-.0543-.0834-.04-.1356.0095-.0357.0291-.06.0553-.07a.2177.2177 0 0 1 .099-.0222c.0797 0 .1534.035.1903.056.0604.0341.1285.068.2024.1005.1444.0634.2729.093.4045.093h.0052c.0243 0 .0491.0006.074.0013.0239.0006.0478.0013.0716.0013a.6814.6814 0 0 0 .0883-.0048 5.6308 5.6308 0 0 1 .2034-.022c.088-.0082.1572-.025.2118-.0515a1.4566 1.4566 0 0 1 .0414-.0191.7684.7684 0 0 0 .0631-.0307c.0152-.0087.0299-.0189.0445-.029a.7773.7773 0 0 1 .05-.0326l.0073-.0045c.034-.0211.065-.0386.0993-.0386l.0156.0013c.0188.0032.046.014.0685.0474.015.022.0396.0751.0267.1184l-.0105.035-.0376.0103c-.0183.005-.0402.0176-.0634.0309-.0178.0102-.0362.0208-.056.0297-.0511.023-.1015.0552-.1502.0864l-.0092.0059c-.0907.0581-.16.1194-.195.1725zm-.8202-.7899c0-.0814.0733-.1476.1635-.1476s.1635.0662.1635.1476c0 .0814-.0733.1476-.1635.1476s-.1635-.0662-.1635-.1476zm.5433.1335c-.0901 0-.1635-.0663-.1635-.1477s.0734-.1476.1635-.1476c.0902 0 .1635.0662.1635.1476 0 .0814-.0733.1477-.1635.1477z"/>
</svg>