<svg id="icon-users" viewBox="0 0 16 16" xmlns="http://www.w3.org/2000/svg">
  <path d="M5.522 7.802c-.70331-.0418-1.36153-.36009-1.83102-.88541-.46949-.52532-.71214-1.21502-.67498-1.91859-.03743-.70373.20509-1.39369.67461-1.91923.46952-.52554 1.1279-.84397 1.83139-.88577.70349.0418 1.36187.36023 1.83139.88577.46952.52554.71204 1.2155.67461 1.91923.03715.70357-.20549 1.39327-.67498 1.91859S6.2253 7.7602 5.522 7.802zm5.386.328c-.6466-.03844-1.25177-.33109-1.68342-.81406-.43164-.48298-.65473-1.11709-.62058-1.76394-.03442-.64702.18854-1.28138.62022-1.76458.43167-.4832 1.03698-.77598 1.68378-.81442.6468.03844 1.2521.33122 1.6838.81442s.6546 1.11756.6202 1.76458c.0342.64685-.1889 1.28096-.6206 1.76394-.4316.48297-1.0368.77562-1.6834.81406zm2.268.09c.8084.21061 1.5241.68334 2.0351 1.34417.511.66083.7885 1.47243.7889 2.30783v1.935H0v-1.935c.00048355-.9085.302184-1.7912.857876-2.50991C1.41357 8.64336 2.19189 8.12917 3.071 7.9c.28063.39239.64937.7135 1.0766.93753.42723.22404.90105.34476 1.3834.35247.48219-.00779.95584-.12855 1.3829-.35258.42706-.22404.79563-.54511 1.0761-.93742.83596.22113 1.58093.70017 2.129 1.369.257.08672.5258.13294.797.137.4432-.00732.8785-.11843 1.271-.32439.3924-.20597.7312-.50106.989-.86161z" fill-rule="nonzero"/>
</svg>