<svg id="icon-logo-facebook" viewBox="0 0 16 16" xmlns="http://www.w3.org/2000/svg">
  <path d="M15.1146 0c.243 0 .4514.0868.625.2604.1736.1736.2604.382.2604.625v14.2292c0 .243-.0868.4514-.2604.625-.1736.1736-.382.2604-.625.2604h-4.073V9.802h2.073l.3125-2.4166h-2.3854V5.8438c0-.389.0816-.6806.2448-.875.1632-.1945.4809-.2917.953-.2917l1.271-.0104V2.5104c-.4376-.0625-1.0556-.0937-1.8543-.0937-.9444 0-1.6996.2777-2.2656.8333-.566.5556-.849 1.3403-.849 2.3542v1.7812H6.4584v2.4167h2.0834V16H.8854c-.243 0-.4514-.0868-.625-.2604C.0868 15.566 0 15.3576 0 15.1146V.8854C0 .6424.0868.434.2604.2604.434.0868.6424 0 .8854 0h14.2292z" fill-rule="nonzero"/>
</svg>