<svg id="icon-warning-outline" viewBox="0 0 16 16" xmlns="http://www.w3.org/2000/svg">
  <path d="M8.00002994 10.4999962c.15391-.0002962.30579.0351038.44373.1034038.13795.0682.25821.1675.35137.29.13682.1794.20896.3997.20472.6253-.00425.2255-.08464.443-.22811.6171-.14347.1741-.34159.2945-.56217.3417-.22058.0473-.45065.0186-.65284-.0815-.20218-.1-.36459-.2655-.46084-.4695-.09625-.204-.12068-.4346-.06933-.6543.05136-.2196.17549-.4155.35221-.5557.17673-.1402.39567-.2165038.62126-.2165038zm.00697-7.01704429c.26521.00190809.51882.10905809.70504.29789809.18622.18885.2898.44393.28796.70915v4.03499c-.00289.26122-.10942.5106-.29616.69327-.18675.18267-.43841.28367-.69963.28090745l-.00421-.00017745c-.26332.00002-.51602-.10382-.70325-.28899-.18722-.18516-.29385-.4367-.29675-.7V4.476c.00187-.26522.10901-.51883.29785-.70505.18885-.18622.44394-.2898.70915-.28799809zM15.7528 11.1447l.0153.0397c.0927.2392.2319.5989.2319 1.0913C16 13.7564 14.8441 15 13.3624 15H2.63675C1.15486 15 0 13.7544 0 12.2757c0-.4924.138691-.8506.231116-1.0894l.01511-.0391.039637-.1031L5.65199 1.41651l.00616-.01094C6.17092.505074 6.99336.141039 7.71747.0183399L7.8257 0h.34982l.1086.0184685C9.00628.141276 9.82939.505573 10.3411 1.40726l.0052.00909 5.3678 9.62765.0387.1007zm-14.41947 1.131c0 .7519.58421 1.3607 1.30425 1.3607H13.3624c.7209 0 1.3043-.6079 1.3043-1.3607 0-.2295-.057-.3776-.1548-.6321l-.0036-.0093-5.32031-9.54248c-.25168-.44346-.65587-.64882-1.12257-.72818h-.13001c-.46836.07936-.87255.28472-1.12507.72818L1.49168 11.6343l-.00459.0119c-.0972.2528-.15376.3999-.15376.6295z" fill-rule="nonzero"/>
</svg>