<svg id="icon-circle-question-outline" viewBox="0 0 16 16" xmlns="http://www.w3.org/2000/svg">
  <path d="M8 16A8 8 0 1 1 8 0a8 8 0 0 1 0 16zm0-1.533A6.467 6.467 0 1 0 8 1.533a6.467 6.467 0 0 0 0 12.934zm-.951-5.1c0-.909.451-1.565 1.442-2.14.925-.55 1.24-.95 1.24-1.545 0-.647-.536-1.1-1.299-1.1-1.128 0-1.714.591-1.8 1.728l-.02.267L5 6.497l.006-.268C5.05 4.323 6.414 3 8.44 3c1.628 0 2.946 1.14 2.946 2.682 0 1.19-.597 1.967-1.988 2.772-.588.353-.724.55-.724 1.007v1.028H7.049V9.368zM6.85 11h2v2H6.859l-.009-2z" fill-rule="nonzero"/>
</svg>