<svg id="icon-comments-dots" viewBox="0 0 16 16" xmlns="http://www.w3.org/2000/svg">
  <path d="M12.544 5.668c0 2.572-2.807 4.668-6.27 4.668-.647 0-1.073.023-1.073.023l-2.169 2.306-.153-3.068C1.148 8.749 0 7.304 0 5.668 0 3.075 2.807 1 6.273 1c3.467 0 6.271 2.075 6.271 4.668zm.46-.117c1.768.592 3.001 1.909 2.996 3.457 0 1.333-.923 2.503-2.327 3.174l-.123 2.485-1.758-1.865s-.349-.02-.866-.02c-1.902 0-3.559-.779-4.43-1.927h.295c3.463 0 6.27-2.096 6.27-4.668a3.59 3.59 0 0 0-.056-.636h-.001zM6.167 6.667a1 1 0 1 0 0-2 1 1 0 0 0 0 2zm3 0a1 1 0 1 0 0-2 1 1 0 0 0 0 2zm-6 0a1 1 0 1 0 0-2 1 1 0 0 0 0 2z" fill-rule="nonzero"/>
</svg>