<svg id="icon-file-outline" viewBox="0 0 16 16" xmlns="http://www.w3.org/2000/svg">
  <path d="M15 13.824V4.528c0-.356-.144-.69-.424-.942L11.019.39A1.552 1.552 0 0 0 9.975 0H3.627C2.175 0 1 1.06 1 2.363V13.73C1 14.982 2.128 16 3.523 16h9.073C13.933 16 15 15.024 15 13.824zM13.5 4h-2.378a.623.623 0 0 1-.622-.622V1l3 3zM4 11.5c0-.276.23-.5.5-.5h7c.276 0 .5.232.5.5 0 .276-.23.5-.5.5h-7a.505.505 0 0 1-.5-.5zm0-2c0-.276.23-.5.5-.5h7c.276 0 .5.232.5.5 0 .276-.23.5-.5.5h-7a.505.505 0 0 1-.5-.5zm0-2c0-.276.23-.5.5-.5h7c.276 0 .5.232.5.5 0 .276-.23.5-.5.5h-7a.505.505 0 0 1-.5-.5zM1.889 2.404c0-.857.776-1.553 1.738-1.553H9.5v2.455C9.5 4.283 10.473 5 11.354 5h2.757v8.776c0 .754-.668 1.368-1.515 1.368H3.522c-.904 0-1.633-.655-1.633-1.46V2.403z" fill-rule="evenodd"/>
</svg>