<svg id="icon-address-book" viewBox="0 0 16 16" xmlns="http://www.w3.org/2000/svg">
  <path d="M0 1.27299986V14.7309999c0 .3376.134119.6614.372853.9001.238734.2388.562526.3729001.900147.3729001h.58V.00400001h-.58c-.336929 0-.660117.13356885-.898736.37143785-.238619.237869-.37320531.560635-.374264.897562zM14.727 0H2.991v16h11.736c.3376 0 .6614-.1341001.9001-.3729001.2388-.2387.3729-.5625.3729-.9001V1.27299986c0-.16717-.0329-.332708-.0969-.487156-.064-.154447-.1577-.294782-.276-.412991C15.3884.13411886 15.0646 0 14.727 0zM9.488 3.81899986c.6082.03612 1.1775.31139 1.5835.76573.406.45433.6157 1.05082.5835 1.65927.032.60812-.1778 1.20421-.5835 1.6583-.4058.45408-.9746.72932-1.5825.7657-.60823-.03612-1.17747-.31139-1.58347-.76573-.40599-.45433-.61577-1.05082-.58353-1.65927-.03196-.60828.17793-1.20452.5839-1.65863.40597-.45411.97505-.72924 1.5831-.76537h-.001zM4.714 12.1869999c.00024-.7856.26099-1.5489.74142-2.1705.48042-.62157004 1.15341-1.06628004 1.91358-1.26450004.2378.34405.55552.62526.9259.81951.37039.19424.78237.29572 1.2006.29572.41823 0 .8302-.10148 1.2006-.29572.3704-.19425.6881-.47546.9259-.81951.76.19818 1.4329.64274 1.9133 1.26410004.4804.6214.7412 1.3845.7417 2.1699l-9.563.001z" fill-rule="nonzero"/>
</svg>