<svg id="icon-logo-twitter" viewBox="0 0 16 16" xmlns="http://www.w3.org/2000/svg">
  <path d="M5.03168 14.0008c6.03772 0 9.34012-5.00221 9.34012-9.34013 0-.14208 0-.28352-.0096-.42432.6425-.46469 1.1971-1.04008 1.6378-1.6992-.5991.26548-1.2347.43957-1.8854.51648.6852-.41025 1.1981-1.0555 1.4432-1.81568-.6444.38237-1.3494.65185-2.0845.7968-.495-.52628-1.1496-.87477-1.8625-.99154-.713-.116773-1.4445.00469-2.08149.34558-.63697.34089-1.14383.88221-1.44215 1.54019-.29832.65799-.37147 1.39595-.20812 2.09969-1.30512-.06543-2.58189-.40459-3.74743-.99546S1.93782 2.61296 1.1136 1.59891C.693819 2.32158.565248 3.17706.754066 3.99119c.188819.81413.680824 1.52569 1.375854 1.9898C1.60751 5.96551 1.0965 5.82458.64 5.57011v.0416c.000207.7579.262567 1.4924.74258 2.07891.48001.58652 1.14813.98894 1.89102 1.13901-.48328.1318-.99035.15107-1.48224.05632.20977.65227.61815 1.22265 1.16805 1.63145.54989.4087 1.21378.6354 1.89883.6482-1.16241.9136-2.59836 1.4095-4.0768 1.408-.261182-.0005-.522109-.0163-.78144-.0473 1.50121.9633 3.24794 1.4743 5.03168 1.472" fill-rule="nonzero"/>
</svg>