<svg id="icon-key" viewBox="0 0 16 16" xmlns="http://www.w3.org/2000/svg">
  <path d="M.477 15.486a.179.179 0 0 0 .109.056l3.36.43a.179.179 0 0 0 .149-.05l5.31-5.32a5.354 5.354 0 0 0 4.973-1.438 5.375 5.375 0 0 0 0-7.592 5.354 5.354 0 0 0-7.58 0A5.374 5.374 0 0 0 5.366 6.55l-.917.92a.18.18 0 0 0-.051.148l.293 2.295-2.292-.293a.179.179 0 0 0-.2.2l.293 2.295-2.29-.293a.179.179 0 0 0-.2.2l.429 3.365c.005.037.02.071.046.099M10.528 5.429a1.433 1.433 0 0 1 0-2.025 1.428 1.428 0 0 1 2.022 0c.558.56.558 1.466 0 2.025-.559.559-1.464.559-2.022 0" fill-rule="evenodd"/>
</svg>