<svg id="icon-inbox-multiple" viewBox="0 0 16 16" xmlns="http://www.w3.org/2000/svg">
	<path d="m15.855 10.041-1.293-4.518a1.062 1.062 0 0 0-.124-.35c-.006-.012-.008-.024-.014-.036a1 1 0 0 0-.454-.41 1.218 1.218 0 0 0-.585-.165H10.01l-.793-2.775a.89.89 0 0 0-.102-.286l-.012-.03a.817.817 0 0 0-.372-.336A1.002 1.002 0 0 0 8.251 1H2.144a.958.958 0 0 0-.964.787L0 5.924V8.64a.948.948 0 0 0 .974.917h2.632l-.29 1.01v3.314A1.156 1.156 0 0 0 4.507 15h10.305A1.156 1.156 0 0 0 16 13.88v-3.335ZM4.338 6.985a.347.347 0 0 1-.248-.162l-.381-.72a.354.354 0 0 0-.315-.183H1.396l.978-3.442a.312.312 0 0 1 .305-.22h5.085a.31.31 0 0 1 .305.223l.56 2.081H5.928a1.167 1.167 0 0 0-1.172.959Zm7.524 3.577a.433.433 0 0 0-.383.224l-.47.88a.434.434 0 0 1-.384.223H8.693a.435.435 0 0 1-.385-.224l-.466-.878a.43.43 0 0 0-.383-.223H5.022l.286-1.007.73-2.566.178-.629a.382.382 0 0 1 .372-.268h6.203a.381.381 0 0 1 .373.272l1.136 4.196Z" fill-rule="nonzero"/>
</svg>