<svg id="icon-asterisk" viewBox="0 0 16 16" xmlns="http://www.w3.org/2000/svg">
  <path d="M9.464 0c.533 0 .944.473.874 1.006L9.699 5.82l3.874-2.979a.879.879 0 0 1 1.296.259l1.01 1.747a.892.892 0 0 1-.42 1.268L10.999 8l4.46 1.885c.49.208.69.804.42 1.268L14.87 12.9a.879.879 0 0 1-1.296.26l-3.874-2.98.639 4.813A.886.886 0 0 1 9.464 16H7.535a.886.886 0 0 1-.873-1.006l.635-4.814-3.87 2.978a.879.879 0 0 1-1.296-.258l-1.01-1.747a.892.892 0 0 1 .42-1.268L6 8 1.54 6.114a.892.892 0 0 1-.42-1.268L2.13 3.1a.877.877 0 0 1 1.296-.26l3.87 2.979-.635-4.814A.885.885 0 0 1 7.535 0h1.93" fill-rule="evenodd"/>
</svg>