<svg id="icon-attachment" viewBox="0 0 16 16" xmlns="http://www.w3.org/2000/svg">
  <path d="M4.69016689 15.9997673c-1.20983.0113-2.38129-.4242-3.29-1.223-.439329-.3787-.791827-.8477-1.033457-1.375C.1250799 12.8744673 0 12.3012673 0 11.7212673c0-.58.1250799-1.1532.3667099-1.6805.24163-.52731.594128-.9963 1.03345699-1.375L10.0231669.9157663c.6835-.590709 1.5566-.9157663 2.46-.9157663s1.7765.3250573 2.46.9157663c.3316.286511.5977.641081.78 1.039601.1824.39852.2768.83164.2768 1.2699s-.0944.87138-.2768 1.2699c-.1823.39852-.4484.75309-.78 1.0396l-8.61000001 7.706c-.44503.3914-1.01737.6072-1.61.6072s-1.16497-.2158-1.61-.6072c-.22129-.1923-.39873-.4299-.52033-.6967-.1216-.2668-.18452-.5566-.18452-.8498s.06292-.583.18452-.8498c.1216-.2668.29904-.5044.52033-.6967l6.94400001-6.241.916 1.02-6.94300001 6.24c-.07817.0636-.14119.1438-.18447.2348-.04328.0909-.06574.1904-.06574.2912s.02246.2002.06574.2912c.04328.091.1063.1712.18447.2348.1943.1635.44008.2531.694.2531.25392 0 .4997-.0896.694-.2531l8.61000001-7.706c.1883-.15778.3397-.35491.4437-.57753.1039-.22262.1577-.4653.1577-.71097s-.0538-.48836-.1577-.71097c-.104-.22262-.2554-.41975-.4437-.57753-.4292-.36994-.9769-.57344-1.5435-.57344-.5666 0-1.1143.2035-1.5435.57344l-8.62400001 7.75c-.29586.25017-.53361.5618-.69668.9133-.16308.3515-.24756.7342-.24756 1.1217 0 .3874.08448.7702.24756 1.1217.16307.3515.40082.6631.69668.9133.66014.5693 1.50282.8824 2.3745.8824.87169 0 1.71436-.3131 2.3745-.8824l6.97700001-6.27.916 1.02-6.97700001 6.27c-.90908.7996-2.08135 1.2355-3.292 1.224z" fill-rule="nonzero"/>
</svg>