<svg id="icon-user" viewBox="0 0 16 16" xmlns="http://www.w3.org/2000/svg">
  <path d="M11.557 9.255c-.4057.56717-.9387 1.0313-1.5563 1.3552-.61756.3239-1.30245.4985-1.9997.5098-.69756-.0111-1.38279-.1857-2.0007-.5096-.6179-.3238-1.15127-.78808-1.5573-1.3554-1.27169.33136-2.39762 1.075-3.20157 2.1145C.437483 12.4091.00089403 13.6859 0 15h16c-.0009-1.3141-.4375-2.5909-1.2414-3.6305-.804-1.0395-1.9299-1.78314-3.2016-2.1145zm-7.551 1.751c1.07202 1.0353 2.50415 1.614 3.9945 1.614 1.49035 0 2.9225-.5787 3.9945-1.614 1.0449.5065 1.8503 1.4016 2.244 2.494H1.76c.39403-1.0926 1.19976-1.9876 2.245-2.494h.001zm3.982-1.893c1.01737-.06038 1.96955-.52076 2.6487-1.28066.6791-.7599 1.0301-1.7576.9763-2.77534.0541-1.01791-.2968-2.01587-.9759-2.77599C9.95789 1.5209 9.00555 1.06037 7.988 1c-1.01738.06063-1.96946.52126-2.64842 1.28135C4.66061 3.04144 4.3099 4.03926 4.364 5.057c-.05382 1.01758.29701 2.01514.97595 2.77501.67893.75987 1.63086 1.22036 2.64805 1.28099zm0-6.613c.61847.0631 1.1875.36628 1.58485.8444.39734.47812.59125 1.09303.54015 1.7126.0511.61946-.14285 1.23425-.54022 1.71221-.39736.47796-.9664.78094-1.58478.84379-.6181-.06335-1.18673-.36649-1.58383-.84436-.39711-.47788-.59104-1.09239-.54017-1.71164-.05115-.61941.14266-1.23418.53979-1.71228.39714-.47809.96592-.78138 1.58421-.84472z" fill-rule="nonzero"/>
</svg>