<svg id="icon-list-alt" viewBox="0 0 16 16" xmlns="http://www.w3.org/2000/svg">
  <path d="M1.804 11.37a1.81 1.81 0 0 1 1.803 1.816A1.81 1.81 0 0 1 1.804 15 1.81 1.81 0 0 1 0 13.185a1.81 1.81 0 0 1 1.804-1.815ZM15 12c.601 0 1 .488 1 1.089s-.399 1.089-1 1.089H6.14a1.09 1.09 0 1 1 0-2.178H15ZM1.804 6.444A1.81 1.81 0 0 1 3.607 8.26a1.81 1.81 0 0 1-1.803 1.815A1.81 1.81 0 0 1 0 8.26a1.81 1.81 0 0 1 1.804-1.815ZM15 7c.601 0 1 .488 1 1.089s-.399 1.089-1 1.089H6.14A1.09 1.09 0 1 1 6.14 7H15ZM1.804 1a1.81 1.81 0 0 1 1.803 1.814A1.81 1.81 0 0 1 1.804 4.63 1.81 1.81 0 0 1 0 2.814 1.81 1.81 0 0 1 1.804 1ZM15 2c.601 0 1 .488 1 1.089s-.399 1.089-1 1.089H6.14A1.09 1.09 0 1 1 6.14 2H15Z"/>
</svg>