<svg id="icon-list-alt" viewBox="0 0 16 16" xmlns="http://www.w3.org/2000/svg">
	<ellipse cx="1.666" cy="14.342" rx="1.666" ry="1.658" fill-rule="nonzero"/>
	<path d="M14.626 12.974H6.574A1.371 1.371 0 0 0 5.2 14.342a1.371 1.371 0 0 0 1.374 1.368h8.052A1.371 1.371 0 0 0 16 14.342a1.371 1.371 0 0 0-1.374-1.368ZM1.666 6.346A1.658 1.658 0 1 0 3.33 8.004a1.662 1.662 0 0 0-1.665-1.658ZM14.626 6.636H6.574A1.371 1.371 0 0 0 5.2 8.004a1.371 1.371 0 0 0 1.374 1.368h8.052A1.371 1.371 0 0 0 16 8.004a1.371 1.371 0 0 0-1.374-1.368Z" fill-rule="nonzero"/>
	<ellipse cx="1.666" cy="1.658" rx="1.666" ry="1.658" fill-rule="nonzero"/>
	<path d="M6.574 3.026h8.052a1.368 1.368 0 1 0 0-2.736H6.574A1.371 1.371 0 0 0 5.2 1.658a1.371 1.371 0 0 0 1.374 1.368Z" fill-rule="nonzero"/>
</svg>