<svg id="icon-circle-gear-outline" viewBox="0 0 16 16" xmlns="http://www.w3.org/2000/svg">
    <path d="M8 16c-4.411 0-8-3.589-8-8s3.589-8 8-8 8 3.589 8 8-3.589 8-8 8ZM8 1.6A6.407 6.407 0 0 0 1.6 8c0 3.529 2.871 6.4 6.4 6.4 3.529 0 6.4-2.871 6.4-6.4 0-3.529-2.871-6.4-6.4-6.4Zm4.356 5.914c.028.283.028.568 0 .85a.461.461 0 0 1-.388.398c-.25.027-.758.092-.758.092a.495.495 0 0 0-.388.481c0 .102.027.194.083.268 0 .01.305.407.462.61.13.157.12.388-.01.545a3.691 3.691 0 0 1-.6.601.396.396 0 0 1-.277.102.411.411 0 0 1-.268-.092l-.601-.463a.495.495 0 0 0-.758.324l-.092.74a.46.46 0 0 1-.398.388c-.138.01-.286.018-.424.018-.14 0-.287-.009-.426-.018a.461.461 0 0 1-.397-.389s-.092-.73-.092-.739a.487.487 0 0 0-.481-.407.534.534 0 0 0-.296.093l-.582.453a.411.411 0 0 1-.268.092.444.444 0 0 1-.277-.102 3.695 3.695 0 0 1-.601-.6.432.432 0 0 1-.01-.546l.444-.582a.482.482 0 0 0-.324-.777l-.72-.092a.46.46 0 0 1-.388-.398 4.376 4.376 0 0 1 0-.85.451.451 0 0 1 .388-.397l.72-.093a.497.497 0 0 0 .426-.49.47.47 0 0 0-.102-.286l-.443-.583a.42.42 0 0 1 .009-.545 3.69 3.69 0 0 1 .6-.601.431.431 0 0 1 .546-.01l.582.454a.533.533 0 0 0 .296.092c.24 0 .444-.175.48-.407l.093-.74a.46.46 0 0 1 .397-.387c.283-.028.568-.028.85 0a.46.46 0 0 1 .398.388l.092.74c.046.23.24.406.48.406a.572.572 0 0 0 .278-.083l.6-.462a.431.431 0 0 1 .546.009c.222.176.425.38.6.6a.433.433 0 0 1 .01.546s-.462.601-.462.61a.43.43 0 0 0-.083.26c0 .24.166.434.388.489 0 0 .508.065.758.093a.46.46 0 0 1 .388.397ZM7.94 9.445a1.507 1.507 0 1 0-.001-3.013 1.507 1.507 0 0 0 0 3.013Z" fill-rule="nonzero"/>
</svg>