<svg id="icon-map-marker-outline" viewBox="0 0 16 16" xmlns="http://www.w3.org/2000/svg">
  <path d="M8 3c.833 0 1.542.292 2.125.875S11 5.167 11 6s-.292 1.542-.875 2.125A2.893 2.893 0 0 1 8 9a2.893 2.893 0 0 1-2.125-.875A2.893 2.893 0 0 1 5 6c0-.833.292-1.542.875-2.125A2.893 2.893 0 0 1 8 3zm0 5c.542 0 1.01-.198 1.406-.594C9.802 7.01 10 6.542 10 6c0-.542-.198-1.01-.594-1.406A1.922 1.922 0 0 0 8 4c-.542 0-1.01.198-1.406.594A1.922 1.922 0 0 0 6 6c0 .542.198 1.01.594 1.406C6.99 7.802 7.458 8 8 8zm0-8c1.083 0 2.083.27 3 .812A6.115 6.115 0 0 1 13.187 3c.542.917.813 1.917.813 3 0 .667-.083 1.255-.25 1.766-.167.51-.49 1.14-.969 1.89-.333.521-1.02 1.531-2.062 3.031l-2.094 3A.717.717 0 0 1 8 16a.717.717 0 0 1-.625-.313l-2.094-3c-1.041-1.5-1.729-2.51-2.062-3.03-.48-.75-.802-1.381-.969-1.891C2.083 7.256 2 6.666 2 6c0-1.083.27-2.083.812-3A6.115 6.115 0 0 1 5 .812 5.791 5.791 0 0 1 8 0zm0 14.812l1.937-2.78c1-1.438 1.657-2.386 1.97-2.845.437-.708.728-1.276.874-1.703C12.927 7.057 13 6.562 13 6a4.937 4.937 0 0 0-1.469-3.531A4.937 4.937 0 0 0 8 1a4.937 4.937 0 0 0-3.531 1.469A4.937 4.937 0 0 0 3 6c0 .562.073 1.057.219 1.484.146.427.437.995.875 1.703.312.459.968 1.407 1.968 2.844A289.761 289.761 0 0 1 8 14.812z" fill-rule="nonzero"/>
</svg>
