<svg id="icon-unlock-outline" viewBox="0 0 16 16" xmlns="http://www.w3.org/2000/svg">
	<path d="M8 9.23a1.355 1.355 0 0 0-1.308 1.395 1.422 1.422 0 0 0 .604 1.177v1.243a.694.694 0 0 0 .67.716h.068a.695.695 0 0 0 .67-.716v-1.243a1.423 1.423 0 0 0 .604-1.177A1.355 1.355 0 0 0 8 9.23Z" fill-rule="nonzero"/>
	<path d="M13.716 6.99H4.67V4.836a3.326 3.326 0 0 1 6.601-.589h1.5a4.818 4.818 0 0 0-9.601.589v2.156h-.886A1.288 1.288 0 0 0 1 8.276v6.439A1.288 1.288 0 0 0 2.284 16h11.432A1.288 1.288 0 0 0 15 14.715V8.276a1.288 1.288 0 0 0-1.284-1.285Zm-.216 7.008a.5.5 0 0 1-.5.5H3a.5.5 0 0 1-.5-.5V8.993a.5.5 0 0 1 .5-.5h10a.5.5 0 0 1 .5.5Z" fill-rule="nonzero"/>
</svg>