<svg id="icon-autopay" viewBox="0 0 16 16" xmlns="http://www.w3.org/2000/svg">
  <path d="M14.3973868.11984641c-.0071-.027292-.0212-.0522295-.0411-.0722876-.0198-.0200582-.0445-.0345245-.0717-.04193431-.0272-.00740977-.0559-.0074998-.0832-.00026098-.0272.00723879-.0521.02154939-.072.04148279-1.1234 1.1606711-2.6483 1.8476111-4.26200004 1.9200011-1.307.15-4.538-.034-6.843 2.674-.71509.82776-1.21219 1.82098-1.44619 2.88952-.234 1.06855-.1975 2.17861.10619 3.22947999 1.9323-1.71158999 4.34942-2.77930999 6.916-3.05499999.04651-.00111.09194.01404.12849.04282.03654.02878.06192.0694.07174.11487.00983.04547.0035.09294-.0179.13425-.02139.0413-.05652.07386-.09933.09206-2.15461.66966-4.08904 1.90735-5.6 3.58299999-.90818.9134-1.61025 2.0107-2.059 3.218-.054741.2285-.016489.4694.10634.6696.12284.2003.32019.3436.54866.3984.03883.0094.07825.016.118.02.25387.0514.51769.0138.74714-.1064.22945-.1202.41054-.3156.51286-.5536.24528-.6095.56901-1.1843.963-1.71 2.276 1.041 5.6.188 7.60000004-1.7 3.187-3.00599999 4.2-6.75299999 2.776-11.78800099h.001z" fill-rule="nonzero"/>
</svg>