<svg id="icon-arrow-vertical" viewBox="0 0 16 16" xmlns="http://www.w3.org/2000/svg">
    <path d="m7.9.068 4.166 3.953c.125.103.125.425 0 .528l-.962.792c-.125.103-.515.103-.64 0L7.58 2.445 4.696 5.341c-.125.103-.516.103-.641 0l-.96-.792c-.126-.103-.126-.425-.001-.528L7.26.068c.066-.054.235-.07.32-.068.086-.002.256.014.32.068H7.9Zm0 15.864c-.065.054-.235.07-.32.068-.086.002-.255-.014-.32-.068l-4.166-3.953c-.125-.103-.125-.425 0-.528l.961-.792c.125-.103.516-.103.641 0l2.884 2.896 2.883-2.896c.126-.103.516-.103.641 0l.962.792c.125.103.125.425 0 .528L7.9 15.932Z" fill-rule="nonzero"/>
</svg>