<svg id="icon-table" viewBox="0 0 16 16" xmlns="http://www.w3.org/2000/svg">
  <path d="M14.286 0H1.714c-.22495 0-.44773.0440469-.65561.130012C.850506.215977.661593.342045.502433.501019c-.15916.158974-.285448.34774-.371656.555521C.0445694 1.26432 0 1.48705 0 1.712v12.574c.00026494.4545.180932.8903.502312 1.2117S1.2595 15.9997 1.714 16h12.572c.4544-.0005.8901-.1813 1.2114-.5026.3213-.3213.5021-.757.5026-1.2114V1.714c0-.45458-.1806-.890543-.502-1.211981C15.1765.180582 14.7406 0 14.286 0zM14 4H8.25v1H14v1H8.25v1H14v1H8.25v1H14v1H8.25v1H14v1H8.25v1H14v1H2v-1h5.75v-1H2v-1h5.75v-1H2V9h5.75V8H2V7h5.75V6H2V5h5.75V4H2V2h12v2z" fill-rule="nonzero"/>
</svg>