<svg id="icon-circle-arrow-down" viewBox="0 0 16 16" xmlns="http://www.w3.org/2000/svg">
  <path d="M8 16c-4.4112 0-8-3.5888-8-8s3.5888-8 8-8 8 3.5888 8 8-3.5888 8-8 8zM8 1.6C4.4712 1.6 1.6 4.471 1.6 8c0 3.529 2.8712 6.4 6.4 6.4 3.529 0 6.4-2.871 6.4-6.4 0-3.529-2.871-6.4-6.4-6.4zm-.6748 10.4687L3.9084 8.574c-.3728-.3813-.3728-.9993 0-1.3801a.9387.9387 0 0 1 1.3492 0l1.788 1.8288V4.6214c0-.5394.4276-.9759.9544-.9759s.9542.4367.9542.976v4.4011l1.788-1.8288a.939.939 0 0 1 1.3494 0c.3728.3808.3728.9988 0 1.38l-3.417 3.495a.9445.9445 0 0 1-.6748.2857.9444.9444 0 0 1-.6746-.2858z" fill-rule="evenodd"/>
</svg>