<svg id="icon-logo-twitter" viewBox="0 0 16 16" xmlns="http://www.w3.org/2000/svg">
  <path d="M2.28571 0H13.7143C14.97665 0 16 1.02335 16 2.28571V13.7143C16 14.97665 14.97665 16 13.71429 16H2.2857C1.02335 16 0 14.97665 0 13.71429V2.2857C0 1.02335 1.02335 0 2.28571 0zm9.69065 6.02393c.40076-.2892.74869-.6504 1.02364-1.06197-.36808.16316-.76343.27348-1.17844.32287.42361-.25358.74893-.6558.90201-1.13495-.39633.23515-.83542.40592-1.30276.49782C11.04683 4.2489 10.51364 4 9.92344 4 8.59929 4 7.62578 5.23569 7.9248 6.51929c-1.70524-.08576-3.21686-.9025-4.22846-2.14384-.53762.92216-.27888 2.1286.63492 2.73895-.33638-.01032-.65286-.1027-.92953-.25627-.02211.95041.65875 1.83915 1.64554 2.03769-.28872.07838-.60495.09632-.92634.03489.26095.81503 1.01872 1.40818 1.91631 1.42464-.86245.6762-1.94899.97793-3.03725.84967.9079.5821 1.98634.92192 3.14487.92192 3.80928 0 5.96098-3.21736 5.8315-6.103z" fill-rule="evenodd"/>
</svg>