<svg id="icon-mail-outgoing-outline" viewBox="0 0 16 16" xmlns="http://www.w3.org/2000/svg">
	<path d="M0 1v10.868h7.126a5.177 5.177 0 0 1-.056-.718c.001-.268.024-.536.068-.8H1.51V3.305l6.433 4.976a5.1 5.1 0 0 1 2.783-2.041l3.76-2.936v3.3c.576.3 1.09.708 1.514 1.202V1H0Zm8.03 5.425L2.98 2.52h10.06L8.03 6.424Z"/>
	<path d="M12.157 7.299h-.002c-2.113 0-3.826 1.724-3.826 3.85S10.042 15 12.155 15s3.827-1.724 3.827-3.85c0-2.127-1.712-3.85-3.825-3.851Zm.078 5.99-.64-.645 1.028-1.033H9.95v-.918h2.67l-1.027-1.035.64-.644 2.125 2.139-2.123 2.135Z" fill-rule="nonzero"/>
</svg>