<svg id="icon-circle-alert-outline" viewBox="0 0 16 16" xmlns="http://www.w3.org/2000/svg">
  <path d="M8.00002994 10.4999981c.15391-.0002981.30579.0351019.44373.1034019.13795.0682.25821.1675.35137.29.13682.1794.20896.3997.20472.6253-.00425.2255-.08464.443-.22811.6171-.14347.1741-.34159.2945-.56217.3417-.22058.0473-.45065.0186-.65284-.0815-.20218-.1-.36459-.2655-.46084-.4695-.09625-.204-.12068-.4346-.06933-.6543.05136-.2196.17549-.4155.35221-.5557.17673-.1402.39567-.2165019.62126-.2165019zm.00697-7.01702246c.26521.00188436.51882.10903436.70504.29787436.18622.18885.2898.44393.28796.70915v4.03499c-.00289.26122-.10942.5106-.29616.69327-.18675.18267-.43841.28367-.69963.28084994l-.00421-.00011994c-.26332.00002-.51602-.10382-.70325-.28899-.18722-.18516-.29385-.4367-.29675-.7V4.476c.00187-.26522.10901-.51883.29785-.70505.18885-.18622.44394-.2898.70915-.28797436zM8 0c2.1216999 0 4.1565999.842855 5.6568999 2.34315C15.1570999 3.84344 16 5.87827 16 8c0 1.58225-.4692001 3.129-1.3482001 4.4446-.8791 1.3156-2.1285 2.3409-3.5903 2.9464-1.46183996.6055-3.07036996.764-4.62221996.4553-1.55185-.3087-2.97731-1.0706-4.09613-2.1894-1.11882-1.1189-1.880747-2.5443-2.189429-4.09618-.308681-1.55185-.15025475-3.16038.455246-4.62219.605503-1.46181 1.630883-2.71124 2.946473-3.59029C4.87102994.469192 6.41774994 0 8 0zm-6e-8 14.4c1.69739 0 3.32529996-.6743 4.52549996-1.8745 1.2002-1.2002 1.8745-2.82811 1.8745-4.5255s-.6743-3.32525-1.8745-4.52548C11.3252999 2.27428 9.69738994 1.6 7.99999994 1.6c-1.69738 0-3.32525.67428-4.52548 1.87452-1.20023 1.20023-1.87452 2.82809-1.87452 4.52548s.67429 3.3253 1.87452 4.5255c1.20023 1.2002 2.8281 1.8745 4.52548 1.8745z" fill-rule="nonzero"/>
</svg>