<svg id="icon-logo-twitter" viewBox="0 0 16 16" xmlns="http://www.w3.org/2000/svg">
  <path d="M16 3.5431c-.4535.6633-1.0017 1.2285-1.6447 1.6955.0068.0947.0102.2369.0102.4264 0 .8798-.1286 1.758-.3858 2.6345-.2572.8765-.648 1.7174-1.1726 2.5228-.5245.8054-1.1489 1.5178-1.873 2.137-.7243.6194-1.5974 1.1135-2.6194 1.4823-1.022.3689-2.115.5533-3.2792.5533-1.8341 0-3.5127-.4907-5.0355-1.472.2369.027.5008.0406.7919.0406 1.5228 0 2.8798-.467 4.071-1.401-.7106-.0136-1.3468-.2319-1.9086-.6549-.5617-.423-.9475-.9628-1.1573-1.6193.2233.0339.4297.0508.6192.0508.291 0 .5787-.0372.863-.1117-.758-.1557-1.3858-.533-1.8833-1.132C.8985 8.0964.6497 7.401.6497 6.6091v-.0406c.4603.2572.9544.396 1.4823.4163-.4467-.2978-.802-.687-1.066-1.1675C.802 5.3367.67 4.8156.67 4.2538c0-.5956.149-1.1472.4468-1.6548.8189 1.0084 1.8155 1.8156 2.9898 2.4213 1.1743.6058 2.4315.9425 3.7716 1.0102-.0542-.2572-.0812-.5077-.0812-.7513 0-.907.3198-1.6802.9593-2.3198C9.396 2.3198 10.1692 2 11.0761 2c.9476 0 1.7462.3452 2.396 1.0355a6.4298 6.4298 0 0 0 2.0812-.7918c-.2504.7783-.731 1.3807-1.4416 1.807.6294-.0676 1.2589-.2368 1.8883-.5076z" fill-rule="nonzero"/>
</svg>