<svg id="icon-dashboard" viewBox="0 0 16 16" xmlns="http://www.w3.org/2000/svg">
  <path d="M5.286 8.35c.922 0 1.67.747 1.67 1.67v3.31A1.67 1.67 0 0 1 5.286 15H1.67A1.67 1.67 0 0 1 0 13.33v-3.31c0-.923.748-1.67 1.67-1.67h3.616Zm9.044 2.45c.922 0 1.67.748 1.67 1.67v.86A1.67 1.67 0 0 1 14.33 15H9.322a1.67 1.67 0 0 1-1.67-1.67v-.86c0-.923.748-1.67 1.67-1.67h5.008Zm0-4.9c.922 0 1.67.748 1.67 1.67v.86a1.67 1.67 0 0 1-1.67 1.67H9.322a1.67 1.67 0 0 1-1.67-1.67v-.86c0-.922.748-1.67 1.67-1.67h5.008ZM5.286 1c.922 0 1.67.748 1.67 1.67v3.31a1.67 1.67 0 0 1-1.67 1.67H1.67A1.67 1.67 0 0 1 0 5.98V2.67C0 1.748.748 1 1.67 1h3.616Zm9.044 0c.922 0 1.67.748 1.67 1.67v.86a1.67 1.67 0 0 1-1.67 1.67H9.322a1.67 1.67 0 0 1-1.67-1.67v-.86c0-.922.748-1.67 1.67-1.67h5.008Z"/>
</svg>