<svg id="icon-spinner" viewBox="0 0 16 16" xmlns="http://www.w3.org/2000/svg">
  <path d="M14.918 3.572a2.18 2.18 0 10-4.36.008 2.18 2.18 0 004.36-.008zM7.81 0a1.83 1.83 0 10-.006 3.66A1.83 1.83 0 007.81 0zM3.211 2.095a1.506 1.506 0 10-.004 3.012 1.506 1.506 0 00.004-3.012zM2.45 8.369A1.225 1.225 0 100 8.373a1.225 1.225 0 002.45-.004zm.761 3.581a1.227 1.227 0 10-.002 2.453 1.227 1.227 0 00.002-2.452v-.001zm4.797 1.595A1.227 1.227 0 108.004 16a1.227 1.227 0 00.004-2.455zm4.796-1.595a1.227 1.227 0 10-.004 2.452 1.227 1.227 0 00.004-2.451v-.001zm1.971-4.785a1.227 1.227 0 10-.004 2.453 1.227 1.227 0 00.004-2.453z" fill-rule="nonzero"/>
</svg>