<svg id="icon-visible-off" viewBox="0 0 16 16" xmlns="http://www.w3.org/2000/svg">
  <path d="M0 7.594c.077-.177.153-.355.231-.53.532-1.191 1.322-2.175 2.327-2.989.037-.03.074-.059.11-.09.008-.006.013-.016.024-.03L.76 1.995 1.74 1l12.81 13.074-.908.926c-.022-.021-.064-.06-.104-.1-.715-.722-1.432-1.441-2.142-2.167-.1-.103-.181-.13-.324-.081a9.117 9.117 0 0 1-3.28.528A8.615 8.615 0 0 1 .093 7.885C.066 7.818.032 7.755 0 7.69v-.095zm4.759-1.56c.35.356.693.698 1.028 1.047.04.041.048.121.055.185.033.34.016.693.1 1.02A2.132 2.132 0 0 0 8.448 9.82c.045-.01.114-.012.14.015.35.347.694.7 1.04 1.052-1.048.705-2.803.6-3.987-.434-1.31-1.144-1.573-2.992-.882-4.418zm.27-3.422c.518-.124.995-.26 1.48-.351 3.682-.696 7.516 1.216 9.197 4.72.395.822.39.51-.001 1.332-.508 1.068-1.246 1.963-2.121 2.745-.02.018-.041.032-.056.043l-2.109-2.14c.822-1.72-.14-4.558-2.85-4.96-.626-.092-1.241-.043-1.832.21-.04.017-.118.008-.147-.02-.51-.51-1.014-1.024-1.561-1.579zm5.113 5.066l-2.21-2.244c.03-.016.077-.065.123-.064 1.3.028 2.18 1.154 2.087 2.308z" fill-rule="evenodd"/>
</svg>