<svg id="icon-inbox" viewBox="0 0 16 16" xmlns="http://www.w3.org/2000/svg">
  <path d="M14.186 2.288L16 9.026v4.473c0 .8284271-.6715729 1.5-1.5 1.5h-13c-.82842713 0-1.5-.6715729-1.5-1.5V9.056l1.816-6.768C1.92151209 1.54894597 2.55445217 1 3.301 1h9.4c.7465478 0 1.3794879.54894597 1.485 1.288zM10.78 9.046l3.075.002-1.433-5.626c-.0545311-.21498357-.2482086-.36539271-.47-.36500077H4.126c-.21985979-.00017375-.41233516.14756853-.469.36000077L2.151 9.048h3.074c.20494099.00004369.39212635.11630789.483.3l.588 1.177c.09243542.1836741.28037807.2996881.486.3h2.437c.20539413-.0002241.39308336-.1163206.485-.3l.593-1.179c.0912351-.18336351.2781933-.29948662.483-.3z" fill-rule="nonzero"/>
</svg>