<svg id="icon-login" viewBox="0 0 16 16" xmlns="http://www.w3.org/2000/svg">
  <path d="M14.009 0c.5276-.00026514 1.0337.209003 1.4071.581797.3733.372794.5834.878593.5839 1.406203V14.01c0 .5276-.2095 1.0336-.5825 1.4068s-.8789.5829-1.4065.5832H1.991c-.52761.0003-1.033726-.209-1.407082-.5818S.0005302 14.5396 0 14.012V12h2.041v2.01L14.049 14V1.99L2.041 2v2H0V1.99C0 1.46239.209523.95638.582504.583211.955485.210043 1.46139.00026538 1.989 0h12.02zM5.005 12.395V9.01501H0v-1.994h5.005v-3.416l2.503 2.198 2.503 2.197L7.508 10.197l-2.503 2.198z" fill-rule="nonzero"/>
</svg>