<svg id="icon-logo-linux" viewBox="0 0 16 16" xmlns="http://www.w3.org/2000/svg">
  <path d="M6.854 3.67c-.0654.0059-.1115.0371-.1383.0937-.0268.0565-.0521.0848-.076.0848-.0297.006-.0446-.009-.0446-.0446 0-.0715.0566-.1161.1697-.134h.0893zm.7768.125c-.0238.0059-.058-.0135-.1027-.0581-.0446-.0446-.0967-.058-.1562-.0402.1428-.0654.238-.0595.2857.0179.0178.0357.0089.0625-.0268.0803zM4.497 7.607c-.0238-.0059-.0417.003-.0536.0268s-.0253.061-.0402.1116c-.0148.0506-.0312.0908-.049.1206-.018.0297-.0477.0684-.0893.116-.0417.0595-.0447.0953-.009.1072.0238.006.061-.015.1116-.0625a.4484.4484 0 0 0 .1116-.1607.8578.8578 0 0 0 .0179-.0625.2767.2767 0 0 1 .0178-.0536.1593.1593 0 0 0 .0134-.0402.192.192 0 0 0 .0045-.0357v-.0268l-.009-.0223-.0267-.0179zm7.6333 3.2052c0-.1072-.1636-.2322-.491-.375.0238-.0893.0461-.1711.067-.2455a1.4557 1.4557 0 0 0 .0446-.2321 2.725 2.725 0 0 1 .0268-.192c.009-.0476.0104-.1146.0045-.2009a3.1254 3.1254 0 0 1-.009-.174c0-.0298-.0104-.0953-.0312-.1965a4.8299 4.8299 0 0 1-.0357-.183c-.003-.0208-.0179-.0952-.0447-.2232a39.9477 39.9477 0 0 1-.049-.2366c-.0596-.2857-.1995-.5922-.4197-.9196-.2202-.3273-.4345-.5505-.6428-.6696.1429.119.3125.366.5089.741.5178.9643.6785 1.7916.4821 2.482-.0655.238-.2143.363-.4464.375-.1845.0238-.299-.0313-.3437-.1652-.0447-.1339-.0685-.3824-.0714-.7455-.003-.363-.0372-.6815-.1027-.9552-.0536-.2322-.1116-.4375-.1741-.616-.0625-.1786-.1205-.314-.174-.4063-.0537-.0922-.0998-.1652-.1385-.2187a.8944.8944 0 0 0-.116-.134 4.1877 4.1877 0 0 1-.067-.0624c-.0833-.369-.1756-.6756-.2768-.9196-.1011-.244-.189-.4107-.2633-.5a2.4758 2.4758 0 0 1-.2098-.2946 1.0323 1.0323 0 0 1-.134-.3571c-.0238-.125-.006-.2842.0536-.4777.0595-.1934.073-.3407.0402-.4419-.0328-.1012-.1652-.1756-.3973-.2232-.0893-.0178-.2217-.0714-.3973-.1607-.1756-.0893-.2812-.1369-.317-.1428-.0476-.006-.0803-.0834-.0981-.2322-.0179-.1488.0059-.3005.0714-.4553.0654-.1547.1726-.235.3214-.241.2202-.0179.372.0714.4553.2678.0833.1964.0952.369.0357.5178-.0655.1131-.0714.192-.0178.2366.0535.0446.1428.0461.2678.0045.0774-.0238.116-.131.116-.3214v-.3304c-.0297-.1785-.0699-.3273-.1205-.4464-.0506-.119-.113-.2098-.1875-.2723-.0744-.0625-.1443-.107-.2098-.1339-.0654-.0268-.1458-.049-.241-.067-.6369.0477-.9017.4465-.7946 1.1964 0 .0893-.003.134-.009.134-.0535-.0536-.1413-.0849-.2633-.0938-.122-.009-.2202-.0075-.2946.0044-.0744.012-.1205-.003-.1384-.0446.006-.3393-.0417-.6071-.1428-.8035-.1012-.1964-.2351-.2976-.4018-.3036-.1607-.006-.2842.076-.3705.2456a1.3528 1.3528 0 0 0-.1473.5312c-.006.0892.0044.1994.0312.3303.0268.131.0655.2425.116.3348.0507.0923.0968.1324.1385.1205.0595-.0178.1071-.0595.1428-.125.0238-.0535.003-.0773-.0625-.0714-.0416 0-.0878-.0431-.1384-.1294-.0506-.0863-.0788-.186-.0848-.2991-.006-.131.0209-.241.0804-.3304.0595-.0892.1607-.1309.3035-.125.1012 0 .1816.0625.241.1875.0596.125.0879.241.0849.3482-.003.1072-.0074.1726-.0134.1964-.131.0893-.2232.1756-.2768.259-.0476.0714-.1294.1413-.2455.2098-.116.0684-.177.1056-.183.1116-.0774.0833-.1235.1636-.1384.241-.0149.0774.0075.131.067.1607a.9796.9796 0 0 1 .2232.1741c.0654.0684.113.125.1428.1696.0298.0447.0848.0834.1652.116.0803.0328.186.0522.317.0581.2797.012.5832-.0327.9106-.1339.0119-.006.0803-.0268.2053-.0625.125-.0357.2277-.067.308-.0937.0804-.0268.1682-.0655.2634-.116.0952-.0507.1577-.1028.1875-.1563.0536-.0834.113-.1072.1785-.0715a.1237.1237 0 0 1 .058.076c.009.0327 0 .0684-.0267.107-.0268.0388-.0759.067-.1473.0849-.119.0357-.2872.0997-.5044.192a37.8789 37.8789 0 0 0-.4063.174c-.2619.1131-.4702.1816-.625.2054-.1487.0297-.3838.0238-.7052-.0179-.0595-.0119-.0863-.006-.0804.0179.006.0238.0566.0803.1518.1696.1488.1369.3482.2024.5982.1964.1012-.006.2083-.0268.3214-.0625a2.575 2.575 0 0 0 .3214-.125 4.0867 4.0867 0 0 0 .299-.1562c.0983-.0566.1875-.1071.2679-.1518a2.0765 2.0765 0 0 1 .2187-.1071c.0655-.0268.1176-.0342.1563-.0223s.064.0446.0759.0982a.1097.1097 0 0 1-.009.0401c-.006.015-.0178.0298-.0357.0447a.628.628 0 0 1-.0535.0402 1.0512 1.0512 0 0 1-.076.0446.996.996 0 0 1-.0803.0402 1.2163 1.2163 0 0 0-.0893.0446c-.0387.0208-.067.0342-.0848.0402-.1666.0833-.3675.2143-.6026.3928-.2351.1786-.433.3065-.5937.384-.1607.0773-.3065.0803-.4375.0088-.125-.0654-.3125-.2827-.5624-.6517-.131-.1845-.2054-.25-.2232-.1964-.006.0178-.009.0476-.009.0893 0 .1488-.0446.317-.1339.5044-.0893.1875-.177.3526-.2634.4955-.0863.1428-.1488.3154-.1874.5178-.0387.2024-.0045.3899.1026.5625-.1369.0357-.3229.3035-.558.8035-.235.5-.3764.9196-.424 1.2588-.012.1072-.0164.3125-.0134.616.003.3036-.0134.4792-.0491.5268-.0477.1428-.134.1518-.259.0268-.1904-.1845-.2975-.4643-.3214-.8393-.0119-.1666 0-.3333.0358-.5.0238-.113.0208-.1666-.009-.1606l-.0357.0446c-.2143.3869-.1845.881.0893 1.482.0298.0715.1042.1548.2232.25.119.0953.1905.1548.2143.1786.119.1369.4285.4062.9285.808.5.4017.7767.6294.8303.683.0952.0892.1473.2023.1562.3392.009.137-.0327.2649-.125.384-.0922.119-.2277.1874-.4062.2053.0476.0892.134.2217.2589.3972.125.1756.2083.3363.25.4822.0416.1458.0625.3556.0625.6294.2738-.1429.2946-.4167.0625-.8214a.7835.7835 0 0 0-.0938-.1428 3.8812 3.8812 0 0 1-.0848-.1072c-.0178-.0238-.0238-.0416-.0178-.0535.0178-.0298.0565-.058.116-.0849.0595-.0267.119-.0193.1786.0224.2738.3095.7678.4166 1.482.3214.7916-.0893 1.3184-.3482 1.5802-.7768.137-.2261.2381-.3154.3036-.2678.0714.0357.1012.1905.0893.4643-.006.1487-.0744.4225-.2054.8213-.0535.137-.0714.2485-.0535.3348.0178.0863.0892.1324.2142.1384.0179-.113.061-.3422.1295-.6875.0684-.3452.1086-.613.1205-.8035.012-.125-.0074-.3437-.058-.6562-.0506-.3124-.073-.6011-.067-.866.006-.2648.0744-.4746.2054-.6294.0892-.1071.241-.1607.4553-.1607.006-.2202.1086-.378.308-.4732s.4151-.1264.6473-.0937c.2321.0327.4107.0997.5356.2009zM6.5237 3.4289c.0179-.1012.0104-.1905-.0223-.2678-.0327-.0774-.067-.122-.1027-.134-.0535-.0119-.0803.009-.0803.0625.0119.0298.0268.0476.0446.0536.0595 0 .0804.0446.0625.134-.0178.119.006.1785.0714.1785.0179 0 .0268-.009.0268-.0268zm3.7408 1.7588c-.0119-.0476-.0312-.0819-.058-.1027-.0268-.0208-.0655-.0357-.116-.0446-.0507-.009-.0938-.0253-.1295-.0491a.3734.3734 0 0 1-.0848-.0714 2.634 2.634 0 0 1-.0625-.0715 5.502 5.502 0 0 0-.0491-.058c-.0179-.0208-.0298-.0327-.0358-.0357-.006-.003-.0178.0015-.0357.0134-.0833.0952-.0625.2247.0625.3883.125.1637.241.2575.3482.2813.0536.006.0967-.0179.1295-.0715.0327-.0535.0431-.113.0312-.1785zM8.6754 3.286c0-.0654-.015-.1235-.0447-.174-.0297-.0506-.0625-.0878-.0982-.1116-.0357-.0239-.0625-.0328-.0803-.0268-.0834.006-.1042.0268-.0625.0625l.0357.0178c.0833.0238.1369.116.1607.2768 0 .0178.0238.0119.0714-.0179l.0179-.0268zm.482-2.0802c0-.0119-.0074-.0267-.0223-.0446-.0148-.0179-.0416-.0387-.0803-.0625a3.0647 3.0647 0 0 1-.0848-.0536C8.8807.956 8.8093.9112 8.7557.9112c-.0536.006-.0878.0283-.1027.067a.1947.1947 0 0 0-.0089.116.2025.2025 0 0 1-.0045.1116c-.006.0239-.0238.0551-.0535.0938-.0298.0387-.0476.0655-.0536.0803-.006.015.003.0402.0268.076.0238.0178.0476.0178.0714 0a2.0894 2.0894 0 0 0 .0982-.0804.4458.4458 0 0 1 .134-.0804c.0059-.006.0327-.009.0803-.009a.4855.4855 0 0 0 .134-.0178c.0416-.0119.0684-.0327.0803-.0625zm5.0443 11.9724c.119.0714.2113.1443.2768.2187s.1012.1458.1071.2143a.5103.5103 0 0 1-.0223.2008c-.0208.0655-.067.131-.1384.1965a2.5932 2.5932 0 0 1-.2098.174c-.0684.0506-.1577.1057-.2678.1652a10.2082 10.2082 0 0 1-.2813.1473 15.3083 15.3083 0 0 1-.2856.1384c-.1131.0536-.1935.0923-.2411.116-.2262.1132-.4806.2798-.7633.5-.2828.2203-.5074.4107-.674.5714-.1013.0953-.3036.1533-.6072.1741-.3035.0208-.5684-.0223-.7946-.1294-.1071-.0536-.1949-.1235-.2633-.2098-.0685-.0864-.1176-.1622-.1474-.2277-.0297-.0655-.0952-.1235-.1964-.1741-.1012-.0506-.241-.0789-.4196-.0848-.2619-.006-.6487-.009-1.1606-.009-.113 0-.2827.0045-.5089.0134-.2262.009-.3988.0164-.5178.0224-.2619.006-.4985.0506-.7098.1339-.2113.0833-.3705.1726-.4776.2678-.1072.0953-.2366.18-.3884.2545a.9893.9893 0 0 1-.4776.1026c-.1726-.006-.503-.0982-.991-.2767-.488-.1786-.9226-.3066-1.3035-.384a13.0514 13.0514 0 0 0-.4553-.0847 22.0779 22.0779 0 0 1-.4464-.0804 4.5606 4.5606 0 0 1-.3527-.0848c-.128-.0357-.2276-.0789-.299-.1295-.0715-.0506-.122-.1086-.1518-.174-.0596-.137-.0387-.3349.0625-.5938.1011-.2589.1547-.421.1607-.4865.006-.0953-.006-.2143-.0357-.3571a6.731 6.731 0 0 0-.0893-.3795 1.1243 1.1243 0 0 1-.0402-.3259c.003-.107.0342-.1874.0937-.241.0834-.0714.253-.113.509-.125.2559-.0119.4344-.0476.5356-.1071.1786-.1072.3036-.2113.375-.3125.0714-.1012.1071-.253.1071-.4553.125.4345.0298.75-.2857.9463-.1904.119-.4374.1637-.741.134-.2024-.018-.3303.0118-.3839.0892-.0774.0893-.0625.259.0446.509.012.0356.0358.0892.0715.1606.0357.0714.061.125.0759.1607.0148.0357.0282.0863.0401.1518a.7258.7258 0 0 1 .009.1964c0 .0893-.0506.2351-.1518.4375-.1012.2023-.1429.3452-.125.4285.0178.1012.128.1786.3303.2321.119.0357.3705.0908.7544.1652.384.0744.68.1354.8884.183.1428.0357.363.1012.6606.1964.2976.0953.5431.1637.7366.2054.1934.0416.3586.0535.4955.0357.256-.0357.4479-.119.5758-.25.128-.131.1964-.2738.2054-.4285.0089-.1548-.0134-.3289-.067-.5223-.0536-.1934-.1101-.3482-.1696-.4643a6.4336 6.4336 0 0 0-.1786-.3258c-.7202-1.1309-1.2231-1.851-1.5088-2.1606-.4047-.4404-.741-.5595-1.0089-.3571-.0654.0536-.11.009-.1339-.134-.0178-.0951-.0238-.2082-.0178-.3392.006-.1726.0357-.3273.0893-.4642.0535-.137.125-.2768.2142-.4196.0893-.1429.1548-.2679.1964-.375a49.474 49.474 0 0 0 .2366-.6428c.1101-.3036.198-.5357.2634-.6964.0655-.1607.1548-.3422.2678-.5446.1131-.2024.2292-.363.3482-.4821.6547-.8511 1.0238-1.4314 1.107-1.741-.0713-.6666-.119-1.5891-.1428-2.7676-.0119-.5357.0596-.9865.2143-1.3526.1548-.366.4702-.677.9464-.933.232-.125.5416-.1874.9285-.1874.3154-.006.6309.0342.9463.1205.3155.0863.5803.2098.7946.3705.3393.25.6116.6116.817 1.0848.2053.4731.293.912.2633 1.3168-.0298.5655.0595 1.2023.2678 1.9106.2024.6726.5982 1.3213 1.1874 1.9463.3274.3511.6235.8362.8884 1.4552.2648.619.4419 1.1874.5312 1.7052.0476.2917.0625.5432.0446.7545-.0178.2112-.0536.3764-.1071.4955-.0536.119-.1131.1845-.1786.1964-.0595.0119-.1294.0684-.2098.1696a9.7785 9.7785 0 0 0-.241.317c-.0804.11-.201.2097-.3616.299-.1607.0893-.3423.131-.5446.125-.1072-.006-.2009-.0208-.2813-.0446-.0803-.0238-.1473-.064-.2008-.1206-.0536-.0565-.0938-.1026-.1206-.1383-.0267-.0357-.061-.0968-.1026-.183-.0417-.0864-.0685-.1444-.0804-.1742-.131-.2202-.253-.3095-.366-.2678-.1131.0417-.1964.1875-.25.4375-.0536.25-.0327.5386.0625.866.119.4166.122.997.009 1.741-.0596.3868-.006.6859.1606.8972.1667.2113.384.3095.6518.2946.2678-.0149.5208-.1205.7588-.317.3512-.2916.6175-.4895.799-.5936.1816-.1042.4896-.2307.9241-.3795.3155-.1071.5446-.2157.6875-.3258.1428-.1102.1979-.2128.1651-.308-.0327-.0953-.1071-.1801-.2232-.2545-.116-.0744-.2693-.1443-.4598-.2098-.1964-.0655-.3437-.2083-.4419-.4286-.0982-.2202-.1428-.436-.134-.6472.009-.2113.0551-.3527.1385-.4241.006.1845.0297.3527.0714.5044.0417.1518.0848.2723.1295.3616.0446.0893.1056.1741.183.2545.0774.0803.1398.1368.1875.1696a2.453 2.453 0 0 0 .192.116c.0803.0447.1294.073.1472.0849z" fill-rule="nonzero"/></svg>