<svg id="icon-circle-clock-outline" viewBox="0 0 16 16" xmlns="http://www.w3.org/2000/svg">
  <path d="M8 14.4c-3.529 0-6.4-2.871-6.4-6.4 0-3.529 2.871-6.4 6.4-6.4 3.529 0 6.4 2.871 6.4 6.4 0 3.529-2.871 6.4-6.4 6.4M8 0c4.411 0 8 3.589 8 8s-3.589 8-8 8-8-3.589-8-8 3.589-8 8-8zm2.2468 8.5h-2.247V5.253c0-.417-.3355-.753-.75-.753-.4165 0-.7495.337-.7495.7525 0-.0005-.0005-.0005-.0005-.001V9.2485c0-.0005.0005-.0005.0005-.001 0 .2085.0835.3965.2195.533.0055.0055.013.01.019.0155a.7427.7427 0 0 0 .511.204h2.997c.415 0 .753-.336.753-.75 0-.417-.337-.75-.753-.75z" fill-rule="evenodd"/>
</svg>