<svg id="icon-user" viewBox="0 0 16 16" xmlns="http://www.w3.org/2000/svg">
  <path d="M11.557 9.255c1.2718.3312 2.3978 1.0748 3.2018 2.1144C15.5628 12.409 15.9993 13.6858 16 15H0c.0007232-1.3142.437248-2.591 1.24122-3.6306C2.0452 10.3298 3.17123 9.5862 4.443 9.255c.39792.57528.92942 1.0455 1.54895 1.3702.61952.3248 1.30857.4944 2.00805.4944.69948 0 1.38853-.1696 2.0081-.4944.6195-.3247 1.151-.79492 1.5489-1.3702zm-3.568-.141c-2.00203 0-3.625-1.81638-3.625-4.057C4.364 2.81638 5.98697 1 7.989 1s3.625 1.81638 3.625 4.057c0 2.24062-1.62297 4.057-3.625 4.057z" fill-rule="nonzero"/>
</svg>