<svg id="icon-logo-youtube" viewBox="0 0 16 16" xmlns="http://www.w3.org/2000/svg">
  <path d="M14.2426 2.32532c.6908.18284 1.2292.72123 1.412 1.40184C15.9898 4.96647 16 7.53651 16 7.53651s0 2.58019-.3352 3.80939c-.1829.6806-.8228 1.2393-1.5136 1.4221-1.2495.3251-6.15592.3048-6.15592.3048s-4.90644.0304-6.15591-.3048c-.68061-.1828-1.351052-.7415-1.533901-1.4221-.3352225-1.2393-.3047477-3.80939-.3047477-3.80939S-.0297535 4.96647.305469 3.72716C.488318 3.04655 1.14861 2.48785 1.83937 2.305c1.24947-.32507 6.15591-.30475 6.15591-.30475s4.99792 0 6.24732.32507zm-3.789 5.21119l-3.99223 2.4583v-4.9166l3.99223 2.4583z" fill-rule="evenodd"/>
</svg>