<svg id="icon-drag-vertical-outline" viewBox="0 0 16 16" xmlns="http://www.w3.org/2000/svg">
	<path d="M10.9 11.6a2.2 2.2 0 1 0 0 4.4 2.2 2.2 0 0 0 0-4.4Zm0 3.2a1 1 0 1 1 0-2 1 1 0 0 1 0 2ZM10.9 5.8a2.2 2.2 0 1 0 0 4.4 2.2 2.2 0 0 0 0-4.4Zm0 3.2a1 1 0 1 1 0-2 1 1 0 0 1 0 2ZM10.9 4.4a2.2 2.2 0 1 0 0-4.4 2.2 2.2 0 0 0 0 4.4Zm0-3.2a1 1 0 1 1 0 2 1 1 0 0 1 0-2ZM5.1 11.6a2.2 2.2 0 1 0 0 4.4 2.2 2.2 0 0 0 0-4.4Zm0 3.2a1 1 0 1 1 0-2 1 1 0 0 1 0 2ZM5.1 5.8a2.2 2.2 0 1 0 0 4.4 2.2 2.2 0 0 0 0-4.4Zm0 3.2a1 1 0 1 1 0-2 1 1 0 0 1 0 2ZM5.1 0a2.2 2.2 0 1 0 0 4.4 2.2 2.2 0 0 0 0-4.4Zm0 3.2a1 1 0 1 1 0-2 1 1 0 0 1 0 2Z" fill-rule="nonzero"/>
</svg>
