<svg id="icon-wrench" viewBox="0 0 16 16" xmlns="http://www.w3.org/2000/svg">
  <path d="M3.06477291 15.4301522c-.32461524.3642134-.78934471.5724264-1.27722425.5722356-.48787954-.0001913-.95244582-.2087681-1.27677575-.5732356-.68103055-.7108787-.68103055-1.8321214 0-2.543l6.468-6.44200003c-.23527771-.56341567-.35105283-1.16953244-.34-1.78.02775977-2.57056142 2.11034694-4.64469545 4.68099999-4.662.780107-.0257843 1.5503095.18060074 2.213.593l-3.319 3.307 1.872 1.864 3.315-3.302c.4147134.65717979.6236464 1.42326754.6 2.2-.0277598 2.57056141-2.1103469 4.64469545-4.681 4.662-.6138983.0271448-1.2256932-.08891478-1.78699999-.339l-6.468 6.44300003z" fill-rule="nonzero"/>
</svg>