<svg id="icon-api" viewBox="0 0 16 16" xmlns="http://www.w3.org/2000/svg">
  <path d="M14.4 3.2v8.369H1.6V3.2c0-.31826.12643-.62349.35147-.84853C2.17652 2.12642 2.48174 2 2.8 2h10.4c.3183 0 .6235.12642.8485.35147.2251.22504.3515.53027.3515.84853zm-1.6 6.775V3.598H3.2v6.377h9.6zm2.8 2.391c.1061 0 .2078.0421.2828.1172.0751.075.1172.1767.1172.2828v.4c-.0016.4233-.1709.8287-.4707 1.1275-.2999.2988-.706.4665-1.1293.4665H1.6c-.42331 0-.829368-.1677-1.129255-.4665C.170859 13.9947.00158741 13.5893 0 13.166v-.4c0-.1061.0421427-.2078.117157-.2828.075015-.0751.176756-.1172.282843-.1172h5.981c.01166.2116.10224.4112.25387.5593s.35327.234.56513.2407h1.564c.10349-.0016.20565-.0235.30066-.0646.095-.041.18099-.1004.25305-.1747.07206-.0743.12878-.162.16692-.2582.03814-.0962.05696-.199.05537-.3025h6.06zM4.478 7.323v-.001c-.0823-.03632-.15227-.09578-.20139-.17115-.04912-.07537-.07527-.16339-.07527-.25335 0-.08996.02615-.17798.07527-.25335.04912-.07537.11909-.13483.20139-.17115L6.62 5.53v.7l-1.634.657v.031l1.634.657v.7l-2.142-.944v-.008zM8.882 4.63L7.747 8.843h-.63L8.251 4.63h.631zM11.8 6.907c.0016.0913-.0239.18102-.0732.25789-.0493.07686-.1202.13744-.2038.17411l-2.142.944v-.7l1.634-.657v-.031l-1.634-.656v-.7l2.142.943c.0823.03651.1522.09608.2014.1715.0492.07543.0754.16347.0756.2535z" fill-rule="nonzero"/>
</svg>