<svg id="icon-comments-dots-outline" viewBox="0 0 16 16" xmlns="http://www.w3.org/2000/svg">
    <path d="M14 12a2 2 0 0 1-2 2H7l-2.4 1.8A1 1 0 0 1 3 15v-1H2a2 2 0 0 1-2-2V4a2 2 0 0 1 2-2 2 2 0 0 1 2-2h10a2 2 0 0 1 2 2v7a2 2 0 0 1-2 2v1Zm-2-9H2a1 1 0 0 0-1 1v8a1 1 0 0 0 1 1h2v2l1.333-1 1.334-1H12a1 1 0 0 0 1-1V4a1 1 0 0 0-1-1ZM4 1a1 1 0 0 0-1 1h9a2 2 0 0 1 2 2v6a1 1 0 0 0 1-1V2a1 1 0 0 0-1-1H4Zm0 8a1 1 0 1 1 0-2 1 1 0 0 1 0 2Zm3 0a1 1 0 1 1 0-2 1 1 0 0 1 0 2Zm4-1a1 1 0 1 1-2 0 1 1 0 0 1 2 0Z" fill-rule="nonzero"/>
</svg>