<svg id="icon-bell-settings-outline" viewBox="0 0 16 16" xmlns="http://www.w3.org/2000/svg">
  <path d="M3.5 6l-.4 5.08c-.05.61-.28 1.2-.66 1.69l11.55.01v1.18H0v-1.18a1.94 1.94 0 001.92-1.8l.4-5.08a4.74 4.74 0 014.14-4.36.86.86 0 111.08 0c.44.06.86.18 1.26.37a4.56 4.56 0 00-4.63 2.28A3.63 3.63 0 003.51 6zm11.37 1.49l.82.54a.63.63 0 01.2.87l-.73 1.2a.72.72 0 01-.9.26l-.91-.41-.04-.03c-.34.26-.7.46-1.1.6l-.09 1a.68.68 0 01-.7.6l-1.46-.01a.68.68 0 01-.7-.62l-.07-.95v-.04a4.04 4.04 0 01-1.07-.6l-.04.01-.92.4a.7.7 0 01-.9-.26l-.72-1.2a.64.64 0 01.2-.88l.84-.54.07-.04a4.25 4.25 0 01.01-1.16l-.06-.04-.84-.56a.63.63 0 01-.2-.87l.74-1.2a.72.72 0 01.9-.26l.9.41.05.03c.33-.25.7-.46 1.09-.6v-.05l.09-.93a.68.68 0 01.7-.6h1.46a.68.68 0 01.7.62l.07.95v.04c.39.14.75.35 1.07.6l.05-.02.91-.4a.71.71 0 01.9.27l.72 1.2a.64.64 0 01-.21.88l-.84.54-.07.05a3.86 3.86 0 010 1.15l.08.05zm-5.55.75c.37.37.87.58 1.38.58h.02a1.96 1.96 0 10-1.4-.58zm-1.26 7.3c-.28.3-.66.46-1.06.46a1.51 1.51 0 01-1.5-1.53h3c0 .4-.16.79-.44 1.07z" fill-rule="evenodd"/>
</svg>