<svg id="icon-arrows" viewBox="0 0 16 16" xmlns="http://www.w3.org/2000/svg">
  <path d="M13.3646 4.302L9.6666 8l3.698 3.698 1.5-1.5c.2014-.2154.4444-.264.7292-.146.2708.1181.4062.323.4062.6147v4.6666c0 .1806-.066.3368-.198.4688-.1319.132-.2881.1979-.4687.1979h-4.6666c-.2917 0-.4966-.1389-.6146-.4167-.118-.2708-.0695-.5104.1458-.7187l1.5-1.5L8 9.6666l-3.698 3.698 1.5 1.5c.2154.2083.264.4479.146.7187-.1181.2778-.323.4167-.6147.4167H.6667c-.1806 0-.3368-.066-.4688-.198C.066 15.6702 0 15.514 0 15.3334v-4.6666c0-.2917.1389-.4966.4167-.6146.2708-.118.5104-.0695.7187.1458l1.5 1.5L6.3334 8l-3.698-3.698-1.5 1.5C1.0034 5.934.8472 6 .6667 6a.6456.6456 0 0 1-.25-.052C.1389 5.8298 0 5.625 0 5.3332V.6667C0 .486.066.3299.198.1979.3298.066.486 0 .6666 0h4.6666c.2917 0 .4966.1389.6146.4167.118.2708.0695.5104-.1458.7187l-1.5 1.5L8 6.3334l3.698-3.698-1.5-1.5c-.2154-.2083-.264-.4479-.146-.7187.1181-.2778.323-.4167.6147-.4167h4.6666c.1806 0 .3368.066.4688.198.132.1319.1979.2881.1979.4687v4.6666c0 .2917-.1354.4966-.4063.6146-.0902.0347-.177.0521-.2604.0521-.1805 0-.3368-.066-.4687-.198l-1.5-1.5z" fill-rule="nonzero"/>
</svg>