<svg style="display:none"
  xmlns="http://www.w3.org/2000/svg">
  <symbol id="nodes" viewBox="0 0 16 16">
    <path d="M9.33 4.952l-.247-.112 1.298-2.187a1.637 1.637 0 0 1 .446-2.41c.248-.15.535-.243.847-.243.311 0 .6.092.848.243.475.288.795.805.795 1.398 0 .907-.736 1.643-1.643 1.643-.088 0-.175-.009-.268-.026l-1.302 2.19-.217-.164a2.925 2.925 0 0 0-.557-.332zm6.435 2.47c.146.246.235.53.235.836 0 .305-.089.589-.235.834a1.635 1.635 0 0 1-2.983-.392l-1.838-.181.057-.265c.044-.206.065-.412.065-.613v-.268l.264-.013 1.568.156c.277-.546.843-.9 1.46-.9.6 0 1.12.325 1.407.806zM3.876 5.284A1.645 1.645 0 0 1 2.233 3.64C2.233 2.736 2.97 2 3.876 2S5.52 2.736 5.52 3.64c0 .21-.043.416-.126.615l1.011.957-.205.175a2.918 2.918 0 0 0-.446.474l-.163.216-1.011-.956c-.222.106-.46.162-.703.162zm5.872 6.851a1.63 1.63 0 0 1 1.402 1.622 1.642 1.642 0 0 1-3.284 0c0-.546.272-1.05.722-1.354l-.41-1.795.268-.03c.21-.025.425-.075.636-.147l.255-.089.41 1.793zm-4.53-3.87c.046.208.116.415.21.617l.115.246-2.26.757a1.636 1.636 0 1 1-3.04.77A1.622 1.622 0 0 1 0 9.806c0-.312.092-.599.243-.847a1.635 1.635 0 0 1 2.66-.203L5.162 8l.057.264zm5.659-.624a2.771 2.771 0 0 1-2.768 2.767 2.771 2.771 0 0 1-2.768-2.767A2.771 2.771 0 0 1 8.11 4.873a2.771 2.771 0 0 1 2.768 2.768z" fill="currentColor" fill-rule="evenodd"/>
  </symbol>
</svg>