<svg id="icon-box-container" viewBox="0 0 16 16" xmlns="http://www.w3.org/2000/svg">
  <path d="M8 16a3.3675 3.3675 0 0 1-1.5506-.3813l-4.5658-2.3814C.7218 12.6314 0 11.4211 0 10.0786V5.9214C0 4.579.7218 3.3686 1.8836 2.7627L6.4494.3813A3.3675 3.3675 0 0 1 8 0a3.368 3.368 0 0 1 1.5507.3813l4.5659 2.3814C15.2783 3.3686 16 4.5789 16 5.9214v4.1572c0 1.3425-.7217 2.5528-1.8834 3.1587l-4.566 2.3814A3.368 3.368 0 0 1 8 16zM8 2.0005c-.2214 0-.4438.055-.6431.1588l-4.529 2.3622C2.325 4.7838 2 5.34 2 5.9387v4.1236c0 .5987.325 1.155.828 1.4172l4.5289 2.3622c.1993.1038.4217.1588.6431.1588.2215 0 .444-.055.6432-.1588l4.529-2.3622c.5029-.2623.8278-.8185.8278-1.4172V5.9387c0-.5987-.325-1.155-.8278-1.4172l-4.529-2.3622A1.3985 1.3985 0 0 0 8 2.0005zm3.39 3.3442c.6846.316 1.11.95 1.11 1.6545V9.002c0 .7045-.4254 1.3384-1.11 1.6545l-2.4853 1.147A2.171 2.171 0 0 1 8 12.0005a2.1712 2.1712 0 0 1-.9048-.197L4.61 10.6563c-.6846-.3161-1.11-.95-1.11-1.6545V6.9992c0-.7045.4254-1.3385 1.11-1.6545l2.4853-1.1471a2.1738 2.1738 0 0 1 .9048-.1971c.3125 0 .6253.0682.9046.197L11.39 5.3448zM11 7.0964c0-.2112-.1383-.4083-.3524-.5019L8.2787 5.5582a.7008.7008 0 0 0-.5573 0l-2.369 1.0363C5.1383 6.6881 5 6.8851 5 7.0965v1.8091c0 .2113.1383.4083.3524.502l2.3689 1.0363c.1725.0755.385.0755.5573 0l2.369-1.0363c.2141-.0937.3524-.2907.3524-.502V7.0964z" fill-rule="evenodd"/>
</svg>