<svg id="icon-tag-outline" viewBox="0 0 16 16" xmlns="http://www.w3.org/2000/svg">
  <path d="M6.2 15.147c-.473 0-.916-.185-1.25-.519l-4.433-4.44a1.773 1.773 0 0 1 0-2.503L7.963.227c.2-.2.465-.227.699-.227 1.086 0 4.736.718 5.149.799l.41.082.09.409c1.163 5.3.83 5.636.586 5.88L7.45 14.627a1.757 1.757 0 0 1-1.25.519zM8.72 1.28L1.423 8.59a.491.491 0 0 0 0 .693l4.433 4.44a.498.498 0 0 0 .69 0l7.323-7.336c.016-.585-.334-2.601-.719-4.413-1.262-.243-3.636-.672-4.428-.693zm1.813 5.037c-.492 0-.953-.191-1.3-.54a1.844 1.844 0 0 1 .002-2.6c.692-.693 1.902-.695 2.596 0 .716.719.716 1.884.001 2.6a1.82 1.82 0 0 1-1.3.54zm0-2.398a.561.561 0 0 0-.393.955c.21.21.574.21.785 0a.561.561 0 0 0-.392-.955z" fill-rule="evenodd"/>
</svg>