<svg id="icon-logo-centurylink" viewBox="0 0 16 16" xmlns="http://www.w3.org/2000/svg">
  <path d="M1.4336 12.6254l4.5915-2.651-2.6513 4.592a8.0756 8.0756 0 0 1-1.9402-1.941zM3.3738 1.4329L6.025 6.0237 1.4336 3.3739c.5304-.7522 1.1876-1.4118 1.9402-1.941zm8-.7237l-2.651 4.5924V0c.94.0836 1.8313.328 2.651.7092zM4.625 15.2896l2.6521-4.5923V16a7.9791 7.9791 0 0 1-2.652-.7104zM14.5671 3.374L9.9757 6.0237l2.6505-4.5908a8.044 8.044 0 0 1 1.941 1.941zm-1.9413 11.1924L9.975 9.9743l4.5919 2.651a8.0719 8.0719 0 0 1-1.941 1.941zM16 7.2761h-5.3022l4.5934-2.6513A8.036 8.036 0 0 1 16 7.276zM0 8.722h5.3026L.7088 11.3725C.3296 10.5555.0851 9.6639 0 8.7219zm.7088-4.0971L5.3026 7.276H0a8.0076 8.0076 0 0 1 .7088-2.6513zm9.989 4.0971H16c-.0847.942-.3296 1.8336-.7088 2.6506l-4.5934-2.6506zM7.277 0v5.3016L4.6251.7092A7.9406 7.9406 0 0 1 7.277 0zM8.723 16v-5.3027l2.6509 4.5923A7.9674 7.9674 0 0 1 8.7228 16z" fill-rule="evenodd"/>
</svg>