<svg style="display:none"
  xmlns="http://www.w3.org/2000/svg">
  <symbol id="user" viewBox="0 0 16 16">
    <path d="M7.976 15.94H2.71l-1.946.001c-.066 0-.131 0-.197-.002-.33-.014-.56-.236-.563-.569-.006-.678-.005-1.357.001-2.035.003-.267.151-.439.398-.535.93-.361 1.857-.729 2.765-1.143.8-.365 1.6-.73 2.317-1.25.048-.035.093-.073.14-.109.281-.209.435-.463.398-.837-.026-.268-.045-.496-.245-.722-.425-.48-.699-1.058-.886-1.673-.042-.139-.034-.255-.143-.358-.464-.44-.612-1.126-.262-1.661a.487.487 0 0 0 .084-.283c-.002-.6-.002-1.202.002-1.803.009-1.507.944-2.615 2.436-2.87.867-.147 1.73-.133 2.567.172.939.343 1.492 1.02 1.708 1.987.124.552.085 1.113.096 1.671.004.167.014 1.068.014 1.068.404.512.338 1.347-.12 1.74-.063.054-.162.154-.186.228-.234.732-.558 1.415-1.088 1.984-.02.022-.051.044-.055.07-.044.264-.012.532-.015.798 0 .118.091.202.168.286.305.335.694.559 1.083.774 1.165.646 2.394 1.153 3.63 1.644.254.1.507.203.76.306.233.095.361.27.362.522.004.684.007 1.368-.001 2.052-.004.319-.245.544-.565.545-1.595.002-3.19.001-4.784.001H7.976" fill="currentColor" fill-rule="evenodd"/>
  </symbol>
</svg>