<svg style="display:none"
  xmlns="http://www.w3.org/2000/svg">
  <symbol id="lock" viewBox="0 0 16 16">
    <path d="M13.09 7.247h-.314V4.743C12.761 1.672 10.633 0 8.048 0S3.145 1.751 3.225 4.743l-.002 2.501s.039.003-.157.003c-.205 0-1.566.236-1.566 1.43v5.731C1.5 15.682 3.03 16 3.066 16h9.946c.036 0 1.488-.159 1.488-1.592V8.756c0-1.353-1.374-1.509-1.41-1.509zm-7.678 0l.003-2.47c0-1.593.987-2.866 2.585-2.866 1.583 0 2.585 1.114 2.585 2.865v2.471H5.413zM8.022 8.9c.724 0 1.312.628 1.312 1.399 0 .478-.23.921-.605 1.177v1.246c0 .396-.302.717-.673.717h-.068c-.37 0-.673-.321-.673-.717v-1.246A1.424 1.424 0 0 1 6.71 10.3c0-.771.59-1.399 1.313-1.399z" fill="currentColor" fill-rule="evenodd"/>
  </symbol>
</svg>