<svg id="icon-box-application" viewBox="0 0 16 16" xmlns="http://www.w3.org/2000/svg">
  <path d="M14.1017 9.1339c.7042-.3437 1.2477-.7388 1.5692-1.277.0902-.151.3252-.0929.3285.0818.0004.0202.0006.0406.0006.0613 0 1.2777-.7274 1.9907-1.8983 2.562l-4.566 2.2279A3.5217 3.5217 0 0 1 8 13.1437a3.5217 3.5217 0 0 1-1.5358-.3538L1.8984 10.562C.7274 9.9907 0 9.2776 0 8c0-.0207.0002-.0411.0006-.0614.0033-.1747.2383-.2327.3284-.0818.3216.5383.8651.9334 1.5694 1.277l4.5658 2.228A3.5217 3.5217 0 0 0 8 11.7156a3.5217 3.5217 0 0 0 1.5358-.3538l4.5659-2.228zm0-6.5522C15.2726 3.153 16 3.866 16 5.1437c0 1.2776-.7274 1.9907-1.8983 2.562l-4.566 2.228A3.5217 3.5217 0 0 1 8 10.2874a3.5217 3.5217 0 0 1-1.5358-.3537l-4.5658-2.228C.7274 7.1345 0 6.4214 0 5.1438c0-1.2776.7274-1.9906 1.8984-2.562L6.4642.3537A3.5217 3.5217 0 0 1 8 0c.5303 0 1.0614.1223 1.5358.3538l4.5659 2.2279zm0 9.4084c.7042-.3437 1.2477-.7388 1.5693-1.277.0901-.1509.3251-.0929.3284.0818a3.739 3.739 0 0 1 .0006.0613c0 1.2777-.7274 1.9907-1.8983 2.5621l-4.566 2.228A3.5217 3.5217 0 0 1 8 16a3.5217 3.5217 0 0 1-1.5358-.3538l-4.5658-2.2279C.7274 12.847 0 12.134 0 10.8563c0-.0206.0002-.041.0006-.0614.0033-.1747.2383-.2328.3284-.0818.3216.5382.8651.9333 1.5694 1.277l4.5658 2.2279A3.5218 3.5218 0 0 0 8 14.5719a3.5218 3.5218 0 0 0 1.5358-.3539l4.5659-2.2279z" fill-rule="evenodd"/>
</svg>