<svg style="display:none"
  xmlns="http://www.w3.org/2000/svg">
  <symbol id="star-outline" viewBox="0 0 16 16">
    <path d="M8 0c-.17 0-.34.088-.428.262L5.357 4.671.41 5.376a.472.472 0 0 0-.264.808l3.577 3.423-.845 4.838a.475.475 0 0 0 .692.5L8 12.659l4.43 2.288a.475.475 0 0 0 .692-.5l-.844-4.84 3.576-3.422a.472.472 0 0 0-.264-.808l-4.946-.705L8.428.262A.473.473 0 0 0 8 0m0 2.32l1.478 2.94.307.611.675.097 3.245.462-2.329 2.23-.505.483.12.69.557 3.184-2.95-1.524L8 11.186l-.598.307-2.949 1.524.555-3.184.12-.69-.504-.484-2.33-2.229 3.247-.462.674-.097.307-.61L8 2.32" fill="currentColor" fill-rule="evenodd"/>
  </symbol>
</svg>