<svg id="icon-circle-arrow-up-outline" viewBox="0 0 16 16" xmlns="http://www.w3.org/2000/svg">
  <path d="M8 16c-4.4112 0-8-3.5888-8-8s3.5888-8 8-8 8 3.5888 8 8-3.5888 8-8 8zM8 1.6C4.4712 1.6 1.6 4.471 1.6 8c0 3.529 2.8712 6.4 6.4 6.4 3.529 0 6.4-2.871 6.4-6.4 0-3.529-2.871-6.4-6.4-6.4zm-.6748 2.3313a.9444.9444 0 0 1 .6746-.2858c.253 0 .4958.103.6748.2858l3.417 3.4948c.3728.3813.3728.9993 0 1.3801a.939.939 0 0 1-1.3494 0l-1.788-1.8288v4.4012c0 .5392-.4274.9759-.9542.9759s-.9544-.4365-.9544-.976V6.9775l-1.788 1.8288a.9387.9387 0 0 1-1.3492 0c-.3728-.3808-.3728-.9988 0-1.38l3.4168-3.495z" fill-rule="evenodd"/>
</svg>