<svg style="display:none"
  xmlns="http://www.w3.org/2000/svg">
  <symbol id="phone" viewBox="0 0 16 16">
    <path d="M15.697 12.076c-.104-.268-.3-.306-.364-.308-.18-.03-1.242-.484-2.018-.815-1.544-.659-2.02-.851-2.206-.86h-.02c-.216 0-.558.111-1.87 1.421-.369-.125-1.58-1.039-2.806-2.125-.955-1.08-1.989-2.414-2.12-2.814 1.195-1.205 1.43-1.62 1.418-1.893-.008-.186-.2-.663-.856-2.207-.331-.78-.785-1.847-.813-2.012C4.028.156 3.726 0 3.144 0c-.68 0-1.619.205-2.069.655C.956.775-1.796 3.642 2 8.938c.339.583 1.07 1.435 2.228 2.597l.019.029.032.022c1.16 1.16 2.005 1.889 2.584 2.226 1.853 1.335 3.609 2.012 5.219 2.012 1.867 0 2.864-.905 3.045-1.086.62-.622.764-2.167.571-2.662" fill="currentColor" fill-rule="evenodd"/>
  </symbol>
</svg>