<svg style="display:none"
  xmlns="http://www.w3.org/2000/svg">
  <symbol id="shopping-cart" viewBox="0 0 16 16">
    <path d="M4.8 12.257c-.88 0-1.592.72-1.592 1.6 0 .88.712 1.6 1.592 1.6.88 0 1.6-.72 1.6-1.6 0-.88-.72-1.6-1.6-1.6zM0 .537v.524c0 .298.241.539.539.539H1.6l2.88 6.071v.002L3.4 9.632c-.12.21-.187.446-.198.688A1.61 1.61 0 0 0 4.816 12H14.4l.001-.001V10.4l-.001-.001H5.136a.198.198 0 0 1-.2-.2l.024-.095.72-1.304h5.96a1.592 1.592 0 0 0 1.4-.825l2.864-5.192A.802.802 0 0 0 15.2 1.6H3.369h-.001L2.616 0H.536A.536.536 0 0 0 0 .536zm12.8 11.72c-.88 0-1.592.72-1.592 1.6 0 .88.712 1.6 1.592 1.6.88 0 1.6-.72 1.6-1.6 0-.88-.72-1.6-1.6-1.6z" fill="currentColor" fill-rule="evenodd"/>
  </symbol>
</svg>