<svg style="display:none"
  xmlns="http://www.w3.org/2000/svg">
  <symbol id="heart" viewBox="0 0 16 16">
    <path d="M8 15a.53.53 0 0 1-.393-.164L2.036 9.349a2.922 2.922 0 0 1-.246-.237 9.038 9.038 0 0 1-.495-.597 8.171 8.171 0 0 1-.607-.889A5.596 5.596 0 0 1 .21 6.523C.07 6.093 0 5.673 0 5.266 0 3.929.378 2.884 1.134 2.13 1.89 1.376 2.934 1 4.268 1c.369 0 .745.066 1.13.196.383.13.74.307 1.07.529.331.221.615.43.853.624.239.194.465.401.679.62.214-.219.44-.426.679-.62.238-.194.522-.403.852-.624.33-.222.688-.399 1.072-.529.384-.13.76-.196 1.13-.196 1.332 0 2.377.376 3.133 1.13C15.622 2.884 16 3.93 16 5.266c0 1.342-.681 2.71-2.045 4.101l-5.562 5.469A.53.53 0 0 1 8 15z" fill="currentColor" fill-rule="evenodd"/>
  </symbol>
</svg>