<svg id="icon-microphone-mute" viewBox="0 0 16 16" xmlns="http://www.w3.org/2000/svg">
  <path d="M4.48 9.087l-.97.97A5.4 5.4 0 0 1 3.106 8V6.77c0-.167.06-.312.182-.433a.591.591 0 0 1 .433-.183c.167 0 .311.06.433.183a.591.591 0 0 1 .183.432V8c0 .34.048.702.144 1.087zm10.712-5.789l-3.47 3.471V8c0 .846-.302 1.57-.905 2.173a2.963 2.963 0 0 1-2.173.904c-.352 0-.702-.061-1.048-.183l-.923.923c.622.327 1.279.49 1.971.49 1.186 0 2.2-.42 3.043-1.264.843-.843 1.265-1.857 1.265-3.043V6.77c0-.167.06-.312.183-.433a.591.591 0 0 1 .432-.183c.167 0 .311.06.433.183a.591.591 0 0 1 .183.432V8c0 1.417-.473 2.649-1.419 3.697-.945 1.048-2.113 1.65-3.504 1.803v1.27h2.461c.167 0 .311.06.433.182a.591.591 0 0 1 .183.433c0 .166-.061.31-.183.432a.591.591 0 0 1-.433.183H5.567a.591.591 0 0 1-.432-.183.591.591 0 0 1-.183-.432c0-.167.06-.311.183-.433a.591.591 0 0 1 .432-.183H8.03V13.5a5.29 5.29 0 0 1-2.26-.779l-2.442 2.442a.304.304 0 0 1-.442 0l-.789-.788a.304.304 0 0 1 0-.442L13.962 2.067a.304.304 0 0 1 .442 0l.788.789a.304.304 0 0 1 0 .442zm-3.654-1.27L5.568 8V3.077c0-.846.3-1.57.903-2.173A2.963 2.963 0 0 1 8.644 0c.654 0 1.245.19 1.774.567a3.05 3.05 0 0 1 1.12 1.462z" fill-rule="evenodd"/>
</svg>