<svg style="display:none"
  xmlns="http://www.w3.org/2000/svg">
  <symbol id="home" viewBox="0 0 16 16">
    <path d="M13.716 14.161a.641.641 0 0 1-.635.639H9.27v-3.83H6.728v3.83H2.92a.642.642 0 0 1-.635-.639V9.374c0-.02.01-.04.01-.06L8 4.586l5.706 4.728c.01.02.01.04.01.06v4.787zm1.598-4.737c-.05.06-.129.099-.208.109h-.03a.31.31 0 0 1-.209-.07L8 3.708 1.133 9.463c-.07.05-.15.08-.238.07a.326.326 0 0 1-.208-.11L.07 8.686a.328.328 0 0 1 .04-.449l7.134-5.974a1.219 1.219 0 0 1 1.51 0l2.421 2.035V2.35c0-.179.139-.318.317-.318h1.906c.178 0 .317.14.317.318v4.07l2.174 1.815c.129.11.148.32.039.449l-.615.739z" fill="currentColor" fill-rule="evenodd"/>
  </symbol>
</svg>