<svg id="icon-circle-x-outline" viewBox="0 0 16 16" xmlns="http://www.w3.org/2000/svg">
  <path d="M8 16c-4.4112 0-8-3.5888-8-8s3.5888-8 8-8 8 3.5888 8 8-3.5888 8-8 8zM8 1.6C4.4712 1.6 1.6 4.471 1.6 8c0 3.529 2.8712 6.4 6.4 6.4 3.529 0 6.4-2.871 6.4-6.4 0-3.529-2.871-6.4-6.4-6.4zm1.9193 9.7203L7.9816 9.3832 6.044 11.3203c-.18.18-.4918.1795-.6723 0l-.7329-.7328a.4711.4711 0 0 1-.1387-.336.472.472 0 0 1 .1387-.3364L6.5764 7.978 4.6388 6.0403A.472.472 0 0 1 4.5 5.704c0-.127.0493-.2464.1393-.336l.7323-.7333c.1805-.179.4923-.18.6723 0l1.9377 1.9377 1.9377-1.9377c.18-.179.4923-.18.6723 0l.7329.7334a.4725.4725 0 0 1 .1392.3359.4725.4725 0 0 1-.1392.3364L9.3873 7.978l1.9372 1.9371c.09.09.1392.2095.1392.3365a.47.47 0 0 1-.1398.3359l-.7323.7328a.4727.4727 0 0 1-.3359.1398.472.472 0 0 1-.3364-.1398z" fill-rule="evenodd"/>
</svg>