<svg id="icon-chart-pie" viewBox="0 0 16 16" xmlns="http://www.w3.org/2000/svg">
  <path d="M7.111 8.24l5.056 5.056a7.013 7.013 0 0 1-2.292 1.556 7.007 7.007 0 0 1-2.764.555c-1.29 0-2.48-.317-3.57-.953a7.08 7.08 0 0 1-2.587-2.588A6.956 6.956 0 0 1 0 8.296c0-1.29.318-2.48.954-3.57A7.08 7.08 0 0 1 3.542 2.14a6.956 6.956 0 0 1 3.57-.954v7.056zm1.732.056H16c0 .97-.185 1.89-.556 2.764a7.013 7.013 0 0 1-1.555 2.292L8.843 8.296zm6.564-1.185h-7.11V0c1.29 0 2.48.318 3.569.954a7.08 7.08 0 0 1 2.588 2.588c.636 1.09.953 2.279.953 3.57z" fill-rule="evenodd"/>
</svg>