<svg style="display:none"
  xmlns="http://www.w3.org/2000/svg">
  <symbol id="atom" viewBox="0 0 16 16">
    <path d="M15.942 7.638c-.177-.481-.553-.776-.972-1.027-.52-.312-1.089-.508-1.67-.674-.191-.055-.187-.053-.09-.234.128-.24.26-.48.37-.728.237-.532.44-1.076.433-1.67-.009-.675-.347-1.119-.955-1.267-.285-.07-.57-.046-.852.01-.692.138-1.323.431-1.93.778-.113.065-.157.067-.198-.078-.18-.638-.397-1.265-.763-1.826-.28-.427-.61-.79-1.143-.894A.076.076 0 0 0 8.168 0h-.304a.07.07 0 0 0-.004.028c-.06.014-.12.025-.18.042-.455.131-.742.464-.987.84-.371.572-.596 1.207-.775 1.859-.032.119-.07.129-.167.07a7.44 7.44 0 0 0-1.066-.52c-.455-.18-.919-.33-1.415-.321-.688.013-1.146.388-1.262 1.045-.074.423.017.835.145 1.239.16.506.383.985.653 1.441.07.12.071.174-.08.211-.347.085-.686.2-1.015.34-.507.216-.994.464-1.37.884-.436.489-.455 1.108-.05 1.62.105.134.226.25.36.353.58.449 1.253.695 1.945.9.298.088.293.084.143.363-.37.684-.694 1.384-.751 2.178-.05.69.301 1.224.93 1.386.353.09.702.042 1.049-.041.63-.151 1.204-.436 1.769-.742.106-.058.145-.07.186.074.213.742.462 1.47.95 2.088.247.314.54.566.956.631 0 .01 0 .021.002.032h.338a.122.122 0 0 0 .002-.031c.082-.014.163-.03.242-.062.395-.157.66-.46.884-.798.377-.568.6-1.204.78-1.855.042-.152.087-.145.198-.079.253.153.52.28.79.4.535.236 1.08.433 1.676.428.707-.006 1.193-.451 1.264-1.153.057-.564-.118-1.083-.32-1.594a7.048 7.048 0 0 0-.487-.987c-.064-.11-.082-.173.073-.202.125-.023.247-.065.369-.105.606-.2 1.199-.427 1.705-.828.343-.272.616-.59.656-1.05v-.168a1.183 1.183 0 0 0-.058-.278zM1.35 8.702a1.715 1.715 0 0 1-.463-.384.525.525 0 0 1-.124-.343c0-.13.077-.246.175-.35.295-.316.68-.487 1.067-.652.38-.162.779-.275 1.179-.38.088-.023.141-.012.195.07.278.428.586.834.906 1.23.062.077.074.127.006.21a15.2 15.2 0 0 0-.91 1.228c-.05.076-.094.105-.19.079-.638-.172-1.268-.366-1.841-.708zM5.364 6.29c-.012.179-.02.358-.028.538-.002.043-.023.072-.05.102-.113.125-.224.251-.35.393-.026.025-.064.096-.127.01-.209-.285-.414-.572-.628-.852-.07-.093-.029-.111.054-.123.344-.051.689-.1 1.032-.153.076-.012.103.008.097.085zm-.097 3.506c-.343-.053-.688-.102-1.032-.153-.083-.012-.125-.03-.054-.123.214-.28.42-.567.628-.851.063-.087.1-.016.127.009.126.142.237.268.35.393.027.03.048.06.05.103.007.179.016.358.028.537.006.077-.021.097-.097.085zm.27 2.63c-.625.34-1.252.674-1.967.793a1.349 1.349 0 0 1-.2.019c-.474.007-.63-.153-.616-.624.006-.324.104-.628.214-.928.166-.452.4-.872.638-1.29.038-.066.078-.09.16-.074.507.102 1.017.18 1.531.232.099.01.135.044.147.152.05.484.114.968.22 1.444.029.135 0 .207-.127.276zm.138-8.64c-.106.51-.181 1.025-.235 1.544-.008.077-.037.107-.11.115-.536.058-1.07.134-1.598.242-.05.01-.08-.006-.108-.053-.373-.639-.718-1.29-.852-2.028-.014-.077-.016-.156-.018-.235-.01-.454.142-.607.696-.604.412.02.875.206 1.327.416.274.128.535.282.804.42.078.04.114.084.094.182zm3.96.45c.047.349.105.696.16 1.044.016.106-.061.082-.098.084-.189-.012-.357-.023-.526-.032-.04-.002-.075-.008-.107-.037a21.351 21.351 0 0 0-.401-.36c-.059-.05-.054-.084.008-.129.28-.205.559-.413.838-.62.067-.05.11-.066.126.05zm-3.058-.996c.195-.712.398-1.422.83-2.036.4-.567.786-.564 1.188.002.341.48.533 1.028.7 1.585.049.16.092.322.138.483.01.069-.047.089-.086.114-.43.286-.847.588-1.247.914-.076.063-.128.056-.2-.003a15.825 15.825 0 0 0-1.249-.91c-.054-.037-.095-.071-.074-.149zm-.384 2.04c.054-.348.112-.695.16-1.045.015-.115.058-.099.125-.049.28.207.558.415.838.62.062.045.067.078.009.129-.136.118-.27.239-.402.36-.032.03-.067.035-.107.037-.169.009-.337.02-.526.032-.037-.002-.114.022-.097-.084zm.16 6.499c-.048-.35-.106-.697-.16-1.045-.017-.106.06-.082.097-.084.19.012.357.023.526.032.04.002.075.008.107.037.133.122.266.242.402.36.058.05.053.084-.009.129-.28.205-.559.413-.838.62-.067.05-.11.067-.125-.05zm3.071.984c-.185.685-.39 1.363-.78 1.968a1.464 1.464 0 0 1-.321.364.548.548 0 0 1-.334.13.613.613 0 0 1-.386-.195c-.216-.21-.363-.468-.492-.736-.233-.48-.387-.987-.529-1.5-.022-.082-.004-.132.069-.18.435-.287.856-.595 1.263-.921.064-.052.11-.054.175-.001.404.329.827.633 1.26.923.055.036.096.071.075.148zm.37-2.03c-.054.35-.112.697-.16 1.046-.015.116-.058.099-.125.05-.28-.208-.557-.416-.838-.621-.062-.045-.067-.078-.008-.129.135-.118.268-.238.4-.36.033-.029.068-.035.108-.037.169-.009.337-.02.526-.032.037.002.114-.022.097.084zm.089-1.825c-.317.31-.632.622-.944.938a.268.268 0 0 1-.209.084h-.052a118.827 118.827 0 0 0-1.298 0h-.052a.268.268 0 0 1-.209-.084 81.43 81.43 0 0 0-.944-.938.346.346 0 0 1-.108-.27 85.07 85.07 0 0 0 0-1.296c0-.09.025-.157.088-.224.31-.326.629-.642.954-.952a.281.281 0 0 1 .208-.09h.074a174.899 174.899 0 0 0 1.275 0h.075c.085 0 .147.032.208.09.325.31.644.626.954.952a.297.297 0 0 1 .088.224c-.003.432-.004.865 0 1.297 0 .108-.03.192-.108.269zm.493-5.278c.614-.349 1.237-.68 1.937-.828a1.7 1.7 0 0 1 .351-.036c.442 0 .598.165.586.605-.015.398-.14.769-.291 1.13-.156.371-.343.728-.546 1.076-.051.088-.098.123-.21.1a13.764 13.764 0 0 0-1.498-.226c-.101-.01-.139-.047-.15-.152-.048-.502-.126-1-.224-1.494-.012-.062-.04-.127.045-.175zm.714 3.693c-.125-.142-.236-.268-.35-.393-.026-.03-.047-.06-.05-.102-.007-.18-.015-.359-.028-.538-.005-.077.022-.097.097-.085.344.053.689.102 1.033.153.082.012.124.03.053.123-.214.28-.419.567-.627.852-.064.086-.1.015-.128-.01zm.755 2.197c.071.093.03.111-.053.123-.344.051-.689.1-1.033.153-.075.012-.102-.008-.097-.085.013-.179.021-.358.029-.537.002-.044.023-.072.05-.103.113-.125.224-.251.35-.393.026-.025.063-.096.127-.01.208.285.413.572.627.852zm1.369 2.76c.025.115.04.233.045.35.015.43-.16.608-.656.609-.42-.016-.863-.19-1.3-.383a10.572 10.572 0 0 1-.864-.447c-.1-.056-.132-.113-.107-.226.106-.493.176-.992.226-1.494.009-.092.046-.122.13-.132a18.257 18.257 0 0 0 1.565-.237c.067-.014.104.004.136.06.346.603.675 1.214.825 1.9zm1.821-3.873c-.294.298-.67.463-1.047.623-.372.157-.76.266-1.149.375-.098.027-.16.018-.221-.077a13.503 13.503 0 0 0-.889-1.203c-.07-.087-.085-.145-.005-.24.32-.384.61-.79.889-1.204.053-.078.097-.116.201-.088.596.159 1.182.342 1.725.642.208.115.402.246.556.429a.537.537 0 0 1 .143.333c0 .17-.09.296-.203.41zm-6.982-1.73c.697.006 1.29.626 1.28 1.335A1.338 1.338 0 0 1 8 9.33a1.33 1.33 0 0 1-1.33-1.338c.007-.754.606-1.324 1.384-1.316z" fill="currentColor" fill-rule="evenodd"/>
  </symbol>
</svg>