<svg style="display:none"
  xmlns="http://www.w3.org/2000/svg">
  <symbol id="visible" viewBox="0 0 16 16">
    <path d="M15.872 8.118A.744.744 0 0 1 16 8.5a.745.745 0 0 1-.128.382C13.815 12.112 10.692 14 8 14S2.185 12.113.128 8.882A.745.745 0 0 1 0 8.5c0-.139.061-.278.128-.382C2.185 4.888 5.308 3 8 3s5.815 1.887 7.872 5.118zM8 12.472c2.029 0 3.674-1.778 3.674-3.972S10.029 4.528 8 4.528 4.326 6.306 4.326 8.5 5.971 12.472 8 12.472zm0-6.646c1.365 0 2.473 1.197 2.473 2.674 0 1.476-1.108 2.674-2.473 2.674-1.365 0-2.473-1.198-2.473-2.674 0-1.477 1.108-2.674 2.473-2.674z" fill="currentColor" fill-rule="evenodd"/>
  </symbol>
</svg>