<svg id="icon-x-alt" viewBox="0 0 16 16" xmlns="http://www.w3.org/2000/svg">
  <path d="M11.5611 14.55c.192.192.4458.2983.7178.2983.2697 0 .5245-.1063.7165-.2983l1.5623-1.5634a1.0025 1.0025 0 0 0 .2983-.7166 1.008 1.008 0 0 0-.2971-.7177l-4.1326-4.1326 4.1326-4.1337a1.008 1.008 0 0 0 .2971-.7177 1.008 1.008 0 0 0-.2971-.7166L12.9954.2871c-.384-.384-1.0503-.3817-1.4343 0L7.4274 4.421 3.2937.287c-.384-.384-1.0491-.3817-1.4343 0L.2971 1.8517A1.0034 1.0034 0 0 0 0 2.5683c0 .2708.104.5257.296.7177l4.1337 4.1337L.296 11.5523c-.192.192-.296.4468-.296.7177 0 .272.1051.5257.296.7166L1.8594 14.55c.3852.3829 1.0503.384 1.4343 0l4.1337-4.1326 4.1337 4.1326" fill-rule="evenodd"/>
</svg>