<svg style="display:none"
  xmlns="http://www.w3.org/2000/svg">
  <symbol id="buoy" viewBox="0 0 16 16">
    <path d="M8 0a8 8 0 1 0 0 16A8 8 0 0 0 8 0zm6.87 8c0 1.064-.24 2.091-.696 3.02l-2.828-1.703a3.594 3.594 0 0 0 .006-2.62l2.83-1.703A6.84 6.84 0 0 1 14.87 8zM1.838 11.046A6.844 6.844 0 0 1 1.13 8c0-1.07.243-2.1.702-3.032L4.66 6.67c-.165.412-.254.86-.254 1.331 0 .476.092.93.26 1.345l-2.828 1.7zM5.534 8A2.469 2.469 0 0 1 8 5.534 2.468 2.468 0 0 1 10.466 8 2.468 2.468 0 0 1 8 10.466 2.469 2.469 0 0 1 5.534 8zm5.419-6.208L9.247 4.627A3.598 3.598 0 0 0 6.8 4.61L5.091 1.772A6.852 6.852 0 0 1 8 1.13c1.038 0 2.042.229 2.953.662zM5.1 14.232l1.709-2.839a3.595 3.595 0 0 0 2.43-.017l1.705 2.836A6.84 6.84 0 0 1 8 14.87a6.859 6.859 0 0 1-2.9-.637z" fill="currentColor" fill-rule="evenodd"/>
  </symbol>
</svg>