<svg id="icon-nodes" viewBox="0 0 16 16" xmlns="http://www.w3.org/2000/svg">
  <path d="M9.33 4.952l-.247-.112 1.298-2.187a1.637 1.637 0 0 1 .446-2.41c.248-.15.535-.243.847-.243.311 0 .6.092.848.243.475.288.795.805.795 1.398 0 .907-.736 1.643-1.643 1.643-.088 0-.175-.009-.268-.026l-1.302 2.19-.217-.164a2.925 2.925 0 0 0-.557-.332zm6.435 2.47c.146.246.235.53.235.836 0 .305-.089.589-.235.834a1.635 1.635 0 0 1-2.983-.392l-1.838-.181.057-.265c.044-.206.065-.412.065-.613v-.268l.264-.013 1.568.156c.277-.546.843-.9 1.46-.9.6 0 1.12.325 1.407.806zM3.876 5.284c-.9073-.0011-1.6424-.7367-1.643-1.644 0-.904.737-1.64 1.643-1.64s1.644.736 1.644 1.64c0 .21-.043.416-.126.615l1.011.957-.205.175a2.918 2.918 0 0 0-.446.474l-.163.216-1.011-.956c-.222.106-.46.162-.703.162l-.001.001zm5.872 6.851a1.63 1.63 0 0 1 1.402 1.622c0 .9069-.7351 1.642-1.642 1.642-.9069 0-1.642-.7351-1.642-1.642 0-.546.272-1.05.722-1.354l-.41-1.795.268-.03c.21-.025.425-.075.636-.147l.255-.089.41 1.793h.001zm1.129-4.494c-.0022 1.5276-1.2404 2.7653-2.768 2.767-1.5276-.0017-2.7658-1.2394-2.768-2.767.0017-1.5284 1.2406-2.7669 2.769-2.768 1.528.0017 2.7663 1.24 2.768 2.768h-.001zm-5.6587.624c.0456.2076.1155.4153.2096.617l.1145.2465-2.2604.7567c-.0408.8692-.7606 1.5648-1.6405 1.5648-.5947 0-1.1108-.3211-1.399-.7955C.0912 10.406 0 10.118 0 9.8065c0-.3113.0912-.5985.2425-.8468.2882-.4744.8043-.7946 1.399-.7946a1.639 1.639 0 0 1 1.2611.5918l2.2585-.7557.0572.2638z" fill-rule="nonzero"/>
</svg>