<svg style="display:none"
  xmlns="http://www.w3.org/2000/svg">
  <symbol id="bell-mute" viewBox="0 0 16 16">
    <path d="M8.699 16c-.807 0-1.468-.675-1.468-1.5h2.936c0 .825-.66 1.5-1.468 1.5zM3.46 10.4V7c0-2.553 1.692-4.612 4.03-5.188v-.577C7.49.576 8.053 0 8.698 0s1.209.576 1.209 1.235v.577a5.31 5.31 0 0 1 2.224 1.153L14.562.88 16 2.631 1.438 15.12 0 13.369 3.461 10.4zM5.194 14l8.722-7.48c.014.158.02.318.02.48v4.53l1.612 1.646V14H5.194z" fill="currentColor" fill-rule="evenodd"/>
  </symbol>
</svg>