<svg style="display:none"
  xmlns="http://www.w3.org/2000/svg">
  <symbol id="lock-outline" viewBox="0 0 16 16">
    <path d="M13.126 5.99h-.43V4.528C12.696 2.031 10.589 0 8 0 5.41 0 3.304 2.031 3.304 4.528V5.99h-.43C1.841 5.99 1 6.886 1 7.988v6.014C1 15.104 1.84 16 2.874 16h10.252C14.159 16 15 15.104 15 14.002V7.988c0-1.102-.84-1.998-1.874-1.998zm-8.212-.055V4.528c0-.715.303-1.4.853-1.929A3.2 3.2 0 0 1 8 1.716a3.2 3.2 0 0 1 2.233.883c.55.529.853 1.214.853 1.93v1.406H4.914zM8 8.875c.721 0 1.308.625 1.308 1.394 0 .477-.23.92-.604 1.175v1.242c0 .394-.3.715-.67.715h-.068c-.37 0-.67-.32-.67-.715v-1.242a1.42 1.42 0 0 1-.604-1.175c0-.769.587-1.394 1.308-1.394zm5.5-.873v5.996c0 .277-.212.502-.472.502H2.972c-.26 0-.472-.225-.472-.502V8.002c0-.277.212-.502.472-.502h10.056c.26 0 .472.225.472.502z" fill="currentColor" fill-rule="evenodd"/>
  </symbol>
</svg>