<svg id="icon-arrow-to-bottom" viewBox="0 0 16 16" xmlns="http://www.w3.org/2000/svg">
  <path d="M13.904 12.6894c0-.4102.3427-.7427.7653-.7427h.5655c.4228 0 .7652.3325.7652.7427v2.5681c0 .4101-.3424.7425-.7652.7425H.7652C.3426 16 0 15.6676 0 15.2575v-2.5681c0-.4102.3426-.7427.7652-.7427h.5655c.4226 0 .7652.3325.7652.7427v1.2917h11.8082v-1.2917zM11.905 6.816l-3.192 3.888c-.151.181-.394.264-.674.296h-.078c-.28-.032-.523-.115-.675-.296L4.095 6.816C4.035 6.71 4 6.65 4 6.555 4 6.249 4.35 6 4.782 6H7V1.997C7 1.454 7.448 1 8 1c.556 0 1 .447 1 .997V6h2.218c.432 0 .782.248.782.555 0 .095-.035.155-.095.261z" fill-rule="evenodd"/>
</svg>