<svg style="display:none"
  xmlns="http://www.w3.org/2000/svg">
  <symbol id="folder-gear" viewBox="0 0 16 16">
    <path d="M7.706 4.155h6.244c1.132.004 2.049.94 2.05 2.093v6.659c-.001 1.155-.92 2.092-2.054 2.093H2.054C.92 14.999.001 14.062 0 12.907V4.093C.001 2.94.917 2.003 2.05 2h3.113c.357-.002.696.16.923.44l1.2 1.51c.103.13.257.205.42.205zm4.182 4.967a.358.358 0 0 0-.302-.31c-.194-.02-.59-.071-.59-.071a.393.393 0 0 1-.301-.381c0-.072.021-.144.064-.201 0-.008.36-.475.36-.475a.336.336 0 0 0-.007-.424 2.871 2.871 0 0 0-.468-.467.335.335 0 0 0-.424-.008l-.467.36a.446.446 0 0 1-.216.064.385.385 0 0 1-.374-.316l-.071-.575a.358.358 0 0 0-.31-.302 3.385 3.385 0 0 0-.66 0 .358.358 0 0 0-.31.302l-.071.575a.379.379 0 0 1-.374.316.415.415 0 0 1-.23-.071l-.453-.353a.335.335 0 0 0-.424.008 2.87 2.87 0 0 0-.468.467.327.327 0 0 0-.007.424l.345.453c.05.065.08.144.08.223a.387.387 0 0 1-.331.38l-.56.073a.351.351 0 0 0-.303.309 3.404 3.404 0 0 0 0 .661.358.358 0 0 0 .302.31l.56.071a.374.374 0 0 1 .252.604l-.345.453a.336.336 0 0 0 .007.424c.137.173.295.331.468.468.064.05.136.079.215.079a.32.32 0 0 0 .209-.072l.453-.352a.415.415 0 0 1 .23-.072.38.38 0 0 1 .374.316l.071.575c.022.159.151.28.31.302.107.008.222.015.33.015.108 0 .223-.007.33-.015a.358.358 0 0 0 .31-.302l.071-.575a.385.385 0 0 1 .59-.251l.467.36a.32.32 0 0 0 .209.07c.079 0 .15-.02.215-.078.173-.137.331-.295.468-.468a.336.336 0 0 0 .007-.424c-.123-.158-.36-.467-.36-.474a.341.341 0 0 1-.064-.209c0-.18.129-.338.302-.374 0 0 .395-.05.59-.071a.359.359 0 0 0 .301-.31 3.419 3.419 0 0 0 0-.661zm-3.436 1.502a1.172 1.172 0 1 1 0-2.344 1.172 1.172 0 0 1 0 2.344z" fill="currentColor" fill-rule="evenodd"/>
  </symbol>
</svg>