<svg id="icon-circle-question" viewBox="0 0 16 16" xmlns="http://www.w3.org/2000/svg">
  <path d="M8 16c-4.4112 0-8-3.5888-8-8s3.5888-8 8-8 8 3.5888 8 8-3.5888 8-8 8zm-.2658-5.9452c-.554 0-.9638.4098-.9638.9416v.0222c0 .5318.4098.9414.9638.9414.5538 0 .9636-.4096.9636-.9414v-.0222c0-.5318-.4098-.9416-.9636-.9416zM7.9556 4.04c-.9746 0-1.7168.3104-2.3038.7976-.1994.1662-.2882.3876-.2882.5984 0 .4206.3546.7752.7754.7752.1884 0 .3656-.0776.4986-.1774.3988-.299.8086-.443 1.2848-.443.6426 0 1.0192.288 1.0192.7864v.0222c0 .5428-.443.842-1.4066.9636-.3548.0442-.7368.2992-.6814.6648v.956c.0442.299.2768.5426.5982.5426h.371c.3212 0 .5538-.2548.5984-.5426l.0332-.402c1.2072-.2438 2.182-.82 2.182-2.2268v-.0222c0-1.4732-1.0856-2.2928-2.6808-2.2928z" fill-rule="evenodd"/>
</svg>