<svg style="display:none"
  xmlns="http://www.w3.org/2000/svg">
  <symbol id="file" viewBox="0 0 16 16">
    <path d="M9.718 2.748V0H2.991C1.888 0 1 .78 1 1.74v12.625C1 15.267 1.834 16 2.871 16h10.393c.971 0 1.736-.687 1.736-1.53V4.644h-3.159c-1.009 0-2.123-.803-2.123-1.897zM11.937 12H4.063c-.311 0-.563-.222-.563-.5 0-.276.25-.5.563-.5h7.874c.311 0 .563.222.563.5 0 .276-.25.5-.563.5zm0-2H4.063c-.311 0-.563-.222-.563-.5 0-.276.25-.5.563-.5h7.874c.311 0 .563.222.563.5 0 .276-.25.5-.563.5zm.563-2.5c0 .276-.25.5-.563.5H4.063c-.311 0-.563-.222-.563-.5 0-.276.25-.5.563-.5h7.874c.311 0 .563.222.563.5zm-.924-3.974a.705.705 0 0 1-.712-.697V.167L14.3 3.526h-2.724z" fill="currentColor" fill-rule="evenodd"/>
  </symbol>
</svg>