<svg style="display:none"
  xmlns="http://www.w3.org/2000/svg">
  <symbol id="tag" viewBox="0 0 16 16">
    <path d="M6.554 16c-.5 0-.969-.195-1.321-.548l-4.687-4.69a1.872 1.872 0 0 1 0-2.644L8.418.24C8.63.028 8.91 0 9.156 0c1.148 0 5.007.758 5.443.844l.434.087.095.431c1.23 5.6.877 5.954.62 6.211l-7.872 7.88A1.858 1.858 0 0 1 6.554 16zm4.58-9.326c-.52 0-1.007-.202-1.373-.57a1.947 1.947 0 0 1 .001-2.746c.732-.733 2.01-.735 2.744 0 .757.758.757 1.99.002 2.746-.368.368-.855.57-1.374.57z" fill="currentColor" fill-rule="evenodd"/>
  </symbol>
</svg>