<svg id="icon-microphone" viewBox="0 0 16 16" xmlns="http://www.w3.org/2000/svg">
  <path d="M13.077 6.77V8c0 1.417-.473 2.649-1.418 3.697-.946 1.048-2.114 1.65-3.505 1.803v1.27h2.461c.167 0 .311.06.433.182a.591.591 0 0 1 .183.433c0 .166-.061.31-.183.432a.591.591 0 0 1-.433.183H4.462a.591.591 0 0 1-.433-.183.591.591 0 0 1-.183-.432c0-.167.061-.311.183-.433a.591.591 0 0 1 .433-.183h2.461V13.5c-1.39-.154-2.56-.755-3.505-1.803C2.473 10.65 2 9.417 2 8V6.77c0-.167.06-.312.183-.433a.591.591 0 0 1 .432-.183c.167 0 .311.06.433.183a.591.591 0 0 1 .183.432V8c0 1.186.421 2.2 1.264 3.043s1.858 1.265 3.043 1.265c1.186 0 2.2-.422 3.044-1.265.843-.843 1.264-1.857 1.264-3.043V6.77c0-.167.061-.312.183-.433a.591.591 0 0 1 .433-.183c.166 0 .31.06.432.183a.591.591 0 0 1 .183.432zm-2.462-3.693V8c0 .846-.3 1.57-.903 2.173a2.963 2.963 0 0 1-2.174.904c-.846 0-1.57-.301-2.173-.904A2.963 2.963 0 0 1 4.462 8V3.077c0-.846.3-1.57.903-2.173A2.963 2.963 0 0 1 7.538 0c.847 0 1.571.301 2.174.904.602.602.903 1.327.903 2.173z" fill-rule="evenodd"/>
</svg>