<svg style="display:none"
  xmlns="http://www.w3.org/2000/svg">
  <symbol id="rocket" viewBox="0 0 16 16">
    <path d="M15.823.192L15.808.18l-.012-.015c-.593-.536-6.016.26-7.774 1.966-.875.85-1.678 1.48-2.58 3.053-.015.027-1.947-.057-2.9.172l.015.014c-.567.15-.988.271-1.496.748C.038 7.077-.25 8.316.216 9.106c.27-.571.942-1.08 1.816-1.3.972-.243 2.47.104 2.47.104l3.06 2.869s.372 1.405.111 2.316c-.234.82-.777 1.448-1.386 1.703.843.435 2.165.166 3.187-.792.508-.477.638-.872.799-1.403l.014.013c.244-.892.155-2.704.183-2.718 1.677-.846 2.35-1.599 3.257-2.419 1.82-1.647 2.669-6.732 2.096-7.287zm-2.907 4.85a1.7 1.7 0 0 1-2.294 0 1.454 1.454 0 0 1 0-2.15 1.699 1.699 0 0 1 2.294 0 1.454 1.454 0 0 1 0 2.15zm-9.842 5.792c-.845.792-1.22 1.725-.836 2.084.382.36 1.377.008 2.222-.784s1.22-1.726.837-2.084c-.383-.359-1.378-.008-2.223.784z" fill="currentColor" fill-rule="evenodd"/>
  </symbol>
</svg>