<svg style="display:none"
  xmlns="http://www.w3.org/2000/svg">
  <symbol id="folder-open" viewBox="0 0 16 16">
    <path d="M.008 4.093H0C.001 2.94.918 2.003 2.05 2h3.113c.358-.002.697.16.924.44l1.2 1.51c.03.038.064.072.102.1h3.783c.522 0 .97.208 1.345.625.375.416.562.915.562 1.496v1.515H5.995c-.534 0-1.093.15-1.678.45-.585.3-1.05.676-1.396 1.13l-2.87 3.75-.042.057c0-.026-.002-.065-.005-.119A2.492 2.492 0 0 1 0 12.836l.008-8.743zM16 9.431c0 .197-.088.407-.264.63l-2.861 3.774c-.244.324-.586.599-1.026.824-.44.226-.847.338-1.222.338H1.362c-.193 0-.364-.04-.515-.123-.15-.083-.225-.22-.225-.41 0-.197.088-.407.264-.63l2.86-3.774c.245-.324.587-.599 1.027-.824.44-.226.847-.339 1.222-.339h9.264c.193 0 .365.042.515.124.15.083.226.22.226.41z" fill="currentColor" fill-rule="evenodd"/>
  </symbol>
</svg>