<svg id="icon-cost" viewBox="0 0 16 16" xmlns="http://www.w3.org/2000/svg">
  <path d="M9.126 14.148v1.562a.282.282 0 0 1-.286.286H7.635a.288.288 0 0 1-.285-.286v-1.562c-2.09-.295-3.232-1.544-3.276-1.598a.294.294 0 0 1-.018-.366l.919-1.205a.294.294 0 0 1 .206-.107c.08-.009.16.018.214.08.018.009 1.267 1.205 2.847 1.205.875 0 1.82-.464 1.82-1.472 0-.857-1.052-1.277-2.257-1.759-1.607-.634-3.606-1.437-3.606-3.678 0-1.642 1.285-2.999 3.15-3.356V.285c0-.16.135-.285.286-.285H8.84c.16 0 .286.125.286.285v1.571c1.812.206 2.776 1.188 2.812 1.223a.285.285 0 0 1 .044.339l-.723 1.304a.264.264 0 0 1-.205.143.296.296 0 0 1-.241-.063c-.01-.009-1.09-.964-2.428-.964-1.134 0-1.92.562-1.92 1.375 0 .946 1.09 1.365 2.358 1.856 1.642.634 3.499 1.357 3.499 3.508 0 1.821-1.304 3.259-3.196 3.571" fill-rule="evenodd"/>
</svg>