<svg id="icon-logout" viewBox="0 0 16 16" xmlns="http://www.w3.org/2000/svg">
  <path d="M14.006 0C15.107 0 16 .893 16 1.994V3c0 .553-.448 1-1 1s-1.035-.447-1.035-.999V1.994L1.965 2v12.006l12-.006v-1.003c0-.55.487-.997 1.038-.997.55 0 .997.446.997.997v1.009C16 15.107 15.107 16 14.005 16H1.994C.892 16 0 15.107 0 14.006V1.994C0 .893.892 0 1.994 0h12.012zM8.184 4.095C8.29 4.035 8.35 4 8.445 4c.307 0 .555.35.555.782V7h4.003c.55 0 .997.444.997 1 0 .552-.454 1-.997 1H9v2.218c0 .432-.249.782-.555.782-.095 0-.155-.035-.261-.095L4.296 8.714c-.181-.152-.264-.395-.296-.675v-.078c.032-.28.115-.523.296-.674l3.888-3.192z" fill-rule="evenodd"/>
</svg>