<svg id="icon-chat" viewBox="0 0 16 16" xmlns="http://www.w3.org/2000/svg">
  <path d="M7.855 0c4.363 0 7.854 3.478 7.854 7.722 0 1.67-.509 3.13-1.454 4.382L16 16l-4-1.74a7.746 7.746 0 0 1-4.145 1.183C3.49 15.443 0 11.965 0 7.722 0 3.478 3.49 0 7.855 0zm3.802 9.187c.739 0 1.343-.605 1.343-1.344 0-.739-.604-1.343-1.343-1.343-.74 0-1.344.604-1.344 1.343 0 .74.605 1.344 1.344 1.344zM8 9.187c.739 0 1.343-.605 1.343-1.344C9.343 7.104 8.74 6.5 8 6.5s-1.343.604-1.343 1.343c0 .74.604 1.344 1.343 1.344zm-3.657 0c.74 0 1.344-.605 1.344-1.344 0-.739-.605-1.343-1.344-1.343C3.604 6.5 3 7.104 3 7.843c0 .74.604 1.344 1.343 1.344z" fill-rule="evenodd"/>
</svg>