<svg id="icon-logo-vcloud" viewBox="0 0 16 16" xmlns="http://www.w3.org/2000/svg">
  <path d="M14.9995 0h-3.743c-.55 0-1.0005.4465-1.0005.997v3.3135L7.6685 6.898c-.011-.0005-.0215-.0005-.032-.0005H5.5v-1.248h.947c.55 0 1.0005-.446 1.0005-.997V.997C7.4475.4435 6.9995 0 6.447 0H2.704c-.5495 0-1.0005.4465-1.0005.997v3.6555c0 .554.448.997 1.0005.997H3.5v1.248H1.498c-.8265 0-1.498.673-1.498 1.503v6.0965C0 15.3305.671 16 1.498 16h6.1385c.8265 0 1.4985-.673 1.4985-1.503v-2.1995h1.121v.8925c0 .554.448.997 1.0005.997h3.743c.55 0 1.0005-.446 1.0005-.997V9.5345c0-.554-.448-.997-1.0005-.997h-3.743c-.55 0-1.0005.4465-1.0005.997v.763H9.135v-1.897c0-.0455-.002-.0905-.006-.135l2.616-2.616h3.2545c.55 0 1.0005-.446 1.0005-.997V.997C16 .4435 15.552 0 14.9995 0" fill-rule="evenodd"/>
</svg>