<svg style="display:none"
  xmlns="http://www.w3.org/2000/svg">
  <symbol id="bank" viewBox="0 0 16 16">
    <path d="M11.78 4.213a.277.277 0 0 1-.384.113c-2.201-1.254-4.66-.144-4.685-.133a.28.28 0 0 1-.373-.145.292.292 0 0 1 .141-.382c.111-.051 2.744-1.24 5.192.154a.292.292 0 0 1 .11.393M4.538 6.758a.573.573 0 0 1-.565-.58c0-.32.253-.579.565-.579.312 0 .565.26.565.58 0 .32-.253.58-.565.58M16 7.866C16 4.801 12.737 2 8.714 2a8.959 8.959 0 0 0-3.862.85c-.442-.266-1.331-.656-2.6-.518-1.441.158-.296 1.602.309 2.26-.485.585-.835 1.24-1.006 1.945-.423.037-1.49.24-1.55 1.347-.074 1.382.65 3.224 1.223 3.275.44.04 1.272-.042 1.779-.163.394.38.86.712 1.368 1.002-.215.992-.466 2.91.796 2.998 1.156.081 1.547-1.103 1.699-2.08a9.338 9.338 0 0 0 4.147-.1c.238.987.751 2.357 1.995 2.115 1.277-.248.744-2.22.416-3.151C15 10.763 16 9.564 16 7.867" fill="currentColor" fill-rule="evenodd"/>
  </symbol>
</svg>