<svg id="icon-box-cloudformation" viewBox="0 0 16 16" xmlns="http://www.w3.org/2000/svg">
  <path d="M8 16a3.368 3.368 0 0 1-1.5507-.3813l-4.5659-2.3814C.7217 12.6314 0 11.4211 0 10.0786V5.9214C0 4.579.7217 3.3686 1.8834 2.7626L6.4494.3813A3.368 3.368 0 0 1 8 0a3.368 3.368 0 0 1 1.5507.3813l4.5657 2.3813C15.2782 3.3686 16 4.5789 16 5.9214v4.1572c0 1.3425-.7218 2.5528-1.8836 3.1587l-4.5657 2.3814A3.368 3.368 0 0 1 8 16zM8 2.0005c-.2214 0-.4438.055-.6431.1588l-4.529 2.3622C2.3248 4.7838 2 5.34 2 5.9387v4.1236c0 .5987.325 1.155.8278 1.4172l4.529 2.3622c.1994.1038.4218.1588.6432.1588.2214 0 .4438-.055.6431-.1588l4.529-2.3622c.503-.2623.8279-.8185.8279-1.4172V5.9387c0-.5987-.325-1.155-.8278-1.4172l-4.529-2.3622A1.3984 1.3984 0 0 0 8 2.0005zm3.4405 3.3814c.6536.3029 1.0595.908 1.0595 1.5793v2.0786c0 .6712-.4059 1.2764-1.0595 1.5794l-2.5682 1.1906A2.0863 2.0863 0 0 1 8 12.0005c-.3016 0-.6032-.066-.8723-.1907l-2.5683-1.1906C3.9059 10.3162 3.5 9.711 3.5 9.0398V6.9612c0-.6712.4059-1.2764 1.0594-1.5793l2.5683-1.1907A2.088 2.088 0 0 1 8 4.0005c.3016 0 .6032.066.8723.1907l2.5682 1.1907zM7 9.5005v-3l-1.8635.2096H5V9.275l2 .2256zm3.9607-2.7903L11 6.71l-2-.2096v3l1.9607-.2256V6.7102z" fill-rule="evenodd"/>
</svg>