<svg id="icon-users" viewBox="0 0 16 16" xmlns="http://www.w3.org/2000/svg">
  <path d="M9.727 11.013c.135-.081.267-.169.394-.265.027-.02.052-.043.08-.064.157-.123.243-.272.223-.492-.015-.158-.026-.291-.138-.424-.24-.282-.393-.622-.498-.983-.024-.082-.02-.15-.081-.21-.26-.259-.344-.663-.148-.977a.296.296 0 0 0 .048-.166v-1.06c.006-.885.532-1.536 1.371-1.686.488-.087.973-.078 1.444.101.528.202.839.6.961 1.168.07.324.047.654.054.982l.007.627c.228.3.19.792-.066 1.022a.395.395 0 0 0-.105.135c-.132.43-.315.83-.613 1.166-.011.012-.028.025-.03.04-.025.156-.007.313-.009.47 0 .069.051.118.094.167.172.198.39.329.61.456.655.379 1.346.677 2.042.965l.427.18a.313.313 0 0 1 .204.307c.002.402.004.804-.001 1.206a.311.311 0 0 1-.318.32H8.56L7.465 14c-.036 0-.073 0-.11-.002a.382.382 0 0 1-.071-.01H1.95L.55 13.99c-.047 0-.095 0-.142-.002-.237-.01-.403-.177-.405-.427-.005-.51-.004-1.02 0-1.531.003-.201.11-.33.287-.402.67-.272 1.337-.548 1.99-.86.576-.275 1.153-.55 1.669-.94.034-.027.067-.056.101-.082.202-.158.313-.348.286-.63-.019-.202-.032-.373-.176-.543-.306-.361-.503-.796-.638-1.258-.03-.105-.024-.192-.103-.27-.334-.33-.44-.847-.189-1.249a.378.378 0 0 0 .06-.213c0-.452 0-.904.002-1.356.007-1.133.68-1.967 1.754-2.158.624-.111 1.245-.1 1.849.13.675.257 1.073.766 1.23 1.493.088.416.06.838.068 1.257.003.126.01.803.01.803.291.385.244 1.014-.086 1.309a.505.505 0 0 0-.134.172c-.169.55-.402 1.064-.784 1.492-.014.017-.036.033-.04.052-.031.2-.008.4-.01.601 0 .088.066.151.12.215.22.252.5.42.78.582.544.315 1.107.586 1.678.838z" fill-rule="evenodd"/>
</svg>