<svg id="icon-circle-gear" viewBox="0 0 16 16" xmlns="http://www.w3.org/2000/svg">
  <path d="M8 16c-4.4112 0-8-3.5888-8-8s3.5888-8 8-8 8 3.5888 8 8-3.5888 8-8 8zm4.3561-8.4862c-.0278-.2033-.185-.3698-.3882-.3973-.2497-.0276-.758-.0926-.758-.0926-.2218-.0552-.3883-.2497-.3883-.4898 0-.0922.0277-.185.0834-.2588 0-.0091.4621-.61.4621-.61.1292-.157.1198-.3881-.0092-.5453a3.6914 3.6914 0 0 0-.6012-.601c-.157-.1295-.3881-.1388-.545-.0093-.2035.157-.6007.4624-.6007.4624-.0831.0462-.1756.0829-.2772.0829-.2404 0-.4345-.1754-.4809-.4066l-.092-.7395c-.0278-.2034-.1944-.3604-.3976-.3881a4.3518 4.3518 0 0 0-.85 0c-.2035.0276-.3698.1847-.3975.3881l-.0922.7395c-.0371.2312-.2404.4066-.4809.4066-.1105 0-.2124-.0367-.2955-.0922l-.5823-.4531c-.157-.1295-.3882-.1202-.5451.0092a3.6906 3.6906 0 0 0-.601.601.4204.4204 0 0 0-.0092.5455c.148.194.4436.5823.4436.5823.0647.083.1018.185.1018.2864 0 .2498-.1849.453-.4253.4898l-.7208.0926c-.2034.0276-.3694.194-.3882.3973a4.3762 4.3762 0 0 0 0 .8506c.0279.2034.185.3699.3882.3975l.7208.0922a.4815.4815 0 0 1 .4253.481.4772.4772 0 0 1-.1018.2956l-.4436.5824c-.1294.1573-.1203.3882.0091.5453.1757.2218.379.4253.601.601.0831.0649.1755.1016.2772.1016.0923 0 .1942-.0276.268-.0923l.5823-.453c.0831-.0555.185-.0927.2955-.0927.2405 0 .4438.1758.4809.4071 0 .0091.0922.7394.0922.7394.0277.2034.194.3602.3975.3882.1385.0094.2864.0186.4252.0186.1387 0 .2863-.0092.4248-.0186.2035-.0277.3698-.1848.3975-.3882l.0921-.7394c.0464-.2313.2405-.407.481-.407.1015 0 .2034.0279.2771.0834l.6007.4622c.0737.0647.1756.0923.2679.0923.102 0 .1941-.0276.2771-.1016a3.6914 3.6914 0 0 0 .6012-.601c.129-.157.1384-.3881.0092-.5453-.1574-.2034-.462-.6008-.462-.61-.0558-.0739-.0835-.1665-.0835-.268 0-.231.1664-.4346.3883-.481 0 0 .5083-.0647.758-.0922.2033-.0276.3602-.1943.3882-.3975a4.3957 4.3957 0 0 0 0-.8506zM7.9386 9.4455c-.8318 0-1.5064-.6747-1.5064-1.5067 0-.8317.6747-1.5064 1.5064-1.5064.8316 0 1.5062.6747 1.5062 1.5064 0 .8322-.6746 1.5067-1.5062 1.5067z" fill-rule="evenodd"/>
</svg>