<svg style="display:none"
  xmlns="http://www.w3.org/2000/svg">
  <symbol id="address-book" viewBox="0 0 16 16">
    <path d="M0 1a1 1 0 0 1 1-1h1v16H1a1 1 0 0 1-1-1V1zm14.539-1c.531 0 .961.448.961 1v14c0 .552-.43 1-.961 1H3V0h11.539zm-2.041 10.776a.22.22 0 0 1-.23.222H7.105L6.311 11l-.08-.001c-.134-.006-.228-.096-.23-.232a44.478 44.478 0 0 1 0-.83c.002-.109.063-.178.163-.218.38-.147.758-.297 1.128-.466.326-.149.653-.298.945-.51l.058-.044c.114-.085.176-.189.161-.341-.01-.11-.018-.202-.1-.295a1.806 1.806 0 0 1-.361-.682c-.017-.057-.014-.104-.058-.146-.19-.179-.25-.459-.107-.677a.203.203 0 0 0 .034-.115v-.735c.005-.615.386-1.067.995-1.17.353-.061.705-.055 1.047.07.382.139.608.416.696.81.05.225.035.453.04.68l.005.436c.165.209.138.55-.049.71a.28.28 0 0 0-.076.093c-.096.298-.228.576-.443.809-.009.008-.022.018-.023.028-.018.108-.005.217-.006.326 0 .047.037.082.068.116.125.137.283.228.442.316.476.263.976.47 1.48.67.104.04.208.083.31.125.096.038.148.11.149.213 0 .279.002.558-.001.836z" fill="currentColor" fill-rule="evenodd"/>
  </symbol>
</svg>