<svg style="display:none"
  xmlns="http://www.w3.org/2000/svg">
  <symbol id="database" viewBox="0 0 16 16">
    <path d="M14.709 10.674c-.042.924-2.871 1.669-6.355 1.669-3.51 0-6.354-.759-6.354-1.692v3.658C2 15.24 4.843 16 8.354 16s6.355-.759 6.355-1.691V10.674zm0-4.48c-.042.924-2.871 1.669-6.355 1.669C4.844 7.863 2 7.104 2 6.17V9.83c0 .932 2.843 1.691 6.354 1.691s6.355-.759 6.355-1.691V6.194zm0-4.48v-.023C14.709.76 11.865 0 8.354 0 4.844 0 2 .759 2 1.691V5.35C2 6.28 4.843 7.04 8.354 7.04s6.355-.759 6.355-1.691V1.714z" fill="currentColor" fill-rule="evenodd"/>
  </symbol>
</svg>