<svg id="icon-arrow-vertical" viewBox="0 0 16 16" xmlns="http://www.w3.org/2000/svg">
  <path d="M7.9001.068l4.1655 3.9527c.1253.103.1253.4251 0 .5281l-.9611.7926c-.1251.103-.5159.103-.641 0l-2.8838-2.896-2.8836 2.896c-.1251.103-.5159.103-.641 0l-.961-.7926c-.1254-.103-.1254-.4251 0-.528L7.2594.068c.0654-.054.2346-.0703.3202-.0677.0858-.0026.255.0137.3204.0677zm0 15.864l4.1655-3.9527c.1253-.103.1253-.4251 0-.5281l-.9611-.7926c-.1251-.103-.5159-.103-.641 0l-2.8838 2.896-2.8836-2.896c-.1251-.103-.5159-.103-.641 0l-.961.7926c-.1254.103-.1254.4251 0 .528l4.1654 3.9528c.0654.054.2346.0703.3202.0677.0858.0026.255-.0137.3204-.0677z" fill-rule="evenodd"/>
</svg>