<svg id="icon-products-infected" viewBox="0 0 96 96" xmlns="http://www.w3.org/2000/svg">
  <path fill-rule="evenodd" d="M18.8 17.4h67.7c.7 0 1.2.6 1.2 1.2v48.2c0 .7-.5 1.2-1.2 1.2H18.8c-.7 0-1.2-.5-1.2-1.2V18.6c0-.7.5-1.2 1.2-1.2Zm28.1 4.252a1.11 1.11 0 1 1 2.198.002A1.11 1.11 0 0 1 48 22.8a1.11 1.11 0 0 1-1.098-1.148ZM48 35.6c-2.4 0-4.7 1.6-4.7 3.9v1.6h9.4v-1.6c0-2.3-2.3-3.9-4.7-3.9Zm8.6 19.9v-.8h.1V46L55 43.9c-.7-.9-1.7-1.4-2.8-1.4h-8.3c-1.1 0-2.1.5-2.8 1.4L39.4 46v8.6c-.2 4.7 3.5 8.8 8.2 9 4.7.3 8.8-3.4 9-8.1Z" class="-path--shadow" fill="#38C6F4"/>
  <path fill-rule="evenodd" d="m53.723 28.987-2.911 6.523A6.046 6.046 0 0 0 48 34.8c-.924 0-1.888.246-2.737.697l-2.876-6.445-1.187.53 2.975 6.667c-.883.787-1.475 1.863-1.475 3.151V41H44v-1.6c0-1.9 2.1-3.2 4-3.2s4 1.3 4 3.2V41h1.3v-1.6c0-1.298-.56-2.355-1.405-3.128l3.015-6.755-1.187-.53ZM38.7 46.682l-3-2.182-1.6-5.7 1.3-.3 1.5 5.2 2.16 1.64 1.44-1.84c.8-1 2-1.6 3.3-1.6h8.3c1.3 0 2.5.6 3.3 1.7l1.468 1.794L59.1 43.7l1.6-5.2 1.2.3-1.6 5.7-3.1 2.255v3.081l4.6 1.564 1.7 5.7-1.3.4-1.5-5.1-3.5-1.22v4.22c-.02.487-.076.963-.167 1.425L60.3 59.3l.9 4.9-1.3.2-.8-4.4-2.434-1.846C55.38 61.73 51.95 64.2 48 64.2h-.5c-2.5-.1-4.7-1.2-6.4-3a8.71 8.71 0 0 1-1.843-2.988L36.9 60l-.7 4.4-1.3-.2.8-4.9 3.181-2.41a9.48 9.48 0 0 1-.181-2.29v-3.386L35.3 52.4l-1.5 5.1-1.3-.4 1.7-5.7 4.5-1.53v-3.188Zm1.4 7.918v-8.4l1.5-2c.5-.7 1.3-1.1 2.2-1.1h8.3c.9.1 1.8.5 2.3 1.2l1.5 1.9v9.2c-.2 4.3-3.9 7.7-8.3 7.5-2.1-.1-4.1-1-5.5-2.6-1.4-1.5-2.1-3.6-2-5.7Zm7.79-7.558a.657.657 0 0 1 .667.647l.2 12.2a.657.657 0 1 1-1.315.022l-.2-12.2a.658.658 0 0 1 .647-.669Z" fill="#D62015"/>
  <path fill-rule="evenodd" d="M12.184 19.506c-.4 0-.7.3-.7.7v49.752L1.443 76.745a.658.658 0 0 0-.6.655V78.6c0 .363.294.658.657.658h93a.658.658 0 0 0 .657-.658V77.4a.658.658 0 0 0-.61-.656l-9.963-6.552V20.106c0-.4-.3-.7-.7-.7h-71.7v.1Zm-.166 51.679c.054.013.11.021.166.021h71.55l8.417 5.536H3.795l8.223-5.557Zm71.166-1.643V24.2h-70.4v45.342h70.4ZM46.9 21.5c0-.55.42-1.016.952-1.09.043-.003.087-.004.132-.004.229 0 .515.116.727.26a1.1 1.1 0 0 1 .389.834c0 .6-.5 1.1-1.1 1.1-.6 0-1.1-.5-1.1-1.1Z" class="-path--primary" fill="#083176"/>
</svg>
