<svg id="icon-products-efficiency" viewBox="0 0 96 96" xmlns="http://www.w3.org/2000/svg">
  <path d="M84.528 56.116a36.768 36.768 0 0 0-5.28-13.15l7.242-7.281-9.74-9.793-7.147 7.179A35.415 35.415 0 0 0 56.65 27.52h-.175V17.374H42.699v10.043c-4.715.885-9.2 2.729-13.18 5.418L22.4 25.76l-9.739 9.792 7.067 7.127a35.802 35.802 0 0 0-5.368 13.253H4.174v13.863h22.832c-3.822-12.09 2.828-25.007 14.853-28.85 12.026-3.843 24.873 2.843 28.695 14.933a23.09 23.09 0 0 1-.035 14.028H94.83v-13.79H84.528Z" class="-path--shadow" fill="#38C6F4"/>
  <path fill-rule="evenodd" d="M39.703 19.56a.66.66 0 0 1 .66-.66h13.775a.66.66 0 0 1 .66.66v9.581a36.039 36.039 0 0 1 12.38 5.269l6.746-6.796a.66.66 0 0 1 .937 0l9.739 9.792a.66.66 0 0 1 0 .931l-6.868 6.906a37.392 37.392 0 0 1 5.002 12.406h9.746a.66.66 0 0 1 .66.66v13.842a.66.66 0 0 1-.66.661H82.015a.66.66 0 1 1 0-1.321h9.804V58.97h-9.628a.66.66 0 0 1-.649-.537 36.07 36.07 0 0 0-5.206-12.92.66.66 0 0 1 .085-.827l6.779-6.816-8.807-8.854-6.664 6.713a.66.66 0 0 1-.845.078 34.719 34.719 0 0 0-12.705-5.447h-.001l-.176-.037a.66.66 0 0 1-.525-.647V20.22H41.024v9.39a.66.66 0 0 1-.54.649 34.479 34.479 0 0 0-12.932 5.31.66.66 0 0 1-.836-.08l-6.642-6.602-8.81 8.86 6.597 6.66a.66.66 0 0 1 .08.83 35.142 35.142 0 0 0-5.268 13.009.66.66 0 0 1-.65.54H2.492v12.556h9.591a.66.66 0 0 1 0 1.322H1.83a.66.66 0 0 1-.66-.66v-13.88a.66.66 0 0 1 .66-.66h9.649a36.462 36.462 0 0 1 5.067-12.506L9.863 38.21a.66.66 0 0 1 0-.93l9.74-9.793a.66.66 0 0 1 .934-.003l6.729 6.689a35.8 35.8 0 0 1 12.437-5.107V19.56Z" class="-path--primary" fill="#083176"/>
  <path fill-rule="evenodd" d="M33.797 62.473c.015-8.202 6.639-14.833 14.788-14.818 1.676.003 3.34.294 4.92.859a.66.66 0 0 0 .445-1.244 16.01 16.01 0 0 0-5.363-.936c-8.885-.017-16.096 7.211-16.112 16.136-.016 8.925 7.168 16.18 16.053 16.196 8.886.017 16.096-7.211 16.112-16.136a.66.66 0 0 0-1.321-.003c-.015 8.202-6.64 14.833-14.788 14.818-8.15-.015-14.75-6.67-14.734-14.872Zm26.081-10.699a.66.66 0 1 0-.937-.932l-8.037 8.075a3.581 3.581 0 0 0-1.768-.464 3.618 3.618 0 0 0-3.61 3.626c0 2 1.613 3.627 3.61 3.627a3.618 3.618 0 0 0 3.61-3.627c0-.877-.31-1.682-.827-2.31l7.959-7.995Z" class="-path--secondary" fill="#FF9E18"/>
</svg>
