<svg id="icon-products-portal" viewBox="0 0 96 96" xmlns="http://www.w3.org/2000/svg">
  <path fill-rule="evenodd" d="M86.84 17.093H15.004v46.61h73.08v-46.61H86.84ZM58.437 52.89h17.897V25.951H37.564v9.158H19.667v26.938h38.77V52.89Z" class="-path--shadow" fill="#38C6F4"/>
  <path fill-rule="evenodd" d="M36.834 25.343h40.02v28.189H58.958v9.157h-40.02V34.5l17.897.03v-9.186Zm0 28.189h20.872v7.906H20.188V41.441l16.646.027v12.064Zm0-17.752v4.437l-16.646-.027v-4.438l16.646.028Zm1.251-3.49v19.99h37.519V32.29H38.085Zm0-1.268v-4.428h37.519v4.428H38.085Zm-12.922 7.063h.208l.176-.586.176.585h.209l.178-.699.178.7h.208l.176-.586.176.585h.209l.237-.93h-.24l-.122.592-.17-.592h-.18l-.17.592-.121-.592h-.362l-.122.592-.17-.592h-.18l-.17.592-.121-.592h-.147l.004-.017h-.24l-.122.593-.17-.593h-.18l-.17.592-.12-.592h-.24l.237.93h.207l.176-.585.177.586h.208l.186-.731.191.747ZM43.705 28.05l.122-.593h.24l-.238.931h-.208l-.176-.586-.176.586h-.208l-.187-.734-.183.717h-.208l-.177-.586-.176.586h-.208l-.237-.93h.24l.121.591.17-.592h.18l.17.593.122-.593h.24l-.004.017h.14l.121.592.17-.592h.18l.17.593Zm1.243 0 .122-.593h.24l-.237.931h-.209l-.176-.586-.176.586h-.208l-.237-.93h.24l.121.591.17-.592h.18l.17.593Z" class="-path--secondary" fill="#FF9E18"/>
  <path fill-rule="evenodd" d="M78.903 19.28a.667.667 0 0 0-.097.008H11.46a.66.66 0 0 0-.66.66V71.68l-9.116 5.3a.66.66 0 0 0-.383.221l-.133.078a.66.66 0 0 0-.023 1.128v.5c0 .364.295.66.66.66h92.39a.66.66 0 0 0 .661-.66v-.5a.66.66 0 0 0-.032-1.133l-.12-.068a.66.66 0 0 0-.412-.231l-9.113-5.122a.66.66 0 0 0 .022-.17V19.941a.66.66 0 0 0-.66-.66h-5.638Zm4.977 47.257H12.12V20.609h71.17a.667.667 0 0 0 .098-.007h.49v45.935ZM4.332 76.968l7.956-4.624h71.066l8.228 4.624H4.332Zm44.775-7.74A1.11 1.11 0 0 1 48 70.34a1.11 1.11 0 0 1-1.108-1.113A1.11 1.11 0 0 1 48 68.114a1.11 1.11 0 0 1 1.107 1.114Z" class="-path--primary" fill="#083176"/>
</svg>
