<svg id="icon-products-satellite" viewBox="0 0 96 96" xmlns="http://www.w3.org/2000/svg">
  <path fill-rule="evenodd" d="M6.709 15.212a.557.557 0 0 0 0 .781l24.588 24.924a.54.54 0 0 0 .77 0l5.83-5.908 5.666 5.737L32.67 51.789a.555.555 0 0 0 0 .78l12.433 12.603a.54.54 0 0 0 .77 0l10.89-11.04 5.668 5.738-5.837 5.916a.557.557 0 0 0 0 .78l24.589 24.925a.54.54 0 0 0 .77 0l12.433-12.603a.557.557 0 0 0 0-.78L69.796 53.182a.54.54 0 0 0-.77 0L63.2 59.089l-5.667-5.737 18.398-18.649a.557.557 0 0 0 0-.78L63.498 21.32a.54.54 0 0 0-.77 0L44.334 39.965l-5.667-5.737 5.834-5.913a.557.557 0 0 0 0-.781L19.91 2.61a.54.54 0 0 0-.77 0L6.71 15.212Z" class="-path--shadow" fill="#38C6F4"/>
  <path fill-rule="evenodd" d="M2.083 16.002a.669.669 0 0 0 0 .937L26.67 41.863c.256.26.67.26.925 0l5.746-5.825 5.503 5.57-10.816 10.965a.669.669 0 0 0 0 .936l6 6.081-3.586 3.634a.658.658 0 1 0 .937.924l3.573-3.62 5.509 5.584c.255.259.669.259.924 0L52.2 55.152l5.515 5.583-5.754 5.832a.669.669 0 0 0 0 .937l24.588 24.924c.255.26.67.26.924 0l12.433-12.602a.67.67 0 0 0 0-.937L65.317 53.965a.647.647 0 0 0-.924 0l-5.755 5.833-5.515-5.583 18.322-18.572a.669.669 0 0 0 0-.937L59.012 22.104a.647.647 0 0 0-.925 0L39.77 40.672l-5.502-5.57 5.761-5.841a.669.669 0 0 0 0-.937L15.44 3.399a.647.647 0 0 0-.924 0L2.083 16.002Zm25.05 24.456L3.47 16.471 14.978 4.805l23.664 23.987-11.509 11.666Zm8.37 18.753 5.421 5.496 29.134-29.532-11.509-11.666L29.417 53.04l5.923 6.005a.661.661 0 0 1 .163.165Zm17.843 7.825L77.01 91.023 88.52 79.357 64.855 55.37 53.346 67.036Z" class="-path--primary" fill="#083176"/>
  <path fill-rule="evenodd" d="M26.656 70.408c1.312 0 2.376-1.078 2.376-2.408 0-1.33-1.064-2.408-2.376-2.408-1.312 0-2.376 1.078-2.376 2.408 0 1.33 1.064 2.408 2.376 2.408Zm-9.875-.666a.548.548 0 1 0-1.096-.013c-.057 4.833 3.752 8.817 8.538 8.898h.225a.548.548 0 1 0 0-1.096h-.21c-4.168-.073-7.507-3.547-7.457-7.79ZM9.09 67.76a.548.548 0 0 1 .54.556c-.128 8.972 6.94 16.339 15.772 16.472h.463a.548.548 0 0 1 0 1.097h-.475c-9.454-.14-16.993-8.02-16.856-17.585a.548.548 0 0 1 .556-.54Zm-6.539-.061a.548.548 0 0 0-1.096-.014C1.276 81.5 12.177 92.862 25.824 93.053h.656a.548.548 0 0 0 0-1.097h-.644C12.81 91.771 2.381 80.922 2.55 67.7Z" class="-path--secondary" fill="#FF9E18"/>
</svg>
