<svg id="icon-places-call-center" viewBox="0 0 96 96" xmlns="http://www.w3.org/2000/svg">
  <path fill-rule="evenodd" d="M40.22 1.447a.552.552 0 0 0-.553.553v42.446c0 .126.043.248.122.346a15.52 15.52 0 0 1 3.422 10.375.553.553 0 0 0 .599.573c.063-.006.127-.006.19 0a.566.566 0 0 0 .047.002c2.318 0 4.193 1.87 4.193 4.173v1.52c0 2.303-1.875 4.174-4.193 4.174h-.007a.724.724 0 0 1-.26-.045.553.553 0 0 0-.743.498 8.288 8.288 0 0 1-3.174 6.21.552.552 0 0 0-.212.435v2.276c0 .305.248.552.553.552h48.48c.22 0 .418-.13.506-.33l.316-.726a.553.553 0 0 0 .046-.22V1.998A.552.552 0 0 0 89 1.448H40.22Z" class="-path--shadow" fill="#38C6F4"/>
  <path fill-rule="evenodd" d="M36.202 4.816a.658.658 0 0 0-.657.658v34.38a16.11 16.11 0 0 0-7.285-1.713c-8.904.019-16.111 7.222-16.094 16.096v.292c-2.701.24-4.823 2.501-4.823 5.26v1.733c0 2.92 2.375 5.281 5.3 5.281 1.15 0 2.09-.926 2.096-2.08V56.6a2.09 2.09 0 0 0-1.257-1.916v-.448c-.017-8.142 6.598-14.762 14.781-14.778 8.183-.017 14.825 6.575 14.842 14.718v.544a2.232 2.232 0 0 0-1.289 2.022v7.877c0 .8.42 1.499 1.052 1.893-.492 2.743-1.698 4.774-3.377 6.144-1.678 1.368-3.88 2.117-6.438 2.206a3.584 3.584 0 0 0-3.462-2.646h-1.234a3.578 3.578 0 0 0-3.584 3.572 3.578 3.578 0 0 0 3.584 3.572h1.233a3.58 3.58 0 0 0 3.564-3.186c2.765-.106 5.24-.926 7.168-2.5 1.933-1.575 3.268-3.865 3.821-6.823 2.941-.047 5.315-2.436 5.315-5.383V59.9c0-2.754-2.073-5.021-4.745-5.344v-.048h-.293v-.336c-.012-5.726-3.029-10.744-7.56-13.58V6.133h47.48v71.691H68.297V58.419a.658.658 0 0 0-.658-.657H52.715a.658.658 0 0 0-.657.657v19.404h-8.975a.658.658 0 1 0 0 1.315h41.915a.658.658 0 0 0 .657-.657V5.474a.658.658 0 0 0-.657-.658H36.202ZM69.434 41.74a.658.658 0 0 0-.658.658v8.262c0 .363.295.658.658.658h9.482a.658.658 0 0 0 .658-.658v-8.262a.658.658 0 0 0-.658-.658h-9.482Zm.657 8.262v-6.947h8.168v6.947H70.09ZM55.055 42.4c0-.364.295-.658.658-.658h9.925c.363 0 .658.294.658.658v8.262a.658.658 0 0 1-.658.658h-9.925a.658.658 0 0 1-.658-.658v-8.262Zm1.315.657v6.947h8.61v-6.947h-8.61Zm13.064-15.69a.658.658 0 0 0-.658.658v8.262c0 .363.295.658.658.658h9.482a.658.658 0 0 0 .658-.658v-8.262a.658.658 0 0 0-.658-.658h-9.482Zm.657 8.263V28.68h8.168v6.948H70.09Zm-15.036-7.605c0-.363.295-.658.658-.658h9.925c.363 0 .658.295.658.658v8.262a.658.658 0 0 1-.658.658h-9.925a.658.658 0 0 1-.658-.658v-8.262Zm1.315.657v6.948h8.61V28.68h-8.61Zm-14.078-1.315a.658.658 0 0 0-.658.658v8.262c0 .363.295.658.658.658h9.925a.658.658 0 0 0 .658-.658v-8.262a.658.658 0 0 0-.658-.658h-9.925Zm.657 8.263V28.68h8.61v6.948h-8.61Zm25.827-21.98c0-.363.295-.657.658-.657h9.482c.364 0 .658.294.658.657v8.263a.658.658 0 0 1-.658.658h-9.482a.658.658 0 0 1-.658-.658V13.65Zm1.316.658v6.947h8.167v-6.947H70.09Zm-14.38-1.315a.658.658 0 0 0-.657.657v8.263c0 .363.295.658.658.658h9.925a.658.658 0 0 0 .658-.658V13.65a.658.658 0 0 0-.658-.658h-9.925Zm.658 8.262v-6.947h8.61v6.947h-8.61ZM41.634 13.65c0-.363.295-.657.658-.657h9.925c.363 0 .658.294.658.657v8.263a.658.658 0 0 1-.658.658h-9.925a.658.658 0 0 1-.658-.658V13.65Zm1.316.658v6.947h8.61v-6.947h-8.61Zm-1.316 28.084c0-.364.295-.658.658-.658h9.925c.363 0 .658.294.658.658v8.27a.658.658 0 0 1-.658.657h-7.096a12.814 12.814 0 0 0-.205-1.315h6.644v-6.955h-8.61v2.342a12.877 12.877 0 0 0-1.316-1.624v-1.375Zm11.739 16.686V77.65h13.608V59.077H53.373Zm-9.398 6.455a.943.943 0 0 0 .08.003c2.26 0 4.088-1.824 4.088-4.068V59.9c0-2.245-1.828-4.069-4.087-4.069h-.123a.92.92 0 0 0-.802.91v7.877c0 .342.19.642.471.8a.67.67 0 0 1 .373.114Zm-31.333-9.708a3.975 3.975 0 0 0-3.984 3.965v1.733a3.975 3.975 0 0 0 3.985 3.966.779.779 0 0 0 .781-.77v-8.119a.779.779 0 0 0-.781-.775ZM28.357 73.53a2.263 2.263 0 0 0-2.269 2.257 2.263 2.263 0 0 0 2.269 2.256h1.233a2.263 2.263 0 0 0 2.27-2.256 2.263 2.263 0 0 0-2.27-2.257h-1.233Z" class="-path--primary" fill="#083176"/>
  <path fill-rule="evenodd" d="M23.682 81.492a.657.657 0 0 1 .93.01 5.22 5.22 0 0 0 7.35.1l.107-.106a.658.658 0 0 1 .928.932l-.117.117a6.535 6.535 0 0 1-9.208-.123.658.658 0 0 1 .01-.93Zm-4.359 2.915a.658.658 0 0 1 .93.009c4.345 4.429 11.47 4.523 15.931.211l.218-.217a.658.658 0 1 1 .928.932l-.228.228c-4.98 4.817-12.935 4.713-17.788-.233a.658.658 0 0 1 .01-.93Zm-2.991 3.295a.658.658 0 0 0-.942.918c6.949 7.124 18.38 7.288 25.531.368l.005-.004.024-.024.332-.339a.658.658 0 1 0-.939-.92l-.32.326-.017.016c-6.632 6.417-17.232 6.264-23.674-.341Z" class="-path--secondary" fill="#FF9E18"/>
</svg>
