<svg id="icon-devices-server" viewBox="0 0 96 96" xmlns="http://www.w3.org/2000/svg">
  <path fill-rule="evenodd" d="M89.86 6.332A3.339 3.339 0 0 0 86.516 3H14.533a3.338 3.338 0 0 0-3.345 3.332v77.657a3.338 3.338 0 0 0 3.345 3.332h71.982a3.339 3.339 0 0 0 3.346-3.332V6.332Zm-75.277 16.45a2.477 2.477 0 0 0 2.482-2.471 2.477 2.477 0 0 0-2.482-2.472A2.477 2.477 0 0 0 12.1 20.31a2.477 2.477 0 0 0 2.482 2.471Zm7.661 0a2.477 2.477 0 0 0 2.482-2.471 2.477 2.477 0 0 0-2.482-2.472 2.477 2.477 0 0 0-2.482 2.472 2.477 2.477 0 0 0 2.482 2.471Zm10.151-2.471a2.477 2.477 0 0 1-2.482 2.471 2.477 2.477 0 0 1-2.481-2.471 2.477 2.477 0 0 1 2.482-2.472 2.477 2.477 0 0 1 2.481 2.472Zm-17.812 33a2.477 2.477 0 0 0 2.482-2.471 2.477 2.477 0 0 0-2.482-2.472A2.477 2.477 0 0 0 12.1 50.84a2.477 2.477 0 0 0 2.482 2.472Zm10.143-2.471a2.477 2.477 0 0 1-2.482 2.472 2.477 2.477 0 0 1-2.482-2.472 2.477 2.477 0 0 1 2.482-2.472 2.477 2.477 0 0 1 2.482 2.472Zm5.188 2.472a2.477 2.477 0 0 0 2.481-2.472 2.477 2.477 0 0 0-2.482-2.472 2.477 2.477 0 0 0-2.481 2.472 2.477 2.477 0 0 0 2.482 2.472Zm-12.85 26.784a2.477 2.477 0 0 1-2.481 2.472 2.477 2.477 0 0 1-2.482-2.472 2.477 2.477 0 0 1 2.482-2.472 2.477 2.477 0 0 1 2.482 2.472Zm5.18 2.472a2.477 2.477 0 0 0 2.482-2.472 2.477 2.477 0 0 0-2.482-2.472 2.477 2.477 0 0 0-2.482 2.472 2.477 2.477 0 0 0 2.482 2.472Zm10.151-2.472a2.477 2.477 0 0 1-2.482 2.472 2.477 2.477 0 0 1-2.481-2.472 2.477 2.477 0 0 1 2.482-2.472 2.477 2.477 0 0 1 2.481 2.472Z" class="-path--shadow" fill="#38C6F4"/>
  <path fill-rule="evenodd" d="M9.453 7.484a4.104 4.104 0 0 0-4.11 4.097v18.236c0 2.26 1.838 4.089 4.102 4.089h71.78a4.096 4.096 0 0 0 4.13-4.059v-7.482l-.416-10.942a4.104 4.104 0 0 0-4.1-3.939H9.452Zm-2.796 4.097A2.788 2.788 0 0 1 9.453 8.8h71.384a2.789 2.789 0 0 1 2.788 2.674l.414 10.916v7.45a2.78 2.78 0 0 1-2.807 2.75H9.445a2.78 2.78 0 0 1-2.788-2.773V11.581ZM5.342 40.827a4.095 4.095 0 0 1 4.112-4.078h71.384a4.104 4.104 0 0 1 4.1 3.938l.001.002.39 10.974v7.369c0 2.26-1.839 4.088-4.102 4.088H9.453a4.104 4.104 0 0 1-4.11-4.096V40.827Zm1.315.002v18.195a2.788 2.788 0 0 0 2.796 2.781h71.774a2.78 2.78 0 0 0 2.787-2.773v-7.346l-.39-10.948v-.001a2.789 2.789 0 0 0-2.787-2.673H9.45a2.78 2.78 0 0 0-2.794 2.765ZM5.342 71.374a4.104 4.104 0 0 1 4.11-4.096h71.386a4.104 4.104 0 0 1 4.1 3.939l.001.002.39 10.965v7.385c0 2.26-1.839 4.088-4.102 4.088H9.453a4.103 4.103 0 0 1-4.11-4.096V71.374Zm4.11-2.781a2.788 2.788 0 0 0-2.795 2.781v18.187a2.788 2.788 0 0 0 2.796 2.781h71.774a2.78 2.78 0 0 0 2.787-2.772v-7.363l-.39-10.94a2.789 2.789 0 0 0-2.787-2.674H9.453Z" class="-path--primary" fill="#083176"/>
  <path fill-rule="evenodd" d="M14.583 18.238c-1.152 0-2.083.93-2.083 2.073 0 1.143.931 2.072 2.083 2.072 1.152 0 2.083-.93 2.083-2.072 0-1.144-.931-2.073-2.083-2.073Zm-2.88 2.073a2.876 2.876 0 0 1 2.88-2.871c1.59 0 2.88 1.284 2.88 2.87a2.876 2.876 0 0 1-2.88 2.871 2.876 2.876 0 0 1-2.88-2.87Zm10.541-2.073c-1.152 0-2.083.93-2.083 2.073 0 1.143.931 2.072 2.083 2.072 1.152 0 2.083-.93 2.083-2.072a2.078 2.078 0 0 0-2.083-2.073Zm-2.88 2.073a2.876 2.876 0 0 1 2.88-2.871c1.59 0 2.88 1.284 2.88 2.87a2.876 2.876 0 0 1-2.88 2.871 2.876 2.876 0 0 1-2.88-2.87Zm8.467 0c0-1.144.93-2.073 2.082-2.073 1.152 0 2.084.93 2.084 2.073a2.078 2.078 0 0 1-2.084 2.072 2.078 2.078 0 0 1-2.082-2.072Zm2.082-2.871a2.876 2.876 0 0 0-2.88 2.87 2.876 2.876 0 0 0 2.88 2.871c1.59 0 2.881-1.283 2.881-2.87a2.876 2.876 0 0 0-2.88-2.871Zm-15.33 31.327c-1.152 0-2.083.93-2.083 2.073 0 1.143.931 2.073 2.083 2.073 1.152 0 2.083-.93 2.083-2.073 0-1.143-.931-2.073-2.083-2.073Zm-2.88 2.073a2.876 2.876 0 0 1 2.88-2.87c1.59 0 2.88 1.283 2.88 2.87a2.876 2.876 0 0 1-2.88 2.87 2.876 2.876 0 0 1-2.88-2.87Zm8.458 0c0-1.143.931-2.073 2.083-2.073 1.152 0 2.083.93 2.083 2.073a2.078 2.078 0 0 1-2.083 2.073 2.078 2.078 0 0 1-2.083-2.073Zm2.083-2.87a2.876 2.876 0 0 0-2.88 2.87 2.876 2.876 0 0 0 2.88 2.87c1.59 0 2.88-1.283 2.88-2.87a2.876 2.876 0 0 0-2.88-2.87Zm7.67.797c-1.152 0-2.083.93-2.083 2.073 0 1.143.93 2.073 2.082 2.073 1.152 0 2.084-.93 2.084-2.073a2.078 2.078 0 0 0-2.084-2.073Zm-2.881 2.073a2.876 2.876 0 0 1 2.88-2.87c1.59 0 2.881 1.283 2.881 2.87a2.876 2.876 0 0 1-2.88 2.87 2.876 2.876 0 0 1-2.881-2.87ZM12.5 80.096c0-1.143.931-2.073 2.083-2.073 1.152 0 2.083.93 2.083 2.073 0 1.143-.931 2.073-2.083 2.073a2.078 2.078 0 0 1-2.083-2.073Zm2.083-2.87a2.876 2.876 0 0 0-2.88 2.87 2.876 2.876 0 0 0 2.88 2.87c1.59 0 2.88-1.283 2.88-2.87a2.876 2.876 0 0 0-2.88-2.87Zm7.661.797c-1.152 0-2.083.93-2.083 2.073 0 1.143.931 2.073 2.083 2.073 1.152 0 2.083-.93 2.083-2.073a2.078 2.078 0 0 0-2.083-2.073Zm-2.88 2.073a2.876 2.876 0 0 1 2.88-2.87c1.59 0 2.88 1.283 2.88 2.87a2.876 2.876 0 0 1-2.88 2.87 2.876 2.876 0 0 1-2.88-2.87Zm8.467 0c0-1.143.93-2.073 2.082-2.073 1.152 0 2.084.93 2.084 2.073a2.078 2.078 0 0 1-2.084 2.073 2.078 2.078 0 0 1-2.082-2.073Zm2.082-2.87a2.876 2.876 0 0 0-2.88 2.87 2.876 2.876 0 0 0 2.88 2.87c1.59 0 2.881-1.283 2.881-2.87a2.876 2.876 0 0 0-2.88-2.87Z" class="-path--secondary" fill="#FF9E18"/>
</svg>
