<svg id="icon-places-remote-office" viewBox="0 0 96 96" xmlns="http://www.w3.org/2000/svg">
  <path d="M40.26 80.9V68.8c0-3 1.7-6.2 4.7-6.2 0 0 .6-.2 2.5-.1l1.7.1c3 0 5.8 1.9 5.8 4.9l.3 1.9.1 11.4h14.5l.7-.4 1.3-.8c.8-.5 1.9-.6 2.8-.2l1.8.7c.7.3 1.5.3 2.3 0l1.9-.7c.3-.1.5-.1.8-.2V76c-1.1 1-2.4 1.7-3.9 1.7-3.6 0-6.5-3.7-6.5-8.4 0-4.6 2.9-8.3 6.5-8.3 1.4 0 2.8.6 3.9 1.7V39.5h6.5c.2 0 .3-.1.3-.3 0-.1 0-.2-.1-.2l-17.5-18.1-18.2-18.6-18.1 18.6-.7.7v-5c0-.3-.2-.6-.6-.6h-8.8c-.4 0-.8.3-.8.8v15.1l-6.8 6.9c-.1.1-.1.3 0 .5.1.1.1.1.2.1h6.5v41.4h16.9v.1Z" class="-path--shadow" fill="#38C6F4"/>
  <path fill-rule="evenodd" d="M78.96 41.2 47.46 8.8l-31.5 32.4h63Zm3.7 1.9h-6.7v18.3c-.4.1-.9.3-1.3.6V43.2h-54.5v39.6h20V68.1c0-1.6.6-3.2 1.8-4.3 1.2-1.2 2.7-1.8 4.4-1.8h3.4c3.4 0 6.2 2.8 6.2 6.1v14.7h10.5c-.5.4-.8.8-1 1.4h-45.9c-.4 0-.7-.3-.7-.7V43.1h-6.6c-.2 0-.4-.2-.4-.4 0-.1 0-.2.1-.3l5.9-6.05V19.925c0-.763.6-1.526 1.3-1.526h7.8c.7 0 1.2.654 1.2 1.308v6.078l19-19.486c.2-.2.4-.2.6 0l35.2 36.1c.2.2.2.5 0 .6-.1.1-.2.2-.3.1Zm-55.8-15.98v-7.303h-7.6v15.097l7.6-7.795Zm14.6 55.48h13V68.1c0-2.7-2.2-4.8-4.8-4.8h-3.4c-1.3 0-2.5.5-3.4 1.4-.9.9-1.4 2.1-1.4 3.4v14.5Zm34.5-2.6-1.3-.5v-2.6c.112.056.224.12.338.185.293.168.602.343.961.415V80Z" class="-path--primary" fill="#083176"/>
  <path fill-rule="evenodd" d="M5.26 22c0 .4.3.7.7.7.4 0 .7-.3.7-.8v-.4c-.2-3.6 1-7.1 3.5-9.8 2.5-2.6 5.9-4.2 9.5-4.4.3 0 .6-.3.6-.7 0-.3-.3-.6-.7-.6-4 .2-7.7 2-10.4 4.9-2.7 2.9-4.1 6.7-3.9 10.7v.4Zm4.9.1c-.4 0-.7-.3-.7-.7v-.3c-.1-2.8.8-5.5 2.7-7.5 1.9-2.1 4.5-3.2 7.2-3.4.4 0 .7.3.7.6 0 .4-.3.7-.6.7-2.4.1-4.7 1.2-6.3 2.9-1.6 1.8-2.5 4.1-2.4 6.5v.4c0 .5-.3.8-.6.8Zm4.2-1.1c-.4 0-.7-.3-.7-.7v-.1c-.1-3 2.2-5.5 5.2-5.7.4 0 .7.3.7.6 0 .4-.3.7-.6.7-2.3.1-4.1 2.1-4 4.3v.2c0 .4-.3.7-.6.7Zm54.1 72.7c-1.1 0-2.1-.4-2.8-1.2-.7-.8-1.2-1.8-1.1-2.9v-4.1c0-1.5.8-2.8 2.1-3.6l3.6-2 1.3-.8c1-.6 2.2-.7 3.3-.3l1.8.7c.6.2 1.2.2 1.8 0l2-.7c1.1-.4 2.3-.3 3.3.3l1.3.8 3.6 2c1.3.7 2.1 2.1 2.1 3.6v4.1c0 2.2-1.7 4-3.9 4.1h-18.4Zm5-13.8c-.4 0-.9.1-1.3.4l-1.3.8-3.6 2c-.9.5-1.4 1.4-1.4 2.4V89.7a2.732 2.732 0 0 0 2.7 2.7h18.3c1.5 0 2.6-1.3 2.6-2.7v-4.1c0-1-.5-1.9-1.4-2.4l-3.6-2-1.5-.9c-.6-.4-1.4-.4-2.1-.2l-1.9.7c-.9.3-1.8.3-2.7 0l-1.9-.7c-.3-.1-.6-.2-.9-.2Zm-3-10.4c0 5 3.2 9 7.1 9 3.9 0 7.1-4.1 7.1-9 0-5-3.2-9-7.1-9-3.9 0-7.1 4-7.1 9Zm1.3 0c0-4.3 2.6-7.7 5.8-7.7 3.2 0 5.8 3.4 5.8 7.7 0 4.2-2.6 7.7-5.8 7.7-3.2 0-5.8-3.5-5.8-7.7Z" class="-path--secondary" fill="#FF9E18"/>
</svg>
