<svg id="icon-products-tech-support" viewBox="0 0 96 96" xmlns="http://www.w3.org/2000/svg">
  <path d="M93 44.316C93 63.267 77.573 78.63 58.544 78.63c-19.03 0-34.455-15.364-34.455-34.316C24.089 25.364 39.515 10 58.544 10 77.574 10 93 25.364 93 44.316Z" class="-path--shadow" fill="#38C6F4"/>
  <path fill-rule="evenodd" d="m22.642 47.967-2.427.138a33.382 33.382 0 0 1 4.499-16.106l2.266 1.33.666-1.133-2.25-1.322a33.905 33.905 0 0 1 11.66-11.2l1.274 2.207 1.14-.657-1.262-2.186a33.74 33.74 0 0 1 15.14-3.889v2.665h1.316v-2.665a33.748 33.748 0 0 1 14.675 3.649l-1.195 2.186 1.153.63 1.203-2.198a33.907 33.907 0 0 1 12.036 11.331L80.138 32.2l.682 1.125 2.402-1.456a33.38 33.38 0 0 1 4.572 16.103h-2.77v1.315H87.8a33.389 33.389 0 0 1-4.939 17.046l-2.51-1.478-.668 1.133 2.468 1.453a33.912 33.912 0 0 1-11.654 10.746l-1.294-2.29-1.145.647 1.278 2.261a33.746 33.746 0 0 1-14.673 3.648v-2.39h-1.316v2.39a33.868 33.868 0 0 1-9.692-1.601l-.705 1.154a35.208 35.208 0 0 0 11.055 1.768c19.39 0 35.113-15.655 35.113-34.973 0-19.318-15.723-34.973-35.113-34.973S18.893 29.483 18.893 48.8c0 4.18.736 8.188 2.086 11.903l1.23-.467a33.446 33.446 0 0 1-1.995-10.815l2.503-.142-.075-1.313Zm-8.448 28.096H6.741a1.461 1.461 0 0 1 .275-1.034c.268-.383.653-.603 3.018-1.616 2.93-1.28 4.304-2.746 4.304-4.89 0-2.622-2.193-4.526-5.383-4.526a4.035 4.035 0 0 0-.406 0c-2.991-.07-5.474 2.287-5.549 5.266l3.087.24a1.73 1.73 0 0 1 0-.267v-.006a2.63 2.63 0 0 1 2.854-2.384c1.416 0 2.283.61 2.283 1.691 0 1.082-.805 1.733-3.397 2.835a9.736 9.736 0 0 0-3.692 2.335 4.466 4.466 0 0 0-.942 3.048v2.143h11.001v-2.835Zm8.32.233h-7.522v-2.835l5.693-9.108h4.93v9.108h1.809v2.835h-1.802v2.595h-3.067l-.041-2.595Zm0-2.835v-6.944h-.041l-4.366 6.944h4.407Zm13.387-10.923L27.947 79.22l1.94.842 7.906-16.64-1.89-.884Zm9.558 4.698v-.048h-7.385V64.36H48.94v2.636L43.266 78.92h-3.52l5.713-11.683Zm7.89-45.142v24.194a2.434 2.434 0 0 0-1.784 2.342 2.436 2.436 0 0 0 2.441 2.43c.27 0 .528-.043.77-.123l6.52 11.917 1.153-.631-6.578-12.025c.36-.423.576-.97.576-1.568a2.434 2.434 0 0 0-1.783-2.342V22.094h-1.316Z" class="-path--primary" fill="#083176"/>
</svg>
