<svg id="icon-business-time" viewBox="0 0 96 96" xmlns="http://www.w3.org/2000/svg">
  <path d="M94.66 44.181c0 23.848-19.322 43.181-43.157 43.181-23.836 0-43.158-19.333-43.158-43.181S27.667 1 51.503 1C75.338 1 94.66 20.333 94.66 44.181Z" class="-path--shadow" fill="#38C6F4"/>
  <path opacity=".9" fill-rule="evenodd" d="M25.956 12.581a42.275 42.275 0 0 1 19.202-4.915v3.163h1.322V7.666a42.279 42.279 0 0 1 18.617 4.612l-1.426 2.625 1.161.63 1.433-2.636c13.144 7.23 22.05 21.216 22.05 37.284 0 23.484-19.026 42.52-42.496 42.52-23.47 0-42.498-19.036-42.498-42.52a42.34 42.34 0 0 1 5.906-21.636l2.38 1.403.671-1.138-2.36-1.391a42.72 42.72 0 0 1 14.88-14.2l1.358 2.354 1.145-.66-1.345-2.332ZM2 50.181C2 25.968 21.618 6.339 45.819 6.339c24.2 0 43.818 19.63 43.818 43.842 0 24.213-19.618 43.842-43.818 43.842C21.618 94.023 2 74.393 2 50.18Zm43.158 38.98v3.157h1.322v-3.156h-1.322ZM6.333 50.275H3.408v-1.321h2.925v1.321Zm58.961 37.461-1.733-3.082 1.152-.648 1.733 3.082-1.152.648ZM9.778 72.112l2.498-1.455-.665-1.142-2.498 1.455.665 1.142Zm16.055 15.255 1.47-2.597-1.15-.651-1.47 2.597 1.15.651Zm58.831-37.093h3.229v-1.321h-3.229v1.321Zm-2.4-21.86-2.94 1.792-.688-1.128 2.941-1.792.688 1.129ZM78.07 71.313l3.351 1.981.672-1.137-3.351-1.981-.672 1.138ZM45.158 16v30.85a3.058 3.058 0 1 0 1.79 5.828l8.139 14.971 1.16-.63-8.202-15.089a3.058 3.058 0 0 0-1.565-5.08V16h-1.322Z" class="-path--primary" fill="#083176"/>
</svg>
