<svg id="icon-business-cost-control-yen" viewBox="0 0 96 96" xmlns="http://www.w3.org/2000/svg">
  <path class="-path--shadow" fill="#38C6F4" d="M79.58 44.45A28.6 28.6 0 0 1 50.91 73a28.6 28.6 0 0 1-28.66-28.55A28.6 28.6 0 0 1 50.9 15.9a28.61 28.61 0 0 1 28.67 28.55Z"/>
  <path class="-path--secondary" fill="#FF9E18" fill-rule="evenodd" d="M71.42 13.17c.05 0 .08-.02.12-.03a.64.64 0 0 0 .42-.68L70.45.56a.64.64 0 1 0-1.27.16l1.33 10.44a43.02 43.02 0 0 0-58.88 9.3 42.6 42.6 0 0 0 2.71 54.65.64.64 0 0 0 .94-.87 41.32 41.32 0 0 1-2.63-53.02 41.74 41.74 0 0 1 57.04-9.07L58.92 13.8a.64.64 0 0 0 .2 1.26l12.3-1.9ZM27.94 95.22l-2.36-10.05a43.01 43.01 0 0 0 58.49-10.7 42.6 42.6 0 0 0-3.32-53.94.64.64 0 0 0-.94.87 41.32 41.32 0 0 1 3.22 52.32 41.74 41.74 0 0 1-57.01 10.2l10.4-3.15a.64.64 0 1 0-.37-1.22L24.6 83.02a.64.64 0 0 0-.68.66c0 .1.01.19.05.27l2.71 11.56a.64.64 0 1 0 1.25-.3Z" clip-rule="evenodd"/>
  <path class="-path--primary" fill="#083176" fill-rule="evenodd" d="M48.03 77.38a29.11 29.11 0 0 0 29.04-29.2c0-16.11-13-29.18-29.04-29.18A29.11 29.11 0 0 0 19 48.19c0 16.12 13 29.19 29.03 29.19Zm0-57.1a27.84 27.84 0 0 1 27.77 27.9 27.84 27.84 0 0 1-27.77 27.93 27.84 27.84 0 0 1-27.76-27.92 27.84 27.84 0 0 1 27.76-27.92Zm-3.1 27.63h-5.45v3.02h6.64v2.55h-6.64v3.04h6.64v3.5h4.08v-3.5h6.64v-3.04H50.2v-2.55h6.62V47.9h-5.5L59.3 36h-4.79l-6.34 10.06L41.93 36H37l7.93 11.9Z" clip-rule="evenodd"/>
</svg>
