<svg id="icon-devices-switch" viewBox="0 0 96 96" xmlns="http://www.w3.org/2000/svg">
  <path fill-rule="evenodd" d="M21.71 3H79.22C86.843 3.014 93.013 9.18 93 16.774v57.02c.013 7.594-6.157 13.76-13.781 13.774H21.71C14.09 87.55 7.924 81.384 7.938 73.794v-57.02C7.924 9.184 14.088 3.018 21.71 3Zm4.043 26.866a.517.517 0 0 0-.704-.758l-6.936 6.43a.517.517 0 0 0-.157.473v.005c0 .207.121.385.296.468l5.668 7.22a.517.517 0 0 0 .814-.64l-5.128-6.53h52.718a.517.517 0 1 0 0-1.035H19.677l6.076-5.633Zm40.073 26.729a.517.517 0 0 1 .73.052l6.407 7.401a.507.507 0 0 1 .034.044c.172.21.153.52-.049.707l-6.944 6.43a.517.517 0 1 1-.703-.758l6.011-5.567H18.737a.517.517 0 1 1 0-1.034H71.44l-5.666-6.546a.517.517 0 0 1 .052-.73Z" class="-path--shadow" fill="#38C6F4"/>
  <path fill-rule="evenodd" d="M16.78 7.276h57.51c7.982.02 14.444 6.477 14.43 14.433v57.018c.014 7.956-6.448 14.413-14.429 14.433H16.779c-7.985-.015-14.45-6.474-14.437-14.432v-57.02C2.328 13.75 8.794 7.292 16.78 7.277Zm57.509 1.316H16.78c-7.263.013-13.137 5.887-13.124 13.115V78.73c-.013 7.228 5.86 13.103 13.125 13.116h57.506c7.26-.018 13.13-5.891 13.116-13.116V21.707c.014-7.225-5.855-13.098-13.115-13.115Z" class="-path--primary" fill="#083176"/>
</svg>
