<svg id="icon-devices-video-streaming" viewBox="0 0 96 96" xmlns="http://www.w3.org/2000/svg">
  <path fill-rule="evenodd" d="M74.447 36.421a.658.658 0 0 0 0 1.315h11.356a.658.658 0 1 0 0-1.315H74.447Zm.614 15.41a.658.658 0 1 0 0 1.314h11.302a.658.658 0 1 0 0-1.315H75.061Zm17.035-12.076c-.691 0-1.246.557-1.246 1.239s.555 1.239 1.246 1.239 1.247-.558 1.247-1.24c0-.681-.556-1.238-1.247-1.238Zm-2.476.581a2.561 2.561 0 0 1 2.476-1.896 2.558 2.558 0 0 1 2.562 2.554 2.558 2.558 0 0 1-2.562 2.554 2.561 2.561 0 0 1-2.476-1.897H74.651a.658.658 0 0 1 0-1.315h14.97Zm-15.347 3.56c0-.363.295-.657.658-.657h6.689c.363 0 .657.294.657.657v4.1h9.819a.658.658 0 1 1 0 1.316H81.62a.658.658 0 0 1-.658-.658v-4.1h-6.031a.658.658 0 0 1-.658-.658ZM12.6 37.135a.658.658 0 1 0 0 1.315h12.81a.658.658 0 1 0 0-1.315H12.6Zm-8.477 7.317a1.46 1.46 0 0 0-1.465 1.456 1.46 1.46 0 0 0 1.465 1.456 1.46 1.46 0 0 0 1.465-1.456 1.46 1.46 0 0 0-1.465-1.456Zm-2.78 1.456a2.776 2.776 0 0 1 2.78-2.771 2.78 2.78 0 0 1 2.718 2.182.655.655 0 0 1 .306-.075h18.4a.658.658 0 0 1 0 1.315h-18.4a.655.655 0 0 1-.304-.074 2.78 2.78 0 0 1-2.72 2.195 2.776 2.776 0 0 1-2.78-2.772Zm9.913 2.34a.658.658 0 1 0 0 1.316h7.034v3.38c0 .362.294.657.657.657h7.146a.658.658 0 1 0 0-1.315h-6.488v-3.38a.658.658 0 0 0-.657-.658h-7.692Zm6.092-6.452c0-.363.294-.658.657-.658h7.344a.658.658 0 0 1 0 1.316h-7.344a.658.658 0 0 1-.657-.658Z" class="-path--secondary" fill="#FF9E18"/>
  <path fill-rule="evenodd" d="M77.9 25H29.982v33.28H77.9V25ZM59.46 45.025 42.84 53.18V36.868l16.62 8.157Z" class="-path--shadow" fill="#38C6F4"/>
  <path fill-rule="evenodd" d="M26.31 27.714a.658.658 0 0 0-.657.658V61.65c0 .364.294.658.657.658h47.918a.658.658 0 0 0 .658-.657V28.37a.658.658 0 0 0-.658-.657H26.31Zm.658 33.279V29.029h46.603v31.964H26.968Zm47.267 7.324H37.206a3.604 3.604 0 0 1-3.545 2.936 3.604 3.604 0 0 1-3.546-2.936H26.31a.658.658 0 1 1 0-1.315h3.805a3.604 3.604 0 0 1 3.546-2.937 3.604 3.604 0 0 1 3.545 2.937h37.03a.658.658 0 0 1 0 1.315ZM33.661 65.38a2.285 2.285 0 0 0-2.291 2.28 2.285 2.285 0 0 0 2.29 2.278 2.285 2.285 0 0 0 2.291-2.279 2.285 2.285 0 0 0-2.29-2.279Zm9.469-29.102a.658.658 0 0 0-.947.59v16.313a.658.658 0 0 0 .947.59l16.619-8.156a.658.658 0 0 0 0-1.18l-16.62-8.157Zm.368 15.848V37.923l14.469 7.102-14.47 7.101Z" class="-path--primary" fill="#083176"/>
</svg>
