<svg id="icon-business-growth" viewBox="0 0 96 96" xmlns="http://www.w3.org/2000/svg">
  <path fill-rule="evenodd" d="M93.191 19.699c0-.871-.71-1.577-1.584-1.577H75.836a1.58 1.58 0 0 0-1.584 1.577v69.575a1.58 1.58 0 0 0 1.584 1.578h15.77c.875 0 1.585-.707 1.585-1.578V19.7Zm-28.417 19.06a1.58 1.58 0 0 1 1.584 1.577v48.939a1.58 1.58 0 0 1-1.584 1.577H49.003a1.58 1.58 0 0 1-1.584-1.578V40.337a1.58 1.58 0 0 1 1.584-1.577h15.771Zm-26.99 20.637a1.58 1.58 0 0 1 1.584 1.578v28.292a1.58 1.58 0 0 1-1.584 1.578H22.013a1.58 1.58 0 0 1-1.584-1.578V60.973c0-.87.71-1.577 1.584-1.577h15.771Z" class="-path--shadow" fill="#38C6F4"/>
  <path fill-rule="evenodd" d="M71.145 23.101c0-.505.412-.92.926-.92h15.772c.514 0 .926.415.926.92v69.576c0 .506-.413.92-.926.92H72.07a.923.923 0 0 1-.926-.92V23.1Zm.926-2.235a2.238 2.238 0 0 0-2.241 2.235v69.576a2.238 2.238 0 0 0 2.241 2.235h15.772a2.238 2.238 0 0 0 2.24-2.235V23.1a2.238 2.238 0 0 0-2.24-2.235H72.07ZM45.073 42.82a.923.923 0 0 0-.926.92v48.938c0 .506.412.92.926.92h15.77a.923.923 0 0 0 .927-.92V43.739a.923.923 0 0 0-.926-.92H45.073Zm-2.242.92a2.238 2.238 0 0 1 2.242-2.235h15.77c1.236 0 2.242.998 2.242 2.235v48.938a2.238 2.238 0 0 1-2.241 2.235H45.073a2.238 2.238 0 0 1-2.242-2.235V43.739Zm-24.59 19.726a.923.923 0 0 0-.927.92v28.292c0 .506.412.92.926.92h15.771a.923.923 0 0 0 .926-.92V64.384a.923.923 0 0 0-.926-.92h-15.77Zm-2.242.92a2.238 2.238 0 0 1 2.241-2.236h15.771c1.236 0 2.242.998 2.242 2.235v28.293a2.238 2.238 0 0 1-2.242 2.235h-15.77a2.238 2.238 0 0 1-2.242-2.235V64.384Z" class="-path--primary" fill="#083176"/>
  <path fill-rule="evenodd" d="M74.993 1.096a.658.658 0 0 0-.205 1.3l7.436 1.174L2.44 57.365a.658.658 0 1 0 .735 1.09l79.836-53.83-1.576 7.557a.658.658 0 0 0 1.287.268l1.896-9.088a.688.688 0 0 0 .025-.183.658.658 0 0 0-.658-.662l-8.993-1.421Z" class="-path--secondary" fill="#FF9E18"/>
</svg>
