<svg id="icon-business-cost-control-dollar" viewBox="0 0 90 96" xmlns="http://www.w3.org/2000/svg">
  <path class="-path--shadow" fill="#38C6F4" fill-rule="nonzero" d="M76.58 44.45A28.6 28.6 0 0 1 47.91 73a28.6 28.6 0 0 1-28.66-28.55A28.6 28.6 0 0 1 47.9 15.9a28.61 28.61 0 0 1 28.67 28.55Z"/>
  <path class="-path--secondary" fill="#FF9E18" d="M68.42 13.17c.05 0 .08-.02.12-.03a.64.64 0 0 0 .42-.68L67.45.56a.64.64 0 1 0-1.27.16l1.33 10.44a43.02 43.02 0 0 0-58.88 9.3 42.6 42.6 0 0 0 2.71 54.65.64.64 0 0 0 .94-.87 41.32 41.32 0 0 1-2.63-53.02 41.74 41.74 0 0 1 57.04-9.07L55.92 13.8a.64.64 0 0 0 .2 1.26l12.3-1.9ZM24.94 95.22l-2.36-10.05a43.01 43.01 0 0 0 58.49-10.7 42.6 42.6 0 0 0-3.32-53.94.64.64 0 0 0-.94.87 41.32 41.32 0 0 1 3.22 52.32 41.74 41.74 0 0 1-57.01 10.2l10.4-3.15a.64.64 0 1 0-.37-1.22L21.6 83.02a.64.64 0 0 0-.68.66c0 .1.01.19.05.27l2.71 11.56a.64.64 0 1 0 1.25-.3Z"/>
  <path class="-path--primary" fill="#083176" fill-rule="nonzero" d="M74.07 48.19c0 16.12-13 29.19-29.04 29.19A29.11 29.11 0 0 1 16 48.18C16 32.08 29 19 45.03 19a29.11 29.11 0 0 1 29.04 29.19Zm-1.27 0a27.84 27.84 0 0 0-27.77-27.92A27.84 27.84 0 0 0 17.27 48.2 27.84 27.84 0 0 0 45.03 76.1 27.84 27.84 0 0 0 72.8 48.19Zm-30.14 11.9a15.8 15.8 0 0 1-6.66-1.7l1.18-4.56c1.99 1.09 4.22 1.67 6.5 1.7 2.21 0 3.74-.85 3.74-2.4 0-1.56-1.25-2.43-4.14-3.4-4.2-1.42-7.04-3.37-7.04-7.14 0-3.4 2.43-6.11 6.61-6.94V32h3.84v3.4c1.95.03 3.88.47 5.66 1.3l-1.12 4.4a13.08 13.08 0 0 0-5.65-1.3c-2.56 0-3.36 1.1-3.36 2.18 0 1.3 1.37 2.1 4.7 3.35 4.65 1.64 6.52 3.77 6.52 7.28 0 3.51-2.46 6.43-6.96 7.21v3.97l-3.82-.02v-3.69Z"/>
</svg>
