<svg id="icon-products-cloud-saas-applications" viewBox="0 0 96 96" xmlns="http://www.w3.org/2000/svg">
  <path d="M39.758 71.283c1.919-6.017 8.372-9.243 14.389-7.325 2.006-5.668 7.325-9.505 13.255-9.68 4.621-.174 8.894 1.919 11.685 5.233.61-1.396.959-2.878.959-4.448V20.706c0-6.017-4.883-10.988-10.9-10.988h-42.73c-6.016 0-10.9 4.883-10.9 10.988v1.83c-5.58 2.094-9.505 7.5-9.505 13.779V63.26c0 8.11 6.54 14.738 14.65 14.738h18.923c-.61-2.18-.523-4.535.174-6.715ZM10.371 32.565c-.872 0-1.57-.697-1.57-1.57 0-.872.698-1.57 1.57-1.57.872 0 1.919.698 1.919 1.57-.087.872-1.047 1.57-1.919 1.57Zm5.058 0c-1.046.262-2.18-.697-2.18-1.57 0-.872 1.134-1.918 2.18-1.57.785.262 1.57.698 1.57 1.57 0 .872-.698 1.396-1.57 1.57Zm2.093-15.173c0-.872.698-1.57 1.57-1.57.872 0 1.57.698 1.57 1.57 0 .872-.698 1.57-1.57 1.57-.872 0-1.57-.698-1.57-1.57Zm2.703 15.173c-.785.349-1.918-.697-1.918-1.57 0-.872.697-1.57 1.57-1.57.871 0 1.918.698 1.918 1.57 0 .872-.785 1.309-1.57 1.57ZM23.8 18.962c-.872 0-1.57-.698-1.57-1.57 0-.872.698-1.57 1.57-1.57.872 0 1.57.698 1.57 1.57 0 .872-.698 1.57-1.57 1.57Zm4.797 0c-.872 0-1.57-.698-1.57-1.57 0-.872.698-1.57 1.57-1.57.872 0 1.57.698 1.57 1.57 0 .872-.698 1.57-1.57 1.57Z" class="-path--shadow" fill="#38C6F4"/>
  <path fill-rule="evenodd" d="M19.615 12.11a9.258 9.258 0 0 0-9.294 9.293v4.315a9.256 9.256 0 0 0-8.982 9.289v38.02a9.258 9.258 0 0 0 9.294 9.294H40.718c.094 0 .184-.02.266-.056a11.767 11.767 0 0 0 5.722 4.035l.01.003c1.167.36 2.458.64 3.769.64H84.93c5.33 0 9.726-4.3 9.73-9.724.09-5.349-4.316-9.736-9.73-9.736-.655 0-1.274.047-1.916.176a15.341 15.341 0 0 0-7.928-12.195.66.66 0 0 0 .04-.226V21.403c0-.06-.001-.131-.006-.215-.043-1.06-.369-3.921-2.716-6.269a9.302 9.302 0 0 0-6.233-2.716l-.007-.004a.66.66 0 0 0-.332-.09H19.615Zm54.19 42.73V22.014H11.643v3.7h45.295a9.258 9.258 0 0 1 9.293 9.293V53.686c.352-.035.706-.057 1.064-.068 2.314-.074 4.52.368 6.51 1.222Zm-8.895-.965V35.705H2.66v37.322A7.936 7.936 0 0 0 10.634 81H40.131a12.241 12.241 0 0 1-1.089-9.917l.003-.008c2.049-6.147 8.502-9.639 14.616-7.93a15.134 15.134 0 0 1 11.249-9.269ZM19.092 18.962c-.872 0-1.57-.698-1.57-1.57 0-.872.698-1.57 1.57-1.57.872 0 1.57.698 1.57 1.57-.088.872-.785 1.57-1.57 1.57Zm4.709 0c-.872 0-1.57-.698-1.57-1.57 0-.872.698-1.57 1.57-1.57.872 0 1.57.698 1.57 1.57 0 .872-.698 1.57-1.57 1.57Zm4.796 0c-.872 0-1.57-.698-1.57-1.57 0-.872.698-1.57 1.57-1.57.872 0 1.57.698 1.57 1.57 0 .872-.698 1.57-1.57 1.57ZM8.802 30.996c0 .872.698 1.57 1.57 1.57.872 0 1.57-.698 1.57-1.57 0-.872-.698-1.57-1.57-1.57-.872 0-1.57.698-1.57 1.57Zm4.709 0c0 .872.698 1.57 1.57 1.57.872 0 1.57-.698 1.57-1.57 0-.872-.698-1.57-1.57-1.57-.872 0-1.57.698-1.57 1.57Zm4.796 0c0 .872.698 1.57 1.57 1.57.872 0 1.57-.698 1.57-1.57 0-.872-.698-1.57-1.57-1.57-.872 0-1.57.698-1.57 1.57ZM81.74 68.513c-.25-7.75-6.663-13.825-14.404-13.575h-.002c-5.743.166-10.736 3.827-12.651 9.24a.66.66 0 0 1-.835.405C48.28 62.7 42.196 65.808 40.3 71.488c-1.808 5.678 1.24 11.749 6.808 13.553 1.098.338 2.248.58 3.377.58H84.93c4.61 0 8.408-3.72 8.408-8.408V77.2c.08-4.59-3.709-8.397-8.408-8.397-.822 0-1.541.082-2.34.321a.66.66 0 0 1-.85-.611Z" class="-path--primary" fill="#083176"/>
</svg>
