<svg id="icon-devices-desktop" viewBox="0 0 96 96" xmlns="http://www.w3.org/2000/svg">
  <path fill-rule="evenodd" d="M94.329 12.81a3.77 3.77 0 0 0-3.777-3.762H10.339a3.77 3.77 0 0 0-3.777 3.761v55.677a3.77 3.77 0 0 0 3.777 3.762h80.213a3.77 3.77 0 0 0 3.776-3.762V12.809Zm-48.117 5.52c.715 0 1.294-.578 1.294-1.29 0-.711-.58-1.288-1.294-1.288-.715 0-1.294.577-1.294 1.289 0 .711.58 1.288 1.294 1.288Z" class="-path--shadow" fill="#38C6F4"/>
  <path fill-rule="evenodd" d="M2.987 20.818v51.884a3.112 3.112 0 0 0 3.12 3.104h80.211a3.112 3.112 0 0 0 3.12-3.104V20.818H2.987Zm83.331-8.212H6.106c-2.447 0-4.435 1.976-4.435 4.42v55.676a4.427 4.427 0 0 0 4.435 4.42h36.486v4.258h-7.427a1.889 1.889 0 0 0-1.892 1.885v1.803c0 1.04.847 1.885 1.892 1.885h22.102a1.889 1.889 0 0 0 1.893-1.885v-1.803c0-1.04-.847-1.885-1.893-1.885H49.84v-4.258h36.478a4.427 4.427 0 0 0 4.436-4.42V17.026a4.427 4.427 0 0 0-4.436-4.42Zm-38.812 4.435c0 .711-.579 1.288-1.294 1.288a1.291 1.291 0 0 1-1.294-1.288c0-.712.58-1.289 1.294-1.289.715 0 1.294.577 1.294 1.289Z" class="-path--primary" fill="#083176"/>
</svg>
