<svg id="icon-products-sd-wan" viewBox="0 0 96 96" xmlns="http://www.w3.org/2000/svg">
  <path d="M82.9 37.7h-.8c-1.1 0-2.2.2-3.3.5-.5-10.5-9.5-18.6-20-18.1-7.6.4-14.2 5.2-16.8 12.3-7.6-2.6-15.9 1.4-18.6 9-.9 2.5-1 5.2-.5 7.6 1.4-.6 3-.9 4.6-1 7.3-.2 13.3 5.5 13.6 12.8h.3c.3-.1.7-.2 1.1-.2v-13h7.1v13.2h1.9V40.6h7.1v20.2h1.9V33.2h7.1v27.7H82c6.4.1 11.8-4.9 12-11.2.2-6.4-4.8-11.8-11.1-12Z" class="-path--shadow" fill="#38C6F4"/>
  <path fill-rule="evenodd" d="M51.414 64.7H78.7c1.2 0 2.4-.2 3.5-.4l.2-.1c6.6-2.1 10.2-9 8.2-15.6-1-3.2-3.2-5.8-6.1-7.3-2.7-1.4-5.7-1.8-8.6-1.1-.6-7.8-5.6-14.5-13-17.2-4.9-1.8-10.2-1.5-15 .7-4.5 2.1-8.1 5.9-9.9 10.6-2.9-.9-5.8-.9-8.7 0-7.33 2.18-11.913 9.462-10.832 17.083A14.145 14.145 0 0 0 15.5 55.9c-2.6-.7-5.3-.4-7.7.8-2.6 1.3-4.6 3.6-5.5 6.4-1.8 5.8 1.3 12 7 13.9 1.1.4 2.2.6 3.4.6l31.1-.1c4.8-.2 8.6-4.2 8.5-9.1a8.897 8.897 0 0 0-.886-3.7Zm-1.614-.243v.243h.159a7.474 7.474 0 0 1 1.141 3.8c.1 4.1-3.2 7.6-7.3 7.7H12.7c-1 0-2-.2-3-.5-5-1.7-7.8-7.1-6.1-12.2.8-2.4 2.5-4.4 4.8-5.6 1.4-.7 2.8-1 4.3-1 1 0 2 .2 3.1.5l.6.2.2-.6c1.7-4.9 6.2-8.1 11.4-8.3 3.4-.1 6.6 1.1 9 3.4 2.4 2.3 3.8 5.4 3.9 8.8v.8l.8-.2c.7-.2 1.4-.3 2.1-.3a7.473 7.473 0 0 1 6 3.257Zm.84-1.057H78.6c1.1 0 2.2-.2 3.3-.5l.2-.1c5.8-1.8 9.1-8.1 7.3-14-.9-2.8-2.8-5.2-5.5-6.6-2.6-1.4-5.6-1.6-8.4-.8l-.8.3v-.9c-.2-7.6-5-14.3-12.2-16.8-4.6-1.7-9.6-1.4-14 .7-4.5 2.1-7.8 5.8-9.5 10.5l-.2.6-.6-.2c-2.8-.9-5.7-1-8.5-.1-6.445 1.896-10.554 8.103-10.03 14.791A13.466 13.466 0 0 1 27.9 47.3c3.7-.1 7.2 1.2 9.9 3.8 2.5 2.4 4 5.5 4.3 8.9.5-.1 1.1-.2 1.7-.2a8.616 8.616 0 0 1 6.84 3.6Z" class="-path--primary" fill="#083176"/>
</svg>
