<svg id="icon-products-cisco-unified-comm-manager" viewBox="0 0 96 96" xmlns="http://www.w3.org/2000/svg">
  <path fill-rule="evenodd" d="M22.1 12.9c0-3.3 2.7-6 6-6s6 2.7 6 6-2.7 6-6 6-6-2.7-6-6Zm40.3 70.2c0-3.3 2.7-6 6-6s6 2.7 6 6-2.7 6-6 6-6-2.7-6-6Z" class="-path--secondary" fill="#FF9E18"/>
  <path fill-rule="evenodd" d="M64.9 42.7v1c2.5.1 4.4 2.2 4.2 4.7v1.5c0 2.6-2 4.6-4.6 4.7-.9 6.2-5.2 10-11.6 10-.2 1.5-1.4 2.6-2.9 2.6h-1.2c-1.6 0-2.9-1.3-2.9-2.9 0-1.6 1.3-2.9 2.9-2.9H50c1.3 0 2.5 1 2.8 2.2h.1c5.9 0 9.7-3.3 10.5-9.1 0-.05.025-.075.05-.1.025-.025.05-.05.05-.1-.4-.3-.6-.7-.6-1.2v-7.9c0-.6.3-1 .7-1.3v-1.2c0-8.2-6.7-14.9-14.8-14.9-8.1 0-14.8 6.7-14.8 14.9v1.2c.4.2.7.7.7 1.2v8.1c0 .8-.6 1.4-1.4 1.4-2.5 0-4.6-2-4.6-4.6v-1.7c0-2.4 1.8-4.4 4.2-4.6v-1c0-8.9 7.2-16.1 16-16.1s16 7.2 16 16.1Zm-56.5 0c-3.3 0-6 2.7-6 6s2.7 6 6 6 6-2.7 6-6c-.1-3.3-2.7-6-6-6Zm79 0c-3.3 0-6 2.7-6 6s2.7 6 6 6 6-2.7 6-6c-.1-3.3-2.7-6-6-6Z" class="-path--shadow" fill="#38C6F4"/>
  <path fill-rule="evenodd" d="M73.7 15.8c.6-.9.9-2 .9-3.2 0-3.4-2.7-6.1-6-6.1-2.3 0-4.3 1.3-5.3 3.2-4.7-1.9-9.7-2.9-15-2.9-5.3 0-10.4 1-15.1 2.9.2.4.3.7.5 1.1C38.2 9 43.2 8 48.3 8s10 1 14.5 2.8c-.1.5-.2 1.1-.2 1.7 0 3.4 2.7 6.1 6 6.1 1.7 0 3.2-.7 4.3-1.8 7.6 6.1 13.3 15.7 14.8 25.9.3 0 .7.1 1.2.2l-.2-1c-1.5-10.5-7-19.7-15-26.1ZM9 42.7c1.5-10.2 6.9-19.7 14.6-25.9-.3-.3-.5-.6-.8-1-7.9 6.3-13.5 16.4-15 26.9.5 0 .7-.1 1.2 0Zm13.8 37.5C15.1 74 9.5 64.9 7.8 54.7h1.6c1.7 9.9 7 18.5 14.4 24.5 1.1-1.1 2.6-1.8 4.3-1.8 3.3 0 6 2.7 6 6.1 0 .6-.1 1.2-.2 1.7C38.4 87 43.3 88 48.4 88s10-1 14.5-2.8c.1.4.3.8.5 1.2-4.7 1.9-9.8 2.9-15.1 2.9-5.3 0-10.3-1-15-2.9-1 1.9-3 3.2-5.3 3.2-3.3 0-6-2.7-6-6.1-.1-1.3.2-2.4.8-3.3Zm51 0C81.5 74 87 64.7 88.7 54.5c-.4.1-.8.1-1.2.1-1.7 9.9-7 18.5-14.4 24.5.2.4.4.8.7 1.1ZM63.7 44.5v-.3c0-9-7.3-16.3-16.2-16.3-8.9 0-16.2 7.3-16.2 16.3v.4c-2.7.3-4.8 2.5-4.8 5.3v1.8c0 2.9 2.4 5.3 5.3 5.3 1.2 0 2.1-.9 2.1-2.1v-8.2c0-.9-.5-1.6-1.3-1.9v-.5c0-8.3 6.7-15 14.9-15s14.9 6.7 14.9 15v.5c-.7.4-1.2 1.1-1.2 2v8c0 .8.4 1.5 1 1.9-.9 5.3-4.5 8.4-9.9 8.6-.4-1.6-1.8-2.7-3.5-2.7h-1.3c-2 0-3.6 1.6-3.6 3.6s1.6 3.6 3.6 3.6h1.3c1.8 0 3.4-1.4 3.6-3.2 5.9-.2 10-3.7 11.1-9.5 1.4 0 2.8-.6 3.8-1.6s1.6-2.4 1.6-3.9V50c-.1-3-2.4-5.4-5.2-5.5ZM32.5 54.8c0 .4-.4.8-.8.8-2.2 0-4-1.8-4-4v-1.8c0-2.2 1.8-4 4-4 .4 0 .8.4.8.8v8.2Zm16.3 13.5h-1.3c-1.3 0-2.3-1-2.3-2.3 0-1.3 1-2.3 2.3-2.3h1.3c1.3 0 2.3 1 2.3 2.3-.1 1.3-1.1 2.3-2.3 2.3Zm18.6-16.8c0 1.1-.4 2.1-1.2 2.9-.8.8-1.8 1.2-2.9 1.2-.5 0-.9-.4-.9-.9v-8c0-.5.4-.9.9-.9h.2c2.2.1 3.9 1.9 3.9 4.1v1.6Z" class="-path--primary" fill="#083176"/>
</svg>
