<svg id="icon-platform-edge-compute" viewBox="0 0 96 96" xmlns="http://www.w3.org/2000/svg">
  <path class="-path--shadow" fill="#38C6F4" d="M47.56 8.28C52.69 6.25 59.75 5 67.51 5c7.77 0 14.83 1.25 19.96 3.28a19.63 19.63 0 0 1 6.16 3.63C95.11 13.3 96 14.9 96 16.62a5 5 0 0 1 0 .28v42.18l-.01.03c-.17 1.67-1.12 3.2-2.63 4.53a20.25 20.25 0 0 1-6.18 3.5C82.05 69.1 75 70.29 66.86 70.29c-4.21.11-8.42-.27-12.54-1.13a27.3 27.3 0 0 0-15.3-30.12V16.07h.04a6.84 6.84 0 0 1 2.34-4.15 19.63 19.63 0 0 1 6.16-3.63Z"/>
  <path class="-path--primary" fill="#083176" fill-rule="evenodd" d="M63.21 7.95c-7.98 0-15.24 1.3-20.52 3.4a20.15 20.15 0 0 0-6.33 3.76c-1.53 1.44-2.44 3.09-2.44 4.87v10.7l-.02 6.03A27.77 27.77 0 0 0 0 63.85a27.77 27.77 0 0 0 27.7 27.84A27.71 27.71 0 0 0 53.5 74c2.94.4 5.91.6 8.88.64h.01c8.25 0 15.56-1.3 20.9-3.45a21.26 21.26 0 0 0 6.46-3.81c1.59-1.46 2.58-3.1 2.75-4.9V48.07l.01-.12V19.98h-.01c0-1.78-.9-3.43-2.43-4.87a20.15 20.15 0 0 0-6.34-3.76c-5.28-2.1-12.53-3.4-20.52-3.4ZM53.9 72.93c2.82.37 5.66.57 8.5.6 8.14 0 15.3-1.3 20.49-3.37a20.17 20.17 0 0 0 6.12-3.6c1.44-1.33 2.25-2.74 2.39-4.16V51c-.42.64-.95 1.24-1.57 1.82a20.63 20.63 0 0 1-6.32 3.77c-5.23 2.1-12.37 3.39-20.42 3.39-2.69-.03-5.37-.2-8.03-.53a28.2 28.2 0 0 1-1.16 13.48Zm.99-14.46.02-.16c2.71.34 5.45.52 8.18.55 7.95 0 14.94-1.26 20-3.3A19.54 19.54 0 0 0 89.06 52c1.37-1.27 2.15-2.62 2.33-4v-1.9h.01V35.54c-.44.69-1 1.36-1.66 1.99a22.03 22.03 0 0 1-6.49 4.05c-5.31 2.3-12.47 3.73-20.17 3.73-6.5 0-12.5-.95-17.34-2.58 4.62 4 7.92 9.5 9.14 15.75ZM40.42 39.11a19.9 19.9 0 0 1-.2-.12l-.01.01h-.01l.01-.02c-3-1.83-4.98-4.4-5.18-6.64v-9.02c.36.53.8 1.05 1.33 1.53 1.52 1.44 3.69 2.7 6.33 3.76 5.28 2.11 12.54 3.4 20.52 3.4 7.99 0 15.24-1.29 20.52-3.4a20.15 20.15 0 0 0 6.34-3.76c.52-.49.97-1 1.33-1.54v9.03c-.13 1.48-.96 2.97-2.43 4.37a20.94 20.94 0 0 1-6.16 3.84c-5.15 2.22-12.15 3.64-19.73 3.64-8.56 0-16.2-1.7-21.29-4.31-.44-.27-.9-.53-1.37-.77Zm-3.9-1.66a11.5 11.5 0 0 1-1.5-1.93V37c.5.14 1 .3 1.5.46Zm-1.48-17.47c0-1.38.7-2.75 2.08-4.06a19.06 19.06 0 0 1 5.98-3.53c5.12-2.05 12.23-3.32 20.11-3.32 7.88 0 15 1.27 20.11 3.32a19.07 19.07 0 0 1 5.98 3.53c1.39 1.3 2.09 2.68 2.09 4.06 0 1.38-.7 2.76-2.09 4.06a19.07 19.07 0 0 1-5.98 3.54c-5.12 2.04-12.23 3.32-20.1 3.32-7.89 0-15-1.28-20.12-3.32a19.07 19.07 0 0 1-5.98-3.54c-1.38-1.3-2.08-2.68-2.08-4.06ZM1.1 63.85A26.66 26.66 0 0 1 27.7 37.12a26.66 26.66 0 0 1 26.58 26.73A26.66 26.66 0 0 1 27.7 90.58 26.66 26.66 0 0 1 1.1 63.85Z" clip-rule="evenodd"/><path fill="#FF9E18" fill-rule="evenodd" d="M19.91 55.7c-.3 0-.55.24-.55.55v14.03c0 .31.25.56.55.56h15.35c.3 0 .55-.25.55-.56V56.25c0-.3-.25-.56-.55-.56H19.9Zm.56 14.03V56.8H34.7v12.92H20.47Z" clip-rule="evenodd"/>
  <path class="-path--secondary" fill="#FF9E18" fill-rule="evenodd" d="M19.12 44.64c.3 0 .56.24.56.55v6.03h3.07V45.2a.56.56 0 0 1 1.11 0v6.03h3.09l-.01-.07v-5.96a.56.56 0 0 1 1.11 0v6.03h3.08V45.2a.56.56 0 0 1 1.1 0v6.03h3.08V45.2a.56.56 0 0 1 1.11 0v6.03h3.72c.3 0 .55.25.55.56v2.6h5.45a.56.56 0 0 1 0 1.12h-5.45v3.1h5.45a.56.56 0 0 1 0 1.12h-5.45v3.09h5.45a.56.56 0 0 1 0 1.11h-5.45v3.1h5.45a.56.56 0 0 1 0 1.1h-5.45v3.1h5.45a.56.56 0 0 1 0 1.12h-5.45v2.41c0 .3-.25.56-.55.56h-3.72v5.49a.56.56 0 0 1-1.11 0v-5.5h-3.07v5.5a.56.56 0 0 1-1.12 0v-5.5h-3.07v5.5a.56.56 0 0 1-1.11 0v-5.5h-3.08v5.5a.56.56 0 0 1-1.11 0v-5.5h-3.07v5.5a.56.56 0 0 1-1.12 0v-5.5h-3.53a.56.56 0 0 1-.56-.55v-2.42a.56.56 0 0 1-.11 0H8.43a.56.56 0 1 1 0-1.1H14.46v-3.11a.56.56 0 0 1-.1 0H8.43a.56.56 0 1 1 0-1.1H14.46v-3.1a.56.56 0 0 1-.1 0H8.43a.56.56 0 1 1 0-1.11h5.93l.1.01v-3.11a.56.56 0 0 1-.1 0H8.43a.56.56 0 1 1 0-1.1H14.46V55.5a.56.56 0 0 1-.1.01H8.43a.56.56 0 0 1 0-1.11H14.46v-2.6c0-.32.26-.57.57-.57h3.54V45.2c0-.3.24-.55.55-.55Zm-3.54 29.55V52.34h24v21.85h-24Z" clip-rule="evenodd"/>
</svg>
