<svg id="icon-products-private-branch-exchange" viewBox="0 0 96 96" xmlns="http://www.w3.org/2000/svg">
  <path fill-rule="evenodd" d="M75.444 46.442c1.286-.46 2.664-.643 4.042-.643C87.478 45.799 94 52.32 94 60.313c0 8.084-6.522 14.606-14.514 14.606H69.443l-.062-2.02a2.83 2.83 0 0 0-2.848-2.665H11.955C6.709 65.497 4.433 57.925 6.822 50.76c3.123-9.645 13.412-14.881 22.966-11.666 1.561-4.226 4.134-7.809 7.44-10.473v2.388a5.332 5.332 0 0 0 5.329 5.329c.918 0 1.653-.735 1.653-1.654v-9.37c0-.183 0-.367-.092-.55 2.297-.828 4.777-1.287 7.258-1.379 12.952-.367 23.7 9.922 24.068 23.058Zm-14.882 4.41h1.378c1.837-.093 3.307-1.746 3.215-3.583a3.386 3.386 0 0 0-3.215-3.216h-1.378c-1.837 0-3.307 1.562-3.307 3.4 0 1.928 1.47 3.398 3.307 3.398Z" class="-path--shadow" fill="#38C6F4"/>
  <path fill-rule="evenodd" d="M26.965 42.396c1.765-5.091 5.302-9.216 9.695-11.902v.515a5.993 5.993 0 0 0 5.989 5.989 2.307 2.307 0 0 0 2.314-2.315v-7.165c1.034-.214 2.12-.35 3.197-.35h.02c11.187-.317 20.69 7.55 22.909 18.218-1.585.717-3.405 1.098-5.398 1.128a4.044 4.044 0 0 0-3.716-3.029h-1.396c-2.15-.102-3.985 1.792-3.985 3.967 0 2.179 1.743 4.06 3.968 4.06H61.973c2.018-.102 3.678-1.691 3.835-3.678 1.99-.042 3.853-.409 5.518-1.11.134.906.216 1.83.242 2.768a.661.661 0 0 0 .842.617c1.223-.35 2.54-.526 3.86-.526h.25c6.817.537 12.248 6.14 12.687 13.068v.004c.526 7.715-5.347 14.29-12.974 14.728a.66.66 0 1 0 .075 1.32c8.357-.481 14.793-7.685 14.217-16.137-.48-7.576-6.427-13.726-13.928-14.303a.66.66 0 0 0-.051-.002h-.276c-1.153 0-2.308.124-3.418.372a24.719 24.719 0 0 0-.283-2.515 11.66 11.66 0 0 0 1.722-1.176c2.241-1.846 3.783-4.546 4.383-8.037 3.36-.058 5.974-2.825 5.974-6.172v-1.735c.094-3.12-2.497-5.787-5.696-5.987v-.466c-.19-9.812-8.095-17.818-17.915-18.01-10.2-.285-18.583 7.82-18.773 18.01v.466a5.993 5.993 0 0 0-5.604 5.952.648.648 0 0 0-.05.026c-4.753 2.715-8.648 7.006-10.677 12.374a18.65 18.65 0 0 0-10.894.125c-1.772-5.04-2.613-9.836-2.613-9.836l5.787-1.745c0-7.717-1.653-11.024-1.653-11.024l-8.727-.367c-4.96 12.401.735 26.364.735 26.364.02.051.042.102.064.153-2.567 2.172-4.59 5.07-5.738 8.532l-.003.008-.02.053-.071.198c-.06.172-.145.421-.243.737-.196.631-.447 1.53-.67 2.605-.445 2.144-.787 5.03-.334 7.923.412 2.625 1.483 5.281 3.742 7.374a3.654 3.654 0 0 0-.052.62v14.881c0 1.912 1.568 3.508 3.416 3.508H66.9c1.941 0 3.417-1.596 3.417-3.416v-6.257l-.276-8.931v-.01a3.49 3.49 0 0 0-3.508-3.284H8.659a3.358 3.358 0 0 0-2.842 1.552c-1.739-1.786-2.605-3.99-2.958-6.242-.42-2.676-.107-5.388.321-7.45.213-1.026.453-1.883.639-2.48a20 20 0 0 1 .219-.667.658.658 0 0 0 .138-.388 17.609 17.609 0 0 1 5.01-7.599c3.325 7.328 8.318 13.892 14.447 19.157l6.982-6.797c-1.286-3.491-3.307-6.706-6.063-9.279l-4.226 1.654c-2.006-1.938-3.608-5.095-4.832-8.305a17.356 17.356 0 0 1 10.64.078.66.66 0 0 0 .83-.412Zm21.186-16.55c-1.086.002-2.166.127-3.188.325v-.858c0-.95-.564-1.76-1.378-2.119v-.63c.18-9.464 7.962-16.973 17.418-16.708h.005c9.1.177 16.443 7.6 16.623 16.708v.621a2.421 2.421 0 0 0-1.47 2.22V34.5c0 .934.51 1.693 1.225 2.095-.543 3.266-1.953 5.695-3.935 7.328-.363.3-.747.573-1.15.82-2.487-11.08-12.437-19.223-24.15-18.895Zm-5.502-1.526a4.671 4.671 0 0 0-4.668 4.668v2.02a4.671 4.671 0 0 0 4.668 4.668c.553 0 .993-.439.993-.993v-9.37a.986.986 0 0 0-.993-.993Zm34.834 1.085c0-.577.461-1.085 1.084-1.085 2.687 0 4.839 2.2 4.76 4.646v1.767c0 2.681-2.108 4.851-4.76 4.851a1.083 1.083 0 0 1-1.084-1.085v-9.094Zm-16.956 19.4c-1.334-.07-2.611 1.155-2.611 2.647 0 1.496 1.197 2.739 2.646 2.739h1.36c1.481-.083 2.645-1.344 2.573-2.797a2.725 2.725 0 0 0-2.573-2.588h-1.395ZM6.564 73.082c0-1.225.927-2.187 2.095-2.187h57.874c1.2 0 2.112.908 2.188 2.035l.275 8.89v6.236c0 1.12-.913 2.095-2.096 2.095H8.66c-1.092 0-2.096-.976-2.096-2.187V73.082Zm6.23 10.105a2.039 2.039 0 0 0 2.02-2.021 2.039 2.039 0 0 0-2.02-2.021 2.039 2.039 0 0 0-2.022 2.021c0 1.102.919 2.021 2.021 2.021Zm8.267-2.021a2.039 2.039 0 0 1-2.021 2.021 2.039 2.039 0 0 1-2.021-2.021c0-1.102.919-2.021 2.021-2.021 1.102 0 2.021.919 2.021 2.021Zm4.226 2.021a2.039 2.039 0 0 0 2.02-2.021 2.039 2.039 0 0 0-2.02-2.021 2.039 2.039 0 0 0-2.021 2.021c0 1.102.918 2.021 2.02 2.021Z" class="-path--primary" fill="#083176"/>
</svg>
