<svg id="icon-people-chief-financial-officer" viewBox="0 0 96 96" xmlns="http://www.w3.org/2000/svg">
  <path fill-rule="evenodd" d="M17.5 29.5c0 10.3 6.8 18.6 15.2 18.6 8.4 0 15.2-8.2 15.2-18.5S41.1 11 32.7 11c-8.4 0-15.2 8.3-15.2 18.5Zm-5.4 52.2h41.3c4.5 0 8.2-3.7 8.1-8.4v-8.1c0-2.9-1.7-5.7-4.3-7.1l-8.1-4.3-2.9-1.6c-2.1-1.1-4.6-1.3-6.9-.5l-3.8 1.4c-1.8.7-3.8.7-5.6 0l-4-1.4c-2.2-.8-4.7-.5-6.8.6l-2.9 1.6-8 4.3c-2.6 1.4-4.3 4.2-4.3 7.2v8.1c0 4.5 3.7 8.2 8.2 8.2Z" class="-path--shadow" fill="#38C6F4"/>
  <path fill-rule="evenodd" d="M15 31c0 10.8 7.1 19.5 15.9 19.5 8.7 0 15.8-8.8 15.8-19.5s-7-19.5-15.8-19.5S15 20.2 15 31Zm1.3 0c0-10 6.6-18.1 14.6-18.1S45.5 21 45.5 31c0 10-6.6 18.1-14.6 18.1-8.1 0-14.6-8.1-14.6-18.1ZM1 76.4c0 4.6 3.8 8.3 8.4 8.3v-.1h42.7c4.6 0 8.4-3.7 8.4-8.3v-9.2c0-3-1.7-5.8-4.4-7.3l-8.5-4.5-3.2-1.7a8.18 8.18 0 0 0-7-.5l-4.3 1.6c-1.5.6-3.2.6-4.8 0l-4.5-1.6c-2.3-.8-4.8-.6-6.9.6l-3.1 1.7-8.4 4.5C2.7 61.3 1 64.1 1 67.2v9.2Zm16.7-21.7c1-.6 2.2-.9 3.4-.9.8 0 1.6.1 2.4.4l4.5 1.6c1.8.7 3.9.7 5.7 0l4.6-1.7c1.9-.7 4.1-.5 5.9.5l11.7 6.3c2.3 1.2 3.7 3.6 3.7 6.2v9.2c0 3.8-3.2 7-7.1 7H9.6c-3.9 0-7.1-3.1-7.1-7v-9.2c0-2.6 1.4-5 3.7-6.2l8.4-4.5 3.1-1.7Z" class="-path--primary" fill="#083176"/>
  <path fill-rule="evenodd" d="m59 32.4.1-20.2 34.9.1-.1 22.9H62.7l-7.3 2.4 3.6-5.2Zm10.3-14.3c-.4-.3-.9-.6-1.5-.7v2.1c1.6.4 2.3 1.1 2.3 2.2 0 1.2-.9 1.9-2.3 2.1v1h-.9v-1.1c-.9-.1-1.8-.5-2.5-1l.7-1c.5.5 1.2.8 1.9.9v-2.1c-1.6-.4-2.3-1-2.3-2.2 0-1.2.9-1.9 2.3-2.1v-.6h.9v.6c.7.1 1.4.4 2 .8l-.6 1.1ZM67 19.3v-1.9c-.7.1-1 .4-1 .9-.1.4.2.7 1 1Zm.8 1.5v2c.7-.1 1.1-.4 1.1-.9 0-.6-.2-.9-1.1-1.1Zm9 4.2c.7 0 1.4.4 1.7 1l.7-.7c-.5-.9-1.5-1.4-2.6-1.4-1.4 0-2.7 1.1-3 2.5h-1v.9h.8v.9h-.8v.9h1c.3 1.5 1.7 2.5 3.2 2.5 1.1 0 2.1-.6 2.6-1.5l-.9-.7c-.3.6-1 1-1.7 1-.9 0-1.6-.6-1.8-1.4h2.4v-.9h-2.5v-.9h2.5v-.9h-2.3c.3-.7.9-1.3 1.7-1.3Zm5.3-5h1.7l-2.4-3.7h1.5l1.9 3.1 2-3.1h1.5L85.8 20h1.7v1h-2.1v.8h2.1v1h-2.1v1.1h-1.3v-1.1H82v-1h2.1V21H82l.1-1Z" class="-path--secondary" fill="#FF9E18"/>
</svg>
