<svg id="icon-business-lower-costs-yen" viewBox="0 0 96 96" xmlns="http://www.w3.org/2000/svg">
  <path fill-rule="evenodd" d="M29.332 31.663c0-.674-.544-1.22-1.214-1.22h-12.72c-.67 0-1.214.546-1.214 1.22v56.291c0 .674.544 1.22 1.214 1.22h12.72c.67 0 1.214-.546 1.214-1.22V31.663Zm21.542 15.445c.67 0 1.214.546 1.214 1.22v39.626c0 .674-.543 1.22-1.214 1.22h-12.72c-.67 0-1.213-.546-1.213-1.22V48.328c0-.674.543-1.22 1.214-1.22h12.72ZM73.64 63.774c.67 0 1.214.546 1.214 1.22v22.96c0 .674-.543 1.22-1.214 1.22H60.92c-.67 0-1.213-.546-1.213-1.22v-22.96c0-.674.543-1.22 1.214-1.22h12.72Z" class="-path--shadow" fill="#38C6F4"/>
  <path fill-rule="evenodd" d="M39.464 27.407a.66.66 0 0 0-.809 1.045l44.297 34.276-4.207.436a.66.66 0 1 0 .136 1.315l5.848-.607a.66.66 0 0 0 .586-.751l-.863-7.03a.66.66 0 0 0-1.311.16l.67 5.472-44.347-34.316Z" class="-path--secondary" fill="#FF9E18"/>
  <path fill-rule="evenodd" d="M23.333 4.321c-6.078 0-11.012 4.955-11.012 11.075 0 6.12 4.934 11.075 11.012 11.075s11.011-4.955 11.011-11.075c0-6.12-4.933-11.075-11.011-11.075ZM11 15.396C11 8.553 16.518 3 23.333 3c6.814 0 12.333 5.553 12.333 12.396 0 6.843-5.519 12.396-12.333 12.396C16.518 27.792 11 22.24 11 15.396Zm1.393 19.02c0-.313.251-.56.553-.56h12.72c.302 0 .553.247.553.56v56.29c0 .313-.251.56-.553.56h-12.72a.557.557 0 0 1-.553-.56v-56.29Zm.553-1.882a1.878 1.878 0 0 0-1.874 1.881v56.292c0 1.035.835 1.881 1.874 1.881h12.72a1.878 1.878 0 0 0 1.875-1.881V34.415a1.878 1.878 0 0 0-1.875-1.881h-12.72ZM35.703 50.52a.557.557 0 0 0-.553.56v39.626c0 .312.251.56.553.56h12.72a.557.557 0 0 0 .553-.56V51.08a.557.557 0 0 0-.553-.56h-12.72Zm-1.875.56c0-1.036.836-1.882 1.875-1.882h12.72c1.038 0 1.874.846 1.874 1.882v39.626a1.878 1.878 0 0 1-1.874 1.881h-12.72a1.878 1.878 0 0 1-1.875-1.881V51.08ZM58.46 67.186a.557.557 0 0 0-.553.56v22.96c0 .313.251.56.553.56h12.72a.557.557 0 0 0 .553-.56v-22.96a.557.557 0 0 0-.553-.56H58.46Zm-1.875.56c0-1.035.837-1.88 1.875-1.88h12.72c1.039 0 1.874.845 1.874 1.88v22.96a1.878 1.878 0 0 1-1.874 1.882H58.46a1.878 1.878 0 0 1-1.875-1.881v-22.96ZM21.976 15.883h-2.54v1.428h3.08v1.172h-3.08v1.428h3.08v1.644h1.888v-1.643h3.126v-1.428h-3.126V17.31h3.126v-1.428h-2.602l3.713-5.585H26.42l-2.928 4.707-2.905-4.707h-2.285l3.674 5.585Z" class="-path--primary" fill="#083176"/>
</svg>
