<svg id="icon-platform-connected-security" viewBox="0 0 96 96" xmlns="http://www.w3.org/2000/svg">
  <path class="-path--shadow" fill="#38C6F4" d="M36.48 37.04h35.28V70.3H36.48V37.04Z"/>
  <path class="-path--secondary" fill="#FF9E18" d="M68.06 47.3c0-.28.24-.52.53-.52H84.2a.52.52 0 0 1 0 1.05H68.6a.52.52 0 0 1-.53-.52ZM6.86 59.39a3.45 3.45 0 0 1-3.41 3.03A3.46 3.46 0 0 1 0 58.94a3.46 3.46 0 0 1 3.45-3.46c1.7 0 3.11 1.24 3.4 2.87H32.24a.52.52 0 0 1 0 1.04H6.86Zm-5.81-.44a2.4 2.4 0 0 0 2.4 2.42 2.4 2.4 0 0 0 2.4-2.42 2.4 2.4 0 0 0-2.4-2.41 2.4 2.4 0 0 0-2.4 2.41Zm10.8 3.65h10.57c.3 0 .53.24.53.53v5.1h9.3a.52.52 0 1 1 0 1.04h-9.83a.52.52 0 0 1-.52-.52v-5.1H11.85a.52.52 0 0 1 0-1.05Zm57.2 5.62H84.6a.52.52 0 1 1 0 1.05H69.05a.53.53 0 0 1 0-1.05Zm-.18-14.93a.52.52 0 1 1 0-1.05h20.9a3.15 3.15 0 0 1 3.1-2.64A3.15 3.15 0 0 1 96 52.75a3.15 3.15 0 0 1-6.24.52H68.87Zm24-2.64a2.1 2.1 0 0 0-2.1 2.11 2.1 2.1 0 0 0 2.1 2.11 2.1 2.1 0 0 0 2.08-2.1 2.1 2.1 0 0 0-2.09-2.12Zm-78.95-3.06c0-.3.24-.53.53-.53h17.61a.52.52 0 1 1 0 1.05H14.45a.52.52 0 0 1-.53-.52Zm7.97 5.04h10.09a.52.52 0 1 1 0 1.05h-10.1a.52.52 0 1 1 0-1.05Zm46.98 3.64h9.21c.3 0 .53.24.53.53v6.1h13.87a.52.52 0 0 1 0 1.05h-14.4a.52.52 0 0 1-.52-.53v-6.1h-8.69a.52.52 0 0 1 0-1.05Z"/>
  <path class="-path--primary" fill="#083176" d="M46.88 55.28c0-1.97 1.59-3.59 3.56-3.59a3.6 3.6 0 0 1 1.54 6.83v4.92c0 .3-.23.53-.52.53h-1.88a.52.52 0 0 1-.52-.52v-4.86a3.6 3.6 0 0 1-2.18-3.3ZM39.09 26.9c1.92-2.47 5.35-4.9 11.35-4.9s9.43 2.43 11.35 4.9a12.43 12.43 0 0 1 2.28 4.91v.03l-.52.09.52-.08v8.37h4c.3 0 .53.24.53.53v33.27c0 .29-.23.52-.52.52H32.8a.52.52 0 0 1-.52-.52V40.75c0-.3.23-.53.52-.53h4V31.85l.53.08-.52-.08v-.04a4.74 4.74 0 0 1 .1-.41 12.43 12.43 0 0 1 2.2-4.5Zm24.46 14.42a.52.52 0 0 1-.22-.05h-30v32.22h34.22V41.27h-3.77a.52.52 0 0 1-.23.05Zm-.52-9.35a3.98 3.98 0 0 0-.07-.32 11.39 11.39 0 0 0-2-4.1c-1.72-2.23-4.85-4.5-10.52-4.5s-8.8 2.27-10.52 4.5a11.39 11.39 0 0 0-2.07 4.42v8.25h25.18v-8.25Z"/>
</svg>
