<svg id="icon-products-ui-ux-modernization" viewBox="0 0 96 96" xmlns="http://www.w3.org/2000/svg">
  <path d="M37.9 66.35c1.4-1.3 3.1-2.2 5-2.5v-17.5c-1.5-1.1-2.5-2.8-2.5-4.8 0-3.3 2.6-5.9 5.9-5.9 3.3 0 5.9 2.7 5.9 5.9 0 1.9-.9 3.7-2.4 4.7v13.1c.9-.9 2-1.4 3.2-1.7 1.2-.1 2.4.2 3.3 1 1.2 1.2 1 3.9.9 4.1.6-.7 1.3-1.3 2.2-1.7 1.1-.4 2.3-.3 3.4.2 1.3.8 2.1 1.5 1.9 3.2.4-.7 1-1.2 1.7-1.6 1.4-.6 3-.3 4.1.7v-50.8c0-6.1-4.9-11-11-11H39.9c-6.1 0-11 4.9-11 11v51.5c0 4.5 2.7 8.4 6.6 10.1-.2-2.8.3-5.8 2.4-8Z" class="-path--shadow" fill="#38C6F4"/>
  <path fill-rule="evenodd" d="M35.6 80.25c-6.4 0-11.6-5.2-11.6-11.7v-51.5c0-.463.026-.92.078-1.368A.726.726 0 0 1 24 15.35c0-.202.076-.379.203-.504 1.02-5.433 5.74-9.496 11.397-9.496h19.8c5.625 0 10.323 4.018 11.378 9.404a.686.686 0 0 1 .322.596.657.657 0 0 1-.167.428c.044.417.067.842.067 1.272v46c0 .4-.3.7-.7.7-.4 0-.7-.3-.7-.7v-46c.006-.337-.005-.671-.031-1H25.357c-.038.362-.057.729-.057 1.1v50.2h11.3c.4 0 .7.3.7.7 0 .4-.4.7-.7.7H25.3c.054 5.655 4.633 10.3 10.3 10.3.4 0 .7.3.7.7 0 .4-.4.5-.7.5Zm29.758-65.6H25.602c1.112-4.512 5.158-7.9 9.998-7.9h19.8c4.873 0 8.942 3.362 9.958 7.9Zm-26.254 51.3H31c-.4 0-.7-.3-.7-.7v-15.2c0-.4.3-.7.7-.7h11.6c.4 0 .7.3.7.7 0 .4-.3.7-.7.7h-11v13.9h9.163c-.2.01-.763.07-.763.35 0 .4-.496.95-.896.95Zm1.728-1.302ZM51 44.05c0-.26.126-.477.324-.597.24-.6.376-1.244.376-1.903 0-2.9-2.4-5.3-5.2-5.3-3.1 0-5.2 2.7-5.2 5.3 0 1.7.9 3.5 2.4 4.5l-.9 1.1a6.543 6.543 0 0 1-2.239-2.404.5.5 0 0 1-.061.004h-9.4c-.4 0-.7-.3-.7-.7v-9.7c0-.4.3-.7.7-.7h29c.4 0 .7.3.7.7v9.7c-.1.5-.4.7-.8.7h-7.817a6.925 6.925 0 0 1-1.883 2.2l-.8-1.1a5.8 5.8 0 0 0 1.503-1.732.802.802 0 0 1-.003-.068Zm-19.3-.7h8.302a5.899 5.899 0 0 1-.202-1.8c0-3.2 2.7-6.6 6.6-6.6 3.6 0 6.6 3 6.6 6.6 0 .614-.085 1.218-.249 1.8H59.3v-8.4H31.7v8.4Zm-.7-21.5h23c.4 0 .7-.3.7-.7 0-.4-.3-.7-.7-.7H31c-.4 0-.7.3-.7.7 0 .4.3.7.7.7Zm15.8 4H31c-.4 0-.7-.3-.7-.7 0-.4.3-.7.7-.7h15.7c.4 0 .7.3.7.7 0 .4-.3.7-.6.7Zm-15.8 4h26.6c.4 0 .7-.3.7-.7 0-.4-.3-.7-.7-.7H31c-.4 0-.7.3-.7.7 0 .4.3.7.7.7Z" class="-path--primary" fill="#083176"/>
  <path fill-rule="evenodd" d="M53.4 94.25c-3.6 0-6.7-.6-8.3-1.4-5.438-2.57-7.552-7.977-8.47-10.322l-.03-.078c-1.3-3.4-3.8-11.8.8-16.6 1.4-1.3 3-2.2 4.8-2.6v-20.2c0-1.1.4-2.2 1.2-2.9.8-.8 1.8-1.2 2.9-1.2 2.2 0 4 1.7 4.1 3.9v15.3c.7-.5 1.6-.8 2.4-.9 1.4-.1 2.8.3 3.8 1.1.613.613.932 1.52 1.093 2.36a.675.675 0 0 1 .4.538 5.969 5.969 0 0 1 1.007-.498c1.3-.5 2.7-.4 3.9.2.861.478 1.722 1.048 2.058 2.06a.44.44 0 0 1 .117.09l.825-.55c1.9-.8 4-.3 5.3 1.3.5.7.7 1.5.7 2.4v13.7c-.2 2.6-1 4.9-2.1 7.1-3.4 5.5-10.6 7.2-16.5 7.2Zm11.9-29.075a.909.909 0 0 0 .1-.125c.3-.6.8-1 1.4-1.3 1.3-.6 2.9-.2 3.7.9.3.5.4 1 .4 1.6v13.7c-.2 2.3-.9 4.5-2 6.5-5.3 8-19.5 7.1-23.3 5.3-5-2.4-6.9-7.3-7.8-9.7-1.2-3.2-3.6-11 .5-15.2a9.057 9.057 0 0 1 3.9-2.13v10.83c0 .4.3.7.7.7.4 0 .7-.3.7-.7v-32.5c0-.7.3-1.5.8-2s1.2-.8 2-.8c1.5 0 2.7 1.1 2.7 2.6v16.6c0 .03.002.06.006.09v6.476c0 .345.3.603.7.603.4 0 .7-.258.7-.603v-6.35A5.513 5.513 0 0 1 53 58.45c1.1-.1 2.1.2 2.8.8.8.8.9 2.9.8 3.6 0 .16.028.319.1.448v2.652c0 .4.3.7.7.7.3 0 .6-.3.7-.7v-2.925a5.314 5.314 0 0 1 1.6-1.075c.9-.4 1.9-.3 2.8.1 1.3.7 1.7 1.2 1.6 2.6 0 .183.074.365.2.503v.897c0 .3.2.5.5.5s.5-.3.5-.5v-.875Z" class="-path--secondary" fill="#FF9E18"/>
</svg>
