<svg id="icon-products-plane-satellite-internet" viewBox="0 0 96 96" xmlns="http://www.w3.org/2000/svg">
  <path fill-rule="evenodd" d="M50.562 34.14a.764.764 0 0 0-1.524 0l-.852 10.8c-2.598.454-5.034 1.423-7.143 2.996H30a.764.764 0 0 0-.09 1.523l8.801 1.045c-.952 1.486-1.506 3.17-1.576 4.932H5.8a.764.764 0 0 0-.146 1.514l20.132 3.905a3.754 3.754 0 0 0-1.32 1.932c-.623 2.123.634 4.34 2.83 4.95 2.169.602 4.51-.589 5.137-2.721a3.894 3.894 0 0 0-.292-2.926l7.52 1.405c1.687 2.25 4.002 3.791 5.887 4.77.982.511 1.861.876 2.496 1.114a17.88 17.88 0 0 0 1.024.35l.016.004.007.002c.069.02.139.03.209.03h1.3a.764.764 0 0 0 .2-.028L50.6 69l.201.737.007-.002.016-.004.057-.016.208-.064c.178-.056.433-.14.748-.255.628-.231 1.499-.587 2.476-1.092 1.878-.97 4.194-2.512 5.924-4.808l7.365-1.377A3.979 3.979 0 0 0 67.136 64c0 2.294 2.018 3.964 4.264 3.964 2.307 0 4.164-1.827 4.164-4.064a3.85 3.85 0 0 0-1.473-3.043l20.055-3.907A.764.764 0 0 0 94 55.436H62.465c-.07-1.763-.625-3.446-1.576-4.931l8.801-1.046a.764.764 0 0 0-.09-1.523H58.546a17.82 17.82 0 0 0-7.132-2.995l-.852-10.801Z" class="-path--shadow" fill="#38C6F4"/>
  <path fill-rule="evenodd" d="M54.143 27.578c.118.068.21.122.357.122.2 0 .4-.1.4-.2.3-.2.3-.6 0-.9l-.2-.2c-4.5-4.1-11.6-4-16 .2-.2.2-.3.6 0 .9.2.2.6.3.9 0 3.8-3.8 10.2-3.8 14.2-.2l.2.2c.054.027.1.054.143.078ZM41.6 29.6c-.146 0-.24-.054-.357-.122a2.619 2.619 0 0 0-.143-.078c-.3-.3-.2-.7 0-.9 3.1-3 8.1-3 11.3-.2l.2.2c.3.3.3.7 0 .9-.3.3-.7.3-.9 0l-.1-.1c-2.6-2.4-6.9-2.4-9.5.1-.2.2-.4.2-.5.2Zm2.6 1.7c-.146 0-.24-.053-.357-.121a2.577 2.577 0 0 0-.143-.079c-.3-.3-.2-.7 0-.9 1.6-1.6 4.3-1.6 6-.1l.1.1c.3.3.3.7 0 .9-.3.3-.7.3-.9 0-1.2-1.1-3.1-1.1-4.2 0-.1.1-.3.2-.5.2Z" class="-path--secondary" fill="#FF9E18"/>
  <path fill-rule="evenodd" d="M45.248 46.76c-.305.052-.688.126-1.126.23-1.132.265-2.649.728-4.173 1.516a13.72 13.72 0 0 0-2.182 1.394H26.4c-.4 0-.7.3-.7.6-.1.3.2.6.5.7l9.028 1.52c-.808 1.325-1.358 2.933-1.464 4.88H1.1c-.4 0-.6.3-.7.6-.1.3.2.6.5.7l21.641 4.12c-1.273.688-2.141 1.993-2.141 3.48 0 2.2 1.9 4 4.2 4 2.3 0 4.2-1.8 4.2-4 0-.926-.336-1.78-.897-2.46L36.1 65.6h.067c1.08 1.457 2.402 2.628 3.706 3.548a22.471 22.471 0 0 0 5.901 2.938l.107.032.029.009.008.002h.003v.001l.179-.63-.178.63a.656.656 0 0 0 .178.025h1.4c.06 0 .12-.008.178-.025l-.178-.63.178.63h.004l.008-.003.03-.009.105-.032c.092-.028.223-.07.39-.127a22.471 22.471 0 0 0 5.513-2.81c1.304-.921 2.627-2.093 3.708-3.552a.662.662 0 0 0 .064.003s.1 0 .1-.1l7.902-1.504A3.83 3.83 0 0 0 64.8 66.2c0 2.2 1.9 4 4.2 4 2.3 0 4.2-1.8 4.2-4 0-1.375-.743-2.594-1.861-3.315L92.8 58.8c.3-.1.5-.4.5-.7-.1-.3-.4-.6-.7-.6H59.83c-.118-1.875-.648-3.432-1.425-4.724L67.4 51.2c.3-.1.6-.4.5-.7-.1-.3-.4-.6-.7-.6H55.833a13.72 13.72 0 0 0-2.182-1.394c-1.525-.788-3.042-1.251-4.173-1.517a18.43 18.43 0 0 0-1.294-.257L47.8 35.4c0-.3-.3-.6-.6-.6-.4 0-.7.3-.7.6l-1.252 11.36Zm1.327-.115h.302L46.8 44.4l-.225 2.245Zm8.483 4.31a12.388 12.388 0 0 0-2.009-1.286c-1.4-.724-2.809-1.155-3.87-1.405a16.913 16.913 0 0 0-1.627-.3l-.022-.002a6.38 6.38 0 0 0-.064-.007h-1.332l-.086.01a16.913 16.913 0 0 0-1.626.3c-1.063.249-2.47.68-3.871 1.404-.627.324-1.25.705-1.837 1.152a.44.44 0 0 1-.214.279l-.73.53c-1.494 1.45-2.604 3.457-2.707 6.242a.709.709 0 0 1 .137.428c0 .164-.05.311-.137.428.161 4.417 2.819 7.413 5.564 9.35a21.15 21.15 0 0 0 5.536 2.757l.032.01h1.21l.032-.01a19.67 19.67 0 0 0 1.636-.608 21.15 21.15 0 0 0 3.9-2.15c2.802-1.975 5.511-5.055 5.571-9.622a.738.738 0 0 1-.004-.498c-.09-3.044-1.377-5.166-3.061-6.65L55.1 51a.883.883 0 0 1-.042-.045ZM35.7 51.4l-1.6-.3h2l-.4.3Zm22.1.1-.4-.4h2.5l-2.1.4ZM35.274 64.223A11.864 11.864 0 0 1 33.764 59H7.9l27.374 5.223ZM85.7 58.9l-27.312 5.212a11.868 11.868 0 0 0 1.453-5.212H85.7Zm-38.8 0c.05 0 .075-.026.088-.051a.65.65 0 0 0 .05-.009l2.232-.478 3.43-.662c.3-.1.6-.4.5-.8a.698.698 0 0 0-.33-.44.653.653 0 0 0-.507-.1l-5.6 1.2a.67.67 0 0 0-.063.016.785.785 0 0 0-.06-.016l-5.5-1.2a.651.651 0 0 0-.379.03c-.227.053-.392.233-.461.51-.1.4.1.7.5.8l5.6 1.2h.1a.535.535 0 0 0 .184-.035.7.7 0 0 0 .216.035Zm19.2 7.3c0-1.5 1.3-2.7 2.9-2.7 1.6 0 2.9 1.2 2.9 2.7 0 1.5-1.3 2.7-2.9 2.7-1.6 0-2.9-1.2-2.9-2.7Zm-41.5-2.4c-1.6 0-2.9 1.2-2.9 2.7 0 1.5 1.3 2.7 2.9 2.7 1.6 0 2.9-1.2 2.9-2.7 0-1.4-1.3-2.7-2.9-2.7Z" class="-path--primary" fill="#083176"/>
</svg>
