<svg id="icon-people-chief-information-officer" viewBox="0 0 96 96" xmlns="http://www.w3.org/2000/svg">
  <path fill-rule="evenodd" d="M82.46 49.72c-1.076-3.075-4.45-4.694-7.531-3.624a5.903 5.903 0 0 0-3.638 3.623.551.551 0 0 0-.031.183v2.801h-1.195a.552.552 0 0 0-.552.553v12.692c0 .305.247.552.552.552h13.614a.552.552 0 0 0 .552-.552V53.256a.552.552 0 0 0-.552-.553H82.49v-2.801a.553.553 0 0 0-.03-.183Zm-1.073 2.983v-2.705c-.907-2.44-3.615-3.72-6.096-2.858a4.798 4.798 0 0 0-2.926 2.858v2.705h9.022Zm-4.516 4.38a1.718 1.718 0 0 0-.88 3.201v1.634a.555.555 0 0 0 .554.553h.726a.552.552 0 0 0 .552-.553v-1.68c.466-.307.774-.835.774-1.435 0-.953-.775-1.72-1.726-1.72Z" fill="#E1251B"/>
  <path fill-rule="evenodd" d="M23.217 25.3c0 12.816 8.51 23.302 18.923 23.302 10.412 0 18.923-10.486 18.923-23.301C61.063 12.485 52.553 2 42.14 2 31.728 2 23.217 12.485 23.217 25.3Zm53.6 54.668a2.824 2.824 0 0 1-1.991-.807l-9.507-8.424a11.164 11.164 0 0 1-3.803-8.424v-8.16l-2.354-1.34c-2.626-1.523-5.795-1.792-8.692-.716l-4.799 1.792c-2.263.896-4.798.896-7.062.09l-4.98-1.793c-2.807-.986-5.885-.717-8.51.717l-3.622 1.972-10.05 5.377a10.286 10.286 0 0 0-5.433 9.051V79.52c0 5.646 4.618 10.306 10.322 10.306h51.7c5.702-.09 10.32-4.658 10.32-10.303a2.86 2.86 0 0 1-1.539.445Z" class="-path--shadow" fill="#38C6F4"/>
  <path fill-rule="evenodd" d="M39.252 50.107c-9.772 0-18.183-9.953-18.183-22.678 0-12.724 8.41-22.678 18.183-22.678 9.772 0 18.183 9.954 18.183 22.678 0 12.725-8.411 22.678-18.183 22.678Zm0 1.183c-10.663 0-19.379-10.737-19.379-23.86 0-13.124 8.716-23.862 19.379-23.862 10.662 0 19.378 10.738 19.378 23.861 0 13.124-8.716 23.861-19.378 23.861Zm16.66 5.851c-1.87-1.368-4.99-1.49-7.493-.55l-.003.001-5.337 1.97a9.685 9.685 0 0 1-6.94.002l-5.6-1.967h-.002c-2.475-.845-5.104-.673-7.391.585l-3.9 2.155-10.411 5.555c-2.98 1.602-4.76 4.543-4.76 7.817V84c0 4.872 3.99 8.82 8.912 8.82h53.239c4.108 0 8.538-3.571 9.465-8.168l.13-3.822a3.753 3.753 0 0 1-1.539-.863l-9.507-8.424c-2.626-2.33-4.074-5.646-4.074-9.141v-2.514l-4.762-2.728-.026-.02Zm4.789 1.386-4.108-2.354c-2.296-1.659-5.857-1.712-8.594-.685h-.002l-5.339 1.971-.009.004a8.483 8.483 0 0 1-6.085 0l-.009-.004-5.622-1.975-.005-.001c-2.776-.948-5.76-.761-8.36.669l-3.891 2.15-10.409 5.554h-.001C4.91 65.66 2.885 68.993 2.885 72.71V84c0 5.524 4.522 10 10.102 10h53.239c4.732 0 9.636-4.035 10.644-9.17.158-.81.14-2.557.051-3.854a4.045 4.045 0 0 0 2.613-1.008l9.506-8.514c2.626-2.33 4.075-5.646 4.075-9.14V46.63c0-1.882-1.449-3.585-3.35-3.854L77.45 40.805c-.18-.09-.453-.09-.634-.09-.18-.09-.452-.09-.452 0L64.05 42.687c-1.992.269-3.35 1.971-3.35 3.853v11.987Zm15.754-16.02h.362c.09.09.181.09.272.09l12.314 1.972c.996.179 1.72.985 1.72 1.971v15.594c0 2.957-1.268 5.825-3.531 7.797l-9.507 8.513c-.815.717-1.992.717-2.716 0l-9.507-8.424a10.594 10.594 0 0 1-3.44-7.796V46.45c0-.986.724-1.793 1.72-1.972l12.313-1.971Z" class="-path--primary" fill="#083176"/>
</svg>
