<svg id="icon-places-government" viewBox="0 0 96 96" xmlns="http://www.w3.org/2000/svg">
  <path d="M78.745 83.705h-2.04V48.26c-1.463-10.857-9.42-19.732-20.087-22.403v-2.1a1.431 1.431 0 0 0-1.426-1.437h-3.038L50.138 2h-.854l-2.023 20.32H45.17a1.5 1.5 0 0 0-1.502 1.496v2.032C32.949 28.532 24.9 37.367 23.256 48.251v35.445h-2.765a1.227 1.227 0 0 0-1.247 1.207v4.872c.005.676.559 1.221 1.238 1.216h58.263A1.236 1.236 0 0 0 80 89.775v-4.863a1.235 1.235 0 0 0-1.255-1.207Z" class="-path--shadow" fill="#38C6F4"/>
  <path fill-rule="evenodd" d="M44.28 24.697 46.306 4.78h.854l1.942 19.917h2.66c1.162 0 2.108.94 2.108 2.103v1.591c10.782 2.898 18.776 11.99 20.21 23.057l.003.021.001.022c.006.092.006.183.001.275a2.361 2.361 0 0 1-2.365 2.337H21.51l-.04-.005a2.461 2.461 0 0 1-2.153-2.715l.002-.013c1.46-11.033 9.44-20.086 20.192-22.979v-1.535a2.174 2.174 0 0 1 2.165-2.159h2.606Zm-2.6 1.316a.859.859 0 0 0-.855.849v2.552l-.498.124c-10.48 2.614-18.29 11.336-19.704 21.997-.066.608.362 1.16.97 1.253H71.72c.583 0 1.05-.47 1.05-1.043v-.02l.001-.021c.003-.037.003-.074.002-.11-1.395-10.688-9.216-19.44-19.72-22.056l-.498-.124V26.8a.79.79 0 0 0-.794-.788H41.68ZM20.645 60.918c0-.902.735-1.637 1.648-1.637H71.6c.912 0 1.647.735 1.647 1.637v18.713c0 .903-.735 1.638-1.647 1.638H22.292a1.643 1.643 0 0 1-1.648-1.638V60.92Zm1.648-2.953a2.958 2.958 0 0 0-2.963 2.953v18.713a2.958 2.958 0 0 0 2.962 2.954H71.6a2.958 2.958 0 0 0 2.962-2.954V60.92a2.958 2.958 0 0 0-2.962-2.953H22.292Zm4.874 3.945h-5.054v16.73h5.054V61.91Zm-3.739 15.414V63.226h2.424v14.1h-2.424Zm-6.77 11.54c0-.784.64-1.425 1.434-1.425h57.051c.795 0 1.434.64 1.434 1.425v3.155a1.43 1.43 0 0 1-1.434 1.425h-57.05a1.43 1.43 0 0 1-1.434-1.425v-3.154Zm1.434-2.74a2.745 2.745 0 0 0-2.749 2.74v3.155a2.745 2.745 0 0 0 2.75 2.74h57.05a2.745 2.745 0 0 0 2.75-2.74v-3.154a2.745 2.745 0 0 0-2.75-2.741h-57.05Zm12.942-24.214h5.054v16.73h-5.054V61.91Zm1.315 1.315v14.1h2.424v-14.1h-2.424Zm12.66-1.315h-5.054v16.73h5.054V61.91Zm-3.74 15.414V63.226h2.425v14.1h-2.424Zm7.607-15.414h5.054v16.73h-5.054V61.91Zm1.315 1.315v14.1h2.424v-14.1H50.19Zm12.66-1.315h-5.054v16.73h5.054V61.91Zm-3.739 15.414V63.226h2.424v14.1h-2.424Zm7.605-15.414h5.055v16.73h-5.055V61.91Zm1.316 1.315v14.1h2.423v-14.1h-2.424Z" class="-path--primary" fill="#083176"/>
</svg>
