<svg id="icon-products-threat-intelligence" viewBox="0 0 96 96" xmlns="http://www.w3.org/2000/svg">
  <path fill-rule="evenodd" d="M33.9 19.85h53.6c.9.1 1.6.9 1.6 1.8v5.8c0 .034 0 .067-.002.1H92.2c.9 0 1.6.7 1.8 1.6l-7.8 46c0 .8-.7 1.5-1.6 1.5H16.1c-.9 0-1.6-.6-1.6-1.5l-7.8-46c0-.9.6-1.6 1.5-1.6h3.203a1.954 1.954 0 0 1-.003-.1v-11.1c0-.9.7-1.6 1.6-1.7h16.4l4.5 5.2Zm-.7 36.1c0 7.3 5.9 13.2 13.2 13.2 7.3 0 13.2-5.9 13.2-13.2 0-7.3-5.9-13.2-13.2-13.2-7.3 0-13.2 5.9-13.2 13.2Z" class="-path--shadow" fill="#38C6F4"/>
  <path fill-rule="evenodd" d="M4.4 32.25H88.5c.5 0 .9.3.9.8l-7.8 45.9v.1c0 .5-.4.9-.9.9H12.2c-.067-.033-.133-.056-.2-.078-.133-.044-.267-.089-.4-.222-.2-.1-.3-.4-.3-.6l-7.8-46c0-.2.1-.4.3-.5.1-.2.3-.3.6-.3Zm81.5-2.2c-.027.32-.11.624-.242.9H88.3c1.2 0 2.2 1 2.2 2.2v.1l-7.8 46c0 1.2-1 2.1-2.2 2.1H12.1c-.6 0-1.1-.2-1.6-.6-.4-.4-.6-.9-.7-1.5l-7.8-46c0-.6.2-1.1.6-1.6.4-.4 1-.7 1.6-.7h3a2.537 2.537 0 0 1-.2-1v-9.8c0-1.2 1-2.2 2.2-2.2h16.7l4.5 4.7h53.3c1.2 0 2.2 1 2.2 2.2v5.2Zm-76.9.9h74.5c.5 0 .9-.4.9-.9v-5.2c0-.5-.4-.9-.9-.9H29.8l-4.5-4.7H9.1c.1.1 0 .1 0 .1-.5 0-.9.4-.9.9v9.8c0 .2.1.5.2.6.2.2.4.3.6.3Zm24.858 25.2A12.53 12.53 0 0 1 46.4 43.608 12.53 12.53 0 0 1 58.942 56.15 12.53 12.53 0 0 1 46.4 68.692 12.53 12.53 0 0 1 33.858 56.15ZM46.4 42.292c-7.663 0-13.858 6.195-13.858 13.858S38.737 70.007 46.4 70.007s13.858-6.194 13.858-13.857c0-7.663-6.195-13.858-13.858-13.858Z" class="-path--primary" fill="#083176"/>
  <path fill-rule="evenodd" d="M43.9 47.723a.548.548 0 1 0-.998.454l1.43 3.148c-.323.364-.557.81-.667 1.306a.546.546 0 0 0-.013.119v.7a.548.548 0 0 0 1.096 0v-.636a1.82 1.82 0 0 1 1.357-1.326c.903-.142 1.78.456 1.947 1.31v.652a.548.548 0 0 0 1.096 0v-.7c0-.03-.002-.06-.007-.09a2.658 2.658 0 0 0-.662-1.358l1.42-3.125a.548.548 0 1 0-.997-.454l-1.326 2.917a2.844 2.844 0 0 0-1.695-.225c-.23.051-.449.129-.654.23L43.9 47.722Zm-.716 6.47a.548.548 0 0 1 .416-.191h5.6c.16 0 .312.07.416.191l.87 1.015.938-.688.649-2.318a.548.548 0 0 1 1.055.296l-.7 2.5a.547.547 0 0 1-.203.294l-1.277.936V57.35l1.819.578a.548.548 0 0 1 .361.374l.7 2.5a.548.548 0 0 1-1.055.296l-.62-2.215-1.205-.384v1.351a4.743 4.743 0 0 1-.143.818l1.42 1.04c.112.083.19.206.215.344l.4 2.2a.548.548 0 0 1-1.079.196l-.36-1.985-1.018-.746c-.743 1.349-2.122 2.295-3.744 2.38-1.832.162-3.474-.826-4.275-2.34l-.964.706-.36 1.985a.548.548 0 1 1-1.079-.196l.4-2.2a.548.548 0 0 1 .215-.344l1.39-1.018a4.486 4.486 0 0 1-.114-.84V58.5l-1.204.383-.62 2.215a.548.548 0 0 1-1.055-.296l.7-2.5a.548.548 0 0 1 .361-.374l1.818-.579V56.228l-1.276-.936a.548.548 0 0 1-.203-.294l-.7-2.5a.548.548 0 0 1 1.055-.296l.649 2.318.938.688.87-1.015Zm6.668 2.757V59.822c-.171 1.603-1.373 2.89-2.904 3.14V56.75a.548.548 0 0 0-1.096 0v6.244c-1.567-.193-2.823-1.506-2.904-3.157V56.153l.904-1.055h5.096l.904 1.055V56.95Z" fill="#D62015"/>
</svg>
