<svg id="icon-products-uc-and-c" viewBox="0 0 96 96" xmlns="http://www.w3.org/2000/svg">
  <path d="m67.14 51.25 5-1.2s1.4 1.6 2.7 5.9l-3 1.9s1.1 2.3 2.7 4.6h2c1.8 0 3.3-1.5 3.3-3.3v-35.6c0-1.8-1.5-3.3-3.3-3.3h-53.5c-1.8 0-3.3 1.5-3.3 3.3v10.1h16.3v22.6h-16.3v2.9c0 1.8 1.5 3.3 3.3 3.3h46.5c-1.4-2.7-2.9-6.8-2.4-11.2Z" class="-path--shadow" fill="#38C6F4"/>
  <path fill-rule="evenodd" d="M93.34 65.45c.1.3.4.6.7.6.4-.1.7-.4.6-.8-.2-2.9-1.5-5.5-3.7-7.4-2.2-1.9-5-2.8-7.8-2.6h-.3c-.4 0-.7.3-.7.7 0 .4.3.7.7.7h.3c2.5-.2 5 .6 6.9 2.3 2 1.6 3.1 4 3.3 6.5Zm-2.3.6c-.3 0-.6-.3-.7-.6-.1-1.7-.9-3.2-2.2-4.3-1.3-1.1-2.9-1.7-4.6-1.5h-.2c-.4 0-.7-.3-.7-.7 0-.4.3-.7.7-.7h.2c2-.1 4 .5 5.5 1.9 1.5 1.3 2.5 3.2 2.6 5.3.1.2-.2.5-.6.6Zm-3-.4c-.3 0-.6-.3-.7-.6-.1-1.5-1.5-2.7-2.9-2.6h-.1c-.4 0-.7-.3-.7-.7 0-.4.3-.7.7-.7 2.2-.1 4.2 1.6 4.4 3.8-.1.5-.3.8-.7.8Z" class="-path--secondary" fill="#FF9E18"/>
  <path fill-rule="evenodd" d="m72.54 57.85 2.252-1.442.104 5.344c-1.008-1.5-1.812-2.933-2.261-3.734l-.095-.168Zm6.6 8.6c-1.04-.682-2.068-1.775-3-2.971V27.95c0-2.2-1.8-4-4-4h-53.4c-2.2 0-4 1.8-4 4v5.1H2.04c-.4 0-.7.3-.7.7v22.5c0 .4.3.7.7.7h12.6v6.6c0 2.2 1.8 4 4 4h53.597c3.036 3.415 6.811 6.232 10.903 8.1.1.1.2.1.3.1.2 0 .4-.1.3-.5l2.9-4.9c.2-.2.2-.5 0-.7-1.4-1.8-3-3.3-5-4.5-.2-.2-.5-.2-.7 0l-1.8 1.3Zm-63.1-10.9H2.74v-21.2h32.7v21.2h-1.005c.197-.385.306-.828.306-1.3v-2.2c0-.9-.5-1.8-1.4-2.3l-2.1-1.1-.8-.5c-.7-.4-1.5-.5-2.2-.2l-1.1.4c-.3.1-.6.1-.9 0l-1.2-.4c-.7-.2-1.4-.2-2.1.2l-2.9 1.6c-.9.4-1.4 1.3-1.4 2.3v2.3c0 .428.112.838.308 1.2H16.04Zm0 1.4v.5h50.888c-.493-1.962-.743-4.137-.488-6.4 0-.3.2-.5.5-.6l5-1.2c.2-.1.5 0 .6.2.084.084 1.15 1.291 2.2 4.211V27.95c0-1.5-1.2-2.7-2.6-2.7h-53.5c-1.5 0-2.6 1.2-2.6 2.7v5.1h20c.4 0 .7.3.7.7v22.5c0 .4-.3.7-.7.7H16.04Zm0 6.6v-4.8h51.258c1.257 3.96 3.353 6.83 3.773 7.404.035.049.059.08.069.096h-52.5c-1.4 0-2.6-1.2-2.6-2.7Zm56.2 1.9c.238.237.413.475.624.762l.177.238.8.9-.015.002a30.106 30.106 0 0 0 9.314 6.898l2.3-4c-1.1-1.4-2.4-2.6-4-3.6l-1.8 1.3c-.2.2-.5.2-.7.1-4.1-2.2-7.7-9.6-7.8-9.9-.1-.3 0-.7.2-.8l2.5-1.6c-.8-2.8-1.8-4.3-2.2-4.9l-3.9.9c-.5 7.2 4.4 13.7 4.5 13.7Zm-50.906-9.9h10.914c.696-.004 1.193-.602 1.193-1.3v-2.3c0-.5-.3-.9-.7-1.2l-3-1.6c-.3-.2-.7-.2-1.1-.1l-1.1.4c-.6.2-1.2.2-1.8 0l-1.1-.4h-.4c-.2 0-.4.1-.6.2l-2.9 1.6c-.4.2-.7.7-.7 1.2v2.2c0 .698.596 1.296 1.293 1.3ZM6.44 38.85c0 2.2 1.5 4 3.3 4 .164 0 .325-.015.483-.044l-.382.144c-.1.1-.3.1-.5 0l-.8-.3c-.5-.3-1.2-.2-1.7.1l-2.1 1.2c-.7.4-1.1 1.1-1.1 1.9v1.8c0 1.2 1 2.1 2.1 2.1h8c1.1 0 2.1-.9 2-2.1v-1.7c0-.8-.4-1.5-1.1-1.9l-1.6-.8-.6-.5a2.2 2.2 0 0 0-1.483-.187c1.211-.592 2.082-2.036 2.082-3.713 0-2.2-1.5-4-3.3-4-1.8 0-3.3 1.8-3.3 4Zm1.3.1c0-1.5.9-2.7 2-2.7 1 0 1.9 1.2 2 2.7 0 1.5-.9 2.7-2 2.7s-2-1.3-2-2.7Zm14.5 3.7c0 3 2 5.5 4.5 5.5s4.5-2.4 4.5-5.5-2-5.5-4.5-5.5-4.5 2.5-4.5 5.5Zm1.3 0c0-2.2 1.4-4.1 3.2-4.1 1.8 0 3.2 1.9 3.2 4.1 0 2.3-1.5 4.2-3.2 4.2-1.8 0-3.2-1.9-3.2-4.2Zm-15.7 1.3c-.1 0-.3 0-.4.1l-2.1 1.2c-.3.1-.4.4-.4.7v1.8c0 .4.4.8.8.8h8c.4 0 .8-.3.8-.8v-1.7c0-.3-.2-.6-.4-.7l-2.2-1.2c-.2-.1-.4-.1-.7-.1l-.8.2c-.5.2-1 .2-1.5 0l-.8-.3h-.3Z" class="-path--primary" fill="#083176"/>
</svg>
