<svg id="icon-products-warning" viewBox="0 0 96 96" xmlns="http://www.w3.org/2000/svg">
  <path fill-rule="evenodd" d="M16.285 86.945H83.825a9.504 9.504 0 0 0 4.596-1.182c4.654-2.567 6.373-8.472 3.84-13.189l-33.557-62.49a9.66 9.66 0 0 0-3.797-3.873c-4.639-2.594-10.473-.884-13.032 3.819L7.886 72.528a9.829 9.829 0 0 0-1.191 4.691c-.001 5.37 4.292 9.725 9.59 9.726Zm26.232-27.31c.123 1.723 1.536 3.059 3.24 3.062 1.708.008 3.129-1.328 3.248-3.055l1.511-24.224v-.2c0-1.818-1.454-3.292-3.248-3.292h-3.24a2.96 2.96 0 0 0-.227.009c-1.664.122-2.915 1.59-2.794 3.276l1.51 24.424Zm-1.042 12.012v1.8c.004 1.812 1.452 3.28 3.24 3.284H46.8c1.79 0 3.24-1.47 3.24-3.284v-1.8c0-1.814-1.45-3.284-3.24-3.284h-2.085c-1.79 0-3.24 1.47-3.24 3.284Z" class="-path--shadow" fill="#38C6F4"/>
  <path fill-rule="evenodd" d="M44.026 32.585c-.06 0-.118.002-.176.006-1.294.095-2.283 1.24-2.187 2.573v.006l1.51 24.418v.003c.1 1.386 1.234 2.445 2.586 2.448h.002c1.352.007 2.49-1.053 2.588-2.44v-.002l1.509-24.2v-.178c0-1.464-1.168-2.634-2.59-2.634h-3.242Zm.003-1.316c-.092 0-.184.003-.277.01Zm0 0h3.239c2.166 0 3.906 1.776 3.906 3.95v.199a.62.62 0 0 1-.001.04l-1.511 24.23c-.143 2.065-1.846 3.677-3.908 3.667l.003-.658-.001.658h-.002c-2.056-.005-3.747-1.614-3.893-3.673v-.007l-1.511-24.42v.003l.656-.047-.656.04v.004c-.145-2.04 1.37-3.827 3.402-3.977m.963 37.743c-1.418 0-2.582 1.168-2.582 2.627v1.798c.003 1.458 1.167 2.624 2.584 2.627H46.8c1.418 0 2.582-1.167 2.582-2.626v-1.8c0-1.459-1.164-2.626-2.582-2.626h-2.085Zm-3.898 4.443c.013 2.159 1.743 3.92 3.897 3.925H46.8c2.161 0 3.898-1.773 3.898-3.942v-1.8c0-2.168-1.737-3.942-3.898-3.942h-2.085c-2.161 0-3.898 1.774-3.898 3.943v1.816Z" fill="#D62015"/>
  <path fill-rule="evenodd" d="m37.763 13.399-33.99 62.49a9.172 9.172 0 0 0-1.115 4.39c.001 5.014 4.01 9.064 8.937 9.063H79.11a8.859 8.859 0 0 0 4.233-1.091c4.347-2.383 5.973-7.894 3.618-12.311m0-.002-33.52-62.496a9.01 9.01 0 0 0-3.535-3.603c-4.319-2.415-9.756-.828-12.144 3.56M50.549 8.69a10.325 10.325 0 0 1 4.051 4.128l33.522 62.5c2.69 5.046.842 11.352-4.145 14.086a10.178 10.178 0 0 1-4.863 1.253H11.595c-5.67 0-10.252-4.654-10.253-10.38 0-1.754.438-3.48 1.276-5.017m0 0L36.607 12.77c2.734-5.024 8.976-6.857 13.942-4.08" class="-path--primary" fill="#083176"/>
</svg>
