<svg id="icon-products-teleport" viewBox="0 0 96 96" xmlns="http://www.w3.org/2000/svg">
  <path fill-rule="evenodd" d="M19.968 62.524c-7.08-14.133-4.832-31.79 6.893-43.674l54.1 53.9c-11.08 10.856-27.206 13.584-40.864 8.185L43.36 94.35h-31.6l8.207-31.826Z" class="-path--shadow" fill="#38C6F4"/>
  <path fill-rule="evenodd" d="M89.061 25.55c0 .4.3.7.7.7.4 0 .6-.3.6-.6.2-13-10.3-23.8-23.4-24h-.6c-.4 0-.7.3-.7.7 0 .4.3.7.7.7h.6c12.4.1 22.3 10.3 22.1 22.5Zm-6.1.2c-.4 0-.7-.3-.7-.7.1-8.3-6.6-15.2-15-15.3h-.4c-.4 0-.7-.3-.7-.7 0-.4.3-.7.7-.7h.5c9.1.1 16.4 7.6 16.3 16.6 0 .5-.3.8-.7.8Zm-6.8-1.4c-.4 0-.7-.3-.7-.7 0-1.9-.7-3.7-2-5-1.3-1.4-3.1-2.1-5-2.1h-.2c-.4 0-.7-.3-.7-.7 0-.4.3-.7.7-.7h.2c2.3 0 4.4.9 5.9 2.5 1.6 1.6 2.4 3.7 2.4 6 0 .4-.3.7-.6.7Z" class="-path--secondary" fill="#FF9E18"/>
  <path fill-rule="evenodd" d="M20.961 70.95a39 39 0 0 0 27.5 11.3c10 0 20-3.8 27.5-11.3.027-.054.054-.1.079-.143.068-.118.121-.21.121-.357 0-.2-.1-.4-.2-.5l-4.036-4.021-4.95-30.394 5.086-5.085-10.6-10.5-5.01 5.01-30.39-4.91a.801.801 0 0 0-.21-.025l-3.99-3.975c-.2-.3-.6-.3-.9 0-7.4 7.3-11.4 17-11.4 27.4 0 10.4 4 20.1 11.4 27.5Zm36.494-44.617-30.008-4.718 12.174 12.13L59.16 28.02l-1.704-1.688Zm-2.06 24.922L39.11 35.032a.63.63 0 0 1-.101-.1L21.461 17.45c-6.8 7-10.6 16.2-10.6 26 0 10 3.9 19.4 11 26.5 14.5 14.4 38 14.6 52.7.4L55.504 51.364a.659.659 0 0 1-.11-.109Zm4.79-22.218-19.542 5.725L55.627 49.69l6.958-18.276-2.4-2.377Zm3.376 3.344-6.981 18.26 13.995 13.943-4.871-30.08-2.143-2.123ZM6.361 92.65h-.2c-.4-.1-.6-.5-.5-.8l7.4-26.7.8 1.3c5 8.1 12.8 13.9 22 16.4l.4.1 2.2 8.8c.1.4-.1.7-.5.8-.4.1-.7-.1-.8-.5l-.825-3.343h-28.4L6.96 92.25c0 .3-.3.4-.6.4Zm28.8-8.7.85 3.442H8.297l5.264-19.142c5.1 7.6 12.7 13.2 21.6 15.7Z" class="-path--primary" fill="#083176"/>
</svg>
