<svg id="icon-products-ai-machine-learning" viewBox="0 0 96 96" xmlns="http://www.w3.org/2000/svg">
  <path d="M86.24 50.713a18.032 18.032 0 0 1-5.733-8.937 55.192 55.192 0 0 0-.633-3c-2.253-9.41-3.368-14.135-7.55-18.293-7.433-7.426-20.684-9.552-31.042-4.394-12.456 5.821-17.815 20.597-11.97 33.002.086.181.173.362.268.544a10.602 10.602 0 0 1 1.036 4.567V81.25a1.268 1.268 0 0 0 .838 1.197l25.91 9.607a.934.934 0 0 0 1.2-.547l.002-.004a.898.898 0 0 0 .055-.386c-.41-6.163-.827-12.33-1.249-18.497a.788.788 0 0 1 .79-.875.832.832 0 0 1 .546.15 23.286 23.286 0 0 0 3.353 2.008c.506.236 11.07 5.26 16.35 1.095.791-.623 2.515-2.276 2.942-13.718.08-2.197.15-4.252.182-6.3a8.495 8.495 0 0 0 2.095-.141c1.328-.268 3.566-1.134 3.653-2.426.024-.488-.198-1-1.043-1.7Z" class="-path--shadow" fill="#38C6F4"/>
  <path fill-rule="evenodd" d="M54.478 2a.592.592 0 0 0-.587.515L53.357 6.6a9.739 9.739 0 0 0-1.096.586l-4.054-1.691a.592.592 0 0 0-.74.248l-3.004 5.158a.592.592 0 0 0 .15.767l3.16 2.423a9.54 9.54 0 0 0-.099 1.226 27.678 27.678 0 0 0-7.298 1.832l-6.111-3.807a.592.592 0 0 0-.77.126l-3.858 4.672c-.661-.09-1.327-.13-1.994-.123l-3.692-5.215a.592.592 0 0 0-.757-.183l-7.528 3.938a.592.592 0 0 0-.28.73l2.027 5.432a13.656 13.656 0 0 0-1.783 2.639l-6.07.568a.592.592 0 0 0-.536.567l-.309 8.497c-.01.297.201.556.495.605l5.855.976c.353.896.801 1.752 1.336 2.554l-2.485 5.404a.592.592 0 0 0 .225.75l7.22 4.496a.592.592 0 0 0 .77-.127l2.596-3.16a25.428 25.428 0 0 0 1.745 5.068l.006.012c.079.165.166.349.262.535a9.204 9.204 0 0 1 .849 3.91v26.278a2.38 2.38 0 0 0 1.552 2.231l.005.002L54.1 93.871a2.032 2.032 0 0 0 2.611-1.187c.114-.284.158-.59.13-.895-.38-5.746-.761-11.492-1.146-17.238a23.473 23.473 0 0 0 2.827 1.652l.02.01.02.01c.36.17 3.066 1.45 6.353 2.203 3.272.75 7.565 1.085 10.553-1.289.252-.2.595-.5.95-1.043.346-.526.678-1.24.981-2.25.602-2.005 1.123-5.297 1.326-10.884.067-1.735.126-3.39.158-5.021a9.378 9.378 0 0 0 1.125-.148l.01-.002c.726-.148 1.7-.458 2.533-.929.417-.236.846-.538 1.19-.92.346-.386.652-.908.696-1.556a1.15 1.15 0 0 0 .001-.112 2.715 2.715 0 0 0-.38-1.32c-.25-.425-.614-.813-1.08-1.196a16.347 16.347 0 0 1-5.126-8.053 62.377 62.377 0 0 0-.618-2.919l-.07-.296c-2.088-8.856-3.235-13.716-7.482-18.017a21.534 21.534 0 0 0-.445-.436l1.432-2.459a.592.592 0 0 0-.15-.767l-3.297-2.532a9.45 9.45 0 0 0 .033-.834c0-.316-.014-.631-.044-.945l3.313-2.521a.592.592 0 0 0 .154-.768l-2.989-5.165a.592.592 0 0 0-.74-.25L63.021 7.43a9.805 9.805 0 0 0-1.43-.813l-.54-4.104A.592.592 0 0 0 60.462 2h-5.985Zm12.776 13.443v-.003l-.592.003.592.002v-.002Zm1.084 5.781 1.046-1.794-3.145-2.415a.592.592 0 0 1-.228-.54c.041-.341.061-.685.06-1.029v-.005a8.344 8.344 0 0 0-.074-1.132.592.592 0 0 1 .228-.55l3.166-2.408-2.467-4.265-3.75 1.564a.592.592 0 0 1-.58-.07 8.62 8.62 0 0 0-1.775-1.01.592.592 0 0 1-.357-.467l-.518-3.92h-4.947l-.51 3.903a.592.592 0 0 1-.36.47 8.55 8.55 0 0 0-1.48.789.592.592 0 0 1-.555.053l-3.863-1.611-2.481 4.26 3.026 2.32a.592.592 0 0 1 .221.577c-.077.418-.121.84-.134 1.265a29.242 29.242 0 0 1 3.015-.056c.202-2.842 2.578-5.085 5.48-5.09 3.035-.004 5.505 2.444 5.51 5.474v.008c0 .71-.136 1.39-.383 2.013 2.138.956 4.118 2.183 5.855 3.666Zm-6.39-2.647c2.132.944 4.097 2.169 5.804 3.654l-.85 1.46-3.641-1.518a.592.592 0 0 0-.585.074 8.582 8.582 0 0 1-1.908 1.09.592.592 0 0 0-.362.47l-.502 3.833h-4.947l-.509-3.864a.592.592 0 0 0-.36-.47 8.655 8.655 0 0 1-1.938-1.12.592.592 0 0 0-.585-.077l-3.601 1.48-2.462-4.266 3.175-2.417a.592.592 0 0 0 .228-.55 28.069 28.069 0 0 1 3.01-.052 5.497 5.497 0 0 0 5.458 4.723 5.502 5.502 0 0 0 4.575-2.45Zm-.557-1.477a4.27 4.27 0 0 0 .291-1.555v-.006c-.004-2.372-1.938-4.296-4.325-4.292a4.31 4.31 0 0 0-4.299 3.97c2.885.212 5.712.85 8.333 1.883Zm-8.265-.726c2.666.21 5.276.8 7.702 1.739a4.318 4.318 0 0 1-3.457 1.73 4.314 4.314 0 0 1-4.245-3.47Zm-5.908.156-2.848 2.167a.592.592 0 0 0-.154.767l2.981 5.165a.592.592 0 0 0 .738.252l3.771-1.55a9.84 9.84 0 0 0 1.612.93l.534 4.048c.039.294.29.514.586.514h5.986c.297 0 .548-.22.587-.515l.525-4.014a9.769 9.769 0 0 0 1.576-.9l3.813 1.588c.274.114.59.008.739-.248l.98-1.681.23.23c4.02 4.07 5.095 8.628 7.243 17.734l.008.033c.236 1.002.441 1.965.616 2.913a17.497 17.497 0 0 0 5.508 8.678c.822.672 1.035 1.162 1.05 1.666-.083 1.254-2.23 2.095-3.507 2.355a8.241 8.241 0 0 1-2.032.138c-.004.382-.01.765-.018 1.15-.031 1.608-.089 3.245-.157 4.966-.403 11.1-2.061 12.714-2.822 13.318-5.034 4-15.032-.727-15.721-1.053l-.02-.01a22.358 22.358 0 0 1-3.226-1.95.85.85 0 0 0-.524-.152.764.764 0 0 0-.76.849c.4 5.988.797 11.977 1.193 17.966a.77.77 0 0 1-.055.378v.001a.897.897 0 0 1-1.154.53l-24.962-9.35a1.23 1.23 0 0 1-.806-1.154V56.02a10.363 10.363 0 0 0-.967-4.427 17.093 17.093 0 0 1-.258-.527 24.227 24.227 0 0 1-1.85-5.706l.216-.262a13.5 13.5 0 0 0 2.822.106l3.474 4.891a.592.592 0 0 0 .757.182l7.527-3.937a.592.592 0 0 0 .28-.732l-2.112-5.653c.28-.359.542-.73.785-1.115l.005-.008c.252-.413.48-.84.684-1.28l6.037-.565a.592.592 0 0 0 .536-.568l.309-8.473a.592.592 0 0 0-.494-.605l-6.102-1.017a13.432 13.432 0 0 0-1.215-2.26l2.546-5.473a.592.592 0 0 0-.127-.677 26.585 26.585 0 0 1 5.637-1.384Zm-13.14-1.91 4.982 3.104c-.184.086-.366.174-.548.265a25.041 25.041 0 0 0-8.488 6.54c-3.242-1.096-6.933.116-8.837 3.13l.472.298-.472-.298c-2.229 3.528-1.163 8.187 2.378 10.405a.586.586 0 0 0 .133.062c.167.1.336.194.507.28-.21 2.17-.142 4.381.224 6.58l-2.884 3.51-6.335-3.947 2.407-5.235a.592.592 0 0 0-.054-.588 12.332 12.332 0 0 1-1.51-2.886.592.592 0 0 0-.458-.38l-5.678-.947.27-7.457 5.88-.55a.592.592 0 0 0 .477-.33 12.48 12.48 0 0 1 1.985-2.933.592.592 0 0 0 .117-.605l-1.968-5.275 6.606-3.455 3.575 5.05a.592.592 0 0 0 .504.25c.81-.029 1.622.021 2.423.15a.592.592 0 0 0 .55-.207l3.743-4.53Zm4.928 4.405A23.91 23.91 0 0 0 31.124 25c.17.09.339.187.505.29 3.528 2.211 4.6 6.847 2.398 10.374-1.875 2.985-5.5 4.213-8.718 3.19a24.083 24.083 0 0 0 .113 5.052.59.59 0 0 1 .303-.028 12.32 12.32 0 0 0 3.199.12c.21-.02.415.074.537.246l3.37 4.745 6.606-3.456-2.046-5.48a.592.592 0 0 1 .097-.583c.33-.4.634-.82.911-1.258.283-.466.534-.95.75-1.45a.592.592 0 0 1 .488-.355l5.864-.55.27-7.434-5.915-.986a.592.592 0 0 1-.454-.368A12.246 12.246 0 0 0 38 24.462a.592.592 0 0 1-.053-.59l2.468-5.306-.182-.113c-.413.18-.822.37-1.226.572ZM22.188 28.29c1.524-2.414 4.41-3.458 7.041-2.766a25.434 25.434 0 0 0-4.87 11.618 6.219 6.219 0 0 1-.136-.083.596.596 0 0 0-.122-.058 6.344 6.344 0 0 1-1.913-8.711Zm8.165-2.353a24.27 24.27 0 0 0-4.914 11.711c2.772.998 5.96-.026 7.584-2.613A6.345 6.345 0 0 0 31 26.294l.293-.468-.293.468a6.452 6.452 0 0 0-.647-.356Zm26.375 66.697c0-.002 0-.002 0 0Z" class="-path--primary" fill="#083176"/>
  <path fill-rule="evenodd" d="M66.583 14.23c.054.402.08.808.08 1.213a8.87 8.87 0 0 1-.064 1.103l3.558 2.732-3.004 5.158-4.12-1.717a9.176 9.176 0 0 1-2.04 1.166l-.569 4.346h-5.985l-.578-4.378a9.247 9.247 0 0 1-2.071-1.197l-4.08 1.678-2.98-5.166 3.589-2.733a8.95 8.95 0 0 1 .095-2.598l-3.44-2.638L47.98 6.04l4.34 1.811a9.142 9.142 0 0 1 1.582-.843l.577-4.417h5.986l.585 4.433c.673.283 1.31.646 1.897 1.079l4.23-1.764 2.99 5.166-3.583 2.724Zm-14.129 1.323c.004 2.701 2.206 4.887 4.918 4.883 2.709-.005 4.902-2.193 4.902-4.89v-.008c-.004-2.701-2.206-4.887-4.918-4.883-2.712.005-4.906 2.198-4.902 4.898ZM39.693 36.996a12.303 12.303 0 0 1-.791 1.528c-.29.46-.61.902-.957 1.322l2.23 5.97-7.527 3.937-3.669-5.166a12.906 12.906 0 0 1-3.352-.126l-3.954 4.811-7.219-4.496 2.625-5.71a12.921 12.921 0 0 1-1.58-3.023l-6.192-1.032.309-8.496 6.396-.599a13.073 13.073 0 0 1 2.08-3.07L15.94 17.08l7.527-3.937 3.874 5.472c.85-.03 1.7.023 2.538.158l4.072-4.93 7.22 4.497-2.69 5.78c.6.848 1.094 1.766 1.472 2.732l6.428 1.071-.309 8.473-6.38.599Zm-18.005-9.021a6.936 6.936 0 0 0 2.191 9.588h.032c3.269 2.03 7.572 1.04 9.614-2.213a6.937 6.937 0 0 0-2.21-9.558c-3.264-2.045-7.574-1.068-9.627 2.183Z" class="-path--secondary" fill="#FF9E18"/>
</svg>
