<svg id="icon-devices-mobile-phone" viewBox="0 0 96 96" xmlns="http://www.w3.org/2000/svg">
  <path d="M65.065 3C68.895 3 72 6.092 72 9.907V82.66c0 3.815-3.105 6.907-6.935 6.907H34.478c-3.83 0-6.935-3.092-6.935-6.907V9.907C27.543 6.092 30.648 3 34.478 3h30.587Z" class="-path--shadow" fill="#38C6F4"/>
  <path fill-rule="evenodd" d="M23.657 14.944c0-.057.001-.113.003-.17a.658.658 0 0 0 .179.025h43.618a.657.657 0 0 0 .18-.025l.001.17v71.1c0 .375-.03.744-.09 1.103a.661.661 0 0 0-.091-.007h-43.71a6.782 6.782 0 0 1-.09-1.096v-71.1Zm.445 73.511a6.802 6.802 0 0 0 6.356 4.36h30.38a6.801 6.801 0 0 0 6.356-4.36H24.101Zm-.263-74.971h-.023a6.796 6.796 0 0 1 6.642-5.31h30.38a6.796 6.796 0 0 1 6.642 5.31H23.839Zm6.619-6.626c-4.48 0-8.116 3.618-8.116 8.086v71.1c0 4.468 3.636 8.085 8.116 8.085h30.38c4.48 0 8.115-3.617 8.115-8.085v-71.1c0-4.468-3.636-8.086-8.115-8.086h-30.38ZM45.183 82.53a3.183 3.183 0 0 0 3.189-3.176 3.183 3.183 0 0 0-3.19-3.176 3.183 3.183 0 0 0-3.188 3.176 3.183 3.183 0 0 0 3.189 3.176Z" class="-path--primary" fill="#083176"/>
</svg>
