<svg id="icon-products-mpls-ip-vpn-service" viewBox="0 0 96 96" xmlns="http://www.w3.org/2000/svg">
  <path fill-rule="evenodd" d="M50.71 31.019c-.757 0-1.503.052-2.233.153l-2.71-11.952c-.08-.319-.318-.478-.637-.398-.32.08-.479.318-.399.637l2.697 11.894c-7.105 1.466-12.517 7.592-12.882 14.975l-21.146-.4c-.319 0-.558.159-.558.478-.08.319.16.558.478.558l21.209.402c.094 6.303 3.868 11.764 9.283 14.32L36.68 76.222c-.16.24 0 .558.24.718.079.08.159.08.239.08.159 0 .398-.08.478-.24l7.17-14.666a16.138 16.138 0 0 0 5.905 1.113c4.827 0 9.188-2.097 12.164-5.435l9.52 8.305c.08.08.16.16.319.16.16 0 .239-.08.319-.24.16-.159.16-.558-.08-.717l-9.436-8.275a15.73 15.73 0 0 0 3.377-9.902c0-.703-.046-1.396-.134-2.076l16.079-3.425c.239-.08.478-.319.398-.638-.08-.318-.398-.478-.637-.398l-16.013 3.41C65.117 36.628 58.56 31.02 50.71 31.02Zm4.146 11.64v1.674a2.826 2.826 0 0 1 1.116 1.913v4.624a2.519 2.519 0 0 1-2.55 2.551h-5.263c-1.435 0-2.55-1.196-2.55-2.55v-4.545c-.08-.877.398-1.595 1.036-2.073V42.5c.398-1.196 1.355-2.232 2.63-2.63 2.313-.798 4.784.398 5.581 2.63v.16Zm-3.269 8.29v-1.753c.32-.24.559-.638.638-1.196a1.43 1.43 0 0 0-1.435-1.435c-.797 0-1.435.638-1.435 1.435 0 .478.24.957.638 1.196v1.754h1.594Zm1.834-7.174c.24 0 .479.08.718.16v-1.276c-.638-1.834-2.71-2.79-4.545-2.153-.956.399-1.754 1.116-2.152 2.153v1.196c.12 0 .24-.02.359-.04.12-.02.239-.04.358-.04h5.262Z" class="-path--primary" fill="#083176"/>
  <path fill-rule="evenodd" d="M38.114 14.118c0 3.269 2.631 5.9 5.9 5.9 3.268 0 5.9-2.631 5.9-5.9 0-3.269-2.632-5.9-5.9-5.9-3.269 0-5.9 2.631-5.9 5.9Zm1.037 0a4.832 4.832 0 0 1 4.863-4.863c2.63 0 4.863 2.152 4.863 4.863a4.832 4.832 0 0 1-4.863 4.863 4.832 4.832 0 0 1-4.863-4.863ZM82.2 40.745c0 3.269 2.63 5.9 5.9 5.9 3.268 0 5.899-2.631 5.899-5.9 0-3.268-2.63-5.9-5.9-5.9-3.268 0-5.899 2.632-5.899 5.9Zm1.037 0a4.832 4.832 0 0 1 4.863-4.863 4.832 4.832 0 0 1 4.863 4.863 4.832 4.832 0 0 1-4.863 4.863 4.832 4.832 0 0 1-4.864-4.863ZM7.898 52.385c-3.268 0-5.899-2.631-5.899-5.9 0-3.268 2.63-5.9 5.9-5.9 3.268 0 5.899 2.632 5.899 5.9 0 3.269-2.63 5.9-5.9 5.9Zm0-10.763a4.832 4.832 0 0 0-4.863 4.863A4.832 4.832 0 0 0 7.9 51.348a4.832 4.832 0 0 0 4.864-4.863 4.832 4.832 0 0 0-4.864-4.863Zm69.439 34.36c-3.269 0-5.9-2.63-5.9-5.899 0-3.268 2.631-5.9 5.9-5.9 3.269 0 5.9 2.632 5.9 5.9 0 3.269-2.631 5.9-5.9 5.9Zm0-10.682a4.832 4.832 0 0 0-4.863 4.863 4.832 4.832 0 0 0 4.863 4.863 4.832 4.832 0 0 0 4.863-4.863c0-2.71-2.232-4.863-4.863-4.863ZM35.085 87.782c-3.269 0-5.9-2.631-5.9-5.9 0-3.268 2.631-5.9 5.9-5.9 3.268 0 5.9 2.632 5.9 5.9 0 3.269-2.632 5.9-5.9 5.9Zm0-10.763a4.832 4.832 0 0 0-4.863 4.863 4.832 4.832 0 0 0 4.863 4.863 4.832 4.832 0 0 0 4.863-4.863c0-2.71-2.232-4.863-4.863-4.863Z" class="-path--secondary" fill="#FF9E18"/>
</svg>
