<svg id="icon-products-retail" viewBox="0 0 96 96" xmlns="http://www.w3.org/2000/svg">
  <path fill-rule="evenodd" d="M49.826 9.931a.568.568 0 0 0-.496-.158L32.81 12.55a.569.569 0 0 0-.311.161L21.895 23.45a.568.568 0 0 0-.16.34l-1.652 15.59c-.019.171.041.34.163.462l42.91 42.946a.568.568 0 0 0 .806-.002l28.806-29.114a.568.568 0 0 0-.002-.801L49.826 9.931ZM37.958 36.238c0 3.736-3.013 6.765-6.73 6.765-3.715 0-6.728-3.029-6.728-6.765 0-3.736 3.013-6.765 6.729-6.765s6.729 3.029 6.729 6.765Z" class="-path--shadow" fill="#38C6F4"/>
  <path fill-rule="evenodd" d="M3.145 7.196a.67.67 0 0 0-.949.949l17.428 17.427-4.395 4.44a.66.66 0 0 0-.187.396l-1.645 15.591a.661.661 0 0 0 .19.537l42.925 42.931a.66.66 0 0 0 .937-.002l28.807-29.107a.66.66 0 0 0-.002-.932l-42.94-42.938a.66.66 0 0 0-.578-.185l-16.52 2.786a.66.66 0 0 0-.36.187l-5.289 5.343L3.145 7.196Zm17.413 19.31-4.226 4.271-1.588 15.047 42.233 42.24 27.878-28.168L42.62 17.663l-15.975 2.694-5.143 5.196 4.987 4.988a7.337 7.337 0 0 1 4.74-1.729c4.084 0 7.389 3.328 7.389 7.426 0 4.098-3.305 7.426-7.39 7.426-4.084 0-7.389-3.328-7.389-7.426a7.42 7.42 0 0 1 1.706-4.745l-4.987-4.986Zm5.926 5.926a6.1 6.1 0 0 0-1.323 3.806c0 3.375 2.72 6.105 6.068 6.105 3.348 0 6.068-2.73 6.068-6.105 0-3.375-2.72-6.104-6.068-6.104-1.438 0-2.76.503-3.801 1.346l4.376 4.375a.67.67 0 1 1-.95.949l-4.37-4.372Z" class="-path--primary" fill="#083176"/>
</svg>
