<svg id="icon-business-solutions" viewBox="0 0 96 96" xmlns="http://www.w3.org/2000/svg">
  <path d="m85.25 71.403 4.7-4.8c6.7-6.7-.7-14.2-7.5-7.3l-4.7 4.7-5.1-5.2 4.7-4.8c6.8-6.8-1.7-15.1-8.2-8.5l-4.7 4.8-7.2-7.2c2-3.8 3.1-8 3.2-12.4 0-7.1-2.8-13.9-7.8-18.9-5.1-5-11.9-7.8-19-7.8-7-.1-13.8 2.8-18.7 7.9-10.4 10.4-10.3 27.3 0 37.7 8.2 8.2 20.8 10.1 31 4.7l30.7 30.9c8.7 8.7 19.8-2 11.2-10.7l-2.6-3.1Zm-41.2-30.8-.3.3c-5.6 5.5-14.6 5.5-20.1-.2-5.5-5.6-5.4-14.7.2-20.2 2.6-2.6 6.2-4.1 9.9-4.1 3.8 0 7.4 1.5 10.1 4.3 5.4 5.4 5.6 14.3.2 19.9Z" class="-path--shadow" fill="#38C6F4"/>
  <path fill-rule="evenodd" d="M72.75 89.302c2.3 2.2 4.9 3.4 7.5 3.4.7 0 1.4-.1 2.1-.3 2.8-.8 5.1-3 5.8-5.7.5-1.8.7-5.4-3.1-9.3l-2.4-2.5 4.5-4.2c2.4-2.3 3.4-5.1 2.7-7.5-.5-1.8-1.9-3.1-3.6-3.6-2.4-.7-5.2.4-7.6 2.8l-4.3 4.3-4.6-4.7c.488-.488 1.286-1.31 2.103-2.15.856-.883 1.734-1.786 2.297-2.35 2.4-2.3 3.4-5.1 2.7-7.5-.5-1.8-1.9-3.1-3.6-3.6-2.4-.7-5.2.4-7.6 2.8l-4.3 4.2-1.6-1.6c0-.1 0-.1-.1-.2l-5.1-5.1c1.9-3.7 3-8 3-12.2.1-7.2-2.9-14.2-8-19.3-5.2-5.2-12-8.1-19.3-8.1-7.3 0-14.3 2.9-19.3 8.1-10.6 10.6-10.6 27.9 0 38.6 8.3 8.4 20.9 10.4 31.4 5.1l30.4 30.6ZM42.807 57.324c-.118-.068-.21-.121-.357-.121h-.3c-10.1 5.3-22.3 3.5-30.3-4.6-10-10.1-10.1-26.6 0-36.7 4.7-4.9 11.3-7.7 18.1-7.7h.2c7 0 13.5 2.7 18.5 7.5 4.9 4.8 7.6 11.5 7.6 18.4-.1 4.2-1.1 8.4-3.1 12.1-.2.3-.1.6.1.8l1.1 1.1c0 .1 0 .1.1.2l6.4 6.5c.054.026.1.053.143.078.118.068.21.121.357.121.1 0 .3 0 .3-.1l4.7-4.7c2.1-2.1 4.4-3 6.3-2.5 1.3.3 2.2 1.3 2.6 2.6.6 2-.3 4.3-2.3 6.3-1.4 1.3-4.9 4.9-4.9 4.9-.2.2-.2.6 0 .9l3 3.1 2.6 2.6c.2.2.7.2.9 0l4.7-4.8c2.1-2.1 4.4-3 6.3-2.5 1.3.3 2.2 1.3 2.6 2.6.6 2-.3 4.3-2.3 6.3l-4.7 4.8c-.2.2-.2.6 0 .9l2.8 3c2.5 2.5 3.5 5.3 2.8 8-.6 2.3-2.4 4.1-4.8 4.7-2.8.7-5.8-.3-8.3-2.8l-30.7-30.9c-.054-.026-.1-.053-.143-.078ZM30.15 49.203h.1c3.9 0 7.6-1.6 10.6-4.3l.3-.3c5.6-5.9 5.5-15.2-.3-20.9-2.8-2.9-6.6-4.5-10.5-4.5h-.1c-3.9 0-7.6 1.5-10.4 4.3-5.9 5.8-6 15.3-.2 21.2 2.8 2.9 6.5 4.5 10.5 4.5Zm-9.4-24.8c2.5-2.5 5.9-3.9 9.5-3.9 3.6 0 7 1.5 9.5 4.1 5.3 5.1 5.4 13.7.3 19l-.3.3c-2.5 2.5-5.9 3.9-9.5 3.9h-.1c-3.7-.1-7.1-1.5-9.6-4.1-5.2-5.4-5.1-14 .2-19.3Z" class="-path--primary" fill="#083176"/>
</svg>
