<svg id="icon-products-router" viewBox="0 0 96 96" xmlns="http://www.w3.org/2000/svg">
  <path fill-rule="evenodd" d="M50.553 88.542C74.55 88.542 94 69.169 94 45.27S74.55 2 50.553 2C26.558 2 7.106 21.373 7.106 45.27c0 23.899 19.452 43.272 43.447 43.272Zm-1.318-34.439h15.267V61.6l12.126-11.07-12.126-11.078v7.537H49.235V31.733h7.51l-2.33-2.534-8.777-9.542-11.115 12.076h7.518v15.255H26.766V39.46L14.647 50.529l12.117 11.07v-7.496h15.276v15.222h-7.534L45.62 81.393l11.115-12.068h-7.5V54.103Z" class="-path--shadow" fill="#38C6F4"/>
  <path fill-rule="evenodd" d="M2.658 50.356c0-23.532 19.155-42.614 42.79-42.614 23.634 0 42.79 19.082 42.79 42.614 0 23.532-19.156 42.613-42.79 42.613-23.635 0-42.79-19.081-42.79-42.613Zm42.79-43.929c-24.356 0-44.105 19.665-44.105 43.929 0 24.263 19.749 43.928 44.105 43.928 24.355 0 44.105-19.665 44.105-43.928 0-24.264-19.75-43.929-44.105-43.929Zm.69 12.008 12.604 13.706h-8.35v13.94h13.952V37.71l13.76 12.57-13.76 12.56v-8.33H50.393v13.907h8.343L46.12 82.114 33.507 68.417h8.376V54.511h-13.96v8.329l-13.75-12.561 13.75-12.56v8.361h13.96V32.14h-8.359l12.614-13.705Zm-9.616 12.39h6.676v16.57h-16.59v-6.694l-10.485 9.578 10.485 9.578v-6.661h16.59v16.537h-6.692l9.615 10.44 9.615-10.44h-6.659V53.196H65.66v6.662l10.493-9.58-10.493-9.585v6.702H49.077v-16.57h6.67l-1.316-1.43-8.293-9.017-9.616 10.448Z" class="-path--primary" fill="#083176"/>
</svg>
