<svg id="icon-business-reliability" viewBox="0 0 96 96" xmlns="http://www.w3.org/2000/svg">
  <path class="-path--shadow" fill="#38C6F4" fill-rule="evenodd" d="M47.08 16.85a.3.3 0 0 1 .3-.26l13.28.08a.3.3 0 0 1 .3.27l1.2 10.26a21 21 0 0 1 3.18 1.94l9.14-3.76a.3.3 0 0 1 .38.13l6.62 11.56a.3.3 0 0 1-.08.4l-7.84 5.98c.17 1.53.17 3.08 0 4.61l7.93 6.15c.12.1.15.26.07.4l-6.7 11.53a.3.3 0 0 1-.38.13l-9.07-3.8a20.78 20.78 0 0 1-4.28 2.49L59.8 74.7a.3.3 0 0 1-.3.26l-13.3-.07a.3.3 0 0 1-.3-.26l-1.21-9.72a20.53 20.53 0 0 1-4.3-2.51l-8.87 3.66a.3.3 0 0 1-.38-.13l-6.62-11.58a.3.3 0 0 1 .08-.39l7.7-5.9c-.17-1.68-.15-3.4.08-5.08l-7.62-5.89a.3.3 0 0 1-.07-.39l6.7-11.55a.3.3 0 0 1 .37-.12l9.13 3.84a20.45 20.45 0 0 1 4.88-2.6l1.3-9.43Zm1.56 40.92a9.7 9.7 0 0 0 9.68-9.71 9.7 9.7 0 0 0-9.68-9.71 9.7 9.7 0 0 0-9.67 9.71 9.7 9.7 0 0 0 9.67 9.71Z" clip-rule="evenodd"/>
  <path class="-path--primary" fill="#083176" fill-rule="evenodd" d="M54.64 6.6c-.05.43-.15.85-.29 1.25a39.66 39.66 0 0 1 25.6 14.94c.28-.32.6-.62.94-.88A40.94 40.94 0 0 0 54.64 6.6ZM42.38 7.91c-.15-.4-.25-.82-.31-1.25a41.8 41.8 0 0 0-26.08 15.28c.33.28.63.6.9.94A40.52 40.52 0 0 1 42.38 7.92ZM9.42 63.1a42.17 42.17 0 0 1 .3-30.3c.4.14.83.24 1.26.3a40.87 40.87 0 0 0-.32 29.65c-.43.08-.85.2-1.24.35Zm7.1 10.13c-.29.32-.6.62-.95.88A40.94 40.94 0 0 0 41.82 89.4c.05-.43.15-.85.3-1.26a39.66 39.66 0 0 1-25.6-14.93Zm63.94.83A41.8 41.8 0 0 1 54.4 89.33a6.34 6.34 0 0 0-.3-1.25c9.8-1.56 19-6.74 25.48-14.97.27.34.56.66.9.94Zm5.01-11.14c.44.06.86.17 1.26.31a42.17 42.17 0 0 0 .31-30.3c-.4.16-.8.27-1.24.35a40.87 40.87 0 0 1-.33 29.64Zm-36.5-49.4a.64.64 0 1 0-1.28-.01l-.01 4.68-5.15-.03c-.32 0-.6.24-.64.56l-1.26 9.35a21.3 21.3 0 0 0-4.7 2.5l-9.06-3.82a.64.64 0 0 0-.8.26l-3.19 5.46-4.04-2.35a.64.64 0 0 0-.65 1.1l4.04 2.36-2.99 5.12c-.16.28-.1.63.16.83l7.57 5.86c-.2 1.61-.23 3.24-.08 4.86l-7.6 5.82a.64.64 0 0 0-.16.82l3.06 5.38-4.09 2.35a.64.64 0 0 0 .64 1.11l4.09-2.35 3 5.25c.16.28.5.4.8.28l8.8-3.65c1.27.95 2.64 1.76 4.09 2.4l1.2 9.64c.04.32.31.56.63.56l6.16.04-.02 4.61a.64.64 0 0 0 1.28.01l.02-4.61 6.03.03c.33 0 .6-.23.64-.55l1.32-9.7c.68-.3 1.35-.63 2-1h.01c.71-.41 1.4-.87 2.06-1.36l9 3.83c.3.13.64.01.8-.27l3.08-5.26 3.89 2.27a.64.64 0 0 0 .64-1.1l-3.89-2.28 3.1-5.31a.64.64 0 0 0-.15-.83l-7.93-6.14c.14-1.45.14-2.91 0-4.36l7.78-5.95c.25-.2.33-.55.17-.83l-3.06-5.35 4.08-2.35a.64.64 0 0 0-.64-1.11l-4.07 2.34-3.01-5.27a.64.64 0 0 0-.8-.27l-9.05 3.74c-.92-.68-1.9-1.28-2.91-1.8L56.63 18.8a.64.64 0 0 0-.63-.57l-7.04-.04.02-4.69Zm-5.89 5.93 5.08.03a.64.64 0 0 0 .3 0l6.97.04 1.22 10c.02.22.16.4.35.5 1.17.57 2.27 1.26 3.3 2.05.19.14.43.17.64.08l8.87-3.66 6.14 10.76-7.63 5.83a.64.64 0 0 0-.25.58c.2 1.6.2 3.2 0 4.8-.02.22.07.44.25.58l7.77 6-6.26 10.72L61.01 64a.64.64 0 0 0-.65.08c-.7.54-1.44 1.04-2.2 1.49-.72.4-1.46.75-2.22 1.07a.64.64 0 0 0-.38.5l-1.3 9.5-12.34-.07-1.17-9.44a.64.64 0 0 0-.39-.51 19.73 19.73 0 0 1-4.44-2.6.64.64 0 0 0-.64-.1l-8.62 3.57-6.14-10.75 7.44-5.7a.64.64 0 0 0 .25-.59c-.2-1.74-.18-3.51.08-5.25a.64.64 0 0 0-.24-.6l-7.42-5.75 2.95-5.04a.64.64 0 0 0 .17-.3l3.14-5.37 8.87 3.74c.2.08.44.06.62-.08a20.01 20.01 0 0 1 5.05-2.67.64.64 0 0 0 .42-.52l1.23-9.17Zm-3.47 28.62a9.05 9.05 0 0 1 9.03-9.07 9.05 9.05 0 0 1 9.04 9.07 9.05 9.05 0 0 1-9.04 9.07 9.05 9.05 0 0 1-9.03-9.07Zm9.03-10.36a10.38 10.38 0 0 0-8.95 15.51v.02h.01a10.3 10.3 0 0 0 19.26-5.17c0-5.72-4.62-10.36-10.32-10.36Z" clip-rule="evenodd"/>
  <path class="-path--secondary" fill="#FF9E18" fill-rule="evenodd" d="M48.35 11.55a5.76 5.76 0 0 0 5.75-5.78 5.76 5.76 0 1 0-5.75 5.78Zm36.36 21.22a5.76 5.76 0 1 0-.02-11.53 5.76 5.76 0 0 0 .02 11.53Zm-67.09-5.98a5.76 5.76 0 1 1-11.52.02 5.76 5.76 0 0 1 11.52-.02Zm-5.87 48a5.76 5.76 0 1 0-.02-11.57 5.76 5.76 0 0 0 .02 11.57Zm42.11 15.44a5.76 5.76 0 1 1-5.75-5.78 5.76 5.76 0 0 1 5.75 5.78ZM84.6 74.99a5.76 5.76 0 1 0-.03-11.52 5.76 5.76 0 0 0 .03 11.52Z" clip-rule="evenodd"/>
</svg>
