<svg id="icon-business-lower-costs-dollar" viewBox="0 0 96 96" xmlns="http://www.w3.org/2000/svg">
  <path fill-rule="evenodd" d="M28.913 32.118c0-.677-.551-1.226-1.23-1.226H14.788c-.68 0-1.231.549-1.231 1.226v56.524c0 .677.55 1.226 1.23 1.226h12.894c.68 0 1.23-.55 1.23-1.226V32.118ZM50.75 47.627c.68 0 1.23.548 1.23 1.225v39.79c0 .677-.55 1.226-1.23 1.226H37.857c-.68 0-1.23-.549-1.23-1.226v-39.79c0-.676.55-1.225 1.23-1.225h12.894ZM73.828 64.36c.68 0 1.23.549 1.23 1.226v23.055c0 .677-.55 1.226-1.23 1.226H60.934c-.68 0-1.23-.549-1.23-1.226V65.587c0-.677.55-1.226 1.23-1.226h12.894Z" class="-path--shadow" fill="#38C6F4"/>
  <path fill-rule="evenodd" d="M11.315 15.441c0-6.142 5-11.126 11.175-11.126 6.174 0 11.174 4.984 11.174 11.126 0 6.143-5 11.127-11.174 11.127-6.174 0-11.175-4.984-11.175-11.127ZM22.49 3C15.594 3 10 8.568 10 15.441c0 6.874 5.594 12.442 12.49 12.442 6.895 0 12.49-5.568 12.49-12.442C34.98 8.568 29.384 3 22.49 3Zm-.853 17.803v1.2l.342-.008v.35l1.553-.032V20.71a3.09 3.09 0 0 0 2.871-2.98c0-.864-.28-1.529-.916-2.068-.433-.517-1.125-.928-2.129-1.279-.691-.26-1.177-.496-1.488-.724a.586.586 0 0 1-.1-.32c0-.448.338-.897 1.384-.897.806.007 1.6.193 2.324.545l.54-1.794a5.894 5.894 0 0 0-.397-.163l.054-.18a5.905 5.905 0 0 0-2.006-.513V9.231h-.343v-.342h-1.609v1.522a2.977 2.977 0 0 0-2.726 2.868c0 .822.328 1.433.893 1.913.507.604 1.334 1.024 2.353 1.369.545.183.95.358 1.23.556.095.149.14.314.14.503 0 .641-.635.994-1.552.994a5.783 5.783 0 0 1-2.678-.705l-.483 1.874a6.5 6.5 0 0 0 .385.179l-.042.164c.75.378 1.565.608 2.4.677ZM11.387 34.54a.57.57 0 0 1 .574-.568h12.893a.57.57 0 0 1 .573.568v56.524a.57.57 0 0 1-.573.568H11.961a.57.57 0 0 1-.573-.568V34.54Zm.574-1.883c-1.04 0-1.889.84-1.889 1.883v56.524c0 1.043.849 1.884 1.889 1.884h12.893c1.04 0 1.889-.84 1.889-1.884V34.54a1.886 1.886 0 0 0-1.889-1.883H11.961Zm23.068 18.05a.57.57 0 0 0-.573.568v39.79a.57.57 0 0 0 .573.567h12.894a.57.57 0 0 0 .573-.568v-39.79a.57.57 0 0 0-.573-.567H35.029Zm-1.888.568c0-1.043.848-1.883 1.888-1.883h12.894c1.04 0 1.888.84 1.888 1.883v39.79a1.885 1.885 0 0 1-1.888 1.883H35.029c-1.04 0-1.888-.84-1.888-1.884v-39.79ZM58.098 67.44a.57.57 0 0 0-.573.568v23.055a.57.57 0 0 0 .573.568h12.894a.57.57 0 0 0 .573-.568V68.008a.57.57 0 0 0-.573-.568H58.098Zm-1.888.568c0-1.042.847-1.883 1.888-1.883h12.894c1.04 0 1.888.84 1.888 1.883v23.055a1.885 1.885 0 0 1-1.888 1.883H58.098c-1.04 0-1.888-.84-1.888-1.883V68.008Z" class="-path--primary" fill="#083176"/>
  <path fill-rule="evenodd" d="M39.174 27.847a.658.658 0 0 0-.8 1.044l44.912 34.425-4.282.44a.658.658 0 1 0 .135 1.308l5.918-.608a.658.658 0 0 0 .595-.736l-.876-7.074a.658.658 0 1 0-1.306.162l.684 5.516-44.98-34.477Z" class="-path--secondary" fill="#FF9E18"/>
</svg>
