<svg id="icon-products-analytics" viewBox="0 0 96 96" xmlns="http://www.w3.org/2000/svg">
  <path fill-rule="evenodd" d="M49.167 12.632a.657.657 0 1 0-.11 1.31l6.892.582L40.036 33.29l-1.587-6.263-.287-1.134-.82.835-15.7 16a.658.658 0 1 0 .939.921l14.88-15.165 1.613 6.366.313 1.237.826-.973 16.672-19.659.572 6.293a.657.657 0 1 0 1.31-.119l-.7-7.7-.05-.55-.55-.046-8.3-.7Z" class="-path--secondary" fill="#FF9E18"/>
  <path fill-rule="evenodd" d="M63.911 46.188c3.5-4.5 5.6-10.2 5.6-16.3 0-1.7-.2-3.4-.5-5.1h5c1 0 1.7.8 1.7 1.7v32.2l-11.8-12.5Zm-5.2 6.3 17 18.1h.1v17.9c0 1-.8 1.7-1.7 1.7h-13.7c-1 0-1.7-.8-1.7-1.7v-36Zm-25.6 2.2c3 1.2 6.3 1.8 9.7 1.8 2.5 0 5-.4 7.3-1v33.1c0 .9-.7 1.7-1.7 1.7h-13.7c-.9 0-1.7-.7-1.7-1.7v-33.9h.1Zm-10.2 7.2c.9 0 1.7.7 1.7 1.7v25c0 .9-.7 1.7-1.7 1.7h-13.7c-.9 0-1.7-.7-1.7-1.7v-25c0-.9.7-1.7 1.7-1.7h13.7Z" class="-path--shadow" fill="#38C6F4"/>
  <path fill-rule="evenodd" d="M15.727 29.472c0-14.604 11.85-26.444 26.468-26.444s26.467 11.84 26.467 26.444c0 14.605-11.849 26.445-26.468 26.445-14.618 0-26.467-11.84-26.467-26.445Zm26.468-27.76c-15.344 0-27.784 12.428-27.784 27.76 0 10.675 6.03 19.942 14.873 24.587-.137.34-.172.767-.172 1.229v37c0 1.1 1 2 2.3 2h13.7c1.3 0 2.3-.9 2.3-2V56.742a27.597 27.597 0 0 0 7.3-2.48v37.325c0 1.3 1 2.3 2.3 2.3h13.6c1.3 0 2.3-1 2.3-2.3V67.894L84.404 80.07a4.738 4.738 0 1 0 6.891-6.506L73.011 54.196V29.488c0-1.3-1-2.3-2.3-2.3h-.826C68.722 12.925 56.768 1.713 42.195 1.713ZM30.411 55.288c0-.212.09-.407.232-.56a27.7 27.7 0 0 0 11.55 2.505c1.33 0 2.638-.093 3.918-.274v35.33c0 .5-.5.9-1 .9h-13.7c-.6 0-1-.4-1-.9v-37Zm25.5 36.4V53.62a27.83 27.83 0 0 0 2.205-1.395l13.494 14.293v25.17c0 .5-.4 1-1 1h-13.7c-.5 0-1-.4-1-1Zm15.8-62.2V52.82l-6.865-7.27a27.616 27.616 0 0 0 5.114-17.061h.75c.5 0 1 .4 1 1Zm4.702 30.236L64.336 46.929l-4.971 4.693 12.009 12.72 5.04-4.62ZM5.81 65.688c-.6 0-1 .5-1 1v25c0 .6.5 1 1 1h13.7c.6 0 1-.5 1-1v-25c0-.6-.5-1-1-1h-13.7Zm-2.4 1c0-1.3 1-2.3 2.3-2.3h13.7c1.3 0 2.3 1 2.3 2.3v25c0 1.3-1 2.3-2.3 2.3h-13.6c-1.3 0-2.3-1-2.3-2.3v-25h-.1Z" class="-path--primary" fill="#083176"/>
</svg>
