<svg id="icon-places-globe" viewBox="0 0 96 96" xmlns="http://www.w3.org/2000/svg">
  <path d="M93 45.316c0 23.37-19.022 42.315-42.488 42.315-23.465 0-42.488-18.945-42.488-42.316C8.024 21.945 27.047 3 50.512 3 73.978 3 93 21.945 93 45.316Z" class="-path--shadow" fill="#38C6F4"/>
  <path fill-rule="evenodd" d="M45.766 7.683c-23.258 0-42.109 18.777-42.109 41.935 0 23.157 18.85 41.934 42.11 41.934.98 0 1.955-.033 2.92-.099.017-.025.082-.056.163-.084.017.053.043.065.063-.022.152-.05.322-.09.322-.09-.139-.162-.233-.218-.295-.215a4.791 4.791 0 0 0 0-.12l-.457.14c-.098-.155.458-1.361.818-1.264-.886-.224-.443-.404.021-.593.242-.099.49-.2.558-.31a2.54 2.54 0 0 1-.097.455c.099.033.95-1.41.819-1.54.008.016-1.187.766-1.04.595 1.43-1.726 2.336-4.713 3.053-7.077l.22-.721c.437-1.132.694-2.326.761-3.537-.204-1.598-1.283-2.322-2.417-3.083-.682-.457-1.384-.928-1.927-1.61-2.897-3.626-4.402-5.786-3.069-9.575.288-.815.74-1.31 1.167-1.78.568-.623 1.094-1.201 1.14-2.425.058-1.295-2.347-4.017-2.347-2.444.01.9-.015.883-.458.583a6.085 6.085 0 0 0-1.342-.713 13.58 13.58 0 0 1-2.103-1.035c-.404-.366-.631-.825-.863-1.294-.296-.596-.599-1.208-1.28-1.664a35.545 35.545 0 0 0-5.368-2.323c-.503-.204-1.047-.366-1.602-.532-1.24-.371-2.535-.759-3.553-1.66a7.781 7.781 0 0 1-1.636-1.499c-.204-.377-.036-.517.133-.656.155-.129.311-.258.178-.574-.278-.66-3.65-8.507-3.78-8.507-.855.267-.008 2.538.69 4.408.43 1.153.803 2.154.684 2.436.004 0-.094-.166-.25-.432-.566-.958-1.893-3.208-1.983-3.642.087-1.13.052-2.267-.107-3.39a24.245 24.245 0 0 1-1.227-2.542 7.884 7.884 0 0 1 .728-4.808 21.078 21.078 0 0 1 2.741-4.025c-.425-.18-1.006-1.255-.613-1.703.04-.04 2.012-7.293.744-7.073 0 0-1.522.847-1.522.334.258-.122.485-.3.663-.522a7.562 7.562 0 0 0-.543.176c-1.25.422-4.219 1.425-4.219.965a8.279 8.279 0 0 0 3.33-1.035c.017-.22.017-.358-.474-.44.294-.407 2.528-2.713 3.1-2.143-.064.243.75.574 1.05-.139-.08.16-.422-.158-.51-.3-.09-.147 1.326-.856 1.637-.547a1.09 1.09 0 0 0 .146-.092c.608-.405 2.946-1.965 3.601-.78-.04.457-.049 1.712.328 2.086a17.38 17.38 0 0 1 2.16-.057c-.123.033.212.057.425-.073.026.053.043.117.06.178.043.153.082.294.235.23-.044.068.201.199.503.36.385.206.861.462.953.699a.761.761 0 0 1-.565.342c.24.27.585.249.887.23.4-.024.725-.043.627.626.03.001.293-.158.697-.402 1.505-.908 4.955-2.991 5.505-2.322-.237-.26-1.22 2.074.155 2.944.313.157.217-.208.08-.726-.245-.933-.621-2.363 1.008-2.159-.638-.081-.351 1.304-.106 1.06.5-.498.586-.46.745-.392.137.06.329.142.892-.081-.058.024-.729-.505-.557-.505 1.137 0 2.534 1.168 3.285 1.796.2.167.355.296.446.355 2.643 1.732 1.83 1.54 1.095 1.367-.33-.077-.644-.151-.622-.046.005-.099 2.192 1.536 1.564 1.849-.092.043-.541-.193-.938-.402-.27-.142-.515-.271-.608-.291.336.32.713.593 1.12.815-.41.309-1.442-.227-2.416-.734-.82-.426-1.6-.83-1.934-.694a1.486 1.486 0 0 1 1.16-.235c.32-.13-.098-1.287-.098-1.14-.394.093-.83-.402-1.178-.797a3.663 3.663 0 0 0-.359-.375c.257.218-2.423 2.117-2.366 2.076l-.452.298c-2.889 1.9-4.685 3.08-.84 4.925.844.415 1.663.877 2.454 1.386.2.123.347.384.492.643.196.347.39.693.713.709-.334-.04.408-1.564.841-2.455.165-.338.286-.585.286-.625.022-.29-.17-.657-.371-1.04-.396-.758-.825-1.577.305-1.983.504-.178.98.096 1.431.357.458.263.89.512 1.302.262-1.792 1.1 3.706 1.728 1.792 0 .419.378.801.78 1.181 1.178.554.583 1.102 1.158 1.748 1.642.118.088.441.2.795.324.523.182 1.113.387 1.201.572.684 1.464-.303 1.692-1.42 1.95-.407.095-.831.193-1.198.356l-.087.034c-.535.206-3.322 1.28-2.777 1.824.059.063.32-.114.66-.344.716-.483 1.78-1.203 2.04-.43.115.326-.883.627-.883.627s.957.05.957-.065c.311 1.579.833 1.203 1.444.762.241-.174.496-.358.757-.436 1.293.082-2.095 2.681-2.315 2.526-.554-.387-.055-.736.294-.98.187-.13.331-.231.245-.291-1.18-.793-2.45 1.538-2.878 2.323-.062.114-.107.196-.13.23-.021-.015-1.938 1.552-2.71 2.547.844.477-1.142 2.724-1.565 3.203l-.072.082c-.343.4-.636.659-.881.876-.574.507-.885.782-.96 2.09-.009.129.112.443.263.835.383.994.957 2.484.065 2.677-.835.18-1.017-.787-1.166-1.574-.073-.386-.137-.729-.266-.87a9.928 9.928 0 0 1-.474-.568c-.245-.313-.27-.344-1.007-.72-1.04-.53-2.848-.913-2.848.546a8.214 8.214 0 0 0-4.819 0 6.021 6.021 0 0 0-1.636 5.956c.728 1.997 2.405 2.274 4.418 1.581.107-.037.266-.296.47-.628.594-.965 1.566-2.546 2.73-1.091.302.376-.143 1.112-.615 1.895-.512.846-1.055 1.747-.72 2.301.222.372.8.366 1.462.359.905-.01 1.964-.022 2.474.929.224.421.077.9-.077 1.403-.24.78-.497 1.615.593 2.378 1.485.366 3.004.579 4.532.636.216-.088.593-.528 1.044-1.054.936-1.09 2.19-2.552 2.974-2.002.372.26.145.416-.083.574-.172.12-.346.239-.261.404.466.929 1.432-.815 1.284-.815.094 0 .336.199.623.434.39.32.86.709 1.153.755.635.108 1.261-.05 1.868-.205.59-.15 1.163-.294 1.707-.186.71.142 1.248.607 1.777 1.064.293.253.583.505.899.696.955.553 1.994.946 3.076 1.166 1.846.647 2.506 1.597 3.196 2.59.448.644.908 1.306 1.713 1.916 1.043.794 2.526 1.063 3.986 1.328 1.027.186 2.043.37 2.887.733 1.043.478-1.275 5.254-2.614 8.012-.374.77-.671 1.383-.798 1.701-.815 2.115-2.492 3.403-4.18 4.7-1.005.773-2.014 1.549-2.848 2.504-1.36 1.548-2.546 2.252-3.989 3.108-.562.334-1.163.69-1.828 1.13.007-.007-.064.04-.195.125-.978.64-5.32 3.479-5.644 3.4.095.11.196.17.3.176-.78.413-1.512.91-2.185 1.48-.114.212.86.367.86.367-.614.36-1.181.792-1.689 1.287 20.239-3.055 35.747-20.455 35.747-41.46 0-23.157-18.851-41.934-42.11-41.934Zm9.77 80.062c-.132.064-.263.13-.392.198.124.008.254-.057.391-.198ZM51.893 30.86c.009-.008.012-.013.01-.014a.125.125 0 0 1-.01.014ZM47.051 17.12c.035-.03.07-.057.108-.083a.246.246 0 0 0-.108.083Zm-3.093-4.229Zm5.932 75.904a2.712 2.712 0 0 1-.01.099.101.101 0 0 0 .01-.099Zm-.95 2.246c-.004.153-.014.25-.027.305a2.234 2.234 0 0 0-.063.022.237.237 0 0 1-.004-.014c-.027-.103-.022-.309.094-.313Zm.222-56.85c-.305 0-.343-.164-.216-.42.066.143.137.284.216.42ZM2.342 49.619c0-23.89 19.444-43.25 43.424-43.25s43.425 19.36 43.425 43.25c0 23.889-19.445 43.25-43.425 43.25-23.98 0-43.424-19.361-43.424-43.25Z" class="-path--primary" fill="#083176"/>
</svg>
