<svg id="icon-products-ethernet" viewBox="0 0 96 96" xmlns="http://www.w3.org/2000/svg">
  <path d="M10.719 5H91v80.716H10.72V5Z" class="-path--shadow" fill="#38C6F4"/>
  <path fill-rule="evenodd" d="M83.724 12.328H4.339v79.807h79.385V12.327ZM5.66 90.813V13.65h76.741v77.164H5.661Zm38.032-34.706c1.982 0 3.589-1.564 3.589-3.495 0-1.93-1.607-3.495-3.59-3.495-1.982 0-3.589 1.565-3.589 3.495 0 1.93 1.607 3.495 3.59 3.495Zm-7.179-3.495c0 1.93-1.607 3.495-3.59 3.495-1.982 0-3.589-1.564-3.589-3.495 0-1.93 1.607-3.495 3.59-3.495 1.982 0 3.589 1.565 3.589 3.495Zm17.939 3.495c1.982 0 3.59-1.564 3.59-3.495 0-1.93-1.608-3.495-3.59-3.495-1.983 0-3.59 1.565-3.59 3.495 0 1.93 1.608 3.495 3.59 3.495ZM29.88 40.15a.66.66 0 0 1-.012.934L18.07 52.58 29.87 64.068a.66.66 0 0 1-.922.947L16.662 53.053a.66.66 0 0 1 0-.947l12.285-11.97a.66.66 0 0 1 .934.013Zm28.509-.013a.66.66 0 0 0-.922.947L69.29 52.58 57.469 64.068a.66.66 0 1 0 .92.947L70.7 53.054a.661.661 0 0 0 0-.948l-12.31-11.97Z" class="-path--primary" fill="#083176"/>
</svg>
