<svg id="icon-products-conferencing" viewBox="0 0 96 96" xmlns="http://www.w3.org/2000/svg">
  <path fill-rule="evenodd" d="M94.85 12.5c0-2.1-1.8-3.8-3.9-3.8h-80.9c-2.1 0-3.8 1.7-3.9 3.8v56.2c0 2.1 1.8 3.8 3.9 3.8h40.2c-2.7 0-4.8-2.1-4.8-4.8v-5.8c0-1.7.9-3.4 2.5-4.2l5.3-2.7 2-1.1c1.2-.6 2.7-.8 4-.3l2.8 1c1.1.4 2.2.4 3.3 0l2.7-1c1.3-.5 2.8-.4 4 .3l2 1.1 5.3 2.8c1.5.8 2.5 2.4 2.5 4.2v5.7c0 2.6-2.1 4.8-4.8 4.8h13.9c2.2 0 3.9-1.7 3.9-3.8V12.5Zm-81.5 17.8c0 3.5 2.3 6.4 5.1 6.4 2.9 0 5.1-2.9 5.1-6.4 0-3.5-2.3-6.4-5.1-6.4s-5.1 2.9-5.1 6.4Zm12.3 18h-14.6c-1.4 0-2.6-1.2-2.8-2.6v-3.1c0-.9.5-1.8 1.4-2.3l2.9-1.5 1.1-.6c.6-.4 1.4-.4 2.1-.2l1.6.5c.6.2 1.2.2 1.8 0l1.5-.5c.7-.2 1.5-.2 2.2.2l1.1.6 2.9 1.5c.9.4 1.4 1.3 1.4 2.3v3.1c0 1.4-1.2 2.6-2.6 2.6Zm28.5-8.8c0 6.4 4.3 11.7 9.5 11.7s9.5-5.2 9.5-11.7c0-6.5-4.3-11.8-9.5-11.8s-9.5 5.4-9.5 11.8Zm-7.728-21.156c.816 0 1.476-.658 1.476-1.47 0-.812-.66-1.47-1.476-1.47-.815 0-1.476.658-1.476 1.47 0 .812.661 1.47 1.476 1.47Z" class="-path--shadow" fill="#38C6F4"/>
  <path fill-rule="evenodd" d="M12.85 30.4c0 3.7 2.5 6.8 5.6 6.8 3.1 0 5.6-3.1 5.6-6.8 0-3.7-2.5-6.8-5.6-6.8-3.1 0-5.6 3-5.6 6.8Zm.9-.1c0-3.2 2.1-5.9 4.7-5.9s4.7 2.7 4.7 5.9-2.1 5.9-4.7 5.9-4.7-2.6-4.7-5.9Zm-2.6 18.5h14.6c1.7-.1 3-1.4 3.1-3.1v-3c0-1.1-.6-2.2-1.6-2.7l-2.9-1.5-1.1-.6c-.8-.4-1.8-.5-2.6-.2l-1.5.5c-.5.2-1 .2-1.5 0l-1.6-.5c-.8-.3-1.7-.2-2.5.2L9.65 40c-1 .5-1.6 1.6-1.6 2.7v3.1c.1 1.6 1.4 3 3.1 3Zm2.9-10.2c.4-.2.7-.3 1.1-.3.3 0 .5 0 .7.1l1.5.5c.7.2 1.4.2 2.1 0l1.5-.5c.6-.3 1.2-.2 1.8.1l4 2.2c.8.4 1.2 1.1 1.2 1.9v3.1c0 1.2-1 2.2-2.2 2.2h-14.6c-1.2 0-2.2-1-2.2-2.2v-3.1c0-.8.5-1.5 1.2-1.9l3.9-2.1Z" class="-path--secondary" fill="#FF9E18"/>
  <path fill-rule="evenodd" d="M89.05 76.8h-39.2v5h7.6v-.1c1.1 0 1.9.9 1.9 1.9v1.8c0 1.1-.9 1.9-1.9 1.9h-22.3c-1.1 0-1.9-.9-1.9-1.9v-1.7c0-1.1.9-1.9 1.9-1.9h7.4v-5H3.45c-1.2 0-2.1-1-2.1-2.1V13.8c0-1.2 1-2.1 2.1-2.1h85.7c1.2 0 2.1 1 2.1 2.1v60.9c0 1.2-1 2.1-2.2 2.1ZM36.87 20h53.08v54.7c0 .4-.3.8-.8.8H3.45c-.4 0-.8-.3-.8-.8V51.36c.17.09.36.14.55.14h32.7c.6 0 1.2-.6 1.2-1.2V20.7c0-.268-.088-.507-.23-.7Zm52.578-6.944a.78.78 0 0 1 .435.412 3.156 3.156 0 0 0-.435-.412Zm-86.639.259a.766.766 0 0 1 .227-.206c-.08.065-.155.133-.227.206ZM35.8 50.1H3.4V20.9h32.4v29.2Zm17.65-10.7c0 6.8 4.6 12.4 10.2 12.4s10.2-5.5 10.2-12.4c0-6.8-4.6-12.4-10.2-12.4s-10.2 5.6-10.2 12.4Zm1.4 0c0-6.1 3.9-11.1 8.8-11.1s8.8 5 8.8 11.1-3.9 11.1-8.8 11.1c-4.8 0-8.8-5-8.8-11.1Zm-4.6 33.8h26.8l.6-.1c2.7-.3 4.8-2.6 4.8-5.4v-5.8c0-2-1.1-3.9-2.9-4.8l-5.3-2.8-2-1.1c-1.4-.8-3.1-1-4.6-.4l-2.7 1c-.9.3-1.9.3-2.8 0l-2.8-1c-1.5-.5-3.1-.4-4.5.4l-7.2 3.9c-1.8.9-2.9 2.8-2.9 4.8v5.8c0 3.1 2.5 5.5 5.5 5.5Zm5.3-18.8c.6-.3 1.3-.5 2-.5.5 0 .9.1 1.5.3l2.8 1c1.2.4 2.5.4 3.7 0l2.7-1c1.2-.4 2.4-.3 3.5.3l7.3 3.9c1.3.7 2.2 2.1 2.2 3.6v5.7c0 2.2-1.9 4.1-4.2 4.1h-26.8c-2.3 0-4.2-1.8-4.2-4.1V62c0-1.6.8-3 2.2-3.7l5.3-2.8 2-1.1Zm-8-37.6c0 .7-.6 1.3-1.3 1.3-.7 0-1.3-.6-1.3-1.3 0-.7.6-1.3 1.3-1.3.7 0 1.3.5 1.3 1.3Z" class="-path--primary" fill="#083176"/>
</svg>
