<svg id="icon-products-system-integrators" viewBox="0 0 96 96" xmlns="http://www.w3.org/2000/svg">
  <path d="m70.97 63.805.213-10.275-7.599-1.154a16.942 16.942 0 0 0-.828-1.764 17.847 17.847 0 0 0-1.079-1.765l3.04-7.075-8.754-5.347-4.878 6.15a15.297 15.297 0 0 0-3.738-.046l-4.56-6.234-8.943 5.019 2.827 7.197a16.046 16.046 0 0 0-1.634 2.582l-7.993.886-.206 10.275 7.325 1.116a16.072 16.072 0 0 0 2.03 3.972l-3.101 7.105 8.753 5.348 4.689-5.928c1.353.222 2.73.266 4.095.13l4.498 6.111 8.936-4.98-2.75-7.022a16.019 16.019 0 0 0 2.082-3.468l7.575-.833Zm-21.96 1.452c-3.864 0-6.997-3.15-6.997-7.036 0-3.886 3.133-7.036 6.998-7.036s6.998 3.15 6.998 7.036c0 3.886-3.133 7.036-6.998 7.036Z" class="-path--shadow" fill="#38C6F4"/>
  <path d="m47.184 43.224-.065-23.314a.66.66 0 1 1 1.322-.004l.064 23.388.287.03 4.647-5.866a.66.66 0 0 1 .863-.153l8.746 5.348a.66.66 0 0 1 .26.827l-2.933 6.736c.347.49.668 1 .965 1.534.26.482.497.976.713 1.48l7.23 1.098a.66.66 0 0 1 .562.667l-.205 10.267a.66.66 0 0 1-.588.644l-7.225.799c-.059.126-.12.252-.182.377l20.091 12.503a.66.66 0 0 1-.698 1.122l-20.03-12.465c-.294.49-.614.965-.958 1.423l2.615 6.696a.66.66 0 0 1-.294.818l-8.935 4.98a.66.66 0 0 1-.854-.185l-4.279-5.813a16.641 16.641 0 0 1-3.502-.103l-4.451 5.621a.66.66 0 0 1-.863.154l-8.753-5.348a.66.66 0 0 1-.261-.828l2.953-6.768a16.16 16.16 0 0 1-.357-.556l-18.292 12.36a.66.66 0 1 1-.74-1.094l18.386-12.423a16.253 16.253 0 0 1-.765-1.761l-6.94-1.056a.66.66 0 0 1-.561-.666l.205-10.276a.66.66 0 0 1 .588-.643l7.643-.848a16.42 16.42 0 0 1 1.313-2.069l-2.69-6.85a.66.66 0 0 1 .291-.818l8.951-5.019a.66.66 0 0 1 .857.186l4.337 5.923c.51-.043 1.02-.062 1.532-.055Zm13.79 10.851c-.234-.58-.5-1.145-.796-1.695-.325-.586-.69-1.15-1.09-1.687a.66.66 0 0 1-.076-.659l2.856-6.554-7.756-4.742-4.515 5.698a.66.66 0 0 1-.608.245 14.644 14.644 0 0 0-3.577-.051.66.66 0 0 1-.604-.267l-4.214-5.754-7.938 4.451 2.616 6.66a.66.66 0 0 1-.094.649c-.603.771-1.13 1.6-1.573 2.474a.66.66 0 0 1-.516.358l-7.418.822-.182 9.117 6.76 1.028a.66.66 0 0 1 .527.442 14.916 14.916 0 0 0 1.942 3.826.66.66 0 0 1 .066.645l-2.87 6.577 7.763 4.742 4.325-5.462a.66.66 0 0 1 .622-.242c1.299.207 2.618.247 3.926.117a.66.66 0 0 1 .598.266l4.153 5.643 7.924-4.417-2.541-6.507a.66.66 0 0 1 .096-.65 15.361 15.361 0 0 0 1.996-3.325.66.66 0 0 1 .532-.39l7.023-.777.181-9.108-7.025-1.067a.66.66 0 0 1-.513-.406Zm-6.318 5.597c0 4.25-3.428 7.697-7.659 7.697-4.23 0-7.659-3.447-7.659-7.697s3.428-7.697 7.66-7.697c4.23 0 7.658 3.447 7.658 7.697Zm-1.322 0c0-3.522-2.838-6.375-6.337-6.375-3.5 0-6.337 2.853-6.337 6.375s2.838 6.376 6.337 6.376c3.5 0 6.337-2.854 6.337-6.376Z" class="-path--primary" fill="#083176"/>
  <path d="M55.426 12.734c0 4.243-3.423 7.684-7.646 7.684-4.224 0-7.646-3.44-7.646-7.684 0-4.243 3.422-7.684 7.646-7.684 4.223 0 7.646 3.441 7.646 7.684Zm-1.19 0c0-3.588-2.891-6.495-6.456-6.495-3.566 0-6.457 2.907-6.457 6.495s2.892 6.495 6.457 6.495 6.456-2.907 6.456-6.495Zm41.85 71.018c0 4.243-3.424 7.684-7.647 7.684-4.223 0-7.646-3.44-7.646-7.684 0-4.243 3.423-7.684 7.646-7.684s7.646 3.441 7.646 7.684Zm-1.19 0c0-3.587-2.892-6.495-6.457-6.495s-6.457 2.908-6.457 6.495c0 3.588 2.892 6.495 6.457 6.495s6.457-2.907 6.457-6.495Zm-79.689 0c0 4.243-3.422 7.684-7.646 7.684-4.223 0-7.646-3.44-7.646-7.684 0-4.243 3.423-7.684 7.646-7.684 4.224 0 7.646 3.441 7.646 7.684Zm-1.19 0c0-3.588-2.89-6.495-6.456-6.495-3.565 0-6.457 2.907-6.457 6.495s2.892 6.495 6.457 6.495 6.457-2.907 6.457-6.495Z" class="-path--secondary" fill="#FF9E18"/>
</svg>
