<svg id="icon-products-load-balancer" viewBox="0 0 96 96" xmlns="http://www.w3.org/2000/svg">
  <path fill-rule="evenodd" d="M35.465 58.884c.363 0 .657.294.657.657v17.217a.658.658 0 0 1-.657.658h-19.94l4.142 4.131a.658.658 0 1 1-.93.931l-5.201-5.19a.658.658 0 0 1 0-.93l5.324-5.32a.658.658 0 1 1 .93.93L15.654 76.1h19.153V59.542c0-.364.295-.658.658-.658Zm13.192.657a.658.658 0 0 0-1.315 0v32.06l-4.154-4.139a.658.658 0 0 0-.928.932l5.341 5.32a.658.658 0 0 0 .928 0l5.21-5.18a.658.658 0 0 0-.927-.933l-4.154 4.131v-32.19Zm12.527 0a.658.658 0 1 0-1.315 0v17.217c0 .363.295.658.658.658H80.34l-4.13 4.132a.658.658 0 1 0 .93.93l5.325-5.329a.658.658 0 0 0-.001-.93l-5.202-5.182a.658.658 0 1 0-.928.932l4.148 4.131H61.184V59.542Z" class="-path--secondary" fill="#FF9E18"/>
  <path d="M27.46 33.3h49.428v22.382H27.46V33.301Z" class="-path--shadow" fill="#38C6F4"/>
  <path fill-rule="evenodd" d="M38.138 13.228c0-5.42 4.413-9.819 9.862-9.819s9.862 4.399 9.862 9.82c0 5.42-4.413 9.819-9.862 9.819-5.45 0-9.862-4.4-9.862-9.82ZM48 2.094c-6.17 0-11.177 4.982-11.177 11.134 0 6.053 4.846 10.974 10.88 11.13a.658.658 0 0 0-.36.587v11.277c0 .1.022.195.062.28H23.282a.658.658 0 0 0-.657.658v22.382c0 .363.294.657.657.657H72.71a.658.658 0 0 0 .658-.657V37.16a.658.658 0 0 0-.658-.657H48.595a.656.656 0 0 0 .063-.281V24.945a.658.658 0 0 0-.36-.586c6.032-.157 10.879-5.078 10.879-11.13C59.177 7.075 54.17 2.093 48 2.093ZM23.94 37.818v21.066H72.05V37.818H23.94Z" class="-path--primary" fill="#083176"/>
</svg>
