<svg id="icon-products-c2-command-and-control-server" viewBox="0 0 96 96" xmlns="http://www.w3.org/2000/svg">
  <path fill-rule="evenodd" d="M60.9 35.11H20.819c-1.19 0-2.155.969-2.155 2.163v50.551c0 1.195.965 2.163 2.154 2.163h46.47c1.189 0 2.153-.968 2.153-2.163V40.272A5.162 5.162 0 0 1 60.9 35.11ZM22.467 46.376a1.61 1.61 0 0 1-1.607 1.614 1.61 1.61 0 0 1-1.608-1.614c0-.892.72-1.614 1.608-1.614a1.61 1.61 0 0 1 1.607 1.614Zm3.33 1.614a1.61 1.61 0 0 0 1.607-1.614 1.61 1.61 0 0 0-1.608-1.614 1.61 1.61 0 0 0-1.607 1.614c0 .891.72 1.614 1.607 1.614Zm6.56-1.614a1.61 1.61 0 0 1-1.608 1.614 1.61 1.61 0 0 1-1.608-1.614c0-.892.72-1.614 1.608-1.614a1.61 1.61 0 0 1 1.607 1.614ZM20.86 67.858a1.61 1.61 0 0 0 1.607-1.614 1.61 1.61 0 0 0-1.607-1.614 1.61 1.61 0 0 0-1.608 1.614c0 .891.72 1.614 1.608 1.614Zm6.544-1.614a1.61 1.61 0 0 1-1.608 1.614 1.61 1.61 0 0 1-1.607-1.614c0-.892.72-1.614 1.607-1.614a1.61 1.61 0 0 1 1.608 1.614Zm3.345 1.614a1.61 1.61 0 0 0 1.607-1.614 1.61 1.61 0 0 0-1.607-1.614 1.61 1.61 0 0 0-1.608 1.614c0 .891.72 1.614 1.608 1.614Zm-8.282 17.426A1.61 1.61 0 0 1 20.86 86.9a1.61 1.61 0 0 1-1.608-1.615c0-.89.72-1.614 1.608-1.614a1.61 1.61 0 0 1 1.607 1.614Zm3.33 1.615a1.61 1.61 0 0 0 1.607-1.615 1.61 1.61 0 0 0-1.608-1.614 1.61 1.61 0 0 0-1.607 1.614c0 .892.72 1.615 1.607 1.615Zm6.56-1.615a1.61 1.61 0 0 1-1.608 1.615 1.61 1.61 0 0 1-1.608-1.615c0-.89.72-1.614 1.608-1.614a1.61 1.61 0 0 1 1.607 1.614Z" class="-path--shadow" fill="#38C6F4"/>
  <path fill-rule="evenodd" d="M60.507 3.313a1.888 1.888 0 0 0-1.883 1.893c0 1.048.846 1.893 1.883 1.893a1.888 1.888 0 0 0 1.883-1.893 1.888 1.888 0 0 0-1.883-1.893Zm-3.192 1.893a3.198 3.198 0 0 1 3.192-3.203A3.198 3.198 0 0 1 63.7 5.206a3.202 3.202 0 0 1-2.538 3.135l-.038 14.4 1.517-.797.98 1.39v-3.438c0-.362.294-.655.655-.655h4.968V4.18a.655.655 0 1 1 1.31 0v15.715a.655.655 0 0 1-.656.655h-4.967v4.64l.761 1.079c.666-.023 1.333.015 1.991.115l3.207-3.908 4.261 2.659v-9.233a3.202 3.202 0 0 1-2.496-3.127 3.198 3.198 0 0 1 3.192-3.203 3.198 3.198 0 0 1 3.193 3.203 3.202 3.202 0 0 1-2.579 3.144v9.301c0 .23-.117.43-.295.548l.436.272-2.13 4.571c.464.675.85 1.4 1.15 2.163l5.06.86-.253 6.71-5.027.468c-.18.424-.396.832-.644 1.22-.217.364-.46.712-.727 1.04l1.755 4.728-5.9 3.138-2.888-4.096c-.88.082-1.765.049-2.636-.099l-3.084 3.892-5.712-3.564 2.057-4.547a11.062 11.062 0 0 1-1.233-2.392l-4.895-.82.245-6.718 3.575-.372V12.965a.655.655 0 1 1 1.31 0v19.122l.157-.016c.42-.896.97-1.725 1.632-2.458l-1.697-4.556 3.096-1.627.039-15.089a3.202 3.202 0 0 1-2.537-3.135Zm16.65 7.57c0-1.048.845-1.893 1.882-1.893s1.883.845 1.883 1.893a1.888 1.888 0 0 1-1.883 1.893 1.888 1.888 0 0 1-1.883-1.893Zm-10.99 28.496c-2.638-1.516-3.553-4.893-2.044-7.542a5.492 5.492 0 0 1 7.511-2.052l.384.245a5.655 5.655 0 0 1 2.513 3.818 5.278 5.278 0 0 1-.759 3.769 5.47 5.47 0 0 1-7.553 1.763l-.003-.002h-.049Zm-43.341 5.104c0-.626.504-1.13 1.122-1.13.619 0 1.123.504 1.123 1.13 0 .625-.504 1.13-1.123 1.13a1.126 1.126 0 0 1-1.122-1.13Zm1.122-2.099a2.095 2.095 0 0 0-2.092 2.099c0 1.157.935 2.098 2.092 2.098a2.095 2.095 0 0 0 2.093-2.098 2.095 2.095 0 0 0-2.093-2.099Zm3.814 2.099c0-.626.505-1.13 1.123-1.13s1.123.504 1.123 1.13c0 .625-.505 1.13-1.123 1.13a1.126 1.126 0 0 1-1.123-1.13Zm1.123-2.099a2.095 2.095 0 0 0-2.092 2.099c0 1.157.935 2.098 2.092 2.098a2.095 2.095 0 0 0 2.092-2.098 2.095 2.095 0 0 0-2.092-2.099Zm4.953.97c-.619 0-1.123.503-1.123 1.129 0 .625.505 1.13 1.123 1.13s1.123-.505 1.123-1.13c0-.626-.505-1.13-1.123-1.13Zm-2.092 1.129c0-1.157.934-2.099 2.092-2.099 1.157 0 2.092.942 2.092 2.099a2.095 2.095 0 0 1-2.092 2.098 2.095 2.095 0 0 1-2.092-2.098Zm-8.92 19.868c0-.626.504-1.13 1.122-1.13.619 0 1.123.504 1.123 1.13 0 .626-.504 1.13-1.123 1.13a1.126 1.126 0 0 1-1.122-1.13Zm1.122-2.099a2.095 2.095 0 0 0-2.092 2.099c0 1.157.935 2.099 2.092 2.099a2.095 2.095 0 0 0 2.093-2.1 2.095 2.095 0 0 0-2.093-2.098Zm4.937.97c-.618 0-1.123.503-1.123 1.129s.505 1.13 1.123 1.13 1.123-.504 1.123-1.13c0-.626-.505-1.13-1.123-1.13Zm-2.092 1.129c0-1.157.935-2.099 2.092-2.099s2.092.942 2.092 2.099a2.095 2.095 0 0 1-2.092 2.099 2.095 2.095 0 0 1-2.092-2.1Zm5.922 0c0-.626.505-1.13 1.123-1.13s1.123.504 1.123 1.13c0 .626-.505 1.13-1.123 1.13a1.126 1.126 0 0 1-1.123-1.13Zm1.123-2.099a2.095 2.095 0 0 0-2.092 2.099c0 1.157.934 2.099 2.092 2.099a2.095 2.095 0 0 0 2.092-2.1 2.095 2.095 0 0 0-2.092-2.098Zm-9.89 20.01c-.618 0-1.122.504-1.122 1.13 0 .625.504 1.129 1.122 1.129.619 0 1.123-.504 1.123-1.13 0-.625-.504-1.129-1.123-1.129Zm-2.092 1.13c0-1.158.935-2.1 2.092-2.1 1.158 0 2.093.942 2.093 2.1a2.095 2.095 0 0 1-2.093 2.098 2.095 2.095 0 0 1-2.092-2.099Zm5.906 0c0-.626.505-1.13 1.123-1.13s1.123.504 1.123 1.13c0 .625-.505 1.129-1.123 1.129a1.126 1.126 0 0 1-1.123-1.13Zm1.123-2.1a2.095 2.095 0 0 0-2.092 2.1c0 1.157.935 2.098 2.092 2.098a2.095 2.095 0 0 0 2.092-2.099 2.095 2.095 0 0 0-2.092-2.098Zm4.953.97c-.619 0-1.123.504-1.123 1.13 0 .625.505 1.129 1.123 1.129s1.123-.504 1.123-1.13c0-.625-.505-1.129-1.123-1.129Zm-2.092 1.13c0-1.158.934-2.1 2.092-2.1 1.157 0 2.092.942 2.092 2.1a2.095 2.095 0 0 1-2.092 2.098 2.095 2.095 0 0 1-2.092-2.099Z" class="-path--secondary" fill="#FF9E18"/>
  <path fill-rule="evenodd" d="M63.175 21.251a.655.655 0 0 0-.84-.202l-5.923 3.113a.655.655 0 0 0-.31.809l1.562 4.19a10.63 10.63 0 0 0-1.31 1.98l-4.683.487a.655.655 0 0 0-.586.628l-.215 5.89H17.556a2.887 2.887 0 0 0-2.892 2.881V52.928a2.887 2.887 0 0 0 2.883 2.881h46.33a2.87 2.87 0 0 0 2.866-2.875v-5.632l2.608 3.7c.19.27.551.355.843.2l5.899-3.138a.655.655 0 0 0 .306-.806l-1.627-4.386c.194-.26.375-.53.543-.81.194-.304.37-.621.527-.948l4.647-.432a.655.655 0 0 0 .594-.627l.253-6.71a.655.655 0 0 0-.545-.67l-4.702-.8a11.446 11.446 0 0 0-.869-1.634L77.195 26a.655.655 0 0 0-.247-.831l-5.712-3.564a.655.655 0 0 0-.853.14l-2.975 3.626c-.458-.054-.92-.08-1.381-.079l-2.852-4.042Zm2.258 25.957a10.82 10.82 0 0 1-.793-.075l-2.85 3.594a.655.655 0 0 1-.859.15l-5.712-3.565a.655.655 0 0 1-.25-.825l1.908-4.219a11.717 11.717 0 0 1-.963-1.866l-4.528-.758a.652.652 0 0 1-.314-.145l-33.517-.043h-.003a1.577 1.577 0 0 0-1.578 1.575v11.893c.004.874.709 1.575 1.573 1.575h46.33a1.56 1.56 0 0 0 1.556-1.565v-5.726Zm-6.406-18.14-1.496-4.014 4.905-2.578 2.72 3.856c.128.18.338.285.559.277.625-.022 1.251.014 1.87.108a.655.655 0 0 0 .604-.232l2.842-3.464 4.732 2.953-1.885 4.046a.655.655 0 0 0 .054.648c.436.634.799 1.315 1.08 2.032a.655.655 0 0 0 .5.406l4.493.764-.21 5.561-4.454.414a.655.655 0 0 0-.542.396c-.166.39-.365.766-.594 1.124l-.01.017c-.2.337-.426.66-.673.965a.655.655 0 0 0-.105.64l1.555 4.19-4.884 2.598-2.555-3.625a.655.655 0 0 0-.596-.275 9.488 9.488 0 0 1-2.466-.092.655.655 0 0 0-.622.24l-2.721 3.432-4.73-2.95 1.82-4.026a.655.655 0 0 0-.054-.638 10.41 10.41 0 0 1-1.16-2.25.655.655 0 0 0-.506-.42l-4.328-.724.203-5.575 4.477-.465a.655.655 0 0 0 .525-.374 9.323 9.323 0 0 1 1.525-2.297.655.655 0 0 0 .127-.667Zm2.473 4.67a4.837 4.837 0 0 1 6.602-1.816l.37.237a5 5 0 0 1 2.22 3.376l.001.004a4.622 4.622 0 0 1-.664 3.301l-.006.01a4.815 4.815 0 0 1-6.65 1.552l-.011-.007a.655.655 0 0 0-.172-.072 4.885 4.885 0 0 1-1.69-6.584Zm7.268-2.944a6.147 6.147 0 0 0-8.406 2.296c-1.688 2.962-.666 6.738 2.287 8.434.048.028.1.05.153.064 2.861 1.7 6.564.8 8.331-2.044a5.932 5.932 0 0 0 .85-4.23 6.31 6.31 0 0 0-2.803-4.257l-.385-.246-.012-.008-.015-.009ZM66.49 79.18l.253 7.162v4.78a2.87 2.87 0 0 1-2.866 2.875h-46.33a2.887 2.887 0 0 1-2.883-2.88V79.28a2.895 2.895 0 0 1 2.89-2.89h46.061a2.88 2.88 0 0 1 2.875 2.789Zm-1.31.043a1.569 1.569 0 0 0-1.564-1.522H17.555c-.868 0-1.577.706-1.581 1.583v11.829a1.577 1.577 0 0 0 1.573 1.574h46.33a1.56 1.56 0 0 0 1.556-1.565v-4.757l-.253-7.142ZM63.615 57.17H17.557a2.879 2.879 0 0 0-2.893 2.862V71.91a2.887 2.887 0 0 0 2.883 2.891h46.335a2.887 2.887 0 0 0 2.86-2.88v-4.816l-.253-7.156a2.878 2.878 0 0 0-2.874-2.778ZM15.974 71.91v-11.87a1.569 1.569 0 0 1 1.576-1.559h46.066c.84 0 1.533.667 1.564 1.516l.253 7.132v4.788a1.577 1.577 0 0 1-1.559 1.575H17.546a1.577 1.577 0 0 1-1.572-1.582Z" class="-path--primary" fill="#083176"/>
</svg>
