<svg id="icon-business-calendar" viewBox="0 0 96 96" xmlns="http://www.w3.org/2000/svg">
  <path class="-path--shadow" fill="#38C6F4" fill-rule="evenodd" d="M83.8 14.31a6.84 6.84 0 0 1 6.86 6.83v56.89a6.84 6.84 0 0 1-6.85 6.83H17.1a6.84 6.84 0 0 1-6.85-6.83V21.14a6.84 6.84 0 0 1 6.85-6.83h66.7ZM29.56 27.96a3.82 3.82 0 1 1-7.64-.01 3.82 3.82 0 0 1 7.64.01Zm38.29 3.82a3.82 3.82 0 1 0 .01-7.64 3.82 3.82 0 0 0-.01 7.64Z"/>
  <path class="-path--primary" fill="#083176" fill-rule="evenodd" d="M27.7 9.02v8.5h38.27v-8.5a1.92 1.92 0 0 1 3.83 0v8.5h11.42a6.3 6.3 0 0 1 6.41 6.19v15.82a.6.6 0 0 1-.6.6H6.6a.6.6 0 0 1-.6-.6V23.89a6.31 6.31 0 0 1 6.27-6.37h11.6v-8.5a1.92 1.92 0 0 1 3.83 0Zm-3.84 11.72v-2.01H12.28a5.1 5.1 0 0 0-5.07 5.15v15.04h79.23V23.73a5.1 5.1 0 0 0-5.2-5H69.81v2l-3.83.01v-2.01H27.69v2l-3.83.01Zm-4.82 33.6a.6.6 0 0 0-.2.13v.01a.6.6 0 0 0-.17.42v9.35a.6.6 0 0 0 .6.6H33.4a.6.6 0 0 0 .6-.6v-9.36a.6.6 0 0 0-.6-.6H19.27a.6.6 0 0 0-.23.05Zm.83 9.31v-8.16H32.8v8.16H19.87Zm19.44-9.18a.6.6 0 0 1 .42-.18v.01h14.14a.6.6 0 0 1 .6.6v9.35a.6.6 0 0 1-.6.6H39.73a.6.6 0 0 1-.6-.6v-9.36a.6.6 0 0 1 .18-.42Zm1.02 1.02v8.16h12.94v-8.16H40.33Zm19.87-1.2a.6.6 0 0 0-.6.61v9.35a.6.6 0 0 0 .6.6h14.15a.6.6 0 0 0 .6-.6v-9.36a.6.6 0 0 0-.6-.6H60.2Zm.6 9.36V55.5l.01-.01h12.93v8.16H60.8ZM18.85 70a.6.6 0 0 1 .42-.18H33.4a.6.6 0 0 1 .6.6v9.36a.6.6 0 0 1-.6.6H19.27a.6.6 0 0 1-.6-.6v-9.36a.6.6 0 0 1 .18-.42Zm1.02 1.02v8.16H32.8v-8.16H19.87Zm19.86-1.2a.6.6 0 0 0-.6.6v9.36a.6.6 0 0 0 .6.6h14.14a.6.6 0 0 0 .6-.6v-9.36a.6.6 0 0 0-.6-.6H39.73Zm.6 9.36v-8.16h12.94v8.16H40.33ZM59.78 70a.6.6 0 0 1 .42-.18h14.15a.6.6 0 0 1 .6.6v9.36a.6.6 0 0 1-.6.6H60.2a.6.6 0 0 1-.6-.6v-9.36a.6.6 0 0 1 .18-.42Zm1.02 1.02v8.16h12.94v-8.16H60.8ZM6.18 44.4a.6.6 0 0 1 .42-.18h80.41a.6.6 0 0 1 .6.6v38.1a6.31 6.31 0 0 1-6.22 6.39H12.38A6.33 6.33 0 0 1 6 83.04V44.82a.6.6 0 0 1 .18-.42Zm1.02 1.03v37.6a5.12 5.12 0 0 0 5.17 5.08h68.99a5.1 5.1 0 0 0 5.04-5.18v-37.5H7.2Z"/>
  <path class="-path--secondary" fill="#FF9E18" fill-rule="evenodd" d="M25.77 23.72a4.37 4.37 0 1 0-.01 8.75 4.37 4.37 0 0 0 .01-8.75ZM22.5 28.1a3.29 3.29 0 1 1 6.57.02 3.29 3.29 0 0 1-6.57-.02Zm45.39-4.38a4.37 4.37 0 1 0-.02 8.75 4.37 4.37 0 0 0 .02-8.75Zm-3.28 4.37a3.27 3.27 0 1 1 6.54.02 3.27 3.27 0 0 1-6.54-.02Z"/>
</svg>
