<svg id="icon-products-train-satellite-internet" viewBox="0 0 96 96" xmlns="http://www.w3.org/2000/svg">
  <path fill-rule="evenodd" d="M34.468 17.384c-4.225 0-7.64 3.465-7.64 7.728V72.05c0 1.416 1.136 2.574 2.549 2.574h48.481c1.413 0 2.548-1.158 2.548-2.574V25.112c0-4.262-3.414-7.728-7.64-7.728H34.468Z" class="-path--shadow" fill="#38C6F4"/>
  <path fill-rule="evenodd" d="M34.027 8.634a19.415 19.415 0 0 1 28.037 0 .652.652 0 1 0 .94-.905 20.72 20.72 0 0 0-29.915 0 .652.652 0 0 0 .938.905Zm23.295 3.665a13.12 13.12 0 0 0-18.717.216.652.652 0 1 1-.938-.906 14.424 14.424 0 0 1 20.573-.238l.235.238a.652.652 0 1 1-.939.906c-.07-.073-.141-.145-.214-.216Zm-4.957 3.538a6.086 6.086 0 0 0-8.683.13.652.652 0 0 1-.942-.903 7.39 7.39 0 0 1 10.54-.157l.155.157a.652.652 0 0 1-.942.903 6.191 6.191 0 0 0-.128-.13Zm0 0 .457-.464-.457.465Z" class="-path--secondary" fill="#FF9E18"/>
  <path fill-rule="evenodd" d="M28.706 21.71c-4.315.006-7.797 3.546-7.797 7.895v47.59c0 1.505 1.208 2.74 2.714 2.74h6.503L16.538 93.538a.652.652 0 1 0 .923.922l3.242-3.246a.651.651 0 0 0 .254.051h54.327a.65.65 0 0 0 .205-.033l3.224 3.228a.652.652 0 0 0 .923-.922L66.048 79.934h6.545c1.506 0 2.713-1.234 2.713-2.739v-47.59c0-4.352-3.487-7.894-7.805-7.894H28.706Zm41.347 64.08 4.166 4.172H21.955l4.368-4.374c.12.146.3.239.504.239h43.009a.649.649 0 0 0 .217-.037Zm-5.663-5.67 4.397 4.402h-41.4l4.397-4.402a.653.653 0 0 0 .13-.186H64.26c.032.068.075.13.13.186ZM28.707 23.015H67.5c3.583 0 6.5 2.943 6.5 6.59v3.862l-51.787-.363v-3.5c0-3.643 2.913-6.584 6.493-6.589ZM22.214 34.41l51.788.363v18.126H22.214v-18.49Zm0 19.794v22.992c0 .8.638 1.435 1.409 1.435h48.97c.77 0 1.409-.635 1.409-1.435V54.203H22.214ZM30.02 65.88c0-1.883 1.506-3.396 3.347-3.396 1.84 0 3.346 1.513 3.346 3.396s-1.506 3.396-3.346 3.396-3.347-1.513-3.347-3.396Zm3.347-4.7c-2.577 0-4.651 2.111-4.651 4.7 0 2.588 2.075 4.7 4.65 4.7 2.577 0 4.652-2.112 4.652-4.7s-2.075-4.7-4.651-4.7Zm29.439 1.304c-1.84 0-3.347 1.513-3.347 3.396s1.506 3.396 3.347 3.396c1.84 0 3.346-1.513 3.346-3.396s-1.505-3.396-3.346-3.396Zm-4.651 3.396c0-2.588 2.075-4.7 4.65-4.7 2.577 0 4.652 2.111 4.652 4.7 0 2.588-2.075 4.7-4.651 4.7-2.576 0-4.651-2.112-4.651-4.7ZM39.229 27.125a.652.652 0 0 0 0 1.305h17.717a.652.652 0 0 0 0-1.305H39.229Z" class="-path--primary" fill="#083176"/>
</svg>
