<svg id="icon-products-security-endpoint-application" viewBox="0 0 96 96" xmlns="http://www.w3.org/2000/svg">
  <path fill-rule="evenodd" d="M83.49 15.521h5.5v50.2h-71.6v-50.2h66.1Zm-35.7 14.7h.2l9.2 1.5c.8.1 1.3.8 1.3 1.5v11.9c0 2.2-1 4.3-2.6 5.8l-7.1 6.4a1.54 1.54 0 0 1-1.15.368 1.54 1.54 0 0 1-1.15-.368l-7.1-6.4c-1.7-1.5-2.6-3.6-2.6-5.9v-11.8c0-.7.5-1.4 1.3-1.5l9.2-1.5h.5Z" class="-path--shadow" fill="#38C6F4"/>
  <path fill-rule="evenodd" d="M51.59 39.621h.5c.4 0 .7.2.7.6v8.6c0 .3-.2.6-.6.6h-9.2c-.3 0-.6-.2-.6-.6v-8.6c0-.3.2-.6.6-.6h.5v-1.8c.5-1.3 1.5-2.3 2.7-2.7 2.2-.7 4.6.5 5.4 2.7v1.8Zm-5.1-3.4c-.8.3-1.5 1-1.8 1.8v1.5h5.6v-1.5c-.6-1.5-2.3-2.3-3.8-1.8Zm2 7.7c0 .454-.228.793-.6.932v1.668h-.7v-1.637c-.429-.112-.7-.47-.7-.963 0-.6.4-1 1-1s1 .4 1 1Z" fill="#E1251B"/>
  <path fill-rule="evenodd" d="M12.173 72.221H83.29c.2 0 .376-.075.501-.189l7.992 5.668H4.617l7.556-5.479ZM83.99 70.55V21.421c0-.4-.3-.7-.7-.7h-71.6c-.4 0-.7.3-.7.7v50.027L2.237 77.8a.414.414 0 0 0-.186.209.658.658 0 0 0-.418.612v1.2c0 .363.295.658.658.658h91.7a.658.658 0 0 0 .657-.658v-1.2a.655.655 0 0 0-.165-.436.845.845 0 0 0-.22-.385L83.99 70.55Zm-71.7-48.528v44.6h70.3v-44.6h-70.3Zm36.3 46.6c0 .6-.5 1.1-1.1 1.1-.6 0-1.1-.5-1.1-1.1 0-.6.5-1.1 1.1-1.1.6 0 1.1.5 1.1 1.1Zm-.547-39.057h-.607L38.29 31.07a2.172 2.172 0 0 0-1.857 2.15v11.8c0 2.372.969 4.756 2.82 6.39l7.107 6.407.01.008a2.178 2.178 0 0 0 2.842 0l.01-.008 7.11-6.408.008-.01c1.72-1.611 2.808-3.88 2.808-6.279v-11.9c0-.983-.699-1.998-1.863-2.15l-9.241-1.508Zm-9.56 2.808 9.06-1.493h.394l9.159 1.493.012.002c.428.053.724.434.724.847v11.9c0 1.999-.91 3.928-2.387 5.316l-7.085 6.386a.863.863 0 0 1-1.14 0l-7.09-6.39-.005-.005c-1.547-1.365-2.378-3.38-2.378-5.407v-11.8c0-.449.335-.792.736-.849Z" class="-path--primary" fill="#083176"/>
</svg>
