<svg id="icon-business-single-provider" viewBox="0 0 96 96" xmlns="http://www.w3.org/2000/svg">
  <path d="m83.46 55.3 3.9-10.5c.7-2-.3-4.3-2.3-5l-.2-.1c-1.9-.6-4 .3-4.9 2l-3.9 6.9c-1.4 2.7-3.7 4.8-6.6 5.9L48.96 62c-1.2.5-2.5.2-3.4-.6-1.2-1.1-1.2-3-.1-4.2.3-.3.6-.5 1-.7l8-3.4c1.9-.8 2.9-3 2.1-5 0-.1-.1-.2-.1-.3-.9-1.7-2.9-2.5-4.7-2l-16 4.8c-4.9 1.4-8.8 5-10.7 9.8l-1.9 4.9c-1.2 3-2.3 6.1-3.2 9.2l-3.8 12.9h23.6c-.1-4.1 2.1-7.8 5.7-9.7l32.3-16.2c2.7-1.2 4.7-3.4 5.7-6.2Z" class="-path--shadow" fill="#38C6F4"/>
  <path fill-rule="evenodd" d="M31.36 6.715C32.324 7.486 34.205 8 36.46 8c2.189 0 4.096-.514 5.084-1.287L41.53 7.81l-.07-.01c-.1 1-2.2 2-5.1 2-2.866 0-4.853-1.075-4.995-1.968l-.006-1.117Zm-.7-1.215c0-1.4 2.5-2.5 5.8-2.5 3.222 0 5.68 1.048 5.796 2.4h.004v.1c0 .025 0 .05-.002.074l-.097 7.826c-.2 1.6-2.7 2.6-5.9 2.6-.556 0-1.026 0-1.569-.08-.836 1.881-2.698 3.18-4.832 3.18-2.9 0-5.3-2.4-5.3-5.4 0-3 2.4-5.4 5.3-5.4.274 0 .544.021.808.063l-.002-.43-.005-.033h.004l-.012-2.398.008-.002Zm5.7 9.8c-.22 0-.427 0-.631-.005a9.729 9.729 0 0 1-.21-.007l-.14-.008a7.127 7.127 0 0 1-.438-.04 5.481 5.481 0 0 0 .216-1.744l-.001-.03-.004-.07-.004-.067a5.88 5.88 0 0 0-.015-.184l.034.005c.1.012.2.022.3.029.159.011.317.016.475.019.14.002.28.002.419.002 2.283 0 4.159-.51 5.119-1.345l-.02 1.545c0 .9-2 1.9-5.1 1.9Zm.1-2.8c-.483 0-.968 0-1.452-.09a5.414 5.414 0 0 0-1.07-2.157c.73.16 1.548.247 2.422.247 2.22 0 4.182-.615 5.155-1.478l-.02 1.583-.034-.005c-.1.9-2 1.9-5 1.9Zm-3.569-2.546c-.585-.213-1.079-.482-1.452-.793A4.873 4.873 0 0 0 29.86 8.9c-2.7 0-4.9 2.2-4.9 4.9s2.2 4.9 4.9 4.9 4.9-2.2 4.9-4.9a4.895 4.895 0 0 0-1.868-3.846ZM41.56 5.47c-.05-.797-2.135-1.871-5.1-1.871-3 0-5.1 1-5.1 1.8s2.1 1.9 5.1 1.9c2.95 0 5.03-.967 5.099-1.76a.456.456 0 0 0 .002-.04l-.002-.029ZM27.46 16.1h.6v.9c0 .1.1.2.2.2s.2-.1.2-.2v-.9h.4v.9c0 .1.1.2.2.2a.214.214 0 0 0 .2-.2v-.9h.3v.9c0 .055.031.11.075.149.036.03.08.051.125.051.2 0 .3-.1.2-.2v-.9h.4v.9c0 .1.1.2.2.2.2 0 .3-.1.2-.2v-.9h.4v.9c0 .024.006.048.016.07a.23.23 0 0 0 .063.082c.035.03.078.048.121.048.1 0 .2-.1.2-.2v-.9h.6c.2 0 .3-.1.2-.2v-.4h1c.055 0 .11-.03.148-.072a.196.196 0 0 0 .052-.128.176.176 0 0 0-.02-.081.232.232 0 0 0-.046-.06.198.198 0 0 0-.133-.059h-1v-.4h1c.1 0 .2-.1.2-.2s-.1-.2-.2-.2h-1v-.4h1c.1 0 .2-.1.2-.2s-.1-.2-.2-.2h-1v-.4h1c.1 0 .2-.1.2-.2s-.1-.2-.2-.2h-1v-.4h1c.1 0 .2-.1.2-.2s-.1-.2-.2-.2h-1v-.3c0-.1-.1-.2-.2-.2h-.6v-1c0-.1-.1-.2-.2-.2s-.2.1-.2.2v1h-.4v-1c0-.1-.1-.2-.2-.2s-.2.1-.2.2v1h-.4v-1c0-.1-.1-.2-.2-.2s-.2.1-.2.2v1h-.3v-1c0-.1-.1-.2-.2-.2s-.2.1-.2.2v1h-.4v-1a.2.2 0 0 0-.062-.137.219.219 0 0 0-.094-.057.165.165 0 0 0-.045-.006c-.1 0-.2.1-.2.2v1h-.6c-.054 0-.109.03-.147.074a.22.22 0 0 0-.041.068.166.166 0 0 0-.011.058v.3h-.9a.205.205 0 0 0-.147.072.197.197 0 0 0-.053.128.21.21 0 0 0 .09.161.235.235 0 0 0 .053.029c.018.006.038.01.056.01h.9v.4h-.9c-.1 0-.2.1-.2.2s.1.2.2.2h.9v.4h-.9a.185.185 0 0 0-.097.03.239.239 0 0 0-.088.102.196.196 0 0 0-.014.068c0 .091.082.182.172.198l.027.002h.9v.4h-.9c-.1 0-.2.1-.2.2s.1.2.2.2h.9v.4h-.9c-.1 0-.2.1-.2.2s.1.2.2.2h.9v.4a.204.204 0 0 0 .033.101.235.235 0 0 0 .124.093c.014.004.029.006.044.006Zm.2-1.6v1.1h4.3v-3.9h-4.3v2.8Zm3.6.7h-2.9c-.1 0-.2-.1-.2-.2v-2.7c0-.1.1-.2.2-.2h2.9c.057 0 .114.032.152.078.03.035.049.079.049.122v2.6c0 .2-.1.3-.2.3Zm-2.7-.4h2.5v-2.2h-2.5v2.2ZM66.5 17.003h.2c.9 0 1.7-.3 2.4-.9.7-.6 1.2-1.5 1.2-2.4.1-1.9-1.4-3.6-3.3-3.7h-.9c-.3-2.8-2.7-5.1-5.6-5-2.2 0-4.2 1.4-5 3.4-1-.3-2.1-.2-3 .3-1.1.6-1.8 1.5-2.2 2.6a5.843 5.843 0 0 0-.07 2.272c-.702.33-1.152.986-1.43 1.728-.5 1.7.4 3.5 2 4 .3.1.7.2 1 .2l1.2-.014v2.814c0 .046.02.091.052.127a.234.234 0 0 0 .114.07.148.148 0 0 0 .021.003h.013c.2 0 .3-.1.2-.2v-2.819l2.6-.03v.85h-1.6a.2.2 0 0 0-.137.06.215.215 0 0 0-.06.106.169.169 0 0 0-.003.033v4c0 .1.1.2.2.2s.2-.1.2-.2v-3.8h1.6a.184.184 0 0 0 .097-.03.236.236 0 0 0 .091-.11.16.16 0 0 0 .012-.06V19.45l.7-.008v4.082c-.487.096-.8.538-.8.98 0 .6.5 1 1 1 .6 0 1-.4 1-1 0-.52-.375-.889-.8-.979v-4.088l.8-.01v1.977c0 .1.1.2.2.2s.2-.1.2-.2v-1.981l1.6-.019c1.299-.093 2.34-1.132 2.403-2.4H66.5Zm-15.6-5.5a4.124 4.124 0 0 0-.085 1.833 3.911 3.911 0 0 1 1.685-.133c.6-1.4 1.9-2.3 3.5-2.3 2-.1 3.7 1.4 4 3.4h.3a2.578 2.578 0 0 1 2.36 2.1h3.84c.8 0 1.5-.2 2.1-.7.6-.5.9-1.2.9-2 .1-1.6-1.1-2.9-2.7-3h-.3c-.078 0-.15 0-.218.002a1.825 1.825 0 0 0-.582.098h-.3c-.1-.1-.1-.2-.1-.3 0-2.7-2.2-4.8-4.8-4.8h-.1c-2 0-3.8 1.4-4.5 3.3-.1.2-.2.3-.4.2-.9-.3-1.9-.2-2.8.2-.9.4-1.5 1.1-1.8 2.1Zm6.4 12.5c-.3 0-.5.2-.5.5s.2.5.5.5.5-.2.5-.5c.1-.3-.2-.5-.5-.5Zm-5.5-10.1c-.4 0-.8.1-1.1.3-.6.3-1 .8-1.2 1.4-.4 1.3.3 2.7 1.6 3.1.2.1.5.1.8.1h8.5c1-.1 1.8-1 1.7-2-.1-1-.8-1.7-1.8-1.8-.2 0-.4 0-.5.1h-.3c-.1-.1-.1-.2-.1-.3-.1-1.8-1.5-3.2-3.3-3.2h-.1c-1.3 0-2.5.9-3 2.2-.1.2-.2.3-.4.2-.3-.1-.5-.1-.8-.1Zm26.76 29.767c-2.226-.703-4.53.36-5.668 2.295l-3.906 6.91-.004.007-.007.014c-1.326 2.558-3.502 4.544-6.244 5.585l-.004.001-20.591 7.497-.028.011c-.943.393-1.975.165-2.703-.48-.9-.829-.931-2.298-.066-3.253a2.92 2.92 0 0 1 .8-.557l7.98-3.391c2.195-.925 3.369-3.453 2.486-5.778a.94.94 0 0 0-.057-.18l-.015-.033a1.573 1.573 0 0 0-.024-.051.623.623 0 0 0-.064-.176c-1.05-1.985-3.373-2.908-5.46-2.328l-16.005 4.802h-.004c-5.102 1.46-9.156 5.208-11.129 10.192l-.001.004-1.899 4.897c-1.207 3.019-2.213 6.134-3.21 9.225v.003l-.004.011-.006.02-3.7 12.9a.661.661 0 0 0 .635.844h23.6a.661.661 0 0 0 .66-.677c-.094-3.845 1.965-7.311 5.342-9.096l32.284-16.193c2.75-1.271 4.973-3.6 6.035-6.569v-.004L81.48 49.63l.004-.012c.806-2.302-.32-4.98-2.664-5.827l-.164-.082a.667.667 0 0 0-.097-.039Zm-4.529 2.965.003-.005c.854-1.447 2.523-2.181 4.08-1.715l.152.076a.664.664 0 0 0 .078.033c1.625.569 2.482 2.47 1.896 4.152L76.34 59.67l-.003.008c-.937 2.626-2.909 4.693-5.354 5.822l-.02.01-32.3 16.2-.012.006c-3.62 1.91-5.91 5.543-6.049 9.623H10.537l3.456-12.046c1-3.1 1.992-6.175 3.181-9.148l1.9-4.902.002-.002c1.827-4.614 5.57-8.064 10.266-9.406l16.002-4.8c1.48-.408 3.118.235 3.887 1.591l.01.032.004.014.013.035c.02.053.043.1.055.126a.7.7 0 0 0 .034.112c.661 1.654-.163 3.48-1.743 4.146h-.002l-8 3.4a4.25 4.25 0 0 0-1.209.84l-.02.022c-1.323 1.444-1.352 3.765.141 5.134l.008.007c1.067.949 2.626 1.32 4.078.722l20.587-7.495.008-.003c3.052-1.158 5.473-3.368 6.946-6.203l3.89-6.88ZM36.06 27.5v.122c.403.09.7.447.7.878v3.1c0 .2-.1.5-.3.6a1.227 1.227 0 0 1-.263.206.684.684 0 0 1-.336.094c-1.2 0-2.1-.9-2.1-2.1v-.7c0-1.098.753-1.944 1.8-2.08v-.12c0-3.4 2.8-6.3 6.2-6.3 3.4 0 6.2 2.8 6.2 6.3v.21c1.098.103 1.9 1.058 1.9 2.19v.4c.093 1.115-.764 2.057-1.849 2.185-.418 2.06-2.247 3.615-4.351 3.615h-.108c-.104.622-.63 1.117-1.293 1.2h-.4c-.7 0-1.2-.5-1.4-1.1h-.1v-.3c0-.8.7-1.5 1.4-1.5h.5c.597.085 1.12.46 1.263 1.003 1.872.062 3.468-1.274 3.796-3.017a.896.896 0 0 1-.459-.786v-3c0-.315.159-.59.4-.75v-.35c0-3.1-2.5-5.6-5.6-5.6-3.1 0-5.6 2.5-5.6 5.6Zm11.895 4.386a.256.256 0 0 0-.195-.086.56.56 0 0 0-.184.03.34.34 0 0 1-.115-.23v-3c0-.2.2-.3.3-.3.9 0 1.5.6 1.5 1.5v.6c0 .734-.59 1.384-1.306 1.486ZM35.861 28.3c-.8 0-1.4.6-1.4 1.4v.7c0 .8.6 1.4 1.4 1.4.035 0 .058 0 .077-.004.035-.008.058-.031.123-.096l.1-.1v-3.1c-.1-.2-.2-.2-.3-.2Zm5.2 7.4v.1c0 .4.4.8.8.8h.5c.4 0 .7-.4.7-.9 0-.4-.3-.7-.7-.7h-.4c-.5 0-.9.3-.9.7Zm-1 2.7c.5.4 1.1.7 1.8.7.6 0 1.2-.2 1.7-.8.1-.1.1-.2 0-.3a.333.333 0 0 0-.047-.04.204.204 0 0 0-.068-.03c-.061-.016-.124.008-.186.07l-.1.1c-.4.4-.9.6-1.4.6-.5 0-1-.2-1.4-.6-.054-.054-.108-.079-.162-.075a.226.226 0 0 0-.138.075c-.1.1-.1.2 0 .3Zm1.8 2.5c-1.3 0-2.5-.5-3.4-1.5l-.018-.019a.266.266 0 0 1-.04-.058.16.16 0 0 1-.015-.045c-.01-.06.013-.119.073-.178.1-.1.2-.1.3 0 .8.8 1.9 1.3 3 1.3h.1c1.1 0 2.2-.4 3-1.2l.1-.1c.1-.1.2-.1.3 0a.263.263 0 0 1 .067.102c.021.066-.001.132-.067.198l-.1.1c-.9 1-2.1 1.4-3.3 1.4Zm-.1 1.9h.1c1.8 0 3.5-.6 4.8-1.9l.1-.1c.04-.04.063-.08.072-.119a.156.156 0 0 0-.01-.09.272.272 0 0 0-.062-.091c-.1-.1-.2-.1-.3 0l-.1.1c-1.3 1.2-2.9 1.8-4.6 1.8-1.7-.1-3.3-.8-4.5-2-.1-.1-.2-.1-.3 0-.1.1-.1.2 0 .3 1.3 1.3 3 2.1 4.8 2.1Zm20.3-11.5h5.8v-1.8c-.3-.8-.8-1.4-1.5-1.8-.7-.4-1.6-.5-2.3-.2-.9.3-1.7 1-2 2v1.8Zm-.7 0v-1.9c.4-1.2 1.3-2.1 2.4-2.5 1-.3 2-.2 2.9.2.9.5 1.5 1.2 1.8 2.2v2h1.2c.2 0 .3.1.3.3v1.9h3.9c.05 0 .1.025.138.063.022.023.04.05.051.08.007.019.01.038.01.057 0 .1-.1.2-.2.2h-3.9v1h5.206c.049-.452.428-.8.895-.8.5 0 .9.4.9.9s-.4.9-.9.9a.896.896 0 0 1-.85-.6h-5.25v.632a.199.199 0 0 1 .069-.029l.017-.002.014-.001h2.3c.1 0 .2.1.2.2v1.5h3.4c.1 0 .2.1.2.2s0 .2-.2.2h-3.6c-.1 0-.2-.1-.2-.2v-1.5h-2.1a.185.185 0 0 1-.1-.032V38.9h4c.1 0 .2.1.2.2s0 .2-.2.2h-4v.8c.1.2-.1.3-.3.3h-9c-.2 0-.3-.1-.3-.3v-.6h-2.4a.207.207 0 0 1-.152-.078.22.22 0 0 1-.032-.05.172.172 0 0 1-.017-.072v-1.2h-2.5c-.1 0-.2-.1-.2-.2s.1-.2.2-.2h2.7c.046 0 .091.02.127.052a.23.23 0 0 1 .05.063.18.18 0 0 1 .024.085v1.2h2.2v-2.132a.185.185 0 0 1-.1.032h-6.4a.194.194 0 0 1-.122-.048l-.008-.007a1.009 1.009 0 0 1-.97.755c-.5 0-1-.4-1-1 0-.5.4-1 1-1 .48 0 .962.37.997.933a.186.186 0 0 1 .102-.033h6.4a.17.17 0 0 1 .063.012.219.219 0 0 1 .038.02v-1.178a.398.398 0 0 1-.2.046h-2.5c-.1 0-.2-.1-.2-.2s.1-.2.2-.2h2.6c.034 0 .069.012.1.032v-1.064a.184.184 0 0 1-.1.032h-4.5c-.1 0-.2-.1-.2-.2s.1-.2.2-.2h4.5c.034 0 .069.012.1.032V31.6c0-.2.1-.3.3-.3h.7Zm8 8.4h-8.3v-7.8h8.3v7.8Zm-5.2-4.4c0 .38.2.72.5.918V37.4c0 .2.1.3.3.3h.5c.2 0 .3-.1.3-.3v-1.123c.353-.185.6-.556.6-.977 0-.6-.5-1.1-1.1-1.1-.6 0-1.1.5-1.1 1.1Zm11.5-.3c0-.2.2-.4.4-.4s.4.2.4.4-.2.4-.4.4-.4-.2-.4-.4Zm-22.9 1.2c-.3 0-.5.2-.5.5s.2.5.5.5.5-.2.5-.5-.2-.5-.5-.5Zm-28.14.765c-.1.22-.253.428-.46.635-.4.4-.9.5-1.4.5h-8.7c-.3 0-.5 0-.8-.1h-.1c-1.3-.5-2-1.9-1.5-3.2.2-.6.7-1.1 1.3-1.4.6-.3 1.3-.3 1.9-.1h.3c.1 0 .2-.1.2-.2.4-1.3 1.6-2.2 3-2.2.9 0 1.8.3 2.4.9.6.6 1 1.4 1 2.3 0 .1 0 .2.1.3h.3c.2-.1.3-.1.5-.1H22.96c1.1 0 1.9.9 1.8 2 0 .117-.011.23-.033.337-.065.08-.12.199-.107.328Zm3.874-8.954c.995 3.334-.261 6.917-3.083 8.86-.107.502-.39.945-.851 1.329-.4.3-1 .6-1.6.6h-8.7c-.3 0-.7-.1-1-.2h-.1c-1.6-.6-2.5-2.4-1.9-4 .3-.8.9-1.4 1.6-1.8a4.451 4.451 0 0 1 .57-.198 8.09 8.09 0 0 1-.297-3.07.279.279 0 0 1 .025-.226c.373-3 2.407-5.657 5.402-6.606 2-.6 4.2-.5 6 .5 1.811.953 3.168 2.452 3.81 4.41a.23.23 0 0 1 .063.075.238.238 0 0 1 .027.115.331.331 0 0 1 .034.211ZM14.847 32.57l.114.03.033-.075-.147.045Zm.398-.508c.543-.852 1.41-1.457 2.382-1.722a19.316 19.316 0 0 1-.356-1.855l-3.526 1.25c-.066.849.014 1.719.257 2.572l.898-.277c.136-.052.272-.033.345.032Zm3-1.842a4.18 4.18 0 0 1 .216-.02c.503 0 1.033.102 1.523.292l3.594-1.287a15.227 15.227 0 0 0-1.063-2.578l-4.644 1.646c.078.607.201 1.258.375 1.947Zm2.509.668c.184.122.355.26.507.412.591.507.968 1.228 1.131 1.982l1.87-.663a13.94 13.94 0 0 0-.507-2.806l-3.001 1.075Zm2.344 2.815c.434.037.839.18 1.187.402l.005-.156.002-.107c.003-.191.003-.378 0-.563l-1.194.424Zm2.366 2.403a7.157 7.157 0 0 0 2.584-4.16l-3.082 1.094c.034.563.037 1.133.011 1.711.286.387.463.853.487 1.355Zm2.698-4.871-3.25 1.153a13.936 13.936 0 0 0-.58-2.781l3.592-1.287c.268.981.343 1.968.238 2.915Zm-.433-3.516-3.588 1.284a17.359 17.359 0 0 0-1.066-2.574l3.162-1.12a7.282 7.282 0 0 1 1.492 2.41Zm-1.997-2.902-2.962 1.05c-.77-1.342-1.665-2.368-2.562-2.833 1.38-.127 2.798.102 4.053.766a7.538 7.538 0 0 1 1.47 1.017Zm-5.862-1.303c.772.387 1.606 1.322 2.333 2.553l-4.401 1.56c-.2-2.421.343-4.013 1.167-4.313.2 0 .5 0 .9.2Zm-2.17.219c-.506.896-.679 2.345-.506 4.109l-3.36 1.19c.391-2.237 1.795-4.249 3.867-5.3Z" class="-path--primary" fill="#083176"/>
</svg>
