<svg id="icon-people-attacker" viewBox="0 0 96 96" xmlns="http://www.w3.org/2000/svg">
  <path fill-rule="evenodd" d="M50.626 40.672c-8.54 0-15.484-8.251-15.484-18.34S42.086 4 50.626 4c8.541 0 15.493 8.251 15.493 18.332 0 10.081-6.952 18.34-15.493 18.34Zm21.209 34.957V52.103H25.256c.194-.125.394-.243.6-.352l8.126-4.343 2.892-1.658a8.315 8.315 0 0 1 6.869-.578l4.067 1.448a8.369 8.369 0 0 0 5.7 0l3.88-1.425a8.315 8.315 0 0 1 6.951.555l2.922 1.628 8.225 4.373a8.246 8.246 0 0 1 4.398 7.32v8.252c.008 4.493-3.573 8.16-8.051 8.306Zm-48.902-3.651V54.354a8.26 8.26 0 0 0-1.469 4.665v8.251c0 1.748.543 3.37 1.47 4.708Zm28.984 3.03a8.365 8.365 0 0 0 4.293-7.321 8.36 8.36 0 0 0-4.564-7.456c-4.126-2.11-9.188-.487-11.305 3.623-2.117 4.11-.488 9.15 3.638 11.259v3.293h7.938v-3.398Z" class="-path--shadow" fill="#38C6F4"/>
  <path fill-rule="evenodd" d="M59.356 63.111a.614.614 0 1 1 1.225 0 .614.614 0 0 1-.612.616.614.614 0 0 1-.613-.615Zm.613-1.755a1.754 1.754 0 0 0-1.57 2.536l-2.243 2.227h-1.068a.57.57 0 0 0 0 1.14h1.303a.57.57 0 0 0 .402-.165l2.416-2.4a1.754 1.754 0 0 0 2.512-1.582c0-.968-.783-1.756-1.752-1.756Zm-27.372 1.958c0-.341.275-.615.612-.615.337 0 .613.274.613.615a.614.614 0 0 1-.613.615.614.614 0 0 1-.612-.615Zm.612-1.755c-.969 0-1.752.787-1.752 1.755a1.754 1.754 0 0 0 2.53 1.573l2.404 2.407a.57.57 0 0 0 .403.168h1.213a.57.57 0 1 0 0-1.14h-.976l-2.243-2.246a1.754 1.754 0 0 0-1.58-2.517Zm-1.438 8.236a.614.614 0 0 0-.613.615.614.614 0 1 0 1.225 0 .614.614 0 0 0-.612-.616Zm-1.753.615a1.754 1.754 0 0 1 3.413-.563h5.103v1.14h-5.108a1.753 1.753 0 0 1-3.408-.577Zm32.097-.615a.614.614 0 0 0-.612.615c0 .34.275.615.612.615a.614.614 0 0 0 .613-.615.614.614 0 0 0-.613-.615Zm-1.66.052a1.753 1.753 0 0 1 3.413.563 1.754 1.754 0 0 1-3.408.577h-5.522v-1.14h5.517Zm-6.933 4.216h2.874l2.427 2.435a1.754 1.754 0 0 0 1.402 2.808c.969 0 1.752-.787 1.752-1.755a1.754 1.754 0 0 0-2.19-1.7l-2.751-2.76a.57.57 0 0 0-.404-.168h-3.11v1.14Zm-16.728-.698a.57.57 0 0 0-.404.168l-2.534 2.548a1.754 1.754 0 0 0-2.512 1.582c0 .968.783 1.755 1.752 1.755a1.754 1.754 0 0 0 1.57-2.535l2.365-2.378h3.062v-1.14h-3.299Zm22.818 4.186a.614.614 0 1 1 1.225 0 .614.614 0 0 1-.612.615.614.614 0 0 1-.613-.615Zm-26.516-.503a.614.614 0 0 0-.612.615c0 .341.275.615.612.615a.614.614 0 0 0 .613-.615.614.614 0 0 0-.613-.615Z" fill="#D62015"/>
  <path fill-rule="evenodd" d="M46.77 7.132c-7.99 0-14.649 8.077-14.649 18.261s6.674 18.262 14.648 18.262c7.967 0 14.648-8.07 14.648-18.262 0-10.191-6.659-18.261-14.648-18.261ZM30.99 25.393C30.99 14.823 37.94 6 46.77 6c8.828 0 15.78 8.815 15.78 19.393 0 10.58-6.976 19.394-15.78 19.394-8.814 0-15.78-8.822-15.78-19.394Zm28.948 23.592a7.182 7.182 0 0 0-5.993-.468l-4.341 1.597-.003.001a8.34 8.34 0 0 1-5.677 0h-.002l-4.533-1.61a7.19 7.19 0 0 0-5.903.488l-3.138 1.752-.477.255h33.697l-.456-.242-3.174-1.773ZM65.983 51l-2.33-1.236-3.163-1.767a8.314 8.314 0 0 0-6.938-.542l-4.337 1.596a7.207 7.207 0 0 1-4.907 0l-4.54-1.613a8.321 8.321 0 0 0-6.832.566l-3.127 1.745L27.473 51h-4.815a.658.658 0 0 0-.658.658v2.272l-.625.335A8.25 8.25 0 0 0 17 61.542v9.228c.013 3.387 2.07 6.288 5 7.553v7.629c0 .363.294.657.658.657h48.901a.658.658 0 0 0 .658-.657v-7.956a8.258 8.258 0 0 0 4.329-7.251v-9.189a8.266 8.266 0 0 0-4.329-7.247v-2.651A.658.658 0 0 0 71.56 51h-5.577Zm3.927 3.365.992.527v30.402H23.315V54.51l.27-.145H69.91Zm-47.91.85-.091.048a7.12 7.12 0 0 0-3.777 6.279V70.765A7.127 7.127 0 0 0 22 77.071V55.214Zm50.217.413a7.131 7.131 0 0 1 3.197 5.93v9.186a7.117 7.117 0 0 1-3.197 5.932V55.628Zm-21.992 6.35c-3.805-1.944-8.47-.447-10.421 3.34-1.95 3.784-.451 8.428 3.352 10.372l.359.183v3.045h1.504v-1.63a.444.444 0 0 1 .881-.105.251.251 0 0 1 0 .105v1.63h1.965v-1.63a.438.438 0 0 1 .874-.082.15.15 0 0 1 0 .082v1.63h1.406v-3.125l.336-.188a7.73 7.73 0 0 0 3.95-6.754v-.003a7.702 7.702 0 0 0-4.206-6.87Zm.599-1.17c-4.448-2.273-9.905-.526-12.19 3.907-2.222 4.314-.618 9.576 3.566 11.953v3.566h9.26v-3.68a9.043 9.043 0 0 0 4.286-7.704 9.017 9.017 0 0 0-4.922-8.042Zm-7.259 9.797c.96 0 1.74-.783 1.74-1.748s-.78-1.748-1.74-1.748-1.74.783-1.74 1.748.78 1.748 1.74 1.748Zm6.206 0c.96 0 1.74-.783 1.74-1.748s-.78-1.748-1.74-1.748-1.74.783-1.74 1.748.78 1.748 1.74 1.748ZM16 91.153c0-.363.294-.657.658-.657h63.467c.364 0 .658.294.658.657V92a.658.658 0 0 1-.658.658H16.658A.658.658 0 0 1 16 92v-.847Z" class="-path--primary" fill="#083176"/>
</svg>
