<svg id="icon-business-contracts" viewBox="0 0 96 96" xmlns="http://www.w3.org/2000/svg">
  <path fill-rule="evenodd" d="M81.3 2h-66c-.9 0-1.7.8-1.7 1.7v83.5c.1.9.9 1.6 1.8 1.6H81.3c.9 0 1.7-.8 1.7-1.7V55.4l-7 14.3c-.1.1-.2.3-.3.4l-4.4 4.6c-.4.5-1.2.6-1.7.1-.3-.3-.5-.7-.4-1.2l.9-6.3c0-.1.1-.3.1-.4L82 43.3c.2-.4.6-.7 1-.8V3.6c0-.9-.8-1.7-1.7-1.6Z" class="-path--shadow" fill="#38C6F4"/>
  <path fill-rule="evenodd" d="M10.5 7.3c-.9 0-1.7.7-1.7 1.6v82.2c0 .9.7 1.6 1.6 1.6h64.9c.9 0 1.6-.7 1.6-1.6V67.7l1.3-2.6V91c0 1.6-1.3 2.9-2.9 2.9H10.5c-1.6 0-2.9-1.3-2.9-2.9V8.9C7.6 7.3 8.9 6 10.5 6h64.9c1.6 0 2.9 1.3 2.9 2.9V51L77 53.5V8.9c0-.9-.7-1.6-1.6-1.6H10.5Zm5.4 10.3c0-.3.3-.6.6-.6h43.6c.3 0 .6.3.6.6s-.3.6-.6.6H16.5c-.4 0-.6-.2-.6-.6Zm0 11.1c0-.3.3-.6.6-.6h43.6c.3 0 .6.3.6.6s-.3.6-.6.6H16.5c-.4 0-.6-.2-.6-.6Zm.6 9.9c-.3 0-.6.3-.6.6s.3.6.6.6h21.8c.3 0 .6-.3.6-.6s-.3-.6-.6-.6H16.5ZM32.1 81c0-.3.3-.6.6-.6h32.7c.3 0 .6.3.6.6s-.3.6-.6.6H32.8c-.4 0-.7-.2-.7-.6Z" class="-path--primary" fill="#083176"/>
  <path fill-rule="evenodd" d="m83.9 42.1 3.5 1.7c1 .5 1.3 1.6.8 2.6L76.6 70a.981.981 0 0 1-.2.25c-.075.075-.15.15-.2.25l-4.4 4.6c-.6.8-1.7.8-2.5.2-.5-.5-.7-1.2-.6-1.8l.9-6.3c0-.2.1-.4.2-.6l11.6-23.5c.4-1 1.5-1.4 2.5-1Zm-8.5 27.3 11.7-23.6c.1-.4 0-.7-.4-.7l-3.4-1.7c-.3-.2-.7 0-.8.3L70.9 67.3c-.057.058-.082.082-.092.111-.008.022-.008.047-.008.09l-1 6.3c0 .2 0 .4.2.5.3.2.6.1.8-.1l4.4-4.6c.1 0 .2-.1.2-.2Zm-12.8 6.9c-2 .4-4 .4-6 .1-1-.4-2-.5-3-.3 0 0-.1 0-.1.1-.4.2-.8.4-1.2.5-.2.1-.5 0-.8-.1-.15-.05-.3-.125-.45-.2-.15-.075-.3-.15-.45-.2-.05 0-.075-.025-.1-.05-.025-.025-.05-.05-.1-.05-.4-.2-.8-.4-1.2-.5-.5-.1-.9-.1-1.4.3l-.8.8c-.1.1-.2.1-.3.1V76.2c0-.1 0-.3-.1-.5-.2-.6-.7-.9-1.2-1-.5-.1-1 0-1.5.2a3.947 3.947 0 0 0-.672.455c-.113.089-.22.173-.328.245-.3.3-.6.5-.8.6H42v-.5c.5-1.8 1.4-3.4 2.6-4.8.2-.2.3-.5.4-.9.1-.3.1-.8-.3-1.1-.3-.2-.7-.3-1.1-.2-.9.1-1.7.6-2.4 1.2-.6.6-1.2 1.4-1.6 2L36 77.2c-.2.2-.1.5.1.7.2.2.5.1.7-.1l3.6-5.3c.5-.7 1-1.4 1.5-1.9.6-.5 1.2-.9 1.8-1h.3v.2c0 .1-.1.3-.2.5-1.3 1.5-2.2 3.2-2.8 5.1v.1c0 .1-.011.2-.022.3-.023.2-.045.4.022.6.1.3.3.6.7.8h.1c.3 0 .6 0 .8-.2.256-.128.472-.297.672-.455.113-.089.22-.173.328-.245.3-.3.6-.5.8-.6.2-.1.6-.2.8-.1.3.1.4.2.4.3V76.5c0 .3 0 .7.4 1h.1c.5.3 1.2.2 1.6-.3.063-.063.126-.136.193-.213.144-.167.302-.35.507-.487.2-.1.4-.1.6-.1.3.1.6.2 1 .4.05 0 .075.025.1.05.025.025.05.05.1.05.3.2.7.4 1 .5.4.2.9.2 1.4.1h.1l1.2-.6c.8-.1 1.7 0 2.4.3h.1c2.1.4 4.3.4 6.5-.1.3-.1.4-.3.4-.6-.2-.1-.5-.2-.7-.2ZM24.8 72c-.2-.2-.6-.2-.9 0l-3 3-3-3c-.2-.2-.6-.2-.9 0-.2.2-.2.6 0 .9l3 3-3 3c-.2.2-.2.6 0 .9.2.2.6.2.9 0l3-3 3 3c.2.2.6.2.9 0 .2-.2.2-.6 0-.9l-3-3 3-3c.3-.3.3-.7 0-.9Z" fill="#E1251B"/>
</svg>
