<svg id="icon-people-engineers" viewBox="0 0 96 96" xmlns="http://www.w3.org/2000/svg">
  <path fill-rule="evenodd" d="M57.156 33.35c0 8.45-5.641 15.3-12.6 15.3s-12.6-6.85-12.6-15.3c0-8.45 5.641-15.3 12.6-15.3s12.6 6.85 12.6 15.3Zm1.2 20.9 6.8 3.6c2.2 1.2 3.6 3.5 3.5 6.1v6.8c0 3.8-3.1 6.9-6.9 6.9v-.1h-34.6c-3.8 0-6.9-3.1-6.9-6.9v-6.8c.1-2.6 1.5-4.9 3.7-6.1l6.8-3.6 2.4-1.3c1.7-1 3.8-1.2 5.7-.5l3.4 1.2c1.5.6 3.2.6 4.7 0l3.2-1.2c1.9-.7 4-.5 5.8.5l2.4 1.4Z" class="-path--shadow" fill="#38C6F4"/>
  <path fill-rule="evenodd" d="M34.803 23.72c2.157-2.38 4.989-3.812 8.053-3.812C49.47 19.908 55 26.575 55 35.05c0 4.806-1.779 9.03-4.524 11.788l-.019.012c-2.1 2.1-4.7 3.3-7.6 3.3-5.5 0-10.2-4.6-11.6-10.9l-.5-4.1v-.1c0-4.4 1.5-8.3 3.9-11.1l.147-.23Zm20.525 17.52c.637-1.922.986-4.015.986-6.19 0-8.925-5.87-16.458-13.458-16.458-7.587 0-13.457 7.533-13.457 16.458v.1H11.556c-.4 0-.7.3-.7.7v44.1l-8.9 6.4-.1.1c-.2.1-.3.3-.3.5v1.1c0 .4.3.7.7.7h81.3c.4 0 .7-.3.7-.7v-1.1c0-.146-.053-.24-.121-.357a2.515 2.515 0 0 1-.079-.143c0-.062-.038-.085-.09-.118a.553.553 0 0 1-.11-.082l-9.1-6.4c0-.05.025-.1.05-.15.025-.05.05-.1.05-.15v-43.7c0-.4-.3-.7-.7-.7h-17.1c-.1 1.4-.4 2.8-.9 4.1h17.4v39.8h-8.7c1.9-1.3 3.2-3.5 3.2-5.9v-7.7c0-2.6-1.5-5-3.8-6.3l-6-3.2-3.5-1.9-.4-.2c-1.8-1-4-1.2-6-.5l-3.5 1.4c-1.3.5-2.7.5-4 0l-3.8-1.4c-1.9-.7-4.1-.5-5.9.5l-9.7 5.2a7.09 7.09 0 0 0-3.8 6.3v7.8c0 1.9.8 3.7 2.1 5 .3.3.7.6 1.1.9h-8.6v-39.8h17.587c1.502 6.967 6.654 12.258 13.013 12.258 3.822 0 7.208-1.911 9.627-4.949 1.224-1.518 2.2-3.324 2.845-5.32Zm8.328 19.11-1.8-1v19.5c2.8-.4 4.9-2.8 4.9-5.7v-7.7c0-2.1-1.2-4.1-3.1-5.1Zm-3.1-1.7-5.9-3.2-11.1 8.9v14.6h17v-20.3Zm-23.9-4.1c-.7-.2-1.3-.3-2-.3-.8 0-1.5.2-2.3.5l10.5 8.4 10.5-8.5c-1.4-.6-3-.6-4.4-.1l-3.6 1.4c-1.6.6-3.3.6-4.9 0l-3.8-1.4Zm-5.5.9-5.9 3.2v20.3h17v-14.5l-11.1-9Zm-12.2 17.7c0 1.6.6 3 1.7 4.1.9.9 2.1 1.4 3.3 1.7v-19.6l-1.9 1c-1.9 1-3.1 3-3.1 5.1v7.7Zm-6.8 7.6-7.6 5.5h76.9l-7.8-5.5h-61.5Z" class="-path--primary" fill="#083176"/>
  <path fill-rule="evenodd" d="m67.114 28.091-7.608 2.567 3.862-5.694V7.854a.612.612 0 0 1 .614-.604h29.856c.335 0 .606.27.606.604v19.634a.605.605 0 0 1-.606.603H67.114Zm15.435-10.53c.011.19.011.379 0 .568a4.21 4.21 0 0 1-.043.523l1.657 1.266-1.401 2.392-1.906-.77c-.292.22-.61.4-.95.538l-.262 2.021h-2.782l-.263-2.036a4.301 4.301 0 0 1-.964-.567l-1.891.778-1.387-2.4 1.68-1.309v-.458c0-.244.024-.488.072-.727l-1.599-1.23 1.395-2.392 2.015.844c.228-.158.473-.29.73-.393l.27-2.072h2.782l.27 2.072c.315.13.612.299.884.502l1.964-.815 1.388 2.4-1.659 1.266Zm-6.315.546c0 1.117.909 2.021 2.03 2.021h.014a2.018 2.018 0 0 0 2.016-2.021c0-1.116-.91-2.022-2.03-2.022-1.121 0-2.03.905-2.03 2.022Z" class="-path--secondary" fill="#FF9E18"/>
</svg>
