<svg id="icon-products-upload-download" viewBox="0 0 96 96" xmlns="http://www.w3.org/2000/svg">
  <path fill-rule="evenodd" d="M7.25 72.45h86.3c.4 0 .6-.3.6-.7v-22.9c0-.3-.2-.6-.6-.6h-17.4c-.2 0-.4.1-.5.2l-12.7 13.2-12.6-13.1a2.614 2.614 0 0 1-.143-.078c-.118-.068-.21-.122-.357-.122h-11c-.3 0-.6.2-.6.6v13h-12.3v-13c0-.3-.2-.6-.6-.6H7.25c-.3 0-.6.2-.6.6v22.9c0 .3.2.6.6.6Z" class="-path--shadow" fill="#38C6F4"/>
  <path fill-rule="evenodd" d="M2.55 77.25h86.3c.4 0 .6-.3.7-.7v-22.9c0-.4-.3-.7-.7-.7h-17.3c-.4 0-.7.3-.7.7 0 .4.3.7.7.7h16.7v21.6h-85v-21.6h22.1c.4 0 .7-.3.7-.7 0-.4-.3-.7-.7-.7H2.55c-.4 0-.7.3-.7.7v22.9c0 .4.3.7.7.7Zm36.4-24.26a.66.66 0 1 0 0 1.32h15.5a.66.66 0 1 0 0-1.32h-15.5Z" class="-path--primary" fill="#083176"/>
  <path fill-rule="evenodd" d="M62.55 62.95c.1.1.3.2.5.2.1 0 .3 0 .6-.2l15.4-16c.2-.2.2-.5.1-.7-.1-.2-.3-.4-.6-.4h-8v-26.4c0-.4-.3-.7-.7-.7h-13.6c-.4 0-.7.3-.7.7v26.4h-8c-.3 0-.5.2-.6.4-.1.2-.1.5.1.7l15.5 16Zm.5-1.4-13.9-14.4h7c.4 0 .7-.3.7-.7v-26.3h12.3v26.3c0 .4.3.7.7.7h7.1l-13.9 14.4Zm-37.7 1.6h13.6c.3 0 .6-.3.6-.6v-26.4h8c.3 0 .5-.2.6-.4.1-.2.1-.5-.1-.7l-15.5-16c-.3-.3-.8-.3-1 0l-15.4 16c-.2.2-.2.5-.1.7.1.2.3.4.6.4h8v26.3c0 .4.3.7.7.7Zm12.9-1.3h-12.2v-26.3c0-.4-.3-.7-.7-.7h-7.1l13.9-14.4 13.9 14.3h-7.1c-.4 0-.7.3-.7.7v26.4Z" class="-path--secondary" fill="#FF9E18"/>
</svg>
