<svg id="icon-business-reliability" viewBox="0 0 96 96" xmlns="http://www.w3.org/2000/svg">
  <path fill-rule="evenodd" d="M47.487 21.962a.31.31 0 0 1 .309-.268l11.051.065a.31.31 0 0 1 .306.274l1.004 8.545c.91.456 1.779.99 2.597 1.597l7.578-3.133a.31.31 0 0 1 .388.133l5.512 9.665a.31.31 0 0 1-.081.4l-6.501 4.983c.139 1.264.139 2.54 0 3.804l6.574 5.12a.31.31 0 0 1 .078.4l-5.583 9.643a.31.31 0 0 1-.388.13l-7.519-3.166c-.566.43-1.158.824-1.773 1.18h-.001c-.566.324-1.148.614-1.746.872l-1.098 8.122a.31.31 0 0 1-.309.269l-11.08-.057a.31.31 0 0 1-.306-.272l-1-8.086a17.133 17.133 0 0 1-3.533-2.078l-7.349 3.052a.31.31 0 0 1-.388-.133l-5.512-9.68a.31.31 0 0 1 .081-.398l6.389-4.906a17.785 17.785 0 0 1 .06-4.2l-6.315-4.901a.31.31 0 0 1-.079-.4l5.576-9.651a.31.31 0 0 1 .389-.13l7.566 3.203a17.064 17.064 0 0 1 4.02-2.157l1.083-7.841Zm1.358 34.207c4.448 0 8.054-3.635 8.054-8.119s-3.606-8.119-8.054-8.119-8.054 3.635-8.054 8.119 3.606 8.119 8.054 8.119Z" class="-path--shadow" fill="#38C6F4"/>
  <path fill-rule="evenodd" d="M43.248 13.36c.053.446.159.875.312 1.281a33.584 33.584 0 0 0-21.004 12.383 5.447 5.447 0 0 0-.913-.96A34.89 34.89 0 0 1 43.248 13.36ZM16.295 35.344a35.49 35.49 0 0 0-.25 25.208c.397-.168.819-.29 1.259-.359a34.16 34.16 0 0 1 .27-24.527 5.326 5.326 0 0 1-1.28-.322Zm14.713 43.097a34.246 34.246 0 0 1-9.719-8.472c.355-.259.678-.56.96-.895a32.934 32.934 0 0 0 9.412 8.231 32.686 32.686 0 0 0 11.675 4.12 5.432 5.432 0 0 0-.295 1.284 33.99 33.99 0 0 1-12.033-4.268Zm22.752 4.197a34.889 34.889 0 0 0 21.597-12.702 5.446 5.446 0 0 1-.911-.962 33.584 33.584 0 0 1-20.998 12.383c.153.406.26.836.312 1.281Zm27.2-47.181a35.49 35.49 0 0 1-.256 25.202 5.322 5.322 0 0 0-1.28-.319 34.16 34.16 0 0 0 .275-24.526 5.33 5.33 0 0 0 1.26-.357ZM53.966 13.292a5.433 5.433 0 0 1-.296 1.284 32.682 32.682 0 0 1 11.668 4.119c3.742 2.184 6.9 5 9.419 8.24a5.44 5.44 0 0 1 .96-.895 34.247 34.247 0 0 0-9.726-8.48 33.989 33.989 0 0 0-12.025-4.268Zm-5.376 5.222a.655.655 0 0 1 .653.657l-.012 3.8 5.739.032c.33.002.607.249.646.576l1.03 8.48c.812.422 1.59.906 2.328 1.447l7.467-3.1a.655.655 0 0 1 .82.281l2.444 4.3 3.286-1.901a.655.655 0 0 1 .656 1.133l-3.294 1.906 2.484 4.37a.655.655 0 0 1-.17.844l-6.427 4.93a18.122 18.122 0 0 1 0 3.543l6.55 5.088c.26.201.33.563.165.846l-2.525 4.34 3.135 1.84a.655.655 0 1 1-.663 1.13l-3.13-1.839-2.5 4.295a.655.655 0 0 1-.823.273l-7.426-3.172c-.535.398-1.091.766-1.667 1.102l-.012.007c-.526.292-1.065.56-1.615.805l-1.087 8.038a.655.655 0 0 1-.653.568l-4.903-.029-.013 3.736a.655.655 0 1 1-1.31-.005l.013-3.738-5.001-.029a.655.655 0 0 1-.647-.574l-.99-7.992a17.61 17.61 0 0 1-3.308-1.95l-7.265 3.02a.655.655 0 0 1-.82-.28l-2.435-4.284-3.295 1.906a.655.655 0 0 1-.656-1.134l3.303-1.91-2.493-4.387a.655.655 0 0 1 .17-.843l6.273-4.824a18.266 18.266 0 0 1 .06-3.95l-6.244-4.86a.655.655 0 0 1-.163-.846l2.43-4.177-3.26-1.908a.655.655 0 0 1 .66-1.13l3.26 1.905 2.591-4.455a.655.655 0 0 1 .822-.274l7.474 3.165a17.826 17.826 0 0 1 3.819-2.036l1.041-7.744a.655.655 0 0 1 .653-.567l4.166.024.012-3.796a.655.655 0 0 1 .657-.653Zm5.796 5.796-5.674-.033a.662.662 0 0 1-.283-.001l-4.105-.024-1.017 7.562a.655.655 0 0 1-.428.529 16.515 16.515 0 0 0-4.167 2.217.655.655 0 0 1-.642.075l-7.282-3.083-2.55 4.384a.659.659 0 0 1-.164.281l-2.39 4.107 6.09 4.74c.186.144.28.377.246.61a16.955 16.955 0 0 0-.068 4.364.655.655 0 0 1-.252.593l-6.11 4.7 5.007 8.81 7.08-2.943a.655.655 0 0 1 .654.09 16.29 16.29 0 0 0 3.666 2.16c.216.092.366.29.394.523l.966 7.79 10.064.059 1.06-7.835a.655.655 0 0 1 .394-.516c.624-.263 1.234-.56 1.827-.89a16.47 16.47 0 0 0 1.825-1.235.655.655 0 0 1 .66-.086l7.245 3.095 5.102-8.77-6.387-4.961a.655.655 0 0 1-.248-.595 16.82 16.82 0 0 0 0-3.976.655.655 0 0 1 .251-.597l6.267-4.807-5.008-8.81-7.278 3.022a.655.655 0 0 1-.65-.085 16.505 16.505 0 0 0-2.732-1.701.655.655 0 0 1-.36-.508l-1.003-8.255ZM41.446 48.05a7.471 7.471 0 0 1 3.705-6.469l.001.002.008-.004c3.541-2.049 8.062-.818 10.098 2.757a7.518 7.518 0 0 1-.326 7.958 7.375 7.375 0 0 1-6.087 3.22c-4.082 0-7.4-3.337-7.4-7.464Zm16.108 0c0 1.751-.51 3.384-1.388 4.754a8.694 8.694 0 0 1-2.677 2.67 8.621 8.621 0 0 1-4.644 1.35c-3.23 0-6.046-1.77-7.55-4.397v.005l-.007-.01-.001-.003c-2.184-3.836-1.174-8.642 2.197-11.284a8.629 8.629 0 0 1 5.36-1.859c4.816 0 8.71 3.933 8.71 8.774Z" class="-path--primary" fill="#083176"/>
  <path fill-rule="evenodd" d="M48.604 17.537c2.644 0 4.787-2.16 4.787-4.825s-2.143-4.826-4.787-4.826-4.787 2.16-4.787 4.826c0 2.665 2.143 4.825 4.787 4.825Zm30.27 17.734c2.644 0 4.788-2.16 4.788-4.826 0-2.665-2.144-4.825-4.788-4.825s-4.787 2.16-4.787 4.825 2.143 4.826 4.787 4.826ZM23.02 30.273c0 2.665-2.143 4.826-4.787 4.826s-4.787-2.16-4.787-4.826c0-2.665 2.143-4.825 4.787-4.825s4.787 2.16 4.787 4.825Zm-4.886 40.114c2.644 0 4.787-2.16 4.787-4.825s-2.143-4.826-4.787-4.826-4.787 2.16-4.787 4.826c0 2.665 2.143 4.825 4.787 4.825Zm35.057 12.901c0 2.665-2.143 4.826-4.787 4.826-2.643 0-4.787-2.16-4.787-4.826 0-2.665 2.144-4.825 4.788-4.825 2.643 0 4.786 2.16 4.786 4.825Zm25.584-12.73c2.644 0 4.787-2.16 4.787-4.824 0-2.665-2.143-4.826-4.787-4.826s-4.787 2.16-4.787 4.826c0 2.665 2.143 4.825 4.787 4.825Z" class="-path--secondary" fill="#FF9E18"/>
</svg>
