<svg id="icon-products-voice" viewBox="0 0 96 96" xmlns="http://www.w3.org/2000/svg">
  <path fill-rule="evenodd" d="m48.5 89.708 13.24-12.712c-3.09-9.585-11.343-17.923-11.343-17.923l-8.043 3.162C32.044 52.262 27.351 25.47 27.351 25.47l10.915-3.296c-.093-14.5-3.207-20.806-3.207-20.806L18.586.712c-9.42 23.52 1.369 49.923 1.369 49.923C29.19 74.332 48.5 89.708 48.5 89.708Z" class="-path--shadow" fill="#38C6F4"/>
  <path fill-rule="evenodd" d="M13.081 5.425a.63.63 0 0 1 .611-.395l16.472.666c.231.01.438.144.54.35l-.565.28.566-.28.001.004.003.005.008.018.03.064c.026.055.062.136.107.242.09.211.216.526.367.946.302.84.7 2.105 1.101 3.823.802 3.437 1.609 8.685 1.655 15.98a.63.63 0 0 1-.448.608l-10.374 3.133.118.607a136.888 136.888 0 0 0 3.409 13.407c2.421 7.791 6.046 16.645 10.929 21.57l7.635-3.01a.63.63 0 0 1 .68.143l-.448.444.448-.444.007.008.02.019.072.075a47.931 47.931 0 0 1 1.263 1.376 62.55 62.55 0 0 1 3.207 3.951c2.468 3.306 5.347 7.849 6.918 12.736.073.23.01.481-.164.648L44.018 95.112a.631.631 0 0 1-.83.039l.392-.494-.392.494-.005-.004-.012-.01-.043-.034-.168-.137c-.146-.121-.361-.3-.637-.536a78.304 78.304 0 0 1-2.333-2.082 108.936 108.936 0 0 1-7.693-7.92c-6.01-6.838-13.195-16.665-17.848-28.603l-.007-.017-.024-.06-.09-.232a43.077 43.077 0 0 1-.332-.891 70.11 70.11 0 0 1-1.104-3.344 88.737 88.737 0 0 1-2.7-11.736c-1.53-9.6-1.884-22.212 2.889-34.12Zm30.467 88.388 12.54-12.049c-1.534-4.558-4.24-8.825-6.604-11.994a61.283 61.283 0 0 0-3.142-3.871 46.336 46.336 0 0 0-1.026-1.127l-7.625 3.006a.63.63 0 0 1-.67-.133c-5.281-5.109-9.075-14.443-11.544-22.388a138.125 138.125 0 0 1-3.441-13.536 77.041 77.041 0 0 1-.211-1.103l-.011-.06-.004-.02.622-.11-.622.11a.631.631 0 0 1 .44-.714l10.461-3.16c-.077-6.959-.856-11.961-1.618-15.23-.39-1.67-.775-2.888-1.06-3.683a17.194 17.194 0 0 0-.312-.81L14.09 6.309C9.605 17.8 9.945 29.975 11.439 39.347a87.48 87.48 0 0 0 2.66 11.567c.43 1.41.81 2.524 1.084 3.283a42.372 42.372 0 0 0 .408 1.085l.022.055.005.012.001.003.004.01c4.582 11.758 11.67 21.462 17.622 28.232a107.706 107.706 0 0 0 7.603 7.829 77.088 77.088 0 0 0 2.7 2.39Z" class="-path--primary" fill="#083176"/>
  <path fill-rule="evenodd" d="M59.136 33.611a.631.631 0 0 0-.249 1.237l.837.169c17.534 3.661 28.798 20.9 25.158 38.512a.63.63 0 1 0 1.236.256c3.78-18.29-7.917-36.2-26.138-40.004l-.844-.17ZM57.309 43.82a.631.631 0 0 1 .742-.497l.6.119.037.008h.003c12.602 2.625 20.694 15.008 18.082 27.655a.631.631 0 0 1-1.236-.255c2.472-11.97-5.188-23.683-17.103-26.164l-.035-.007-.594-.118a.631.631 0 0 1-.496-.741Zm.048 10.039a.63.63 0 0 1 .729-.515l.305.052.01.002c6.356 1.326 10.435 7.57 9.12 13.947a.63.63 0 1 1-1.236-.255c1.175-5.696-2.467-11.267-8.13-12.454l-.283-.048a.63.63 0 0 1-.515-.73Z" class="-path--secondary" fill="#FF9E18"/>
</svg>
