<svg id="icon-products-collaboration" viewBox="0 0 96 96" xmlns="http://www.w3.org/2000/svg">
  <path fill-rule="evenodd" d="M23.367 54.424c-5.625 0-10.203-5.316-10.203-11.852 0-6.537 4.578-11.86 10.203-11.86 5.625 0 10.21 5.323 10.21 11.86 0 6.536-4.585 11.852-10.21 11.852ZM37.15 77.001H9.64c-3.031 0-5.489-2.402-5.489-5.365V66.305c-.004-1.973 1.098-3.79 2.87-4.734l5.353-2.805 1.908-1.045a5.609 5.609 0 0 1 4.578-.365l2.683.933a5.623 5.623 0 0 0 3.746 0l2.554-.926a5.609 5.609 0 0 1 4.6.35l1.93 1.06 5.395 2.805c1.774.942 2.877 2.76 2.87 4.734v5.324c-.004 2.961-2.46 5.36-5.49 5.365Zm36.692-22.577c-5.625 0-10.202-5.316-10.202-11.852 0-6.537 4.577-11.86 10.202-11.86 5.626 0 10.21 5.323 10.21 11.86 0 6.536-4.585 11.852-10.21 11.852Zm13.783 22.577H60.117c-3.033-.004-5.49-2.408-5.49-5.372v-5.324c-.003-1.973 1.098-3.79 2.87-4.734l5.353-2.805 1.93-1.045a5.609 5.609 0 0 1 4.528-.365l2.683.933a5.623 5.623 0 0 0 3.746 0l2.554-.926a5.61 5.61 0 0 1 4.6.35l1.929 1.06 5.396 2.805c1.788.933 2.905 2.753 2.905 4.734v5.324C93.117 74.6 90.658 77 87.625 77Z" class="-path--shadow" fill="#38C6F4"/>
  <path fill-rule="evenodd" d="M30.491 16.34h18.886v10.579H33.409l-6.047 1.97 3.13-4.588v-7.962Zm1.322 1.32v7.048l-1.176 1.724 2.562-.835h14.856v-7.936H31.813Zm12.038 3.564a.27.27 0 0 0-.279.258c0 .128.11.258.28.258a.27.27 0 0 0 .279-.258.27.27 0 0 0-.28-.258Zm-1.6.258c0-.887.73-1.58 1.6-1.58.87 0 1.6.693 1.6 1.58 0 .886-.73 1.58-1.6 1.58-.87 0-1.6-.694-1.6-1.58Zm-2.682 0a.27.27 0 0 1 .279-.258c.168 0 .279.13.279.258a.27.27 0 0 1-.28.258.27.27 0 0 1-.279-.258Zm.279-1.58c-.87 0-1.6.693-1.6 1.58 0 .886.73 1.58 1.6 1.58.87 0 1.6-.694 1.6-1.58 0-.887-.73-1.58-1.6-1.58Zm-3.86 1.322a.27.27 0 0 0-.28.258c0 .128.111.258.28.258a.27.27 0 0 0 .279-.258.27.27 0 0 0-.28-.258Zm-1.601.258c0-.887.73-1.58 1.6-1.58.87 0 1.601.693 1.601 1.58 0 .886-.73 1.58-1.6 1.58-.87 0-1.601-.694-1.601-1.58ZM11.845 44.83c0-6.438 4.296-11.466 9.326-11.466s9.327 5.055 9.327 11.466c0 6.41-4.303 11.466-9.327 11.466-5.03 0-9.326-5.028-9.326-11.466Zm9.326-12.787c-5.99 0-10.648 5.871-10.648 12.787 0 6.915 4.659 12.787 10.648 12.787 5.984 0 10.649-5.9 10.649-12.787 0-6.887-4.658-12.787-10.649-12.787Zm4.846 27.962a4.538 4.538 0 0 1 3.705.28h.001l2.078 1.146 5.595 2.92c1.435.752 2.322 2.21 2.322 3.785v5.925c-.007 2.356-1.97 4.285-4.417 4.278H7.073c-2.451 0-4.412-1.938-4.412-4.298v-5.926c.002-1.573.885-3.028 2.315-3.784l.002-.001 5.578-2.902 2.065-1.129A4.509 4.509 0 0 1 16.26 60l2.975 1.037a5.793 5.793 0 0 0 3.91-.001l2.87-1.032Zm4.339-.88a5.86 5.86 0 0 0-4.788-.364l-2.87 1.031c-.973.35-2.044.35-3.018 0l-2.983-1.04a5.83 5.83 0 0 0-4.711.388L9.94 60.26l-5.576 2.9-.003.002c-1.854.98-3.02 2.879-3.022 4.954v5.926c0 3.118 2.582 5.62 5.734 5.62h28.224L35.3 79v.66c3.147.008 5.732-2.484 5.74-5.597v-5.928c0-2.079-1.17-3.98-3.03-4.955l-5.583-2.914-2.067-1.14-.003-.001ZM9.94 60.26l.006-.003.305.586-.317-.58.006-.003Zm52.38-15.43c0-6.444 4.296-11.465 9.327-11.465 5.03 0 9.326 5.055 9.326 11.466 0 6.41-4.303 11.466-9.326 11.466-5.031 0-9.327-5.021-9.327-11.466Zm9.327-12.786c-5.99 0-10.648 5.864-10.648 12.787 0 6.923 4.658 12.787 10.648 12.787 5.983 0 10.648-5.9 10.648-12.787 0-6.886-4.657-12.787-10.648-12.787Zm4.824 27.962a4.538 4.538 0 0 1 3.705.28l2.08 1.146 5.594 2.92c1.435.753 2.322 2.21 2.322 3.785v5.925c-.007 2.356-1.97 4.285-4.418 4.278H57.548c-2.45 0-4.412-1.938-4.412-4.298v-5.926c.002-1.574.886-3.029 2.316-3.785h.001l5.544-2.903L63.06 60.3a4.51 4.51 0 0 1 3.655-.3l2.975 1.038a5.793 5.793 0 0 0 3.91-.001l2.87-1.032Zm4.339-.88a5.86 5.86 0 0 0-4.788-.364l-2.87 1.031c-.973.35-2.044.35-3.018 0l-2.983-1.04a5.83 5.83 0 0 0-4.725.388l.317.58-.318-.58-2.046 1.12-5.54 2.9-.003.001c-1.854.98-3.019 2.879-3.021 4.954v5.926c0 3.118 2.581 5.62 5.733 5.62h28.203l.002-.661v.66c3.147.009 5.731-2.483 5.74-5.596v-5.928c0-2.079-1.17-3.98-3.03-4.955l-5.583-2.914-2.068-1.14-.002-.001ZM60.38 60.26l.005-.002.306.585-.317-.58.005-.003Z" class="-path--primary" fill="#083176"/>
  <path fill-rule="evenodd" d="M40.637 26.875v6.726h16.81l4.679 1.55-2.368-3.437v-8.177H49.312v3.338h-8.675Zm4.276 1.55c0 .554.46 1.003 1.026 1.003h.007c.563 0 1.019-.446 1.019-.996v-.007c0-.554-.46-1.003-1.026-1.003-.567 0-1.026.45-1.026 1.003Zm4.37 0c0 .554.459 1.003 1.026 1.003h.007c.562 0 1.018-.446 1.018-.996v-.007c0-.554-.459-1.003-1.025-1.003-.567 0-1.026.45-1.026 1.003Zm4.204.007c.004.554.466 1 1.033.996a1.014 1.014 0 0 0 1.019-.996v-.014c-.004-.554-.467-1-1.033-.996a1.014 1.014 0 0 0-1.019 1.01Z" class="-path--secondary" fill="#FF9E18"/>
</svg>
