<svg id="icon-business-big-data" viewBox="0 0 96 96" xmlns="http://www.w3.org/2000/svg">
  <path class="-path--shadow" fill="#38C6F4" d="M50.3 36.4c-2.4 0-4.61.39-6.24 1.03-.82.33-1.52.72-2.02 1.2-.5.47-.86 1.07-.86 1.76v13.87c.13 1.25 1.26 2.2 2.75 2.8 1.54.63 3.66 1 6.17 1 2.52 0 4.73-.37 6.36-1 .82-.3 1.51-.68 2.02-1.14a2.6 2.6 0 0 0 .95-1.66V40.39c0-.7-.35-1.29-.85-1.76-.51-.48-1.21-.88-2.02-1.2a17.54 17.54 0 0 0-6.25-1.03Z"/>
  <path class="-path--primary" fill="#083176" fill-rule="evenodd" d="M44.68 9.58c.9-.35 2.08-.56 3.36-.56 1.28 0 2.45.21 3.33.58.43.18.83.41 1.12.7a1.63 1.63 0 0 1 .52 1.3V18.04c-.04.45-.28.83-.59 1.11-.3.29-.7.52-1.13.7-.89.36-2.06.57-3.38.57-1.3 0-2.44-.2-3.28-.58-.8-.35-1.52-.94-1.6-1.8V11.8a1.39 1.39 0 0 1-.05-.36c0-.48.25-.88.55-1.16.3-.3.7-.52 1.15-.7Zm6.68 3.73.33-.15v1.56c-.03.12-.2.4-.88.69a7.5 7.5 0 0 1-2.8.46 7.5 7.5 0 0 1-2.79-.46c-.68-.29-.85-.57-.87-.69v-1.56l.33.14c.9.37 2.08.58 3.36.58a9 9 0 0 0 3.32-.57Zm-6.92-1.66a.74.74 0 0 1-.1-.1.66.66 0 0 0-.02-.17.59.59 0 0 1 .12-.15c.14-.13.38-.28.73-.42.7-.28 1.71-.47 2.87-.47 1.15 0 2.14.2 2.82.48.34.14.57.3.7.42.13.14.14.2.14.22 0 0 0 .08-.14.2-.13.14-.36.29-.7.43a7.7 7.7 0 0 1-2.82.47 7.9 7.9 0 0 1-2.86-.48c-.35-.14-.6-.3-.74-.43Zm-.09 4.8v1.49c.02.14.19.42.81.7.63.27 1.56.46 2.75.46 1.2 0 2.2-.2 2.88-.47.34-.14.58-.3.73-.44.12-.12.16-.2.17-.25v-1.48l-.37.17c-.86.36-2.02.56-3.3.56a8.8 8.8 0 0 1-3.67-.73ZM24.68 18.98c-1.28 0-2.47.21-3.36.57-.44.17-.84.4-1.15.69-.3.29-.55.68-.55 1.16 0 .13.02.25.05.36v6.23c.08.85.8 1.44 1.6 1.8a8.4 8.4 0 0 0 3.29.57c1.32 0 2.49-.2 3.37-.57.82-.34 1.63-.92 1.72-1.8V21.4c0-.47-.23-.86-.53-1.15-.3-.29-.69-.52-1.12-.7a8.97 8.97 0 0 0-3.32-.57Zm3.65 4.12-.34.15c-.87.36-2.04.57-3.31.57a9.32 9.32 0 0 1-3.7-.7v1.54c.03.11.2.4.89.69.66.28 1.63.47 2.8.47 1.16 0 2.13-.2 2.79-.47.64-.27.83-.54.87-.67V23.1ZM21 21.5a2.36 2.36 0 0 0 .82.53c.7.28 1.71.47 2.87.47 1.15 0 2.14-.19 2.81-.47.34-.14.57-.29.7-.42.14-.13.14-.2.14-.2 0-.02 0-.09-.14-.22a2.23 2.23 0 0 0-.7-.42 7.67 7.67 0 0 0-2.81-.46c-1.16 0-2.17.18-2.87.46-.35.14-.59.3-.73.43-.06.06-.1.1-.11.13l.02.17Zm0 6.38V26.4c.12.07.24.13.37.18.86.36 2.02.57 3.3.57a8.74 8.74 0 0 0 3.67-.74v1.48c-.03.11-.2.4-.9.69-.68.28-1.68.46-2.87.46-1.2 0-2.13-.18-2.76-.46-.63-.27-.79-.55-.81-.69ZM14.94 42.36c-1.28 0-2.47.2-3.36.56-.44.18-.84.4-1.15.7-.3.28-.55.68-.55 1.16 0 .11.02.22.04.33v6.25c.08.86.8 1.45 1.6 1.8.85.37 1.98.58 3.3.58 1.31 0 2.49-.2 3.37-.57.82-.33 1.63-.92 1.72-1.8v-6.59c0-.47-.23-.86-.53-1.15-.3-.3-.69-.52-1.12-.7a8.97 8.97 0 0 0-3.32-.57Zm3.65 4.12-.33.15a9 9 0 0 1-3.32.56 9.36 9.36 0 0 1-3.7-.7v1.54c.03.12.2.4.88.7.67.27 1.64.46 2.8.46s2.13-.19 2.8-.47c.67-.28.84-.57.87-.69v-1.55Zm-7.35-1.61a.7.7 0 0 0 .1.11c.14.13.38.28.74.42.7.28 1.7.47 2.86.47 1.15 0 2.14-.19 2.82-.46.33-.14.56-.3.7-.42.13-.13.13-.2.13-.21 0-.01 0-.08-.13-.21a2.23 2.23 0 0 0-.7-.42 7.67 7.67 0 0 0-2.82-.47c-1.15 0-2.17.19-2.87.47-.35.14-.59.3-.73.42a.59.59 0 0 0-.12.15c.02.05.02.1.02.15Zm0 6.39v-1.49l.37.17c.87.37 2.02.57 3.3.57a8.74 8.74 0 0 0 3.68-.74v1.49c-.03.11-.2.4-.9.69-.69.28-1.68.47-2.88.47a7.1 7.1 0 0 1-2.75-.46c-.63-.28-.8-.56-.82-.7ZM77.8 42.89c.88-.36 2.07-.56 3.35-.56 1.27 0 2.44.2 3.32.56.43.18.82.41 1.12.7a1.62 1.62 0 0 1 .53 1.25v6.43a.7.7 0 0 1 0 .06c-.09.89-.9 1.47-1.72 1.8-.89.37-2.06.58-3.38.58-1.31 0-2.45-.21-3.29-.58-.8-.35-1.52-.94-1.6-1.8a.58.58 0 0 1 0-.06v-6.2c-.03-.1-.04-.2-.04-.32 0-.49.25-.88.55-1.17.3-.29.7-.51 1.15-.7Zm6.66 3.7c.12-.04.23-.1.34-.15V48c-.03.12-.2.4-.88.7-.66.27-1.63.46-2.8.46a7.48 7.48 0 0 1-2.8-.47c-.67-.28-.85-.57-.87-.69v-1.55l.34.15c.9.35 2.08.56 3.36.56 1.27 0 2.44-.2 3.31-.57Zm-6.91-1.64a.7.7 0 0 1-.1-.11c0-.05 0-.1-.02-.15a.6.6 0 0 1 .12-.15c.14-.13.38-.28.73-.42.7-.28 1.71-.47 2.87-.47 1.15 0 2.14.19 2.81.47.34.14.57.29.7.42.13.12.14.2.14.2 0 .02 0 .09-.14.21-.13.13-.36.28-.7.42-.68.28-1.66.47-2.81.47a8.06 8.06 0 0 1-2.87-.47c-.35-.14-.6-.29-.73-.42Zm-.1 4.79v1.49c.02.14.19.42.81.7a7.1 7.1 0 0 0 2.76.45c1.2 0 2.2-.18 2.88-.46.7-.3.87-.58.9-.7v-1.48l-.37.17c-.86.36-2.02.57-3.3.57a8.77 8.77 0 0 1-3.68-.74ZM71.55 18.98c-1.28 0-2.46.21-3.35.57-.45.17-.85.4-1.15.69-.3.29-.56.68-.56 1.16 0 .12.02.23.04.33v6.25c.09.86.8 1.45 1.61 1.8a8.4 8.4 0 0 0 3.29.58c1.31 0 2.49-.2 3.37-.57.82-.34 1.63-.91 1.72-1.8V21.4c0-.47-.23-.86-.53-1.15-.3-.29-.68-.52-1.12-.7a8.97 8.97 0 0 0-3.32-.57Zm3.65 4.12c-.1.06-.22.1-.33.15-.88.36-2.04.57-3.32.57a9.32 9.32 0 0 1-3.7-.71v1.55c.03.11.2.4.88.69.67.28 1.64.47 2.8.47s2.13-.2 2.8-.47c.68-.29.85-.57.87-.7V23.1Zm-7.34-1.6a.7.7 0 0 0 .1.1c.14.14.38.3.73.43.7.28 1.7.47 2.86.47 1.15 0 2.14-.19 2.81-.47.34-.14.57-.29.7-.42.14-.13.14-.2.14-.2 0-.02 0-.09-.13-.22a2.23 2.23 0 0 0-.7-.42 7.67 7.67 0 0 0-2.82-.46c-1.15 0-2.16.18-2.86.46-.35.14-.6.3-.74.43a.59.59 0 0 0-.11.14l.02.16Zm0 6.38V26.4l.36.18c.87.36 2.02.57 3.31.57a8.74 8.74 0 0 0 3.67-.74v1.48c-.02.11-.2.4-.9.69-.68.28-1.68.46-2.87.46-1.2 0-2.14-.18-2.76-.46-.63-.27-.79-.55-.81-.69ZM21.32 66.4a9.3 9.3 0 0 1 3.36-.56c1.27 0 2.44.2 3.31.55.44.18.83.4 1.13.7.3.28.53.67.53 1.14v3.31a.67.67 0 0 1 0 .1v3.18c-.09.89-.9 1.47-1.72 1.8-.88.36-2.05.57-3.37.57a8.4 8.4 0 0 1-3.29-.57c-.8-.36-1.52-.95-1.6-1.8V68.6a1.38 1.38 0 0 1-.05-.35c0-.48.25-.87.55-1.16.3-.29.7-.52 1.15-.7ZM28 70.1l.34-.16V71.52c-.04.13-.23.4-.87.66-.66.28-1.63.47-2.8.47a7.51 7.51 0 0 1-2.8-.47c-.68-.28-.85-.57-.87-.69v-1.53l.34.14c.89.35 2.07.55 3.35.55 1.27 0 2.44-.2 3.31-.56Zm-6.91-1.64a.73.73 0 0 1-.1-.1v-.16a.65.65 0 0 1 .1-.13c.14-.13.38-.29.73-.43a8 8 0 0 1 2.87-.47c1.15 0 2.14.19 2.82.46.34.14.56.28.7.41.13.13.13.2.13.2 0 .01 0 .08-.14.21-.13.13-.36.28-.7.42-.67.28-1.66.47-2.81.47a8.17 8.17 0 0 1-2.87-.46c-.35-.14-.6-.28-.73-.42Zm-.1 4.78v1.48c.03.14.2.42.82.7.63.27 1.56.46 2.76.46 1.2 0 2.19-.2 2.87-.47.7-.29.87-.58.9-.69v-1.48c-.12.07-.24.12-.36.17-.87.36-2.02.57-3.3.57a8.8 8.8 0 0 1-3.68-.74ZM71.55 65.84a9.3 9.3 0 0 0-3.35.57c-.45.17-.85.4-1.15.69-.3.29-.56.68-.56 1.16 0 .11.02.22.04.33V74.82c.09.86.8 1.44 1.61 1.8a8.4 8.4 0 0 0 3.29.57c1.31 0 2.49-.2 3.37-.57.82-.33 1.63-.91 1.72-1.8v-6.59c0-.47-.23-.86-.53-1.15-.3-.28-.69-.51-1.12-.69a9.13 9.13 0 0 0-3.32-.55Zm3.65 4.1-.33.15c-.88.35-2.04.56-3.32.56a9.47 9.47 0 0 1-3.7-.7v1.54c.03.12.2.4.88.7.67.27 1.64.46 2.8.46 1.17 0 2.13-.19 2.8-.47.68-.28.85-.57.87-.69v-1.56Zm-7.34-1.6a.7.7 0 0 0 .1.11c.13.14.37.28.72.42.7.28 1.72.46 2.87.46 1.15 0 2.14-.19 2.81-.47.34-.14.57-.29.7-.42.14-.13.14-.2.14-.2 0-.02 0-.08-.13-.2a2.2 2.2 0 0 0-.7-.42 7.84 7.84 0 0 0-2.82-.46 8 8 0 0 0-2.86.47c-.35.14-.6.3-.74.43-.06.06-.1.1-.11.14l.02.14Zm0 6.37v-1.48l.36.17a8.8 8.8 0 0 0 3.31.57 8.78 8.78 0 0 0 3.67-.74v1.48c-.02.11-.2.4-.9.69-.68.28-1.68.47-2.87.47-1.2 0-2.14-.2-2.76-.47-.63-.27-.79-.55-.81-.69ZM48.04 75.6a9.3 9.3 0 0 0-3.36.57c-.44.18-.84.4-1.15.7-.3.28-.55.67-.55 1.16 0 .12.02.24.05.35v6.17a.7.7 0 0 0 0 .06c.08.86.8 1.45 1.6 1.8.84.36 1.97.57 3.28.57 1.32 0 2.5-.2 3.38-.57.44-.18.83-.4 1.13-.7a1.76 1.76 0 0 0 .6-1.16v-6.52c0-.48-.24-.87-.53-1.16a3.5 3.5 0 0 0-1.13-.7 9 9 0 0 0-3.32-.56Zm3.65 4.13-.33.15a9 9 0 0 1-3.32.56 9.3 9.3 0 0 1-3.69-.7v1.55c.02.11.19.4.87.68a7.5 7.5 0 0 0 2.8.47c1.16 0 2.13-.19 2.8-.47.67-.28.84-.57.87-.68v-1.56Zm-7.34-1.6.1.1c.13.13.38.28.73.42a8 8 0 0 0 2.86.47 7.7 7.7 0 0 0 2.82-.46c.34-.14.57-.3.7-.43.13-.12.14-.2.14-.2 0-.01 0-.09-.14-.21a2.23 2.23 0 0 0-.7-.42 7.7 7.7 0 0 0-2.82-.47 8 8 0 0 0-2.87.47c-.35.14-.59.29-.73.42-.06.06-.1.1-.11.14l.02.16Zm0 6.38v-1.49a8.8 8.8 0 0 0 3.67.74 8.78 8.78 0 0 0 3.67-.74v1.48c-.01.05-.05.14-.17.26-.15.14-.39.29-.73.43-.69.28-1.68.47-2.88.47a7.1 7.1 0 0 1-2.75-.46c-.62-.28-.79-.56-.81-.7ZM41 39.43a17.95 17.95 0 0 1 6.44-1.07c2.48 0 4.76.4 6.45 1.07.83.33 1.56.75 2.08 1.25.53.5.9 1.12.9 1.84a2.15 2.15 0 0 1-.17.85v12.17c-.06.7-.42 1.3-.95 1.8-.52.5-1.22.92-2.05 1.26a17.57 17.57 0 0 1-6.48 1.08c-2.55 0-4.7-.4-6.28-1.07-1.53-.67-2.67-1.7-2.8-3.06V43.26a2.13 2.13 0 0 1-.13-.74c0-.72.37-1.35.9-1.84.52-.5 1.25-.92 2.09-1.25Zm-1.18 2.2c-.36.35-.48.65-.48.89s.12.54.48.88c.36.34.92.68 1.67.98 1.49.6 3.6.98 5.95.98 2.36 0 4.46-.38 5.95-.98.75-.3 1.31-.64 1.67-.98.37-.34.49-.64.49-.88s-.12-.54-.49-.88a5.34 5.34 0 0 0-1.67-.98c-1.49-.6-3.6-.98-5.95-.98-2.36 0-4.46.38-5.95.98-.75.3-1.31.63-1.67.98Zm14.06 3.98a7.83 7.83 0 0 0 1.5-.77v1.54c-.03.3-.2.63-.55.98-.37.37-.92.72-1.64 1.02-1.45.61-3.47 1-5.75 1s-4.3-.4-5.76-1.01a5.46 5.46 0 0 1-1.66-1.03 1.66 1.66 0 0 1-.56-.99v-1.54c.44.3.96.57 1.54.8 1.68.67 3.96 1.07 6.44 1.07 2.48 0 4.76-.4 6.45-1.07Zm-14.42 3v2.37c.07.6.69 1.33 2.15 1.94 1.43.59 3.45.97 5.83.97s4.4-.38 5.82-.98c1.45-.61 2.06-1.34 2.12-1.92v-2.35a7.3 7.3 0 0 1-1.68.96c-1.64.7-3.84 1.1-6.26 1.1s-4.63-.41-6.28-1.11a7.4 7.4 0 0 1-1.7-.99Zm0 6.84v-2.24c.47.36 1.03.67 1.64.93 1.63.67 3.84 1.07 6.34 1.07s4.7-.4 6.33-1.08c.6-.25 1.15-.56 1.6-.91v2.24c-.02.28-.17.6-.53.93a5.3 5.3 0 0 1-1.64 1c-1.46.59-3.54.97-5.98.97-2.43 0-4.4-.38-5.75-.97-1.36-.6-1.94-1.32-2-1.94Z" clip-rule="evenodd"/>
  <path class="-path--secondary" fill="#FF9E18" d="M48.7 23.46a.66.66 0 1 0-1.32 0v8.06a.66.66 0 1 0 1.32 0v-8.06ZM48.7 64.68a.66.66 0 1 0-1.32 0v8.05a.66.66 0 1 0 1.32 0v-8.05ZM22.88 48.1c0-.36.3-.66.66-.66h8.01a.66.66 0 1 1 0 1.32h-8a.66.66 0 0 1-.67-.66ZM64.53 47.44a.66.66 0 1 0 0 1.32h8.01a.66.66 0 0 0 0-1.32h-8ZM59.24 59.35a.66.66 0 0 1 .93 0l5.67 5.7a.66.66 0 0 1-.94.93l-5.66-5.7a.66.66 0 0 1 0-.93ZM31.19 30.21a.66.66 0 1 0-.94.94l5.66 5.7a.66.66 0 1 0 .94-.94l-5.66-5.7ZM65.83 30.21c.26.26.26.68 0 .94l-5.66 5.7a.66.66 0 1 1-.93-.94l5.66-5.7a.66.66 0 0 1 .93 0ZM36.85 60.29a.66.66 0 0 0-.94-.93l-5.66 5.7a.66.66 0 0 0 .94.92l5.66-5.7Z"/>
</svg>
