<svg id="icon-business-lower-costs-euro" viewBox="0 0 96 96" xmlns="http://www.w3.org/2000/svg">
  <path class="-path--shadow" fill="#38C6F4" d="M27.79 30.7c0-.73-.6-1.32-1.32-1.32H12.7c-.72 0-1.31.59-1.31 1.31v60.4c0 .73.59 1.31 1.31 1.31h13.78c.73 0 1.32-.58 1.32-1.3V30.7Zm23.33 16.56c.73 0 1.32.59 1.32 1.31V91.1c0 .73-.6 1.31-1.32 1.31H37.34c-.72 0-1.31-.58-1.31-1.3V48.56c0-.72.59-1.3 1.31-1.3h13.78Zm24.66 17.89c.73 0 1.32.58 1.32 1.3V91.1c0 .73-.6 1.31-1.32 1.31H62c-.72 0-1.31-.58-1.31-1.3V66.45c0-.73.59-1.31 1.31-1.31h13.78Z"/>
  <path class="-path--primary" fill="#083176" d="M21.29 1.29c-6.63 0-12 5.35-12 11.95s5.37 11.94 12 11.94 12-5.35 12-11.94c0-6.6-5.37-11.95-12-11.95ZM8 13.24C8 5.92 13.95 0 21.29 0c7.33 0 13.28 5.92 13.28 13.24 0 7.3-5.95 13.23-13.28 13.23A13.26 13.26 0 0 1 8 13.24Zm16.01-2.93a3.11 3.11 0 0 0-2.67-1.57c-1.26.05-2.34.9-2.67 2.1h3.73v1.47h-4.05c-.02.26-.02.51 0 .76v.69h4.06v1.48h-3.77a2.95 2.95 0 0 0 2.84 2.2 3.16 3.16 0 0 0 2.64-1.63l1.53 1.13a4.86 4.86 0 0 1-4.2 2.43 5.15 5.15 0 0 1-5.01-4.12h-1.6v-1.5h1.34v-.64a6.15 6.15 0 0 1 0-.8h-1.33v-1.46h1.59a5.15 5.15 0 0 1 4.92-4 4.77 4.77 0 0 1 4.22 2.28l-1.57 1.18ZM10.04 32.98c-.38 0-.68.3-.68.66v60.4c0 .37.3.67.68.67H23.8c.38 0 .68-.3.68-.66v-60.4c0-.37-.3-.67-.68-.67H10.04Zm-1.96.66c0-1.08.88-1.95 1.96-1.95H23.8c1.08 0 1.96.87 1.96 1.95v60.4c0 1.09-.88 1.96-1.96 1.96H10.04a1.96 1.96 0 0 1-1.96-1.95v-60.4Zm25.94 17.89c0-.37.3-.67.67-.67h13.78c.37 0 .67.3.67.67v42.52c0 .36-.3.66-.67.66H34.69a.67.67 0 0 1-.67-.66V51.53Zm.67-1.96c-1.08 0-1.96.88-1.96 1.96v42.52c0 1.08.88 1.95 1.96 1.95h13.78c1.07 0 1.95-.87 1.95-1.95V51.53c0-1.08-.88-1.96-1.95-1.96H34.69Zm23.98 19.84c0-.37.3-.67.67-.67h13.78c.37 0 .67.3.67.67v24.64c0 .36-.3.66-.67.66H59.34a.67.67 0 0 1-.67-.66V69.4Zm.67-1.95c-1.08 0-1.96.87-1.96 1.95v24.64c0 1.08.88 1.95 1.96 1.95h13.78c1.08 0 1.96-.87 1.96-1.95V69.4c0-1.08-.88-1.95-1.96-1.95H59.34Z"/>
  <path class="-path--secondary" fill="#FF9E18" d="M38.71 26.17a.64.64 0 0 0-.78 1.02l48.11 36.88-4.72.49a.64.64 0 1 0 .13 1.28l6.33-.65h.02c.35-.05.6-.37.56-.72l-.94-7.56a.64.64 0 0 0-1.27.16l.74 6.03-48.18-36.93Z"/>
</svg>
