<svg id="icon-products-firewall" viewBox="0 0 96 96" xmlns="http://www.w3.org/2000/svg">
  <path fill-rule="evenodd" d="M93.4 12.2H17.1V49c3.8 3.5 5.9 8.5 5.8 13.8 0 .1 0 .2.1.2.1.1.3.1.4 0 .9-1 1.6-2.2 2.1-3.5 0 0 0-.1.1-.1h.2c1.3 1.9 2.1 3.8 2.7 5.6h65.1V12.2h-.2ZM17.9 65c-.1-.8-.2-1.5-.2-2v-.5l-.6.3V65h.8Z" class="-path--shadow" fill="#38C6F4"/>
  <path fill-rule="evenodd" d="M36.3 17H13v11.9h27.1V17h-3.8Zm0-1.3h52.5c.4 0 .7.3.7.7v52.8c0 .4-.3.7-.7.7H29.4c0-.4-.1-.9-.1-1.3h.7V56.8h-7.8c-.3 0-.5-.3-.5-.7 0-.4.2-.7.5-.7H40V43.5H13v5.3c-.1 1.2-.5 2.9-1.3 4.9V16.3c0-.4.3-.7.7-.7h23.9v.1ZM13 30.2v11.9h17v-11c0-.4.3-.7.7-.7.4 0 .7.3.7.7v11H59.8V30.2H13Zm18.3 38.5h28.4V56.8H31.3V68.7Zm10.1-25.1c0-.1 0-.1 0 0l9.1-.1h19.3v11c0 .4.3.7.7.7.4 0 .7-.3.7-.7v-11h17v11.9H41.4V43.6Zm0-26.6V28.9h28.5V17H41.4Zm29.7 11.7V17h17v11.9h-17v-.2Zm-10 13.5h27.1v-12H61.1v12c0-.1 0 0 0 0Zm0 14.8v-.2h27.1v11.9H61.1V57ZM19.2 68.7h-5.5c-.1.4-.2.9-.3 1.3h6.9c-.5-.4-.8-.8-1.1-1.3Z" class="-path--primary" fill="#083176"/>
  <path d="M20.7 84.4h-.2l-.5-.1v-.9l.3-.2c1.9-1.5 2.9-3.3 2.9-5.4.1-3.3-2.2-6.3-2.8-6.9l-.1-.1c-2.5-2-2.9-5.3-3-7-3.7 2.5-3.6 11.4-3.6 11.5v1.2l-1-.6c-1.4-.8-2-2.2-2.4-3.3-1.3 3.1-1.6 5.7-.9 7.7.8 2.1 2.5 2.8 2.6 2.9l-.5 1.2c-7.9-3.2-9.3-9-9.5-11.3V73c-.5-2.8.1-7.3 5.4-13.3.1-.1.1-.1.1-.2l.1-.1c5.6-7.8 4.7-12.9 4.7-13L12 45l1.3.7c6.1 3.1 10.1 9.4 10.3 16.3.6-.8 1-1.6 1.4-2.5l.1-.2.2-.1.1-.1.2-.1.6.1.2.3c5.7 8.7 3.3 16.7 2.3 18.3-.9 1.7-6.3 6.7-8 6.7ZM3.3 72.8v.2c.1 1.7.9 5.4 5 8.2-.1-.1-.1-.3-.2-.5-1-2.7-.5-6.3 1.8-10.6l.7-1.4.5 1.5c0 .1.1.3.1.5.1.7.3 2.1 1.1 3.1.2-3.1 1-10.2 5.3-11.8l.6-.2.3.5c.1.2.1.3.1.8.1 1.3.2 4.8 2.5 6.6.8.6 2.8 3.3 3.3 6.3.3 1.8.1 3.5-.7 5 1.6-1.2 3.2-2.8 3.8-4l.1-.2c.3-.6 3.3-7.5-1.8-16-.5 1-1.1 2-1.8 2.8-.4.4-1 .4-1.4 0-.2-.2-.3-.4-.3-.7.2-6.3-3.1-12.3-8.6-15.6 0 2.1-.6 6.7-5 12.7-.1.1-.2.2-.3.4-4.9 5.8-5.5 9.9-5.1 12.4Zm22.9-13v.1-.1Z" fill="#D62015"/>
</svg>
