<svg id="icon-products-media-and-entertainment" viewBox="0 0 96 96" xmlns="http://www.w3.org/2000/svg">
  <path d="M87.6 26.7c0-.9-.3-1.8-.7-2.6v9.4h-14l-7.6 7.1v-7.1h-2.7V21.8H26.4c-1.1 0-2.1.4-2.9 1h8.2v20.6H21.4v19.9c0 2.7 2.2 4.9 4.9 4.9h42.9v-7.9h18.4v-4.7l-18.3 4.3-.9-3.9 19.2-4.5V26.7Zm-36 22.6-5.8 3.4V39.3l5.8 3.4 5.8 3.4-5.8 3.2Z" class="-path--shadow" fill="#38C6F4"/>
  <path fill-rule="evenodd" d="M87.55 16.75h-25.6v9.5h-29.7v-4.2H1.35v21.9h14.8v23.854c0 .337 0 2.365 1.59 3.956 1.028 1.027 2.396 1.59 3.96 1.59h47v-1.3h-47c-1.236 0-2.268-.437-3.04-1.21-1.204-1.203-1.21-2.766-1.21-3.04v-4.152l51.35-.123V79.3h25.5V64.672a.718.718 0 0 0 .1-.372v-4a.717.717 0 0 0-.1-.372V59.7h-.228a.718.718 0 0 0-.372-.1H73.99l19.31-4.5c.4-.1.6-.5.5-.8l-.9-3.9c0-.153-.118-.247-.217-.328A1.089 1.089 0 0 1 92.6 50c-.2-.1-.3-.1-.5-.1l-8.45 1.97V34.25h3.9v-17.5Zm-55.3 10.8h29.7v6.7h2.7v7.947l8.507-7.947h9.193v17.922L68.5 55.4c-.4.1-.6.5-.5.8l.897 3.5H68.8v2.525l-51.35.123V43.95h14.8v-16.4Zm31 5.4v-14.9h23v14.9H72.644l-6.694 6.253V32.95h-2.7Zm4.55-11.7a.65.65 0 1 0 0 1.3h14.3a.65.65 0 1 0 0-1.3H67.8Zm-.65 4.25a.65.65 0 0 1 .65-.65h8.3a.65.65 0 1 1 0 1.3h-8.3a.65.65 0 0 1-.65-.65Zm.65 3.25a.65.65 0 1 0 0 1.3H79a.65.65 0 1 0 0-1.3H67.8ZM2.65 39.59v3.06h20.186l-4.877-3.997-1.825 1.632-.867-.97 1.674-1.496-6.422-5.264-7.869 7.036Zm0-1.743 7.832-7.003 7.44 6.098 4.365-3.902 8.663 7.266V23.35H2.65v14.497Zm16.29-.07 5.272 4.32-.453.553h7.191v-.647l-8.636-7.243-3.374 3.016ZM15.35 29.3c0-1.714 1.449-2.85 2.95-2.85a2.87 2.87 0 0 1 2.85 2.85 2.87 2.87 0 0 1-2.85 2.85c-1.64 0-2.95-1.272-2.95-2.85Zm2.95-1.55c-.899 0-1.65.664-1.65 1.55 0 .822.69 1.55 1.65 1.55a1.57 1.57 0 0 0 1.55-1.55 1.57 1.57 0 0 0-1.55-1.55ZM46.03 38.64a.65.65 0 0 0-.98.56v13.6a.65.65 0 0 0 .98.56l11.6-6.8a.65.65 0 0 0 0-1.12l-11.6-6.8ZM56.014 46l-9.664 5.666V40.335L56.014 46ZM70.1 78V65H93v13H70.1Zm16.1-14.3 2.7-2.7h-3.4l-2.7 2.7h3.4Zm-8 0 2.7-2.7h-3.5l-2.7 2.7h3.5Zm12.6 0 2.2-2.2v2.2h-2.2Zm-18-2.7-2.7 2.7V61h2.7Zm-2.878-2.138 1.007-2.617-1.529.355.522 2.262Zm5.703-3.707-1.157 3.008 3.615-.84 1.157-3.007-3.615.839Zm10.66.265-3.506.813 1.157-3.007 3.506-.814-1.157 3.008Zm4.696-1.09 1.42-.33-.486-2.1-.934 2.43Z" class="-path--primary" fill="#083176"/>
</svg>
