<svg id="icon-products-apps-other" viewBox="0 0 96 96" xmlns="http://www.w3.org/2000/svg">
  <path fill-rule="evenodd" d="M61.848 8.9c0-3.2-2.6-5.8-5.7-5.8h-25.4c-3.2 0-5.7 2.6-5.7 5.8v60.9c0 3.2 2.6 5.8 5.7 5.8h21.8c0-.3-.1-.6-.1-.9 0-3.3 2.6-5.9 5.9-5.9 1.3 0 2.5.4 3.5 1.1v-61Z" class="-path--shadow" fill="#38C6F4"/>
  <path fill-rule="evenodd" d="M70.548 73.6c.1.5.1 1.1.1 1.6s0 1-.1 1.5l4.7 3.6-4 6.9-5.5-2.3c-.8.6-1.7 1.1-2.7 1.5l-.8 5.8h-7.9l-.8-5.9c-1-.4-1.9-1-2.7-1.6l-5.3 2.4-4-6.9 4.8-3.7c-.1-.4-.1-.9-.1-1.3 0-.7.1-1.4.2-2.2l-4.6-3.5 4-6.9 5.8 2.5c.7-.4 1.3-.8 2.1-1.1l.8-6h7.9l.8 6c.9.4 1.7.9 2.5 1.4l5.6-2.3 4 6.9-4.8 3.6Zm-12.1 7.5c3.3 0 5.9-2.7 5.9-5.9 0-3.3-2.6-5.9-5.9-5.9-3.3 0-5.9 2.7-5.9 5.9 0 3.3 2.6 5.9 5.9 5.9Z" class="-path--secondary" fill="#FF9E18"/>
  <path fill-rule="evenodd" d="M42.601 78.1H27.448c-.5 0-1.8-.1-3.1-.9-.9-.6-1.6-1.4-2-2.4h22.907a6.998 6.998 0 0 0-.007.3v1l-2.647 2Zm-1.853 1.4h-13.3c-3.8 0-6.9-3.1-6.9-6.9V13.1c0-3.8 3.1-6.9 6.9-6.9h25c3.8 0 6.9 3.1 6.9 6.9l-.29 44.2h2.79c.3 0 .6.2.7.6l.7 5.6c.7.3 1.4.7 2 1.1l5.3-2.2c.3-.1.7 0 .8.3l4 6.9c.2.3.1.7-.2.9l-4.5 3.4c0 .2.025.425.05.65.025.225.05.45.05.65v1.2l4.4 3.4c.3.2.3.6.2.9l-4 6.9c-.2.3-.5.4-.8.3l-5.1-2.2c-.7.5-1.4.9-2.2 1.2l-.7 5.4c0 .3-.3.6-.7.6h-7.9c-.3 0-.6-.2-.7-.6l-.7-5.5c-.8-.4-1.5-.8-2.2-1.3l-5 2.1c-.3.1-.7 0-.8-.3l-4-6.9c-.2-.3-.1-.7.2-.9Zm17.2-22.2V13.1h-36.1v59.8c0 .041.017.1.037.168.028.097.063.215.063.332h23.397l.003-.2-4.3-3.3c-.3-.2-.3-.6-.2-.9l4-6.9c.2-.3.5-.4.8-.3l5.4 2.3c.5-.3 1-.6 1.5-.8l.7-5.4c0-.3.3-.6.7-.6h4Zm-30.5-49.7h25.1c2.6 0 4.8 1.8 5.4 4.2h-35.9c.6-2.4 2.8-4.2 5.4-4.2Zm5.4 12.9h17.5V23h-17.5v-2.5Zm0 7.5h17.5v2.5h-17.5V28Zm-1.3 7.5h-2.5V38h2.5v-2.5Zm-2.5-15h2.5V23h-2.5v-2.5Zm2.5 7.5h-2.5v2.5h2.5V28Zm1.3 7.5h17.5V38h-17.5v-2.5Zm21 28.5.7-5.4v.1h6.8l.7 5.4c0 .2.2.4.4.5.9.4 1.7.8 2.4 1.4.1.2.4.2.6.1l5.1-2.1 3.4 5.9-4.3 3.3c-.2.1-.3.4-.3.6.1.5.1 1 .1 1.5 0 .4 0 .9-.1 1.4 0 .2.1.5.3.6l4.5 3.3-3.4 5.9-4.9-2.1c-.3-.1-.5 0-.7.1-.8.5-1.7 1-2.6 1.4-.2.1-.4.3-.4.5l-.7 5.2h-6.8l-.7-5.3c0-.2-.2-.4-.4-.5-.9-.4-1.8-.9-2.6-1.5-.2-.2-.5-.2-.7-.1l-4.9 2-3.4-5.9 4.3-3.3c.1-.1.2-.4.2-.6-.1-.4-.1-.7-.1-1.2 0-.6.1-1.3.2-2 .1-.2 0-.4-.2-.6l-4.1-3.2 3.4-5.9 5.2 2.2c.2 0 .4 0 .6-.1.19-.109.373-.217.552-.324.481-.286.938-.557 1.448-.776.2-.1.4-.3.4-.5Zm-1.3 11.2c0-2.9 2.4-5.3 5.3-5.3s5.3 2.4 5.3 5.3-2.4 5.3-5.3 5.3-5.3-2.4-5.3-5.3Zm5.4-6.6c-3.7 0-6.6 3-6.6 6.6 0 3.6 2.9 6.6 6.6 6.6 3.7 0 6.6-3 6.6-6.6 0-3.6-2.9-6.6-6.6-6.6Z" class="-path--primary" fill="#083176"/>
</svg>
