<svg id="icon-platform-it-agility-hybrid-cloud" viewBox="0 0 96 96" xmlns="http://www.w3.org/2000/svg">
  <path fill-rule="evenodd" d="M71.298 62.282c8.34-5.937 13.818-15.944 13.818-27.29C85.116 16.773 70.986 2 53.558 2 36.128 2 22 16.771 22 34.993c0 3.332.473 6.55 1.352 9.583 1.095.058 2.2.26 3.292.617 2.255-6.356 8.215-10.667 14.981-10.835 9.01-.223 16.497 6.87 16.721 15.843a9.904 9.904 0 0 1 2.811-.407l.216.008c.175-.002.35 0 .526.006 5.56.204 9.9 4.858 9.695 10.395a10.03 10.03 0 0 1-.296 2.08Z" class="-path--shadow" fill="#38C6F4"/>
  <path fill-rule="evenodd" d="M40.9 69.7c0-.4-.4-.2-.7-.2-.4 0-.6-.2-.6.1v1.2h-7.9c-.4 0-.7.3-.7.7v18.4c0 .4.3.7.7.7.4 0 .7-.3.7-.7V72.2h7.8c.4 0 .6-.3.7-.6v-1.9Zm-15.2-.2c.4 0 .7-.2.7.2v11c0 .4-.3.7-.7.7-.4 0-.7-.3-.7-.7v-11c0-.4.3-.2.7-.2Zm24 0c.4 0 .7-.2.7.2v6c0 .4-.3.7-.7.7-.4 0-.7-.3-.7-.7v-6c0-.4.3-.2.7-.2Zm-7.6 20.9c0-1.5 1.2-2.7 2.7-2.7 1.5 0 2.7 1.2 2.7 2.7 0 1.5-1.2 2.7-2.7 2.7-1.5-.1-2.7-1.3-2.7-2.7Zm3.3-20.7v16.7c2 .3 3.5 1.9 3.5 4 0 2.2-1.8 4-4 4s-4-1.8-4-4c0-1.9 1.4-3.6 3.2-3.9V69.7c0-.4 0-.2.4-.2s.9-.2.9.2Z" class="-path--secondary" fill="#FF9E18"/>
  <path fill-rule="evenodd" d="M61.5 7.4c8.4 4 14.8 11.8 17.6 21.4 4.4 15.1-1.5 29.1-6.9 34.2-.05 0-.075.025-.1.05-.025.025-.05.05-.1.05-1.4 4.3-5.5 7.4-10.2 7.4H22.9c-1.4 0-2.9-.3-4.2-.7-3.4-1.2-6.2-3.5-7.8-6.7C9.3 60 9 56.4 10.1 53c1.3-4.1 4.5-7.1 8.3-8.4-1.5-18.3 6.1-31.8 21.4-38.1 6.9-2.8 14.6-2.5 21.7.9Zm9.3 8.8c0 .1-.1.2-.2.2l-13.2 5c1.8 3.3 3.5 7.2 4.9 11.3l15-5.1c-1.5-4.3-3.7-8.2-6.5-11.4Zm-9.15 18.6c-.05-.175-.1-.35-.15-.5l-8.9 3c3.568 2.775 5.958 7.024 6.39 11.87l5.421-1.598c-.208-2.408-.799-6.424-2.61-12.272-.05-.15-.1-.325-.15-.5Zm2.85 14.117-1.227.362a8.79 8.79 0 0 1 1.327.321c-.098-.196-.1-.392-.1-.683Zm1.373-.404 13.11-3.863c-.956 7.005-3.798 12.807-6.783 16.15 0-.2 0-.4.1-.6.1-2.9-.9-5.6-2.9-7.7-1-1-2.1-1.9-3.4-2.4-.1-.2-.1-.7-.1-1.3a79.853 79.853 0 0 1-.027-.287Zm13.274-5.269a.664.664 0 0 0-.133.025l-13.268 3.91C65.49 44.715 64.923 40.705 63.1 35c-.1-.4-.2-.7-.4-1.1l15-5.1c0 .041.017.083.037.131a.655.655 0 0 1 .063.269 36.773 36.773 0 0 1 1.347 14.044ZM41.6 33.7c3.6-.1 6.9.9 9.7 2.7l9.8-3.3c-1.4-4.1-3.1-7.9-4.9-11.3l-22 8.2c.2 1.6.5 3.4.9 5.2 2-.9 4.2-1.4 6.5-1.5ZM70 15.3c-2.6-2.8-5.6-5.1-9-6.7-5.7-2.8-11.8-3.4-17.5-1.9.6.2 1.2.4 1.8.7 3.9 1.9 8 6.6 11.5 12.8L70 15.3ZM44.7 8.5c-1.8-.9-3.4-1.1-4.9-.6-5.1 2.6-7.1 9.7-5.8 20.7l21.5-8c-3.4-5.9-7.2-10.3-10.8-12.1Zm-12 20.6c-1.2-9.8.3-15.5 2.6-18.9-8.6 5.1-13.8 13.2-15.4 23.7l12.8-4.8Zm.3 1.3-13.3 4.9c-.3 2.9-.3 5.9-.1 9 2.2-.5 4.5-.5 6.7.1 1.5-3.7 4.3-6.7 7.7-8.6l-.127-.6c-.355-1.68-.694-3.28-.873-4.8ZM22.7 69.2h38.5c5.2.2 9.6-3.9 9.8-9.1.1-2.5-.8-4.9-2.5-6.7-1.8-1.8-4.1-2.9-6.6-3h-.7c-.9 0-1.7.1-2.6.4-.2.1-.4 0-.6-.1-.2-.1-.3-.3-.3-.5-.2-8.6-7.4-15.4-16-15.2-6.5.2-12.3 4.3-14.4 10.4-.1.3-.5.5-.8.4-1.3-.4-2.6-.6-3.8-.6-5.1 0-9.8 3.3-11.5 8.3-1 3-.7 6.2.7 9.1 1.5 2.9 3.9 5 7 6 1.3.4 2.5.6 3.8.6Z" class="-path--primary" fill="#083176"/>
</svg>
