<svg id="icon-products-speed" viewBox="0 0 96 96" xmlns="http://www.w3.org/2000/svg">
  <path d="M53.724.2c-21.9-.2-39.8 17.2-40 39-.2 20.8 15.9 38.3 36.8 39.7l1-1.5c.8-1.2.8-2.7 0-3.9l-8.6-12.3c-1.1-1.5-.7-3.7.8-4.7.6-.4 1.3-.6 2-.6h6.6c1.1 0 2.2.5 2.8 1.5l11.3 16.2c.7 1 .8 2.2.3 3.3 2.6-.9 5.2-2.1 7.6-3.6l-8.4-12c-1.1-1.5-.7-3.7.8-4.7.6-.4 1.3-.6 2-.6h6.6c1.1 0 2.2.5 2.8 1.5l5.6 8c14.3-16.4 12.5-41.3-4-55.5-7.2-6.4-16.5-9.8-26-9.8Z" class="-path--shadow" fill="#38C6F4"/>
  <path fill-rule="evenodd" d="M45.724 95.8h6.6c1.4 0 2.6-.6 3.4-1.7l11.4-16.3c1-1.4 1-3.2 0-4.6L55.824 57c-.8-1.1-2.1-1.7-3.4-1.7h-6.6c-.9 0-1.8.3-2.5.8-.9.6-1.4 1.5-1.6 2.6-.2 1.1.1 2.1.7 3l8.6 12.3c.7.9.7 2.2 0 3.1l-8.6 12.3c-.4.7-.7 1.5-.7 2.3 0 2.2 1.8 4.1 4 4.1Zm-1.6-38.7c.4-.3 1-.5 1.6-.5h6.7c.9 0 1.7.5 2.2 1.2l11.3 16.1c.7.9.7 2.2 0 3.1l-11.3 16.2c-.5.8-1.4 1.2-2.3 1.2h-6.5c-1.5 0-2.7-1.2-2.7-2.7 0-.6.2-1.1.5-1.6l8.6-12.3c1-1.4 1-3.2 0-4.6l-8.7-12.3c-.4-.6-.6-1.3-.5-2 .1-.7.5-1.4 1.1-1.8Zm24.6 38.7h6.6c1.3 0 2.6-.6 3.3-1.7l11.3-16.2c1-1.4 1-3.2 0-4.6l-11.3-16.2c-.7-1.1-2-1.7-3.3-1.7h-6.6c-.8 0-1.6.2-2.3.7-.9.6-1.5 1.5-1.7 2.6-.1 1 .1 2.1.7 3l8.5 12.3c.6.9.6 2.2 0 3.1l-8.6 12.3c-.4.7-.7 1.5-.7 2.3 0 2.3 1.9 4.1 4.1 4.1Zm-1.5-38.7c.4-.3.9-.5 1.5-.5h6.5c.9 0 1.8.5 2.3 1.2l11.4 16.3c.6.9.6 2.2 0 3.1l-11.3 16.2c-.6.8-1.4 1.2-2.3 1.2h-6.5c-1.6-.1-2.8-1.3-2.8-2.8 0-.6.2-1.1.5-1.6l8.6-12.3c1-1.4 1-3.2 0-4.6l-8.6-12.3c-.4-.7-.5-1.4-.4-2.1.1-.8.5-1.4 1.1-1.8Z" class="-path--secondary" fill="#FF9E18"/>
  <path fill-rule="evenodd" d="M2.624 41.4c0 22.1 18.1 40.1 40.3 40.1v-1.3c-21.4 0-38.9-17.4-38.9-38.8s17.6-38.8 39-38.8 38.9 17.4 38.9 38.8h1.3c0-22.1-18.1-40.1-40.3-40.1-22.2 0-40.3 18-40.3 40.1Zm37.2 6.8c4.3 1.7 6.2-3 6.2-3l7.6-27.1c.3-.7-.1-1.5-.8-1.7-.7-.3-1.4 0-1.7.6l-13.7 24.7s-1.9 4.8 2.4 6.5Z" class="-path--primary" fill="#083176"/>
</svg>
