<svg id="icon-products-apps" viewBox="0 0 96 96" xmlns="http://www.w3.org/2000/svg">
  <path d="M23.844 5.7v63.9h35.4c-.8-2.3-1.8-5-2.9-7.9-1.5-3.8 2.1-5.5 3.5-1.9l3.4 8.5s1.6-2.2 3.2-1.1l.4-.2s1-2.2 2.9-.1c1-.8 2.4-.4 3.1.8.1.1.1.2.1.3l.6 1.5h5.1V5.7h-54.8Z" class="-path--shadow" fill="#38C6F4"/>
  <path fill-rule="evenodd" d="M20.044 7.9c-.4 0-.7.3-.7.7v29.6c0 .4.3.7.7.7h25.3c.4 0 .7-.3.7-.7V8.5c0-.4-.3-.7-.7-.7h-25.3v.1Zm.7 29.5V9.2h24v28.2h-24Zm28.8-29.5c-.4 0-.7.3-.7.7v29.6c0 .4.3.7.7.7h25.3c.4 0 .7-.3.7-.7V8.5c0-.4-.3-.7-.7-.7h-25.3v.1Zm.6 29.5V9.2h24v28.2h-24Zm-30.7 5.4c0-.4.3-.7.7-.7h25.3c.4 0 .7.3.7.7v29.6c0 .4-.3.7-.7.7h-25.4c-.4 0-.7-.3-.7-.7V42.8h.1Zm1.3.7v28.2h24V43.5h-24Zm28.8-1.3c-.4 0-.7.3-.7.7v29.5c0 .4.3.7.7.7h8.3c.4 0 .7-.3.7-.7 0-.4-.3-.7-.7-.7h-7.6V43.5h24v21.8c0 .4.3.7.7.7.4 0 .7-.3.7-.7V42.8c0-.4-.3-.7-.7-.7h-25.4v.1Z" class="-path--primary" fill="#083176"/>
  <path fill-rule="evenodd" d="M66.243 89.4c1.3.6 2.7.9 3.9.9 1.1 0 2.1-.2 3.1-.6 1.9-1.1 3.1-3.1 3.6-6.1 1-5.7-2.2-13.2-3.2-15.4a.503.503 0 0 1-.1-.2c-.025-.075-.05-.15-.1-.2-.4-.8-1.1-1.3-1.9-1.5-.5-.1-1.1 0-1.6.2a.523.523 0 0 0-.15-.1.523.523 0 0 1-.15-.1c-.6-.4-1.3-.6-2-.4a2.66 2.66 0 0 0-.967.517.992.992 0 0 0-.032-.017c-.7-.3-1.5-.3-2.2 0-.338.168-.639.39-.898.658L60.644 59.8c-.9-2.2-2.5-2.7-3.6-2.3-1.3.5-2.1 2.3-1.2 4.7 2 5.1 3.8 10.3 5.4 15.6-1.8-.5-4.9-1-6.7.8-1.1 1.1-1.5 2.4-.9 3.5s2.2 1.7 3.9 1.3c1.4-.3 2.6.7 4.3 2.5 1.2 1.3 2.6 2.7 4.4 3.5Zm-3.5-20.6a.28.28 0 0 1-.074-.187L59.343 60.3c-.5-1.4-1.4-1.7-1.9-1.5-.7.3-1 1.4-.4 3 2.2 5.5 4.2 11.2 5.8 16.9.1.2 0 .5-.2.7-.2.2-.5.2-.7.1-1.3-.5-4.9-1.5-6.5.1-.7.7-1 1.4-.7 2 .3.5 1.2 1 2.5.7 2.2-.5 3.8 1.1 5.5 2.9l.327.328c1.094 1.103 2.218 2.235 3.673 2.872 1.3.6 3.7 1.3 5.8.2 1.5-.8 2.5-2.6 3-5.1.9-5.4-2.1-12.6-3.1-14.7 0-.05-.025-.1-.05-.15a.355.355 0 0 1-.05-.15c-.2-.4-.6-.7-1-.8a1.355 1.355 0 0 0-.767.036l.967 2.464c.1.3 0 .7-.3.8h-.2c-.2 0-.5-.1-.6-.4l-1.1-2.7a.758.758 0 0 1-.037-.242l-.056-.07c-.076-.1-.167-.218-.307-.288-.3-.2-.6-.3-.9-.2-.3.1-.5.2-.7.5l1.4 3.6c.1.3 0 .7-.4.9-.3.1-.7 0-.9-.4l-1.5-3.9a.65.65 0 0 1-.075-.297c-.249-.05-.474.008-.739.075l-.086.022c-.4.2-.7.5-.9 1l1.5 3.7c.1.3 0 .7-.4.9-.2-.1-.3-.1-.4-.1-.3 0-.5-.2-.6-.4l-1.5-3.9Z" class="-path--secondary" fill="#FF9E18"/>
</svg>
