<svg id="icon-products-session-border-controllers" viewBox="0 0 96 96" xmlns="http://www.w3.org/2000/svg">
  <path fill-rule="evenodd" d="M38 34.6c-4.5 2.7-7.3 7.7-7.3 13.3 0 3 .8 5.8 2.3 8.1H4.5V34.7l33.5-.1Zm24.7 13.3c.2-5.6-2.9-10.1-7.1-13.2H94v21.4H60.4c1.5-2.4 2.2-5.2 2.3-8.2Z" class="-path--shadow" fill="#38C6F4"/>
  <path fill-rule="evenodd" d="M52 42.8v-2.7s-.7-4-5.5-4-5.5 4-5.5 4.1v2.6h-1.1c-.3 0-.6.2-.6.6v12.3c0 .3.2.6.6.6H53c.4 0 .7-.3.6-.6V43.4c0-.3-.2-.6-.6-.6h-1Zm-1.4 0v-2.6c0-.4-.7-2.9-4.2-2.9-3.477 0-4.092 2.466-4.198 2.892l-.002.008v2.6h8.4Zm-4.1 4.16a1.75 1.75 0 0 0-1.74 1.74c0 .565.276 1.072.7 1.39v1.61c0 .354.286.64.64.64h.7a.64.64 0 0 0 .64-.64v-1.54c.48-.31.8-.851.8-1.46a1.75 1.75 0 0 0-1.74-1.74Z" fill="#D62015"/>
  <path fill-rule="evenodd" d="M26.2 29.8c-.146 0-.24-.053-.357-.121a2.619 2.619 0 0 0-.143-.079l-3.1-3c-.1-.1-.2-.3-.2-.5 0-.146.053-.24.121-.357.025-.043.052-.09.079-.143l3.2-3.1c.2-.2.7-.2.9 0 .2.3.2.7 0 .9l-2.1 2.1h21.9c.3 0 .6.2.6.6V32h-1.3v-5.3H24.6l2 2c.3.2.3.7 0 .9-.1.2-.2.2-.4.2Zm40 42.5 2.1-2.1H46.5c-.3 0-.6-.2-.6-.6l.1-5.9h1.1V69h21.2l-2-2c-.3-.2-.3-.7 0-.9.2-.3.7-.3.9 0l3.1 3c.1.1.2.3.2.5 0 .146-.053.24-.121.357-.025.043-.052.09-.079.143l-3.2 3.1c-.1.1-.3.2-.4.2-.146 0-.24-.054-.357-.122-.043-.024-.09-.051-.143-.078-.2-.3-.2-.7 0-.9Z" class="-path--secondary" fill="#FF9E18"/>
  <path fill-rule="evenodd" d="M33.909 59.3c3.148 3.5 7.712 5.7 12.79 5.7 5.128 0 9.76-2.242 12.921-5.8H91.6l-.048-.002a.682.682 0 0 0 .648-.698V37.2c-.1-.4-.4-.7-.7-.7H59.668A17.16 17.16 0 0 0 46.7 30.6a17.16 17.16 0 0 0-12.968 5.9H2c-.4 0-.7.3-.7.7v21.4c0 .4.3.7.7.7h31.909Zm-1.133-1.4A17.123 17.123 0 0 1 29.5 47.8c0-3.73 1.187-7.182 3.203-10H2.7v20.1h30.076Zm27.92-20.1a17.123 17.123 0 0 1 3.204 10 16.79 16.79 0 0 1-3.233 10.1H90.8V37.8H60.696ZM30.8 47.8c0-8.7 7.1-15.8 15.9-15.8s15.9 7.2 15.9 15.9-7.2 15.8-15.9 15.8-15.9-7.2-15.9-15.9Zm-21.1 2c1 0 1.8-.8 1.8-1.8s-.8-1.8-1.8-1.8-1.8.8-1.8 1.8.8 1.8 1.8 1.8Zm9.1-1.8c0 1-.8 1.8-1.8 1.8s-1.8-.8-1.8-1.8.8-1.8 1.8-1.8 1.8.8 1.8 1.8Zm5.6 1.8c1 0 1.8-.8 1.8-1.8s-.8-1.8-1.8-1.8-1.8.8-1.8 1.8.8 1.8 1.8 1.8ZM70.9 48c0 1-.8 1.8-1.8 1.8s-1.8-.8-1.8-1.8.8-1.8 1.8-1.8 1.8.8 1.8 1.8Zm5.5 1.8c1 0 1.8-.8 1.8-1.8s-.8-1.8-1.8-1.8-1.8.8-1.8 1.8.8 1.8 1.8 1.8Zm9.1-1.8c0 1-.8 1.8-1.8 1.8s-1.8-.8-1.8-1.8.8-1.8 1.8-1.8 1.8.8 1.8 1.8Z" class="-path--primary" fill="#083176"/>
</svg>
