<svg id="icon-products-iot" viewBox="0 0 96 96" xmlns="http://www.w3.org/2000/svg">
  <path fill-rule="evenodd" d="m44.787 18.955 4.9 8.401 4.9 8.366H35.043l4.9-8.366 4.844-8.4ZM4.397 57.341h17.227v17.157H4.397V57.34Zm78.288 2.893c4.864 0 8.806-3.927 8.806-8.77 0-4.844-3.942-8.77-8.806-8.77-4.863 0-8.806 3.926-8.806 8.77 0 4.843 3.943 8.77 8.806 8.77Z" class="-path--shadow" fill="#38C6F4"/>
  <path fill-rule="evenodd" d="m47.399 28.886-5.47-9.338-5.438 9.339-.001.001-5.437 9.388h10.213v28.878H20.385v-8.582H1.841v18.473h18.543V68.47H42.58V54.01h28.766c.339 4.903 4.438 8.77 9.44 8.77 5.225 0 9.465-4.218 9.465-9.427 0-5.21-4.24-9.428-9.464-9.428-5.003 0-9.102 3.868-9.441 8.77H42.58v-14.42h10.295l-5.477-9.389Zm25.24 24.47c.002 4.477 3.647 8.11 8.149 8.11 4.502 0 8.149-3.635 8.149-8.113s-3.647-8.113-8.15-8.113c-4.502 0-8.148 3.635-8.148 8.113v.003Zm-53.57 6.532v7.827a.671.671 0 0 0 0 .194v7.82H3.157V59.889H19.07Zm18.559-30.34 4.304-7.392 4.331 7.394 4.323 7.41H33.335l4.293-7.413Z" class="-path--primary" fill="#083176"/>
  <path fill-rule="evenodd" d="M93.97 30.87c-7.084-7.251-18.725-7.414-26.01-.365l-.008.006-.352.358a.658.658 0 0 0 .938.922l.328-.334c6.765-6.553 17.583-6.404 24.164.332a.658.658 0 0 0 .94-.919Zm-22.13 3.083c5.08-4.918 13.202-4.803 18.141.257a.658.658 0 1 1-.941.919c-4.433-4.541-11.721-4.646-16.282-.234l-.228.226a.658.658 0 0 1-.928-.932l.238-.236Zm4.36 3.116a6.653 6.653 0 0 1 9.37.124.658.658 0 1 1-.94.92 5.338 5.338 0 0 0-7.511-.102l-.109.108a.658.658 0 0 1-.928-.932l.119-.118Z" class="-path--secondary" fill="#FF9E18"/>
</svg>
