<svg id="icon-products-financial-services-company" viewBox="0 0 96 96" xmlns="http://www.w3.org/2000/svg">
  <path fill-rule="evenodd" d="M70.7 32.8v-20H59.9V4.7H39.6v8.1h-8.5v20h-22v56.3h8.7l1.4-4.8c.6-2 1.3-4 2.1-6l1.3-3.2c.6-1.5 1.6-2.9 2.8-4 1.2-1.1 2.7-1.9 4.3-2.4l10.5-3.2c.6-.2 1.2-.2 1.8.1.6.2 1 .7 1.3 1.2 0 .1.1.1.1.2.1.3.2.6.2 1 0 .3-.1.7-.2 1-.1.3-.3.6-.5.8-.2.2-.5.4-.8.5l-5.3 2.3c-.2.1-.5.3-.7.4-.2.2-.3.4-.4.6-.1.2-.1.5-.1.7 0 .3.1.5.2.7.1.2.2.4.4.6.3.3.7.5 1 .5.4.1.8 0 1.2-.1L52 71.1c1.9-.7 3.4-2.1 4.3-3.9l2.6-4.5c.3-.6.8-1 1.4-1.2.6-.2 1.2-.3 1.9-.1h.1c.6.2 1.2.7 1.4 1.3.3.6.3 1.3.1 2l-2.6 6.9c-.7 1.8-2 3.3-3.8 4.1L36 86.5c-1.2.6-2.1 1.5-2.8 2.6h58.7V32.8H70.7ZM45 53.4c-7.7 0-13.9-6.2-13.9-13.9S37.3 25.6 45 25.6s13.9 6.2 13.9 13.9S52.6 53.4 45 53.4Z" class="-path--shadow" fill="#38C6F4"/>
  <path fill-rule="evenodd" d="M34.4 7.1c-.4 0-.6.3-.6.7v7.8h-8.4c-.4 0-.6.3-.6.7v18.8H3.5c-.4 0-.7.3-.7.7v57.8c0 .4.3.7.7.7h83.8c.4 0 .7-.3.7-.7V35.8c0-.4-.3-.7-.7-.7H67V16.2c0-.4-.3-.7-.7-.7h-8.5V8c.1-.1.1-.2.1-.3 0-.4-.3-.7-.7-.7l-22.8.1Zm22.2 8.4V8.4H35v7.2h21.6v-.1ZM24.8 69.7V36.4H4.2v56.5H16v-.2l2.5-8.5c.6-2 1.3-4 2.1-6.1l1.3-3.2c.6-1.5 1.6-2.9 2.8-4.1.1-.1.1-.1.1-.2v-.9Zm1.3.037-.1.063c1.1-.7 2.2-1.3 3.5-1.7l1.4-.4h-.4c-.4 0-.7-.3-.7-.7v-7.6c0-.4.3-.7.7-.7h8c.4 0 .6.3.6.7v5.7l.9-.3c.4-.1.7-.2 1-.1v-5.2c0-.4.3-.7.7-.7H50c.4 0 .7.3.7.7v7.6c0 .4-.3.7-.7.7h-5.8v.3c0 .5-.1.9-.2 1.2-.1.4-.4.8-.7 1.1-.3.3-.6.5-1 .6L37 73.3h-.1c-.2.1-.3.1-.4.2l-.1.1s0 .1-.1.1c0 0 0 .1-.1.2v.5c0 .1.1.2.1.2.1.2.2.3.3.4.1.1.4.2.7.3.2.1.4 0 .9-.1l13.6-4.8c1.4-.6 2.7-1.6 3.6-2.9H53c-.4 0-.7-.3-.7-.7v-7.6c0-.4.3-.7.7-.7h8.3c.4 0 .7.3.7.7v1.4c.1 0 .4 0 .5.1.1 0 .4.2.2.1.7.3 1.2.8 1.6 1.5.4.9.4 1.7.1 2.5l-2.6 6.9c-.8 2-2.2 3.5-4.2 4.5l-4.5 2.2c0 .1.1.2.1.3v13.8h12.6V16.9H26.1v52.837ZM51.8 79.4 40.6 85v7.4h11.2v-13Zm-12.5 6.3-3.1 1.5c-1.1.5-1.9 1.3-2.5 2.3-.5 1-.8 2.2-.8 3.4h6.4v-7.2Zm21.3-24.8v-.8h-7v6.3h2.2c.1 0 .2 0 .3.1l2.3-3.9c.4-.6 1.2-1.3 2-1.6-.2 0 0 0 .2-.1Zm-16.9 5.5h5.6v-6.2h-7v5.2-.3c.5.3 1.1.7 1.4 1.3Zm-5.9-.8v-5.5h-6.7v6.3h3.4c.1 0 .2 0 .3.1l3-.9ZM67 36.4v56.5h19.7V36.4H67ZM52.3 25.9c0-.4.3-.6.7-.6h8.3c.4 0 .7.3.7.6v7.5c0 .4-.3.7-.7.7h-2.4c.7 1.8 1.1 3.7 1.1 5.8 0 .6 0 1.1-.1 1.6h1.3c.4 0 .6.3.6.7v7.5c0 .4-.3.7-.6.7h-5.5c-2.7 2.8-6.5 4.5-10.7 4.5-4.2 0-8-1.7-10.7-4.5h-3.9c-.4 0-.7-.3-.7-.7v-7.6c0-.3.2-.5.4-.6v-1.7c0-2 .4-3.9 1.1-5.7h-.8c-.4 0-.7-.3-.7-.6V26c0-.4.3-.6.7-.6h8c.4 0 .6.3.6.6v.1c1.8-.8 3.8-1.2 6-1.2 2.6 0 5.1.7 7.2 1.9v-.9h.1Zm1.2 1.6c2 1.4 3.6 3.2 4.7 5.3h2.4v-6.2h-7v.6c0 .1 0 .2-.1.3Zm-15.1.4c.2 0 .4-.1.5-.3 1.8-.9 3.9-1.4 6.1-1.4 7.5 0 13.7 6.1 13.7 13.7s-6.1 13.5-13.6 13.5-13.6-6.1-13.6-13.7c-.1-5 2.7-9.5 6.9-11.8Zm-.6-1.2-6.7-.1v6.2h.7c1.4-2.5 3.5-4.7 6-6.1Zm-6.7 18.4V49h2.2c-.9-1.2-1.7-2.5-2.2-3.9Zm25.8 3.8h3.7v-6.2h-.9c-.5 2.4-1.4 4.5-2.8 6.2Zm15.6-7.6c-.4 0-.7.3-.7.7v6.5c0 .4.3.6.7.6h7.8c.4 0 .7-.3.7-.6V42c0-.4-.3-.7-.7-.7h-7.8Zm.7 6.6v-5.2h6.5v5.2h-6.5Zm-1.3 8.8c0-.4.3-.6.7-.6h7.8c.4 0 .7.3.7.6v6.5c0 .4-.3.7-.7.7h-7.8c-.4 0-.7-.3-.7-.7v-6.5Zm1.3.6v5.2h6.5v-5.2h-6.5Zm-1.3 13c0-.4.3-.6.7-.6h7.8c.4 0 .7.3.7.6v6.5c0 .4-.3.7-.7.7h-7.8c-.4 0-.7-.3-.7-.7v-6.5Zm1.3.6v5.2h6.5v-5.2h-6.5ZM9.9 42c0-.4.3-.7.6-.7h7.8c.4 0 .6.3.6.7v6.5c0 .4-.3.6-.6.6h-7.8c-.4 0-.6-.3-.6-.6V42Zm1.3.6v5.2h6.5v-5.2h-6.5Zm-.7 13.5c-.4 0-.6.3-.6.6v6.5c0 .4.3.7.6.7h7.8c.4 0 .6-.3.6-.7v-6.5c0-.4-.3-.6-.6-.6h-7.8Zm.7 6.5v-5.2h6.5v5.2h-6.5Zm-.7 7.1c-.4 0-.6.3-.6.6v6.5c0 .4.3.7.6.7h7.8c.4 0 .6-.3.6-.7v-6.5c0-.4-.3-.6-.6-.6h-7.8Zm.7 6.5V71h6.5v5.2h-6.5Zm30.9-30.9c.2.2.3.5.3.8 0 .4-.1.7-.2.9-.2.2-.6.3-1 .3s-.8-.2-1-.4c-.3-.3-.4-.6-.4-1.1h-.9c0 .6.2 1.1.5 1.5.3.3.8.5 1.4.6v.9h.7v-.9c.6-.1 1.1-.3 1.4-.6.3-.3.5-.7.5-1.3 0-.3-.1-.6-.2-.9-.1-.3-.3-.5-.6-.7-.2-.1-.5-.2-.7-.3-.1-.1-.3-.1-.5-.2-.5-.1-.9-.3-1.1-.5-.2-.2-.3-.5-.3-.8 0-.3.1-.6.3-.8.2-.2.5-.3.9-.3s.7.1.9.4c.2.3.3.6.3 1.1h.9c0-.7-.2-1.2-.5-1.6-.3-.4-.7-.6-1.3-.7v-1.1h-.7v1.1c-.6.1-1 .3-1.3.6-.3.3-.5.8-.5 1.3s.2 1 .5 1.3c.3.3.8.6 1.5.8.5.2.9.4 1.1.6Zm9.6 0h-1.9c0 .6.2 1.1.5 1.5.3.3.7.5 1.3.5.3 0 .6-.1.9-.1h.2l.1.8c-.4.1-.8.1-1.2.1-.8 0-1.5-.2-1.9-.7-.5-.5-.7-1.2-.7-2h-.9v-.6h.9v-.7h-.9v-.6h.9c0-.9.3-1.5.7-2 .5-.5 1.1-.7 1.9-.7.2 0 .5.1.9.1.1 0 .2 0 .3.1l-.1.8h-.2c-.3-.1-.6-.1-.9-.1-.5 0-1 .2-1.2.5-.3.3-.4.8-.5 1.4h1.9v.6h-1.9v.7h1.9l-.1.4Zm-5.1-14.6L45.1 34l-1.5-3.3h-1.1l1.8 3.5H43v.6h1.6v.8H43v.6h1.6v1.6h.9v-1.6h1.6v-.6h-1.6v-.8h1.6v-.6h-1.3l1.8-3.5h-1Zm15.3 31.5c-.4-.1-.9-.1-1.5.1-.4.1-.8.5-1 .9l-2.6 4.5c-1 1.9-2.7 3.4-4.6 4.2l-13.6 4.8h-.1c-.4.1-.9.2-1.5.1-.5-.1-1-.4-1.3-.7-.3-.3-.4-.6-.5-.8-.1-.2-.3-.6-.3-1 0-.3 0-.6.2-.9v-.1c0-.1.1-.1.1-.2.1-.1.2-.3.4-.5.3-.3.5-.4.9-.5l5.3-2.3h.1c.2-.1.4-.2.5-.3.1-.1.3-.4.3-.5.1-.3.2-.5.2-.8 0-.2-.1-.5-.2-.7v-.1s-.1-.1-.1-.2c-.2-.4-.6-.7-.9-.8-.5-.2-1-.2-1.4-.1l-10.5 3.2c-1.5.5-2.8 1.2-4.1 2.3-1.1 1-2.1 2.4-2.6 3.8l-1.3 3.2c-.8 2-1.5 4-2.1 5.9l-2.3 7.7h14.1c.1-1.2.4-2.3 1-3.4.8-1.2 1.7-2.2 3.1-2.8l21.3-10.6c1.8-.9 3-2.2 3.6-3.9l2.6-6.9c.1-.4.1-1-.1-1.5-.2-.4-.4-.7-.7-.9-.3-.2-.3-.2-.4-.2Z" class="-path--primary" fill="#083176"/>
</svg>
