<svg id="icon-products-big-data-apps-and-services" viewBox="0 0 96 96" xmlns="http://www.w3.org/2000/svg">
  <path fill-rule="evenodd" d="M41.421 48.42a2.65 2.65 0 0 1 2.643 2.657v36.266A2.65 2.65 0 0 1 41.421 90H8.643A2.65 2.65 0 0 1 6 87.343V51.077a2.65 2.65 0 0 1 2.643-2.658H41.42ZM8.518 57.42c0 .669-.54 1.21-1.204 1.21a1.207 1.207 0 0 1-1.204-1.21c0-.669.539-1.21 1.204-1.21.665 0 1.204.541 1.204 1.21Zm2.518 1.21c.665 0 1.204-.541 1.204-1.21 0-.669-.54-1.21-1.204-1.21-.665 0-1.204.541-1.204 1.21 0 .669.539 1.21 1.204 1.21Zm4.926-1.21c0 .669-.54 1.21-1.204 1.21a1.207 1.207 0 0 1-1.204-1.21c0-.669.539-1.21 1.204-1.21.665 0 1.204.541 1.204 1.21ZM7.314 73.278c.665 0 1.204-.542 1.204-1.21 0-.67-.54-1.211-1.204-1.211-.665 0-1.204.542-1.204 1.21 0 .669.539 1.211 1.204 1.211Zm4.926-1.21c0 .668-.54 1.21-1.204 1.21a1.208 1.208 0 0 1-1.204-1.21c0-.67.539-1.211 1.204-1.211.665 0 1.204.542 1.204 1.21Zm2.518 1.21c.665 0 1.204-.542 1.204-1.21 0-.67-.54-1.211-1.204-1.211-.665 0-1.204.542-1.204 1.21 0 .669.539 1.211 1.204 1.211Zm-6.24 13.436c0 .668-.54 1.21-1.204 1.21a1.208 1.208 0 0 1-1.204-1.21c0-.669.539-1.211 1.204-1.211.665 0 1.204.542 1.204 1.21Zm2.518 1.21c.665 0 1.204-.542 1.204-1.21 0-.669-.54-1.211-1.204-1.211-.665 0-1.204.542-1.204 1.21 0 .67.539 1.211 1.204 1.211Zm4.926-1.21c0 .668-.54 1.21-1.204 1.21a1.207 1.207 0 0 1-1.204-1.21c0-.669.539-1.211 1.204-1.211.665 0 1.204.542 1.204 1.21Zm41.147-38.085h34.155a1.976 1.976 0 0 1 1.962 1.965v37.642a1.96 1.96 0 0 1-1.954 1.965H57.109a1.96 1.96 0 0 1-1.955-1.965V50.602c0-1.086.874-1.969 1.955-1.973Zm.555 8.947c0 .668-.54 1.21-1.205 1.21a1.207 1.207 0 0 1-1.204-1.21c0-.67.54-1.211 1.204-1.211.666 0 1.205.542 1.205 1.21Zm2.518 1.21c.665 0 1.204-.542 1.204-1.21 0-.67-.54-1.211-1.204-1.211-.665 0-1.205.542-1.205 1.21 0 .67.54 1.211 1.205 1.211Zm4.918-1.21c0 .668-.539 1.21-1.204 1.21a1.207 1.207 0 0 1-1.204-1.21c0-.67.539-1.211 1.204-1.211.665 0 1.204.542 1.204 1.21Zm-8.64 15.857c.665 0 1.204-.543 1.204-1.211 0-.669-.54-1.21-1.205-1.21s-1.204.541-1.204 1.21c0 .669.54 1.21 1.204 1.21Zm4.926-1.211c0 .669-.54 1.21-1.204 1.21a1.207 1.207 0 0 1-1.205-1.21c0-.669.54-1.21 1.205-1.21s1.204.541 1.204 1.21Zm2.51 1.21c.665 0 1.204-.541 1.204-1.21 0-.669-.539-1.21-1.204-1.21-.665 0-1.204.541-1.204 1.21 0 .669.539 1.21 1.204 1.21Zm-6.232 13.436c0 .669-.54 1.21-1.205 1.21a1.207 1.207 0 0 1-1.204-1.21c0-.669.54-1.21 1.204-1.21.666 0 1.205.541 1.205 1.21Zm2.518 1.21c.665 0 1.204-.541 1.204-1.21 0-.669-.54-1.21-1.204-1.21-.665 0-1.205.541-1.205 1.21 0 .669.54 1.21 1.205 1.21Zm4.971-1.58c0 .668-.539 1.21-1.204 1.21a1.207 1.207 0 0 1-1.204-1.21c0-.67.54-1.212 1.204-1.212.665 0 1.204.542 1.204 1.211Z" class="-path--shadow" fill="#38C6F4"/>
  <path fill-rule="evenodd" d="M63.567 15.783a9.824 9.824 0 0 1 1.774-.195.659.659 0 0 1 .201-.025c5.242.153 9.45 4.389 9.603 9.652.159 5.486-4.137 10.07-9.603 10.23H30.276c-1.365.01-2.721-.21-4.015-.647-6.44-2.183-9.898-9.198-7.73-15.667 2.101-6.267 8.713-9.731 14.98-7.96 2.313-5.771 7.817-9.649 14.047-9.825 8.354-.237 15.355 6.164 16.01 14.437Zm2.107 1.107a.665.665 0 0 1-.15.017c-.809 0-1.612.116-2.388.343a.66.66 0 0 1-.846-.615c-.222-7.942-6.805-14.192-14.694-13.968-5.893.166-11.081 3.953-13.064 9.54a.66.66 0 0 1-.834.404c-5.745-1.946-11.975 1.157-13.913 6.94-1.939 5.784 1.154 12.048 6.9 13.995 1.155.391 2.366.587 3.584.578h35.244c4.725-.144 8.45-4.11 8.311-8.871-.13-4.512-3.693-8.145-8.15-8.363ZM4.683 50.775h34.622c1.255 0 2.281.992 2.334 2.245v.002l.203 5.37v3.64a2.34 2.34 0 0 1-2.334 2.344H4.67a2.347 2.347 0 0 1-2.33-2.35v-8.919a2.339 2.339 0 0 1 2.343-2.332ZM3.66 53.112v8.913c0 .57.456 1.026 1.014 1.03h34.833c.556 0 1.013-.454 1.013-1.022V58.43l-.203-5.354a1.017 1.017 0 0 0-1.012-.979H4.678a1.017 1.017 0 0 0-1.017 1.016Zm35.644 12.301H4.683a2.339 2.339 0 0 0-2.344 2.332v8.934a2.34 2.34 0 0 0 2.335 2.343h34.834a2.339 2.339 0 0 0 2.334-2.343v-3.633l-.203-5.377a2.338 2.338 0 0 0-2.334-2.256ZM3.661 76.68V67.75a1.017 1.017 0 0 1 1.017-1.015h34.628c.541 0 .992.431 1.012.984l.203 5.364v3.596c0 .568-.457 1.022-1.013 1.022H4.673a1.017 1.017 0 0 1-1.012-1.022Zm1.022 3.38a2.338 2.338 0 0 0-2.344 2.333v8.926a2.338 2.338 0 0 0 2.334 2.343h34.835a2.338 2.338 0 0 0 2.334-2.343v-3.634l-.203-5.37v-.002a2.346 2.346 0 0 0-2.332-2.252H4.683ZM3.66 82.397v8.92c0 .569.456 1.022 1.012 1.022h34.835c.556 0 1.013-.453 1.013-1.021v-3.596l-.203-5.355v-.001a1.024 1.024 0 0 0-1.014-.985H4.678a1.017 1.017 0 0 0-1.017 1.016Zm87.185-29.378a2.339 2.339 0 0 0-2.334-2.244H53.88a2.339 2.339 0 0 0-2.334 2.343v8.907a2.347 2.347 0 0 0 2.331 2.351H88.723a2.34 2.34 0 0 0 2.334-2.344v-3.641l-.211-5.37v-.002Zm-2.333-.923c.539 0 .988.427 1.012.978v.001l.21 5.355v3.603c0 .568-.456 1.022-1.012 1.022H53.882a1.025 1.025 0 0 1-1.014-1.03v-8.907c0-.568.456-1.022 1.012-1.022h34.633Zm2.333 15.572.21 5.377a.74.74 0 0 1 .001.026v3.608a2.339 2.339 0 0 1-2.334 2.343H53.88a2.339 2.339 0 0 1-2.334-2.343v-8.923a2.339 2.339 0 0 1 2.334-2.343h34.632c1.258 0 2.286.999 2.334 2.255Zm-1.32.05a1.017 1.017 0 0 0-1.013-.983H53.88c-.556 0-1.012.454-1.012 1.021v8.923c0 .568.456 1.022 1.012 1.022h34.843c.556 0 1.013-.454 1.013-1.022v-3.595l-.21-5.365ZM53.88 80.06a2.339 2.339 0 0 0-2.334 2.344v8.915a2.338 2.338 0 0 0 2.334 2.343h34.843a2.338 2.338 0 0 0 2.334-2.343v-3.635l-.211-5.37v-.001a2.347 2.347 0 0 0-2.331-2.252H53.88Zm-1.012 2.344c0-.568.456-1.022 1.012-1.022h34.631c.54.002.99.434 1.014.987l.21 5.354v3.596c0 .568-.456 1.021-1.012 1.021H53.88a1.017 1.017 0 0 1-1.012-1.021v-8.915Z" class="-path--primary" fill="#083176"/>
  <path fill-rule="evenodd" d="M35.266 25.492a2.578 2.578 0 0 1 2.569-2.586 2.578 2.578 0 0 1 2.569 2.586 2.58 2.58 0 0 1-2.367 2.578.663.663 0 0 0-.404 0 2.58 2.58 0 0 1-2.367-2.578Zm1.909 3.852a3.904 3.904 0 0 1-3.23-3.852c0-2.155 1.738-3.908 3.89-3.908s3.89 1.753 3.89 3.908a3.904 3.904 0 0 1-3.23 3.851v6.37c0 3.114-2.511 5.644-5.617 5.644h-8.226c-2.367 0-4.293 1.928-4.297 4.316v5.762a.66.66 0 1 1-1.321 0v-5.763c.005-3.11 2.515-5.636 5.618-5.636h8.226c2.37 0 4.297-1.933 4.297-4.324v-6.368Zm10.18 5.999a.66.66 0 1 0-1.321 0v3.412a3.904 3.904 0 0 0-3.23 3.842c-.005 2.155 1.73 3.912 3.88 3.917h.003c2.148 0 3.887-1.744 3.897-3.896v-.002a3.904 3.904 0 0 0-3.229-3.86v-3.413Zm-3.23 7.258a2.577 2.577 0 0 1 2.575-2.58 2.577 2.577 0 0 1 2.563 2.591 2.585 2.585 0 0 1-2.576 2.581 2.578 2.578 0 0 1-2.561-2.592Zm11.313-19.695a2.578 2.578 0 0 1 2.57 2.586 2.58 2.58 0 0 1-2.368 2.578.66.66 0 0 0-.404 0 2.58 2.58 0 0 1-2.367-2.578 2.578 2.578 0 0 1 2.57-2.586Zm3.893 2.586a3.905 3.905 0 0 1-3.232 3.852v6.368c0 2.391 1.928 4.324 4.3 4.324h8.23c3.104 0 5.616 2.525 5.621 5.636v5.764a.661.661 0 0 1-1.322 0v-5.763c-.004-2.388-1.931-4.316-4.3-4.316h-8.23c-3.108 0-5.62-2.53-5.62-5.645v-6.369a3.905 3.905 0 0 1-3.232-3.85 3.9 3.9 0 0 1 3.892-3.909 3.9 3.9 0 0 1 3.893 3.908ZM7.152 56.827a.745.745 0 0 0-.742.748c0 .416.335.749.742.749a.745.745 0 0 0 .742-.748.745.745 0 0 0-.742-.749Zm-1.667.748a1.67 1.67 0 0 1 1.667-1.673 1.67 1.67 0 0 1 1.667 1.673 1.67 1.67 0 0 1-1.667 1.674 1.67 1.67 0 0 1-1.667-1.674Zm5.389-.748a.745.745 0 0 0-.742.748c0 .416.335.749.742.749a.745.745 0 0 0 .742-.748.745.745 0 0 0-.742-.749Zm-1.667.748a1.67 1.67 0 0 1 1.667-1.673 1.67 1.67 0 0 1 1.667 1.673 1.67 1.67 0 0 1-1.667 1.674 1.67 1.67 0 0 1-1.667-1.674Zm4.647 0c0-.415.335-.748.742-.748s.742.333.742.748a.745.745 0 0 1-.742.749.745.745 0 0 1-.742-.748Zm.742-1.673a1.67 1.67 0 0 0-1.667 1.673 1.67 1.67 0 0 0 1.667 1.674 1.67 1.67 0 0 0 1.667-1.674 1.67 1.67 0 0 0-1.667-1.673ZM7.152 71.474a.745.745 0 0 0-.742.748c0 .415.335.748.742.748a.745.745 0 0 0 .742-.748.745.745 0 0 0-.742-.748Zm-1.667.748a1.67 1.67 0 0 1 1.667-1.673 1.67 1.67 0 0 1 1.667 1.673 1.67 1.67 0 0 1-1.667 1.673 1.67 1.67 0 0 1-1.667-1.673Zm4.647 0c0-.416.335-.748.742-.748s.742.332.742.748a.745.745 0 0 1-.742.748.745.745 0 0 1-.742-.748Zm.742-1.673a1.67 1.67 0 0 0-1.667 1.673 1.67 1.67 0 0 0 1.667 1.673 1.67 1.67 0 0 0 1.667-1.673 1.67 1.67 0 0 0-1.667-1.673Zm3.722.925a.745.745 0 0 0-.742.748c0 .415.335.748.742.748a.745.745 0 0 0 .742-.748.745.745 0 0 0-.742-.748Zm-1.667.748a1.67 1.67 0 0 1 1.667-1.673 1.67 1.67 0 0 1 1.667 1.673 1.67 1.67 0 0 1-1.667 1.673 1.67 1.67 0 0 1-1.667-1.673ZM6.41 86.868c0-.415.335-.748.742-.748s.742.332.742.748a.745.745 0 0 1-.742.748.745.745 0 0 1-.742-.748Zm.742-1.673a1.67 1.67 0 0 0-1.667 1.673 1.67 1.67 0 0 0 1.667 1.673 1.67 1.67 0 0 0 1.667-1.673 1.67 1.67 0 0 0-1.667-1.673Zm3.722.925a.745.745 0 0 0-.742.748c0 .416.335.748.742.748a.745.745 0 0 0 .742-.748.745.745 0 0 0-.742-.748Zm-1.667.748a1.67 1.67 0 0 1 1.667-1.673 1.67 1.67 0 0 1 1.667 1.673 1.67 1.67 0 0 1-1.667 1.673 1.67 1.67 0 0 1-1.667-1.673Zm4.647 0c0-.415.335-.748.742-.748s.742.332.742.748a.745.745 0 0 1-.742.748.745.745 0 0 1-.742-.748Zm.742-1.673a1.67 1.67 0 0 0-1.667 1.673 1.67 1.67 0 0 0 1.667 1.673 1.67 1.67 0 0 0 1.667-1.673 1.67 1.67 0 0 0-1.667-1.673Zm41.02-27.62c0-.415.335-.748.743-.748.407 0 .741.333.741.748a.745.745 0 0 1-.741.749.745.745 0 0 1-.742-.748Zm.743-1.673a1.67 1.67 0 0 0-1.667 1.673 1.67 1.67 0 0 0 1.667 1.674 1.67 1.67 0 0 0 1.666-1.674 1.67 1.67 0 0 0-1.666-1.673Zm2.98 1.673c0-.415.334-.748.742-.748.407 0 .741.333.741.748a.745.745 0 0 1-.741.749.745.745 0 0 1-.742-.748Zm.742-1.673a1.67 1.67 0 0 0-1.667 1.673 1.67 1.67 0 0 0 1.667 1.674 1.67 1.67 0 0 0 1.666-1.674 1.67 1.67 0 0 0-1.666-1.673Zm3.714.925a.745.745 0 0 0-.742.748c0 .416.335.749.742.749a.745.745 0 0 0 .742-.748.745.745 0 0 0-.742-.749Zm-1.667.748a1.67 1.67 0 0 1 1.667-1.673 1.67 1.67 0 0 1 1.666 1.673 1.67 1.67 0 0 1-1.666 1.674 1.67 1.67 0 0 1-1.667-1.674Zm-6.511 14.647c0-.416.334-.748.742-.748.407 0 .741.332.741.748a.745.745 0 0 1-.741.748.745.745 0 0 1-.742-.748Zm.742-1.673a1.67 1.67 0 0 0-1.667 1.673 1.67 1.67 0 0 0 1.667 1.673 1.67 1.67 0 0 0 1.666-1.673 1.67 1.67 0 0 0-1.666-1.673Zm3.722.925a.745.745 0 0 0-.742.748c0 .415.334.748.742.748a.745.745 0 0 0 .741-.748.745.745 0 0 0-.741-.748Zm-1.667.748a1.67 1.67 0 0 1 1.667-1.673 1.67 1.67 0 0 1 1.666 1.673 1.67 1.67 0 0 1-1.666 1.673 1.67 1.67 0 0 1-1.667-1.673Zm4.64 0c0-.416.334-.748.74-.748.408 0 .743.332.743.748a.745.745 0 0 1-.742.748.745.745 0 0 1-.742-.748Zm.74-1.673a1.67 1.67 0 0 0-1.666 1.673 1.67 1.67 0 0 0 1.667 1.673 1.67 1.67 0 0 0 1.666-1.673 1.67 1.67 0 0 0-1.666-1.673ZM56.36 86.12a.745.745 0 0 0-.742.748c0 .416.334.748.742.748a.745.745 0 0 0 .741-.748.745.745 0 0 0-.741-.748Zm-1.667.748a1.67 1.67 0 0 1 1.667-1.673 1.67 1.67 0 0 1 1.666 1.673 1.67 1.67 0 0 1-1.666 1.673 1.67 1.67 0 0 1-1.667-1.673Zm4.647 0c0-.415.334-.748.742-.748.407 0 .741.333.741.748a.745.745 0 0 1-.741.748.745.745 0 0 1-.742-.748Zm.742-1.673a1.67 1.67 0 0 0-1.667 1.673 1.67 1.67 0 0 0 1.667 1.673 1.67 1.67 0 0 0 1.666-1.673 1.67 1.67 0 0 0-1.666-1.673Zm3.714.925a.745.745 0 0 0-.742.748c0 .416.335.748.742.748a.745.745 0 0 0 .742-.748.745.745 0 0 0-.742-.748Zm-1.667.748a1.67 1.67 0 0 1 1.667-1.673 1.67 1.67 0 0 1 1.666 1.673 1.67 1.67 0 0 1-1.666 1.673 1.67 1.67 0 0 1-1.667-1.673Z" class="-path--secondary" fill="#FF9E18"/>
</svg>
