<svg id="icon-products-vpn-gateway" viewBox="0 0 96 96" xmlns="http://www.w3.org/2000/svg">
  <path d="m78.4 62.071.1-3.7s.7-4.5 6.3-4.6v-37.3H16.7v47.7H76c.1-1.2 1.1-2.1 2.4-2.1Zm-32.2-40.8c.6 0 1.1.5 1.1 1 0 .6-.706 1.075-1.206 1.075-.6 0-.969-.469-.969-.969-.2-.6.475-1.106 1.075-1.106Zm0 10.3c1.6 0 2.9 1.3 2.9 2.9 0 1.6-1.3 2.9-2.9 2.9-1.6 0-2.9-1.3-2.9-2.9-.1-1.6 1.2-2.9 2.9-2.9Zm-18.3 5.7c-1.6 0-2.9-1.3-2.9-2.9 0-1.6 1.3-2.9 2.9-2.9 1.6 0 2.9 1.3 2.9 2.9 0 1.7-1.3 2.9-2.9 2.9Zm24.3 24.2H40.1v-12h12.1v12Zm12.2-24.1c-1.6 0-2.9-1.3-2.9-2.9 0-1.6 1.3-2.9 2.9-2.9 1.6 0 2.9 1.3 2.9 2.9 0 1.6-1.3 2.9-2.9 2.9Z" class="-path--shadow" fill="#38C6F4"/>
  <path fill-rule="evenodd" d="M23.462 20.407a.665.665 0 0 0-.11.009.673.673 0 0 0-.052-.002H12.1a.658.658 0 0 0-.658.657V68.792l.001.01-9.783 5.906a.658.658 0 0 0-.316.613.662.662 0 0 0-.002.05v.6c0 .363.295.658.658.658h73.246c.085 1.593 1.444 2.9 3.054 2.9h13.3c1.663 0 3.058-1.394 3.058-3.058v-12c0-1.473-1.095-2.735-2.5-3.004V57.62l-.008-.049-.65.1.65-.1v-.004l-.002-.005-.002-.017a3.865 3.865 0 0 0-.049-.228 5.594 5.594 0 0 0-.181-.591 6.382 6.382 0 0 0-.989-1.764c-1.037-1.309-2.878-2.55-6.027-2.55-1.676 0-2.982.363-3.994.902v-.534l-.001-.063V52.148l-.001-.063V51.453l-.001-.063v-.569l-.001-.064v-.569l-.001-.063V49.493l-.001-.064v-.569l-.001-.063v-.569l-.001-.063v-.633l-.001-.063V46.9l-.001-.063v-.569l-.001-.063v-.633l-.001-.063v-.569l-.001-.063v-.633l-.001-.063v-.569l-.001-.063v-.569l-.001-.063v-.633l-.001-.063v-.569l-.001-.063v-.569l-.001-.064V40.324l-.001-.063v-.569l-.001-.064v-.569l-.001-.063V38.364l-.001-.063V37.73l-.001-.063V37.1l-.001-.063V36.404l-.001-.064v-.569l-.001-.063v-.569l-.001-.063v-.633l-.001-.063v-.569l-.001-.063v-.569l-.001-.064V32.483l-.001-.063v-.569l-.001-.063V31.218l-.001-.063V30.523l-.001-.063v-.569l-.001-.064v-.569l-.001-.063V28.563l-.001-.063V27.93l-.001-.063V27.235l-.001-.063V26.602l-.001-.063v-.569l-.001-.063V25.275l-.001-.064v-.569l-.001-.063v-.569l-.001-.063v-.633l-.001-.063v-.569l-.001-.063v-.569l-.001-.064v-.316a.657.657 0 0 0-.047-.243.658.658 0 0 0-.548-1.02H23.461Zm56.152 33.81a.658.658 0 0 1-.022-.17v-.505l-.001-.064v-.569l-.001-.063v-.569l-.001-.063v-.633l-.001-.063v-.569l-.001-.063v-.569l-.001-.064V49.621l-.001-.063v-.569l-.001-.063V48.356l-.001-.063V47.661l-.001-.063v-.569l-.001-.064v-.569l-.001-.063V45.701l-.001-.063V45.068l-.001-.063v-.569l-.001-.063v-.633l-.001-.063v-.569l-.001-.063V42.413l-.001-.064v-.569l-.001-.063v-.569l-.001-.063v-.633l-.001-.063v-.569l-.001-.063v-.569l-.001-.064V38.492l-.001-.063v-.569l-.001-.063v-.569l-.001-.064V36.532l-.001-.063V35.9l-.001-.063V35.267l-.001-.063V34.572l-.001-.063v-.569l-.001-.064v-.569l-.001-.063V32.612l-.001-.064v-.569l-.001-.063v-.569l-.001-.063v-.633l-.001-.063v-.569l-.001-.063v-.569l-.001-.064V28.691l-.001-.063v-.569l-.001-.063v-.569l-.001-.064V26.731l-.001-.063v-.569l-.001-.064v-.569l-.001-.063V24.771h-66.79v43.343h62.484V64.47c0-1.438 1.043-2.675 2.4-2.984v-3.872l.01-.056.648.112-.648-.113v-.003l.002-.006.003-.016.003-.018.008-.034a5.74 5.74 0 0 1 .234-.764 6.593 6.593 0 0 1 1.01-1.758 6.37 6.37 0 0 1 .702-.742Zm11.228 7.197V57.73a2.567 2.567 0 0 0-.014-.066l-.009-.036a4.272 4.272 0 0 0-.138-.45c-.14-.382-.38-.89-.784-1.399-.787-.992-2.247-2.051-4.997-2.051-2.697 0-4.16 1.056-4.963 2.054-.41.51-.66 1.022-.808 1.405a4.436 4.436 0 0 0-.172.55v3.676h11.885Zm-78.059 8.115h62.46v5.085H4.36l8.422-5.085Zm63.775 5.742v1.2c0 .937.805 1.743 1.742 1.743h13.3c.937 0 1.742-.806 1.742-1.743v-12c0-.937-.805-1.742-1.742-1.742H78.3c-.937 0-1.742.806-1.742 1.742V75.271Zm-31.358-53c0 .5.4 1 1 1 .5 0 1-.4 1-1 0-.5-.5-1-1-1s-1 .4-1 1Zm-19.543 12.2A2.245 2.245 0 0 1 27.9 32.23a2.245 2.245 0 0 1 2.242 2.242 2.245 2.245 0 0 1-2.242 2.243 2.245 2.245 0 0 1-2.242-2.243Zm2.243-3.557a3.56 3.56 0 0 0-3.558 3.557 3.561 3.561 0 0 0 2.9 3.497v6.861h18.3v3.985h-6.1v13.315h13.416V48.814h-6v-3.985h18.2v-6.86a3.561 3.561 0 0 0 2.9-3.498 3.56 3.56 0 0 0-3.558-3.557 3.56 3.56 0 0 0-3.558 3.557 3.561 3.561 0 0 0 2.9 3.497v5.546H46.858v-5.546a3.561 3.561 0 0 0 2.9-3.497 3.56 3.56 0 0 0-3.558-3.557 3.56 3.56 0 0 0-3.557 3.557 3.561 3.561 0 0 0 2.9 3.497v5.546H28.556v-5.546a3.561 3.561 0 0 0 2.9-3.497 3.56 3.56 0 0 0-3.557-3.557Zm34.257 3.557A2.245 2.245 0 0 1 64.4 32.23a2.245 2.245 0 0 1 2.242 2.242 2.245 2.245 0 0 1-2.242 2.243 2.245 2.245 0 0 1-2.243-2.243Zm-21.4 26.343V50.129h10.785v10.685H40.758ZM46.2 32.229a2.245 2.245 0 0 0-2.242 2.242 2.245 2.245 0 0 0 2.242 2.243 2.245 2.245 0 0 0 2.243-2.243A2.245 2.245 0 0 0 46.2 32.23Zm36.6 37.243c0 .76.401 1.44 1 1.836v2.963h2.3V71.37a2.216 2.216 0 0 0 1.1-1.898c0-1.2-1-2.2-2.2-2.2-1.2 0-2.2 1-2.2 2.2Z" class="-path--primary" fill="#083176"/>
</svg>
