<svg id="icon-business-cost-control-yen" viewBox="0 0 96 96" xmlns="http://www.w3.org/2000/svg">
  <path d="M77.17 44.224c0 14.478-12.028 26.215-26.866 26.215S23.437 58.702 23.437 44.224 35.466 18.01 50.304 18.01c14.838 0 26.867 11.737 26.867 26.215Z" class="-path--shadow" fill="#38C6F4"/>
  <path fill-rule="evenodd" d="M68.594 3.006c.36-.047.69.207.737.567L70.746 14.5a.658.658 0 0 1-.225.585.657.657 0 0 1-.329 1.15L58.66 17.982a.658.658 0 1 1-.197-1.3l11.089-1.68c-17.181-12.5-41.503-9.109-54.404 7.605-11.306 14.648-10.272 35.084 2.46 48.576a.658.658 0 0 1-.957.903C3.476 58.125 2.404 36.966 14.106 21.804 27.18 4.866 51.573 1.17 69.25 13.182l-1.224-9.44a.658.658 0 0 1 .568-.736Zm9.439 19.835a.658.658 0 0 1 .93.025C91.945 36.582 93.25 57.325 82.08 72.49c-12.645 17.165-36.837 21.416-54.766 9.925l2.172 9.063a.658.658 0 0 1-1.28.307l-2.54-10.603a.658.658 0 0 1-.053-.278.658.658 0 0 1 .692-.676l10.712-3.181a.657.657 0 1 1 .375 1.26l-9.6 2.851c17.378 11.31 40.947 7.224 53.229-9.448 10.792-14.65 9.534-34.683-3.014-47.939a.658.658 0 0 1 .025-.93Z" class="-path--secondary" fill="#FF9E18"/>
  <path fill-rule="evenodd" d="M20.936 47.307c0-14.1 11.719-25.558 26.21-25.558 14.49 0 26.208 11.458 26.208 25.558S61.636 72.864 47.145 72.864c-14.49 0-26.209-11.457-26.209-25.557Zm26.21-26.873c-15.187 0-27.525 12.016-27.525 26.873 0 14.856 12.338 26.873 27.524 26.873 15.186 0 27.525-12.017 27.525-26.873 0-14.857-12.339-26.873-27.525-26.873Zm-3.032 27.403H39.01l-.009 2.771h6.231v2.342h-6.23v2.793h6.23v3.216h3.824V55.75h6.222V52.95h-6.223v-2.342h6.2V47.83h-5.16l7.487-10.926h-4.487l-5.943 9.232-5.847-9.225h-4.623l7.43 10.926Z" class="-path--primary" fill="#083176"/>
</svg>
