<svg id="icon-products-hyperscalers" viewBox="0 0 96 96" xmlns="http://www.w3.org/2000/svg">
  <path fill-rule="evenodd" d="M21.094 18.828h64.034c2.218 0 3.953 1.736 3.953 3.954v41.95c0 2.218-1.735 3.954-3.953 3.954H21.094c-2.218 0-3.954-1.736-3.954-3.954v-41.95c0-2.218 1.736-3.954 3.954-3.954Zm4.05 13.405c0 1.253 1.061 2.314 2.315 2.314 1.253 0 2.314-1.06 2.314-2.314s-1.06-2.315-2.314-2.315-2.315 1.061-2.315 2.315Zm7.137 0c0 1.253 1.06 2.314 2.314 2.314s2.315-1.06 2.315-2.314-1.061-2.315-2.315-2.315-2.314 1.061-2.314 2.315Zm7.136 0c0 1.253 1.06 2.314 2.314 2.314s2.218-1.06 2.315-2.314c0-1.254-1.061-2.315-2.315-2.315-1.253 0-2.314 1.061-2.314 2.315ZM25.144 60.68c0 1.254 1.061 2.315 2.315 2.315 1.253 0 2.314-1.061 2.314-2.315 0-1.253-1.06-2.314-2.314-2.314s-2.315 1.06-2.315 2.314Zm7.137 0c0 1.254 1.06 2.315 2.314 2.315s2.315-1.061 2.315-2.315c0-1.253-1.061-2.314-2.315-2.314s-2.314 1.06-2.314 2.314Zm7.136 0c0 1.254 1.06 2.315 2.314 2.315s2.218-1.061 2.315-2.315c0-1.253-1.061-2.314-2.315-2.314-1.253 0-2.314 1.06-2.314 2.314Z" class="-path--shadow" fill="#38C6F4"/>
  <path fill-rule="evenodd" d="M85.224 13.717a.66.66 0 0 1 .675-.675h7.426a.66.66 0 0 1 .675.675v7.233a.66.66 0 0 1-.675.675.66.66 0 0 1-.675-.675v-5.786l-8.39 8.293c.579.675.964 1.447.964 2.41l.386 10.223v6.847a3.869 3.869 0 0 1-3.857 3.858H15.019a3.869 3.869 0 0 1-3.858-3.858V26.061c0-.965.29-1.736.868-2.411l-8.697-8.417v5.717a.658.658 0 1 1-1.315 0v-7.233c0-.363.295-.658.658-.658H10.1a.658.658 0 0 1 0 1.316H4.402l8.592 8.407c.578-.386 1.253-.579 2.025-.579h66.444c.675 0 1.254.193 1.833.483l8.39-8.294h-5.787a.66.66 0 0 1-.675-.675Zm-2.893 9.933-7.618 7.522c-.193.29-.193.675.193.771.192.29.578.29.868 0l7.715-7.715c.289.386.578.965.578 1.543l.386 10.223v6.847a2.593 2.593 0 0 1-2.604 2.603H15.115a2.593 2.593 0 0 1-2.604-2.603V25.964c0-.578.193-1.157.483-1.543l3.279 3.183c.192.289.578.289.867 0 .29-.193.29-.579 0-.868l-3.182-3.086c.29-.097.675-.193 1.06-.193h66.445c.29 0 .579.096.868.193Zm-.964 25.748H15.019c-2.025 0-3.761 1.64-3.761 3.761v16.973c0 .868.29 1.736.868 2.41l-8.776 8.39v-5.785a.66.66 0 0 0-.675-.675.66.66 0 0 0-.675.675v7.136c0 .386.29.675.675.675h7.426c.289 0 .675-.29.675-.675a.66.66 0 0 0-.675-.675H4.314l8.776-8.294c.579.386 1.254.579 2.025.579H81.85c.482 0 .964-.096 1.35-.29l8.39 8.005h-5.786a.66.66 0 0 0-.675.675c0 .386.29.675.675.675h7.425a.66.66 0 0 0 .676-.675v-7.136a.66.66 0 0 0-.675-.675.66.66 0 0 0-.675.675v5.786l-8.294-7.908c.868-.675 1.35-1.736 1.35-2.893v-6.847l-.386-10.222c-.096-2.025-1.832-3.665-3.857-3.665Zm2.121 22.76c.58-.483.965-1.158.965-2.026v-6.847l-.386-10.222c-.096-1.447-1.254-2.508-2.604-2.508H15.115c-1.35.097-2.507 1.158-2.507 2.604v16.973c0 .579.193 1.157.482 1.543l3.279-3.086c.193-.29.579-.29.868 0 .29.193.29.579 0 .868l-3.182 2.99c.289.096.675.192 1.06.192h67.12l-3.376-3.182a.609.609 0 0 1 0-.868.609.609 0 0 1 .869 0l3.76 3.568Z" class="-path--primary" fill="#083176"/>
  <path fill-rule="evenodd" d="M24.663 32.233a2.799 2.799 0 0 0 2.796 2.796c1.447 0 2.7-1.253 2.797-2.796a2.799 2.799 0 0 0-2.797-2.797 2.799 2.799 0 0 0-2.796 2.797Zm.964 0c0-.965.771-1.833 1.832-1.833.965 0 1.832.868 1.832 1.833 0 .964-.771 1.832-1.832 1.832-.964 0-1.832-.868-1.832-1.832Zm6.172 0a2.799 2.799 0 0 0 2.797 2.796c1.446 0 2.7-1.253 2.796-2.796a2.799 2.799 0 0 0-2.797-2.797 2.799 2.799 0 0 0-2.796 2.797Zm.964 0c0-.965.772-1.833 1.833-1.833.964 0 1.832.868 1.832 1.833 0 .964-.868 1.832-1.832 1.832-.965 0-1.833-.868-1.833-1.832Zm8.969 2.796a2.799 2.799 0 0 1-2.797-2.796 2.799 2.799 0 0 1 2.797-2.797 2.799 2.799 0 0 1 2.796 2.797c-.096 1.543-1.35 2.796-2.796 2.796Zm0-4.629c-1.061 0-1.833.868-1.833 1.833 0 .964.868 1.832 1.833 1.832 1.06 0 1.832-.868 1.832-1.832 0-.965-.868-1.833-1.832-1.833Zm-17.07 30.185a2.799 2.799 0 0 0 2.797 2.797c1.447 0 2.797-1.254 2.797-2.797a2.799 2.799 0 0 0-2.797-2.797 2.799 2.799 0 0 0-2.796 2.797Zm.965.096c0-.964.771-1.832 1.832-1.832.965 0 1.832.868 1.832 1.832 0 .965-.771 1.833-1.832 1.833-.964 0-1.832-.868-1.832-1.833Zm8.969 2.7a2.799 2.799 0 0 1-2.797-2.796 2.799 2.799 0 0 1 2.797-2.797 2.799 2.799 0 0 1 2.796 2.797c0 1.543-1.35 2.797-2.797 2.797Zm0-4.532c-1.061 0-1.833.868-1.833 1.832 0 .965.868 1.833 1.833 1.833.964 0 1.832-.868 1.832-1.833 0-.964-.868-1.832-1.832-1.832Zm4.34 1.736a2.799 2.799 0 0 0 2.796 2.797c1.446 0 2.796-1.254 2.796-2.797a2.799 2.799 0 0 0-2.796-2.797 2.799 2.799 0 0 0-2.797 2.797Zm.963.096c0-.964.772-1.832 1.833-1.832.964 0 1.832.868 1.832 1.832 0 .965-.772 1.833-1.832 1.833-.965 0-1.833-.868-1.833-1.833Z" class="-path--secondary" fill="#FF9E18"/>
</svg>
