<svg id="icon-products-ship-satellite-internet" viewBox="0 0 96 96" xmlns="http://www.w3.org/2000/svg">
  <path fill-rule="evenodd" d="M77.094 81.137c.04.029.089.063.206.063.2 0 .4-.1.6-.3l8.7-29.1c.1-.2-.1-.5-.3-.6l-11.8-4.4V30.7c0-.3-.2-.5-.5-.5h-8.4v-8c0-.3-.2-.5-.5-.5H36.7c-.3 0-.5.2-.5.5v8h-8.4c-.3 0-.5.2-.5.5v16.1l-11.8 4.4c-.2.1-.4.4-.3.6l8.7 29.1c.1.2.3.3.5.3 20.1-.3 50.4-.7 52.6-.1.041 0 .066.017.094.037Z" class="-path--shadow" fill="#38C6F4"/>
  <path fill-rule="evenodd" d="M58.443 9.278c.118.068.21.122.357.122.1 0 .3 0 .4-.3.2-.2.3-.6 0-.9l-.3-.3c-3.8-3.7-8.8-5.7-14-5.6-5.2.1-10.1 2.2-13.8 6-.3.2-.3.6 0 .9.2.3.6.3.9 0 3.4-3.5 8-5.5 12.9-5.5 4.9-.1 9.6 1.8 13.1 5.2l.3.3c.054.027.1.054.143.078ZM54.5 13c-.146 0-.24-.053-.357-.121A2.619 2.619 0 0 0 54 12.8l-.2-.2C51.5 10.3 48.3 9 45 9.1c-3.3 0-6.4 1.4-8.7 3.8-.3.3-.7.3-.9 0-.3-.3-.3-.7 0-.9 2.6-2.6 6-4.1 9.7-4.2 3.7 0 7.1 1.3 9.8 3.9l.2.2c.3.3.2.7 0 .9-.2.2-.4.2-.6.2Zm-13.9 3.2c-.146 0-.24-.054-.357-.122A2.619 2.619 0 0 0 40.1 16c-.3-.3-.3-.7 0-.9 1.3-1.4 3.1-2.1 5-2.1s3.7.7 5 2l.1.1c.3.3.2.7 0 .9-.3.3-.7.2-.9 0l-.1-.1c-1.1-1.1-2.6-1.6-4.1-1.6-1.5 0-3 .6-4 1.7-.2.2-.3.2-.5.2Z" class="-path--secondary" fill="#FF9E18"/>
  <path fill-rule="evenodd" d="M44.5 20.3v4.9H30.9c-.4 0-.7.3-.7.7v7.8H22c-.4 0-.7.3-.7.7v16.087L9.8 54.8c-.3.1-.5.5-.4.8l8.7 29c.1.3.3.5.6.5h.2c.3-.1.5-.5.4-.8l-8.5-28.5 33.7-12.6v42.1c0 .4.3.7.7.7.3 0 .6-.3.6-.7v-1.728a.718.718 0 0 0 .1-.372V43.138L79.6 55.8l-8.5 28.5c-.1.3.1.7.4.8.3.1.7-.1.8-.4L81 55.6c.1-.3-.1-.7-.4-.8l-11.7-4.387V34.4c0-.4-.3-.7-.7-.7h-8.1v-7.8c0-.4-.3-.7-.7-.7H45.9v-4.9c0-.4-.3-.7-.7-.7-.4 0-.7.3-.7.7Zm14.2 13.4v-7.1H31.6v7.1h27.1Zm8.8 1.4v14.788L45.4 41.6h-.02c-.126-.046-.253-.063-.38 0l-22.3 8.362V35.1h44.8Zm-7.9 21.8h.2c.2 0 .5-.1.6-.4.1-.3-.1-.7-.4-.8l-7.1-2.8c-.3-.1-.7.1-.8.4-.1.3.1.7.4.8l7.1 2.8Zm-29.7-.4c.1.2.3.4.6.4h.2l7.1-2.8c.4-.1.5-.5.4-.8-.1-.4-.5-.5-.8-.4l-7.1 2.8c-.4.1-.5.5-.4.8Zm31.2 35.4c1.8 1 3.8 1.5 5.8 1.5.563 0 1.1-.026 1.624-.052.5-.024.988-.048 1.476-.048 3-.8 5.6-2.8 7.1-5.5.2-.3.1-.7-.2-.9-.3-.2-.7-.1-.9.2-1.4 2.4-3.6 4.2-6.3 4.9-2.7.7-5.5.4-7.9-1-1.7-.9-3.1-2.3-4-4-.4-.7-1.1-1.1-1.8-1.1s-1.4.4-1.8 1c-1.4 2.4-3.6 4.2-6.3 4.9-2.7.7-5.5.4-7.9-1-1.7-.9-3.1-2.3-4-4-.2-.5-.7-.8-1.2-1-.6-.1-1.1-.1-1.6.2-.3.2-.6.5-.8.8-1.4 2.4-3.6 4.2-6.3 4.9-2.7.7-5.5.4-7.9-1-1.7-.9-3.1-2.3-4-4-.2-.4-.6-.5-.9-.3-.4.2-.5.6-.3.9 1.1 1.9 2.6 3.4 4.5 4.5 2.7 1.5 5.9 1.9 8.9 1.1 3-.9 5.6-2.8 7.1-5.6l.3-.3c.2-.1.4-.2.6-.1.03.03.07.06.113.094.099.076.217.167.287.306 1.1 1.9 2.6 3.4 4.5 4.5 2.7 1.5 5.9 1.9 8.9 1.1 3-.8 5.6-2.8 7.1-5.5.3-.5 1-.5 1.3 0 1.1 1.9 2.6 3.4 4.5 4.5Z" class="-path--primary" fill="#083176"/>
</svg>
