<svg id="icon-products-email" viewBox="0 0 96 96" xmlns="http://www.w3.org/2000/svg">
  <path fill-rule="evenodd" d="M50.978 6.457 70.732 18.17H31.323L50.978 6.457Zm24.42 47.25V20.95L94.06 32.068v48.045c0 1.787-1.39 3.177-3.177 3.177H11.172c-1.787 0-3.177-1.39-3.177-3.177V31.968l7.843-4.665v26.405l29.78 17.67 29.78-17.67Z" class="-path--shadow" fill="#38C6F4"/>
  <path fill-rule="evenodd" d="M76.093 29.189V17.475H56.338l-10.72-6.353-10.721 6.353H15.242V29.09L1.94 37.03v48.543c0 2.283 1.687 3.97 3.871 3.97h79.712c2.184 0 3.871-1.687 3.871-3.871V37.03l-13.301-7.842ZM45.617 12.71l8.14 4.865h-16.28l8.14-4.864Zm29.086 17.174v23.328L45.717 70.582 16.632 53.212V18.865H74.802v11.019h-.1ZM3.33 37.825l12.011-7.147v21.74L3.33 45.27v-7.445Zm0 9.033 27 16.082-27 10.224V46.858Zm84.675 38.814a2.458 2.458 0 0 1-2.482 2.482H5.811c-1.39 0-2.481-1.092-2.481-2.581v-10.92l28.49-10.82 13.996 8.339 13.898-8.339 28.29 10.82v11.019Zm0-12.409L61.004 62.94l27-16.18v26.503Zm0-27.993-11.912 7.147v-21.74l11.912 7.148v7.445Z" class="-path--primary" fill="#083176"/>
  <path d="M57.958 53.553h3.182c-.946 1.979-2.495 3.613-4.559 4.73-2.322 1.291-5.16 1.98-8.515 1.98-3.268 0-6.02-.517-8.429-1.635-2.322-1.118-4.128-2.752-5.246-4.903a15.004 15.004 0 0 1-1.72-7.053c0-2.752.688-5.332 1.978-7.74 1.29-2.409 3.096-4.215 5.332-5.42 2.237-1.203 4.903-1.805 7.827-1.805 2.495 0 4.645.516 6.623 1.462 1.892.946 3.44 2.322 4.387 4.128 1.032 1.807 1.548 3.699 1.548 5.849 0 2.494-.774 4.817-2.322 6.88-1.979 2.581-4.387 3.871-7.483 3.871-.86 0-1.463-.172-1.807-.43-.43-.258-.688-.688-.86-1.29-1.118 1.118-2.494 1.72-4.042 1.72-1.634 0-3.01-.602-4.043-1.72-1.032-1.204-1.548-2.666-1.548-4.558 0-2.323.688-4.473 1.978-6.365 1.549-2.322 3.613-3.527 6.021-3.527 1.72 0 3.01.689 3.87 1.979l.345-1.635h3.87l-2.236 10.666c-.172.688-.172 1.118-.172 1.29 0 .258.086.43.172.516a.657.657 0 0 0 .43.172c.43 0 1.118-.258 1.806-.86 1.032-.774 1.806-1.72 2.408-3.01.602-1.29.946-2.58.946-3.957 0-2.408-.86-4.472-2.666-6.107-1.72-1.634-4.214-2.494-7.31-2.494-2.667 0-4.903.516-6.796 1.634-1.892 1.118-3.268 2.666-4.214 4.645-.946 1.978-1.376 4.042-1.376 6.192 0 2.065.516 3.957 1.548 5.677 1.032 1.72 2.494 2.924 4.386 3.785 1.893.86 4.043 1.204 6.537 1.204 2.322 0 4.387-.344 6.107-.946 1.72-.688 3.01-1.635 4.043-2.925Zm-15.913-6.106c0 1.29.259 2.15.775 2.752.516.602 1.118.86 1.892.86a2.97 2.97 0 0 0 1.548-.43c.344-.172.774-.516 1.118-.946.516-.602.946-1.462 1.376-2.666.43-1.205.602-2.237.602-3.269 0-1.118-.258-1.978-.774-2.58-.516-.602-1.204-.86-1.978-.86-.86 0-1.634.344-2.322.946-.688.688-1.29 1.634-1.634 2.838-.43 1.29-.603 2.408-.603 3.355Z" class="-path--secondary" fill="#FF9E18"/>
</svg>
