<svg id="icon-products-edge-security" viewBox="0 0 96 96" xmlns="http://www.w3.org/2000/svg">
  <path fill-rule="evenodd" d="M29 23.637c0-1.6 1.2-3 2.7-3.2l20-3.2c.3-.1.7-.1 1 0l20 3.2c1.6.3 2.8 1.6 2.8 3.2v25.8c0 4.8-2 9.4-5.6 12.7l-15.5 13.8c-1.2 1.1-3.1 1.1-4.4 0l-15.4-13.9c-3.6-3.2-5.6-7.9-5.6-12.7v-25.7Zm26.3 18.3H40v14.3h15.3v-14.3Z" class="-path--shadow" fill="#38C6F4"/>
  <path fill-rule="evenodd" d="M4.7 23.037c-1.4 0-2.5 1.1-2.5 2.5s1.1 2.5 2.5 2.5 2.5-1.1 2.5-2.5c0-1.3-1.1-2.5-2.5-2.5Zm-3.9 2.6c0-2.1 1.7-3.8 3.9-3.8 1.86 0 3.486 1.335 3.832 3.1H14.5c1.7 0 3.2 1.4 3.2 3.2v2.1c0 1.4 1.1 2.5 2.6 2.5h5.2v1.3h-5.3c-2.1 0-3.9-1.7-3.9-3.9v-2.1c0-1-.8-1.8-1.9-1.8H8.553c-.288 1.815-1.867 3.2-3.853 3.2-2.1 0-3.9-1.7-3.9-3.8Zm24.6 13.2h-9.168c-.346-1.765-1.971-3.1-3.832-3.1-2.2 0-3.9 1.7-3.9 3.8 0 2.1 1.7 3.8 3.9 3.8 1.986 0 3.565-1.385 3.853-3.2H25.4v-1.3Zm-16.868 13.3c-.346-1.765-1.971-3.1-3.832-3.1-2.2 0-3.9 1.7-3.9 3.8 0 2.1 1.8 3.8 3.9 3.8 1.986 0 3.565-1.385 3.853-3.2H13.6c1.8 0 3.2-1.4 3.2-3.1v-2c0-.6.2-1 .6-1.4.4-.4.9-.6 1.4-.6h6.6v-1.3h-6.7c-.9.1-1.7.4-2.3 1-.6.6-.9 1.4-.9 2.3v1.9c0 1-.8 1.9-1.9 1.9H8.532Zm-6.332.6c0-1.4 1.1-2.5 2.5-2.5s2.5 1.2 2.5 2.5c0 1.4-1.1 2.5-2.5 2.5s-2.5-1.1-2.5-2.5Zm10.1-15.7c-1.4 0-2.5 1.1-2.5 2.5s1.1 2.5 2.5 2.5 2.5-1.1 2.5-2.5c.1-1.4-1-2.5-2.5-2.5Zm79-14c-1.4 0-2.5 1.1-2.5 2.5s1.1 2.5 2.5 2.5 2.5-1.1 2.5-2.5c0-1.3-1.1-2.5-2.5-2.5Zm-9.7 3.2h5.85c.303 1.815 1.954 3.2 3.85 3.2 2.2 0 3.9-1.7 3.9-3.8 0-2.1-1.8-3.8-3.9-3.8-1.95 0-3.506 1.335-3.835 3.1H81.6c-1.8 0-3.2 1.5-3.2 3.2v2.1c0 1.4-1.2 2.5-2.6 2.5h-3.9v1.3h3.9c2.1 0 3.8-1.7 4-3.9v-2.1c0-1 .8-1.8 1.8-1.8Zm2.1 17.1c-1.986 0-3.565-1.385-3.853-3.2H71.9v-1.3h7.964c.33-1.765 1.887-3.1 3.836-3.1 2.1 0 3.9 1.7 3.9 3.8 0 2.1-1.7 3.8-3.9 3.8Zm3.75 10.1H82.5c-1.8 0-3.2-1.4-3.2-3.2v-2c0-1.1-.9-1.9-1.9-1.9H72v-1.3h5.4c1.8 0 3.2 1.5 3.2 3.2v2c0 1.1.9 1.9 1.9 1.9h4.965c.329-1.765 1.886-3.1 3.835-3.1 2.1 0 3.9 1.7 3.9 3.8 0 2.1-1.7 3.8-3.9 3.8-1.896 0-3.547-1.385-3.85-3.2Zm1.35-.7c0-1.4 1.1-2.5 2.5-2.5s2.5 1.2 2.5 2.5c0 1.4-1.1 2.5-2.5 2.5s-2.5-1.1-2.5-2.5Zm-5.1-15.7c-1.4 0-2.5 1.1-2.5 2.5s1.1 2.5 2.5 2.5 2.5-1.1 2.5-2.5-1.1-2.5-2.5-2.5Z" class="-path--secondary" fill="#FF9E18"/>
  <path fill-rule="evenodd" d="M46 77.838c.7.7 1.7 1 2.6 1 1 0 1.9-.4 2.7-1l15.6-13.8c3.7-3.4 5.8-8.2 5.8-13.2v-25.8c0-2-1.4-3.6-3.3-3.9l-20-3.2c-.5-.1-.9-.1-1.3 0l-20 3.2c-1.9.3-3.3 2-3.3 3.9v25.7c0 5 2.1 9.8 5.8 13.2l15.4 13.9Zm2.2-58.6h.9l20 3.2c1.3.2 2.2 1.3 2.2 2.6v25.7c.1 4.7-1.9 9.1-5.3 12.2l-15.5 13.8c-1 .9-2.5.9-3.5 0l-15.5-13.8c-3.5-3.1-5.4-7.6-5.4-12.2v-25.7c-.1-1.3.9-2.4 2.1-2.6l20-3.2Zm-.9 14.3c-2.7 0-4.3 1.1-5.3 2.3-.4.6-.7 1.1-.9 1.6-.044.087-.068.175-.09.254-.03.102-.054.19-.11.245v3.5h-1.3c-.4 0-.7.3-.7.7v14.3c0 .4.3.7.7.7h15.3c.4 0 .7-.3.7-.7v-14.4c0-.4-.3-.7-.7-.7h-1.3V37.937c0-.1-.1-.3-.2-.5-.046-.092-.092-.194-.142-.305-.166-.37-.373-.833-.758-1.295-.9-1.2-2.5-2.3-5.2-2.3Zm5.5 9.1h1.5v13h-14v-13h12.5Zm-.5-1.3v-3.2a.358.358 0 0 0-.037-.132c-.029-.069-.063-.151-.063-.269-.1-.3-.3-.8-.7-1.2-.7-.9-1.9-1.8-4.2-1.8-2.3 0-3.6.9-4.2 1.8-.178.237-.32.51-.449.754-.088.169-.17.324-.25.446-.1.2-.1.3-.1.4v3.2h10Zm-5 4.9c-1.1 0-2 .9-2 2 0 .7.4 1.3.9 1.7v1.8c0 .4.3.7.7.7h.8c.4 0 .7-.3.7-.7v-1.9c.5-.4.9-1 .9-1.6 0-1.1-.9-2-2-2Z" class="-path--primary" fill="#083176"/>
</svg>
