<svg id="icon-platform-connected-security" viewBox="0 0 96 96" xmlns="http://www.w3.org/2000/svg">
  <path d="M36.711 36.941h34.256v32.437H36.711V36.941Z" class="-path--shadow" fill="#38C6F4"/>
  <path fill-rule="evenodd" d="M67.094 46.957c0-.44.355-.796.793-.796H83.05c.438 0 .793.357.793.796 0 .44-.355.795-.793.795H67.886a.794.794 0 0 1-.792-.795ZM8.188 59.021c-.331 1.676-1.794 2.946-3.559 2.946C2.619 61.967 1 60.32 1 58.3s1.619-3.666 3.629-3.666c1.711 0 3.14 1.194 3.526 2.795h24.447c.438 0 .793.356.793.796 0 .44-.355.795-.793.795H8.188Zm4.605 2.554a.794.794 0 0 0-.792.795c0 .44.355.796.793.796h9.47v4.684c0 .44.355.796.793.796h9.545a.794.794 0 0 0 .793-.796.794.794 0 0 0-.793-.795H23.85V62.37a.794.794 0 0 0-.792-.795H12.794Zm55.547 5.48a.794.794 0 0 0-.792.796c0 .439.355.795.792.795h15.09a.794.794 0 0 0 .793-.795.794.794 0 0 0-.793-.796H68.34Zm23.12-16.562a1.76 1.76 0 0 0-1.747 1.773 1.76 1.76 0 0 0 1.747 1.773c.958 0 1.746-.788 1.746-1.773 0-.985-.788-1.773-1.746-1.773ZM68.164 53.06h20.058c.354 1.471 1.665 2.57 3.238 2.57 1.845 0 3.33-1.513 3.33-3.365 0-1.852-1.485-3.364-3.33-3.364-1.573 0-2.884 1.098-3.238 2.568H68.164a.794.794 0 0 0-.792.796c0 .44.355.795.792.795Zm-65.58 5.24c0-1.152.922-2.075 2.045-2.075 1.123 0 2.044.923 2.044 2.075 0 1.152-.92 2.075-2.044 2.075-1.123 0-2.044-.923-2.044-2.075ZM14.52 47.217c0-.44.354-.795.792-.795h17.107c.438 0 .793.356.793.795 0 .44-.355.796-.793.796H15.312a.794.794 0 0 1-.792-.796Zm8.015 4.637a.794.794 0 0 0-.792.795c0 .44.355.796.792.796h9.803a.794.794 0 0 0 .793-.796.794.794 0 0 0-.793-.795h-9.803Zm45.63 3.549a.794.794 0 0 0-.793.795c0 .44.355.795.792.795h8.15v5.665c0 .44.355.795.793.795h13.98a.794.794 0 0 0 .792-.795.794.794 0 0 0-.792-.796H77.9v-5.664a.794.794 0 0 0-.792-.795h-8.943Z" class="-path--secondary" fill="#FF9E18"/>
  <path fill-rule="evenodd" d="M50.265 22c-5.917 0-9.33 2.41-11.243 4.892a12.42 12.42 0 0 0-1.84 3.367c-.166.46-.273.846-.339 1.121a7.533 7.533 0 0 0-.089.419l-.004.027-.002.01v.004l.783.121-.783-.12a.8.8 0 0 0-.01.12v7.802h-3.6a.794.794 0 0 0-.793.795v32.437c0 .44.355.795.792.795h34.256a.794.794 0 0 0 .792-.795V40.558a.794.794 0 0 0-.792-.795h-3.601V31.96a.8.8 0 0 0-.01-.12l-.783.12.783-.121v-.005l-.002-.009-.004-.027a5.476 5.476 0 0 0-.089-.419 10.932 10.932 0 0 0-.338-1.12 12.42 12.42 0 0 0-1.84-3.369C59.594 24.41 56.181 22 50.264 22Zm12.462 19.354a.79.79 0 0 0 .544 0h3.33V72.2H33.928V41.353h28.798Zm-.52-1.591V32.03l-.004-.02a5.833 5.833 0 0 0-.056-.256 9.315 9.315 0 0 0-.29-.956c-.287-.8-.78-1.868-1.602-2.934-1.62-2.1-4.574-4.274-9.99-4.274s-8.37 2.173-9.99 4.274a10.828 10.828 0 0 0-1.603 2.934 9.315 9.315 0 0 0-.345 1.212l-.004.02v7.732h23.884Zm-8.198 14.969a3.79 3.79 0 0 1-1.963 3.328v4.632c0 .44-.355.796-.793.796h-1.82a.794.794 0 0 1-.793-.796v-4.551a3.788 3.788 0 0 1-2.12-3.409c0-2.083 1.671-3.782 3.745-3.782s3.744 1.699 3.744 3.782Z" class="-path--primary" fill="#083176"/>
</svg>
