<svg id="icon-business-enhanced-customer-experience" viewBox="0 0 96 96" xmlns="http://www.w3.org/2000/svg">
  <path class="-path--shadow" fill="#38C6F4" d="M76.62 65.35a9.17 9.17 0 0 1-4.57 5.01L46.21 83.13a8.2 8.2 0 0 0-4.53 7.64H22.86l3.03-10.25c.7-2.47 1.54-4.9 2.5-7.27l1.55-3.88a13.28 13.28 0 0 1 8.55-7.73l12.78-3.84a3.22 3.22 0 0 1 3.77 1.53l.1.21a3.02 3.02 0 0 1-1.66 3.95l-6.42 2.74c-.3.12-.6.31-.83.55l-.03.04c-.9.93-.84 2.4.1 3.26.7.7 1.77.9 2.7.53l16.4-5.94a9.87 9.87 0 0 0 5.24-4.65l3.1-5.42A3.42 3.42 0 0 1 77.7 53l.17.06h.02a3.12 3.12 0 0 1 1.86 4l-3.13 8.3v-.01ZM59.02 49h-18a3.6 3.6 0 0 1-3.6-3.58v-3.55c0-1.32.73-2.53 1.9-3.15l3.5-1.88 1.25-.7c.9-.5 1.98-.59 2.97-.24l1.75.62c.8.3 1.68.3 2.5 0l1.66-.62a3.64 3.64 0 0 1 3 .25l1.26.69 3.54 1.88a3.6 3.6 0 0 1 1.9 3.17v3.54a3.6 3.6 0 0 1-3.6 3.6l-.04-.03h.01Zm-9-17.95c-4 0-7.27-3.86-7.27-8.61 0-4.73 3.27-8.58 7.27-8.58 4 0 7.25 3.86 7.25 8.59s-3.25 8.6-7.25 8.6Z"/>
  <path class="-path--secondary" fill="#FF9E18" d="M23.85 26.6h2.67a2.67 2.67 0 0 1 2.67 2.66 2.67 2.67 0 0 1-2.67 2.65h-2.67a2.67 2.67 0 0 1-2.67-2.65c0-1.48 1.2-2.67 2.67-2.67v.01Zm50.75 0h2.67a2.67 2.67 0 0 1 2.68 2.66 2.67 2.67 0 0 1-2.68 2.65h-2.66a2.67 2.67 0 0 1-2.67-2.65c0-1.48 1.2-2.67 2.67-2.67v.01ZM50.55 0c1.47 0 2.67 1.2 2.67 2.68V5.3a2.67 2.67 0 0 1-5.34 0V2.64A2.67 2.67 0 0 1 50.55 0ZM29.77 8.55a2.67 2.67 0 0 1 3.77 0l1.88 1.89a2.65 2.65 0 0 1 .02 3.76 2.68 2.68 0 0 1-3.78 0l-1.9-1.88a2.65 2.65 0 0 1 0-3.77h.01Zm35.9 1.89 1.87-1.89a2.68 2.68 0 1 1 3.8 3.77l-1.9 1.88a2.68 2.68 0 0 1-4.36-2.9c.13-.32.33-.61.57-.86h.02Z"/>
  <path class="-path--primary" fill="#083176" d="M71.97 69.22a9.8 9.8 0 0 1-4.85 5.3L41.3 87.32a7.65 7.65 0 0 0-4.2 7.07.62.62 0 0 1-.6.63H17.6a.62.62 0 0 1-.59-.79L20.05 84a77.93 77.93 0 0 1 2.51-7.32l1.55-3.91a13.9 13.9 0 0 1 8.97-8.09l12.83-3.86a3.83 3.83 0 0 1 4.63 2.14 3.64 3.64 0 0 1-1.99 4.75l-6.44 2.76a1.7 1.7 0 0 0-.57 2.81c.55.51 1.35.66 2.05.39l16.33-5.92a9.3 9.3 0 0 0 4.95-4.4l3.14-5.4a4.04 4.04 0 0 1 4.68-1.88l.2.08a3.73 3.73 0 0 1 2.22 4.79l-3.14 8.28ZM35.85 93.8a8.9 8.9 0 0 1 4.88-7.58L66.56 73.4a8.55 8.55 0 0 0 4.25-4.63l3.13-8.28a2.48 2.48 0 0 0-1.49-3.18l-.14-.05a2.8 2.8 0 0 0-3.23 1.3l-3.13 5.38a10.53 10.53 0 0 1-5.6 4.97l-16.33 5.9a3.2 3.2 0 0 1-3.35-.65 2.95 2.95 0 0 1-.08-4.19h.02c.3-.3.66-.54 1.02-.68l6.44-2.75a2.4 2.4 0 0 0 1.25-3.3A2.6 2.6 0 0 0 46.27 62l-12.84 3.86a12.65 12.65 0 0 0-8.17 7.35l-1.55 3.9a76.4 76.4 0 0 0-2.47 7.2l-2.78 9.46h17.4v.03Zm22.98-41.54H37.75a4.4 4.4 0 0 1-4.4-4.4v-4.5c0-1.62.9-3.1 2.33-3.87l4.15-2.2 1.52-.83a4.45 4.45 0 0 1 3.64-.3l2.23.83c.7.26 1.46.26 2.14 0l2.15-.82a4.43 4.43 0 0 1 3.66.27l1.57.84 4.15 2.22a4.41 4.41 0 0 1 2.33 3.86v4.52a4.41 4.41 0 0 1-4.39 4.38Zm3.15-4.38v-4.53a3.17 3.17 0 0 0-1.68-2.77l-4.16-2.22-1.55-.83a3.2 3.2 0 0 0-2.64-.21l-2.15.84a4.6 4.6 0 0 1-3.02 0l-2.22-.83a3.2 3.2 0 0 0-2.6.21l-1.54.83-4.16 2.21a3.16 3.16 0 0 0-1.66 2.77v4.5A3.17 3.17 0 0 0 37.76 51h21.07c1.73 0 3.14-1.4 3.15-3.13v.01ZM48.3 34.58c-4.52 0-8.1-4.43-8.1-9.85 0-5.43 3.58-9.85 8.1-9.85 4.53 0 8.11 4.42 8.11 9.85 0 5.4-3.6 9.85-8.1 9.85Zm0-1.24c3.75 0 6.86-3.85 6.86-8.61 0-4.8-3.08-8.61-6.86-8.61-3.76 0-6.84 3.82-6.84 8.6 0 4.8 3.08 8.62 6.84 8.62Z"/>
</svg>
