<svg id="icon-products-network-solutions" viewBox="0 0 96 96" xmlns="http://www.w3.org/2000/svg">
  <path d="M94.106 45.472c0 15.877-12.698 28.748-28.36 28.748-15.664 0-28.361-12.87-28.361-28.748 0-15.877 12.697-28.748 28.36-28.748s28.361 12.871 28.361 28.748Z" class="-path--shadow" fill="#38C6F4"/>
  <path fill-rule="evenodd" d="M14.739 32.116c0-2.386 1.905-4.304 4.236-4.304 2.332 0 4.237 1.918 4.237 4.304 0 2.385-1.905 4.303-4.237 4.303-2.331 0-4.236-1.918-4.236-4.303Zm4.236-5.62c-3.075 0-5.552 2.524-5.552 5.62 0 3.095 2.477 5.619 5.552 5.619 2.81 0 5.121-2.108 5.499-4.833h14.038a.658.658 0 0 0 0-1.316H24.503c-.263-2.848-2.63-5.09-5.528-5.09Zm4.895 43.747a.658.658 0 0 0 0 1.316H42.4a.658.658 0 0 0 0-1.316H23.87ZM7.447 57.753c-2.332 0-4.237 1.918-4.237 4.303s1.905 4.303 4.237 4.303c2.331 0 4.236-1.918 4.236-4.303s-1.905-4.304-4.236-4.304Zm-5.553 4.303c0-3.095 2.478-5.62 5.553-5.62 2.885 0 5.245 2.223 5.525 5.054h22.737a.658.658 0 0 1 0 1.316H12.95c-.362 2.743-2.681 4.87-5.503 4.87-3.075 0-5.553-2.525-5.553-5.62Zm1.788-19.12a.658.658 0 0 0-.006 1.317l20.543.097v10.31c0 .363.295.658.658.658h7.874a.658.658 0 0 0 0-1.316h-7.216V43.695a.658.658 0 0 0-.655-.658l-21.198-.1Z" class="-path--secondary" fill="#FF9E18"/>
  <path fill-rule="evenodd" d="M34.015 46.547a28.783 28.783 0 0 0-.19 3.316c0 3 .463 5.89 1.321 8.6l15.166-5.402c-1.187-3.973-1.985-7.856-2.406-11.46l-13.891 4.946Zm15.163-5.4c.398 3.582 1.184 7.472 2.376 11.472l20.25-7.212C70.52 41.45 68.97 37.83 67.28 34.702l-18.102 6.446Zm17.453-7.611-17.587 6.262c-.215-2.498-.234-4.826-.064-6.911.223-2.745.77-5.034 1.599-6.732.828-1.696 1.907-2.744 3.18-3.143 1.272-.398 2.746-.15 4.374.777 1.63.928 3.355 2.505 5.067 4.644 1.171 1.464 2.326 3.179 3.43 5.103Zm1.905.718c1.69 3.16 3.232 6.78 4.508 10.711l14.385-5.123a28.16 28.16 0 0 0-6.466-10.013l-12.427 4.425Zm3.663 12.41L51.94 53.877c1.262 3.973 2.796 7.616 4.473 10.776l18.241-6.496c-.426-3.597-1.238-7.495-2.456-11.495Zm3.725 11.042c-.446-3.613-1.268-7.495-2.477-11.46l-.007-.025 14.424-5.137a28.432 28.432 0 0 1 1.379 8.779c0 1.07-.059 2.126-.174 3.165a.659.659 0 0 0-.064.02l-13.08 4.658Zm-1.126 1.798-17.745 6.319c1.163 2.063 2.385 3.893 3.625 5.443 1.712 2.139 3.437 3.716 5.067 4.644 1.269.723 2.445 1.033 3.504.946a27.204 27.204 0 0 0 1.798-.596c.875-.544 1.633-1.449 2.252-2.716.83-1.698 1.376-3.987 1.6-6.732.177-2.195.147-4.66-.101-7.308Zm-.77 15.444c.159-.264.309-.54.45-.83.926-1.896 1.498-4.364 1.729-7.207.192-2.368.15-5.02-.133-7.862l12.795-4.556c-1.466 8.964-7.115 16.49-14.841 20.455Zm-2.42 2.508C82.676 73.305 90.56 62.512 90.56 49.863a29.719 29.719 0 0 0-1.674-9.87C84.883 28.608 74.153 20.45 61.534 20.45c-14.608 0-26.684 10.93-28.723 25.147a.658.658 0 0 0-.126 1.003 30.132 30.132 0 0 0-.177 3.264c0 16.236 12.987 29.413 29.026 29.413 2.759 0 5.428-.39 7.955-1.119a5.307 5.307 0 0 0 2.12-.701Zm-5.481.12c-.346-.149-.691-.322-1.035-.517-1.822-1.037-3.667-2.748-5.44-4.963-1.328-1.66-2.629-3.62-3.858-5.825L43.06 70.806c4.904 4.45 11.378 7.154 18.473 7.154 1.564 0 3.099-.132 4.593-.385ZM55.159 65.1c-1.677-3.188-3.202-6.831-4.459-10.78l-15.127 5.388a28.16 28.16 0 0 0 6.424 10.08L55.159 65.1Zm12.733-32.013c-1.172-2.066-2.407-3.91-3.667-5.484-1.772-2.215-3.618-3.926-5.439-4.962-.403-.23-.807-.428-1.212-.59a27.555 27.555 0 0 1 3.96-.285c7.038 0 13.467 2.662 18.356 7.049l-11.998 4.272Zm-17.695-8.87c-.292.417-.557.873-.797 1.363-.926 1.898-1.498 4.365-1.73 7.208-.183 2.257-.153 4.773.096 7.465l-13.541 4.822c1.58-9.336 7.702-17.093 15.972-20.858Z" class="-path--primary" fill="#083176"/>
</svg>
