<svg id="icon-devices-laptop" viewBox="0 0 96 96" xmlns="http://www.w3.org/2000/svg">
  <path d="M19.229 15h70.889v49.714H19.229V15Z" class="-path--shadow" fill="#38C6F4"/>
  <path fill-rule="evenodd" d="M11.902 21.643c0-.363.294-.658.657-.658h70.89c.362 0 .657.295.657.658v49.714c0 .12-.032.232-.088.33l10.36 7.253a.658.658 0 0 1 .28.552v1.236a.658.658 0 0 1-.658.657H2a.658.658 0 0 1-.657-.657v-1.23c0-.362.294-.657.657-.657h.024l9.944-7.195a.655.655 0 0 1-.066-.289V21.643Zm1.315 3.929v45.127H82.79V25.572H13.217ZM4.296 78.82l8.81-6.376H82.81l9.106 6.376H4.294Z" class="-path--primary" fill="#083176"/>
</svg>
