<svg id="icon-products-manufacturing" viewBox="0 0 96 96" xmlns="http://www.w3.org/2000/svg">
  <path fill-rule="evenodd" d="M66.352 65.16c2.5 8.2 11.1 12.7 19.2 10.2.5-.1.9-.3 1.4-.6 6.7-2.9 9.7-10.7 6.8-17.4l-18.2-41.6c-1.9-4.2-6.5-6.4-10.9-5a9.32 9.32 0 0 0-3.707 2.122l.007-.422-37.3 38.3a7.824 7.824 0 0 0-1.546 5.405 3.102 3.102 0 0 1 2.446-1.204c1.7 0 3.1 1.4 3.1 3.1a3.116 3.116 0 0 1-3.202 3.098l.002.001c3.1 2.9 7.8 3.1 11.1.4l25-23.6.043-2.775 5.357 28.275c.1.6.2 1.1.4 1.7ZM60.843 19.37l.01-.594c.098-.01.198-.014.299-.014 1.7-.1 3.1 1.4 3.1 3.1 0 1.7-1.4 3.1-3.1 3.1a3.079 3.079 0 0 1-1.924-.677 3.078 3.078 0 0 1-.676-1.924 3.12 3.12 0 0 1 2.291-2.991ZM74.552 71.46c3.8 0 6.9-3.1 6.9-6.9 0-3.8-3-6.9-6.9-6.9-3.8 0-6.9 3.1-6.9 6.9 0 3.8 3.1 6.9 6.9 6.9Z" class="-path--shadow" fill="#38C6F4"/>
  <path fill-rule="evenodd" d="M8.152 65.06c4.4-1.5 9.2.8 10.7 5.3 1.5 4.4-.8 9.3-5.2 10.8-.9.3-1.8.5-2.8.5-.4 0-.7.3-.7.7 0 .4.3.7.7.7 1.1 0 2.2-.2 3.2-.5 5.1-1.8 7.8-7.4 6.1-12.5-1.8-5.1-7.3-7.9-12.4-6.1-5.1 1.8-7.8 7.4-6.1 12.5.1.3.5.5.8.4.3-.1.5-.5.4-.8-1.4-4.6.9-9.5 5.3-11l-.2-.5.2.5Zm12 4.9-.6.2.6-.2Zm39.7 14.3c-.4 0-.7.3-.7.7 0 .4.3.7.7.7h29.5c.4 0 .7-.3.7-.7 0-.4-.3-.7-.7-.7h-29.5Z" class="-path--secondary" fill="#FF9E18"/>
  <path fill-rule="evenodd" d="M75.052 79.36c-2.6 0-5.1-.6-7.5-1.9-3.8-2-6.6-5.4-7.9-9.5-.167-.501-.264-1.003-.35-1.446a39.18 39.18 0 0 0-.05-.254l-7.8-41.7c-1-5.2 2.1-10.2 7-11.8 4.7-1.5 9.7.9 11.7 5.4l18.2 41.6c3.1 7-.1 15.2-7.1 18.3-.5.2-1 .4-1.5.5-1.5.5-3.1.8-4.7.8Zm-13.7-65.8c-.8 0-1.6.1-2.5.4-4.3 1.4-7 5.8-6.1 10.3l7.8 41.7.042.214c.087.45.186.956.358 1.386 1.2 3.8 3.7 6.9 7.2 8.8 3.5 1.8 7.4 2.2 11.2 1.1.4-.1.9-.3 1.3-.5 6.3-2.8 9.2-10.2 6.4-16.6l-18.1-41.7c-1.3-3.2-4.4-5.1-7.6-5.1Zm.2 12.6c-2.1 0-3.8-1.7-3.8-3.8 0-2.1 1.7-3.8 3.8-3.8 2.1 0 3.8 1.7 3.8 3.8 0 2.1-1.7 3.8-3.8 3.8Zm0-6.3c-1.4 0-2.5 1.1-2.5 2.5s1.1 2.5 2.5 2.5 2.5-1.1 2.5-2.5-1.1-2.5-2.5-2.5Zm-37 42c-2.1 0-3.8-1.7-3.8-3.8 0-2.1 1.7-3.8 3.8-3.8 2.1 0 3.8 1.7 3.8 3.8 0 2.1-1.7 3.8-3.8 3.8Zm0-6.3c-1.4 0-2.5 1.1-2.5 2.5s1.1 2.5 2.5 2.5 2.5-1.1 2.5-2.5-1.1-2.5-2.5-2.5Zm-5.9 8.7c1.7 1.6 3.9 2.5 6.2 2.5 2 0 4.1-.7 5.8-2.1l21.8-22.2c.3-.2.3-.6 0-.9-.2-.3-.6-.3-.9 0l-21.8 22.1c-3 2.5-7.4 2.3-10.2-.4-2.5-2.5-2.8-6.6-.7-9.4l30.5-32.9c.3-.2.3-.7 0-.9-.2-.3-.7-.3-.9 0l-30.6 33c-2.6 3.4-2.3 8.2.8 11.2Zm48.5.3c0 4.2 3.4 7.6 7.5 7.6s7.5-3.4 7.5-7.6c0-4.2-3.4-7.6-7.5-7.6s-7.5 3.4-7.5 7.6Zm1.3.1c0-3.5 2.8-6.3 6.2-6.3 3.4 0 6.2 2.8 6.2 6.3s-2.8 6.3-6.2 6.3c-3.4 0-6.2-2.9-6.2-6.3Z" class="-path--primary" fill="#083176"/>
</svg>
