<svg id="icon-products-online-shopping" viewBox="0 0 96 96" xmlns="http://www.w3.org/2000/svg">
  <path fill-rule="evenodd" d="M9.693 34.395c0-.363.295-.658.658-.658h14.175a.658.658 0 0 1 0 1.315H10.351a.658.658 0 0 1-.658-.657Zm5.895 18.262c0-.364.295-.658.658-.658H30.35a.658.658 0 1 1 0 1.315H16.246a.658.658 0 0 1-.658-.657ZM2.658 39.272c0-.938.764-1.703 1.713-1.703.949 0 1.713.765 1.713 1.703 0 .938-.764 1.704-1.713 1.704a1.708 1.708 0 0 1-1.713-1.704Zm1.713-3.019a3.024 3.024 0 0 0-3.028 3.02A3.024 3.024 0 0 0 4.37 42.29a3.028 3.028 0 0 0 2.956-2.361h18.827a.658.658 0 1 0 0-1.315H7.327a3.028 3.028 0 0 0-2.956-2.362ZM26.77 42.23h-9.037v5.942H5.319a.658.658 0 1 0 0 1.315h13.73v-5.942h7.72a.658.658 0 0 0 0-1.315Z" class="-path--secondary" fill="#FF9E18"/>
  <path fill-rule="evenodd" d="M28.991 22.366a.618.618 0 0 0-.592.794l9.009 30.307a.618.618 0 0 0 .592.442h49.68a.618.618 0 0 0 .605-.492l6.32-30.307a.618.618 0 0 0-.605-.744H28.99Z" class="-path--shadow" fill="#38C6F4"/>
  <path fill-rule="evenodd" d="M2.319 17c0-.363.294-.658.657-.658h16.716c.288 0 .542.188.628.462l3.363 10.788a.613.613 0 0 1 .036 0h64.995a.657.657 0 0 1 .643.791l-6.32 30.307a.658.658 0 0 1-.643.523H33.54l1.877 6.02a7.684 7.684 0 0 1 2.278-.343c4.147 0 7.528 3.283 7.653 7.387h30.333c.124-4.104 3.506-7.387 7.653-7.387 4.225 0 7.657 3.41 7.657 7.621 0 4.213-3.432 7.621-7.657 7.621-3.858 0-7.053-2.84-7.58-6.54H45.275c-.527 3.7-3.723 6.54-7.58 6.54-4.226 0-7.657-3.409-7.657-7.62a7.616 7.616 0 0 1 4.157-6.78L19.208 17.657H2.976A.658.658 0 0 1 2.32 17ZM33.13 57.898l-9.038-28.992h63.812l-6.046 28.992H33.131Zm43.862 14.613c0-3.48 2.836-6.306 6.342-6.306 3.505 0 6.342 2.827 6.342 6.306 0 3.48-2.837 6.306-6.342 6.306-3.506 0-6.342-2.826-6.342-6.306Zm-45.638 0c0-3.48 2.835-6.306 6.34-6.306 3.506 0 6.342 2.827 6.342 6.306 0 3.48-2.836 6.306-6.341 6.306-3.505 0-6.341-2.826-6.341-6.306Z" class="-path--primary" fill="#083176"/>
</svg>
