<svg id="icon-products-agility" viewBox="0 0 96 96" xmlns="http://www.w3.org/2000/svg">
  <path fill-rule="evenodd" d="M54.611 2c.3 0 .6.3.6.6v12.185C66.17 17.955 74.84 26.5 77.811 37.5c2.3 8.2 1.2 16.5-2.3 23.5l-.366-.166-.002.005.269.161a.541.541 0 0 1-.4.292v.008h-3.7v-.398a2.336 2.336 0 0 0-.1.006v.392c-.4 0-.8.1-1.2.4-.9.7-1.2 2-.5 3l1.6 2.2-.506.354.025.035.48-.289c.2.2.2.5 0 .7-1.2 1.4-2.6 2.7-4 3.9l-.098.052c-.14.077-.237.13-.401.048a1.289 1.289 0 0 1-.341-.242l-.06.042-6.4-9.2c-.4-.6-1.1-.9-1.8-.9v-.1h-5.3c-.4 0-.8.1-1.2.4l-.315-.45a5.918 5.918 0 0 0-.07.042l.285.408c-.9.7-1.2 2-.5 3l7 10-.523.366.024.034.5-.3c.3.5.5 1 .6 1.5 0 .2-.1.5-.4.6l-.184-.551-.055.004.139.347c-.983.393-2.062.786-3.143 1.084l.042.116c-17.6 4.9-35.8-5.3-40.7-22.8-4.88-17.334 5.322-35.362 22.7-40.343V2.6c0-.3.3-.6.6-.6h17.1ZM37.276 15.3l.003.01c.01-.004.022-.007.034-.01h-.037Zm17.41.02.008-.02h-.04v.011l.033.01Z" class="-path--shadow" fill="#38C6F4"/>
  <path fill-rule="evenodd" d="M38.812 82.6c-17.8 0-32.4-14.2-32.8-32-.4-15.2 9.6-28.5 24.3-32.4V5.9c0-.4.3-.7.7-.7h17.5c.4 0 .7.3.7.7v12.4c3.7 1.1 7.2 2.8 10.4 5 3.3 2.3 13.9 11.2 14 26.4 0 .4-.3.7-.7.7-.4 0-.7-.3-.7-.7-.1-14.6-10.3-23.1-13.5-25.3-3.2-2.3-6.7-4-10.5-5-.3-.1-.5-.3-.5-.6V6.6h-16.1v12.2c0 .4-.3.7-.7.7h-.1c-14.2 3.7-23.9 16.4-23.5 31 .4 17.3 14.9 31.1 32.3 30.7 3.1 0 6.2-.4 9.2-1.3.4-.1.7.1.8.5.1.3-.1.7-.5.8-3.1 1-6.3 1.4-9.5 1.4h-.8Zm-6.9-10.5c2.5.9 5.1 1.3 7.7 1.3h.7c.3 0 .6-.4.6-.7 0-.3-.3-.6-.7-.6-2.7 0-5.4-.4-8-1.3-5.4-1.9-9.8-5.9-12.3-11.1-2.5-5.2-2.7-11.1-.8-16.5 4.1-11.2 16.5-17.1 27.8-13.1.3.1.7-.1.8-.4.1-.3-.1-.7-.4-.8-11.9-4.3-25.1 1.9-29.4 13.9-2 5.8-1.7 12 .9 17.5s7.3 9.7 13.1 11.8Zm12.19-25.791a4.997 4.997 0 0 1 1.21 3.291c0 2.8-2.3 5-5 5-2.8 0-5-2.2-5-5s2.2-5 5-5c1.06 0 2.034.316 2.836.86L55.21 34.2c.3-.2.7-.2.9 0 .2.3.2.7 0 .9L44.103 46.309Z" class="-path--primary" fill="#083176"/>
  <path fill-rule="evenodd" d="M50.938 64.705c-.676-.9-.44-2.252.515-2.843.44-.264.821-.404 1.259-.404h5.4c.717 0 1.384.318 1.742.89l.009.014.01.014 9.2 13.2.009.014.01.014c.516.662.516 1.63 0 2.292l-.01.014-.01.014-9.18 13.171a2.538 2.538 0 0 1-1.88.847h-5.3a2.138 2.138 0 0 1-2.143-2.142c0-.432.137-.809.395-1.242l6.977-9.968a3.209 3.209 0 0 0 0-3.88l-6.99-9.987-.007-.009-.006-.009Zm1.774-4.563c-.762 0-1.38.26-1.939.594l-.006.004c-1.639 1.008-2.003 3.247-.888 4.745l6.994 9.992.01.014.01.013c.515.662.515 1.63 0 2.292l-.01.013-.01.014-7 10-.013.019-.012.02c-.335.558-.594 1.176-.594 1.938 0 1.978 1.61 3.458 3.458 3.458h5.3c1.087 0 2.171-.481 2.899-1.33l.021-.025.02-.027 9.19-13.187a3.209 3.209 0 0 0 0-3.878L60.96 61.637c-.644-1.017-1.771-1.495-2.848-1.495h-5.4Zm16.726 4.563c-.676-.9-.44-2.252.515-2.843.44-.264.821-.404 1.259-.404h5.4c.717 0 1.384.318 1.742.89l.01.016.01.014 9.2 13.1.009.013.01.013c.515.662.515 1.63 0 2.292l-.011.014-.01.014-9.198 13.197c-.392.547-1.001.921-1.762.921h-5.4a2.138 2.138 0 0 1-2.143-2.142c0-.432.137-.809.395-1.242l6.977-9.968a3.209 3.209 0 0 0 0-3.88l-6.99-9.987-.007-.009-.006-.009Zm1.774-4.563c-.762 0-1.38.26-1.939.594l-.006.004c-1.638 1.008-2.003 3.247-.888 4.745l6.994 9.992.01.014.01.013c.515.662.515 1.63 0 2.292l-.01.013-.01.014-7 10-.013.019-.012.02c-.335.558-.594 1.176-.594 1.938 0 1.978 1.61 3.458 3.458 3.458h5.4c1.237 0 2.227-.625 2.835-1.476l.004-.006 9.19-13.187a3.209 3.209 0 0 0 0-3.88L79.46 61.637c-.643-1.016-1.77-1.494-2.847-1.494h-5.4Z" class="-path--secondary" fill="#FF9E18"/>
</svg>
