<svg id="icon-products-flexibility" viewBox="0 0 96 96" xmlns="http://www.w3.org/2000/svg">
  <path d="M32.999 1.558s31.645 28.56 31.645 86.256H35.131s54.72-61.16 29.48-86.256H32.999Z" class="-path--shadow" fill="#38C6F4"/>
  <path d="M60.23 52.36a54.92 54.92 0 0 1 2.867 12.331 215.876 215.876 0 0 1 1.388 23.123H35.148s23.97-31.883 25.081-35.455Z" class="-path--secondary" fill="#FF9E18"/>
  <path fill-rule="evenodd" d="M60.583 3.065c.6-.01 1.178.227 1.597.656l.007.007c5.329 5.618 6.818 12.877 5.936 20.719 3.047 2.734 4.467 5.421 4.807 7.962.51 3.817-1.453 7.053-3.435 9.273a21.913 21.913 0 0 1-3.75 3.315 13.259 13.259 0 0 1-.347.232l-.02.014-.006.003-.002.001s-.001.001-.35-.557l.349.558a.658.658 0 0 1-.697-1.115l.003-.002.014-.01.03-.019.033-.02.245-.166a20.608 20.608 0 0 0 3.517-3.11c1.883-2.11 3.548-4.97 3.113-8.223-.265-1.975-1.316-4.187-3.715-6.534-1.18 7.806-4.574 16.173-8.849 24.182a138.052 138.052 0 0 1-1.73 3.142c2.394 9.078 4.084 19.396 4.51 30.957a135.2 135.2 0 0 0 10.173 6.025l.258.135.065.034.017.009.003.002s.002 0-.3.585l-.227.441h.001l.227-.441.3-.585c.044.023.084.05.12.08l-.565-1.665c-.509-1.508-1.062-3.172-1.163-3.587a.658.658 0 1 1 1.278-.31c.083.342.608 1.926 1.132 3.476a602.711 602.711 0 0 0 .923 2.713l.085.247.218.635-7.144 2.286a.658.658 0 1 1-.4-1.252l4.772-1.528-.02-.01a61.006 61.006 0 0 1-1.19-.636 137.82 137.82 0 0 1-8.513-5.053c.023.844.039 1.694.048 2.551v.007a2.15 2.15 0 0 1-2.154 2.148H32.899a2.126 2.126 0 0 1-2.13-2.12 2.068 2.068 0 0 1 .526-1.397 245.4 245.4 0 0 0 13.21-16.5c-1.595-2.52-2.443-5.12-1.934-7.623a17.88 17.88 0 0 1 10.024-12.758.657.657 0 1 1 .554 1.193 16.565 16.565 0 0 0-9.288 11.82l-.001.005c-.39 1.918.184 4.019 1.481 6.212 3.568-4.942 7.268-10.49 10.582-16.279a128.93 128.93 0 0 0-2.37-7.843C48.314 29.83 41.222 18.722 36.036 11.99a259.803 259.803 0 0 0-11.535-2.71.658.658 0 1 1 .273-1.287c3.547.753 6.848 1.52 9.918 2.294a77.28 77.28 0 0 0-3.156-3.671l-.003-.003a2.12 2.12 0 0 1-.55-1.417 2.126 2.126 0 0 1 2.122-2.13h27.477Zm12.114 88.22.011-.004-.006-.019a.91.91 0 0 1-.005.023ZM61.237 4.638c4.785 5.047 6.315 11.55 5.668 18.783-1.325-1.05-2.899-2.106-4.751-3.161-5.56-3.166-13.697-6.364-25.351-9.43a82.396 82.396 0 0 0-4.296-5.102.805.805 0 0 1 .602-1.347H60.602a.867.867 0 0 1 .634.257Zm-4.395 46.924c-5.051-18.106-12.857-31.1-18.74-39.023 10.71 2.912 18.23 5.92 23.4 8.864 2.131 1.213 3.853 2.41 5.232 3.577-1.017 7.835-4.425 16.377-8.83 24.632-.349.652-.703 1.302-1.062 1.95ZM45.289 71.775A246.644 246.644 0 0 1 32.28 87.99l-.004.005a.753.753 0 0 0-.192.511v.008a.81.81 0 0 0 .814.808h26.888a.835.835 0 0 0 .839-.83 154.433 154.433 0 0 0-.074-3.437c-1.379-.913-2.8-1.896-4.212-2.93-3.776-2.768-7.508-5.933-10.15-9.18a26.633 26.633 0 0 1-.901-1.17ZM60.49 83.432a104.598 104.598 0 0 1-3.374-2.368c-3.738-2.74-7.368-5.829-9.907-8.949-.399-.49-.767-.977-1.104-1.46 3.446-4.75 7.03-10.076 10.29-15.654 2.13 8.423 3.64 17.899 4.095 28.431ZM28.38 3.778a.658.658 0 0 1-.102.924l-4.793 3.843.185.222c.374.446.876 1.047 1.393 1.669 1.016 1.224 2.132 2.579 2.375 2.93a.658.658 0 0 1-1.082.748c-.2-.29-1.259-1.578-2.305-2.838a591.973 591.973 0 0 0-1.837-2.2l-.168-.2-.433-.515 5.842-4.685a.658.658 0 0 1 .925.102Z" class="-path--primary" fill="#083176"/>
</svg>
