<svg id="icon-business-calendar" xmlns="http://www.w3.org/2000/svg" fill="none" viewBox="0 0 96 96">
  <path class="-path--shadow" fill="#38C6F4" d="M88.23 9.43c4.29 0 7.77 3.47 7.77 7.75v64.5a7.76 7.76 0 0 1-7.77 7.75H12.6a7.76 7.76 0 0 1-7.78-7.74V17.18a7.76 7.76 0 0 1 7.78-7.75h75.63ZM27.22 24.91a4.85 4.85 0 1 0-9.7.02 4.85 4.85 0 0 0 9.7-.02Zm47.75 0a4.85 4.85 0 1 0-9.7.02 4.85 4.85 0 0 0 9.7-.02Z"/>
  <path class="-path--primary" fill="#083176" d="M24.53 14.23v2.34l-4.34.02v-2.36H7.06a5.86 5.86 0 0 0-5.82 5.9v17.13h89.98V19.97a5.86 5.86 0 0 0-5.98-5.74H72.3v2.34l-4.34.02v-2.36H46.2h15.2-30.39 15.2-21.68ZM20.2 13V3.03a2.17 2.17 0 0 1 4.34.27V13h43.42V3.03a2.17 2.17 0 0 1 4.34.27V13H85.23a7.08 7.08 0 0 1 7.22 6.94v17.94c0 .34-.28.61-.62.61H.63a.62.62 0 0 1-.62-.61V20.14A7.1 7.1 0 0 1 7.06 13h13.13Zm71.6 30.27c.34 0 .62.28.62.62v43.2a7.09 7.09 0 0 1-6.97 7.18H7.16A7.11 7.11 0 0 1 0 87.23V43.9c0-.34.28-.62.62-.62h91.17ZM1.23 44.51v42.7a5.88 5.88 0 0 0 5.93 5.83H85.4a5.86 5.86 0 0 0 5.79-5.94V44.5H1.23Zm13.13 10.8c0-.34.28-.62.62-.62H31c.34 0 .62.28.62.62v10.61c0 .34-.28.62-.62.62H14.98a.62.62 0 0 1-.62-.62V55.31Zm1.24 10h14.8v-9.39H15.6v9.38Zm21.97-10c0-.34.28-.62.62-.62h16.03c.34 0 .62.28.62.62v10.61c0 .34-.28.62-.62.62H38.2a.62.62 0 0 1-.62-.62V55.31Zm1.23 10h14.8v-9.39H38.8v9.38Zm21.99-10c0-.34.27-.62.61-.62h16.04c.34 0 .61.28.61.62v10.61c0 .34-.27.62-.61.62H61.4a.62.62 0 0 1-.61-.62V55.31Zm1.23 10h14.8v-9.39h-14.8v9.38Zm-47.66 7.6c0-.33.28-.6.62-.6H31c.34 0 .62.27.62.6v10.62c0 .34-.28.62-.62.62H14.98a.62.62 0 0 1-.62-.62V72.92Zm1.24 10h14.8v-9.38H15.6v9.38Zm21.97-10c0-.33.28-.6.62-.6h16.03c.34 0 .62.27.62.6v10.62c0 .34-.28.62-.62.62H38.2a.62.62 0 0 1-.62-.62V72.92Zm1.23 10h14.8v-9.38H38.8v9.38Zm21.99-10c0-.33.27-.6.61-.6h16.04c.34 0 .61.27.61.6v10.62c0 .34-.27.62-.61.62H61.4a.62.62 0 0 1-.61-.62V72.92Zm1.23 10h14.8v-9.38h-14.8v9.38Z"/>
  <path class="-path--secondary" fill="#FF9E18" d="M27.22 24.91a4.85 4.85 0 1 1-9.7-.02 4.85 4.85 0 0 1 9.7.02Zm-1.04 0a3.81 3.81 0 1 0-7.63.02 3.81 3.81 0 0 0 7.63-.02Zm48.8 0a4.85 4.85 0 1 1-9.7-.02 4.85 4.85 0 0 1 9.7.02Zm-1.04 0a3.81 3.81 0 1 0-7.63.02 3.81 3.81 0 0 0 7.63-.02Z"/>
</svg>
