<svg id="icon-business-enhanced-customer-experience" viewBox="0 0 96 96" xmlns="http://www.w3.org/2000/svg">
  <path fill-rule="evenodd" d="M52.356 3.597A2.603 2.603 0 0 0 49.748 1a2.603 2.603 0 0 0-2.6 2.557v2.598c0 1.43 1.164 2.589 2.6 2.589a2.603 2.603 0 0 0 2.608-2.59V3.598ZM23.732 27.34h2.6a2.603 2.603 0 0 1 2.608 2.597 2.603 2.603 0 0 1-2.608 2.59h-2.6a2.603 2.603 0 0 1-2.608-2.59 2.603 2.603 0 0 1 2.608-2.597Zm49.464.562h2.6a2.603 2.603 0 0 1 2.608 2.597 2.603 2.603 0 0 1-2.608 2.59h-2.6a2.603 2.603 0 0 1-2.608-2.59 2.603 2.603 0 0 1 2.608-2.597ZM29.49 9.762a2.607 2.607 0 0 1 3.677-.008l.008.009 1.839 1.83a2.582 2.582 0 0 1 .008 3.663l-.008.008a2.616 2.616 0 0 1-3.677 0l-1.847-1.84a2.59 2.59 0 0 1 0-3.661Zm36.837.563-1.84 1.83-.007.01a2.582 2.582 0 0 0 .008 3.661 2.616 2.616 0 0 0 3.677 0l1.847-1.839a2.59 2.59 0 0 0 0-3.662l-.009-.009a2.607 2.607 0 0 0-3.677.009Z" class="-path--secondary" fill="#FF9E18"/>
  <path fill-rule="evenodd" d="M49.238 32.242c-3.904 0-7.08-3.76-7.08-8.381 0-4.623 3.176-8.374 7.08-8.374s7.07 3.76 7.07 8.373c0 4.615-3.174 8.382-7.07 8.382Zm8.772 17.504H40.466a3.5 3.5 0 0 1-3.507-3.493v-3.46c0-1.285.709-2.467 1.846-3.074l3.418-1.83 1.215-.678a3.52 3.52 0 0 1 2.892-.242l1.709.613a3.544 3.544 0 0 0 2.43 0l1.62-.605a3.52 3.52 0 0 1 2.932.234l1.23.685 3.443 1.832a3.499 3.499 0 0 1 1.855 3.081v3.452a3.516 3.516 0 0 1-3.507 3.501l-.032-.016Zm20.208 7.865-3.054 8.067a8.943 8.943 0 0 1-4.454 4.888L45.536 83.005a8.013 8.013 0 0 0-4.414 7.445H22.77l2.948-9.986a72.167 72.167 0 0 1 2.43-7.083l1.514-3.783a12.94 12.94 0 0 1 8.335-7.534l12.465-3.743a3.14 3.14 0 0 1 3.677 1.484l.097.21.005.011a2.94 2.94 0 0 1-1.625 3.837l-6.26 2.678a2.228 2.228 0 0 0-.843.566c-.86.906-.82 2.336.09 3.193a2.51 2.51 0 0 0 2.632.5l15.996-5.776a9.617 9.617 0 0 0 5.103-4.55l3.029-5.283a3.335 3.335 0 0 1 3.847-1.549l.17.057.012.004a3.037 3.037 0 0 1 1.827 3.908Z" class="-path--shadow" fill="#38C6F4"/>
  <path fill-rule="evenodd" d="M40.93 26.07c0-4.742 3.068-8.336 6.631-8.336s6.632 3.601 6.632 8.337c0 4.733-3.116 8.345-6.632 8.345-3.562 0-6.632-3.601-6.632-8.345Zm6.631-9.651c-4.536 0-7.947 4.457-7.947 9.652 0 5.194 3.41 9.66 7.947 9.66 4.487 0 7.947-4.472 7.947-9.66 0-5.187-3.41-9.652-7.947-9.652Zm3.569 21.988-2.082.807-.007.002a4.356 4.356 0 0 1-2.967 0l-.005-.001-2.166-.805a3.066 3.066 0 0 0-2.503.207l-.005.003-1.495.809-4.047 2.152h-.001a3.026 3.026 0 0 0-1.597 2.65v4.394a3.028 3.028 0 0 0 3.036 3.02h20.53a3.036 3.036 0 0 0 3.022-3.014V44.24a3.035 3.035 0 0 0-1.605-2.65l-4.048-2.168-.002-.001-1.523-.812a3.065 3.065 0 0 0-2.535-.2Zm3.168-.951a4.38 4.38 0 0 0-3.625-.282l-2.087.808c-.666.24-1.396.24-2.062-.001l-2.168-.806-.009-.003a4.38 4.38 0 0 0-3.58.293l-1.486.804-4.048 2.152-.003.002a4.342 4.342 0 0 0-2.29 3.802v4.4a4.344 4.344 0 0 0 4.351 4.336H57.828a4.352 4.352 0 0 0 4.33-4.325v-4.404a4.35 4.35 0 0 0-2.299-3.801l-4.05-2.17-1.51-.805Zm12.423 20.982a3.984 3.984 0 0 1 4.625-1.846l.17.056a.622.622 0 0 1 .023.008l.003.002a3.687 3.687 0 0 1 2.198 4.739l-.002.005-3.053 8.066v.001a9.6 9.6 0 0 1-4.756 5.204v.001L40.754 87.133l-.003.001a7.405 7.405 0 0 0-4.06 6.844.657.657 0 0 1-.657.68H17.658a.657.657 0 0 1-.631-.844l2.947-9.983v-.002a75.703 75.703 0 0 1 2.45-7.142l1.51-3.795a13.598 13.598 0 0 1 8.78-7.917h.002l12.498-3.758h.002a3.797 3.797 0 0 1 4.447 1.82c.058.096.106.2.143.306a3.606 3.606 0 0 1-1.983 4.684l-6.256 2.676a1.587 1.587 0 0 0-.599.38l-.001.001-.006.006a1.61 1.61 0 0 0 .037 2.28c.522.48 1.273.622 1.936.366l.013-.005 15.927-5.766a8.992 8.992 0 0 0 4.787-4.263l3.058-5.26.002-.004Zm4.22-.595a2.669 2.669 0 0 0-3.077 1.245l-.004.007-3.054 5.255a10.308 10.308 0 0 1-5.47 4.847l-.01.003-15.925 5.766a3.184 3.184 0 0 1-3.3-.634l-.01-.008a2.926 2.926 0 0 1-.075-4.149l.002-.002.002-.001.008-.009.003-.003a2.902 2.902 0 0 1 1.032-.672l6.258-2.677a2.29 2.29 0 0 0 1.243-3.034.331.331 0 0 0-.032-.07 2.482 2.482 0 0 0-2.933-1.232l-.003.001-12.51 3.76a12.283 12.283 0 0 0-7.934 7.149v.002l-1.506 3.788a74.383 74.383 0 0 0-2.408 7.02l-.002.005-2.699 9.142h16.845a8.723 8.723 0 0 1 4.779-7.382l.005-.003 25.181-12.463.003-.001a8.286 8.286 0 0 0 4.105-4.49l1.487-11.16Zm0 0 .149.05h.001a2.372 2.372 0 0 1 1.416 3.045v.003L69.454 69l1.487-11.158Z" class="-path--primary" fill="#083176"/>
</svg>
