<svg id="icon-products-energy-and-utilities" viewBox="0 0 96 96" xmlns="http://www.w3.org/2000/svg">
  <path fill-rule="evenodd" d="M12.4 14.2h13.4v9.3H12.4v-9.3Zm0 16.2h13.4v50.7H12.4V30.4ZM74 40v12.5L94 40v41H32.9V52l20.7-12v11.8L74 40ZM37.6 67h7.9v-7.9h-7.9V67Zm18.6 0h7.9v-7.9h-7.9V67Zm18.7 0h7.9v-7.9h-7.9V67Z" class="-path--shadow" fill="#38C6F4"/>
  <path fill-rule="evenodd" d="M9.1 15.942a.658.658 0 0 0-.658.658v9.3c0 .363.295.658.658.658h13.4a.658.658 0 0 0 .658-.658v-9.3a.658.658 0 0 0-.658-.658H9.1Zm.658 9.3v-7.984h12.084v7.984H9.758Zm-.658 6.9a.658.658 0 0 0-.658.658v50.7c0 .363.295.658.658.658h13.4a.658.658 0 0 0 .658-.658V32.8a.658.658 0 0 0-.658-.658H9.1Zm.658 50.7V33.458h12.084v49.384H9.758Zm81.36-41.017c.21.116.34.336.34.575v41.1a.658.658 0 0 1-.658.658H29.7a.658.658 0 0 1-.657-.658v-29c0-.234.123-.45.325-.568l20.7-12.1a.657.657 0 0 1 .99.568v10.755l19.41-11.323a.658.658 0 0 1 .99.568v11.314l18.994-11.872a.658.658 0 0 1 .667-.017Zm-20.975 1.72L50.73 54.868a.658.658 0 0 1-.989-.568V43.546L30.358 54.877v27.965h59.784V43.587L71.15 55.456a.658.658 0 0 1-1.007-.557V43.545ZM96 88.7c0-.8-.6-1.4-1.4-1.4H4.4c-.8 0-1.4.6-1.4 1.4v1.7c0 .8.6 1.4 1.4 1.4h90.2c.8 0 1.4-.6 1.4-1.4v-1.7Z" class="-path--primary" fill="#083176"/>
  <path fill-rule="evenodd" d="M43.66 1.361c-1.08 1.667-2.776 2.828-4.68 3.371l-.01.003-.01.003c-2.15.537-3.875.41-8.277-.391h-.002l-.705-.13c-2.108-.388-3.693-.68-5.004-.813-1.44-.145-2.49-.09-3.473.223l-.005.002c-.577.177-1.626.582-2.808 1.74-1.052 1.032-2.232 2.683-3.269 5.354 2.005-1.5 4.326-2.508 6.89-2.874l.015-.002.015-.002c.467-.045 1.056.002 1.7.088.652.088 1.41.224 2.23.377l.681.128c1.488.28 3.157.596 4.87.81 1.983.246 3.986.352 5.783.119 1.798-.234 3.334-.8 4.447-1.845.899-.856 1.361-2.114 1.55-3.463a12.55 12.55 0 0 0 .062-2.698ZM44.856.238c.153 1.038.254 2.514.045 4.003-.21 1.5-.747 3.092-1.947 4.235l-.004.003c-1.386 1.304-3.224 1.938-5.18 2.192-1.955.254-4.083.135-6.114-.118-1.758-.22-3.471-.543-4.956-.823l-.675-.127a44.9 44.9 0 0 0-2.164-.366c-.617-.083-1.076-.111-1.384-.084-2.655.383-5.03 1.52-7.036 3.235a.954.954 0 0 1-.653.245c-.208 0-.408-.058-.582-.145l-.095-.048-.076-.075c-.294-.294-.293-.632-.293-.753v-.12l.035-.103c1.177-3.478 2.625-5.623 3.988-6.959 1.366-1.339 2.615-1.835 3.339-2.058 1.217-.386 2.466-.431 4-.276 1.368.138 3.01.44 5.098.825l.716.132c4.389.798 5.867.871 7.712.412 1.914-.55 3.525-1.81 4.343-3.575a.737.737 0 0 1 .306-.401.895.895 0 0 1 .338-.125A2.307 2.307 0 0 1 44-.658c.592 0 .832.522.856.896Z" class="-path--secondary" fill="#FF9E18"/>
</svg>
