<svg id="icon-business-cost-control-euro" viewBox="0 0 96 96" xmlns="http://www.w3.org/2000/svg">
  <path class="-path--shadow" fill="#38C6F4" d="M79.58 44.45A28.6 28.6 0 0 1 50.91 73a28.6 28.6 0 0 1-28.66-28.55A28.6 28.6 0 0 1 50.9 15.9a28.61 28.61 0 0 1 28.67 28.55Z"/>
  <path class="-path--secondary" fill="#FF9E18" fill-rule="evenodd" d="M71.42 13.17c.05 0 .08-.02.12-.03a.64.64 0 0 0 .42-.68L70.45.56a.64.64 0 1 0-1.27.16l1.33 10.44a43.02 43.02 0 0 0-58.88 9.3 42.6 42.6 0 0 0 2.71 54.65.64.64 0 0 0 .94-.87 41.32 41.32 0 0 1-2.63-53.02 41.74 41.74 0 0 1 57.04-9.07L58.92 13.8a.64.64 0 0 0 .2 1.26l12.3-1.9ZM27.94 95.22l-2.36-10.05a43.01 43.01 0 0 0 58.49-10.7 42.6 42.6 0 0 0-3.32-53.94.64.64 0 0 0-.94.87 41.32 41.32 0 0 1 3.22 52.32 41.74 41.74 0 0 1-57.01 10.2l10.4-3.15a.64.64 0 1 0-.37-1.22L24.6 83.02a.64.64 0 0 0-.68.66c0 .1.01.19.05.27l2.71 11.56a.64.64 0 1 0 1.25-.3Z" clip-rule="evenodd"/>
  <path class="-path--primary" fill="#083176" d="M77.07 48.19c0 16.12-13 29.19-29.04 29.19A29.11 29.11 0 0 1 19 48.18C19 32.08 32 19 48.03 19a29.11 29.11 0 0 1 29.04 29.19Zm-1.27 0a27.84 27.84 0 0 0-27.77-27.92A27.84 27.84 0 0 0 20.27 48.2 27.84 27.84 0 0 0 48.03 76.1 27.84 27.84 0 0 0 75.8 48.19ZM55.05 41.4a6.76 6.76 0 0 0-5.83-3.46 6.3 6.3 0 0 0-5.84 4.65h8.15v3.23h-8.87c-.07.57-.1 1.14-.08 1.7v1.53h8.95v3.28H43.3a6.5 6.5 0 0 0 6.22 4.84c2.54 0 4.06-1.33 5.8-3.66L58.7 56a10.6 10.6 0 0 1-9.17 5.37c-5.61 0-9.55-3.62-11.04-9.03H35v-3.3h2.89v-1.45c-.01-.59.02-1.17.08-1.76H35V42.6h3.56c1.52-5.16 5.35-8.85 10.77-8.85a10.44 10.44 0 0 1 9.3 5.03l-3.58 2.63Z"/>
</svg>
