<svg id="icon-business-finance" viewBox="0 0 96 96" xmlns="http://www.w3.org/2000/svg">
  <path class="-path--shadow" fill="#38C6F4" fill-rule="evenodd" d="M33.14 18.55h56.2c.96.06 1.69.88 1.63 1.84v6.29h3.4c.9 0 1.63.74 1.63 1.64l-8.16 48.73c0 .9-.73 1.64-1.63 1.64H14.36c-.9 0-1.63-.73-1.63-1.64L4.57 28.32c0-.9.73-1.64 1.64-1.64H9.6V14.84A1.75 1.75 0 0 1 11.23 13h17.23l4.68 5.55Zm27.04 38.37c0 7.72-6.22 13.98-13.9 13.98-7.67 0-13.9-6.26-13.9-13.98 0-7.71 6.23-13.97 13.9-13.97 7.68 0 13.9 6.26 13.9 13.97Z" clip-rule="evenodd"/>
  <path class="-path--primary" fill="#083176" d="M45.3 62.9a7.61 7.61 0 0 1-3.24-.83l.58-2.25c.95.55 2.03.85 3.13.88 1.08 0 1.82-.42 1.82-1.18 0-.77-.6-1.19-2.02-1.66-2.02-.69-3.4-1.64-3.4-3.5a3.5 3.5 0 0 1 3.2-3.4v-1.81h1.86v1.68c.95.01 1.89.23 2.75.63l-.55 2.15a6.27 6.27 0 0 0-2.73-.65c-1.24 0-1.63.54-1.63 1.07s.66 1.03 2.23 1.64c2.3.8 3.22 1.85 3.22 3.53a3.65 3.65 0 0 1-3.38 3.53v1.94l-1.84.03v-1.8Zm-13.48-5.98A14.5 14.5 0 0 1 46.28 42.4a14.5 14.5 0 0 1 14.46 14.53 14.5 14.5 0 0 1-14.46 14.54 14.5 14.5 0 0 1-14.46-14.54Zm14.46-13.41c-7.36 0-13.34 6-13.34 13.41s5.98 13.42 13.34 13.42c7.37 0 13.34-6 13.34-13.42 0-7.4-5.97-13.41-13.34-13.41ZM7.23 16.66H24.7l4.66 4.95h55.97a2.2 2.2 0 0 1 2.2 2.2v5.49c0 .39-.11.76-.3 1.08h3.12c1.21 0 2.19.99 2.19 2.2v.05l-8.16 48.7a2.2 2.2 0 0 1-2.2 2.14H10.36a2.2 2.2 0 0 1-2.2-2.15L0 32.62v-.04c0-1.21.98-2.2 2.2-2.2H5.3a2.2 2.2 0 0 1-.28-1.08V18.86c0-1.21.98-2.2 2.2-2.2ZM7.22 31.5H2.19c-.57 0-1.05.46-1.07 1.04l8.16 48.68v.05c0 .6.48 1.08 1.07 1.08H82.2c.59 0 1.07-.48 1.07-1.08v-.05l8.16-48.68a1.08 1.08 0 0 0-1.07-1.04H7.22Zm78.12-1.12c.59 0 1.07-.48 1.07-1.08v-5.48c0-.6-.49-1.08-1.07-1.08H28.89l-4.67-4.96h-17c-.58 0-1.07.48-1.07 1.08V29.3c0 .6.48 1.07 1.07 1.08h78.12Z"/>
</svg>
