<svg id="icon-business-deal" viewBox="0 0 96 96" xmlns="http://www.w3.org/2000/svg">
  <path class="-path--shadow" fill="#38C6F4" d="M84.49 64.04a16.55 16.55 0 0 0-22.02 15.51c0 .9.07 1.78.2 2.64a42.65 42.65 0 0 1-14.83 2.65c-23.53 0-42.6-19-42.6-42.42C5.24 18.99 24.31 0 47.84 0c23.52 0 42.59 19 42.59 42.42a42.1 42.1 0 0 1-5.94 21.62Z"/>
  <path class="-path--primary" fill="#083176" d="M63.14 84.2c.12.42.26.83.42 1.24a43.42 43.42 0 0 1-20.09 4.89C19.47 90.33 0 70.94 0 47.03c0-23.91 19.46-43.3 43.47-43.3 24 0 43.47 19.39 43.47 43.3 0 5.93-1.2 11.57-3.36 16.72-.41-.12-.84-.23-1.27-.32a41.66 41.66 0 0 0 3.3-14.47c-.39.21-.95.54-1.6.94l-.15.08a157.7 157.7 0 0 0-2.19 1.36l-.53.33-2.33-3.43-6.86 4.58-.6-1.11a22.73 22.73 0 0 1-4.25 3.42l.28.47c.4.67.65 1.35.72 2 .21 2.04-1.37 3.3-4.83 3.41h-.18v.06c.04.65-.07 1.44-.46 2.2-.72 1.44-2.2 2.3-4.51 2.3h-.17l-10.38-5.9.64-1.12 10.08 5.72c1.73-.04 2.7-.62 3.19-1.58.27-.53.35-1.1.32-1.55v-.03l1.23-.13-11.95-6.89.65-1.12 11.69 6.74c2.65-.11 3.51-.83 3.4-1.97a3.97 3.97 0 0 0-.56-1.5 6.9 6.9 0 0 0-.54-.8 124.38 124.38 0 0 0-21.88-14.27l-3.18.83a3.7 3.7 0 0 1-1.37 2.63c-.99.9-2.5 1.6-4.58 2.08-3.45.8-5.15.1-5.03-1.75.03-.37.13-.75.3-1.13a48.5 48.5 0 0 1 3.93-6.86A66.21 66.21 0 0 1 25.62 35l.38-1.24c2.87.88 5.8 1.55 8.76 2.03a8.11 8.11 0 0 1 5.1-2.78c2.29-.43 4.6-.72 6.92-.87 2.7-.22 4.34-.03 6.37.6.27.08 1.51.5 1.88.6.6.19 1.14.34 1.78.49a7 7 0 0 0 4.71-.19l-.62-1.15 6.7-4.17-1-2.25 9.16-6.07A42.16 42.16 0 0 0 43.47 5.03 42.16 42.16 0 0 0 11.3 19.88l9.4 6.2-1 2.25 6.69 4.17-9.56 17.6.37-.3 3.33 4.35-1.03.79-3.1-4.06-1.05 1.94-6.86-4.58-2.33 3.43-.53-.33a145.8 145.8 0 0 0-2.2-1.36l-.13-.08c-.91-.55-1.63-.96-1.96-1.13a42.1 42.1 0 0 0 42.14 40.26c7.1 0 13.8-1.74 19.67-4.83ZM76.59 21l-8.36 5.55.79 1.77L79.55 47h-.02l1.98 2.91.15-.1 1.53-.93.14-.09a22.06 22.06 0 0 1 2.32-1.3v-.46c0-9.82-3.39-18.86-9.06-26.02ZM1.3 48.24l.26-.77c.32.1 1.12.56 2.39 1.32l.14.09a158.52 158.52 0 0 1 1.68 1.03l1.98-2.9-.02-.01 10.5-18.6.81-1.84-8.59-5.68a41.72 41.72 0 0 0-9.15 27.36Zm64.9 5.92c1.59-.97 3.05-2.14 4.34-3.49l.5.48-8.9-16.36c-1.81.77-3.84.87-5.68.3-.62-.15-1.2-.3-1.83-.5-.37-.12-1.62-.53-1.88-.6a13.81 13.81 0 0 0-5.88-.55c-2.28.15-4.55.44-6.82.86a6.84 6.84 0 0 0-4.55 2.63 47.9 47.9 0 0 0-4.34 7.41c-.11.25-.18.5-.2.7-.04.73.72 1.05 3.44.41 1.9-.43 3.2-1.05 4.01-1.78.8-.72 1-1.42.93-1.97v-.03l-.17-.63L44 39.8l.21.11a125.68 125.68 0 0 1 22 14.27ZM33.46 70.11l-.26.33h-.34a4.76 4.76 0 0 1-5.27-3.43c-2.63-.05-4.2-1.1-4.78-2.82a5 5 0 0 1-.22-2.08c-1.92-.3-3.09-1.18-3.56-2.48a4.17 4.17 0 0 1-.07-2.59l.1-.18 2-2.8a3.2 3.2 0 0 1 2.08-1.36c1.9-.28 3.17.65 3.85 2.27l.22.6 2.03-2.65.26-.04c3-.43 4.82.54 5.58 2.42.26.64.36 1.3.36 1.9a6.34 6.34 0 0 1 3.18 2.14 3.73 3.73 0 0 1 .54 3.4 4.75 4.75 0 0 1 3.07 2.14 4.08 4.08 0 0 1-.14 4.62l-2.84 3.8-.2.06c-2.51.73-4.24-.24-5.2-2.24a8.31 8.31 0 0 1-.39-1.01Zm1-1.28.1.45c.1.45.25.88.45 1.27.69 1.42 1.75 2.06 3.47 1.63l2.57-3.45c.68-.93.72-2.18.1-3.16a3.47 3.47 0 0 0-2.48-1.6l.1-.65-4.31 5.51Zm.55-10.42-6.21 8.1c.39 1.7 2 2.85 3.74 2.67l5.42-6.93.02-.11c.16-.65.07-1.37-.41-2.05a5.1 5.1 0 0 0-2.56-1.68Zm-11.07 3.41-.03.16c-.09.58-.07 1.21.13 1.79.41 1.22 1.53 1.95 3.75 1.94l6.35-8.29c.03-.5-.04-1.09-.26-1.63-.51-1.27-1.69-1.93-3.94-1.66l-2.45 3.21v.02l-3.55 4.46ZM68.19 29.5l-5.57 3.46 9.8 18 5.72-3.81-9.95-17.65ZM9.15 47.14l5.73 3.81 9.78-18-5.55-3.46-9.96 17.65Zm36.1 17.17 9.1 4.32c1.08.1 1.88-.4 2.5-1.36a5.35 5.35 0 0 0 .64-1.47l1.26.29a6.27 6.27 0 0 1-.81 1.87c-.88 1.38-2.16 2.16-3.86 1.94l-.19-.06-9.2-4.36.56-1.17Zm6.63 5.28 1.16.57c-.19.38-.57.89-1.2 1.4-1.5 1.21-3.62 1.68-6.44 1l-3.95-1.23.4-1.24 3.9 1.23c2.38.57 4.09.2 5.28-.77a3.87 3.87 0 0 0 .85-.96ZM22.14 54.8l-1.95 2.72a3.24 3.24 0 0 0 .06 1.66c.33.9 1.17 1.5 2.8 1.69l3.13-3.93a5.94 5.94 0 0 0-.37-1.47c-.47-1.12-1.23-1.67-2.45-1.5-.5.1-.93.4-1.22.83Z"/>
  <path class="-path--secondary" fill="#FF9E18" d="M95.5 79.55C95.5 88.64 88.1 96 78.98 96a16.48 16.48 0 0 1-16.51-16.45c0-9.09 7.4-16.45 16.51-16.45 9.12 0 16.52 7.36 16.52 16.45Zm-1.3 0c0-8.37-6.81-15.16-15.22-15.16-8.4 0-15.22 6.79-15.22 15.16 0 8.37 6.82 15.16 15.22 15.16 8.41 0 15.22-6.79 15.22-15.16Zm-21.73 1.68 2.89 3.85 10.17-12.54 1 .82-11.21 13.83L71.43 82l1.04-.77Z"/>
</svg>
