<svg id="icon-products-design" viewBox="0 0 96 96" xmlns="http://www.w3.org/2000/svg">
  <path fill-rule="evenodd" d="M71.106 46.613c.034-.043.064-.083.094-.113l10.4-13.2V77c0 2.6-2 4.6-4.5 4.6H42.9L17.1 55.7V6.6c0-2.6 2-4.6 4.5-4.6h55.5c2.5 0 4.5 2.1 4.5 4.6v14.5L65.3 41.8c-.05.1-.1.175-.15.25-.05.075-.1.15-.15.25l-2.7 7.1c-.2.4-.1 1 .2 1.4.5.7 1.4.8 2 .3l6.3-4.2c.14-.07.23-.188.306-.287ZM21.6 81.6c-2.5 0-4.5-2.1-4.5-4.6v-7.8l12.3 12.4h-7.8Z" class="-path--shadow" fill="#38C6F4"/>
  <path fill-rule="evenodd" d="M13.1 52.1c0 .4.3.7.7.7.3 0 .6-.3.6-.7V7.9c0-.9.8-1.7 1.7-1.7h59.3c.9 0 1.7.8 1.7 1.7v17c0 .4.3.7.7.7.4 0 .7-.3.7-.7v-17c0-1.6-1.3-3-3-3H16.1c-1.6 0-3 1.3-3 3v44.2Zm33.6 33.7h28.8c1.7 0 3-1.4 3.1-3.1V39.4c0-.4-.3-.7-.7-.7-.4 0-.7.3-.7.7v43.3c0 .9-.8 1.7-1.7 1.7H46.7c-.4 0-.7.3-.7.7 0 .4.3.7.7.7Zm21.1-18.6H39.1c-.4 0-.7-.3-.7-.7V52.762c-9.839-.624-17.6-8.865-17.6-18.862 0-10.4 8.4-18.9 18.8-18.9 10.3 0 18.8 8.5 18.8 18.9 0 1.055-.086 2.09-.253 3.1H67.5c.4 0 .7.3.7.7 0 .4-.3.7-.7.7h-9.638c-1.994 8.182-9.3 14.307-18.062 14.399V65.9h27.4V50c0-.4.3-.7.7-.7.4 0 .7.3.7.7v16.6c-.1.3-.4.6-.8.6Zm-28-15.701c7.995-.092 14.706-5.661 16.64-13.099H39.8v13.099ZM56.742 37c.17-.976.258-1.978.258-3 0-9.6-7.7-17.6-17.4-17.6-9.6 0-17.4 7.9-17.4 17.5 0 9.197 7.158 16.925 16.2 17.558V37.7c0-.4.3-.7.7-.7h17.642Z" class="-path--primary" fill="#083176"/>
  <path fill-rule="evenodd" d="M63.4 52.1h.3c.4 0 .9-.2 1.3-.5l6.3-4.2c.13-.065.216-.17.316-.292.055-.066.113-.137.184-.208l19.3-24.7c.8-.9.7-2.3-.2-3.1l-3.7-2.9c-.4-.4-1-.5-1.6-.4-.6.1-1.1.4-1.4.9L64.8 41.4c-.153.153-.247.364-.328.544-.025.056-.048.109-.072.156l-2.6 7.1c-.3.7-.3 1.5.2 2.1.4.4.9.7 1.4.8Zm22.5-35h.1c.1 0 .175.025.25.05a.74.74 0 0 0 .25.05l3.6 2.9c.4.4.4.9.1 1.3L70.8 46.1c-.05.05-.1.075-.15.1-.05.025-.1.05-.15.1l-6.3 4.3c-.2.1-.4.1-.6.1-.2 0-.4-.1-.5-.3-.2-.2-.2-.5-.1-.8l2.7-7.1c0-.1 0-.2.1-.3l19.5-24.8c.067-.033.133-.078.2-.122.133-.09.267-.178.4-.178ZM4.4 95.5h51.1c.3 0 .5-.1.6-.4.1-.2.1-.5-.1-.7L4.8 43c-.2-.1-.5-.2-.7-.1-.2.1-.4.3-.4.6v51.3c0 .4.3.7.7.7ZM54 94.2H5.1V45.1L54 94.2Zm-39.8-8.4h18.1c.3 0 .5-.3.6-.5.1-.2.1-.5-.1-.7L14.6 66.3c-.2-.1-.5-.2-.7-.1-.2.1-.4.3-.4.6v18.3c0 .4.3.7.7.7Zm16.5-1.4H14.8v-16l15.9 16Z" class="-path--secondary" fill="#FF9E18"/>
</svg>
