<svg id="icon-business-consulting" viewBox="0 0 96 96" xmlns="http://www.w3.org/2000/svg">
  <path class="-path--secondary" fill="#FF9E18" d="M86.15 28.25c0-7.6-6.2-13.7-13.8-13.8h-.1v13.6l13.9.2Z"/>
  <path class="-path--shadow" fill="#38C6F4" fill-rule="evenodd" d="M21.05 41.05c0 8.3 5.6 15 12.6 15s12.6-6.7 12.6-15-5.6-15-12.6-15c-6.9 0-12.6 6.7-12.6 15Zm-4.4 43.5h34.1c3.8 0 6.8-3 6.9-6.8v-6.7c0-2.5-1.4-4.8-3.6-6l-6.7-3.6-2.4-1.3c-1.7-.9-3.8-1.1-5.7-.4l-3.2 1.2c-1.5.5-3.2.5-4.7 0l-3.3-1.2c-1.8-.6-3.9-.5-5.6.5l-2.4 1.3-6.6 3.5c-2.2 1.2-3.6 3.5-3.6 6v6.7c0 3.8 3 6.8 6.8 6.8Z"/>
  <path class="-path--primary" fill="#083176" fill-rule="evenodd" d="M4.65 11.85c0-1.2 1-2.2 2.2-2.2v-.1h82.4c1.2 0 2.2 1 2.2 2.2v48.4c0 1.2-1 2.2-2.2 2.2h-28.6c-.4 0-.7.3-.7.7 0 .4.3.7.7.7h28.5c1.9 0 3.5-1.6 3.5-3.5v-48.5c0-1.9-1.6-3.5-3.5-3.5H6.85c-1.9 0-3.5 1.6-3.5 3.5v48.7c0 1.9 1.6 3.5 3.5 3.5.4 0 .7-.3.7-.7 0-.4-.3-.7-.7-.7-1.2 0-2.2-1-2.2-2.2v-48.5Zm64.1 36.6c-9.3 0-16.9-7.6-16.9-16.8 0-8.5 7.6-15.3 16.9-15.3h1v14.3h14.4v1c0 9.3-6.9 16.8-15.4 16.8Zm-20.6 39.2h-34.7c-3.8 0-6.9-3.1-6.9-6.9v-7.5c0-2.5 1.4-4.9 3.7-6.1l6.9-3.7 2.5-1.4c1.8-1 3.8-1.2 5.7-.5l3.7 1.4a5 5 0 0 0 3.8 0l3.5-1.3c1.9-.7 4-.5 5.8.5l2.6 1.4 6.9 3.7c2.3 1.2 3.7 3.5 3.7 6.1v7.5c0 1.8-.7 3.6-2 4.9-1.3 1.3-3 2-4.9 2l-.3-.1Zm-25.1-25.1c-1 0-1.9.2-2.7.7l-2.5 1.4-6.9 3.7c-1.8 1-3 2.9-3 4.9v7.5c0 3.1 2.5 5.6 5.6 5.6h35.2c1.4-.1 2.7-.6 3.7-1.6 1.1-1.1 1.6-2.5 1.6-4v-7.5c0-2.1-1.1-4-3-4.9l-6.9-3.7-2.6-1.5c-1.4-.8-3.2-.9-4.7-.4l-3.5 1.3c-1.5.6-3.2.6-4.7 0l-3.7-1.3a101.02 101.02 0 0 1-.262-.038c-.59-.086-1.114-.162-1.638-.162Zm-3.7-18.7c0-8.2 5.4-14.6 11.7-14.6 6.3 0 11.7 6.5 11.7 14.6 0 8.2-5.4 14.6-11.7 14.6-6.3 0-11.7-6.4-11.7-14.6Zm11.7-15.9c-7.3 0-13 7.3-13 16 0 8.6 5.7 15.9 13 16 7.3 0 13-7.3 13-16s-5.7-16-13-16Z"/>
</svg>
