<svg id="icon-products-wifi" viewBox="0 0 96 96" xmlns="http://www.w3.org/2000/svg">
  <path fill-rule="evenodd" d="M48 9.34c-22.349 0-39.598 13.307-45.473 18.488l-.088.08-.015.014a3.586 3.586 0 0 0-.142 4.994l3.93 4.184.002.002a3.505 3.505 0 0 0 4.873.259l.002-.003a59.308 59.308 0 0 1 36.658-14.76 2.668 2.668 0 0 1 .566.003 59.308 59.308 0 0 1 36.62 14.757l.006.005a3.505 3.505 0 0 0 4.848-.26l3.92-4.182.012-.013a.537.537 0 0 0 .017-.02l.068-.082a3.586 3.586 0 0 0-.307-4.97l-.01-.009C87.608 22.662 70.35 9.339 48.002 9.339Zm0 22.658c-16.988 0-29.922 10.564-33.653 13.94a2.124 2.124 0 0 0-.093 2.97l3.729 3.969.005.005a2.105 2.105 0 0 0 2.915.117l.004-.004A42.903 42.903 0 0 1 47.87 41.967a.646.646 0 0 0 .07-.007.351.351 0 0 1 .102 0 .644.644 0 0 0 .07.007 42.867 42.867 0 0 1 26.94 11.028l.004.004c.847.75 2.13.698 2.915-.117l3.73-3.969a.663.663 0 0 0 .05-.06l.006-.008a2.124 2.124 0 0 0-.147-2.917l-.01-.01c-3.683-3.357-16.61-13.92-33.598-13.92Zm0 18.046c-12.216 0-21.433 7.761-23.751 9.966a1.443 1.443 0 0 0-.066 2.03l.002.001 2.899 3.097a1.44 1.44 0 0 0 2.013.032 29.752 29.752 0 0 1 18.846-7.775.655.655 0 0 0 .047-.005.648.648 0 0 0 .078.008 29.731 29.731 0 0 1 18.828 7.733 1.426 1.426 0 0 0 2.007-.03l2.81-3.002a.66.66 0 0 0 .116-.1 1.45 1.45 0 0 0-.08-2.035c-2.313-2.164-11.53-9.92-23.748-9.92Zm-.007 19.86c-4.342 0-7.856 3.54-7.856 7.896 0 4.357 3.514 7.895 7.856 7.895 4.343 0 7.857-3.538 7.857-7.895 0-4.357-3.514-7.895-7.857-7.895Z" class="-path--primary" fill="#083176"/>
</svg>
