<svg id="icon-business-business" viewBox="0 0 96 96" xmlns="http://www.w3.org/2000/svg">
  <path class="-path--shadow" fill="#38C6F4" d="M91.14 20.89h-20.4c0-12.32-38.53-12.32-38.53 0H11.8a4.82 4.82 0 0 0-4.83 4.78v48.46a4.82 4.82 0 0 0 4.83 4.8h79.33A4.82 4.82 0 0 0 96 74.18v-48.5a4.81 4.81 0 0 0-4.84-4.79h-.02Z"/>
  <path class="-path--primary" fill="#083176" fill-rule="evenodd" d="M25.5 15.44A4.43 4.43 0 0 1 29.92 11h31.15a4.43 4.43 0 0 1 4.42 4.44v9.98h20.3c2.87 0 5.2 2.34 5.2 5.23v50.08a5.21 5.21 0 0 1-5.2 5.22H5.19c-.68 0-1.33-.13-1.93-.37a.53.53 0 0 1-.51-.23v-.01h-.01l-.02-.02A5.23 5.23 0 0 1 0 80.72V30.66a5.21 5.21 0 0 1 5.2-5.23h20.3v-9.98Zm4.42-3.37a3.36 3.36 0 0 0-3.35 3.37v9.98h37.85v-9.98c0-1.87-1.5-3.37-3.35-3.37H29.92ZM5.2 26.49a4.14 4.14 0 0 0-4.13 4.16V36h88.85v-5.36c0-2.3-1.86-4.16-4.13-4.16H5.19Zm84.72 10.58H1.07v43.66c0 1.58.87 2.95 2.15 3.65l34.15-23.25a1.66 1.66 0 0 1 2.31.35l5.13 6.99c.2.26.56.31.81.13l23-19.1a.53.53 0 0 1 .51-.1v-.03l-.55-.03-2.43-.13a93.8 93.8 0 0 1-4.22-.29.53.53 0 0 1 .16-1.05c.4.06 2.28.17 4.11.27a657.78 657.78 0 0 0 3.22.17l.82.04-.37 8.83a.53.53 0 0 1-1.07-.05l.29-6.64-22.95 19.06h-.03c-.72.42-1.65.24-2.15-.45l-5.13-6.98a.59.59 0 0 0-.83-.13l-.01.01L4.47 84.82a3.56 3.56 0 0 0 .73.07h80.59a4.14 4.14 0 0 0 4.13-4.16V37.07Z" clip-rule="evenodd"/>
</svg>
