<svg id="icon-places-retail-location" viewBox="0 0 96 96" xmlns="http://www.w3.org/2000/svg">
  <path fill-rule="evenodd" d="M90.72 17.271c.1.1.1.4 0 .6 0 .1.1.2.2.3v11.3s-.096 5.987-7.499 7.333v29.467h.1c0 .2-.2.4-.4.5l-1.79.512-4.71 10.988c-.1.2-.3.3-.5.3h-60.2a.57.57 0 0 1-.592-.5h-.008V36.667c-7.205-1.412-7.3-7.198-7.3-7.296v-11.5c-.1-.2 0-.4.1-.6l10.4-13.3c.1-.1.2-.2.4-.2h61c.1 0 .3.1.4.2l10.4 13.3Zm-9.872 49.571.032.013-.014-.054-.018.041ZM18.72 51.872h22.7v19.6h-22.7v-19.6Z" class="-path--shadow" fill="#38C6F4"/>
  <path fill-rule="evenodd" d="M43.476 35.419a4.571 4.571 0 0 1-.055-.548v-10.9h-19.6v10.9c-.008.008-.016.068-.03.17-.009.067-.02.152-.036.253.192 1.484 1.472 6.277 9.866 6.277 8.255 0 9.628-4.541 9.855-6.152Zm-16.42 6.152c-2.212-1.085-3.369-2.668-3.973-4.022-.618 1.354-1.78 2.937-3.994 4.022h7.966Zm-14.535 1.3h65.5V71.71L73.42 82.571h-2.698v-31.3c0-.4-.3-.7-.7-.7h-18.6c-.4 0-.7.3-.7.7v31.3h-40.5v-39.7h2.3Zm-3.7-.346c-7.423-1.524-7.5-7.566-7.5-7.654v-11.6c0-.28.148-.512.375-.625L12.221 9.07c.1-.2.3-.3.5-.3h62.9c.2 0 .4.1.5.3l10.565 13.627c.041.023.085.048.135.073.1.1.2.3.2.5v11.6a.793.793 0 0 0-.032.17c-.148 1.001-.907 6.137-7.668 7.499V71.77c0 .1 0 .2-.1.3l-4.9 11.5c0 .2-.3.3-.5.3h-64.3c-.4 0-.7-.3-.7-.7V42.525Zm66.9-.954c9.7 0 9.9-6.4 9.9-6.7v-10.9h-19.7v10.9a.77.77 0 0 0-.03.17c-.01.067-.02.151-.036.252.192 1.483 1.47 6.278 9.866 6.278Zm-6.566 0c-2.211-1.085-3.368-2.668-3.972-4.023-.618 1.355-1.78 2.938-3.994 4.023h7.966Zm-14.434 0c8.165 0 9.599-4.534 9.848-6.148a4.657 4.657 0 0 1-.048-.552v-10.9h-19.6v10.9a.771.771 0 0 0-.03.17c-.01.067-.02.152-.036.252.192 1.484 1.47 6.278 9.866 6.278Zm-6.603 0h-7.93c2.174-1.065 3.334-2.61 3.96-3.948.341.728.84 1.516 1.573 2.248a8.963 8.963 0 0 0 2.397 1.7Zm-35.497 0c-9.7 0-9.9-6.4-9.9-6.7v-10.9h19.7v10.9c0 .016.003.22.048.553-.25 1.615-1.685 6.147-9.848 6.147Zm62.6-31.4 9.523 12.4H3.4l9.622-12.4h62.2Zm-5.8 41.8v30.6h-17.4v-30.6h17.4ZM22.464 59.65c.118.068.21.121.357.121.1 0 .3-.1.4-.2l2.9-2.9c.3-.2.3-.6 0-.9-.2-.3-.6-.3-.9 0l-2.9 2.9c-.3.2-.3.6 0 .9.054.027.1.054.143.079Zm1.857 5.621c-.146 0-.239-.053-.357-.121-.043-.025-.09-.052-.143-.079-.3-.3-.3-.7 0-.9l6.9-6.9c.3-.3.7-.3.9 0 .3.3.3.7 0 .9l-6.9 6.9c0 .1-.2.2-.4.2Zm-6.1-14.657h-.657v22.015h25.015V50.614H18.22Zm.658 20.7V51.929h22.385v19.385H18.879Z" class="-path--primary" fill="#083176"/>
  <path fill-rule="evenodd" d="M92.327 58.629a.658.658 0 1 0-1.21-.515l-3.09 7.266-1.757-.718a.658.658 0 0 0-.43-.023l-5.2 1.5a.658.658 0 0 0-.424.375l-8.2 19.3a.658.658 0 0 0 .352.864l13.2 5.5a.658.658 0 0 0 .86-.35l8.2-19.4a.658.658 0 0 0-.05-.608l-3.1-4.9a.658.658 0 0 0-.308-.258l-1.925-.785 3.082-7.248Zm-4.814 7.961-1.529-.624-4.68 1.35-7.818 18.403 11.984 4.994 7.812-18.48-2.804-4.432-1.748-.714-.674 1.587c.752.529 1.223 1.39 1.223 2.397 0 1.7-1.431 2.958-3.058 2.958-1.626 0-3.057-1.258-3.057-2.958 0-1.699 1.431-2.957 3.057-2.957.214 0 .421.019.62.055l.672-1.579Zm-1.208 2.84a2.295 2.295 0 0 0-.084-.001c-.973 0-1.742.742-1.742 1.642 0 .901.769 1.643 1.742 1.643.974 0 1.743-.742 1.743-1.643 0-.443-.16-.841-.445-1.135l-.592 1.393a.658.658 0 0 1-1.21-.515l.588-1.383Z" class="-path--secondary" fill="#FF9E18"/>
</svg>
