<svg id="icon-business-checklist" viewBox="0 0 96 96" xmlns="http://www.w3.org/2000/svg">
  <path class="-path--shadow" fill="#38C6F4" fill-rule="evenodd" d="M65.92 6.5h-7.58V1.44C58.34.65 57.7 0 56.9 0H29.92c-.8 0-1.44.65-1.44 1.45v5.04h-7.3a2.9 2.9 0 0 0-2.9 2.9v66.74c.01 1.6 1.3 2.9 2.9 2.9h35.54l12.1-15.4V9.4c0-1.6-1.3-2.9-2.89-2.9Z" clip-rule="evenodd"/>
  <path class="-path--secondary" fill="#FF9E18" fill-rule="evenodd" d="M75.84 58.25a1.02 1.02 0 0 0-1.42.25l-.01.01-21.1 26.84c-.07.1-.13.2-.17.32v.01l-2.9 7.76-.01.02c-.15.31-.1.68.1.95.31.4.89.48 1.29.17l.01-.02 6.85-4.6v-.01c.1-.07.2-.16.28-.27l21.09-26.83.01-.01.02-.02c.36-.43.3-1.08-.11-1.45l-3.92-3.11-.01-.01Zm-2.42-.47a2.25 2.25 0 0 1 3.13-.54l.04.03h.01l3.95 3.15c.96.82 1.07 2.25.26 3.2l-.01.02-21.07 26.8c-.16.2-.34.38-.55.53l-6.83 4.6c-.94.7-2.28.52-3-.41a2.16 2.16 0 0 1-.25-2.2l2.88-7.7c.08-.24.21-.47.37-.68l21.07-26.8Z" clip-rule="evenodd"/>
  <path class="-path--primary" fill="#083176" fill-rule="evenodd" d="M25.47 5.1c0-.44.36-.8.8-.8h27.39c.43 0 .79.36.79.8v7.3a.8.8 0 0 1-.8.8H26.27a.8.8 0 0 1-.8-.8V5.1Zm.8-2.03c-1.13 0-2.03.92-2.03 2.04v4.62H17.5a3.5 3.5 0 0 0-3.5 3.52v66.74a3.52 3.52 0 0 0 3.5 3.51h35.7l.97-1.23H17.5A2.28 2.28 0 0 1 15.23 80V13.25a2.28 2.28 0 0 1 2.27-2.29h6.74v1.43c0 1.12.9 2.04 2.02 2.04h27.4c1.12 0 2.02-.92 2.02-2.04v-1.43h6.58a2.28 2.28 0 0 1 2.27 2.29v55.84l1.23-1.57V13.25a3.5 3.5 0 0 0-3.5-3.52h-6.58V5.11c0-1.12-.9-2.04-2.02-2.04h-27.4Zm19.9 23.77L35.13 40.52l-3.75-5.11.99-.73 2.8 3.82L45.2 26.07l.96.77ZM23.71 50.56a.62.62 0 1 0 0 1.23h28.91a.62.62 0 1 0 0-1.23h-28.9Zm-.62 7.99c0-.34.28-.62.62-.62h31.8a.62.62 0 1 1 0 1.23h-31.8a.62.62 0 0 1-.62-.61Zm.62 6.48a.62.62 0 1 0 0 1.23h26.03a.62.62 0 0 0 0-1.23H23.72Z" clip-rule="evenodd"/>
</svg>
