<svg id="icon-products-web-application-firewall" viewBox="0 0 96 96" xmlns="http://www.w3.org/2000/svg">
  <path fill-rule="evenodd" d="M22.8 8.2h65.8c3 0 5.4 2.4 5.3 5.5v2.7h.1V70H28.3c-.5-2.1-1.5-4.4-3-6.7h-.2c-.1 0-.1.1-.1.1-.5 1.3-1.2 2.5-2.1 3.6-.1.1-.3.1-.4 0-.1 0-.1-.1-.1-.2.2-5-1.7-9.7-4.9-13.2V18.3c-.1-.3-.1-.7-.1-1.1v-3.5c0-3.1 2.4-5.5 5.4-5.5ZM35 19.7c1.1 0 1.9-.9 1.9-1.9 0-1.1-.9-1.9-1.9-1.9-1.1 0-1.9.9-1.9 1.9 0 1.1.8 1.9 1.9 1.9Zm-4.1-1.9c0 1.1-.9 1.9-1.9 1.9-1.1 0-1.9-.9-1.9-1.9 0-1.1.9-1.9 1.9-1.9 1.1 0 1.9.8 1.9 1.9Zm-8.6 1.9c1.1 0 1.9-.9 1.9-1.9 0-1.1-.9-1.9-1.9-1.9-1.1 0-1.9.9-1.9 1.9 0 1.1.8 1.9 1.9 1.9Z" class="-path--shadow" fill="#38C6F4"/>
  <path fill-rule="evenodd" d="M19.7 11.9h65.8c3.6 0 6.5 2.9 6.6 6.6v5.1h-.3V73.8c0 .4-.3.7-.7.7H29v-.6c0-.2-.1-.5-.1-.7h3V61.1h-9.8c-.4 0-.7-.3-.7-.7 0-.4.3-.7.7-.7H42V47.6H14.8v3.5c-.2-.2-.4-.3-.7-.5-.2-.1-.4-.3-.6-.5V23.6h-.2v-5.2c0-3.6 2.9-6.5 6.4-6.5Zm70.8 11.7v9.1H73.4v-9.1h17.1ZM72 32.5v.2H43.4v-9.1H72v8.9Zm-57.2 1.6h47v12.1H33.3V35.1c0-.4-.3-.7-.7-.7-.4 0-.7.3-.7.7v11.1H14.8V34.1Zm48.4 12.1V34.1h27.3v12.1H63.2Zm-10.7 1.4H72v11.1c0 .4.3.7.7.7.3 0 .6-.2.7-.7V47.6h17.1v12.1H43.4V47.6h9.1Zm-7 25.5c-.1 0-.3 0-.4.1H33.3V61.1h28.5v12H45.5ZM14.8 32.7H42v-9.1H14.8v9.1Zm75.7 28.4H63.2v12h27.3v-12ZM36.7 17.7c0 .6-.3 1.2-.7 1.5h-2c-.5-.3-.7-.9-.7-1.5 0-1 .8-1.8 1.7-1.8 1 0 1.7.8 1.7 1.8Zm-6 0c0 .6-.3 1.2-.7 1.5h-2c-.5-.3-.7-.9-.7-1.5 0-1 .8-1.8 1.7-1.8 1 0 1.7.8 1.7 1.8Zm-6.7 0c0 .6-.3 1.2-.7 1.5h-1.9c-.5-.3-.7-.9-.7-1.5 0-1 .8-1.8 1.7-1.8.9 0 1.6.8 1.6 1.8Zm-4.8 55.5c.2.3.5.6.9.9.1 0 .1.1.2.2l.3.3h-6.4c-.4 0-.7-.3-.7-.7v-2.5c.3-1 .7-2 1.3-2.8v4.6h4.4Z" class="-path--primary" fill="#083176"/>
  <path d="m20.2 88.2-.5-.1v-.6l.2-.1c1.9-1.5 3-3.4 3-5.6.1-3.5-2.4-6.8-2.9-7.2l-.1-.1c-2.7-2.1-3-5.8-3-7.3-4 2.4-4 12-4 12.1v.8l-.7-.4c-1.5-.9-2.1-2.5-2.4-3.8-1.5 3.4-1.9 6.2-1.1 8.4.8 2.2 2.6 2.9 2.7 3l-.4.9C3.5 85.3 1.9 79.9 1.7 77v-.2c-.7-4 1.2-8.8 5.5-13.5l.1-.1c5.5-7.6 4.8-12.8 4.7-13.3l-.2-.9.8.4C19 52.6 23 59.2 23 66.2c.7-.9 1.3-1.9 1.7-3l.1-.2.1-.1c.2-.2.5-.3.7-.2l.3.1v.2c5.8 9 3.2 17.2 2.2 18.4-1.3 2.7-6.7 6.8-7.9 6.8ZM2.6 76.6v.3c.2 2.3 1.3 6.2 5.8 8.9-.2-.3-.4-.7-.6-1.1-1-2.7-.4-6.3 1.8-10.6l.6-1.1.3 1.2c0 .1 0 .2.1.4.1.7.3 2.5 1.4 3.7.1-2.8.8-10.6 5.2-12.3l.5-.2.2.5v.5c0 1.2.1 4.9 2.7 6.9.6.5 2.6 3.2 3.2 6.2.4 2.1 0 4-1 5.7 1.7-1.3 3.8-3.2 4.6-4.7l.1-.1.1-.1s3.7-7.5-2.1-16.8c-.5 1.1-1.2 2.2-2 3.2-.2.2-.4.2-.6.2-.2 0-.4-.1-.5-.2-.3 0-.4-.1-.4-.4.2-6.6-3.3-12.8-9-16.2.1 2-.4 6.8-5 13.1 0 .2 0 .3-.1.4-4 4.4-5.9 8.9-5.3 12.6Z" fill="#D62015"/>
  <path fill-rule="evenodd" d="M22.3 19.9c-1.2 0-2.2-1-2.2-2.2 0-1.2 1-2.2 2.2-2.2 1.2 0 2.2 1 2.2 2.2 0 1.2-.9 2.2-2.2 2.2Zm0-3.5c-.7 0-1.3.6-1.3 1.3 0 .7.6 1.3 1.3 1.3.7 0 1.3-.6 1.3-1.3 0-.7-.6-1.3-1.3-1.3Zm6.7 3.5c-1.2 0-2.2-1-2.2-2.2 0-1.2 1-2.2 2.2-2.2 1.2 0 2.2 1 2.2 2.2 0 1.2-.9 2.2-2.2 2.2Zm0-3.5c-.7 0-1.3.6-1.3 1.3 0 .7.6 1.3 1.3 1.3.7 0 1.3-.6 1.3-1.3 0-.7-.6-1.3-1.3-1.3Zm3.8 1.3c0 1.2 1 2.2 2.2 2.2 1.2 0 2.2-1 2.2-2.2 0-1.2-1-2.2-2.2-2.2-1.2 0-2.2 1-2.2 2.2Zm.9 0c0-.7.6-1.3 1.3-1.3.7 0 1.3.6 1.3 1.3 0 .7-.6 1.3-1.3 1.3-.7 0-1.3-.6-1.3-1.3Z" class="-path--secondary" fill="#FF9E18"/>
</svg>
