<svg id="icon-products-internet-cloud" viewBox="0 0 96 96" xmlns="http://www.w3.org/2000/svg">
  <path fill-rule="evenodd" d="M75.422 32.102a14.666 14.666 0 0 1 4.07-.58h-.01c.216-.005.433-.005.65 0 8.113.179 14.544 6.873 14.364 14.953-.18 8.08-6.901 14.486-15.014 14.307h-7.27c.008-.27.013-.543.013-.816 0-14.512-11.813-26.276-26.384-26.276S19.458 45.454 19.458 59.966c0 .132 0 .263.003.394a18.595 18.595 0 0 1-1.848-.501C7.89 56.676 2.6 46.246 5.796 36.564c3.196-9.683 13.668-14.952 23.39-11.769C32.477 15.537 41.16 9.258 51.019 9.007c13.142-.334 24.069 10.006 24.404 23.095Z" class="-path--shadow" fill="#38C6F4"/>
  <path fill-rule="evenodd" d="M72.723 34.366a15.328 15.328 0 0 1 3.476-.396h.322c8.472.09 15.271 7.005 15.18 15.449-.093 8.442-7.036 15.208-15.506 15.119h.003v-.657l-.007.657h.004-3.826a.658.658 0 1 1 0-1.315h3.836c7.75.083 14.096-6.106 14.18-13.819.084-7.71-6.125-14.034-13.874-14.119h.003v-.657l-.007.657h.004-.313a14.013 14.013 0 0 0-3.912.554.658.658 0 0 1-.84-.614c-.358-12.722-11.003-22.752-23.784-22.397-9.546.265-17.946 6.34-21.154 15.295a.658.658 0 0 1-.826.402C16.314 25.42 6.195 30.465 3.078 39.79-.04 49.113 5.022 59.19 14.389 62.297c1.6.53 3.266.833 4.95.898a.658.658 0 0 1-.05 1.314 19.26 19.26 0 0 1-5.314-.964C3.922 60.212-1.518 49.39 1.83 39.373c3.281-9.816 13.781-15.21 23.66-12.286 3.545-9.141 12.262-15.3 22.136-15.574 13.225-.367 24.295 9.793 25.097 22.853Z" class="-path--primary" fill="#083176"/>
  <path fill-rule="evenodd" d="M32.08 38.249a26.064 26.064 0 0 1 13.761-3.901c.635 0 1.265.022 1.889.067-3.503.698-6.978 2.61-10.077 5.423a30.185 30.185 0 0 0-2.055 2.058 39.412 39.412 0 0 1-3.468-3.594.662.662 0 0 0-.05-.053ZM20.347 54.722c-.401 1.811-.612 3.693-.612 5.623 0 3.005.511 5.89 1.453 8.575a40.958 40.958 0 0 1 4.916-.726c-.149-3.565.295-7.344 1.316-11.09l-7.073-2.382Zm.318-1.28 7.122 2.398c.128-.414.262-.827.404-1.24v-.002c1.568-4.506 3.846-8.486 6.543-11.71a40.744 40.744 0 0 1-3.606-3.734.656.656 0 0 1-.119-.206c-4.977 3.428-8.7 8.533-10.344 14.494Zm8.004 4.083c-.973 3.597-1.39 7.199-1.253 10.577 2.706-.146 5.401-.02 8.047.362a83.25 83.25 0 0 1 2.104-7.943l-8.898-2.996Zm9.305 1.745-8.94-3.01c.126-.41.26-.821.4-1.231 1.514-4.352 3.707-8.18 6.286-11.27a40.722 40.722 0 0 0 6.668 4.63c-1.382 2.818-2.725 6.012-3.95 9.521-.16.455-.314.908-.465 1.36Zm.84 1.671a82.021 82.021 0 0 0-2.05 7.733 40.934 40.934 0 0 1 11.228 3.731 81.354 81.354 0 0 0 3.208-7.293l-12.386-4.17Zm12.85 2.94L39.22 59.69c.149-.448.302-.897.46-1.346 1.203-3.45 2.52-6.58 3.869-9.335a40.937 40.937 0 0 0 11.375 3.865 85.46 85.46 0 0 1-2.748 9.579c-.169.482-.34.957-.513 1.426Zm.783 1.651a82.72 82.72 0 0 1-3.29 7.483 40.728 40.728 0 0 1 6.709 4.569c2.172-2.531 4.086-5.58 5.57-9.025l-8.989-3.027Zm9.49 1.808L52.91 64.3a86.68 86.68 0 0 0 3.313-11.21c2.716.406 5.484.54 8.264.388.095 4.003-.582 8.298-2.051 12.512-.16.456-.326.906-.5 1.35Zm.75 1.64c-1.54 3.601-3.54 6.801-5.827 9.465a40.713 40.713 0 0 1 3.482 3.522 26.137 26.137 0 0 0 9.189-10.682l-6.845-2.305Zm7.371 1.095-6.874-2.315c.172-.44.336-.886.494-1.337 1.52-4.36 2.23-8.837 2.122-13.038a40.97 40.97 0 0 0 4.982-.744 25.891 25.891 0 0 1 1.166 7.705c0 3.44-.671 6.724-1.89 9.729Zm-39.96 11.01a26.093 26.093 0 0 1-8.437-10.92 39.645 39.645 0 0 1 4.525-.658c.275 3.27 1.066 6.328 2.385 8.975.421.925.934 1.796 1.526 2.604Zm-.345-3.18c-1.238-2.48-1.99-5.373-2.255-8.49a39.555 39.555 0 0 1 7.706.34 59.366 59.366 0 0 0-.619 3.92c-.282 2.312-.379 4.418-.27 6.215.093 1.557.341 2.92.78 3.993a13.373 13.373 0 0 1-5.331-5.956l-.006-.012-.005-.01Zm6.138-4.071c.15-1.23.355-2.525.612-3.87a39.617 39.617 0 0 1 10.888 3.61c-1.22 2.318-2.453 4.324-3.64 5.976-1.405 1.958-2.728 3.394-3.87 4.267-1.163.892-1.972 1.076-2.455.928a1.745 1.745 0 0 1-.927-.946.66.66 0 0 0-.022-.049c-.454-.903-.748-2.232-.85-3.938-.102-1.697-.012-3.72.264-5.978Zm8.929 6.483c1.225-1.706 2.489-3.765 3.736-6.132a39.406 39.406 0 0 1 6.431 4.379 27.237 27.237 0 0 1-3.528 3.183c-3.788 2.84-7.895 4.21-11.726 3.75.318-.18.635-.395.948-.635 1.284-.983 2.694-2.532 4.139-4.545Zm7.428 2.482a28.57 28.57 0 0 0 3.735-3.374 39.38 39.38 0 0 1 3.232 3.252 26.067 26.067 0 0 1-13.957 3.66c2.4-.658 4.768-1.872 6.99-3.538Zm2.95-31.21a39.62 39.62 0 0 1-11.06-3.755c1.17-2.281 2.356-4.277 3.507-5.95 1.34-1.951 2.621-3.446 3.76-4.446C52.567 36.415 53.48 36 54.096 36c.113 0 .225.015.333.046.417.187.746.527.92.948a.62.62 0 0 0 .02.046c.455.905.748 2.235.85 3.943.103 1.697.014 3.72-.262 5.98a59.786 59.786 0 0 1-.76 4.624Zm9.23.575a39.57 39.57 0 0 1-7.932-.362c.33-1.633.587-3.2.767-4.679.283-2.313.379-4.42.27-6.218-.085-1.422-.3-2.682-.67-3.709a13.343 13.343 0 0 1 5.253 5.926c1.312 2.625 2.087 5.715 2.311 9.042Zm5.928-.777c-1.535.32-3.077.547-4.617.683-.235-3.478-1.047-6.731-2.44-9.525a14.622 14.622 0 0 0-1.873-3.059 26.077 26.077 0 0 1 8.93 11.9ZM42.98 47.212a39.411 39.411 0 0 1-6.395-4.445 28.856 28.856 0 0 1 1.953-1.955c3.794-3.443 8.066-5.377 12.111-5.377.384 0 .767.018 1.147.054a10.49 10.49 0 0 0-1.259.96c-1.247 1.096-2.597 2.685-3.975 4.689-1.181 1.718-2.392 3.756-3.582 6.074ZM37.815 86.47a27.522 27.522 0 0 0 8.026 1.188c15.142 0 27.422-12.225 27.422-27.313 0-15.087-12.28-27.313-27.422-27.313-15.142 0-27.422 12.226-27.422 27.314 0 11.757 7.459 21.777 17.917 25.627.208.086.419.167.631.244l.016.005c.276.092.553.175.832.248Z" class="-path--secondary" fill="#FF9E18"/>
</svg>
