<svg id="icon-products-sap-applications" viewBox="0 0 96 96" xmlns="http://www.w3.org/2000/svg">
  <path fill-rule="evenodd" d="M76.045 29.718c0-3.02-2.466-5.467-5.506-5.467H27.14c-3.04 0-5.506 2.448-5.506 5.467v33.763c0 3.019 2.465 5.467 5.506 5.467H70.54c3.04 0 5.506-2.448 5.506-5.467V29.718Zm-45.778 1.877a1.078 1.078 0 1 0 0-2.156 1.078 1.078 0 0 0 0 2.156Zm5.173-1.078a1.078 1.078 0 1 1-2.157 0 1.078 1.078 0 0 1 2.157 0Zm-9.267 1.047a1.078 1.078 0 1 0 0-2.156 1.078 1.078 0 0 0 0 2.156Z" class="-path--shadow" fill="#38C6F4"/>
  <path fill-rule="evenodd" d="M19.76 65.78V34.413h53.404v31.39c-.012 2.731-2.246 4.945-5.004 4.945H24.764c-2.765 0-5.003-2.226-5.003-4.966Zm48.4-39.73a6.014 6.014 0 0 1 5.004 2.663v-.502l4.682-.133 1.158 7.13c.163.064.322.133.475.2l.023.01c.237.102.462.2.692.284l.033.013.03.016a15.63 15.63 0 0 1 1.972 1.262l6.367-2.838L94 42.905l-5.896 4.776c.061.775.062 1.555.001 2.33L94 54.21l-4.877 9.028-6.789-2.555a15.286 15.286 0 0 1-2.555 1.576l-.741 7.291-5.874.167v-.63a6.014 6.014 0 0 1-5.004 2.663H24.764a6.015 6.015 0 0 1-5.043-2.723v.145h-9.414v-.077c-.842 0-1.76-.153-2.602-.382a8.074 8.074 0 0 1-4.822-4.133 8.15 8.15 0 0 1-.46-6.276C3.8 54.17 8.24 51.797 12.45 52.946c1.112-2.744 3.446-4.913 6.306-5.881V32.019c0-3.299 2.692-5.969 6.008-5.969h43.398Zm6.01 5.968v9.601c3.838.451 6.718 3.796 6.505 7.688-.195 3.585-2.965 6.476-6.506 6.893v12.486l3.957-.113.71-6.98.259-.12a14.279 14.279 0 0 0 2.84-1.752l.224-.176 6.496 2.445 4.04-7.479-5.643-4.019.028-.287a13.9 13.9 0 0 0 0-2.697l-.026-.268 5.627-4.56-4.48-7.252-6.112 2.725-.239-.187a14.634 14.634 0 0 0-2.04-1.337c-.244-.091-.48-.193-.7-.289l-.03-.013c-.245-.106-.47-.203-.695-.283l-.28-.1-1.11-6.84-2.826.081V32.018Zm0 23.171V42.63c3.26.445 5.683 3.306 5.501 6.623-.166 3.053-2.497 5.527-5.502 5.937ZM26.152 31.8c.735 0 1.33-.592 1.33-1.32 0-.73-.595-1.32-1.33-1.32-.734 0-1.329.59-1.329 1.32 0 .728.595 1.32 1.33 1.32Zm5.419-1.32c0 .728-.595 1.32-1.33 1.32-.734 0-1.329-.592-1.329-1.32 0-.73.595-1.32 1.33-1.32.734 0 1.329.59 1.329 1.32Zm2.746 1.32c.734 0 1.33-.592 1.33-1.32 0-.73-.596-1.32-1.33-1.32-.734 0-1.33.59-1.33 1.32 0 .728.596 1.32 1.33 1.32Zm4.758 18.847c0-.332-.118-.587-.353-.763-.236-.18-.66-.368-1.272-.564-.613-.2-1.098-.395-1.455-.587-.974-.524-1.46-1.23-1.46-2.12 0-.461.129-.872.388-1.233.263-.364.638-.647 1.125-.85a4.267 4.267 0 0 1 1.649-.306c.612 0 1.158.111 1.637.334.48.22.85.53 1.113.934.267.403.4.861.4 1.374h-1.766c0-.391-.124-.695-.371-.91-.247-.22-.595-.329-1.042-.329-.432 0-.768.092-1.008.276a.852.852 0 0 0-.359.716c0 .278.14.511.418.7.283.187.697.363 1.243.528 1.005.301 1.737.675 2.197 1.121.46.446.689 1.002.689 1.668 0 .74-.28 1.32-.842 1.744-.562.418-1.318.628-2.268.628-.66 0-1.26-.12-1.802-.358-.542-.243-.956-.574-1.243-.993-.282-.419-.424-.904-.424-1.456h1.773c0 .944.565 1.415 1.696 1.415.42 0 .748-.084.984-.252a.838.838 0 0 0 .353-.717Zm7.816.482h-3.098l-.59 1.761h-1.878l3.192-8.549h1.637l3.21 8.55h-1.879l-.594-1.762ZM44.27 49.7h2.144l-1.078-3.2-1.066 3.2Zm7.662 3.188v-3.012h1.55c1.016 0 1.811-.24 2.384-.722.578-.485.866-1.147.866-1.985a2.77 2.77 0 0 0-.394-1.473 2.593 2.593 0 0 0-1.131-1.005c-.487-.234-1.052-.352-1.696-.352h-3.346v8.55h1.767Zm1.579-4.439h-1.579v-2.683h1.62c.436.008.777.14 1.025.4.247.258.37.596.37 1.015 0 .407-.123.72-.37.94-.244.219-.6.328-1.066.328ZM3.418 58.532c.995-3.06 3.826-4.974 6.888-4.974.689 0 1.454.153 2.296.382l.46.154.152-.46a9.54 9.54 0 0 1 5.434-5.587V68.1h-8.342c-.766-.076-1.53-.153-2.296-.382-1.837-.613-3.368-1.914-4.21-3.674a7.234 7.234 0 0 1-.382-5.51Z" class="-path--primary" fill="#083176"/>
  <path fill-rule="evenodd" d="m77.42 28.592 1.135 6.98c.25.09.5.198.752.307.233.101.47.203.712.293.753.406 1.469.874 2.142 1.4l6.238-2.78 4.942 8-5.761 4.667c.09.93.09 1.865 0 2.794l5.768 4.107-4.459 8.254-6.641-2.5a14.777 14.777 0 0 1-2.94 1.813l-.726 7.134-4.915.14V55.74c3.511-.189 6.317-2.974 6.506-6.46.206-3.773-2.707-6.997-6.506-7.2V28.697l3.753-.106ZM25.2 30.478a.95.95 0 0 1 .954-.946.95.95 0 0 1 .954.946.95.95 0 0 1-.954.946.95.95 0 0 1-.954-.946Zm.954-1.694a1.7 1.7 0 0 0-1.704 1.694 1.7 1.7 0 0 0 1.704 1.694 1.7 1.7 0 0 0 1.705-1.694 1.7 1.7 0 0 0-1.705-1.694Zm3.135 1.694a.95.95 0 0 1 .955-.946.95.95 0 0 1 .954.946.95.95 0 0 1-.954.946.95.95 0 0 1-.955-.946Zm.955-1.694a1.7 1.7 0 0 0-1.705 1.694 1.7 1.7 0 0 0 1.705 1.694 1.7 1.7 0 0 0 1.704-1.694 1.7 1.7 0 0 0-1.704-1.694Zm4.075.748a.95.95 0 0 0-.954.946c0 .521.426.946.954.946a.95.95 0 0 0 .955-.946.95.95 0 0 0-.955-.946Zm-1.704.946a1.7 1.7 0 0 1 1.704-1.694 1.7 1.7 0 0 1 1.705 1.694 1.7 1.7 0 0 1-1.705 1.694 1.7 1.7 0 0 1-1.704-1.694Z" class="-path--secondary" fill="#FF9E18"/>
</svg>
