<svg id="icon-platform-it-agility-hybrid-cloud" viewBox="0 0 96 96" xmlns="http://www.w3.org/2000/svg">
  <path class="-path--shadow" fill="#38C6F4" d="M73.2 62.5a34.62 34.62 0 0 0 14.32-28.3C87.52 15.31 72.87 0 54.8 0 36.74 0 22.1 15.31 22.1 34.2c0 3.46.49 6.8 1.4 9.94 1.13.06 2.28.27 3.41.64a16.91 16.91 0 0 1 15.53-11.23 16.89 16.89 0 0 1 17.34 16.42c.94-.28 1.93-.42 2.91-.42h.23l.54.01A10.42 10.42 0 0 1 73.2 62.5Z"/>
  <path class="-path--secondary" fill="#FF9E18" d="M50.89 70.35h1.24v6.68a.62.62 0 0 1-1.24 0v-6.68Zm-5.48 0h1.24v17.53a4.1 4.1 0 1 1-1.24 0V70.35Zm.62 18.72a2.85 2.85 0 1 0 2.86 2.84 2.85 2.85 0 0 0-2.86-2.84Zm-5.95-18.72h1.24v2.48c0 .35-.28.62-.62.62h-8.11v18.47a.62.62 0 0 1-1.24 0V72.83c0-.34.27-.62.62-.62h8.1v-1.86Zm-14.07 0h1.24v11.11a.62.62 0 0 1-1.24 0v-11.1Z"/>
  <path class="-path--primary" fill="#083176" fill-rule="evenodd" d="M73.3 64.16c8.48-9.35 11.75-23.35 7.95-36.33C75.8 9.05 57.6-1.42 40.53 4.73 25.2 10.24 16.14 27.15 18.5 44.17a13.72 13.72 0 0 0-.01 26.1c1.4.46 2.84.7 4.3.7h39.88c4.75.16 8.91-2.68 10.63-6.82ZM35.79 34.4a17.57 17.57 0 0 1 16.95 1.56l10.3-3.61a76.22 76.22 0 0 0-5.25-12.02l-22.9 8.52c.22 1.79.51 3.64.9 5.55Zm18.15 2.45a17.4 17.4 0 0 1 6.41 12.33 10.89 10.89 0 0 1 2.36-.25h.2a11.13 11.13 0 0 1 .7.02l3.18-1.1a68.16 68.16 0 0 0-2.94-13.04l-.4-1.28-9.5 3.32Zm12.23 12.52.82.28-.06-.54-.76.26Zm2.12.87a11.01 11.01 0 0 1 5.76 11.1 36.48 36.48 0 0 0 7.15-17.18l-13.06 4.53.15 1.55Zm-48.58-6.4a38.04 38.04 0 0 1-.1-9.3L33.7 29.3c.22 1.83.53 3.72.93 5.66a17.49 17.49 0 0 0-8.1 9.05c-2.3-.64-4.64-.66-6.82-.16Zm53.03-29.18a35.1 35.1 0 0 1 6.81 11.91l-15.33 5.37a77.65 77.65 0 0 0-5.25-12.05l13.5-5.02a.62.62 0 0 0 .27-.21Zm-14.39 4.13 13.56-5.04c-7.28-7.7-17.7-11.24-27.97-8.76 1.03.2 2.07.58 3.1 1.14 2.23 1.2 4.48 3.2 6.65 5.83a49.28 49.28 0 0 1 4.66 6.83ZM36.9 7.7c-1.71 2.12-2.81 5.3-3.32 9.08a48.2 48.2 0 0 0-.03 11.24L19.8 33.15C21.42 22.3 27.67 12.68 36.9 7.7Zm-2.14 19.88c-.4-3.96-.36-7.56.05-10.63.8-5.91 2.97-9.65 6.07-10.6 1.66-.51 3.55-.22 5.58.88 2.03 1.1 4.16 2.97 6.27 5.53a47.77 47.77 0 0 1 4.44 6.47l-22.41 8.35Zm33.23 19.85 13.15-4.57a.62.62 0 0 1 .22-.03c.51-4.82.12-9.8-1.3-14.65l-.13-.42-15.31 5.36.41 1.3c1.4 4.25 2.4 8.6 2.96 13ZM42.45 34.17c9-.23 16.47 6.86 16.7 15.82a.62.62 0 0 0 .8.58c.88-.26 1.8-.4 2.72-.4h.25a9.83 9.83 0 0 1 9.96 10.15 9.8 9.8 0 0 1-10.17 9.41H22.79a12.48 12.48 0 0 1-11.92-16.39 12.56 12.56 0 0 1 15.84-7.97c.32.1.67-.07.78-.38a16.3 16.3 0 0 1 14.96-10.82Z" clip-rule="evenodd"/>
</svg>
