<svg id="icon-business-reports" viewBox="0 0 96 96" xmlns="http://www.w3.org/2000/svg">
  <path fill-rule="evenodd" d="M85.65 79.946V27.905L60.033 3H25.06c-4.64 0-8.402 3.746-8.402 8.368v68.595c.004 4.617 3.766 8.356 8.402 8.351h52.186c4.641 0 8.403-3.746 8.403-8.368ZM38.3 26.794h-8.594v47.255H38.3V26.794Zm3.439 9.363h8.594V74.05h-8.594V36.157Zm20.618 9.363h-8.594v28.53h8.594V45.52Z" class="-path--shadow" fill="#38C6F4"/>
  <path fill-rule="evenodd" d="M12.315 16.054c0-4.256 3.465-7.71 7.745-7.71h34.707l25.224 24.525v51.763c0 4.256-3.464 7.71-7.744 7.71H20.06c-4.28 0-7.745-3.454-7.745-7.71V16.054Zm7.745-9.026c-5.001 0-9.06 4.039-9.06 9.026v68.578c0 4.988 4.059 9.026 9.06 9.026h52.187c5.001 0 9.06-4.038 9.06-9.026V32.591a.657.657 0 0 0-.2-.472L55.493 7.214a.657.657 0 0 0-.459-.186H20.06Zm8.989 19.108h9.909v48.571h-9.91v-48.57Zm1.315 1.315v45.941h7.278v-45.94h-7.278ZM50.99 35.5h-9.909v39.208h9.91V35.5Zm-8.593 37.893V36.815h7.278v36.577h-7.278Zm20.618-28.53h-9.909v29.845h9.909V44.863Zm-8.594 28.53V46.178H61.7v27.214H54.42Z" class="-path--primary" fill="#083176"/>
</svg>
