<svg id="icon-places-security-operations-center" viewBox="0 0 96 96" xmlns="http://www.w3.org/2000/svg">
  <path d="M90.077 15.2h-4.6v6.7c0 2.3-1 4.5-2.6 6l-7.4 6.6c-.6.5-1.5.5-2.1 0l-7.4-6.6c-1.7-1.6-2.7-3.8-2.7-6.1v-6.7h-54.6c-2.4 0-4.3 1.9-4.3 4.3v52.9c0 2.4 1.9 4.3 4.3 4.3h16.7c.1-2 1.2-3.9 3-4.9l6.2-3.3 2.3-1.3c1.4-.8 3.2-.9 4.7-.4l3.3 1.2c1.3.5 2.6.5 3.9 0l3.2-1.2c1.6-.6 3.3-.4 4.8.4l2.3 1.3 6.3 3.4c1.8 1 3 2.8 3 4.9h21.6c2.4 0 4.3-1.9 4.3-4.3v-53c.1-2.3-1.8-4.2-4.2-4.2Zm-43.1 48.7c-6.2 0-11.3-6.3-11.3-13.9 0-7.7 5-13.9 11.3-13.9 6.2 0 11.3 6.3 11.3 13.9 0 7.7-5.1 13.9-11.3 13.9Z" class="-path--shadow" fill="#38C6F4"/>
  <path fill-rule="evenodd" d="M74.728 6.042h-.603L64.584 7.55c-1.165.152-1.865 1.167-1.865 2.151v7.843H52.377c-2.475 0-4.358 2.006-4.358 4.357v13.608a8.376 8.376 0 0 0-1.042-.066c-.49 0-.971.035-1.443.103V22c0-2.351-1.882-4.357-4.357-4.357h-35.1c-2.363 0-4.358 1.994-4.358 4.357v21.3c0 1.25.454 2.332 1.299 3.073 1.194 1.285 2.82 1.285 3.054 1.285h29.103c-.07.52-.117 1.05-.14 1.585H6.078c-2.363 0-4.358 1.994-4.358 4.357v21.3c0 1.141.448 2.336 1.413 3.088 1.193 1.27 2.806 1.27 3.04 1.27H24.72V83.6c0 3.456 2.787 6.358 6.358 6.358H62.85v-.003c3.47-.135 6.397-2.866 6.183-6.276v-4.421h18.443c2.363 0 4.358-1.995 4.358-4.358V53.6c0-2.351-1.883-4.357-4.358-4.357H58.969a11.782 11.782 0 0 0-.144-1.585H87.58c.237 0 1.877 0 3.072-1.304.808-.813 1.281-1.873 1.281-3.054V22c0-2.363-1.994-4.358-4.357-4.358l-1.343-.002V9.7c0-1.15-.862-2.005-1.86-2.15l-9.646-1.508Zm-16.164 40.3h29.013c.18 0 1.317-.008 2.113-.884l.01-.012.012-.01c.585-.586.907-1.322.907-2.136V22c0-1.637-1.405-3.042-3.042-3.042h-1.343v3.028c.103 2.473-.958 4.828-2.754 6.447-.05.05-.102.099-.153.147l-.006.005-7.415 6.613-.008.007a2.315 2.315 0 0 1-2.942 0l-.009-.007-7.414-6.613-.007-.006C63.702 26.862 62.62 24.492 62.62 22v-3.142H52.377a3.034 3.034 0 0 0-3.043 3.042v13.7h-.738c2.225.435 4.205 1.729 5.803 3.38 1.979 2.043 3.433 4.691 4.112 7.145l.002.008.002.008.05.202Zm.34 4.216c-.246 2.894-1.47 6.264-3.419 8.964-1.569 2.175-3.659 3.981-6.15 4.7v2.867l2.41-.905c1.8-.675 3.698-.44 5.341.436l.007.004 2.302 1.3 6.288 3.394.003.002c2.12 1.117 3.348 3.244 3.348 5.58v1.043h18.443c1.637 0 3.042-1.406 3.042-3.043V53.6a3.034 3.034 0 0 0-3.042-3.042H58.904ZM48.02 67.557v-3.064a8.444 8.444 0 0 1-1.042.065c-.454 0-.902-.032-1.342-.092v3.09a4.505 4.505 0 0 0 2.384 0Zm-3.7-.46v-2.904c-5.224-1.458-9.082-7.112-9.29-13.635H6.076c-1.637 0-3.043 1.406-3.043 3.042v21.3c0 .84.337 1.624.937 2.074l.05.038.042.046c.797.876 1.934.885 2.114.885h18.542V76.8c0-2.354 1.343-4.466 3.338-5.575l.01-.005 6.194-3.296 2.29-1.295h.001c1.58-.903 3.576-1.005 5.233-.453l.008.003 2.526.919Zm-8.915-20.754c1.095-5.124 4.438-9.271 8.815-10.517V22a3.034 3.034 0 0 0-3.042-3.042h-35.1c-1.637 0-3.043 1.405-3.043 3.042v21.3c0 .934.335 1.642.87 2.1l.032.028.027.03c.797.876 1.934.885 2.114.885h29.327ZM64.769 8.85l9.46-1.493h.397l9.55 1.492.008.001c.4.057.735.4.735.85V22.028c.092 2.09-.818 4.102-2.377 5.478l-.003.002-7.39 6.592a1 1 0 0 1-1.244 0l-7.384-6.586c-1.572-1.483-2.487-3.51-2.487-5.615V9.7c0-.413.296-.794.724-.847l.01-.002ZM46.977 36.758c-5.812 0-10.642 5.866-10.642 13.242 0 7.371 4.926 13.242 10.642 13.242 2.957 0 5.533-1.844 7.442-4.49 1.906-2.641 3.058-5.97 3.201-8.687l.001-.019.002-.019c.089-.796.004-2.01-.382-3.56-.622-2.244-1.967-4.693-3.787-6.572-1.823-1.883-4.063-3.137-6.477-3.137Zm9.484 31.019c-1.355-.72-2.856-.885-4.253-.361l-3.195 1.198h-.003a5.914 5.914 0 0 1-4.363.002l-3.286-1.195c-1.342-.444-2.94-.346-4.158.35l-.003.001-2.307 1.305-6.202 3.3c-1.602.893-2.657 2.579-2.657 4.423v6.8c0 2.744 2.213 5.042 5.043 5.042h31.69c2.894-.095 5.124-2.34 4.954-4.898l-.002-.022V76.9c0-1.863-.97-3.535-2.648-4.418l-.007-.003-6.31-3.406-2.293-1.296Z" class="-path--primary" fill="#083176"/>
  <path fill-rule="evenodd" d="M78.427 15.6h.6c.3 0 .6.3.6.6v8.9c0 .3-.3.6-.6.6h-9.5c-.3 0-.6-.3-.6-.6v-8.9c0-.3.3-.6.6-.6h.7v-1.8c.1-1.1 1.2-3.1 4.1-3.1 2.9 0 3.9 2 4.1 3v1.9Zm-4.1-3.7c-2.6 0-3 1.8-3 2l.1 1.8h5.9v-1.8c-.01-.019-.022-.051-.038-.095-.156-.427-.697-1.905-2.962-1.905Zm.975 7.925c0 .479-.318.83-.7.953v1.647h-.7v-1.682c-.371-.162-.6-.54-.6-.918 0-.6.5-1 1-1s1 .5 1 1Z" fill="#D62015"/>
</svg>
