<svg id="icon-products-video-chat" viewBox="0 0 96 96" xmlns="http://www.w3.org/2000/svg">
  <path fill-rule="evenodd" d="M51.039 3.522c-11.649 0-22.212 3.597-29.873 9.434-7.662 5.838-12.443 13.937-12.443 22.92 0 11.739 8.168 21.936 20.278 27.614v23.18a.478.478 0 0 0 .83.323l17.353-18.912c1.272.094 2.56.14 3.864.14 11.648 0 22.214-3.596 29.877-9.433 7.665-5.838 12.447-13.937 12.447-22.92 0-8.984-4.782-17.08-12.448-22.916-7.665-5.835-18.233-9.43-29.885-9.43Zm14.68 37.56v-9.476l-10.085 5.04v-7.665H25.902V53.21h29.73v-7.691l10.087 5.066v-9.503Z" class="-path--shadow" fill="#38C6F4"/>
  <path fill-rule="evenodd" d="M45.811 8.549c-11.684 0-22.28 3.603-29.969 9.464-7.69 5.862-12.5 14.01-12.5 23.07 0 11.8 8.146 22.061 20.208 27.728v23.065a.658.658 0 0 0 1.14.446l17.358-18.843c1.247.084 2.51.129 3.79.129 11.684 0 22.286-3.608 29.982-9.471 7.696-5.864 12.513-14.012 12.513-23.063 0-9.052-4.824-17.198-12.527-23.06-7.702-5.86-18.31-9.465-29.995-9.465ZM4.658 41.083c0-8.563 4.542-16.353 11.981-22.024 7.44-5.671 17.75-9.195 29.172-9.195 11.423 0 21.746 3.526 29.199 9.198 7.453 5.67 12.007 13.459 12.007 22.012S82.47 57.418 75.023 63.09c-7.447 5.673-17.763 9.202-29.185 9.202-1.354 0-2.691-.052-4.012-.148a.658.658 0 0 0-.531.21l-16.43 17.837v-21.8c0-.258-.15-.491-.384-.598-11.958-5.485-19.823-15.45-19.823-26.711Zm21.245-12.76a.658.658 0 0 0-.658.658V53.21c0 .363.295.658.658.658h29.73a.658.658 0 0 0 .658-.658v-6.625l9.134 4.588a.657.657 0 0 0 .952-.588V31.606a.657.657 0 0 0-.951-.588l-9.135 4.565V28.98a.658.658 0 0 0-.657-.657H25.903Zm.658 24.23V29.638h28.415v7.007a.657.657 0 0 0 .952.588l9.134-4.564v16.849L55.93 44.93a.658.658 0 0 0-.953.588v7.033H26.561Z" class="-path--primary" fill="#083176"/>
</svg>
