<svg id="icon-platform-voice-unified-communications" viewBox="0 0 96 96" xmlns="http://www.w3.org/2000/svg">
  <path fill-rule="evenodd" d="M22.3 28.1c-4.1 0-7.4 3.3-7.4 7.3v2.8c0 4.1 3.3 7.3 7.4 7.3 1.3 0 2.3-1 2.3-2.3V30.4c0-1.3-1-2.3-2.3-2.3Zm54.6 0c-1.4 0-2.5 1.1-2.5 2.4v12.6c0 1.4 1.1 2.4 2.5 2.4 4.2 0 7.6-3.4 7.6-7.5v-2.4c-.1-4.2-3.4-7.5-7.6-7.5ZM48.5 66.7c-2.6 0-4.7-2.1-4.7-4.6 0-2.6 2.1-4.6 4.7-4.6h2c2.3.2 4.1 2 4.3 4.3.2 2.6-1.7 4.8-4.3 5h-2v-.1Z" class="-path--shadow" fill="#38C6F4"/>
  <path fill-rule="evenodd" d="M47.6 1.3c-14.4 0-26 11.6-26 25.9v1.035a3.12 3.12 0 0 1 2.2 2.965v14c0 1.7-1.4 3.1-3.1 3.1-4.8 0-8.6-3.9-8.7-8.6v-3c0-4.569 3.685-8.287 8.3-8.583V27.2C20.3 12.2 32.5 0 47.6 0c15.1 0 27.3 12.2 27.3 27.2v1.002A8.748 8.748 0 0 1 83.5 37v2.6c0 4.9-4 8.8-8.8 8.8-.137 0-.273-.009-.406-.026-.877 5.17-3.03 9.142-6.194 11.826-3.203 2.717-7.536 4.21-12.45 4.479-.192 3.088-2.763 5.383-5.861 5.279H47.7c-3.055 0-5.658-2.486-5.658-5.658 0-3.163 2.495-5.658 5.658-5.658H50.224c2.681.1 4.921 2.11 5.36 4.734 4.686-.27 8.618-1.662 11.616-4.176 3.014-2.528 4.989-6.19 5.83-11.264-.97-.58-1.63-1.642-1.63-2.836V31.5c0-1.416.928-2.646 2.2-3.107V27.2c0-14.3-11.6-25.9-26-25.9ZM13.4 36.8c0-4 3.2-7.3 7.3-7.3 1 0 1.8.8 1.8 1.8v14c0 1-.8 1.8-1.8 1.8-4 0-7.3-3.3-7.3-7.3v-3Zm61.4-7.3c-1.1 0-2 .9-2 2v13.6c0 1.1.9 2 2 2 4.2 0 7.5-3.4 7.5-7.5V37c0-4.2-3.4-7.5-7.5-7.5ZM43.358 64.3c0-2.437 1.905-4.342 4.342-4.342H50.187c2.335.093 4.243 2.088 4.156 4.519-.087 2.43-2.075 4.253-4.52 4.166H47.7c-2.345 0-4.342-1.915-4.342-4.343Z" class="-path--primary" fill="#083176"/>
  <path fill-rule="evenodd" d="M55.3 74.4c.3.2.3.7.1.9l-.2.2c-4.3 4.1-11 4-15.2-.2-.3-.3-.2-.7 0-.9.3-.3.7-.2.9 0 3.6 3.7 9.6 3.8 13.3.2l.1-.1c.3-.3.8-.3 1-.1Zm-22.8 5.1c.3-.3.7-.2.9 0 7.7 7.8 20.3 8 28.2.4l.4-.4c.3-.3.7-.3.9 0 .3.3.3.7 0 .9l-.4.4c-8.4 8.1-21.8 8-30-.4-.3-.2-.3-.6 0-.9Zm37.1 6.6c.3-.3.2-.7 0-.9-.3-.3-.7-.2-.9 0l-.5.5C56.5 97 38 96.7 26.7 85.2c-.3-.3-.7-.3-.9 0-.3.3-.3.7 0 .9 11.7 12.1 31.1 12.3 43.2.6l.6-.6Z" class="-path--secondary" fill="#FF9E18"/>
</svg>
