<svg id="icon-business-business" viewBox="0 0 96 96" xmlns="http://www.w3.org/2000/svg">
  <path class="-path--shadow" fill="#38C6F4" d="M88.882 21.76H69.47c0-11.721-36.65-11.721-36.65 0H13.416c-2.517-.016-4.573 2.018-4.599 4.548v46.096c.015 2.538 2.074 4.583 4.598 4.569h75.467c2.514.026 4.577-1.994 4.618-4.522V26.308c-.022-2.535-2.084-4.571-4.605-4.549h-.013Z"/>
  <path class="-path--primary" fill="#083176" d="M63.308 25.918h-35.7v-9.344a3.053 3.053 0 0 1 1.585-2.684c.431-.236.925-.37 1.449-.37h29.632a3.044 3.044 0 0 1 3.034 3.054v9.344Zm-32.666-13.72a4.32 4.32 0 0 0-3.225 1.435 4.372 4.372 0 0 0-1.13 2.94v9.345H7.125a5.058 5.058 0 0 0-3.094 1.051 5.122 5.122 0 0 0-2.003 4.07v47.642a5.125 5.125 0 0 0 2.654 4.496.66.66 0 0 0 .577.271 5.064 5.064 0 0 0 1.866.354h76.66c.352 0 .696-.036 1.028-.104a5.116 5.116 0 0 0 4.069-5.017V31.04c0-2.825-2.28-5.122-5.097-5.122H64.63v-9.344c0-2.414-1.947-4.376-4.356-4.376H30.642Zm7.766 48.793-31.55 21.48c.088.006.177.01.267.01h76.66a3.786 3.786 0 0 0 3.776-3.8V37.306H3.35v41.375c0 1.409.76 2.636 1.89 3.293l32.403-22.06a1.73 1.73 0 0 1 2.41.37v.001l4.882 6.643a.401.401 0 0 0 .553.093l21.734-18.057a627.3 627.3 0 0 1-2.128-.113c-1.699-.093-3.57-.205-4.02-.272a.66.66 0 1 1 .194-1.307c.372.055 2.152.164 3.899.26.86.047 1.695.09 2.314.123l.745.037.28.014.655.032-.365 8.547a.66.66 0 0 1-1.32-.057l.255-5.968-21.6 17.944h-.047a1.723 1.723 0 0 1-2.213-.493l-4.88-6.642a.409.409 0 0 0-.572-.086l-.011.008ZM7.125 27.24h76.66c2.081 0 3.775 1.698 3.775 3.8v4.945H3.35V31.04a3.799 3.799 0 0 1 1.724-3.191 3.742 3.742 0 0 1 2.051-.61Z" fill-rule="evenodd"/>
</svg>
