<svg id="icon-devices-ip-phone" viewBox="0 0 96 96" xmlns="http://www.w3.org/2000/svg">
  <path fill-rule="evenodd" d="M59.185 8.627h24.832v5.962H94.33c.327 0 .592.265.592.591v60.518a.592.592 0 0 1-.592.591H84.017v7.626H59.185v-7.626H5.987a.592.592 0 0 1-.592-.591V15.18c0-.327.265-.592.592-.592h53.198V8.627Z" class="-path--shadow" fill="#38C6F4"/>
  <path fill-rule="evenodd" d="M55.472 11.428c0-.364.295-.658.658-.658h24.833c.363 0 .658.294.658.658v6.95h9.05c.363 0 .657.295.657.658v60.51a.658.658 0 0 1-.657.657h-9.05v6.512a.658.658 0 0 1-.658.657H56.13a.658.658 0 0 1-.658-.657v-6.512H2.33a.658.658 0 0 1-.658-.657V19.029c0-.363.295-.658.658-.658h53.143v-6.943Zm1.316 7.7a.668.668 0 0 0 0-.2v-6.843h23.517v73.972H56.788V19.128Zm-1.316.558H2.986v59.202h52.486V19.686Zm26.149 59.202V19.694h8.392v59.194h-8.392ZM7.893 22.864a.658.658 0 0 0-.658.658v11.04c0 .362.295.657.658.657h36.469a.658.658 0 0 0 .657-.658V23.522a.658.658 0 0 0-.657-.657H7.892Zm.658 11.04V24.18h35.153v9.724H8.551Zm-.658 19.718a.658.658 0 0 0-.658.657v7.55c0 .363.295.658.658.658h7.618a.658.658 0 0 0 .657-.658v-7.55a.658.658 0 0 0-.657-.657H7.893Zm.658 7.55v-6.235h6.302v6.235H8.55Zm13.36-6.893c0-.363.294-.657.658-.657h7.617c.363 0 .658.294.658.657v7.55a.658.658 0 0 1-.658.658H22.57a.658.658 0 0 1-.658-.658v-7.55Zm1.315.658v6.235h6.303v-6.235h-6.303Zm14.01-1.315a.658.658 0 0 0-.657.657v7.55c0 .363.295.658.658.658h7.617a.658.658 0 0 0 .658-.658v-7.55a.658.658 0 0 0-.657-.657h-7.618Zm.659 7.55v-6.235h6.302v6.235h-6.303ZM7.235 66.82c0-.363.295-.658.658-.658h7.618c.363 0 .657.295.657.658v7.55a.658.658 0 0 1-.657.657H7.893a.658.658 0 0 1-.658-.657v-7.55Zm1.316.657v6.235h6.302V67.48H8.55Zm14.018-1.315a.658.658 0 0 0-.658.658v7.55c0 .363.294.657.658.657h7.617a.658.658 0 0 0 .658-.657v-7.55a.658.658 0 0 0-.658-.658H22.57Zm.657 7.55V67.48h6.303v6.234h-6.303Zm13.353-6.892c0-.363.295-.658.658-.658h7.617c.364 0 .658.295.658.658v7.55a.658.658 0 0 1-.657.657h-7.618a.658.658 0 0 1-.658-.657v-7.55Zm1.316.657v6.235h6.302V67.48h-6.303ZM7.893 40.084a.658.658 0 0 0-.658.658v7.55c0 .363.295.657.658.657h7.618a.658.658 0 0 0 .657-.657v-7.55a.658.658 0 0 0-.657-.658H7.893Zm.658 7.55v-6.235h6.302v6.235H8.55Zm13.36-6.892c0-.364.294-.658.658-.658h7.617c.363 0 .658.294.658.658v7.55a.658.658 0 0 1-.658.657H22.57a.658.658 0 0 1-.658-.657v-7.55Zm1.315.657v6.235h6.303v-6.235h-6.303Zm14.01-1.315a.658.658 0 0 0-.657.658v7.55c0 .363.295.657.658.657h7.617a.658.658 0 0 0 .658-.657v-7.55a.658.658 0 0 0-.657-.658h-7.618Zm.659 7.55v-6.235h6.302v6.235h-6.303ZM23.812 25.838H22.29v6.883h1.523v-6.883Zm1.738 0h2.848a2.375 2.375 0 0 1 2.642 2.038c.011.105.011.21 0 .315a2.468 2.468 0 0 1-2.495 2.441H27.088v2.082H25.55v-6.876Zm2.745 3.504a1.066 1.066 0 0 0 1.198-.913l.001-.01a.621.621 0 0 0 0-.118c0-.674-.47-1.04-1.236-1.04H27.08v2.081h1.215Z" class="-path--primary" fill="#083176"/>
</svg>
