<svg id="icon-products-services" viewBox="0 0 96 96" xmlns="http://www.w3.org/2000/svg">
  <path fill-rule="evenodd" d="M38.986 1.46c-.27 0-.5.201-.535.47l-1.959 14.938a32.477 32.477 0 0 0-4.931 2.667l-14.623-6.09a.54.54 0 0 0-.673.227L5.96 31.336a.54.54 0 0 0 .137.699l11.53 8.884a31.632 31.632 0 0 0-.29 8.463l-12.06 9.112a.54.54 0 0 0-.142.7l10.23 17.704a.54.54 0 0 0 .673.229l13.677-5.641a32.012 32.012 0 0 0 6.662 3.94l1.935 14.695a.54.54 0 0 0 .534.47h20.494c.27 0 .499-.201.534-.47l1.918-14.554a31.846 31.846 0 0 0 6.55-3.774l13.829 5.764a.54.54 0 0 0 .673-.225l10.36-17.68a.54.54 0 0 0-.138-.702l-11.99-9.14c.142-1.202.217-2.412.226-3.622v-.006a32.917 32.917 0 0 0-.25-3.934l11.99-9.14a.54.54 0 0 0 .14-.697L82.977 14.714a.54.54 0 0 0-.672-.229l-14.226 5.857a32.16 32.16 0 0 0-6.106-3.475L60.03 1.93a.54.54 0 0 0-.534-.47h-20.51Zm10.173 20.465c13.37-.004 24.208 10.786 24.213 24.097.005 13.31-10.827 24.107-24.197 24.111-13.37.005-24.208-10.785-24.212-24.096-.005-13.31 10.827-24.107 24.196-24.111Z" class="-path--shadow" fill="#38C6F4"/>
  <path fill-rule="evenodd" d="M36.391 5.307a.658.658 0 0 0-.652.572l-1.95 14.854a32.326 32.326 0 0 0-4.845 2.61l-14.565-6.01a.658.658 0 0 0-.819.276L3.248 35.232a.658.658 0 0 0 .168.854l11.48 8.801a31.756 31.756 0 0 0-.286 8.358L2.602 62.357a.658.658 0 0 0-.171.853l10.23 17.704a.658.658 0 0 0 .82.28l13.615-5.624a32.12 32.12 0 0 0 6.57 3.886l1.927 14.63a.658.658 0 0 0 .651.572h20.494c.33 0 .609-.245.652-.573l1.9-14.493a31.855 31.855 0 0 0 6.5-3.715l13.758 5.738a.658.658 0 0 0 .821-.276l10.304-17.664a.658.658 0 0 0-.169-.854L78.57 53.708c.148-1.183.231-2.373.25-3.565v-.013a33.171 33.171 0 0 0-.243-3.872l11.935-9.098a.658.658 0 0 0 .171-.851L80.477 18.604a.658.658 0 0 0-.82-.28l-14.165 5.848a32.121 32.121 0 0 0-6.013-3.422L57.545 5.88a.658.658 0 0 0-.652-.573H36.39Zm-1.346 15.97 1.923-14.654h19.347l1.908 14.67c.03.232.182.43.398.52a30.808 30.808 0 0 1 6.39 3.636.658.658 0 0 0 .642.08l13.972-5.769 9.63 16.704-11.778 8.978a.658.658 0 0 0-.253.61 31.85 31.85 0 0 1 .28 4.077 31.59 31.59 0 0 1-.288 3.782.657.657 0 0 0 .253.612l11.776 8.991-9.722 16.665-13.574-5.66a.658.658 0 0 0-.65.082 30.536 30.536 0 0 1-6.861 3.921.658.658 0 0 0-.402.523L56.16 93.342H36.82l-1.899-14.427a.658.658 0 0 0-.394-.519 30.812 30.812 0 0 1-6.925-4.097.658.658 0 0 0-.657-.09l-13.435 5.549L3.86 63.054 15.7 54.069a.658.658 0 0 0 .256-.596 30.436 30.436 0 0 1 .304-8.748.658.658 0 0 0-.248-.64l-11.336-8.69 9.73-16.628 14.36 5.925c.203.083.434.06.616-.062a31.012 31.012 0 0 1 5.265-2.832.658.658 0 0 0 .398-.521Zm30.839 43.72c5.067-6.07 7.075-14.475 4.616-22.595-3.11-10.266-12.602-17.296-23.372-17.303-13.494.009-24.422 10.91-24.413 24.343a24.257 24.257 0 0 0 6.809 16.834 24.45 24.45 0 0 0 9.938 6.239v-13.05c-6.658-4.142-8.823-12.843-4.81-19.62a14.52 14.52 0 0 1 8.706-6.614l.83-.224v13.527h6.1V33.012l.832.228c7.733 2.12 12.28 10.085 10.15 17.793a14.475 14.475 0 0 1-6.257 8.398v13.01a24.47 24.47 0 0 0 10.871-7.444Zm-12.186 7.85v-14.16l.322-.19a13.163 13.163 0 0 0 5.982-7.814c1.858-6.722-1.873-13.665-8.399-15.917v13.083h-8.73V34.755a13.2 13.2 0 0 0-7.09 5.76c-3.704 6.258-1.616 14.322 4.67 18.013l.324.19v14.188c2.025.542 4.154.83 6.35.83 2.277 0 4.48-.31 6.571-.89Zm13.175-6.982a25.477 25.477 0 0 0 5.999-16.455c0-14.165-11.529-25.642-25.744-25.642-14.216 0-25.744 11.477-25.744 25.642 0 6.912 2.745 13.184 7.209 17.795a25.71 25.71 0 0 0 11.343 6.837l.841.245v-.021c2.032.513 4.16.786 6.35.786 2.271 0 4.474-.293 6.571-.843v.021l.847-.254a25.631 25.631 0 0 0 12.328-8.111Z" class="-path--primary" fill="#083176"/>
</svg>
