<svg id="icon-places-hq-headquarters" viewBox="0 0 96 96" xmlns="http://www.w3.org/2000/svg">
  <path fill-rule="evenodd" d="M38.617 1.467a.533.533 0 0 0-.533.533v7.578h-8.041a.533.533 0 0 0-.533.533v23.715l-.674-3.04a.533.533 0 0 0-.116-1.054H8.07a.533.533 0 0 0-.532.533v57.572c0 .295.238.533.533.533H92a.533.533 0 0 0 .533-.533V30.265a.533.533 0 0 0-.533-.533H71.516V10.11a.533.533 0 0 0-.533-.533h-10.09V2a.533.533 0 0 0-.533-.533H38.617Z" class="-path--shadow" fill="#38C6F4"/>
  <path fill-rule="evenodd" d="M33.84 6.438a.66.66 0 0 0-.661.66v7.877h-8.386a.66.66 0 0 0-.66.66V34.76H3a.66.66 0 0 0-.66.66v58.057c0 .365.295.66.66.66h35.208c.05 0 .098-.005.145-.015h13.085c.047.01.095.016.145.016h35.216a.66.66 0 0 0 .66-.66V35.42a.66.66 0 0 0-.66-.661H66.46V15.636a.66.66 0 0 0-.66-.66h-8.387V7.097a.66.66 0 0 0-.66-.66H33.84Zm-.106 9.859c.035.005.07.008.106.008H56.75a.665.665 0 0 0 .105-.008h8.282V92.8H52.594V74.768a.66.66 0 0 0-.66-.66H39.392a.66.66 0 0 0-.66.66v18.033H25.452V16.297h8.281Zm22.356-1.322V7.76H34.5v7.216h21.59ZM24.132 92.816V36.081H3.661v56.735h20.471ZM66.46 36.081v56.735h19.68V36.081h-19.68ZM29.912 58.616a.66.66 0 0 0-.66.66v7.554c0 .365.296.66.66.66h7.97a.66.66 0 0 0 .66-.66v-7.553a.66.66 0 0 0-.66-.66h-7.97Zm.661 7.553v-6.231h6.648v6.23h-6.648Zm9.84-6.892a.66.66 0 0 1 .661-.66h8.337a.66.66 0 0 1 .66.66v7.553a.66.66 0 0 1-.66.66h-8.337a.66.66 0 0 1-.66-.66v-7.553Zm1.322.66v6.232h7.015v-6.231h-7.015Zm10.607-1.32a.66.66 0 0 0-.66.66v7.553c0 .365.295.66.66.66h8.337a.66.66 0 0 0 .66-.66v-7.553a.66.66 0 0 0-.66-.66h-8.337Zm.66 7.552v-6.231h7.016v6.23h-7.015Zm-23.75-24.485a.66.66 0 0 1 .66-.66h7.97a.66.66 0 0 1 .66.66v7.553a.66.66 0 0 1-.66.66h-7.97a.66.66 0 0 1-.66-.66v-7.553Zm1.321.66v6.232h6.648v-6.231h-6.648Zm10.501-1.32a.66.66 0 0 0-.66.66v7.553c0 .365.295.66.66.66h8.337a.66.66 0 0 0 .66-.66v-7.553a.66.66 0 0 0-.66-.66h-8.337Zm.66 7.552v-6.231h7.016v6.231h-7.015Zm9.947-6.892a.66.66 0 0 1 .66-.66h8.337a.66.66 0 0 1 .661.66v7.553a.66.66 0 0 1-.66.66h-8.337a.66.66 0 0 1-.66-.66v-7.553Zm1.322.66v6.232h7.015v-6.231h-7.015Zm-23.09-17.559a.66.66 0 0 0-.661.661V33c0 .365.296.66.66.66h7.97a.66.66 0 0 0 .66-.66v-7.553a.66.66 0 0 0-.66-.66h-7.97Zm.66 7.553v-6.231h6.648v6.231h-6.648Zm9.84-6.892a.66.66 0 0 1 .661-.66h8.337a.66.66 0 0 1 .66.66V33a.66.66 0 0 1-.66.66h-8.337a.66.66 0 0 1-.66-.66v-7.553Zm1.322.66v6.232h7.015v-6.231h-7.015Zm10.607-1.32a.66.66 0 0 0-.66.66V33c0 .365.295.66.66.66h8.337a.66.66 0 0 0 .66-.66v-7.553a.66.66 0 0 0-.66-.66h-8.337Zm.66 7.552v-6.231h7.016v6.231h-7.015Zm-12.95 43.09v16.847h11.221V75.428h-11.22Zm31.258-5.413a.66.66 0 0 1 .661-.66h7.814a.66.66 0 0 1 .66.66v6.576a.66.66 0 0 1-.66.66h-7.814a.66.66 0 0 1-.66-.66v-6.576Zm1.322.66v5.255h6.492v-5.254h-6.492Zm-.661-14.981a.66.66 0 0 0-.66.66v6.576c0 .365.295.661.66.661h7.814a.66.66 0 0 0 .66-.66v-6.576a.66.66 0 0 0-.66-.661h-7.814Zm.66 6.575v-5.254h6.493v5.255h-6.492Zm-1.32-20.691a.66.66 0 0 1 .66-.661h7.814a.66.66 0 0 1 .66.66v6.576a.66.66 0 0 1-.66.66h-7.814a.66.66 0 0 1-.66-.66v-6.575Zm1.32.66v5.255h6.493v-5.255h-6.492ZM9.354 70.015a.66.66 0 0 1 .66-.66h7.815a.66.66 0 0 1 .66.66v6.576a.66.66 0 0 1-.66.66h-7.814a.66.66 0 0 1-.661-.66v-6.576Zm1.322.66v5.255h6.492v-5.254h-6.493Zm-.661-14.981a.66.66 0 0 0-.661.66v6.576c0 .365.296.661.66.661h7.815a.66.66 0 0 0 .66-.66v-6.576a.66.66 0 0 0-.66-.661h-7.814Zm.66 6.575v-5.254h6.493v5.255h-6.493ZM9.354 41.579a.66.66 0 0 1 .66-.661h7.815a.66.66 0 0 1 .66.66v6.576a.66.66 0 0 1-.66.66h-7.814a.66.66 0 0 1-.661-.66v-6.575Zm1.322.66v5.255h6.492v-5.255h-6.493Z" class="-path--primary" fill="#083176"/>
</svg>
