<svg id="icon-business-trust-confidence" viewBox="0 0 96 96" xmlns="http://www.w3.org/2000/svg">
  <path d="m4.258 48.392 3.353 2.867 2.495-4.165 6.796 5.242 1.938-2.375 4.733 6.623s-2.934 4.367 0 5.88c2.935 1.514 2.23 0 2.23 0s-.055 6.533 4.88 6.137c.258.326 2.92 4.922 5.806 3.763.349.11 4.936 5.2 7.09 3.297a6.542 6.542 0 0 0 2.404-3.276s7.236 5.2 12.324 0c.509-.244 4.768-.736 6.183-4.943a7.606 7.606 0 0 0 5.395-5.901c.216.465 6.887.222 3.632-5.915.174.083 5.673-4.332 5.673-4.332l.837 2.25 6.727-5.124 2.914 2.867 5.576-2.867L84.454 17l-10.93 7.893 2.481 2.722-8.302 4.297L69 33.3s-6.274.389-10.686-1.388S41.16 33.3 41.16 33.3l-2.997 2.916L27.56 33.3l1.074-2.207-7.605-3.471 1.08-2.722-7.214-7.04L4.258 48.393Z" class="-path--shadow" fill="#38C6F4"/>
  <path d="M72.459 58.988c.09.14.185.292.28.456.416.725.697 1.452.774 2.16.24 2.197-1.458 3.558-5.213 3.663l-.185.005-13.092-7.549.657-1.14 12.768 7.363c2.928-.113 3.897-.918 3.757-2.199-.054-.5-.273-1.067-.607-1.647a7.634 7.634 0 0 0-.604-.896 135.646 135.646 0 0 0-23.888-15.583l-3.536.922c-.015.917-.44 1.936-1.5 2.879-1.07.95-2.691 1.71-4.95 2.236-3.728.867-5.546.11-5.419-1.865.026-.405.142-.816.318-1.224a3.82 3.82 0 0 1 .281-.552 53.238 53.238 0 0 1 4-6.92 72.245 72.245 0 0 1-9.074-2.184l.39-1.256a70.914 70.914 0 0 0 9.544 2.252 8.84 8.84 0 0 1 5.592-3.097c2.5-.447 5.024-.751 7.547-.91 2.922-.243 4.704-.033 6.91.652.296.092 1.62.527 2.002.645.673.209 1.29.377 1.954.528 2.035.464 3.668.373 4.91-.05.149-.05.275-.1.38-.145l-.7-1.281 7.299-4.546-1.08-2.443 11.248-7.47.283.791.113.32a1507.11 1507.11 0 0 1 1.47 4.144 1552.564 1552.564 0 0 1 3.748 10.74c1.461 4.244 2.652 7.787 3.487 10.399 1.699 5.316 1.71 5.356.86 5.636-.2.066-1.099.576-2.326 1.319l-.148.09a171.876 171.876 0 0 0-2.392 1.48l-.54.34-2.542-3.783-7.462 4.985-.636-1.165a28.975 28.975 0 0 1-.645.634c-.532.51-1.089 1.02-1.646 1.498-.326.279-.642.539-.948.776-.525.408-1.006.742-1.44.992Zm-.891-1.012c.416-.213.934-.56 1.523-1.018.288-.224.589-.47.9-.737a38.194 38.194 0 0 0 2.255-2.103l.775.758-9.934-18.187c-.163.076-.36.156-.59.233-1.47.5-3.35.606-5.624.088a27.15 27.15 0 0 1-2.05-.554c-.397-.123-1.721-.558-2.005-.646-2.047-.636-3.66-.826-6.423-.597a65.977 65.977 0 0 0-7.44.898 7.537 7.537 0 0 0-4.989 2.895 52.627 52.627 0 0 0-4.518 7.65c-.05.078-.135.233-.22.433a2.48 2.48 0 0 0-.214.788c-.054.838.809 1.197 3.807.5 2.06-.48 3.485-1.147 4.374-1.938.898-.798 1.132-1.573 1.042-2.191l-.005-.031-.17-.64 5.196-1.354.223.113a136.969 136.969 0 0 1 24.087 15.64ZM35.77 75.166l-.299.382h-.348a5.147 5.147 0 0 1-5.708-3.723c-2.884-.04-4.58-1.172-5.213-3.05a5.393 5.393 0 0 1-.234-2.246c-2.092-.323-3.363-1.283-3.884-2.698-.297-.805-.314-1.641-.168-2.418a3.55 3.55 0 0 1 .095-.397l.095-.188 2.217-3.046a3.464 3.464 0 0 1 2.195-1.5c2.053-.317 3.428.688 4.157 2.457.102.247.188.501.26.759l2.23-2.95.268-.039c3.26-.465 5.24.58 6.06 2.614.284.706.391 1.428.389 2.085 1.631.569 2.771 1.352 3.468 2.312.8 1.101.937 2.277.69 3.332a2.764 2.764 0 0 1-.119.393l-.006.011a5.148 5.148 0 0 1 3.444 2.345 4.38 4.38 0 0 1-.187 4.988l-3.081 4.142-.214.061c-2.722.783-4.59-.269-5.644-2.428a7.883 7.883 0 0 1-.463-1.198Zm1.033-1.323c.037.181.085.413.12.556.12.487.28.955.492 1.388.766 1.57 1.96 2.281 3.889 1.798l2.814-3.783a3.068 3.068 0 0 0 .127-3.501 3.84 3.84 0 0 0-2.731-1.778l.122-.872-4.833 6.192Zm.637-11.396-6.796 8.873a3.83 3.83 0 0 0 4.162 2.943l5.92-7.584c.01-.033.022-.075.034-.127.167-.713.074-1.505-.474-2.26-.53-.73-1.451-1.361-2.846-1.845Zm-12.105 3.794-.024.142c-.097.64-.077 1.337.137 1.973.457 1.357 1.703 2.168 4.16 2.155l6.952-9.077a4.332 4.332 0 0 0-.288-1.82c-.566-1.403-1.882-2.135-4.388-1.837l-2.824 3.737-.006-.005-3.719 4.732Zm-7.891-12.687.545-.417 3.624 4.742-1.045.798-3.454-4.519-1.143 2.093-7.469-4.957L5.96 55.08l-.54-.342a155.832 155.832 0 0 0-2.39-1.48l-.151-.092c-1.224-.741-2.12-1.25-2.323-1.316-.854-.277-.838-.337.855-5.64.835-2.615 2.026-6.162 3.488-10.409l.27-.782a1538.587 1538.587 0 0 1 4.95-14.116l.114-.32.282-.791 11.257 7.471-1.087 2.442 7.297 4.545-10.537 19.304Zm68.364-3.79 2.348 3.495.203-.127c.561-.35 1.129-.7 1.666-1.026l.15-.09c.952-.576 1.661-.99 2.124-1.23a15.023 15.023 0 0 0-.193-.777c-.217-.8-.567-1.951-1.037-3.423-.831-2.6-2.02-6.136-3.478-10.37l-.266-.775a1548.349 1548.349 0 0 0-4.778-13.623l-8.924 5.926.85 1.922L85.81 49.763Zm-1.285.398L73.65 30.882l-6.146 3.828 10.733 19.65 6.286-4.198ZM19.263 29.665l.856-1.921-8.93-5.927-.152.43a1683.998 1683.998 0 0 0-4.625 13.2l-.27.782c-1.459 4.239-2.647 7.777-3.478 10.38a86.303 86.303 0 0 0-1.035 3.426c-.087.32-.151.582-.193.778.464.238 1.173.652 2.124 1.228l.154.093a173.003 173.003 0 0 1 1.866 1.152l2.25-3.348 11.433-20.273Zm.823 1.217L9.203 50.18l6.302 4.182L26.233 34.71l-6.147-3.828Zm31.745 31.796 10.95 6.27c1.935-.036 3.04-.693 3.582-1.762.301-.593.39-1.224.361-1.723l-.002-.034 1.308-.14.007.099a4.71 4.71 0 0 1-.501 2.393c-.79 1.555-2.403 2.484-4.928 2.484h-.175L51.177 63.82l.654-1.141Zm-3.239 6.335 9.885 4.668c1.222.128 2.12-.433 2.795-1.502a5.766 5.766 0 0 0 .694-1.618l1.284.286a6.69 6.69 0 0 1-.866 2.035c-.943 1.494-2.334 2.335-4.177 2.091l-.195-.057-9.981-4.714.561-1.189Zm7.308 5.695 1.176.587c-.199.398-.61.952-1.284 1.497-1.63 1.32-3.933 1.828-6.992 1.078l-4.315-1.389.403-1.251 4.27 1.375c2.616.64 4.497.225 5.807-.835.3-.244.545-.504.737-.761.11-.147.174-.254.198-.301ZM23.408 58.526l-2.166 2.978c-.01.04-.021.091-.032.152-.106.563-.094 1.17.108 1.72.367.995 1.311 1.675 3.111 1.89l3.439-4.374a6.796 6.796 0 0 0-.048-.348 5.951 5.951 0 0 0-.36-1.304c-.518-1.256-1.36-1.871-2.7-1.666a2.157 2.157 0 0 0-1.352.952Z" class="-path--primary" fill="#083176"/>
</svg>
