<svg id="icon-places-branch-office" viewBox="0 0 96 96" xmlns="http://www.w3.org/2000/svg">
  <path fill-rule="evenodd" d="M6.038 2.426h56.427v47.052a6.946 6.946 0 0 0-.72-.037c-4.882 0-8.86 5.072-8.86 11.343 0 6.279 3.978 11.343 8.86 11.343.242 0 .482-.013.72-.038v3.518a4.329 4.329 0 0 1-2.25-.223l-2.53-.972a4.377 4.377 0 0 0-3.759.308l-1.838 1.07-4.954 2.738a4.688 4.688 0 0 0-2.376 4.1v3.644H6.038V2.426Z" class="-path--shadow" fill="#38C6F4"/>
  <path fill-rule="evenodd" d="M74.784 65.629c0-4.387 2.753-7.656 5.801-7.656 3.053 0 5.85 3.284 5.85 7.656 0 4.374-2.75 7.655-5.85 7.655-3.094 0-5.801-3.266-5.801-7.656Zm5.801-8.97c-4.062 0-7.117 4.184-7.117 8.97 0 4.781 3.003 8.97 7.117 8.97 4.11 0 7.166-4.19 7.166-8.97 0-4.784-3.109-8.97-7.166-8.97ZM75.21 77.642a2.503 2.503 0 0 1 2.177-.18l.003.001 1.847.705a3.81 3.81 0 0 0 2.71.001l1.924-.71v-.001a2.552 2.552 0 0 1 2.148.184l1.338.812 3.586 1.997.002.001a2.76 2.76 0 0 1 1.398 2.42v4.067a2.695 2.695 0 0 1-2.607 2.734l-10.619-.057c.041-.33-.026-.729-.13-1.166.087-.346.068-.723.043-1.227-.011-.216-.024-.454-.029-.724V83l-.5-2-1.114-1.5L77 79c-.001-.392-.526-.488-1.072-.586a7.232 7.232 0 0 0-.487-.18c-.218-.074-.437-.15-.625-.24a.45.45 0 0 1-.053-.09l.443-.26.003-.001Zm-.393.35c-.192-.093-.35-.204-.438-.349l-1.396-.223 1.559-.911a3.818 3.818 0 0 1 3.319-.274h.001l1.844.704a2.494 2.494 0 0 0 1.777 0l.006-.002 1.928-.713h.002a3.867 3.867 0 0 1 3.264.282l.012.008 1.324.803 3.573 1.99a4.075 4.075 0 0 1 2.066 3.572v4.043a4.01 4.01 0 0 1-3.89 4.066H77.507l.352-.489h.31c.636-.115.89-.436.946-.883l-.946-.005c.493-.434.72-.778.816-1.16-.042-.178-.09-.363-.14-.551-.16-.614-.332-1.272-.346-1.901v-4.5l-2-2.5c-.001-.276-.246-.447-.572-.586l-.004-.001c-.45-.081-.914-.165-1.108-.42ZM77.5 91c.27.059-.269-.01.008-.01L77.5 91Z" class="-path--secondary" fill="#FF9E18"/>
  <path fill-rule="evenodd" d="M1.343 7.594c0-.364.294-.658.657-.658h55.262c.363 0 .657.294.657.658v42.19a7.854 7.854 0 0 1 3.825-1c5.388 0 9.5 5.56 9.5 12 0 6.439-4.112 12-9.5 12-5.385 0-9.517-5.518-9.517-12 0-4.173 1.716-7.95 4.377-10.11V8.25H2.658v81.383h18.355V67.565c0-.363.295-.657.658-.657h16.904c.364 0 .658.294.658.657v22.069h5.05a5.204 5.204 0 0 1-.183-1.466v-5.54a5.345 5.345 0 0 1 2.709-4.672l.006-.004 4.948-2.735 1.832-1.066a5.034 5.034 0 0 1 4.324-.354h.002l2.527.972h.001a3.67 3.67 0 0 0 2.607 0l.006-.002 2.636-.972a5.027 5.027 0 0 1 4.259.372l1.817 1.05 4.883 2.724a5.354 5.354 0 0 1 2.698 4.672v5.55c.049 2.883-2.254 5.258-5.143 5.314H49.245a5.24 5.24 0 0 1-4.397-2.528H2a.658.658 0 0 1-.657-.658V7.594ZM39.137 48.75a.658.658 0 0 0-.658.658v9.366c0 .363.294.657.658.657h11.242a.658.658 0 0 0 .658-.657v-9.366a.658.658 0 0 0-.658-.658H39.137Zm.657 9.366v-8.05h9.928v8.05h-9.928ZM8.9 48.75a.658.658 0 0 0-.658.658v9.366c0 .363.294.657.658.657h10.738a.658.658 0 0 0 .657-.657v-9.366a.658.658 0 0 0-.657-.658H8.899Zm14.384.658c0-.364.294-.658.657-.658h11.243c.363 0 .658.294.658.658v9.366a.658.658 0 0 1-.658.657H23.94a.658.658 0 0 1-.657-.657v-9.366ZM8.899 32.474a.658.658 0 0 0-.658.658v9.366c0 .363.294.657.658.657h10.738a.658.658 0 0 0 .657-.657v-9.366a.658.658 0 0 0-.657-.658H8.899Zm14.384.658c0-.363.294-.658.657-.658h11.243c.363 0 .658.295.658.658v9.366a.658.658 0 0 1-.658.657H23.94a.658.658 0 0 1-.657-.657v-9.366Zm15.854-.658a.658.658 0 0 0-.658.658v9.366c0 .363.294.657.658.657h11.242a.658.658 0 0 0 .658-.657v-9.366a.658.658 0 0 0-.658-.658H39.137ZM8.24 16.847c0-.364.294-.658.658-.658h10.738c.363 0 .657.294.657.658v9.365a.658.658 0 0 1-.657.658H8.899a.658.658 0 0 1-.658-.658v-9.365Zm15.7-.658a.658.658 0 0 0-.658.658v9.365c0 .364.294.658.657.658h11.243a.658.658 0 0 0 .658-.658v-9.365a.658.658 0 0 0-.658-.658H23.94Zm14.538.658c0-.364.294-.658.658-.658h11.242c.364 0 .658.294.658.658v9.365a.658.658 0 0 1-.658.658H39.137a.658.658 0 0 1-.658-.658v-9.365Zm-16.15 72.592V68.223h15.589v21.216h-15.59ZM9.555 50.066v8.05h9.423v-8.05H9.556Zm15.042 8.05v-8.05h9.927v8.05h-9.927ZM9.556 33.79v8.051h9.423v-8.05H9.556Zm15.042 8.051v-8.05h9.927v8.05h-9.927Zm15.196-8.05v8.05h9.928v-8.05h-9.928ZM9.556 25.554v-8.05h9.423v8.05H9.556Zm15.042-8.05v8.05h9.927v-8.05h-9.927Zm15.196 8.05v-8.05h9.928v8.05h-9.928Zm21.95 24.543c-4.376 0-8.201 4.618-8.201 10.686 0 6.075 3.825 10.685 8.201 10.685 4.374 0 8.186-4.647 8.186-10.685s-3.812-10.686-8.186-10.686ZM57.45 75.026a3.719 3.719 0 0 0-3.193.262l-1.845 1.073-4.957 2.74a4.03 4.03 0 0 0-2.04 3.523V88.192c-.036 2.15 1.682 3.928 3.848 3.97h24.93a3.921 3.921 0 0 0 3.847-3.981V82.607a4.039 4.039 0 0 0-2.033-3.523l-4.887-2.726-1.822-1.053h-.002a3.71 3.71 0 0 0-3.143-.276l-2.633.97c-1.14.433-2.4.433-3.539 0l-.002-.001-2.528-.972h-.001Z" class="-path--primary" fill="#083176"/>
</svg>
