<svg id="icon-products-cloud-solutions" viewBox="0 0 96 96" xmlns="http://www.w3.org/2000/svg">
  <path fill-rule="evenodd" d="M30.665 62.833c0-.4.3-.7.7-.7.4 0 .7.3.7.6v6.1c0 .4-.3.7-.7.7h-6.8v15.8c0 .4-.3.7-.7.7-.4 0-.7-.3-.7-.7v-16.4c0-.4.3-.7.7-.7h6.8v-5.4Zm-12 .2c0-.4.3-.7.7-.7.4 0 .7.3.7.7v13.3c0 .3-.3.7-.7.7-.4 0-.7-.3-.7-.7v-13.3Zm21.2 0c0-.4.3-.7.7-.7.3 0 .6.3.7.7v9.5c0 .4-.3.7-.7.7-.4 0-.7-.3-.7-.7v-9.5Zm-3.3 18.7v-18.7c0-.4-.3-.7-.7-.7-.4 0-.7.3-.7.7v18.7c-1.7.3-3 1.8-3 3.6 0 2 1.6 3.6 3.6 3.6s3.6-1.6 3.6-3.6c.1-1.8-1.2-3.3-2.8-3.6Zm-.7 5.9c-1.3 0-2.3-1-2.3-2.3 0-1.3 1-2.3 2.3-2.3 1.3 0 2.3 1 2.3 2.3 0 1.3-1 2.3-2.3 2.3Z" class="-path--secondary" fill="#FF9E18"/>
  <path d="M80.365 29.333c-1.4 0-2.7.2-4 .6-.4-13-11.1-23.2-24-22.8-9.7.2-18.2 6.4-21.4 15.5-9.6-3.2-19.8 2.1-23 11.7-3.1 9.6 2.1 19.9 11.6 23.1 1.8.6 3.7.9 5.7.9h55.1c8 0 14.4-6.5 14.4-14.5.1-8-6.4-14.5-14.4-14.5Z" class="-path--shadow" fill="#38C6F4"/>
  <path d="M75.565 63.133h-55.4c-2 0-4.1-.3-6-1-9.9-3.3-15.2-14.1-12-24 1.6-4.8 5-8.7 9.5-11 4.3-2.2 9.2-2.6 13.8-1.2 3.5-9 12.1-15.2 21.8-15.5 6.4-.2 12.5 2.2 17.2 6.6 4.5 4.2 7.1 9.9 7.5 16.1 1.1-.2 2.1-.4 3.2-.4H76.065c8.3.2 14.9 7.1 14.8 15.5-.1 4.1-1.7 7.8-4.7 10.6s-6.7 4.3-10.6 4.3Zm-55.5-1.3h55.1c3.7.1 7.2-1.3 9.8-3.8 2.7-2.6 4.2-6 4.3-9.7.2-7.6-5.9-14-13.5-14.2h-.7c-1.3 0-2.6.2-3.8.5-.2.1-.4 0-.6-.1-.2-.1-.3-.3-.3-.5-.2-6.1-2.7-11.8-7.1-16-4.2-4.2-10-6.4-16.1-6.2-9.3.3-17.7 6.4-20.8 15.2-.1.3-.5.5-.8.4-4.4-1.5-9.2-1.1-13.4 1-4.2 2-7.3 5.7-8.8 10.2-3.1 9.2 1.9 19.2 11.1 22.3 1.8.6 3.7.9 5.6.9Z" class="-path--primary" fill="#083176"/>
</svg>
