<svg id="icon-products-cce-dynamic-connections" viewBox="0 0 96 96" xmlns="http://www.w3.org/2000/svg">
  <path d="M82.57 37.06c-1.182 0-2.284.157-3.387.472-.473-10.476-9.452-18.588-20.006-18.116-7.64.394-14.335 5.199-17.013 12.366a15.465 15.465 0 0 0-4.647-.709c-7.089 0-12.996 5.041-14.335 11.657h28.04l7.246-7.404a.602.602 0 0 1 .394-.157H62.8c.236-1.733 1.733-3.15 3.544-3.15a3.53 3.53 0 0 1 3.545 3.544 3.53 3.53 0 0 1-3.544 3.544c-1.733 0-3.23-1.26-3.545-2.914h-3.702l-7.167 7.325 3.387 4.962h10.554c.315-1.654 1.811-2.836 3.466-2.836a3.53 3.53 0 0 1 3.544 3.545 3.53 3.53 0 0 1-3.544 3.544 3.528 3.528 0 0 1-3.545-3.23H55.16a.433.433 0 0 1-.394-.236l-3.859-5.513h-7.561l3.623 5.986a3.68 3.68 0 0 1 1.339-.236 3.53 3.53 0 0 1 3.544 3.544 3.53 3.53 0 0 1-3.544 3.544 3.53 3.53 0 0 1-3.545-3.544c0-1.102.552-2.127 1.34-2.757l-4.017-6.537H23.104c-.08.63-.158 1.181-.158 1.812 0 .945.079 1.811.236 2.756a14.27 14.27 0 0 1 4.49-.945c7.325-.236 13.39 5.514 13.626 12.76h.394a7.77 7.77 0 0 1 1.89-.236h.473c.63 0 1.181.078 1.732.236h36.625c6.38 0 11.578-5.12 11.578-11.5.08-6.38-5.04-11.578-11.42-11.578Z" class="-path--shadow" fill="#38C6F4"/>
  <path fill-rule="evenodd" d="M39.159 34.686c3.5-9.589 13.998-14.607 23.658-11.184h.002c7.145 2.509 12.013 9.2 12.241 16.806l.025.85.816-.238c5.875-1.71 12.125 1.713 13.835 7.586 1.709 5.87-1.71 12.044-7.585 13.756a11.337 11.337 0 0 1-3.126.447H50.603a8.73 8.73 0 0 0-6.334-2.99 1.725 1.725 0 0 0-.585-.082h-.023c-.552 0-1.12.036-1.677.14-.652-7.293-6.84-12.823-14.248-12.663h-.005a13.95 13.95 0 0 0-7.926 2.756c-.306-3.377.35-6.454 1.9-8.971 1.668-2.712 4.402-4.826 8.203-5.966a13.996 13.996 0 0 1 8.425.15l.607.203.219-.6Zm-20.527 16.16-.04.005c-.528-3.945.139-7.628 1.992-10.641 1.856-3.018 4.872-5.315 8.947-6.537h.001a15.295 15.295 0 0 1 8.615-.024c3.953-9.877 14.96-14.982 25.108-11.387 7.405 2.6 12.523 9.385 13.078 17.19 6.328-1.394 12.83 2.38 14.666 8.687 1.914 6.573-1.914 13.474-8.482 15.386h-.003c-1.159.332-2.322.499-3.489.499H51.552a8.681 8.681 0 0 1 1.194 4.721c-.17 4.846-4.247 8.675-9.097 8.511H12.392c-1.188 0-2.438-.253-3.502-.58l-.007-.003-.007-.002C3.1 74.746-.006 68.546 1.923 62.84c1.86-5.497 7.7-8.657 13.309-7.132a14.048 14.048 0 0 1 3.4-4.863Zm22.087 9.785c-.224-6.96-5.983-12.351-12.952-12.203-5.164.151-9.732 3.445-11.53 8.314l-.22.597-.604-.201c-5.085-1.695-10.546 1.104-12.244 6.124C1.477 68.266 4.195 73.72 9.284 75.42c.982.301 2.093.52 3.108.52H43.684c4.124.145 7.602-3.113 7.747-7.242.145-4.123-3.11-7.596-7.31-7.668l-.148-.003-.134-.067h-.002a1.345 1.345 0 0 0-.176-.009c-.75 0-1.46.076-2.077.281l-.836.28-.029-.882Z" class="-path--primary" fill="#083176"/>
</svg>
