<svg id="icon-products-data" viewBox="0 0 96 96" xmlns="http://www.w3.org/2000/svg">
  <path fill-rule="evenodd" d="M92.907 44.958c0 23.907-19.46 43.287-43.464 43.287-24.004 0-43.464-19.38-43.464-43.287S25.44 1.671 49.443 1.671c24.004 0 43.464 19.38 43.464 43.287Zm-21.2-5.385a3.781 3.781 0 0 1-3.789 3.774 3.787 3.787 0 0 1-3.706-2.985.655.655 0 0 1-.107.008h-5.13l-8.897 9.092 4.225 6.094H67.91c.04 0 .08.004.12.01a3.788 3.788 0 0 1 3.677-2.863c2.093 0 3.79 1.69 3.79 3.774a3.781 3.781 0 0 1-3.79 3.773 3.784 3.784 0 0 1-3.768-3.38l-.03.001H53.96a.658.658 0 0 1-.54-.283l-4.752-6.853h-9.329l4.507 7.343a.658.658 0 0 1-.024.724 3.787 3.787 0 0 1 1.66-.38c2.093 0 3.789 1.69 3.789 3.774a3.781 3.781 0 0 1-3.79 3.774 3.781 3.781 0 0 1-3.788-3.774c0-1.296.656-2.44 1.655-3.12a.658.658 0 0 1-.623-.31l-4.929-8.031H18.841a.658.658 0 0 1 0-1.315h30.06a.66.66 0 0 1 .208 0h.149l8.97-9.167a.657.657 0 0 1 .47-.198h5.407l.06.003a3.785 3.785 0 0 1 3.753-3.259c2.093 0 3.79 1.69 3.79 3.774Z" class="-path--shadow" fill="#38C6F4"/>
  <path fill-rule="evenodd" d="M47.215 7.755c-23.644 0-42.807 19.088-42.807 42.63 0 23.54 19.163 42.629 42.806 42.629 23.644 0 42.807-19.088 42.807-42.63 0-23.54-19.163-42.629-42.806-42.629ZM3.093 50.385C3.093 26.112 22.85 6.44 47.214 6.44c24.365 0 44.122 19.672 44.122 43.945 0 24.272-19.757 43.944-44.121 43.944-24.366 0-44.122-19.672-44.122-43.944Z" class="-path--primary" fill="#083176"/>
  <path fill-rule="evenodd" d="M67.818 35.939a3.124 3.124 0 0 0-3.132 3.116c0 1.719 1.4 3.116 3.132 3.116a3.124 3.124 0 0 0 3.131-3.116c0-1.718-1.4-3.116-3.131-3.116Zm-4.447 3.116c0-2.45 1.994-4.431 4.447-4.431a4.439 4.439 0 0 1 4.447 4.431 4.439 4.439 0 0 1-4.447 4.431c-2.453 0-4.447-1.98-4.447-4.43ZM45.654 57.603a3.124 3.124 0 0 0-3.131 3.117c0 1.718 1.4 3.116 3.131 3.116a3.124 3.124 0 0 0 3.132-3.116c0-1.719-1.4-3.117-3.132-3.117Zm-4.447 3.117c0-2.45 1.994-4.432 4.447-4.432 2.453 0 4.447 1.982 4.447 4.432s-1.993 4.431-4.447 4.431c-2.453 0-4.447-1.981-4.447-4.431Zm27.268-3.774c0-1.719 1.4-3.116 3.132-3.116a3.124 3.124 0 0 1 3.131 3.116c0 1.718-1.4 3.116-3.131 3.116a3.124 3.124 0 0 1-3.132-3.116Zm3.132-4.431c-2.454 0-4.447 1.981-4.447 4.43a4.439 4.439 0 0 0 4.447 4.432 4.439 4.439 0 0 0 4.447-4.431c0-2.45-1.994-4.431-4.447-4.431Z" class="-path--secondary" fill="#FF9E18"/>
</svg>
