<svg id="icon-people-support" viewBox="0 0 96 96" xmlns="http://www.w3.org/2000/svg">
  <path fill-rule="evenodd" d="M31.5 25.1c0 12.7 8.5 23.1 18.9 23.1 8.762 0 16.175-7.31 18.293-17.267 3.022-.794 5.072-3.739 4.707-6.933l-.2-2a6.584 6.584 0 0 0-5.246-5.526C65.18 7.973 58.42 2 50.5 2c-10.4 0-19 10.3-19 23.1Zm13.2 20.6c-2.4.1-4.5-1.8-4.6-4.2-.1-2.4 1.8-4.4 4.2-4.5l1.9-.1c2.4-.1 4.5 1.8 4.6 4.2.1 2.4-1.8 4.5-4.2 4.6h-1.9Zm31.9 43.4H24.9c-5.6.1-10.3-4.4-10.4-10v-9.8c0-3.7 2.1-7.1 5.4-8.8L30 55.3l3.6-1.9c2.6-1.4 5.7-1.6 8.5-.7l5 1.7c2.3.8 4.8.8 7.1 0l4.8-1.7c2.8-1 6-.8 8.6.7l3.6 1.9 10.2 5.2c3.3 1.7 5.5 5.1 5.5 8.8v9.8c0 5.6-4.7 10.1-10.3 10Z" class="-path--shadow" fill="#38C6F4"/>
  <path fill-rule="evenodd" d="M45 53.2c-10.5 0-19.1-10.5-19.1-23.5S34.5 6.3 45 6.3c7.764 0 14.49 5.741 17.467 13.989.185-1.168 1.122-2.12 2.315-2.336l.013-.002.012-.002c3.876-.554 7.407 2.218 7.847 6.178v.008l.2 1.995a7.098 7.098 0 0 1-3.03 6.648c.365 4.946-2.634 8.244-8.524 9.422l-.104.02C57.811 48.832 51.805 53.2 45 53.2Zm16.915-12.51a27.15 27.15 0 0 0 2.06-8.18c.525.937 1.554 1.548 2.684 1.445h.008l.008-.002a6.963 6.963 0 0 0 1.867-.48c.005 3.655-2.203 6.083-6.627 7.217Zm-10.884.92-.165-.008-.042-.001-.024-.001-.1 1.3h.024a4.029 4.029 0 0 1-3.544 2.45h-.001l-1.983.087h-.002c-2.225.088-4.097-1.633-4.191-3.842l-.012-.26a4.016 4.016 0 0 1 3.862-3.92l1.985-.08h.002c2.226-.093 4.102 1.628 4.196 3.838.006.147.004.293-.005.436Zm1.316.03c.009-.172.01-.346.003-.522-.125-2.94-2.619-5.22-5.565-5.096L44.8 36.1c-2.942.119-5.236 2.59-5.12 5.526v.016l.01.257.017.017c.258 2.81 2.685 4.95 5.541 4.835h.003l1.985-.088a5.344 5.344 0 0 0 4.886-3.763h.678c1.642 0 4.228-.067 6.816-.423C56.395 48.24 51.04 52 45 52c-9.8 0-17.8-9.9-17.8-22.2 0-12.3 8-22.2 17.8-22.2s17.8 9.9 17.8 22.2c0 4.103-.89 7.94-2.44 11.23-2.962.56-6.169.628-8.014.61ZM19 94.7c-2.7 0-5.2-1-7.1-2.9C10 89.9 9 87.4 9 84.7V73.5c0-3.7 2-7 5.3-8.8l10.2-5.5 3.7-2.1c2.5-1.4 5.5-1.7 8.3-.7l5.5 2c1.9.7 4 .7 6 0l5.3-1.9c2.8-1 5.8-.8 8.4.7l3.8 2.1 10.3 5.5c3.3 1.7 5.3 5.1 5.3 8.8v11.1c0 5.5-4.5 10-10 10H19Zm14.1-37.5c-1.5 0-2.9.4-4.3 1.1L25 60.4l-10.2 5.5c-2.8 1.5-4.6 4.4-4.6 7.6v11.1c0 2.3.9 4.5 2.6 6.1 1.6 1.6 3.8 2.5 6.1 2.5H71c4.8 0 8.7-3.9 8.7-8.7v-11c0-3.2-1.8-6.1-4.6-7.6l-10.3-5.5-3.9-2.2c-2.2-1.2-4.9-1.5-7.3-.6l-5.3 1.9c-2.2.8-4.6.8-6.9 0l-5.5-2c-.208-.026-.43-.059-.662-.093-.659-.098-1.398-.207-2.138-.207Zm31.906-37.95c-.777.146-1.315.85-1.252 1.584l1.197 10.568c.15.772.85 1.306 1.582 1.244 3.129-.362 5.373-3.229 5.014-6.371l-.001-.01-.2-1.996c-.361-3.234-3.223-5.458-6.34-5.02Z" class="-path--primary" fill="#083176"/>
</svg>
