<svg id="icon-places-government-state-and-local" viewBox="0 0 96 96" xmlns="http://www.w3.org/2000/svg">
  <path fill-rule="evenodd" d="M87.9 76.074V33.415h-9.246C76.896 17.726 62.7 6.427 46.946 8.18c-13.33 1.482-23.851 11.96-25.34 25.236h-9.23v42.66h-6.1v8.14H94v-8.14h-6.1Zm-48.414 4.258v-11.34c0-3.51 2.857-6.354 6.38-6.354 3.523 0 6.38 2.845 6.38 6.354v11.34h-12.76Zm6.38-24.536c3.423 0 6.198-2.764 6.198-6.173 0-3.41-2.775-6.174-6.198-6.174-3.424 0-6.199 2.764-6.199 6.174 0 3.41 2.775 6.173 6.199 6.173Z" class="-path--shadow" fill="#38C6F4"/>
  <path fill-rule="evenodd" d="M34.419 23.269a7.932 7.932 0 0 1 5.64-.12c.015 2.328.008 4.378-.022 6.721a5.223 5.223 0 0 0-3.56-.495c-.743.236-1.086.692-1.456 1.182-.368.488-.762 1.011-1.605 1.386a7.76 7.76 0 0 1-4.525.128 11.994 11.994 0 0 1-1.832-.496v-7.818A5.36 5.36 0 0 0 30.98 25.1c.847-.124 1.383-.51 1.981-.942.415-.3.86-.62 1.458-.89Zm24.599 0a7.932 7.932 0 0 1 5.64-.12c.016 2.328.008 4.378-.015 6.721a5.207 5.207 0 0 0-3.552-.495c-.748.237-1.093.693-1.464 1.184-.369.488-.763 1.01-1.605 1.384a7.73 7.73 0 0 1-4.524.128 11.854 11.854 0 0 1-1.84-.496v-7.818a5.36 5.36 0 0 0 3.921 1.344c.85-.124 1.389-.513 1.99-.947.413-.297.856-.616 1.449-.885Z" class="-path--secondary" fill="#FF9E18"/>
  <path fill-rule="evenodd" d="M42.552 11.866c15.911-1.807 30.304 9.414 32.422 25.157h9.3v42.652h6.108v9.456H1.342v-9.456h6.1V37.023h9.338c1.786-13.25 12.39-23.638 25.772-25.157ZM75.13 38.339H72.02v41.336h10.938V38.339h-7.827Zm-4.426 0H21.02v41.336h17.809V68.992c0-3.875 3.153-7.012 7.037-7.012s7.037 3.137 7.037 7.012v10.683h17.802V38.339ZM40.144 79.675h11.444V68.992c0-3.144-2.56-5.696-5.722-5.696-3.163 0-5.722 2.552-5.722 5.696v10.683ZM2.657 80.99h86.41v6.826H2.657V80.99Zm13.967-42.651H8.758v41.336h10.947V38.339h-3.081ZM42.7 13.172c15.145-1.72 28.84 8.913 30.947 23.851h-8.324V25.91c.001-.9-.001-1.81-.007-2.765a.658.658 0 0 0-.437-.615 8.59 8.59 0 0 0-6.108.13l-.015.006-.01.005c-.658.299-1.162.662-1.577.962l-.256.183c-.46.322-.85.545-1.404.632a4.702 4.702 0 0 1-3.414-1.181.657.657 0 0 0-1.095.49v7.819c0 .278.175.526.436.62a12.51 12.51 0 0 0 1.914.517 8.387 8.387 0 0 0 4.882-.146.644.644 0 0 0 .057-.022c.998-.444 1.477-1.078 1.853-1.576l.013-.017c.36-.476.595-.77 1.106-.94a4.55 4.55 0 0 1 2.747.282V37.023H40.724V25.196c0-.67-.003-1.348-.007-2.052a.658.658 0 0 0-.437-.615 8.59 8.59 0 0 0-6.132.14c-.665.3-1.17.666-1.587.967l-.25.18c-.46.322-.848.545-1.401.63a4.702 4.702 0 0 1-3.414-1.18.658.658 0 0 0-1.095.49v7.819c0 .278.175.526.436.62.621.221 1.258.394 1.907.517a8.417 8.417 0 0 0 4.881-.146.65.65 0 0 0 .058-.022c.999-.444 1.478-1.08 1.854-1.58l.01-.014c.36-.477.594-.77 1.1-.94a4.566 4.566 0 0 1 2.762.286v6.727h-21.3c1.774-12.567 11.864-22.405 24.591-23.85Zm-8.022 10.701c-.527.24-.909.514-1.316.807-.096.07-.195.14-.296.212-.53.372-1.124.733-1.99.86a6.022 6.022 0 0 1-3.36-.73v6.08a11.319 11.319 0 0 0 1.349.334 7.101 7.101 0 0 0 4.111-.106c.661-.301.967-.7 1.322-1.171l.017-.023c.367-.488.819-1.087 1.763-1.388a.705.705 0 0 1 .06-.016 5.883 5.883 0 0 1 3.052.152c.02-1.79.024-3.449.014-5.256a7.275 7.275 0 0 0-4.726.245Zm29.326-.245c.002.535.004 1.057.004 1.573v.706c0 .984-.006 1.959-.014 2.976a5.866 5.866 0 0 0-3.042-.151.647.647 0 0 0-.06.016c-.948.3-1.402.9-1.772 1.39l-.014.02c-.357.472-.662.87-1.324 1.172a7.071 7.071 0 0 1-4.11.107.702.702 0 0 0-.055-.013c-.44-.081-.875-.189-1.302-.322v-6.08a6.022 6.022 0 0 0 3.334.733l.012-.002.013-.001c.866-.127 1.462-.488 1.993-.86l.304-.216c.405-.292.785-.565 1.306-.803a7.276 7.276 0 0 1 4.727-.245ZM45.865 44.107c-3.063 0-5.541 2.472-5.541 5.516 0 3.043 2.478 5.516 5.541 5.516s5.541-2.473 5.541-5.516c0-3.044-2.478-5.516-5.54-5.516Zm-6.856 5.516c0-3.776 3.072-6.831 6.856-6.831s6.856 3.055 6.856 6.83c0 3.776-3.072 6.832-6.856 6.832s-6.856-3.056-6.856-6.831Zm6.848-3.497c.363 0 .658.294.658.658v2.654H48a.658.658 0 1 1 0 1.315h-2.142a.658.658 0 0 1-.657-.657v-3.312c0-.364.294-.658.657-.658Z" class="-path--primary" fill="#083176"/>
</svg>
