<svg id="icon-platform-voice-unified-communications" viewBox="0 0 96 96" xmlns="http://www.w3.org/2000/svg">
  <path class="-path--secondary" fill="#FF9E18" d="M40.48 76.32a.62.62 0 0 1 .88-.86 9.57 9.57 0 0 0 13.5.19v-.02l.03-.02c.05-.04.1-.08.13-.13a.62.62 0 0 1 .93.82l-.22.22h-.01a10.8 10.8 0 0 1-15.24-.2Zm-7.57 5.07a.62.62 0 0 1 .88-.86 20.18 20.18 0 0 0 28.44.39l.39-.4a.62.62 0 0 1 .88.87l-.4.4a21.41 21.41 0 0 1-30.2-.4Zm36.84 6.25-.04.04a30.93 30.93 0 0 1-43.6-.59.62.62 0 1 1 .87-.86 29.69 29.69 0 0 0 41.84.6l.05-.06.55-.54a.62.62 0 0 1 .89.86l-.56.55Z"/>
  <path class="-path--shadow" fill="#38C6F4" d="M22.64 28.66a2.3 2.3 0 0 1 2.31 2.3v12.97a2.3 2.3 0 0 1-2.3 2.3 7.4 7.4 0 0 1-7.43-7.4v-2.78a7.4 7.4 0 0 1 7.42-7.4Zm55.04 0c4.19 0 7.6 3.37 7.63 7.54v2.47c0 4.2-3.42 7.6-7.63 7.6a2.47 2.47 0 0 1-2.48-2.46V31.12c0-1.36 1.11-2.46 2.48-2.46ZM44.32 62.9v.02a4.7 4.7 0 0 1 4.7-4.69H51a4.7 4.7 0 0 1 0 9.34h-1.99c-2.59 0-4.7-2.09-4.7-4.67Z"/>
  <path class="-path--primary" fill="#083176" d="M56.2 64.18c9.65-.27 16.27-5.81 17.8-15.48a3.3 3.3 0 0 1-1.8-2.94v-13.7c0-1.43.9-2.65 2.17-3.1v-1.21A26.19 26.19 0 0 0 48.13 1.62a26.19 26.19 0 0 0-26.24 26.13v1.15a3.08 3.08 0 0 1 2.16 2.95v14.13c0 1.7-1.38 3.08-3.1 3.08a8.68 8.68 0 0 1-8.67-8.65v-3a8.68 8.68 0 0 1 8.37-8.65v-1.01A27.42 27.42 0 0 1 48.13.38 27.42 27.42 0 0 1 75.6 27.75v1c4.86.06 8.77 4 8.77 8.85v2.63a8.85 8.85 0 0 1-9.18 8.81c-1.66 10.17-8.76 16.07-18.91 16.37a5.68 5.68 0 0 1-5.9 5.44h-2.15a5.69 5.69 0 0 1-5.7-5.68v-.01a5.68 5.68 0 0 1 5.7-5.66h2.59a5.7 5.7 0 0 1 5.38 4.68Zm-1.22.23a4.46 4.46 0 0 0-4.6-3.68h-2.15a4.44 4.44 0 0 0-4.47 4.43c0 2.46 2 4.45 4.47 4.45h2.18a4.46 4.46 0 0 0 4.64-4.34.62.62 0 0 1-.07-.86Zm19.83-16.7c.04 0 .07.02.1.03.19.05.39.08.59.08 4.21 0 7.63-3.4 7.63-7.6V37.6c0-4.2-3.4-7.6-7.62-7.6h-.01c-1.15 0-2.07.91-2.07 2.05v13.71c0 .9.58 1.67 1.38 1.95ZM20.97 29.99h-.01a7.44 7.44 0 0 0-7.44 7.42v3c0 4.09 3.33 7.4 7.44 7.41 1.02 0 1.86-.82 1.86-1.84V31.85c0-1.02-.82-1.85-1.85-1.86Z"/>
</svg>
