<svg id="icon-platform-adaptive-networking" viewBox="0 0 96 96" xmlns="http://www.w3.org/2000/svg">
  <path fill-rule="evenodd" d="M76.123 30.275a13.85 13.85 0 0 1 3.75-.52h.27c.19-.002.38 0 .57.005 7.328.23 13.08 6.31 12.848 13.577-.231 7.268-6.36 12.974-13.688 12.744H58.271a9.13 9.13 0 0 0-2.398-2.93h6.397c3.795 0 6.87-3.052 6.87-6.815 0-3.763-3.075-6.814-6.87-6.814a6.8 6.8 0 0 0-1.934.275c-.16-6.16-5.323-11.026-11.534-10.869-4.671.119-8.782 3.089-10.329 7.462a8.838 8.838 0 0 0-7.932 1.248l-.616-.375a15.119 15.119 0 0 0-5.89 2.241 15.637 15.637 0 0 0-6.598 7.188 11.804 11.804 0 0 0-4.24-.312 16.385 16.385 0 0 1-.687-12.095c2.993-8.744 12.53-13.464 21.374-10.578 3.037-8.215 10.767-13.804 19.582-14.158 12.027-.482 22.171 8.797 22.657 20.726Zm-58.36 16.506.535-.371a14.91 14.91 0 0 0-.185.478 12.256 12.256 0 0 0-.35-.107Z" class="-path--shadow" fill="#38C6F4"/>
  <path fill-rule="evenodd" d="M43.622 68.88c.359 0 .65.288.65.642v9.768a.646.646 0 0 1-.65.642.646.646 0 0 1-.65-.642v-9.768c0-.354.29-.642.65-.642Zm-22.024.797a.646.646 0 0 1 .645.647l-.096 12.854a.646.646 0 0 1-.655.637.646.646 0 0 1-.645-.647l.096-12.854a.646.646 0 0 1 .655-.637Zm14.701 22.646c0-1.317 1.09-2.393 2.447-2.393s2.448 1.076 2.448 2.393c0 1.317-1.091 2.393-2.448 2.393-1.356 0-2.447-1.076-2.447-2.393Zm3.098-22.77V88.7c1.756.302 3.097 1.805 3.097 3.622 0 2.035-1.683 3.677-3.748 3.677C36.682 96 35 94.358 35 92.323c0-1.818 1.341-3.32 3.098-3.622V69.553c0-.355.29-.642.65-.642.359 0 .65.287.65.642Zm-4.748.274a.646.646 0 0 0-.651-.64c-.36 0-.65.289-.649.643l.014 5.136h-7.141a.646.646 0 0 0-.65.642v16.715c0 .354.29.642.65.642.359 0 .65-.288.65-.642V76.25h7.142a.655.655 0 0 0 .46-.189.639.639 0 0 0 .19-.455l-.015-5.779Z" class="-path--secondary" fill="#FF9E18"/>
  <path fill-rule="evenodd" d="M76.045 31.685c-1.04.002-2.077.12-3.09.35-.924-11.899-11.2-21.026-23.324-20.523-8.85.367-16.633 5.857-19.907 13.976-9.03-2.582-18.574 2.333-21.593 11.232l-.001.002a16.926 16.926 0 0 0-.125 10.362 12.303 12.303 0 0 0-5.648 6.77l-.002.005C.25 60.221 3.743 67.075 10.162 69.162l.11.036c1.242.4 2.54.604 3.845.604h35.539c5.434.052 9.877-4.274 9.931-9.657.003-.288-.003-.569-.02-.843h16.538C83.797 59.287 90.016 53.09 90 45.466c-.016-7.624-6.261-13.796-13.955-13.78ZM58.206 58.719a9.897 9.897 0 0 1 .081 1.413c-.047 4.68-3.91 8.432-8.621 8.386H14.117a11.23 11.23 0 0 1-3.443-.541l-.004-.002a13.15 13.15 0 0 1-.101-.032c-5.734-1.866-8.86-7.99-6.98-13.682 1.958-5.723 8.19-8.818 13.979-6.949a.652.652 0 0 0 .813-.39c1.675-4.545 6.098-7.778 10.961-8.825a9.314 9.314 0 0 0-1.897 3.224l-.002.006c-1.605 4.833 1.043 10.046 5.921 11.64l.078.025c.95.304 1.943.46 2.943.462h17.683c.04.035.084.065.133.09 1.47.754 2.483 1.616 3.133 2.653.448.715.74 1.541.872 2.521Zm1.201-.7h16.695c6.969-.015 12.612-5.632 12.598-12.552-.015-6.92-5.681-12.512-12.652-12.498a12.72 12.72 0 0 0-3.512.502.657.657 0 0 1-.562-.094.64.64 0 0 1-.27-.495c-.489-11.58-10.35-20.571-22.018-20.087-8.529.354-16.008 5.759-18.962 13.705a.652.652 0 0 1-.812.39c-8.519-2.756-17.689 1.81-20.548 10.237a15.656 15.656 0 0 0-.179 9.374 12.472 12.472 0 0 1 8.198-.584c2.135-5.05 7.307-8.426 12.7-9.264a.654.654 0 0 1 .598.221 9.495 9.495 0 0 1 8.048-1.605c1.78-4.31 5.97-7.2 10.706-7.321 6.306-.16 11.588 4.573 12.154 10.71.44-.079.885-.117 1.332-.116v.642l.001-.642c4.154 0 7.518 3.34 7.518 7.456 0 4.115-3.364 7.456-7.52 7.456H56.5c.798.599 1.446 1.28 1.94 2.068.47.75.787 1.579.967 2.496Zm.929-18.544c-.15-5.808-5.018-10.392-10.868-10.243-4.4.111-8.273 2.91-9.73 7.032a.652.652 0 0 1-.818.398c-4.235-1.379-8.803.879-10.242 5.068-1.381 4.164.902 8.647 5.095 10.017l.027.01.039.012h.002c.823.264 1.681.399 2.546.4H62.92c3.433 0 6.22-2.76 6.22-6.171 0-3.411-2.787-6.172-6.22-6.172h-.002a6.142 6.142 0 0 0-1.747.248.657.657 0 0 1-.568-.096.64.64 0 0 1-.267-.503Z" class="-path--primary" fill="#083176"/>
</svg>
