<svg id="icon-products-sd-wan-router-intelligent-routing" viewBox="0 0 96 96" xmlns="http://www.w3.org/2000/svg">
  <path d="M81.4 37.1h-.8c-1.2 0-2.5.2-3.7.5-.5-11.9-10.6-21.1-22.4-20.6-5.4.2-10.3 2.5-14 6.1 3.2 4.9 2.9 11.4-1.1 16-.7.8-1.4 1.5-2.3 2.1-.9.7-1.5 1.7-1.5 2.9h.8c.6 0 1 .5 1 1 0 .6-.5 1-1 1H21.7c-.6 0-1-.5-1-1 0-.6.5-1 1-1h.9c.2-2-1.9-3.7-1.9-3.7-1.4-1.3-2.5-2.8-3.3-4.4-2.5 2.8-4 6.5-4 10.5-.1 5.8 2.8 11 7.3 14h47.4c1.4 0 2.6 1.2 2.6 2.6v.2h9.9c7.2.2 13.2-5.4 13.4-12.6.2-7.3-5.4-13.4-12.6-13.6Z" class="-path--shadow" fill="#38C6F4"/>
  <path fill-rule="evenodd" d="M38.21 20.593c-5.222-4.582-13.148-4.04-17.706 1.211-4.557 5.252-4.019 13.223 1.2 17.807l.002.002.023.02.077.067a7.787 7.787 0 0 1 1.02 1.13c.422.576.88 1.383.989 2.306h11.753a4.081 4.081 0 0 1 1.714-2.78c.783-.566 1.5-1.22 2.134-1.952 3.424-3.946 3.972-9.427 1.818-13.853a.693.693 0 0 1-.136-.151.615.615 0 0 1-.104-.317 12.582 12.582 0 0 0-2.784-3.49l.383-.437-.383.437Zm-1.3 22.543a2.76 2.76 0 0 1 1.128-1.697l.012-.008a13.898 13.898 0 0 0 2.364-2.16c3.698-4.262 4.358-10.144 2.162-14.974 2.124-1.076 3.77-1.505 4.322-1.597h.1c1.2-.3 2.6-.5 3.9-.5 5.3-.2 10.3 1.7 14.2 5.4 3.8 3.6 6 8.6 6.2 13.9 0 .2.1.4.3.5.2.1.4.2.6.1 1.1-.3 2.2-.5 3.3-.5 6.4.2 11.5 5.3 11.7 11.8.2 6.6-5.1 12.1-11.7 12.3-.3 0-.6.3-.6.7 0 .3.3.6.7.6 7.4-.2 13.2-6.3 12.8-13.6-.1-7.2-5.9-12.9-13-13.1-1 0-1.9.1-2.9.3-.4-5.3-2.7-10.3-6.6-14-4.1-3.9-9.4-6-15.1-5.8-1.4.1-2.8.3-4.2.6h-.1a9.486 9.486 0 0 1-.444.128c-.8.218-2.308.629-4.085 1.59a13.909 13.909 0 0 0-2.887-3.519c-5.774-5.065-14.538-4.465-19.576 1.34-3.873 4.462-4.414 10.702-1.831 15.65a.633.633 0 0 0-.677.011s-.1 0-.6.5c-2.893 2.803-4.233 6.26-4.538 7.044-.032.084-.053.137-.062.156-1.4 4.3-.6 8.2 0 10.1.1.3.3.5.6.5 0 0 .1 0 .1-.1.3-.1.5-.5.4-.8-.5-1.8-1.3-5.3 0-9.3.019 0 .078-.138.182-.381.44-1.031 1.69-3.953 4.118-6.219.4-.3.5-.4.5-.4a.677.677 0 0 0 .303-.522 13.911 13.911 0 0 0 2.837 3.431l.007.007.007.005.002.002.012.01.055.048a6.455 6.455 0 0 1 .84.931c.337.46.618.987.718 1.524h-.238c-.943 0-1.704.765-1.704 1.706s.761 1.706 1.704 1.706h1.07c.067.858.492 2.93 2.797 6.052h1.47c.393.296 1.124.8 2.022.8.43-.086 1.01-.246 1.609-.8h1.199c-.018 0 .078-.129.246-.354.73-.98 2.818-3.782 2.801-5.698h1.575c.942 0 1.704-.765 1.704-1.706 0-.94-.762-1.706-1.704-1.706h-.12Zm-14.473 1.322-.001.007H36.867v-.007h.163a.383.383 0 0 1 0 .769H22.24a.383.383 0 0 1-.382-.385c0-.214.173-.384.383-.384h.196ZM60.1 59.8l-.1-11c0-.4.3-.7.7-.7.4 0 .7.3.7.7l.1 11h6.7c1.8 0 3.2 1.5 3.2 3.2v13.1c0 1.8-1.5 3.3-3.3 3.3H4.6c-1.8 0-3.2-1.5-3.2-3.2V63c0-1.8 1.4-3.2 3.2-3.2h55.5ZM2.7 63c0-1 .9-1.9 1.9-1.9h63.6c1 0 1.9.8 1.9 1.9v13.1c0 1-.9 1.9-1.9 1.9H4.6c-1 0-1.9-.8-1.9-1.9V63Zm11.2 6.6c-.1 1.2-1.1 2.2-2.3 2.2-1.2 0-2.2-1-2.2-2.2 0-1.2.9-2.3 2.2-2.3 1.2 0 2.3 1 2.3 2.3Zm4.6 2.2c1.2 0 2.2-1 2.3-2.2 0-1.3-1.1-2.3-2.3-2.3-1.3 0-2.2 1.1-2.2 2.3 0 1.2 1 2.2 2.2 2.2Zm9.1-2.2c0 1.2-1 2.2-2.3 2.2-1.2 0-2.2-1-2.2-2.2 0-1.2.9-2.3 2.2-2.3 1.3 0 2.3 1 2.3 2.3Z" class="-path--primary" fill="#083176"/>
</svg>
