<svg id="icon-products-lumen-adaptive-virtual-services" viewBox="0 0 96 96" xmlns="http://www.w3.org/2000/svg">
  <path fill-rule="evenodd" d="M94.33 25.7c0-1.5-1.3-2.8-2.8-2.8h-66.8c-1.6 0-2.8 1.3-2.8 2.8v47c0 1.5 1.3 2.8 2.8 2.8h66.8c1.6 0 2.8-1.3 2.8-2.8v-47Zm-45.775 1.9c.9 0 1.7-.8 1.7-1.7 0-.9-.8-1.7-1.7-1.7-.9 0-1.7.8-1.7 1.7 0 .9.8 1.7 1.7 1.7Z" class="-path--shadow" fill="#38C6F4"/>
  <path fill-rule="evenodd" d="M8.875 8.12a.66.66 0 0 1 .655-.58h4.4a.66.66 0 0 1 .657.583l.353 3c.114.053.22.11.314.164l.234.134.066.039 2.697-1.259a.66.66 0 0 1 .855.274l2.2 3.9a.66.66 0 0 1-.163.84l-2.192 1.755c.04.325.04.635.04.902v.395l2.433 1.802a.66.66 0 0 1 .182.856l-2.2 3.9a.66.66 0 0 1-.838.281l-2.646-1.146c-.338.242-.692.45-1.084.616l-.352 2.904a.66.66 0 0 1-.656.58h-4.4a.66.66 0 0 1-.655-.578l-.354-2.83a6.642 6.642 0 0 1-.983-.592l-2.645 1.146a.66.66 0 0 1-.838-.281l-2.2-3.9a.66.66 0 0 1 .173-.849l2.336-1.797a1.352 1.352 0 0 0-.06-.37.66.66 0 0 1-.034-.209c0-.206.033-.402.056-.542l.003-.017.007-.042-2.308-1.775a.66.66 0 0 1-.167-.86l2.3-3.9a.66.66 0 0 1 .825-.273l2.762 1.158c.268-.18.565-.353.872-.501l.355-2.928Zm1.24.74-.329 2.72a.66.66 0 0 1-.41.534 5.714 5.714 0 0 0-1.25.715.66.66 0 0 1-.651.08l-2.568-1.077-1.71 2.9 2.136 1.644a.66.66 0 0 1 .258.524c0 .206-.033.402-.056.542l-.003.017a3.59 3.59 0 0 0-.037.258c.096.358.096.7.096.953v.03a.66.66 0 0 1-.258.524l-2.146 1.65 1.627 2.883 2.454-1.063a.66.66 0 0 1 .675.09c.459.367.903.63 1.333.803a.66.66 0 0 1 .41.531l.328 2.621h3.231l.33-2.719a.66.66 0 0 1 .447-.547c.509-.17.941-.425 1.396-.789a.66.66 0 0 1 .675-.09l2.454 1.063 1.621-2.873-2.23-1.653a.66.66 0 0 1-.268-.531v-.7c0-.412-.003-.731-.08-1.04a.66.66 0 0 1 .228-.676l2.06-1.649-1.622-2.878L15.81 12.8a.66.66 0 0 1-.575-.008c-.152-.076-.321-.175-.464-.258l-.165-.095a1.892 1.892 0 0 0-.436-.197.66.66 0 0 1-.496-.564l-.331-2.816h-3.227Zm1.615 6.3c-1.409 0-2.539 1.178-2.539 2.64 0 1.423 1.096 2.55 2.558 2.64 1.4-.01 2.52-1.184 2.52-2.64 0-1.462-1.13-2.64-2.539-2.64ZM7.87 17.8c0-2.138 1.67-3.96 3.86-3.96 2.191 0 3.861 1.822 3.861 3.96s-1.67 3.96-3.86 3.96h-.037C9.564 21.64 7.87 19.97 7.87 17.8Zm40.66 9.7c.9 0 1.7-.8 1.7-1.7v-.061h36.6c2.178 0 3.961 1.809 3.961 4.061v46c0 2.252-1.783 4.06-3.96 4.06h-30v3.34h6c.9 0 1.7.8 1.7 1.7v1.3c0 .9-.8 1.7-1.7 1.7h-18c-.9 0-1.7-.8-1.7-1.7v-1.3c0-.9.8-1.7 1.7-1.7h6v-3.34H39.79v6.34a2.24 2.24 0 0 1-2.26 2.26H4.13A2.24 2.24 0 0 1 1.87 86.2v-3.425l.2-5.189a2.257 2.257 0 0 1 .557-1.486 2.25 2.25 0 0 1-.757-1.7v-3.526l.2-5.088c.008-1.186 1.028-2.147 2.26-2.147h5.705a1.583 1.583 0 0 0-.105.561c0 .269.072.528.196.76H4.33c-.563 0-.939.432-.939.84v.026l-.2 5.087V74.4c0 .535.404.94.94.94h33.405a.919.919 0 0 0 .934-.94v-8.5a.92.92 0 0 0-.94-.94H13.135c.124-.231.196-.491.196-.76 0-.194-.038-.383-.105-.56h3.644V29.8c0-.243 0-1.674 1.193-2.867a3.973 3.973 0 0 1 2.867-1.194h25.901v.061c0 .9.8 1.7 1.7 1.7ZM18.191 63.64h19.34a2.24 2.24 0 0 1 2.26 2.26v8.5c0 .63-.247 1.193-.651 1.6.404.407.651.97.651 1.6v.94h47.04c1.422 0 2.639-1.192 2.639-2.74V32.7H18.19v30.94Zm19.34 13.02h.005a.919.919 0 0 1 .934.94v8.6a.92.92 0 0 1-.94.94H4.13a.92.92 0 0 1-.939-.94v-3.387l.2-5.188V77.6c0-.533.4-.936.932-.94H37.53Z" class="-path--primary" fill="#083176"/>
  <path fill-rule="evenodd" d="M19.577 16.54a.65.65 0 0 0-.64.66c0 .365.287.66.64.66h28.316v5.53a2.414 2.414 0 0 0-1.645 2.26c0 1.265 1.06 2.36 2.284 2.36 1.224 0 2.284-1.095 2.284-2.36 0-1.136-.725-1.992-1.645-2.267V17.2a.65.65 0 0 0-.64-.66H19.578Zm27.95 9.11c0-.535.487-1.04 1.005-1.04.543 0 1.006.43 1.006 1.04 0 .535-.488 1.04-1.006 1.04s-1.006-.505-1.006-1.04ZM8.13 69.74a.776.776 0 0 0-.76.76c0 .433.38.76.76.76.434 0 .76-.38.76-.76s-.326-.76-.76-.76Zm-1.64.76c0-.82.674-1.64 1.64-1.64.967 0 1.64.82 1.64 1.64s-.673 1.64-1.64 1.64c-.819 0-1.64-.673-1.64-1.64Zm4.48 0c0-.38.327-.76.76-.76.434 0 .76.38.76.76s-.326.76-.76.76c-.457 0-.76-.303-.76-.76Zm.76-1.64c-.966 0-1.64.82-1.64 1.64 0 .943.697 1.64 1.64 1.64.967 0 1.64-.82 1.64-1.64s-.673-1.64-1.64-1.64Zm2.74 1.64c0-.38.327-.76.76-.76.434 0 .76.38.76.76s-.326.76-.76.76c-.457 0-.76-.303-.76-.76Zm.76-1.64c-.966 0-1.64.82-1.64 1.64 0 .943.697 1.64 1.64 1.64.967 0 1.64-.82 1.64-1.64s-.673-1.64-1.64-1.64Zm-.76 12.94c0-.38.327-.76.76-.76.457 0 .76.303.76.76 0 .38-.326.76-.76.76-.456 0-.76-.303-.76-.76Zm.76-1.64c-.966 0-1.64.82-1.64 1.64 0 .943.697 1.64 1.64 1.64.967 0 1.64-.82 1.64-1.64 0-.943-.697-1.64-1.64-1.64Zm-3.5.88a.776.776 0 0 0-.76.76c0 .457.303.76.76.76.434 0 .76-.38.76-.76 0-.457-.303-.76-.76-.76Zm-1.64.76c0-.82.674-1.64 1.64-1.64.944 0 1.64.697 1.64 1.64 0 .82-.673 1.64-1.64 1.64-.943 0-1.64-.697-1.64-1.64Zm-2.72 0c0-.38.327-.76.76-.76.457 0 .76.303.76.76 0 .38-.326.76-.76.76a.776.776 0 0 1-.76-.76Zm.76-1.64c-.966 0-1.64.82-1.64 1.64 0 .967.821 1.64 1.64 1.64.967 0 1.64-.82 1.64-1.64 0-.943-.696-1.64-1.64-1.64ZM11.527 28c.365-.002.662.276.664.62l.199 33.573a2.294 2.294 0 0 1 1.601 2.176c0 1.228-1.096 2.292-2.36 2.292-1.265 0-2.361-1.064-2.361-2.292 0-1.041.787-1.964 1.798-2.221l-.198-33.521c-.002-.344.292-.625.657-.627Zm.104 35.36c-.536 0-1.04.49-1.04 1.009 0 .52.504 1.009 1.04 1.009.535 0 1.039-.49 1.039-1.01 0-.544-.43-1.008-1.04-1.008Z" class="-path--secondary" fill="#FF9E18"/>
</svg>
