<svg id="icon-products-total-solution" viewBox="0 0 96 96" xmlns="http://www.w3.org/2000/svg">
  <path fill-rule="evenodd" d="M40.555 2.471a.529.529 0 0 0-.524.46l-1.92 14.725a30.305 30.305 0 0 0-4.816 2.626l-14.262-6.005a.529.529 0 0 0-.663.223L8.32 31.895a.529.529 0 0 0 .134.683l11.253 8.712a31.58 31.58 0 0 0-.283 8.322L7.646 58.65a.529.529 0 0 0-.136.682l9.977 17.437a.529.529 0 0 0 .662.225l13.343-5.554a30.915 30.915 0 0 0 6.504 3.864l1.88 14.479c.034.263.259.46.524.46h20.005c.265 0 .49-.196.524-.46L62.8 75.44a31.228 31.228 0 0 0 6.427-3.712l13.486 5.63a.529.529 0 0 0 .66-.224l10.052-17.346a.529.529 0 0 0-.134-.683l-11.666-9.027a30.52 30.52 0 0 0-.03-7.43l11.727-9.009a.529.529 0 0 0 .137-.682L83.473 15.52a.529.529 0 0 0-.662-.225l-13.874 5.771a31.265 31.265 0 0 0-5.94-3.408L61.084 2.932a.528.528 0 0 0-.524-.46H40.555ZM81.587 50.38l.037-.302-.037.302ZM69.47 71.542l-.244.184.244-.184Zm-6.952 4.016.282-.119-.282.12Zm-24.245-.133-.278-.12.278.12Zm-7.028-4.176.246.192-.246-.192ZM19.454 49.908l-.03-.296.03.296Zm.307-8.934a34.2 34.2 0 0 0-.055.316l.055-.316Zm13.295-20.53.239-.162-.24.162Zm5.335-2.908-.28.12.28-.12ZM26.869 46.37c0-13.117 10.575-23.746 23.615-23.746S74.1 33.253 74.1 46.37c0 13.113-10.572 23.739-23.608 23.739a.532.532 0 0 0-.092.008C37.4 70.07 26.87 59.46 26.87 46.37Z" class="-path--shadow" fill="#38C6F4"/>
  <path fill-rule="evenodd" d="M35.932 6.896a.66.66 0 0 1 .655-.575H56.6a.66.66 0 0 1 .655.576l1.895 14.65a31.016 31.016 0 0 1 5.838 3.357L78.8 19.162a.66.66 0 0 1 .826.282l9.987 17.445a.66.66 0 0 1-.172.852l-11.668 8.954c.157 1.265.235 2.539.234 3.813v.008a33.378 33.378 0 0 1-.228 3.492l11.623 8.98a.66.66 0 0 1 .168.854L79.52 81.23a.66.66 0 0 1-.828.278l-13.415-5.64a31.262 31.262 0 0 1-6.331 3.66l-1.854 14.263a.66.66 0 0 1-.655.576H36.432a.66.66 0 0 1-.655-.576l-1.87-14.406a31.346 31.346 0 0 1-6.403-3.803L14.24 81.107a.66.66 0 0 1-.827-.282L3.427 63.38a.66.66 0 0 1 .171-.852l11.72-8.988a33.283 33.283 0 0 1-.14-3.04v-.001c.003-1.725.145-3.446.425-5.147l-11.191-8.68a.66.66 0 0 1-.168-.853l10.052-17.396a.66.66 0 0 1 .828-.278l14.182 5.97a31.556 31.556 0 0 1 4.707-2.568l1.919-14.651Zm1.235.746L35.275 22.09a.66.66 0 0 1-.397.523 30.232 30.232 0 0 0-5.13 2.796.66.66 0 0 1-.627.062L15.15 19.589 5.677 35.98l11.05 8.57a.66.66 0 0 1 .245.638A30.56 30.56 0 0 0 16.5 50.5c0 1.094.056 2.186.168 3.273a.66.66 0 0 1-.255.592L4.86 63.225l9.41 16.438 13.082-5.449a.66.66 0 0 1 .663.091 30.028 30.028 0 0 0 6.758 4.016c.215.093.365.291.395.523l1.845 14.201h18.843l1.828-14.062a.66.66 0 0 1 .401-.525 29.942 29.942 0 0 0 6.695-3.871.66.66 0 0 1 .658-.085l13.23 5.562 9.47-16.383-11.464-8.858a.66.66 0 0 1-.251-.608c.16-1.23.248-2.47.264-3.712 0-1.342-.09-2.681-.272-4.01a.66.66 0 0 1 .253-.614l11.512-8.835-9.41-16.439-13.62 5.663a.66.66 0 0 1-.65-.081 29.697 29.697 0 0 0-6.215-3.574.66.66 0 0 1-.397-.524L56.019 7.642H37.167ZM62.11 35.107a21.67 21.67 0 0 0-21.993-5.648c-11.48 3.556-17.922 15.799-14.383 27.347 3.54 11.547 15.715 18.018 27.193 14.462 11.479-3.557 17.922-15.8 14.383-27.348a.66.66 0 1 1 1.263-.387c3.751 12.24-3.075 25.223-15.255 28.997-12.182 3.774-25.095-3.096-28.847-15.337-3.752-12.239 3.075-25.223 15.255-28.996a22.991 22.991 0 0 1 23.334 5.99.66.66 0 1 1-.95.92ZM44.353 62.774l26.684-29.68-.982-.883L44.35 60.8 33.713 49.03l-.98.886 11.62 12.857Z" class="-path--primary" fill="#083176"/>
</svg>
