<svg id="icon-products-screen-sharing" viewBox="0 0 96 96" xmlns="http://www.w3.org/2000/svg">
  <path fill-rule="evenodd" d="M6.813 30.648h34.238c1.32 0 2.33 1.087 2.33 2.33v23.446c0 1.32-1.01 2.329-2.33 2.329H6.813c-1.32 0-2.33-1.01-2.33-2.33V32.978c0-1.32 1.01-2.329 2.33-2.329Zm15.838 3.571c0-.31-.31-.62-.621-.62-.31 0-.699.31-.699.62s.388.7.699.7c.31 0 .621-.39.621-.7Zm-.621 20.03h6.366V38.258H15.431v9.471l-1.941-1.94V56.19h10.48l-1.94-1.941Zm69.64-23.6H57.356c-1.32 0-2.329 1.008-2.329 2.328v23.447c0 1.32 1.01 2.329 2.33 2.329H91.67c1.32 0 2.329-1.01 2.329-2.33V32.978c0-1.242-1.087-2.329-2.33-2.329ZM72.65 33.52c.31 0 .698.465.698.776 0 .31-.388.621-.698.621-.31 0-.699-.388-.699-.699 0-.31.31-.698.699-.698Zm13.12 5.357c1.01 0 1.786.776 1.786 1.785v14.208c0 1.01-.776 1.786-1.786 1.786H59.762a1.757 1.757 0 0 1-1.786-1.786V40.663c0-1.009.776-1.785 1.786-1.785H85.77Z" class="-path--shadow" fill="#38C6F4"/>
  <path fill-rule="evenodd" d="M39.188 32.045H4.873C3.32 32.045 2 33.288 2 34.84v23.447a2.866 2.866 0 0 0 2.873 2.873H20.4v1.708h-2.95c-.621 0-1.165.543-1.165 1.164v.155c0 .621.544 1.165 1.165 1.165h9.161c.621 0 1.165-.544 1.165-1.165v-.155c0-.621-.544-1.164-1.165-1.164h-2.95v-1.709h15.527a2.866 2.866 0 0 0 2.873-2.872V34.84c0-1.552-1.32-2.795-2.873-2.795ZM22.651 34.22a.53.53 0 0 1-.543.544.53.53 0 0 1-.543-.544.53.53 0 0 1 .543-.543.53.53 0 0 1 .543.543Zm16.537 25.854H4.873a1.757 1.757 0 0 1-1.786-1.786v-22.36h37.965v22.36c0 1.01-.855 1.786-1.864 1.786ZM15.741 37.558h12.19c.543 0 1.009.466 1.009.931v15.217c0 .544-.466 1.01-1.01 1.01h-4.736l1.165 1.164c.078.155.155.388.078.544-.078.155-.233.31-.466.31H13.49a.53.53 0 0 1-.544-.543V45.787c0-.233.156-.388.31-.465a.478.478 0 0 1 .544.077l.932.932v-7.764c0-.543.466-1.01 1.01-1.01Zm-1.785 9.471v8.696h8.695l-8.695-8.696Zm1.863.311 6.366 6.444h5.745V38.567H15.82v8.773Zm3.338 7.376h-3.726a.5.5 0 0 1-.466-.466v-3.727c0-.233.155-.388.31-.466a.478.478 0 0 1 .544.078l3.727 3.727c.077.155.155.388.077.543-.077.155-.233.31-.466.31Zm-1.242-1.01-1.94-1.94v1.94h1.94Zm37.577-21.66H89.73a2.92 2.92 0 0 1 2.95 2.795v23.446c0 1.63-1.32 2.873-2.872 2.873H74.28v1.708h2.95c.621 0 1.165.543 1.165 1.164v.156c0 .62-.543 1.164-1.165 1.164h-9.16c-.622 0-1.165-.543-1.165-1.165v-.155c0-.62.543-1.164 1.164-1.164h2.95V61.16H55.492a2.866 2.866 0 0 1-2.873-2.873V34.841c0-1.553 1.32-2.795 2.873-2.795Zm17.158 2.717a.53.53 0 0 0 .543-.544c0-.31-.31-.543-.543-.543a.53.53 0 0 0-.544.543c0 .311.233.544.544.544Zm-17.158 25.31H89.73c1.01 0 1.863-.777 1.94-1.786v-22.36H53.707v22.36c0 1.01.777 1.786 1.786 1.786Zm4.27-3.339h26.009c1.009 0 1.863-.776 1.863-1.863V40.663a1.89 1.89 0 0 0-1.863-1.863H59.762c-1.009 0-1.863.854-1.863 1.863v14.208c0 1.01.854 1.863 1.863 1.863Zm-.854-15.993c0-.466.238-.92.704-.92l.15-.012h26.009c.466 0 .854.389.854.854V54.95a.862.862 0 0 1-.854.854H59.762a.862.862 0 0 1-.854-.854V40.74Zm10.093 7.283 4.486 4.44h3.82v-7.608a.68.68 0 0 1 .001-.02V42.06h-8.307v5.963Zm5.585 5.527h2.955c.466 0 .854-.388.854-.931V41.828a.862.862 0 0 0-.854-.854h-8.695a.862.862 0 0 0-.854.854v5.197l-.466-.461c-.156-.078-.388-.156-.544-.078-.155.078-.31.233-.31.466v7.453c0 .31.233.544.543.544h7.53c.156 0 .311-.233.39-.389a.478.478 0 0 0-.079-.543l-.47-.466Zm-1.83-.359a.52.52 0 0 0 .33.33l.418.417h-5.746v-5.745l4.999 4.998Zm-4.066.36h2.64c.155 0 .31-.234.388-.389a.478.478 0 0 0-.078-.543L69 49.98c-.154-.078-.387-.155-.543-.078-.155.078-.31.233-.31.466v2.64c0 .31.233.543.543.543Zm1.398-1.01h-.932v-.932l.932.932Z" class="-path--primary" fill="#083176"/>
  <path d="M60.771 44.468c-.233-.233-.543-.233-.699 0-.232.232-.232.543 0 .698l1.476 1.398H31.114a.53.53 0 0 0-.544.543c0 .31.233.544.544.544h30.434l-1.398 1.397c-.233.233-.233.544 0 .699 0 .155.155.155.31.155.156 0 .234-.078.389-.155l2.717-2.64-2.795-2.64Z" class="-path--secondary" fill="#FF9E18"/>
</svg>
