<svg id="icon-business-finance" viewBox="0 0 96 96" xmlns="http://www.w3.org/2000/svg">
  <path fill-rule="evenodd" d="M88.242 19.348h-54.18L29.556 14h-16.61a1.688 1.688 0 0 0-1.574 1.778V27.08a1.713 1.713 0 0 0-.003.108H8.101c-.869 0-1.574.709-1.574 1.583l7.863 46.972c0 .874.705 1.582 1.574 1.582h69.259a1.585 1.585 0 0 0 1.574-1.582l7.864-46.972c0-.874-.705-1.583-1.575-1.583h-3.268c0-.036 0-.072-.002-.108v-5.955a1.688 1.688 0 0 0-1.574-1.777ZM46.734 69.81c7.4 0 13.398-6.031 13.398-13.47 0-7.44-5.999-13.47-13.398-13.47-7.4 0-13.397 6.03-13.397 13.47 0 7.439 5.998 13.47 13.397 13.47Z" class="-path--shadow" fill="#38C6F4"/>
  <path fill-rule="evenodd" d="M9.086 17.408a2.239 2.239 0 0 0-2.234 2.243v10.06c0 .327.07.64.197.921H4.235A2.24 2.24 0 0 0 2 32.876v.054l7.864 46.94a2.239 2.239 0 0 0 2.234 2.184h69.258a2.238 2.238 0 0 0 2.234-2.183l7.864-46.94v-.055a2.239 2.239 0 0 0-2.234-2.244h-2.8c.127-.281.197-.594.197-.922v-5.285a2.246 2.246 0 0 0-2.232-2.24H30.488l-4.499-4.777H9.086Zm-.913 2.243c0-.512.412-.922.913-.922h16.332l4.5 4.777H84.38a.925.925 0 0 1 .915.924v5.28a.917.917 0 0 1-.914.922H9.086a.918.918 0 0 1-.913-.922V19.651Zm3.011 60.105L3.324 32.828a.917.917 0 0 1 .912-.874H89.22c.485 0 .887.384.912.874l-7.863 46.928v.055a.917.917 0 0 1-.913.922H12.098a.918.918 0 0 1-.914-.922v-.055Zm35.55-36.226c-7.03 0-12.736 5.732-12.736 12.81 0 7.077 5.706 12.809 12.736 12.809 7.031 0 12.737-5.732 12.737-12.81 0-7.077-5.706-12.809-12.737-12.809ZM32.676 56.34c0-7.801 6.29-14.131 14.058-14.131s14.059 6.33 14.059 14.13c0 7.801-6.291 14.131-14.059 14.131-7.767 0-14.058-6.33-14.058-14.13Zm13.11 5.759v1.742l1.775-.03V61.94a3.518 3.518 0 0 0 3.256-3.404c0-1.618-.884-2.63-3.098-3.403-1.517-.593-2.156-1.07-2.156-1.583 0-.513.38-1.026 1.574-1.026a6.04 6.04 0 0 1 2.63.621l.532-2.074a6.496 6.496 0 0 0-2.652-.606v-1.62H45.85v1.742a3.381 3.381 0 0 0-3.083 3.288c0 1.785 1.33 2.703 3.285 3.368 1.358.455 1.94.86 1.94 1.597s-.711 1.142-1.754 1.142a6.444 6.444 0 0 1-3.018-.846l-.554 2.168a7.334 7.334 0 0 0 3.12.795Z" class="-path--primary" fill="#083176"/>
</svg>
