<svg id="icon-places-smart-cities" viewBox="0 0 96 96" xmlns="http://www.w3.org/2000/svg">
  <path fill-rule="evenodd" d="M76.939 12.665a.592.592 0 0 0-.592.592v4.824h-4.029a.592.592 0 0 0-.592.591v4.831h-3.688a.592.592 0 0 0-.592.592V37.34H52.214V24.095a.592.592 0 0 0-.592-.592H25.66a.592.592 0 0 0-.592.592v62.53c0 .326.265.591.592.591h42.044a.589.589 0 0 0 .668 0H94a.592.592 0 0 0 .592-.592V24.095a.592.592 0 0 0-.592-.592h-3.665v-4.83a.592.592 0 0 0-.592-.592H85.69v-4.824a.592.592 0 0 0-.591-.591h-8.16Zm11.076 10.838-.088-.09.238.09h-.15Zm-13.747-.233-.228.233h-.324l.552-.233Z" class="-path--shadow" fill="#38C6F4"/>
  <path fill-rule="evenodd" d="M21.128 7.657a.658.658 0 1 0-.06-1.314C9.687 6.87.875 16.463 1.36 27.803v.51a.658.658 0 0 0 1.316 0v-.538l-.001-.015C2.214 17.143 10.463 8.15 21.128 7.657Zm.463 5.15a.657.657 0 0 1-.626.686c-7.207.33-12.775 6.415-12.444 13.586v.385a.658.658 0 1 1-1.314 0v-.34C6.85 19.23 12.983 12.543 20.904 12.18a.658.658 0 0 1 .687.627Zm-.808 5.983a.658.658 0 0 1-.627.687c-3.348.155-5.933 2.98-5.782 6.31V25.992a.658.658 0 0 1-1.315 0v-.162c-.175-4.052 2.973-7.48 7.037-7.668a.658.658 0 0 1 .687.627Z" class="-path--secondary" fill="#FF9E18"/>
  <path fill-rule="evenodd" d="M71.561 14.24a.658.658 0 0 0-.657.657v4.743h-3.98a.658.658 0 0 0-.657.658v4.794h-3.63a.658.658 0 0 0-.657.658v13.18H46.894V25.75a.658.658 0 0 0-.657-.658H20.274a.658.658 0 0 0-.657.658v62.514c0 .364.294.658.657.658h9.12c.045.01.09.014.138.014h7.759a.66.66 0 0 0 .137-.014h3.75c.045.01.092.015.14.015h25.97a.658.658 0 0 0 .142-.015h4.03c.045.01.091.014.138.014h7.76a.66.66 0 0 0 .137-.014h9.12a.658.658 0 0 0 .657-.658V25.75a.658.658 0 0 0-.658-.658h-3.6v-4.794a.658.658 0 0 0-.657-.658h-3.979v-4.743a.658.658 0 0 0-.657-.657h-8.16Zm8.167 6.715h-.007a.658.658 0 0 1-.658-.657v-4.743H72.22v4.743a.658.658 0 0 1-.658.657h-3.979v4.696a.658.658 0 0 1-.65.756h-3.637V38.93h3.993c.364 0 .658.295.658.658v2.09h5.981c.364 0 .658.295.658.658v5.511a.658.658 0 0 1-.658.658h-5.981v6.235h5.981c.364 0 .658.294.658.658v5.51a.658.658 0 0 1-.658.658h-5.981v26.042h2.995V75.01c0-.363.294-.658.657-.658h7.76c.362 0 .657.295.657.658v12.596h7.942v-61.2h-3.6a.657.657 0 0 1-.658-.657v-4.795h-3.971Zm-7.472 66.652H78.7V75.668h-6.444v11.939Zm-5.625 0h-6.797a.658.658 0 0 0-.142.015h-.707V75.011a.658.658 0 0 0-.657-.658h-7.76a.658.658 0 0 0-.657.658v12.611h-.714a.658.658 0 0 0-.142-.015h-7.079V40.913a.655.655 0 0 0 .156-.425v-.243h24.499v47.362Zm-29.998 0H30.19V75.668h6.444v11.939Zm1.316 0V75.01a.658.658 0 0 0-.658-.658h-7.76a.658.658 0 0 0-.657.658v12.596h-7.942v-61.2h24.647V38.93h-3.447v-3.952a.658.658 0 0 0-.658-.657h-6.327a.658.658 0 0 0-.657.657v5.511c0 .364.294.658.657.658h5.514v5.422h-5.7a.658.658 0 0 0-.657.658v5.511c0 .363.295.658.658.658h5.7v4.61h-5.7a.658.658 0 0 0-.658.657v5.511c0 .363.295.658.658.658h5.7v22.776h-2.713Zm2.868-51.972v3.527a.655.655 0 0 0-.156.425v.244h-4.856v-4.196h5.012Zm5.746 22.118a.658.658 0 0 0-.657.658v5.511c0 .363.294.658.657.658h6.328a.658.658 0 0 0 .657-.658v-5.511a.658.658 0 0 0-.657-.658h-6.328Zm.658 5.511V59.07h5.012v4.195H47.22Zm7.542-4.853c0-.363.294-.658.657-.658h6.617c.363 0 .657.295.657.658v5.511a.658.658 0 0 1-.657.658H55.42a.658.658 0 0 1-.657-.658v-5.511Zm1.315.658v4.195h5.301V59.07h-5.301Zm-9.515-12.33a.658.658 0 0 0-.657.657v5.511c0 .363.294.658.657.658h6.328a.658.658 0 0 0 .657-.658v-5.511a.658.658 0 0 0-.657-.658h-6.328Zm.658 5.51v-4.196h5.012v4.197H47.22Zm7.542-4.853c0-.363.294-.658.657-.658h6.617c.363 0 .657.295.657.658v5.511a.658.658 0 0 1-.657.658H55.42a.658.658 0 0 1-.657-.658v-5.511Zm1.315.657v4.197h5.301v-4.197h-5.301Zm-4.852 39.568V75.668h6.444v11.953h-6.444ZM25.52 58.004a.658.658 0 0 0-.658.658v5.511c0 .363.294.658.658.658h6.327a.658.658 0 0 0 .658-.658v-5.511a.658.658 0 0 0-.658-.658H25.52Zm.657 5.512V59.32h5.013v4.196h-5.013Zm-1.315-16.29c0-.363.294-.658.658-.658h6.327c.363 0 .658.295.658.658v5.511a.658.658 0 0 1-.658.658H25.52a.658.658 0 0 1-.658-.658v-5.511Zm1.315.657v4.197h5.013v-4.197h-5.013Zm-.472-13.563a.658.658 0 0 0-.657.657v5.511c0 .364.294.658.657.658h6.328a.658.658 0 0 0 .657-.658v-5.51a.658.658 0 0 0-.657-.658h-6.328Zm.658 5.51v-4.195h5.012v4.196h-5.012Zm9.257 19.49v4.196h5.013V59.32h-5.013Zm0-7.24v-4.197h5.013v4.197h-5.013Zm40.766 3.317c0-.364.295-.658.658-.658h6.327c.363 0 .658.294.658.658v5.51a.658.658 0 0 1-.658.658h-6.327a.658.658 0 0 1-.658-.657v-5.511Zm1.316.657v4.196h5.012v-4.196H77.7Zm-.658-14.377a.658.658 0 0 0-.658.658v5.511c0 .364.295.658.658.658h6.327a.658.658 0 0 0 .658-.658v-5.51a.658.658 0 0 0-.658-.658h-6.327Zm.658 5.512v-4.196h5.012v4.196H77.7ZM76.2 30.087c0-.364.294-.658.657-.658h6.328c.364 0 .658.294.658.658v5.51a.658.658 0 0 1-.658.658h-6.328a.658.658 0 0 1-.657-.657v-5.511Zm1.315.657v4.196h5.013v-4.196h-5.013ZM68.258 60.25v-4.196h5.012v4.196h-5.012Zm0-17.257v4.196h5.012v-4.196h-5.012Zm-.844-13.564a.658.658 0 0 0-.657.658v5.51c0 .364.294.658.657.658h6.328a.658.658 0 0 0 .657-.657v-5.511a.658.658 0 0 0-.657-.658h-6.328Zm.658 5.511v-4.196h5.012v4.196h-5.012Z" class="-path--primary" fill="#083176"/>
</svg>
