<svg id="icon-products-end-user-remote" viewBox="0 0 96 96" xmlns="http://www.w3.org/2000/svg">
  <path fill-rule="evenodd" d="M53.711 58.503c7.618 6.433 17.417 7.564 22.738 2.264l-28.25-28.135c-5.648 5.626-3.993 16.403 3.67 24.165l-19.701 8.865h9.707l9.98 9.946 1.856-17.105Z" class="-path--shadow" fill="#38C6F4"/>
  <path fill-rule="evenodd" d="M45.73 32.045a.658.658 0 0 0-.928 0c-3.03 3.017-4.047 7.388-3.331 11.942.675 4.296 2.895 8.8 6.494 12.63L32.908 63.33H1.5a.658.658 0 1 0 0 1.315h41.04L62.043 84.09a.658.658 0 1 0 .929-.932L52.314 72.532l-2.264-13.91c3.68 3.194 7.897 5.182 11.933 5.817 4.566.719 8.95-.293 11.997-3.327a.658.658 0 0 0 0-.932l-9.566-9.527L70.678 36.2a.658.658 0 0 0-.853-.87L55.1 41.376l-9.369-9.33Zm8.74 10.56a.716.716 0 0 0 .021.022L72.57 60.631c-2.655 2.323-6.368 3.14-10.382 2.51-4.26-.671-8.81-2.974-12.624-6.766l-.012-.013c-3.81-3.794-6.114-8.332-6.781-12.58-.63-4.001.194-7.7 2.511-10.328l9.189 9.152Zm1.64-.222 12.718-5.222-5.415 12.495-7.303-7.273ZM36.202 63.301h6.617c.174 0 .341.07.465.192l7.43 7.401-2.133-13.111L36.202 63.3Z" class="-path--primary" fill="#083176"/>
  <path fill-rule="evenodd" d="M67.8 11.72a.658.658 0 0 0 0 1.315h.725c14.181.197 25.512 11.805 25.315 25.922a.658.658 0 1 0 1.315.018c.208-14.848-11.71-27.048-26.611-27.255H67.8Zm.03 8.359c0-.363.294-.658.657-.658h.488c10.332.142 18.6 8.594 18.469 18.89a.658.658 0 1 1-1.315-.016c.122-9.564-7.558-17.424-17.167-17.559h-.475a.658.658 0 0 1-.658-.657Zm2.18 7.115a.658.658 0 1 0 0 1.315h.232c4.526.064 8.14 3.767 8.082 8.268a.657.657 0 1 0 1.315.017c.068-5.234-4.134-9.529-9.383-9.6h-.245Zm.065 10.625a1.885 1.885 0 0 0 1.889-1.88c0-1.04-.846-1.882-1.889-1.882a1.885 1.885 0 0 0-1.889 1.881c0 1.039.846 1.881 1.89 1.881Z" class="-path--secondary" fill="#FF9E18"/>
</svg>
