<svg id="icon-devices-router" viewBox="0 0 96 96" xmlns="http://www.w3.org/2000/svg">
  <path fill-rule="evenodd" d="M94 48.443H7.14v21.961H94V48.443ZM59.894 66.897a2.926 2.926 0 0 0 2.945-2.8 2.947 2.947 0 0 0-2.952-2.92h-.056l-.06.002a2.805 2.805 0 0 0-2.689 2.917c0 1.547 1.26 2.8 2.812 2.8Zm11.647-2.8a2.933 2.933 0 0 1-2.945 2.8 2.806 2.806 0 0 1-2.812-2.8 2.805 2.805 0 0 1 2.749-2.92h.063a2.954 2.954 0 0 1 2.945 2.92Zm5.806 2.8a2.85 2.85 0 0 0 2.89-2.8v-.128a2.871 2.871 0 0 0-2.946-2.792h-.063l-.04.001h-.02a2.805 2.805 0 0 0-2.688 2.918c0 1.547 1.259 2.8 2.811 2.8h.056Z" class="-path--shadow" fill="#38C6F4"/>
  <path fill-rule="evenodd" d="M11.936 36.92c.363-.002.659.29.66.654l.078 13.861a.658.658 0 0 1-.35.585H75.65a.648.648 0 0 1-.008-.095l-.07-13.854a.658.658 0 0 1 1.315-.007l.07 13.855a.657.657 0 0 1-.007.102h11.912c.363 0 .657.294.657.657v22.844a.658.658 0 0 1-.657.657H2a.658.658 0 0 1-.658-.657V52.678c0-.363.295-.657.658-.657h9.709a.658.658 0 0 1-.35-.578l-.077-13.862a.658.658 0 0 1 .654-.661ZM2.657 53.336v21.528h85.547V53.336H2.657Z" class="-path--primary" fill="#083176"/>
  <path fill-rule="evenodd" d="M25.64 27.715c10.489-10.08 27.194-9.787 37.32.654a.657.657 0 1 1-.945.916c-9.62-9.92-25.493-10.2-35.459-.625l-.488.485a.658.658 0 1 1-.928-.931l.5-.498Zm31.506 5.477c-7.022-7.24-18.602-7.442-25.875-.456h-.002l-.01.01-.004.005-.339.33a.658.658 0 1 0 .918.942l.333-.325.01-.009c6.75-6.49 17.506-6.302 24.025.419a.657.657 0 1 0 .944-.916Zm-6.46 4.298c-3.579-3.676-9.468-3.77-13.163-.214a2.419 2.419 0 0 0-.209.21.658.658 0 1 0 .987.87c.031-.037.065-.07.101-.102l.012-.01.012-.012c3.173-3.063 8.24-2.985 11.317.175a.658.658 0 1 0 .942-.917Zm10.928 26.487a2.249 2.249 0 0 0-2.307-2.177h-.016l-.097.001a2.182 2.182 0 0 0-2.092 2.296c0 1.2.978 2.177 2.19 2.177h.063a2.227 2.227 0 0 0 2.26-2.182v-.115Zm-2.33-3.422a3.494 3.494 0 0 1 3.575 3.398V64.106a3.472 3.472 0 0 1-3.515 3.413h-.053a3.429 3.429 0 0 1-3.434-3.41 3.427 3.427 0 0 1 3.285-3.552h.002l.069-.002H59.284Zm9.168 1.245a2.249 2.249 0 0 1 2.308 2.177v.115a2.227 2.227 0 0 1-2.26 2.182h-.063a2.184 2.184 0 0 1-2.19-2.177v-.027A2.182 2.182 0 0 1 68.34 61.8l.098-.001h.015Zm3.553 2.153a3.494 3.494 0 0 0-3.575-3.398H68.358l-.045.001-.024.001h-.002a3.427 3.427 0 0 0-3.284 3.553 3.429 3.429 0 0 0 3.434 3.41h.052a3.472 3.472 0 0 0 3.516-3.414V63.953Zm5.447-2.154a2.249 2.249 0 0 1 2.308 2.178v.115a2.227 2.227 0 0 1-2.26 2.182h-.063a2.184 2.184 0 0 1-2.19-2.204A2.182 2.182 0 0 1 77.34 61.8l.098-.001h.015Zm3.553 2.154a3.494 3.494 0 0 0-3.575-3.398H77.322l-.033.002h-.002a3.427 3.427 0 0 0-3.284 3.553 3.429 3.429 0 0 0 3.434 3.41h.052a3.472 3.472 0 0 0 3.516-3.414V63.953Z" class="-path--secondary" fill="#FF9E18"/>
</svg>
