<svg id="icon-products-database" viewBox="0 0 96 96" xmlns="http://www.w3.org/2000/svg">
  <path fill-rule="evenodd" d="M13.66 19.437a6.56 6.56 0 0 1-.5-2.487c0-8.5 17.2-15.3 38.3-15.3 20.703 0 37.496 6.485 38.273 14.704l.128-.004v17.6a7.534 7.534 0 0 1-.1.72V73.65c-.8 8.6-16.9 15.5-39 15.5s-36.4-6.9-37.2-15.5v-43.3l.1.002V19.438Z" class="-path--shadow" fill="#38C6F4"/>
  <path fill-rule="evenodd" d="M9.26 26.1c4.73 6.65 19.438 11.35 37.3 11.35 18.26 0 33.222-4.91 37.6-11.795V38.55c-.7 8.5-17.4 15.4-37.4 15.4s-36.8-7-37.5-15.4V26.1Zm-1.283-2.55a7.182 7.182 0 0 1-.316-2.1c0-8.9 17.1-16 38.9-16 21.394 0 38.262 6.742 38.882 15.5h.018v37.7a8.507 8.507 0 0 1-.1.763V78.35c-.7 9.2-17.4 16-39.5 16-21.4 0-36.9-6.6-37.8-16V59.364a8.433 8.433 0 0 1-.1-.714v-35.1h.016Zm.984-2.1c0-8 16.8-14.6 37.6-14.6 20.7 0 37.6 6.6 37.6 14.6s-16.8 14.6-37.6 14.6c-20.7 0-37.6-6.5-37.6-14.6Zm37.8 33.7c-17.92 0-33.047-5.367-37.5-12.76v16.261c.801 8.4 16.9 14.799 37.5 14.799 20.035 0 35.719-6.054 37.3-14.205V56.45h.1V42.461c-4.425 7.357-19.452 12.689-37.4 12.689Zm-37.5 7.322c4.367 7.283 18.987 12.278 37.5 12.278 18.321 0 32.83-4.82 37.3-12.02v15.52c-.7 8.4-17.2 14.8-38.3 14.8-20.6 0-35.6-6.1-36.5-14.8V62.472Z" class="-path--primary" fill="#083176"/>
</svg>
