<svg id="icon-people-it-professional" viewBox="0 0 96 96" xmlns="http://www.w3.org/2000/svg">
  <path fill-rule="evenodd" d="M40 56.906V52.17c4.054-.846 7.144-5.23 7.144-10.512S44.053 31.993 40 31.147V3h41.82v70.644H60.477c-1.856-6.584-7.706-13.076-8.52-13.515l-4.805-2.559-1.784-1.005a4.316 4.316 0 0 0-3.64-.294L40 56.905Z" class="-path--shadow" fill="#38C6F4"/>
  <path fill-rule="evenodd" d="M36.66 6a.668.668 0 0 0-.66.675v24.59h1.321V7.35h17.805V65h1.321V6.675a.668.668 0 0 0-.66-.675H36.66Zm22.407.286a.66.66 0 0 0-.66.66V70h1.32V7.607h17.805v68.7a.66.66 0 1 0 1.322 0V6.947a.66.66 0 0 0-.661-.661H59.067Zm-17.897 7.82a1.109 1.109 0 1 1-2.222-.002 1.109 1.109 0 0 1 2.222.002Zm22.853 0a1.109 1.109 0 1 1-2.218-.002 1.109 1.109 0 0 1 2.218.002Zm2.149-.725a.66.66 0 0 0 0 1.322h8.286a.66.66 0 1 0 0-1.322h-8.286Zm0 11.345a.66.66 0 1 0 0 1.321h8.286a.66.66 0 0 0 0-1.321h-8.286Zm-.66 12.005a.66.66 0 0 1 .66-.66h8.286a.66.66 0 1 1 0 1.321h-8.286a.66.66 0 0 1-.66-.66Zm.66 10.684a.66.66 0 1 0 0 1.322h8.286a.66.66 0 1 0 0-1.322h-8.286Zm-.66 12.006a.66.66 0 0 1 .66-.66h8.286a.66.66 0 1 1 0 1.32h-8.286a.66.66 0 0 1-.66-.66Zm.66 10.684a.66.66 0 1 0 0 1.321h8.286a.66.66 0 1 0 0-1.321h-8.286Zm-3.259-43.563a1.11 1.11 0 1 0 .002-2.218 1.11 1.11 0 0 0-.002 2.218Zm1.11 10.23a1.11 1.11 0 1 1-2.218-.003 1.11 1.11 0 0 1 2.218.002Zm-1.11 12.436a1.11 1.11 0 1 0 .002-2.218 1.11 1.11 0 0 0-.002 2.218Zm1.11 10.229a1.11 1.11 0 1 1-2.218-.002 1.11 1.11 0 0 1 2.218.002Zm-1.11 12.437a1.11 1.11 0 1 0 .002-2.218 1.11 1.11 0 0 0-.002 2.218ZM42.651 14.042a.66.66 0 0 1 .66-.661h8.287a.66.66 0 0 1 0 1.322H43.31a.66.66 0 0 1-.66-.661Zm.66 10.684a.66.66 0 1 0 0 1.321h8.287a.66.66 0 0 0 0-1.321H43.31ZM46 36.65c0-.359.185-.65.413-.65h5.174c.228 0 .413.291.413.65 0 .359-.185.65-.413.65h-5.174c-.228 0-.413-.291-.413-.65ZM45.55 47c-.304 0-.55.291-.55.65 0 .359.246.65.55.65h6.9c.304 0 .55-.291.55-.65 0-.359-.246-.65-.55-.65h-6.9Zm-5.49-20.457a1.109 1.109 0 1 0 .002-2.219 1.109 1.109 0 0 0-.002 2.218Z" class="-path--primary" fill="#083176"/>
  <path fill-rule="evenodd" d="M30.321 41.32c0-5.645 3.677-9.999 7.92-9.999 4.242 0 7.918 4.347 7.918 9.999 0 5.65-3.684 9.99-7.919 9.99-4.265 0-7.919-4.345-7.919-9.99ZM38.241 30C33.013 30 29 35.229 29 41.32c0 6.09 3.99 11.312 9.24 11.312 5.217 0 9.24-5.212 9.24-11.312S43.467 30 38.24 30Zm3.39 26.553-2.454.919a4.992 4.992 0 0 1-3.425 0h-.002l-2.555-.915a3.68 3.68 0 0 0-3.045.27l-.004.003-1.779.994-4.755 2.55-.002.001a3.904 3.904 0 0 0-.28.241 12.78 12.78 0 0 0-.657.68c-.52.575-1.18 1.37-1.89 2.328-1.423 1.918-3.027 4.46-4.127 7.158-1.105 2.71-1.672 5.503-1.121 7.963.526 2.35 2.096 4.5 5.465 6.019V70.66a.66.66 0 0 1 .66-.661h32.234a.66.66 0 0 1 .66.66v14.08c3.212-1.427 4.733-3.444 5.266-5.652.59-2.449-.002-5.27-1.17-8.032-1.162-2.749-2.86-5.354-4.36-7.327a34.329 34.329 0 0 0-1.992-2.4 14.577 14.577 0 0 0-.69-.707 4.596 4.596 0 0 0-.223-.2c-.048-.04-.074-.057-.08-.061l-4.792-2.56-.013-.008-1.782-1.003h-.001a3.688 3.688 0 0 0-3.086-.237ZM20.745 86.095c.084.036.17.053.255.054v5.24c0 .365.296.661.66.661h32.234a.66.66 0 0 0 .66-.66v-5.214c3.872-1.566 5.873-3.97 6.55-6.778.687-2.85-.023-5.986-1.237-8.856-1.22-2.884-2.984-5.587-4.526-7.613a35.647 35.647 0 0 0-2.07-2.494 15.845 15.845 0 0 0-.755-.774c-.194-.182-.395-.357-.562-.451l-.013-.008-4.8-2.564-1.777-1-.002-.002a5.01 5.01 0 0 0-4.193-.32l-2.445.914-.003.001a3.672 3.672 0 0 1-2.518 0l-.004-.002-2.56-.917h-.003a5 5 0 0 0-4.137.365l-1.761.985-4.753 2.549c-.175.094-.377.269-.563.445-.206.194-.452.449-.728.753-.553.61-1.24 1.44-1.973 2.428-1.464 1.974-3.134 4.613-4.289 7.446-1.15 2.822-1.822 5.912-1.187 8.75.646 2.885 2.616 5.397 6.5 7.062Zm1.576-14.774V90.73h30.912V71.32H22.321Z" class="-path--secondary" fill="#FF9E18"/>
</svg>
