<svg id="icon-products-cdn-service" viewBox="0 0 96 96" xmlns="http://www.w3.org/2000/svg">
  <path fill-rule="evenodd" d="M17.786 30.593c0-.307.248-.555.555-.555h70.12c.307 0 .556.248.556.555V80.44a.555.555 0 0 1-.555.555H18.34a.555.555 0 0 1-.555-.555V30.593Zm41.287 31.444c0 6.33-5.104 11.46-11.399 11.46-6.295 0-11.398-5.13-11.398-11.46 0-6.33 5.103-11.46 11.398-11.46s11.399 5.13 11.399 11.46Z" class="-path--shadow" fill="#38C6F4"/>
  <path fill-rule="evenodd" d="M57.49 11.104c.064-.01.129-.018.194-.025v-.045h.66c3.257 0 5.89 2.653 5.89 5.918 0 3.266-2.633 5.919-5.89 5.919h-7.03a3.02 3.02 0 0 0-.003-1.322h7.034c2.52 0 4.569-2.055 4.569-4.597 0-2.453-1.908-4.452-4.306-4.59h-.262c-.432.002-.861.062-1.276.18l-.813.232-.029-.844c-.15-4.344-3.772-7.737-8.083-7.587a7.822 7.822 0 0 0-7.075 5.168l-.23.632-.627-.24c-3.063-1.17-6.494.375-7.66 3.461-1.168 3.087.377 6.538 3.441 7.71.17.064.34.12.515.17l.013.003.013.004a6.09 6.09 0 0 0 1.856.298h7.12a3.016 3.016 0 0 0-.004 1.322h-7.12a7.405 7.405 0 0 1-2.248-.359 7.232 7.232 0 0 1-.617-.205l.236-.616-.236.616c-3.749-1.433-5.628-5.647-4.205-9.41l.618.233-.618-.233c1.346-3.56 5.167-5.45 8.75-4.433A9.14 9.14 0 0 1 48.1 3.023c4.785-.167 8.834 3.393 9.39 8.08Zm-44.507 24.22a.66.66 0 0 1 .66-.661h70.121a.66.66 0 0 1 .66.66v49.643a.658.658 0 0 1-.103.356l10.134 7.165a.66.66 0 0 1 .406.61v1.22a.66.66 0 0 1-.66.66h-91a.66.66 0 0 1-.661-.66v-1.22c0-.302.202-.557.478-.636l9.998-7.288a.661.661 0 0 1-.033-.207V35.323Zm1.321 48.981V39.243h68.8v45.062h-68.8Zm-.25 1.746-8.693 6.337h86.666l-8.997-6.36-68.975.023Zm22.883-24.218c0-5.968 4.81-10.8 10.737-10.8 5.927 0 10.738 4.832 10.738 10.8 0 5.968-4.81 10.8-10.738 10.8-5.927 0-10.737-4.832-10.737-10.8Zm10.737-12.121c-6.663 0-12.059 5.43-12.059 12.12 0 6.692 5.396 12.122 12.06 12.122 6.663 0 12.059-5.43 12.059-12.121 0-6.691-5.396-12.121-12.06-12.121Zm-3.248 7.13v4.99l-.016 4.991 4.29-2.495 4.29-2.495-4.29-2.487-4.274-2.503Z" class="-path--primary" fill="#083176"/>
  <path fill-rule="evenodd" d="M46.096 22.218c0-1.29 1.04-2.33 2.314-2.33a2.322 2.322 0 0 1 2.314 2.33c0 1.29-1.04 2.33-2.314 2.33a2.322 2.322 0 0 1-2.314-2.33Zm2.314-3.652a3.644 3.644 0 0 0-3.635 3.652c0 1.787 1.28 3.28 2.974 3.591V38.18c0 1.686-.431 3.022-1.202 3.925-.759.888-1.911 1.436-3.53 1.436H12.092c-3.927 0-7.106 3.199-7.111 7.139v19.095c0 3.926 3.154 7.122 7.068 7.146h.944V75.6h-.938c-3.18-.02-5.753-2.62-5.753-5.825V50.68c.004-3.218 2.599-5.818 5.79-5.818h30.923c1.943 0 3.488-.672 4.535-1.899 1.035-1.212 1.52-2.887 1.52-4.783V25.81a3.649 3.649 0 0 0 2.975-3.592 3.644 3.644 0 0 0-3.636-3.652Z" class="-path--secondary" fill="#FF9E18"/>
</svg>
