<svg id="icon-products-pharma" viewBox="0 0 96 96" xmlns="http://www.w3.org/2000/svg">
  <path fill-rule="evenodd" d="M9.947 43.077c-2.777 5.698-.482 12.562 5.17 15.465l.232.115.019.009c5.635 2.617 12.334.19 14.963-5.422l16.843-35.008c2.776-5.7.477-12.565-5.179-15.464l-.232-.116C36.136.057 29.458 2.477 26.823 8.07L9.947 43.077Zm46.939 44.762c9.21 0 16.677-7.587 16.677-16.947s-7.467-16.948-16.677-16.948c-9.211 0-16.678 7.588-16.678 16.948s7.467 16.947 16.678 16.947Z" class="-path--shadow" fill="#38C6F4"/>.
  <path fill-rule="evenodd" d="M76.521 6.003a3.147 3.147 0 0 0-.993 0h-.003L60.518 8.468a3.132 3.132 0 0 0-2.627 3.125V31.36a13.914 13.914 0 0 0 4.42 10.195l11.582 10.613.002.002a3.089 3.089 0 0 0 4.2 0l.003-.002 11.66-10.607.005-.005a13.816 13.816 0 0 0 4.395-10.188V11.6a3.132 3.132 0 0 0-2.616-3.124L76.524 6.004h-.003Zm-.786 1.299h.001c.191-.03.385-.03.576 0h.002l15.01 2.47c.888.15 1.531.922 1.519 1.815v19.787a12.5 12.5 0 0 1-3.974 9.217l-.003.003L77.207 51.2l-.005.005a1.773 1.773 0 0 1-2.413 0l-11.58-10.61-.003-.003a12.6 12.6 0 0 1-4-9.23V11.577a1.817 1.817 0 0 1 1.526-1.813l15.003-2.463Zm-40.492.982c-5.31-2.47-11.624-.186-14.103 5.099l-.003.006-8.155 16.916 19.248 9.588 8.147-16.908v-.002c.207-.425.383-.856.53-1.292l.654 1.867-16.864 35-.002.002c-2.794 5.94-9.888 8.5-15.852 5.727l-.008-.004-.24-.115-.014-.007C2.599 61.108.153 53.857 3.076 47.825l8.418-17.463a.655.655 0 0 1 .043-.087l8.412-17.451.001-.003c2.79-5.94 9.882-8.503 15.844-5.73h.001a.62.62 0 0 1 .024.01l.237.119c5.986 3.049 8.433 10.304 5.506 16.336l-.654-1.867c1.599-4.735-.226-9.992-4.453-12.724L35.8 7.093l-.003-.002-.274.597.277-.595.655 1.872a11.201 11.201 0 0 0-.993-.572l-.003-.001-.214-.107-.002-.001Zm1.212.681 4.453 12.724v.002L36.455 8.965Zm-4.796 32.113L12.41 31.49 4.26 48.398C1.65 53.78 3.83 60.255 9.172 62.986l.225.108.004.002c5.31 2.467 11.622.184 14.105-5.098l.003-.006 8.15-16.914Zm3.78 35.705c0-9.713 7.752-17.606 17.335-17.606 9.584 0 17.336 7.893 17.336 17.606 0 9.713-7.752 17.605-17.336 17.605S35.44 86.496 35.44 76.782Zm1.328.657h32.015c-.34 8.701-7.386 15.632-16.008 15.632-8.621 0-15.667-6.93-16.007-15.632Zm32.015-1.315c-.34-8.701-7.386-15.633-16.008-15.633-8.621 0-15.667 6.932-16.007 15.633h32.015Z" class="-path--primary" fill="#083176"/>
  <path fill-rule="evenodd" d="M79.668 16.136h-7.296v6.55h-6.444V30.1h6.444v6.55h7.296V30.1h6.445v-7.416h-6.445v-6.55Z" fill="#D62015"/>
</svg>
