<svg id="icon-platform-adaptive-networking" viewBox="0 0 96 96" xmlns="http://www.w3.org/2000/svg">
  <path class="-path--shadow" fill="#38C6F4" d="M57.95 51.24a9.6 9.6 0 0 0-3.47-3.05l-.07-.05h8.89a7.2 7.2 0 0 0 7.18-7.2 7.2 7.2 0 0 0-9.2-6.93 11.78 11.78 0 0 0-12.06-11.5 11.76 11.76 0 0 0-10.79 7.9 9.16 9.16 0 0 0-9.26 2.14l-.17-.1a15.75 15.75 0 0 0-12.34 10.18 12.24 12.24 0 0 0-4.12-.6 17.54 17.54 0 0 1-1.24-13.85A17.72 17.72 0 0 1 33.64 17 22.78 22.78 0 0 1 54.1 2.02a22.81 22.81 0 0 1 23.67 21.92c1.28-.36 2.6-.55 3.92-.55h.88a13.9 13.9 0 0 1 13.42 14.37 13.9 13.9 0 0 1-14.3 13.48H57.95Z"/>
  <path class="-path--secondary" fill="#FF9E18" d="M36.59 66.39h1.18v19.43A3.8 3.8 0 0 1 41 89.57c0 2.1-1.7 3.8-3.82 3.8a3.81 3.81 0 0 1-3.83-3.8 3.8 3.8 0 0 1 3.24-3.75V66.39Zm5.1 0h1.17v9.4a.59.59 0 1 1-1.18 0v-9.4Zm-23.12 0h1.17v13.5a.59.59 0 1 1-1.17 0V66.4Zm13.08 0h1.17v5.5c0 .33-.26.6-.59.6h-7.55v17.08a.59.59 0 1 1-1.18 0V71.9c0-.32.27-.59.6-.59h7.55V66.4Zm8.18 23.18a2.63 2.63 0 0 0-2.65-2.62 2.63 2.63 0 0 0-2.65 2.62 2.63 2.63 0 0 0 2.65 2.63 2.63 2.63 0 0 0 2.65-2.63Z"/>
  <path class="-path--primary" fill="#083176" d="M29.05 31.86a9.75 9.75 0 0 1 9.02-2.17 12.35 12.35 0 0 1 23.76 3.58 7.78 7.78 0 0 1 9.24 7.66c0 4.3-3.48 7.8-7.77 7.8h-6.9a10.24 10.24 0 0 1 3.68 6.12h17.53c7.33-.01 13.27-6 13.25-13.36a13.31 13.31 0 0 0-17-12.78.59.59 0 0 1-.76-.54A22.23 22.23 0 0 0 50 6.84a22.2 22.2 0 0 0-19.9 14.55c-.1.3-.43.46-.73.36A17.14 17.14 0 0 0 7.8 32.63a16.85 16.85 0 0 0-.2 9.93 12.8 12.8 0 0 1 8.71-.65 16.34 16.34 0 0 1 12.75-10.05Zm-1.32 1.45a15.17 15.17 0 0 0-10.52 9.52c-.11.3-.44.46-.74.36a11.7 11.7 0 0 0-14.72 7.4A11.57 11.57 0 0 0 9.1 65.2l.11.03c1.17.38 2.4.58 3.63.58h37.14a9.06 9.06 0 0 0 4.27-17.07H35.57a9.96 9.96 0 0 1-3.05-.49l-.08-.02a9.67 9.67 0 0 1-4.7-14.91Zm32.5 22.72a10.2 10.2 0 0 1-10.26 10.95H12.85c-1.36 0-2.7-.22-3.99-.64l-.12-.04a12.75 12.75 0 0 1-2.21-23.2 18.03 18.03 0 0 1 .15-10.84 18.32 18.32 0 0 1 22.53-11.8 23.38 23.38 0 0 1 20.75-14.8 23.4 23.4 0 0 1 24.29 21.73 14.49 14.49 0 0 1 17.8 14.1A14.49 14.49 0 0 1 77.6 56.02H60.24ZM63.3 34.3c-.63 0-1.25.09-1.86.27a.59.59 0 0 1-.75-.55A11.19 11.19 0 0 0 49.24 23.1c-4.64.12-8.72 3.1-10.25 7.5-.1.3-.44.46-.74.36a8.59 8.59 0 0 0-10.82 5.42 8.5 8.5 0 0 0 5.38 10.7l.08.03c.86.28 1.77.43 2.68.43H63.3a6.6 6.6 0 0 0 6.59-6.62 6.6 6.6 0 0 0-6.6-6.62Z"/>
</svg>
