<svg id="icon-business-support-ticket" viewBox="0 0 96 96" xmlns="http://www.w3.org/2000/svg">
	<g fill="none">
		<path class="-path--shadow" fill="#38C6F4" d="m92.5 34.32-7.96-8.07a1.13 1.13 0 0 0-1.6-.03 1.11 1.11 0 0 0-.06.05 4.6 4.6 0 0 1-5.03 1.1 4.35 4.35 0 0 1-1.47-1 4.24 4.24 0 0 1-1.25-3.22 4.7 4.7 0 0 1 1.4-3.29l.01-.02a1.2 1.2 0 0 0 0-1.68l-5.17-5.24-2.8-2.84a6.48 6.48 0 0 0-4.87-1.99 6.87 6.87 0 0 0-4.91 2.13L56.04 13l-38.8 39.33a7.07 7.07 0 0 0-2.1 4.93 6.6 6.6 0 0 0 1.93 4.97l7.99 8.1a1.13 1.13 0 0 0 1.29.25 1.17 1.17 0 0 0 .37-.24 4.6 4.6 0 0 1 3.32-1.44 4.08 4.08 0 0 1 3.16 1.3 4.33 4.33 0 0 1 1.26 3.26 4.62 4.62 0 0 1-1.39 3.29 1.2 1.2 0 0 0-.03 1.69l3.88 3.92.94.95L41 86.5a6.53 6.53 0 0 0 4.63 2h.26a6.87 6.87 0 0 0 4.92-2.14l41.53-42.11a7.07 7.07 0 0 0 2.1-4.95 6.7 6.7 0 0 0-1.96-4.98Z"/>
		<path d="M33.04 78.44a1.2 1.2 0 0 1 .03-1.7 4.62 4.62 0 0 0 1.4-3.28 4.33 4.33 0 0 0-1.27-3.27 4.08 4.08 0 0 0-3.16-1.29 4.6 4.6 0 0 0-3.31 1.44 1.17 1.17 0 0 1-.38.24 1.13 1.13 0 0 1-1.3-.24l-7.98-8.1a6.6 6.6 0 0 1-1.93-4.98 7.07 7.07 0 0 1 2.1-4.93L56.03 13l-2.87-2.91a4.73 4.73 0 0 0-3.62-1.47 5.2 5.2 0 0 0-3.72 1.6L4.27 52.37a5.32 5.32 0 0 0-1.6 3.72 4.87 4.87 0 0 0 1.42 3.7l7.62 7.7.42-.31a6.27 6.27 0 0 1 8.11.55 6.08 6.08 0 0 1 1.78 4.55 6.23 6.23 0 0 1-1.23 3.69l-.3.42 7.54 7.65a4.78 4.78 0 0 0 1.68 1.14 4.33 4.33 0 0 0 1.69.35l.26-.01a5.23 5.23 0 0 0 3.74-1.6l1.52-1.55-3.87-3.92Z"/>
		<path class="-path--shadow" fill="#38C6F4" d="M94.45 39.3v.01-.01z"/>
		<path class="-path--primary" fill="#083176" d="m60.16 32.96-.09-.1a.55.55 0 0 0-.78.02l-7.69 7.75-4.7-4.76 7.68-7.75a.57.57 0 0 0-.13-.92 9.73 9.73 0 0 0-4.4-1.08h-.32A11.8 11.8 0 0 0 38.87 41.9l.13.37-16.05 16.2a4.6 4.6 0 0 0-.01 6.3 4.2 4.2 0 0 0 2.92 1.43h.26a4.13 4.13 0 0 0 2.74-1.04l.34-.34 16.06-16.21.38.15a10.02 10.02 0 0 0 4.04.7 11.75 11.75 0 0 0 11.57-11.63 10.07 10.07 0 0 0-1.08-4.84Zm-3 12.12a10.54 10.54 0 0 1-7.46 3.21h-.02a8.95 8.95 0 0 1-3.9-.74l-.4-.2a.55.55 0 0 0-.6.13L28.4 64.03a2.89 2.89 0 0 1-1.26.84 3.1 3.1 0 0 1-3.37-.91 3.42 3.42 0 0 1 0-4.7L40.07 42.8a.6.6 0 0 0 .11-.63l-.15-.39a10.62 10.62 0 0 1 9.75-14.52h.25a8.5 8.5 0 0 1 2.24.3l1 .28-7.54 7.62a.58.58 0 0 0 0 .82l5.48 5.54a.55.55 0 0 0 .78 0l7.6-7.67.25 1.06a10.6 10.6 0 0 1-2.7 9.87Z"/>
		<path class="-path--primary" fill="#083176" d="m77.87 33.51-7.97-8.07a.5.5 0 0 0-.17-.12.55.55 0 0 0-.6.14 5.23 5.23 0 0 1-3.74 1.6 5 5 0 0 1-5.06-5.17 5.24 5.24 0 0 1 1.58-3.71.59.59 0 0 0 0-.83l-5.08-5.15-2.9-2.93a6.27 6.27 0 0 0-8.9.14L3.5 51.53a6.43 6.43 0 0 0-1.94 4.52 6 6 0 0 0 1.76 4.53l8 8.12a.51.51 0 0 0 .16.1.56.56 0 0 0 .62-.12 5.24 5.24 0 0 1 3.75-1.61h.2a4.7 4.7 0 0 1 3.41 1.48 4.94 4.94 0 0 1 1.44 3.7 5.23 5.23 0 0 1-1.58 3.7.61.61 0 0 0 0 .85l7.94 8.05a5.96 5.96 0 0 0 4.2 1.82h.24a6.32 6.32 0 0 0 4.5-1.95l1.53-1.55 40-40.57a6.42 6.42 0 0 0 1.93-4.1v-.44a6.11 6.11 0 0 0-1.78-4.55Zm-.73 8.07v.02l-.18.17-38.9 39.44-1.14 1.15-1.52 1.55a5.23 5.23 0 0 1-3.74 1.6 4.05 4.05 0 0 1-.26 0 4.33 4.33 0 0 1-1.7-.34 4.78 4.78 0 0 1-1.67-1.14l-7.55-7.65.31-.42a6.23 6.23 0 0 0 1.23-3.7 6.08 6.08 0 0 0-1.77-4.54 6.27 6.27 0 0 0-8.12-.55l-.42.32-7.62-7.72a4.87 4.87 0 0 1-1.41-3.69 5.32 5.32 0 0 1 1.6-3.72l41.55-42.13a5.2 5.2 0 0 1 3.72-1.6 4.73 4.73 0 0 1 3.62 1.46L56.04 13l4.71 4.76-.3.42a6.42 6.42 0 0 0-1.23 3.69 6.02 6.02 0 0 0 1.77 4.5 6.25 6.25 0 0 0 8.13.6l.43-.31 7.56 7.66a4.97 4.97 0 0 1 1.44 3.73 5.33 5.33 0 0 1-1.41 3.53Z"/>
	</g>
</svg>