<svg id="icon-business-cost-control-dollar" viewBox="0 0 96 96" xmlns="http://www.w3.org/2000/svg">
  <path d="M77.689 45.056c0 14.541-11.836 26.329-26.437 26.329-14.6 0-26.436-11.788-26.436-26.329 0-14.54 11.836-26.329 26.436-26.329S77.69 30.515 77.69 45.057Z" class="-path--shadow" fill="#38C6F4"/>
  <path fill-rule="evenodd" d="M22.365 48.152c0-14.175 11.54-25.67 25.779-25.67 14.24 0 25.779 11.495 25.779 25.67 0 14.176-11.54 25.671-25.78 25.671-14.239 0-25.778-11.495-25.778-25.67Zm25.779-26.986c-14.961 0-27.094 12.08-27.094 26.986 0 14.907 12.133 26.987 27.094 26.987 14.96 0 27.094-12.08 27.094-26.987 0-14.906-12.133-26.986-27.094-26.986ZM46.239 59.4v3.402l3.526.016v-3.66c4.148-.722 6.422-3.41 6.422-6.648 0-3.237-1.731-5.204-6.02-6.717-3.07-1.152-4.33-1.897-4.33-3.088 0-1.004.74-2.015 3.102-2.015 1.802.007 3.58.417 5.202 1.2l1.039-4.06a13.054 13.054 0 0 0-5.226-1.192v-3.135H46.42v3.37c-3.856.76-6.1 3.26-6.1 6.396 0 3.48 2.63 5.275 6.494 6.576 2.668.902 3.817 1.701 3.817 3.136 0 1.434-1.41 2.218-3.455 2.218a12.774 12.774 0 0 1-5.99-1.568L40.1 57.833a14.567 14.567 0 0 0 6.14 1.567Z" class="-path--primary" fill="#083176"/>
  <path fill-rule="evenodd" d="M68.602 4.005c.36-.045.69.21.735.57l1.39 10.952v.004a.658.658 0 0 1-.549.75L58.83 18.037a.658.658 0 0 1-.201-1.3l9.76-1.51c-16.817-11.57-39.957-7.954-52.365 8.456-11.128 14.715-10.11 35.247 2.42 48.8a.657.657 0 1 1-.966.892C4.516 59.356 3.462 38.114 14.975 22.89c12.86-17.006 36.86-20.727 54.26-8.676L68.032 4.74a.658.658 0 0 1 .57-.735Zm9.285 18.912a.658.658 0 0 1 .93.035C91.59 36.726 92.872 57.55 81.883 72.776 69.445 90.01 45.644 94.29 27.995 82.76l2.136 9.097a.658.658 0 0 1-1.28.3l-2.501-10.65a.658.658 0 0 1-.05-.27.658.658 0 0 1 .687-.68l10.538-3.194a.658.658 0 1 1 .381 1.259l-9.453 2.865c17.09 11.36 40.278 7.265 52.364-9.48 10.623-14.718 9.384-34.846-2.965-48.16a.658.658 0 0 1 .035-.93Z" class="-path--secondary" fill="#FF9E18"/>
</svg>
