<svg id="icon-places-smart-building" viewBox="0 0 96 96" xmlns="http://www.w3.org/2000/svg">
  <path fill-rule="evenodd" d="M39.612 89.11h46.5c.3 0 .5-.3.5-.6v-69.5c0-.3-.2-.5-.5-.5h-46.5c-.3 0-.5.2-.5.5v69.6c0 .3.2.5.5.5Z" class="-path--shadow" fill="#38C6F4"/>
  <path fill-rule="evenodd" d="M33.913 94.91h46.5c.3 0 .6-.3.7-.7v-69.5c0-.4-.3-.7-.7-.7h-46.5c-.4 0-.7.3-.7.7v69.5c0 .4.3.7.7.7Zm15.9-1.3h-15.2v-68.2h45.2v68.2h-14.5v-19.5h-15.5v19.5Zm-10.1-31.9h9c.4 0 .7-.2.7-.7v-7.9c0-.4-.3-.7-.7-.7h-9c-.4 0-.7.3-.7.7v7.9c0 .4.3.7.7.7Zm8.4-1.3h-7.7v-6.6h7.7v6.6Zm13.7 1.3h-9.5c-.4 0-.7-.3-.7-.7v-7.9c0-.4.3-.7.7-.7h9.5c.4 0 .7.3.7.7v7.9c0 .5-.3.7-.7.7Zm-8.8-1.3h8.1v-6.6h-8.1v6.6Zm12.1 1.3h9.5c.3 0 .6-.2.7-.7v-7.9c0-.4-.3-.7-.7-.7h-9.5c-.4 0-.7.3-.7.7v7.9c0 .4.3.7.7.7Zm8.8-1.3h-8.1v-6.6h8.1v6.6Zm-25.2-15.6h-9c-.4 0-.7-.3-.7-.7v-7.9c0-.4.3-.7.7-.7h9c.4 0 .7.3.7.7v7.9c0 .4-.3.7-.7.7Zm-8.3-1.4h7.7v-6.6h-7.7v6.6Zm11.9 1.4h9.5c.4 0 .7-.3.7-.7v-7.9c0-.4-.3-.7-.7-.7h-9.5c-.4 0-.7.3-.7.7v7.9c0 .4.3.7.7.7Zm8.8-1.4h-8.1v-6.6h8.1v6.6Zm13.5 1.4h-9.5c-.4 0-.7-.3-.7-.7v-7.9c0-.4.3-.7.7-.7h9.5c.4 0 .7.3.7.7v7.9c-.1.4-.4.7-.7.7Zm-8.8-1.4h8.1v-6.6h-8.1v6.6Zm-1.8 49.6h-12.9v-17.6h12.9v17.6Z" class="-path--primary" fill="#083176"/>
  <path fill-rule="evenodd" d="M9.413 28.91c0 .4.3.7.7.7.4 0 .7-.3.7-.7v-.7c-.3-6.6 2-12.9 6.5-17.8s10.6-7.7 17.2-8c.3 0 .6-.3.6-.7 0-.4-.3-.7-.8-.6-7 .3-13.4 3.3-18.1 8.4-4.7 5.1-7.1 11.8-6.8 18.7v.7Zm8.2-.4c-.4 0-.7-.3-.7-.7v-.5c-.2-4.8 1.5-9.4 4.7-13 3.3-3.6 7.7-5.6 12.6-5.9.4 0 .7.3.7.6 0 .4-.3.7-.6.7-4.5.2-8.6 2.1-11.7 5.4-3 3.3-4.6 7.6-4.4 12.1v.5c0 .5-.3.8-.6.8Zm7.5-1.9c-.3 0-.6-.3-.7-.6v-.3c-.1-2.4.7-4.7 2.4-6.6 1.7-1.8 3.9-2.9 6.4-3 .4 0 .7.3.7.6 0 .4-.3.7-.6.7-2.1.1-4.1 1-5.5 2.6-1.4 1.6-2.2 3.6-2.1 5.7v.2c0 .3-.2.6-.6.7Z" class="-path--secondary" fill="#FF9E18"/>
</svg>
