<svg id="icon-places-network-globe" viewBox="0 0 96 96" xmlns="http://www.w3.org/2000/svg">
  <path d="M85.446 35.82c0 18.126-14.754 32.82-32.954 32.82-18.2 0-32.953-14.694-32.953-32.82C19.539 17.694 34.292 3 52.492 3c18.2 0 32.954 14.694 32.954 32.82Z" class="-path--shadow" fill="#38C6F4"/>
  <path fill-rule="evenodd" d="M18.686 26.552a31.911 31.911 0 0 0-3.174 13.518l18.861-.198c.11-3.385.42-6.646.903-9.71-3.29-.351-6.133-.804-8.478-1.257a75.091 75.091 0 0 1-5.695-1.317 44.06 44.06 0 0 1-1.87-.56l-.1-.033-.025-.01-.007-.002h-.002s-.002-.001.215-.616l-.217.615a.656.656 0 0 1-.41-.43Zm17.901 3.742a77.55 77.55 0 0 0-.898 9.564l25.154-.264a76.283 76.283 0 0 0-.49-9.607 94.822 94.822 0 0 1-12.564.827c-4.121 0-7.872-.205-11.202-.52Zm23.6-1.612a93.506 93.506 0 0 1-12.398.817c-4.039 0-7.715-.2-10.983-.506.784-4.396 1.929-8.319 3.328-11.531 1.259-2.89 2.709-5.172 4.258-6.71 1.548-1.537 3.15-2.29 4.739-2.247 1.59.044 3.147.883 4.608 2.502 1.462 1.62 2.785 3.979 3.883 6.932 1.132 3.047 2.012 6.692 2.565 10.743Zm1.468 1.12c.361 3.085.538 6.37.504 9.778l17.925-.188a31.891 31.891 0 0 0-3.41-13.347 40.884 40.884 0 0 1-1.778.65 66.674 66.674 0 0 1-5.858 1.68 84.794 84.794 0 0 1-7.383 1.428ZM60.82 40.91l-25.163.264c-.056 3.35.095 6.577.424 9.604 3.729-.48 7.489-.73 11.26-.75h.008c4.211.032 8.413.3 12.584.805.483-3.094.79-6.401.885-9.842l.002-.081Zm.418 10.089c.49-3.146.799-6.495.894-9.973l.004-.13 17.966-.189a31.92 31.92 0 0 1-3.106 13.554 111.665 111.665 0 0 0-15.758-3.263Zm-1.52 1.133a110.433 110.433 0 0 0-12.375-.788c-3.72.018-7.429.266-11.107.74.547 4.263 1.455 8.093 2.636 11.272 1.098 2.953 2.42 5.312 3.883 6.932 1.087 1.204 2.227 1.977 3.394 2.312a32.906 32.906 0 0 0 2.592.028c1.131-.295 2.26-.992 3.36-2.085 1.55-1.538 3-3.82 4.259-6.71 1.417-3.253 2.573-7.236 3.358-11.701ZM52.023 72.37c.342-.27.677-.57 1.004-.894 1.707-1.694 3.239-4.137 4.537-7.118 1.47-3.375 2.659-7.48 3.459-12.061a110.368 110.368 0 0 1 15.37 3.16c-4.786 9.041-13.77 15.536-24.37 16.913Zm-3.1 1.568c18.043-.586 32.494-15.34 32.494-33.459 0-18.491-15.05-33.477-33.611-33.477-18.56 0-33.612 14.986-33.612 33.477a33.338 33.338 0 0 0 .002.297c.154 17.73 14.146 32.168 31.739 33.13a6.169 6.169 0 0 0 2.987.032Zm-6.008-1.663c-.392-.33-.771-.7-1.137-1.106-1.612-1.785-3.007-4.308-4.14-7.355-1.219-3.28-2.147-7.206-2.706-11.553a90.378 90.378 0 0 0-15.477 3.636c4.738 8.62 13.325 14.845 23.46 16.378Zm-8.138-21.32a78.269 78.269 0 0 1-.436-9.768l-18.819.198a31.896 31.896 0 0 0 3.316 13.33 91.688 91.688 0 0 1 15.939-3.76ZM61.49 28.498c-.565-4.134-1.467-7.872-2.636-11.017-1.132-3.047-2.528-5.57-4.139-7.355-.46-.51-.94-.961-1.439-1.35 9.81 1.667 18.11 7.74 22.777 16.1l-.09.035c-.334.13-.834.315-1.491.54a65.377 65.377 0 0 1-5.742 1.646c-2.054.495-4.481.99-7.24 1.4ZM45.165 8.423c-.587.386-1.154.855-1.7 1.396-1.706 1.694-3.238 4.137-4.537 7.118-1.455 3.342-2.635 7.4-3.434 11.925a100.268 100.268 0 0 1-8.447-1.249 73.757 73.757 0 0 1-5.594-1.292 42.855 42.855 0 0 1-1.804-.54l-.089-.03-.021-.008-.006-.002a.654.654 0 0 0-.442.002C24.076 16.13 33.786 9.34 45.165 8.423ZM19.533 25.74l-.218.62.218-.62Z" class="-path--primary" fill="#083176"/>
  <path fill-rule="evenodd" d="M48.455 77.127a.658.658 0 1 0-1.315 0v5.82h-3.79a.658.658 0 0 0-.657.658v3.763H16.491a5.091 5.091 0 0 0-5.053-4.412c-2.812 0-5.096 2.27-5.096 5.078 0 2.806 2.284 5.078 5.096 5.078a5.091 5.091 0 0 0 5.055-4.43h26.2v3.773c0 .363.295.657.658.657h8.885a.658.658 0 0 0 .658-.657v-3.772h25.613a5.091 5.091 0 0 0 5.054 4.43c2.812 0 5.096-2.272 5.096-5.08 0-2.806-2.284-5.077-5.096-5.077a5.091 5.091 0 0 0-5.052 4.412H52.894v-3.763a.658.658 0 0 0-.658-.657h-3.78v-5.821Zm3.124 7.136v7.534h-7.57v-7.534h7.57Zm31.982.008a3.772 3.772 0 0 0-3.78 3.763 3.772 3.772 0 0 0 3.78 3.763 3.773 3.773 0 0 0 3.781-3.763 3.772 3.772 0 0 0-3.78-3.763ZM7.657 88.034a3.772 3.772 0 0 1 3.781-3.763c2.091 0 3.781 1.687 3.781 3.763a3.772 3.772 0 0 1-3.78 3.763 3.772 3.772 0 0 1-3.782-3.763Z" class="-path--secondary" fill="#FF9E18"/>
</svg>
