<svg id="icon-places-hospital" viewBox="0 0 96 96" xmlns="http://www.w3.org/2000/svg">
  <path d="M94 82.266H6.63V43.091h37.778V9H94v73.266Z" class="-path--shadow" fill="#38C6F4"/>
  <path fill-rule="evenodd" d="m29.714 13.766-9.437-1.562a2.046 2.046 0 0 0-.718 0l-9.431 1.56-.005.001a2.235 2.235 0 0 0-1.85 2.223v12.53a9.081 9.081 0 0 0 2.85 6.685l7.31 6.743.001.001a2.178 2.178 0 0 0 2.975 0l.002-.001 7.312-6.746.005-.005a9.06 9.06 0 0 0 2.843-6.654V15.955a2.25 2.25 0 0 0-1.857-2.19Zm-9.925-.26a.718.718 0 0 1 .258 0l9.441 1.562a.928.928 0 0 1 .761.9v12.58a7.738 7.738 0 0 1-2.424 5.683l-7.314 6.746-.003.004a.857.857 0 0 1-1.173 0l-7.31-6.742a7.76 7.76 0 0 1-2.431-5.713V15.98a.913.913 0 0 1 .752-.911l9.433-1.56.01-.003Zm19.33-.377a.66.66 0 0 1 .66-.66H89.37a.66.66 0 0 1 .66.66V86.92a.66.66 0 0 1-.66.661H2a.66.66 0 0 1-.66-.66V47.746a.66.66 0 0 1 .66-.661h37.118V13.129Zm1.32.66v33.957a.66.66 0 0 1-.66.66H2.66V86.26h50.89a.66.66 0 0 1-.258-.523v-14.8a.66.66 0 0 1 .661-.66h21.278a.66.66 0 0 1 .66.66v14.8a.66.66 0 0 1-.256.523h13.073V13.79H40.44Zm34.389 72.47h-20.47a.66.66 0 0 0 .257-.522v-14.14H74.57v14.14c0 .213.1.402.257.523ZM7.905 55.82a.66.66 0 0 1 .66-.66h28.903a.66.66 0 0 1 .66.66v8.547a.66.66 0 0 1-.66.66H8.565a.66.66 0 0 1-.66-.66v-8.547Zm1.321.66v7.226h27.581V56.48H9.226Zm-.66 12.924a.66.66 0 0 0-.661.66v8.548c0 .364.295.66.66.66h28.903a.66.66 0 0 0 .66-.66v-8.547a.66.66 0 0 0-.66-.66H8.565Zm.66 8.547v-7.225h27.581v7.225H9.226Zm51.661-20.86a.66.66 0 0 0-.66.66v5.595c0 .365.295.66.66.66h6.653a.66.66 0 0 0 .661-.66V57.75a.66.66 0 0 0-.66-.661h-6.654Zm.66 5.594v-4.273h5.333v4.273h-5.332Zm-1.32-17.52a.66.66 0 0 1 .66-.662h6.653a.66.66 0 0 1 .661.661v5.595a.66.66 0 0 1-.66.66h-6.654a.66.66 0 0 1-.66-.66v-5.595Zm1.32.66v4.273h5.333v-4.273h-5.332Zm-.66-13.901a.66.66 0 0 0-.66.66v5.595c0 .364.295.66.66.66h6.653a.66.66 0 0 0 .661-.66v-5.595a.66.66 0 0 0-.66-.66h-6.654Zm.66 5.594v-4.273h5.333v4.273h-5.332Zm-1.32-17.52a.66.66 0 0 1 .66-.661h6.653a.66.66 0 0 1 .661.66v5.595a.66.66 0 0 1-.66.66h-6.654a.66.66 0 0 1-.66-.66v-5.595Zm1.32.66v4.273h5.333v-4.273h-5.332ZM48.604 57.09a.66.66 0 0 0-.66.66v5.595c0 .365.295.66.66.66h6.654a.66.66 0 0 0 .66-.66V57.75a.66.66 0 0 0-.66-.661h-6.654Zm.661 5.594v-4.273h5.332v4.273h-5.332Zm-1.321-17.52a.66.66 0 0 1 .66-.662h6.654a.66.66 0 0 1 .66.661v5.595a.66.66 0 0 1-.66.66h-6.654a.66.66 0 0 1-.66-.66v-5.595Zm1.321.66v4.273h5.332v-4.273h-5.332Zm-.66-13.901a.66.66 0 0 0-.661.66v5.595c0 .364.295.66.66.66h6.654a.66.66 0 0 0 .66-.66v-5.595a.66.66 0 0 0-.66-.66h-6.654Zm.66 5.594v-4.273h5.332v4.273h-5.332Zm-1.321-17.52a.66.66 0 0 1 .66-.661h6.654a.66.66 0 0 1 .66.66v5.595a.66.66 0 0 1-.66.66h-6.654a.66.66 0 0 1-.66-.66v-5.595Zm1.321.66v4.273h5.332v-4.273h-5.332Zm23.9 36.433a.66.66 0 0 0-.66.66v5.595c0 .365.295.66.66.66h6.653a.66.66 0 0 0 .661-.66V57.75a.66.66 0 0 0-.66-.661h-6.654Zm.66 5.594v-4.273h5.333v4.273h-5.332Zm-1.32-17.52a.66.66 0 0 1 .66-.662h6.653a.66.66 0 0 1 .661.661v5.595a.66.66 0 0 1-.66.66h-6.654a.66.66 0 0 1-.66-.66v-5.595Zm1.32.66v4.273h5.333v-4.273h-5.332Zm-.66-13.901a.66.66 0 0 0-.66.66v5.595c0 .364.295.66.66.66h6.653a.66.66 0 0 0 .661-.66v-5.595a.66.66 0 0 0-.66-.66h-6.654Zm.66 5.594v-4.273h5.333v4.273h-5.332Zm-1.32-17.52a.66.66 0 0 1 .66-.661h6.653a.66.66 0 0 1 .661.66v5.595a.66.66 0 0 1-.66.66h-6.654a.66.66 0 0 1-.66-.66v-5.595Zm1.32.66v4.273h5.333v-4.273h-5.332Z" class="-path--primary" fill="#083176"/>
  <path fill-rule="evenodd" d="M21.938 18.871h-4.585v4.152h-4.048v4.706h4.048v4.166h4.585V27.73h4.056v-4.706h-4.056V18.87Z" fill="#D62015"/>
</svg>
