<svg id="icon-places-data-center" viewBox="0 0 96 96" xmlns="http://www.w3.org/2000/svg">
  <path fill-rule="evenodd" d="M7.573 3h64.675v47.517c-8.673.614-15.264 3.666-15.264 7.34 0 .37.067.733.196 1.087v5.466h-.016v18.192H7.574V3Z" class="-path--shadow" fill="#38C6F4"/>
  <path fill-rule="evenodd" d="M2 7.477a.66.66 0 0 0-.66.66v78.924c0 .365.295.66.66.66h54.692c.177 0 .338-.07.457-.184.888 1.565 2.616 2.881 4.886 3.873 3.217 1.406 7.703 2.25 13.077 2.25s10.07-.844 13.498-2.244c1.713-.7 3.136-1.548 4.167-2.523 1.032-.975 1.7-2.107 1.82-3.357l.002-.03V66.343a4.13 4.13 0 0 0 .015-.145l.002-.028v-8.609h-.028c-.09-1.15-.707-2.19-1.645-3.084-1.016-.968-2.45-1.81-4.169-2.503-3.44-1.388-8.147-2.23-13.312-2.23-3.297 0-6.406.343-9.12.952V8.137a.66.66 0 0 0-.66-.66H2Zm63.574 44.766a.658.658 0 0 0 .512-.13c2.723-.662 5.93-1.047 9.376-1.047 5.039 0 9.57.825 12.818 2.134 1.625.656 2.897 1.42 3.75 2.234.853.814 1.248 1.632 1.248 2.423 0 .79-.395 1.61-1.247 2.423-.855.814-2.126 1.578-3.751 2.234-3.248 1.31-7.78 2.135-12.818 2.135-5.04 0-9.571-.825-12.819-2.135-1.625-.656-2.896-1.42-3.75-2.234-.853-.813-1.248-1.632-1.248-2.423 0-.79.395-1.61 1.247-2.422.855-.815 2.126-1.58 3.751-2.235a24.427 24.427 0 0 1 2.931-.957Zm-.553-1.22V8.798H2.661V86.4h21.346V73.105c0-4.88 3.935-8.84 8.797-8.84h1.582l-.016.016h1.672c4.862 0 8.797 3.961 8.797 8.84V86.4h11.829a4.762 4.762 0 0 1-.163-.865l-.003-.03V64.409h.017v-5.353a3.81 3.81 0 0 1-.195-1.199c0-1.267.64-2.409 1.657-3.379 1.015-.968 2.45-1.81 4.168-2.503.88-.355 1.841-.674 2.872-.952Zm-7.18 10.076v5.015c.08.87.55 1.75 1.43 2.602.892.86 2.172 1.66 3.78 2.343 3.214 1.365 7.63 2.22 12.525 2.22 4.894 0 9.306-.855 12.516-2.22 1.606-.683 2.885-1.482 3.774-2.343.83-.804 1.294-1.634 1.412-2.457v-.942h.017v-4.44c-.112.122-.23.242-.352.359-1.016.969-2.45 1.81-4.169 2.503-3.44 1.388-8.147 2.231-13.312 2.231-5.166 0-9.873-.843-13.313-2.23-1.718-.694-3.153-1.535-4.169-2.504a7.571 7.571 0 0 1-.14-.137Zm34.944 8.566c.175-.169.34-.343.493-.52v6.774c-.172 1.691-1.846 3.421-5.031 4.754-3.148 1.316-7.555 2.144-12.688 2.144-5.132 0-9.544-.828-12.696-2.145-3.19-1.332-4.868-3.062-5.04-4.752v-6.817c.165.192.342.38.53.563 1.042 1.007 2.477 1.885 4.181 2.61 3.411 1.448 8.01 2.324 13.042 2.324s9.627-.876 13.034-2.325c1.702-.724 3.135-1.602 4.175-2.61Zm-34.961 9.223v6.553c.176 1.715 1.718 3.438 4.74 4.758 3.002 1.312 7.295 2.14 12.548 2.14 5.251 0 9.769-.828 12.999-2.146 1.615-.66 2.882-1.431 3.758-2.26.865-.818 1.32-1.661 1.409-2.492v-6.55c-1.037 1.191-2.616 2.204-4.521 3-3.35 1.402-7.94 2.247-13.198 2.247s-9.852-.845-13.205-2.246c-1.909-.798-3.492-1.81-4.53-3.004ZM10.886 24.023c0-2 1.613-3.617 3.595-3.617h38.753c1.981 0 3.594 1.616 3.594 3.617v2.332c0 2.001-1.613 3.617-3.594 3.617H14.48c-1.982 0-3.595-1.616-3.595-3.617v-2.332Zm3.595-4.939c-2.719 0-4.916 2.215-4.916 4.94v2.33c0 2.725 2.197 4.94 4.916 4.94h38.753c2.718 0 4.916-2.215 4.916-4.94v-2.33c0-2.725-2.198-4.94-4.916-4.94H14.48Zm0 22.386c-1.982 0-3.595 1.616-3.595 3.617v2.332c0 2.001 1.613 3.617 3.595 3.617h38.753c1.981 0 3.594-1.616 3.594-3.617v-2.331c0-2.002-1.613-3.618-3.594-3.618H14.48Zm-4.916 3.617c0-2.724 2.197-4.939 4.916-4.939h38.753c2.718 0 4.916 2.215 4.916 4.94v2.33c0 2.725-2.198 4.94-4.916 4.94H14.48c-2.719 0-4.916-2.215-4.916-4.94v-2.33Zm15.763 28.018c0-3.988 3.085-7.246 6.978-7.503h3.736c4.125 0 7.475 3.363 7.475 7.52v13.065H25.328V73.105Z" class="-path--primary" fill="#083176"/>
</svg>
