<svg id="icon-products-managed-services" viewBox="0 0 96 96" xmlns="http://www.w3.org/2000/svg">
  <path fill-rule="evenodd" d="M44.697 26.45c0 11.3 7.7 20.5 17.2 20.5s17.2-9.2 17.2-20.5-7.7-20.5-17.2-20.5-17.2 9.2-17.2 20.5Zm-5.9 59.4h46.3c5.2 0 9.3-4.1 9.1-9.2v-9.4c0-3.4-1.9-6.6-4.9-8.2l-9.1-4.8-3.2-1.8c-2.3-1.3-5.2-1.5-7.7-.6l-4.3 1.6c-2 .7-4.3.7-6.3 0l-4.5-1.6c-2.5-.9-5.3-.7-7.6.6l-3.2 1.8-9 4.9c-3 1.6-4.9 4.8-4.9 8.2v9.2c0 5.1 4.2 9.3 9.3 9.3Z" class="-path--shadow" fill="#38C6F4"/>
  <path fill-rule="evenodd" d="M19.796 70.15c1.8 1.6 3.9 3 6.1 4.1v1.8c-2.4-1.1-4.6-2.5-6.6-4.3l-5.8 4.4c-.1.1-.3.1-.5.1s-.3-.1-.4-.3l-6.5-8.6c-.2-.3-.2-.7.1-.9l5.8-4.4c-1.5-3.2-2.3-6.6-2.5-10.1l-7.2-1c-.2 0-.3-.1-.4-.3-.1-.2-.1-.3-.1-.5l1.6-10.5c.1-.4.4-.6.7-.6l7.2 1c1.2-3.3 3-6.2 5.3-8.9l-4.4-5.9c-.2-.3-.2-.7.1-.9l8.6-6.5c.1-.1.3-.1.5-.1s.3.1.4.3l4.5 6c3.1-1.4 6.5-2.2 9.9-2.5l1-7.4c0-.2.1-.3.3-.4.1-.1.3-.1.5-.1l9.3 1.3c-.4.3-.8.7-1.1 1.1l-7.8-1.2-1 7.3c0 .3-.3.5-.6.6-3.6.2-7.1 1.1-10.4 2.6-.3.1-.6 0-.8-.2l-4.4-5.9-7.5 5.7 4.3 5.8c.2.3.2.6 0 .8-2.5 2.7-4.3 5.8-5.5 9.2v.1c-.1.3-.4.5-.7.4l-7.1-1-1.6 9.4 7.1 1c.3 0 .6.3.6.6.2 3.7 1 7.3 2.7 10.6.1.3.1.6-.2.8l-5.7 4.3 5.7 7.5 5.7-4.3c.3-.2.6-.2.8 0Zm7.8-4c-5.6-4.6-8.7-11.9-7.4-19.5 1.8-10 10.9-17.2 20.9-16.7v1.4c-9.4-.4-17.9 6.3-19.6 15.7-1.2 7 1.7 14 6.9 18.2-.3.3-.6.6-.8.9Z" class="-path--secondary" fill="#FF9E18"/>
  <path fill-rule="evenodd" d="M40.696 30.35c0 11.9 7.9 21.6 17.5 21.6s17.5-9.6 17.5-21.5-7.9-21.6-17.5-21.6-17.5 9.6-17.5 21.5Zm1.3 0c0-11.1 7.3-20.2 16.2-20.2 8.9 0 16.2 9 16.2 20.2s-7.3 20.3-16.2 20.3c-8.9 0-16.2-9.2-16.2-20.3Zm-7.5 59.6h47.5l.3.1c4.9-.1 8.9-4.2 8.9-9.2v-10.2c0-3.4-1.9-6.5-4.9-8.1l-9.4-5-3.5-2c-2.4-1.3-5.2-1.5-7.7-.6l-4.8 1.8c-1.7.6-3.7.6-5.4 0l-5-1.8c-2.5-.9-5.3-.7-7.6.6l-3.5 1.9-9.3 5c-3 1.6-4.8 4.7-4.8 8.1v10.2c0 5.1 4.1 9.2 9.2 9.2Zm9.1-33.3c1.1-.7 2.5-1 3.8-1 .9 0 1.8.1 2.7.4l5 1.8c2 .8 4.3.8 6.3 0l4.6-1.8c2.2-.8 4.6-.6 6.6.5l3.5 2 9.4 5c2.6 1.4 4.2 4.1 4.2 7v10.3c.1 4.3-3.4 7.9-7.8 7.9H34.496c-4.3 0-7.9-3.6-7.9-7.9v-10.3c0-3 1.6-5.6 4.2-7l9.3-5 3.5-1.9Z" class="-path--primary" fill="#083176"/>
</svg>
