<svg id="icon-business-opportunities" viewBox="0 0 96 96" xmlns="http://www.w3.org/2000/svg">
  <path fill-rule="evenodd" d="M52.682 15.58c-7.114.37-12.564 6.467-12.102 13.488.277 4.804 3.233 9.146 7.668 10.994v4.619c0 .924.739 1.663 1.662 1.663h7.022c.923 0 1.662-.74 1.662-1.663v-4.62c6.56-2.863 9.516-10.439 6.652-16.905-2.217-4.804-7.206-7.853-12.564-7.576Zm21.156 50.257 3.048-8.038c.555-1.57-.277-3.233-1.847-3.88l-.185-.092c-1.478-.462-3.049.184-3.788 1.57l-3.049 5.266c-1.108 2.033-2.864 3.695-5.08 4.434l-15.706 5.82c-.924.37-1.847.185-2.587-.461-.923-.924-.923-2.31 0-3.141.185-.185.462-.37.74-.555l6.19-2.679c1.477-.646 2.216-2.31 1.662-3.787 0-.093-.092-.185-.092-.185-.74-1.294-2.217-1.94-3.603-1.478l-12.472 3.695c-3.788 1.109-6.744 3.88-8.222 7.483l-1.478 3.788c-.924 2.31-1.755 4.619-2.402 7.02l-2.956 9.793h18.2a8.002 8.002 0 0 1 4.434-7.39l24.758-12.38c2.033-.923 3.603-2.679 4.434-4.803ZM50.834 50.686h-2.032c-.277 0-.555-.278-.555-.555v-1.663h10.347v1.663c0 .277-.277.555-.554.555h-2.032v2.586h-5.174v-2.586Z" class="-path--shadow" fill="#38C6F4"/>
  <path fill-rule="evenodd" d="M52.959 4.587A2.582 2.582 0 0 0 50.372 2c-1.478 0-2.587 1.109-2.587 2.494v2.68a2.582 2.582 0 0 0 2.587 2.586 2.582 2.582 0 0 0 2.587-2.587V4.587ZM27.184 27.59a2.582 2.582 0 0 1 2.587 2.587 2.582 2.582 0 0 1-2.587 2.586h-2.587a2.582 2.582 0 0 1-2.586-2.586 2.582 2.582 0 0 1 2.587-2.587h2.586Zm48.87 0a2.582 2.582 0 0 1 2.587 2.587 2.582 2.582 0 0 1-2.586 2.586h-2.587a2.582 2.582 0 0 1-2.587-2.586 2.582 2.582 0 0 1 2.587-2.587h2.587ZM30.326 10.222c1.016-1.016 2.68-1.016 3.603 0l1.848 1.848c1.016 1.016 1.016 2.586 0 3.603-1.016 1.016-2.68 1.016-3.603 0l-1.848-1.848c-1.016-1.016-1.016-2.587 0-3.603Zm40.002 0c-.924-1.016-2.587-1.016-3.603 0l-1.848 1.848c-1.016 1.016-1.016 2.586 0 3.603.924 1.016 2.587 1.016 3.603 0l1.848-1.848c1.016-1.016 1.016-2.587 0-3.603Z" class="-path--secondary" fill="#FF9E18"/>
  <path fill-rule="evenodd" d="M53.79 48.746h-7.02c-1.202 0-2.218-1.017-2.218-2.218v-4.157c-4.527-2.125-7.39-6.467-7.668-11.363-.184-3.603 1.017-7.02 3.419-9.7 2.402-2.68 5.635-4.25 9.238-4.434h.092c5.543-.278 10.901 2.956 13.118 8.037 1.479 3.326 1.479 6.929.185 10.254-1.293 3.234-3.695 5.82-6.836 7.299v4.157c-.092 1.108-1.016 2.125-2.31 2.125Zm-4.064-30.764c-3.326.185-6.282 1.663-8.5 4.065a11.872 11.872 0 0 0-3.14 8.776c.276 4.62 3.048 8.684 7.298 10.532.184.092.37.277.37.554v4.62c0 .554.461 1.016 1.015 1.016h7.021c.555 0 1.017-.462 1.017-1.017V41.91c0-.277.184-.462.37-.554 3.048-1.293 5.357-3.695 6.558-6.744a12.1 12.1 0 0 0-.184-9.33c-2.033-4.62-6.837-7.576-11.825-7.299Zm-3.973 34.551h2.033v1.663c0 .555.37.924.923.924h3.326c.555 0 .924-.37.924-.924v-1.663h2.032c.278 0 .555-.277.555-.554v-1.386H45.199v1.386c0 .277.185.554.554.554Zm-27.16 41.018h18.199c.092 0 .277-.092.185-.277a.706.706 0 0 0 .184-.462 7.372 7.372 0 0 1 4.065-6.836L66.17 73.689a9.076 9.076 0 0 0 4.711-5.081l3.049-8.037c.37-.924.277-1.94-.093-2.772-.369-.831-1.108-1.478-2.032-1.847l-.185-.093a4.04 4.04 0 0 0-4.526 1.848l-3.05 5.266c-1.015 1.94-2.678 3.51-4.71 4.25L43.535 72.95c-.647.277-1.386.092-1.94-.37a1.53 1.53 0 0 1-.462-1.108c0-.462.185-.924.462-1.201.185-.185.37-.277.554-.37l6.19-2.679c.924-.277 1.57-1.016 1.94-1.847.37-.924.37-1.848 0-2.772l-.093-.277c-.923-1.57-2.771-2.31-4.434-1.755l-12.287 3.695c-3.88 1.109-7.02 3.972-8.591 7.76l-1.479 3.788c-.923 2.31-1.755 4.711-2.494 7.02l-2.864 9.886c-.092.185 0 .37.093.554a.508.508 0 0 0 .462.277Zm17.552-1.2H19.424l2.68-9.054c.646-2.31 1.477-4.62 2.401-6.929l1.478-3.788c1.386-3.51 4.25-6.097 7.853-7.113l12.287-3.695c1.2-.37 2.402.184 2.956 1.2v.185a1.956 1.956 0 0 1 0 1.756c-.277.554-.74.924-1.294 1.2l-6.19 2.68c-.075.05-.158.101-.245.154-.227.14-.477.291-.678.492-.554.555-.924 1.294-.831 2.033.092.739.37 1.478.923 2.032.924.832 2.125 1.109 3.234.647l15.797-5.728c2.31-.924 4.25-2.587 5.358-4.804l3.05-5.173c.646-1.109 1.847-1.663 3.048-1.293l.185.092c.646.185 1.108.647 1.385 1.2.277.648.277 1.294.093 1.849l-3.049 8.037c-.739 1.94-2.217 3.51-4.065 4.434L40.857 85.052c-2.772 1.386-4.62 4.25-4.712 7.298Z" class="-path--primary" fill="#083176"/>
</svg>
