<svg id="icon-business-lower-costs-euro" viewBox="0 0 96 96" xmlns="http://www.w3.org/2000/svg">
  <path fill-rule="evenodd" d="M28.57 31.776c0-.677-.55-1.226-1.23-1.226H14.446c-.68 0-1.23.549-1.23 1.226V88.3c0 .677.55 1.225 1.23 1.225H27.34c.68 0 1.23-.548 1.23-1.225V31.776Zm21.838 15.508c.68 0 1.23.55 1.23 1.226V88.3c0 .677-.55 1.225-1.23 1.225H37.514c-.68 0-1.23-.548-1.23-1.225V48.51c0-.677.55-1.226 1.23-1.226h12.894ZM73.485 64.02c.68 0 1.23.549 1.23 1.226V88.3c0 .677-.55 1.225-1.23 1.225H60.591c-.68 0-1.23-.548-1.23-1.225V65.245c0-.677.55-1.226 1.23-1.226h12.894Z" class="-path--shadow" fill="#38C6F4"/>
  <path fill-rule="evenodd" d="M38.831 27.505a.657.657 0 1 0-.8 1.043l44.913 34.425-4.282.44a.658.658 0 0 0 .134 1.308l5.922-.608.02-.002a.658.658 0 0 0 .572-.734l-.877-7.073a.658.658 0 0 0-1.305.161l.684 5.516-44.98-34.477Z" class="-path--secondary" fill="#FF9E18"/>
  <path fill-rule="evenodd" d="M22.49 4.315c-6.174 0-11.175 4.984-11.175 11.126 0 6.143 5 11.127 11.175 11.127 6.174 0 11.174-4.984 11.174-11.127 0-6.142-5-11.126-11.174-11.126ZM10 15.441C10 8.568 15.594 3 22.49 3c6.895 0 12.49 5.568 12.49 12.441 0 6.874-5.595 12.442-12.49 12.442-6.896 0-12.49-5.568-12.49-12.442Zm1.388 19.098a.57.57 0 0 1 .573-.568h12.893a.57.57 0 0 1 .573.568v56.525a.57.57 0 0 1-.573.568H11.961a.57.57 0 0 1-.573-.569V34.54Zm.573-1.883c-1.04 0-1.889.84-1.889 1.883v56.525c0 1.043.849 1.883 1.889 1.883h12.893c1.04 0 1.889-.84 1.889-1.883V34.539a1.886 1.886 0 0 0-1.889-1.883H11.961Zm23.068 18.05a.57.57 0 0 0-.573.568v39.79a.57.57 0 0 0 .573.567h12.894a.57.57 0 0 0 .573-.568v-39.79a.57.57 0 0 0-.573-.567H35.029Zm-1.888.568c0-1.043.848-1.883 1.888-1.883h12.894c1.04 0 1.888.84 1.888 1.883v39.79a1.885 1.885 0 0 1-1.888 1.883H35.029c-1.04 0-1.888-.84-1.888-1.884v-39.79ZM58.098 67.44a.57.57 0 0 0-.573.568v23.055a.57.57 0 0 0 .573.568h12.894a.57.57 0 0 0 .573-.568V68.008a.57.57 0 0 0-.573-.568H58.098Zm-1.888.568c0-1.042.847-1.883 1.888-1.883h12.894c1.04 0 1.888.84 1.888 1.883v23.055a1.886 1.886 0 0 1-1.888 1.883H58.098c-1.04 0-1.888-.84-1.888-1.883V68.008ZM22.48 11.717c1.037.01 1.99.568 2.502 1.465l1.472-1.105a4.46 4.46 0 0 0-3.958-2.131 4.822 4.822 0 0 0-4.6 3.741h-1.489v1.37h1.247a5.79 5.79 0 0 0 0 .745v.609h-1.247v1.394h1.488a4.821 4.821 0 0 0 4.698 3.853 4.548 4.548 0 0 0 3.925-2.275l-1.432-1.05a2.961 2.961 0 0 1-2.477 1.514 2.765 2.765 0 0 1-2.654-2.05h3.53V16.41h-3.804v-.641a4.202 4.202 0 0 1 0-.713h3.789v-1.37h-3.483a2.684 2.684 0 0 1 2.493-1.97Z" class="-path--primary" fill="#083176"/>
</svg>
