<svg id="icon-people-customer" viewBox="0 0 96 96" xmlns="http://www.w3.org/2000/svg">
  <path fill-rule="evenodd" d="M30.579 25.324c0 12.958 8.746 23.486 19.274 23.486 10.529 0 19.275-10.366 19.275-23.324C69.128 12.528 60.382 2 49.853 2 39.163 2 30.58 12.366 30.58 25.324Zm-6.803 65.76H75.93c5.669 0 10.366-4.535 10.528-10.042V70.838c-.162-3.887-2.106-7.289-5.507-9.07L70.748 56.26l-3.726-2.105c-2.753-1.458-5.83-1.782-8.746-.648l-4.86 1.782c-2.267.81-4.858.81-7.126 0l-5.021-1.782c-2.916-1.134-5.993-.81-8.585.648l-3.563 1.944-10.204 5.345c-3.402 1.781-5.507 5.183-5.507 9.07v10.204c0 5.831 4.697 10.367 10.366 10.367Z" class="-path--shadow" fill="#38C6F4"/>
  <path fill-rule="evenodd" d="M28.805 27.268c0-12.733 8.577-23.154 18.619-23.154 10.047 0 18.618 10.265 18.618 22.992 0 12.736-8.417 23.153-18.618 23.153-10.047 0-18.619-10.265-18.619-22.991ZM47.424 2.802c-11.014 0-19.931 11.283-19.931 24.466 0 13.189 8.922 24.304 19.93 24.304 11.18 0 19.932-11.287 19.932-24.466 0-13.19-8.922-24.304-19.931-24.304ZM26.849 58.94l3.887-2.268c2.275-1.21 4.993-1.507 7.556-.604l5.657 2.1.004.002c2.253.866 4.845.867 7.1.002l5.498-1.94c2.594-.916 5.302-.753 7.542.591l.009.005 4.064 2.276 10.704 5.677.007.003c3.001 1.501 4.82 4.665 4.82 7.998v11.662c0 4.806-4.065 8.9-9.224 8.9H20.375c-4.983 0-9.063-4.08-9.063-9.062V72.62c0-3.314 1.805-6.336 4.84-8.007l10.697-5.673Zm58.16 25.504c0 5.537-4.642 10.174-10.464 10.212h-54.17C14.667 94.656 10 89.99 10 84.282V72.62c0-3.812 2.082-7.267 5.523-9.16l.009-.005 10.678-5.662 3.887-2.267.011-.006c2.581-1.377 5.687-1.725 8.626-.688l.01.004 5.676 2.108a8.724 8.724 0 0 0 6.17 0l.008-.003 5.516-1.947c2.91-1.027 6.029-.868 8.646.699l4.034 2.259 10.677 5.662c3.473 1.74 5.539 5.376 5.539 9.168v11.662Z" class="-path--primary" fill="#083176"/>
</svg>
