<svg id="icon-products-lumen-edge-orchestrator" viewBox="0 0 96 96" xmlns="http://www.w3.org/2000/svg">
  <path fill-rule="evenodd" d="M14.959 20.646c-5.004 0-9.063 4.04-9.063 9.029v48.248c0 4.988 4.06 9.028 9.063 9.028h58.774c5.004 0 9.063-4.04 9.063-9.028V29.675c0-4.989-4.06-9.029-9.063-9.029H14.96Zm-4.628 9.988c0-.732.597-1.33 1.337-1.33s1.337.598 1.337 1.33c0 .732-.596 1.33-1.337 1.33-.74 0-1.337-.598-1.337-1.33Zm5.816 0c0-.732.597-1.33 1.337-1.33s1.337.598 1.337 1.33c0 .732-.596 1.33-1.337 1.33-.74 0-1.337-.598-1.337-1.33Zm5.816 0c0-.732.596-1.33 1.337-1.33.74 0 1.337.598 1.337 1.33 0 .732-.596 1.33-1.337 1.33-.74 0-1.337-.598-1.337-1.33Zm28.75 6.784.615-4.656h5.937l.615 4.656a.557.557 0 0 0 .333.44c.738.315 1.437.715 2.081 1.193a.557.557 0 0 0 .542.067l4.443-1.812 2.96 5.127-3.744 2.847a.557.557 0 0 0-.215.518c.06.442.09.888.09 1.334-.009.404-.04.808-.09 1.208a.557.557 0 0 0 .213.513l3.721 2.846-2.986 5.111-4.285-1.792a.557.557 0 0 0-.551.07 9.925 9.925 0 0 1-2.242 1.28.557.557 0 0 0-.341.443l-.592 4.53H51.25l-.6-4.577a.557.557 0 0 0-.331-.439 10.12 10.12 0 0 1-2.244-1.333.557.557 0 0 0-.555-.078l-4.285 1.757-2.96-5.126 3.76-2.847a.557.557 0 0 0 .217-.506 9.798 9.798 0 0 1 .097-2.84.557.557 0 0 0-.207-.54l-3.56-2.751 2.982-5.115 4.57 1.896a.557.557 0 0 0 .523-.052c.543-.364 1.12-.676 1.723-.932a.557.557 0 0 0 .334-.44Zm3.6 3.96c-3.156 0-5.718 2.549-5.718 5.697 0 3.116 2.51 5.644 5.62 5.696a.557.557 0 0 0 .098.009c3.157-.005 5.717-2.556 5.717-5.705 0-3.148-2.562-5.697-5.718-5.697ZM21.09 54.394l.387-2.973h3.679l.393 2.974a.557.557 0 0 0 .342.443c.482.196.938.451 1.357.759.156.115.362.14.542.065l2.84-1.173 1.83 3.17-2.388 1.825a.557.557 0 0 0-.214.514c.037.29.057.581.058.873v.004c.003.273-.01.547-.036.82-.02.191.062.38.216.497l2.377 1.814-1.87 3.165-2.757-1.15a.557.557 0 0 0-.555.075 6.123 6.123 0 0 1-1.447.836.557.557 0 0 0-.342.443l-.379 2.895H21.44l-.42-2.933a.557.557 0 0 0-.331-.433 6.462 6.462 0 0 1-1.453-.868.557.557 0 0 0-.559-.078l-2.705 1.118-1.833-3.179 2.376-1.833a.557.557 0 0 0 .214-.499 6.712 6.712 0 0 1 .065-1.872.557.557 0 0 0-.21-.539L14.3 57.402l1.868-3.162 2.928 1.253a.557.557 0 0 0 .529-.049 6.794 6.794 0 0 1 1.13-.61.557.557 0 0 0 .335-.44Zm2.21 2.429a4.022 4.022 0 0 0-4.029 4.015A4.022 4.022 0 0 0 23.3 64.85a4.022 4.022 0 0 0 4.029-4.014 4.022 4.022 0 0 0-4.03-4.015Zm21.4 14.996.292-2.212h2.638l.291 2.212a.557.557 0 0 0 .336.44 5.16 5.16 0 0 1 1.04.589c.156.114.361.14.54.065l2.106-.867 1.32 2.297-1.774 1.354a.557.557 0 0 0-.214.514c.028.215.042.433.043.65a6.05 6.05 0 0 1-.064.566.557.557 0 0 0 .21.53l1.76 1.352-1.327 2.298-2.042-.85a.557.557 0 0 0-.552.072c-.34.26-.713.472-1.11.634a.557.557 0 0 0-.343.444l-.277 2.14H44.93l-.283-2.164a.557.557 0 0 0-.336-.44 4.81 4.81 0 0 1-1.118-.663.557.557 0 0 0-.558-.078l-2.017.835-1.314-2.295 1.782-1.355a.557.557 0 0 0 .218-.476 4.485 4.485 0 0 1 .001-.562c.001-.295.028-.59.079-.88a.557.557 0 0 0-.213-.541l-1.69-1.275 1.33-2.294 2.177.912a.557.557 0 0 0 .53-.055c.264-.181.546-.334.842-.454a.557.557 0 0 0 .342-.443Zm1.612 1.783a3.25 3.25 0 0 0-3.264 3.235 3.25 3.25 0 0 0 3.245 3.254h.01a3.25 3.25 0 0 0 3.256-3.244 3.25 3.25 0 0 0-3.246-3.245Z" class="-path--shadow" fill="#38C6F4"/>
  <path fill-rule="evenodd" d="M11.668 29.304c-.74 0-1.337.598-1.337 1.33 0 .732.597 1.33 1.337 1.33.741 0 1.338-.598 1.338-1.33 0-.732-.597-1.33-1.338-1.33Zm-2.45 1.33c0-1.352 1.1-2.443 2.45-2.443a2.447 2.447 0 0 1 2.451 2.443c0 1.351-1.1 2.443-2.45 2.443a2.447 2.447 0 0 1-2.451-2.443Zm8.266-1.33c-.74 0-1.337.598-1.337 1.33 0 .732.597 1.33 1.337 1.33s1.337-.598 1.337-1.33c0-.732-.596-1.33-1.337-1.33Zm-2.45 1.33c0-1.352 1.099-2.443 2.45-2.443a2.447 2.447 0 0 1 2.451 2.443c0 1.351-1.1 2.443-2.45 2.443a2.447 2.447 0 0 1-2.451-2.443Zm6.93 0c0-.732.596-1.33 1.336-1.33.74 0 1.337.598 1.337 1.33 0 .732-.596 1.33-1.337 1.33-.74 0-1.337-.598-1.337-1.33ZM23.3 28.19a2.447 2.447 0 0 0-2.45 2.443c0 1.351 1.099 2.443 2.45 2.443a2.447 2.447 0 0 0 2.45-2.443c0-1.352-1.098-2.443-2.45-2.443Z" class="-path--secondary" fill="#FF9E18"/>
  <path fill-rule="evenodd" d="M83.351 20.915a11.25 11.25 0 0 0-2.306.242c-.653-9.58-8.771-17.035-18.5-16.81-7.32.17-13.799 4.708-16.453 11.466a14.3 14.3 0 0 0-13.92 3.627.658.658 0 0 0 .927.932 12.986 12.986 0 0 1 13.19-3.126c.339.11.705-.07.824-.406 2.318-6.564 8.475-11.016 15.463-11.178 9.282-.214 16.976 7.105 17.192 16.342a.658.658 0 0 0 .84.616 9.935 9.935 0 0 1 2.746-.39h.001c5.589-.02 10.13 4.474 10.152 10.033.02 5.56-4.49 10.087-10.078 10.107a.658.658 0 1 0 .005 1.315c6.31-.023 11.41-5.136 11.388-11.427-.024-6.29-5.161-11.366-11.47-11.344Zm0 0 .002.657-.003-.657h.001ZM2.493 37.209H38.61a.658.658 0 0 0 0-1.315H2.493V29.7c0-2.751 2.24-4.986 5.009-4.986h66.176c2.768 0 5.008 2.235 5.008 4.986v6.195h-8.749a.658.658 0 1 0 0 1.315h8.75v48.148c0 2.751-2.24 4.986-5.01 4.986H7.503c-2.769 0-5.009-2.235-5.009-4.986V37.21Zm-1.315-.657v-6.853c0-3.483 2.834-6.3 6.324-6.3h66.176c3.49 0 6.323 2.817 6.323 6.3v6.75a.669.669 0 0 1 0 .206v48.702c0 3.483-2.833 6.3-6.323 6.3H7.502c-3.49 0-6.324-2.817-6.324-6.3V36.552Zm42.736 32.412a.658.658 0 0 1 .652-.572h3.615c.33 0 .608.244.652.572l.307 2.335c.215.106.424.225.626.355l2.228-.918a.658.658 0 0 1 .82.28l1.808 3.144a.657.657 0 0 1-.171.85L52.58 76.44a6.363 6.363 0 0 1 .013.48 7.427 7.427 0 0 1-.026.305l1.846 1.419a.657.657 0 0 1 .169.85l-1.815 3.144a.658.658 0 0 1-.822.278l-2.157-.897c-.23.153-.47.29-.718.41l-.292 2.259a.658.658 0 0 1-.653.573h-3.622a.658.658 0 0 1-.652-.572l-.3-2.289a6.023 6.023 0 0 1-.734-.434l-2.126.88a.658.658 0 0 1-.823-.281L38.07 79.42a.657.657 0 0 1 .173-.85l1.902-1.446c0-.1.003-.2.009-.299.001-.221.014-.443.038-.662l-1.773-1.339a.658.658 0 0 1-.173-.855l1.823-3.143a.658.658 0 0 1 .823-.277l2.31.967c.132-.079.268-.152.406-.22l.307-2.332Zm1.229.743-.28 2.124a.657.657 0 0 1-.404.523c-.289.118-.565.267-.822.444a.657.657 0 0 1-.627.064l-2.094-.877-1.241 2.14 1.618 1.221a.658.658 0 0 1 .252.64 5.063 5.063 0 0 0-.078.899c-.01.173-.01.346 0 .52a.658.658 0 0 1-.259.561l-1.71 1.302 1.225 2.14 1.935-.8a.657.657 0 0 1 .66.092c.334.264.702.483 1.094.648.215.091.366.29.396.52l.272 2.077h2.467l.266-2.051a.657.657 0 0 1 .404-.525c.39-.159.755-.367 1.087-.621a.657.657 0 0 1 .652-.085l1.96.816 1.239-2.145-1.69-1.299a.657.657 0 0 1-.248-.626c.029-.183.05-.368.062-.553 0-.211-.015-.423-.042-.633a.657.657 0 0 1 .253-.607l1.704-1.3-1.232-2.144-2.024.834a.657.657 0 0 1-.638-.078 5.062 5.062 0 0 0-1.02-.577.658.658 0 0 1-.396-.52l-.28-2.124h-2.461Zm1.229 5.109a2.036 2.036 0 0 0-2.048 2.024 2.036 2.036 0 0 0 2.035 2.036h.006c1.13 0 2.042-.912 2.042-2.03a2.036 2.036 0 0 0-2.035-2.03Zm-3.363 2.02a3.351 3.351 0 0 1 3.366-3.336 3.35 3.35 0 0 1 3.347 3.346 3.35 3.35 0 0 1-3.357 3.345H46.356a3.351 3.351 0 0 1-3.347-3.355Zm7.706-45.413a.658.658 0 0 0-.652.572l-.63 4.774c-.44.205-.868.436-1.279.694l-4.7-1.95a.658.658 0 0 0-.82.276l-3.472 5.957a.658.658 0 0 0 .166.852l3.636 2.81c-.115.8-.142 1.611-.08 2.418l-3.858 2.923a.658.658 0 0 0-.173.853l3.449 5.973a.657.657 0 0 0 .819.28l4.387-1.8c.584.427 1.207.797 1.861 1.105l.615 4.698a.657.657 0 0 0 .652.572h6.945c.33 0 .609-.245.652-.572l.606-4.643c.65-.293 1.27-.647 1.853-1.058l4.392 1.837c.304.127.655.01.822-.275l3.48-5.957a.658.658 0 0 0-.169-.854l-3.815-2.918c.03-.32.05-.642.056-.963v-.014c0-.373-.018-.747-.055-1.118l3.836-2.917a.658.658 0 0 0 .172-.852l-3.449-5.973a.658.658 0 0 0-.818-.28l-4.556 1.86a11.52 11.52 0 0 0-1.678-.963l-.63-4.775a.658.658 0 0 0-.652-.572h-6.913Zm-.027 5.884.604-4.569h5.76l.603 4.569c.03.23.18.427.393.518.731.313 1.423.71 2.061 1.182a.658.658 0 0 0 .64.08l4.361-1.78 2.872 4.975-3.674 2.793a.658.658 0 0 0-.253.611c.058.438.088.879.088 1.32-.008.4-.038.8-.089 1.196a.658.658 0 0 0 .253.607l3.65 2.79-2.897 4.96-4.203-1.759a.658.658 0 0 0-.652.083 9.825 9.825 0 0 1-2.218 1.267.658.658 0 0 0-.404.523l-.58 4.442h-5.79l-.588-4.489a.658.658 0 0 0-.391-.518 10.02 10.02 0 0 1-2.222-1.32.657.657 0 0 0-.655-.092l-4.203 1.723-2.872-4.972 3.689-2.794a.658.658 0 0 0 .256-.597 9.698 9.698 0 0 1 .096-2.811.658.658 0 0 0-.245-.638L40.59 41.91l2.892-4.962 4.488 1.862a.657.657 0 0 0 .619-.06c.538-.361 1.109-.67 1.706-.924a.658.658 0 0 0 .395-.52Zm-1.004 9.643c0-2.473 2.014-4.482 4.503-4.482 2.49 0 4.504 2.01 4.504 4.482 0 2.443-1.962 4.435-4.41 4.49a.664.664 0 0 0-.094-.007c-2.49 0-4.503-2.01-4.503-4.483Zm4.504 5.806a.66.66 0 0 1-.108-.01c-3.161-.056-5.711-2.627-5.711-5.796 0-3.204 2.608-5.797 5.818-5.797 3.211 0 5.819 2.593 5.819 5.797 0 3.206-2.606 5.8-5.818 5.806Zm-33.79-1.977a.658.658 0 0 1 .652-.573h4.656c.33 0 .609.244.652.571l.409 3.091c.33.155.649.333.953.534l2.959-1.223a.657.657 0 0 1 .82.28l2.32 4.015a.658.658 0 0 1-.17.852l-2.484 1.897a8.742 8.742 0 0 1 .014 1.22l2.486 1.897c.265.202.336.57.167.857l-2.367 4.008a.658.658 0 0 1-.82.273l-2.86-1.193a7.35 7.35 0 0 1-1.065.614l-.394 3.012a.658.658 0 0 1-.652.572H21.02a.658.658 0 0 1-.651-.564l-.439-3.057a7.678 7.678 0 0 1-1.073-.64l-2.81 1.162a.658.658 0 0 1-.821-.28l-2.32-4.023a.658.658 0 0 1 .168-.85l2.48-1.911a7.938 7.938 0 0 1 .047-1.44l-2.368-1.815a.657.657 0 0 1-.166-.856l2.367-4.008a.658.658 0 0 1 .826-.27l3.058 1.31c.22-.134.447-.256.678-.368l.403-3.094Zm1.23.742-.376 2.885a.658.658 0 0 1-.396.521c-.389.165-.762.366-1.113.601a.657.657 0 0 1-.625.058l-2.846-1.218-1.777 3.008 2.213 1.697c.194.15.29.395.247.636a6.613 6.613 0 0 0-.065 1.845.657.657 0 0 1-.252.59l-2.307 1.778 1.745 3.026 2.624-1.084a.658.658 0 0 1 .66.092c.436.346.917.634 1.43.855.21.09.358.284.39.51l.409 2.847h3.508l.367-2.807a.657.657 0 0 1 .404-.524c.51-.208.989-.484 1.423-.822a.658.658 0 0 1 .657-.087l2.675 1.115 1.78-3.012-2.306-1.76a.658.658 0 0 1-.255-.588c.026-.269.038-.538.036-.809v-.003a6.898 6.898 0 0 0-.058-.861.658.658 0 0 1 .253-.608l2.318-1.77-1.742-3.017-2.759 1.14a.657.657 0 0 1-.64-.078 6.254 6.254 0 0 0-1.335-.747.657.657 0 0 1-.403-.522l-.382-2.887h-3.502Zm1.734 6.515a2.808 2.808 0 0 0-2.814 2.8c0 1.545 1.257 2.801 2.814 2.801a2.808 2.808 0 0 0 2.815-2.8c0-1.545-1.258-2.8-2.815-2.8Zm-4.13 2.8a4.123 4.123 0 0 1 4.13-4.115c2.279 0 4.13 1.84 4.13 4.116a4.123 4.123 0 0 1-4.13 4.115 4.123 4.123 0 0 1-4.13-4.115Z" class="-path--primary" fill="#083176"/>
</svg>
