<svg id="icon-business-consulting" viewBox="0 0 96 96" xmlns="http://www.w3.org/2000/svg">
  <path class="-path--shadow" fill="#38C6F4" d="M50.92 87H14.2a7.32 7.32 0 0 1-7.34-7.29v-7.25a7.3 7.3 0 0 1 3.88-6.43l7.13-3.83 2.55-1.4a7.35 7.35 0 0 1 6.04-.52l3.58 1.28c1.62.59 3.4.59 5.01 0l3.41-1.26a7.38 7.38 0 0 1 6.14.48l2.57 1.44 7.2 3.84a7.3 7.3 0 0 1 3.88 6.44v7.23c0 4.04-3.28 7.3-7.33 7.31v-.03Zm-18.4-30.68c-7.51 0-13.63-7.24-13.63-16.13 0-8.89 6.12-16.12 13.62-16.12 7.51 0 13.62 7.2 13.62 16.12 0 8.93-6.1 16.13-13.62 16.13Z"/>
  <path class="-path--secondary" fill="#FF9E18" d="M89.06 26.38c0-8.17-6.63-14.8-14.83-14.83h-.09v14.69l14.92.14Z"/>
  <path class="-path--primary" fill="#083176" d="M71.31 13.63v15.4H86.8v1c0 9.95-7.32 18-16.46 18a18.09 18.09 0 0 1-18.1-18c0-9 8.16-16.4 18.08-16.4h1ZM3.65 63.41a.59.59 0 1 1 0 1.18A3.64 3.64 0 0 1 0 60.95V8.64A3.64 3.64 0 0 1 3.65 5h88.7A3.65 3.65 0 0 1 96 8.64v52.3a3.65 3.65 0 0 1-3.65 3.63H61.57a.59.59 0 0 1 0-1.17h30.78c1.37 0 2.48-1.1 2.48-2.47V8.63a2.47 2.47 0 0 0-2.48-2.46H3.65a2.47 2.47 0 0 0-2.48 2.47v52.3c0 1.37 1.11 2.47 2.48 2.47Zm7.12 26.9A7.34 7.34 0 0 1 3.42 83v-8.06c0-2.7 1.49-5.18 3.87-6.45l7.38-3.95 2.75-1.57a7.37 7.37 0 0 1 6.06-.5l3.98 1.41c1.36.5 2.86.5 4.22 0l3.8-1.4a7.38 7.38 0 0 1 6.15.48l2.77 1.55 7.46 3.98a7.33 7.33 0 0 1 3.88 6.46V83a7.34 7.34 0 0 1-7.34 7.33H10.76ZM54.57 83v-8.05a6.16 6.16 0 0 0-3.26-5.43l-7.48-3.98-2.77-1.56a6.2 6.2 0 0 0-5.18-.4l-3.8 1.4c-1.62.6-3.4.6-5.02 0l-3.97-1.4a6.2 6.2 0 0 0-5.1.42l-2.75 1.56-7.4 3.96a6.14 6.14 0 0 0-3.25 5.42v8.06c0 3.4 2.76 6.15 6.18 6.15h37.86a6.16 6.16 0 0 0 5.94-6.15ZM29.58 60.34c-7.7 0-13.9-7.68-13.9-17.07 0-9.4 6.2-17.08 13.9-17.08S43.5 33.88 43.5 43.27c0 9.39-6.2 17.07-13.9 17.07Zm0-1.17c7 0 12.74-7.11 12.74-15.9 0-8.8-5.75-15.9-12.74-15.9s-12.73 7.1-12.73 15.9 5.74 15.9 12.73 15.9Z"/>
</svg>
