<svg id="icon-products-private-fiber-network" viewBox="0 0 96 96" xmlns="http://www.w3.org/2000/svg">
  <path fill-rule="evenodd" d="M35.762 16.931a.43.43 0 0 0-.43.43v48.295c0 .237.192.43.43.43H67.88a.43.43 0 0 0 .395-.26l.207-.478a.43.43 0 0 0 .036-.171V17.36a.43.43 0 0 0-.43-.43H35.762ZM7.72 39.04c-3.104-.054-5.665 2.405-5.72 5.492-.054 3.087 2.419 5.634 5.523 5.688 3.103.055 5.664-2.403 5.72-5.49v-.099c.013-3.055-2.451-5.55-5.523-5.59Zm76.038 5.492c.055-3.087 2.616-5.546 5.72-5.492 3.071.041 5.536 2.536 5.522 5.591v.1c-.056 3.086-2.616 5.544-5.72 5.49-3.103-.055-5.576-2.602-5.522-5.689Z" class="-path--shadow" fill="#38C6F4"/>
  <path d="M29.9 2c-3.105-.053-5.665 2.405-5.72 5.493-.055 3.087 2.417 5.634 5.522 5.688 3.104.054 5.665-2.404 5.72-5.492v-.006a.345.345 0 0 0 0-.091C35.43 4.539 32.968 2.046 29.898 2Z" class="-path--secondary" fill="#FF9E18"/>
  <path fill-rule="evenodd" d="M68.105 2C65 1.952 62.443 4.415 62.392 7.5c-.05 3.088 2.426 5.631 5.53 5.681 3.104.05 5.661-2.412 5.712-5.498v-.091c.009-3.057-2.458-5.55-5.53-5.591Zm3.155 69.998c-5.725 0-10.36 4.614-10.36 10.298 0 5.685 4.635 10.3 10.36 10.3 5.724 0 10.358-4.615 10.358-10.3 0-5.684-4.634-10.298-10.358-10.298ZM59.597 82.296c0-6.41 5.225-11.602 11.663-11.602 6.437 0 11.662 5.191 11.662 11.602 0 6.412-5.225 11.603-11.662 11.603-6.438 0-11.663-5.191-11.663-11.603Zm6.56-2.543c0-.36.292-.652.652-.652h.635v-1.644a.65.65 0 0 1 .008-.1l.644.1-.644-.101v-.003l.001-.004.002-.012.007-.033a2.18 2.18 0 0 1 .023-.106 3.674 3.674 0 0 1 .662-1.341c.592-.754 1.627-1.447 3.337-1.447 1.71 0 2.746.693 3.34 1.446a3.69 3.69 0 0 1 .666 1.34 2.26 2.26 0 0 1 .03.139l.003.011v.007l-.643.104.644-.103a.675.675 0 0 1 .008.103v1.644h.635c.36 0 .652.292.652.652v8.712c0 .36-.292.652-.652.652H66.81a.652.652 0 0 1-.652-.652v-8.712Zm8.071-.652h-5.48v-1.578l.003-.013a2.371 2.371 0 0 1 .421-.848c.349-.443 1.007-.948 2.312-.948s1.966.505 2.317.95a2.384 2.384 0 0 1 .424.848l.003.012V79.1Zm-6.767 1.304v7.409h8.054v-7.41h-8.054Zm4.804 3.354a.8.8 0 0 0-.78-1 .803.803 0 0 0-.781 1h-.096v2.592h1.802v-2.592h-.145ZM24.18 81.37c.055-3.087 2.615-5.546 5.72-5.491 3.068.04 5.53 2.53 5.521 5.582a.41.41 0 0 1 0 .1v.006c-.054 3.087-2.615 5.546-5.72 5.492-3.104-.055-5.576-2.602-5.521-5.689ZM61.22 5.725a40.2 40.2 0 0 0-12.197-1.874 40.5 40.5 0 0 0-12.215 1.866 7.514 7.514 0 0 0-.573-1.47 41.91 41.91 0 0 1 25.55 0 7.789 7.789 0 0 0-.564 1.478Zm27.76 31.762h.498a8.7 8.7 0 0 1 1.13.099 42.455 42.455 0 0 0-16.151-26.757c-.223.49-.502.953-.83 1.38A40.872 40.872 0 0 1 88.98 37.486ZM24.42 12.208A40.883 40.883 0 0 0 9.04 37.62a6.452 6.452 0 0 0-1.32-.14h-.275a42.467 42.467 0 0 1 16.084-26.6c.248.473.546.919.889 1.33ZM7.72 51.807a7.863 7.863 0 0 0 1.32-.132A40.832 40.832 0 0 0 24.312 76.97a7.305 7.305 0 0 0-.83 1.37A42.441 42.441 0 0 1 7.446 51.808h.274Zm81.26 0h.498a7.438 7.438 0 0 0 1.13-.108A42.345 42.345 0 0 1 80.56 72.742a15.802 15.802 0 0 0-1.212-1.016 40.713 40.713 0 0 0 9.632-19.92Zm-39.957 33.62c-4.169 0-8.312-.645-12.282-1.908-.15.505-.356.992-.614 1.453a41.786 41.786 0 0 0 22.262.966 13.825 13.825 0 0 1-.34-1.544 39.957 39.957 0 0 1-9.026 1.032ZM29.065 19.524c0-.36.292-.652.652-.652h33.945c.36 0 .652.292.652.652v50.706a.652.652 0 0 1-.652.652l-33.945-.008a.652.652 0 0 1-.652-.652V19.525Zm1.303.652V69.57l10.48.003V56.299c0-.36.291-.651.651-.651h10.38c.36 0 .652.291.652.651v13.278l10.48.002V20.177H30.367Zm22.155 24.99c0-.36.291-.652.651-.652h6.137c.36 0 .652.292.652.652v5.74c0 .36-.292.651-.652.651h-6.136a.652.652 0 0 1-.652-.651v-5.74Zm1.303.652v4.436h4.833v-4.436h-4.833ZM43.66 44.515a.652.652 0 0 0-.652.652v5.74c0 .36.292.651.652.651h6.443c.36 0 .652-.291.652-.651v-5.74a.652.652 0 0 0-.652-.652H43.66Zm.651 5.74v-4.436h5.14v4.436h-5.14Zm8.213-15.064c0-.36.291-.652.651-.652h6.137c.36 0 .652.292.652.652v5.74c0 .36-.292.651-.652.651h-6.136a.652.652 0 0 1-.652-.651v-5.74Zm1.303.652v4.436h4.833v-4.436h-4.833ZM43.66 34.539a.652.652 0 0 0-.652.652v5.74c0 .36.292.651.652.651h6.443c.36 0 .652-.292.652-.651v-5.74a.652.652 0 0 0-.652-.652H43.66Zm.651 5.74v-4.436h5.14v4.436h-5.14Zm8.213-15.08c0-.36.291-.652.651-.652h6.137c.36 0 .652.291.652.651v5.74c0 .36-.292.652-.652.652h-6.136a.652.652 0 0 1-.652-.652v-5.74Zm1.303.651v4.436h4.833V25.85h-4.833ZM43.66 24.547a.652.652 0 0 0-.652.651v5.74c0 .36.292.652.652.652h6.443c.36 0 .652-.292.652-.652v-5.74a.652.652 0 0 0-.652-.651H43.66Zm.651 5.74V25.85h5.14v4.436h-5.14Zm-10.894 14.88c0-.36.292-.652.652-.652h6.443c.36 0 .652.292.652.652v5.74c0 .36-.292.651-.652.651h-6.443a.652.652 0 0 1-.652-.651v-5.74Zm1.304.652v4.436h5.14v-4.436h-5.14Zm-.652-11.28a.652.652 0 0 0-.652.652v5.74c0 .36.292.651.652.651h6.443c.36 0 .652-.292.652-.651v-5.74a.652.652 0 0 0-.652-.652h-6.443Zm.652 5.74v-4.436h5.14v4.436h-5.14Zm-1.304-15.08c0-.36.292-.652.652-.652h6.443c.36 0 .652.291.652.651v5.74c0 .36-.292.652-.652.652h-6.443a.652.652 0 0 1-.652-.652v-5.74Zm1.304.651v4.436h5.14V25.85h-5.14Zm7.431 43.614V56.95h9.076v12.513h-9.076Z" class="-path--primary" fill="#083176"/>
</svg>
