<svg id="icon-products-sip-voice-calling" viewBox="0 0 96 96" xmlns="http://www.w3.org/2000/svg">
  <path fill-rule="evenodd" d="M61.315 26.86c.1-.131.256-.21.422-.208l5.974.024c.29.002.523.237.523.527v3.974h3.357c.29 0 .526.235.526.526v4.078h3.087a.526.526 0 0 1 .526.526V46.222a26.023 26.023 0 0 0-1.052-1.527v-.648c-.165-.116-.334-.165-.508-.216-.248-.072-.508-.148-.787-.428l-3.883 1.5c-3.826-3.684-6.057-11.983-6.947-15.864a.526.526 0 0 1-.887-.215l-.436-1.5a.527.527 0 0 1 .085-.463Zm-4.62 5.068h.162v4.375l-.163-4.375Zm-2.896 4.312a.526.526 0 1 0-1.052 0v11.363H39.96v-11.3a.526.526 0 0 0-.526-.526H17.532a.526.526 0 0 0-.526.526v53c0 .29.235.526.526.526h24.292c.057 0 .112-.01.164-.026H52.93a.524.524 0 0 0 .683 0h.102c.09.075.207.12.334.12h21.154a.526.526 0 0 0 .526-.526V54.272l-1.052 1.075v.855l-2.091 2.1c-6.073-5.2-10.852-11.7-13.938-19 0 0-.398-1.1-.996-2.9H53.8v-.162Z" class="-path--shadow" fill="#38C6F4"/>
  <path fill-rule="evenodd" d="M62.863 29.853h12.511c4.38 0 8.163-3.5 8.363-8 .1-2.2-.697-4.4-2.19-6-1.494-1.6-3.585-2.6-5.775-2.7H75.075c-.398-.1-.996 0-1.493.1-.598-6.9-6.471-12.2-13.34-12-5.277.1-9.857 3.4-11.848 8.2-5.277-1.3-10.752 1.6-12.445 6.8-.896 2.7-.597 5.4.598 7.9 1.194 2.5 3.385 4.3 5.973 5.2.996.3 2.09.5 3.186.5h9.39a41.72 41.72 0 0 0 .505 3.318v2.582h-3.324c-.398 0-.697.3-.697.7v4h-2.887c-.399 0-.697.3-.697.7v11H35.55v-11.1c0-.4-.299-.7-.697-.7H12.952c-.398 0-.697.3-.697.7v53c0 .4.299.7.697.7h57.643c.398 0 .697-.3.597-.7v-35.27l.422.362a.657.657 0 0 0 .88-.027l6.473-6.192a.658.658 0 0 0 .16-.71 26.462 26.462 0 0 0-5.7-8.953.658.658 0 0 0-.713-.155l-1.522.597v-2.652c0-.4-.298-.7-.696-.7h-2.887v-3.9c0-.4-.3-.7-.697-.7h-2.353a54.48 54.48 0 0 1-.773-2.424v-1.376a.658.658 0 0 0-.563-.65 68.472 68.472 0 0 1-.36-1.45Zm-.273-1.2h12.485c3.883.2 7.168-2.8 7.367-6.7.1-1.9-.597-3.7-1.792-5-1.294-1.4-2.986-2.2-4.878-2.3H75.174c-.696 0-1.294.1-1.99.3-.2.1-.399 0-.598-.1a.55.55 0 0 1-.299-.5c-.199-6.6-5.575-11.8-12.046-11.6-4.878.1-9.259 3.3-10.852 7.9-.1.3-.497.5-.796.4-.896-.4-1.892-.5-2.788-.5-3.783 0-7.267 2.4-8.562 6.2-.796 2.3-.597 4.7.498 6.9 1.096 2.2 2.987 3.8 5.277 4.5.851.285 1.793.39 2.653.485l.134.015h9.175c-.335-4.143-.058-8.974 1.79-13.599a.657.657 0 0 1 .637-.413l8.053.325c.24.01.456.15.563.365l-.59.292.59-.292.001.002.002.004.005.011a3.468 3.468 0 0 1 .073.162c.047.11.11.27.187.48.152.422.35 1.051.55 1.9.397 1.7.793 4.282.814 7.858a.658.658 0 0 1-.468.633l-4.772 1.436c.044.222.103.504.175.836Zm-10.612 64.7h-5.675a.712.712 0 0 0-.37.1h-.127v-10.6c0-.4-.3-.7-.697-.7h-6.571c-.398 0-.697.3-.697.7v10.6H31.37V53.968c.09-.115.16-.257.199-.415v-.1h17.114a.28.28 0 0 0 .01 0H51.978v39.9Zm1.294 0h2.29v-10.5c0-.4.299-.7.697-.7h6.57c.399 0 .698.3.698.7v10.5h6.371v-35.73a51.302 51.302 0 0 1-6.627-7.47H60.74a.682.682 0 0 1-.697-.7v-4.34a51.322 51.322 0 0 1-2.56-5.241l-.003-.005.603-.248-.603.248v-.001l-.002-.003-.003-.008-.012-.031a1.93 1.93 0 0 0-.01-.024l-.036-.093c-.04-.1-.095-.25-.165-.441a34.562 34.562 0 0 1-.69-2.128.655.655 0 0 1-.572.015h-3.115v3.9c.085.343-.122.612-.434.682.003.072-.029.118-.163.118H49.29v10.3h3.285c.399 0 .697.3.697.7v1.6h4.978c.398 0 .697.3.697.7v4.7c-.1.4-.398.7-.697.7h-4.978v4.9h4.978c.398 0 .697.3.697.7v4.7c-.1.4-.398.7-.697.7h-4.978v21.8Zm-23.296.1h-1.991v-10.6c0-.4-.299-.7-.697-.7h-6.57c-.399 0-.698.3-.698.7v10.6H13.65v-51.7h20.508v10.4H31.57v-3.3c0-.4-.299-.7-.697-.7h-5.376c-.398 0-.697.3-.697.7v4.7c0 .4.299.7.697.7h4.48v4.3h-4.68c-.398 0-.696.3-.696.7v4.7c0 .4.298.7.697.7h4.679v3.7h-4.68c-.398 0-.696.3-.696.7v4.6c0 .4.298.7.697.7h4.679v19.1Zm0-40.5h-3.783v-3.4h3.982v2.8a.7.7 0 0 0-.199.5v.1Zm-8.562 40.5h5.277v-9.9h-5.277v9.9Zm1.294-19.1h-5.376a.682.682 0 0 1-.697-.7v-4.6c0-.4.299-.7.697-.7h5.376c.399 0 .697.3.697.7v4.7c0 .3-.299.6-.697.6Zm-4.679-1.3h3.982v-3.4H18.03v3.4Zm-.697-8.4h5.376c.399 0 .697-.3.697-.6v-4.8c0-.4-.299-.7-.697-.7h-5.376c-.398 0-.697.3-.697.7v4.7c0 .4.299.7.697.7Zm4.68-1.3h-3.983v-3.4h3.982v3.4Zm.896-9.1H17.53a.682.682 0 0 1-.696-.7v-4.7c0-.4.298-.7.697-.7h5.376c.398 0 .697.3.697.7v4.7c-.1.4-.399.7-.697.7Zm-4.68-1.3h3.983v-3.4h-3.983v3.4Zm11.748 20.1h-3.982v-3.4h3.982v3.4Zm-3.982-9.7h3.982v-3.4h-3.982v3.4Zm18.418 20.2v9.9h-5.277v-9.9h5.277Zm-3.983-9.4h-5.376a.682.682 0 0 1-.697-.7v-4.7c0-.4.3-.7.697-.7h5.376c.399 0 .697.3.697.7v4.7c0 .4-.298.7-.697.7Zm-4.679-1.3h3.983v-3.4H35.75v3.4Zm6.87 1.3h5.575c.398 0 .697-.3.697-.7v-4.7c0-.4-.299-.7-.697-.7H42.62c-.398 0-.697.3-.697.7v4.7c0 .4.298.7.697.7Zm4.878-1.3h-4.28v-3.4h4.28v3.4Zm-7.069-8.1h-5.376a.682.682 0 0 1-.697-.7v-4.7c0-.4.3-.7.697-.7h5.376c.399 0 .697.3.697.7v4.7c0 .5-.298.7-.697.7Zm-4.679-1.3h3.983v-3.4H35.75v3.4Zm6.87 1.3h5.575c.398 0 .697-.2.697-.7v-4.7c0-.4-.299-.7-.697-.7H42.62c-.398 0-.697.3-.697.7v4.7c0 .4.298.7.697.7Zm4.878-1.3h-4.28v-3.4h4.28v3.4Zm18.816-23.379a36.527 36.527 0 0 1-1.249-2.921h1.25v2.922Zm2.876 4.416c-.718-.755-1.38-1.692-1.988-2.737h2.696v2.46l-.708.277Zm-7.854 2.8c.331.528.672 1.048 1.022 1.563h-1.022V47.29Zm.32-19.932-.647.116a.658.658 0 0 1 .458-.746l4.868-1.464c-.052-3.225-.419-5.55-.775-7.074a15.92 15.92 0 0 0-.57-1.927l-7.167-.289c-2.05 5.446-1.876 11.204-1.156 15.674a42.29 42.29 0 0 0 1.295 5.588 33.342 33.342 0 0 0 .68 1.997l.041.103.01.025.002.005a49.992 49.992 0 0 0 13.32 18.39l5.724-5.475a25.146 25.146 0 0 0-4.956-7.787l-3.515 1.378a.657.657 0 0 1-.696-.138c-2.654-2.554-4.535-7.178-5.748-11.048a67.623 67.623 0 0 1-1.702-6.628 37.996 37.996 0 0 1-.105-.544l-.006-.03-.001-.007v-.003l.647-.116Zm.576 65.995v-9.8h-5.276v9.8h5.276Zm-1.393-21.8h5.376c.298 0 .597-.3.697-.7v-4.7c0-.4-.299-.7-.697-.7h-5.376c-.399 0-.697.3-.697.7v4.7c0 .4.298.7.697.7Zm4.679-1.3h-3.982v-3.4h3.982v3.4Zm.697-9.7h-5.376a.682.682 0 0 1-.697-.7v-4.7c0-.4.298-.7.697-.7h5.376c.398 0 .697.3.697.7v4.7c-.1.4-.399.7-.697.7Zm-4.68-1.4h3.983v-3.4h-3.982v3.4Zm-7.964 11.1h3.982v-3.4h-3.982v3.4Zm3.982-11.1h-3.982v-3.4h3.982v3.4Zm.498-9h-5.276a.682.682 0 0 1-.697-.7v-4.7c0-.4.298-.7.697-.7h5.376c.398 0 .696.3.696.7v4.7c-.1.4-.398.7-.796.7Zm-4.68-1.3h3.983v-3.4h-3.982v3.4Z" class="-path--primary" fill="#083176"/>
  <path fill-rule="evenodd" d="M51.084 20.479c0-.446.375-.812.844-.812s.844.366.844.812c0 .446-.375.812-.844.812s-.844-.366-.844-.812Zm.844-2.12c-1.21 0-2.194.947-2.194 2.12s.985 2.12 2.194 2.12c1.21 0 2.194-.947 2.194-2.12s-.985-2.12-2.194-2.12Zm-29.655 1.495H49.49a1.41 1.41 0 0 0 .092 1.274H22.93v18.67a.648.648 0 0 1-.657.637.648.648 0 0 1-.658-.637V19.854h.658Z" class="-path--secondary" fill="#FF9E18"/>
</svg>
