<svg id="icon-business-big-data" viewBox="0 0 96 96" xmlns="http://www.w3.org/2000/svg">
  <path class="-path--shadow" fill="#38C6F4" d="M50.79 33.84c-2.96 0-5.67.48-7.66 1.27-1 .4-1.84.87-2.44 1.44-.6.56-1 1.25-1 2.03v17.14c.15 1.44 1.46 2.57 3.29 3.31 1.87.77 4.46 1.22 7.56 1.22 3.1 0 5.8-.45 7.8-1.21a8 8 0 0 0 2.44-1.38 3.04 3.04 0 0 0 1.1-1.94l.01-.03V38.88h-.02c.02-.1.02-.2.02-.3 0-.78-.4-1.47-1-2.03a7.75 7.75 0 0 0-2.44-1.44 21.51 21.51 0 0 0-7.66-1.27Z"/>
  <path class="-path--primary" fill="#083176" fill-rule="evenodd" d="M43.9.68C44.99.25 46.43 0 47.99 0c1.57 0 3 .26 4.04.7.52.22.98.5 1.32.83a1.8 1.8 0 0 1 .59 1.44v7.96c-.05.5-.31.91-.66 1.24-.35.34-.82.6-1.35.83-1.06.43-2.48.68-4.09.68-1.6 0-2.97-.25-3.98-.7-.97-.42-1.77-1.1-1.85-2.05V3.2a1.51 1.51 0 0 1-.06-.42c0-.52.26-.95.61-1.29.35-.33.82-.6 1.36-.81Zm8.11 4.23c.25-.1.48-.22.7-.34v2.29c-.04.25-.34.66-1.22 1.02-.85.36-2.08.6-3.53.6a9.49 9.49 0 0 1-3.54-.6c-.88-.37-1.17-.77-1.2-1.02v-2.3c.21.13.44.24.7.34 1.06.44 2.5.7 4.06.7 1.57 0 2.98-.26 4.03-.7ZM43.4 3.19a.99.99 0 0 1-.18-.22v-.03a.61.61 0 0 0-.05-.23.74.74 0 0 1 .22-.33c.2-.19.52-.39.97-.57.9-.35 2.17-.59 3.62-.59 1.45 0 2.7.24 3.57.6.43.19.74.39.93.58.2.18.23.32.23.4 0 .1-.04.23-.22.42-.2.18-.5.38-.94.56-.87.35-2.12.6-3.57.6a9.98 9.98 0 0 1-3.6-.61 3.14 3.14 0 0 1-.98-.58Zm-.18 5.44v2.21c.03.27.3.67 1.12 1.03.81.35 2 .6 3.49.6a9.9 9.9 0 0 0 3.63-.6c.44-.19.76-.39.97-.58.19-.18.26-.34.27-.45v-2.2c-.23.14-.48.26-.74.37-1.04.43-2.43.69-4 .69-1.57 0-2.97-.26-4-.69-.26-.1-.51-.23-.74-.38ZM19.1 12.32c-1.57 0-3 .25-4.08.68-.53.22-1 .49-1.36.82-.35.33-.62.76-.62 1.29 0 .14.02.28.06.4v7.72c.1.95.9 1.63 1.86 2.05 1 .44 2.38.7 3.99.7 1.6 0 3.03-.26 4.09-.7 1-.4 1.9-1.08 2-2.05v-3.94a1.71 1.71 0 0 0 0-.1V15.1c0-.51-.26-.95-.6-1.28-.34-.34-.8-.6-1.32-.82a10.89 10.89 0 0 0-4.03-.69Zm4.72 4.54c-.22.13-.45.24-.7.35a10.9 10.9 0 0 1-4.03.68c-1.56 0-3-.25-4.07-.68-.25-.1-.48-.2-.7-.33v2.27c.04.25.34.66 1.22 1.03.85.35 2.08.6 3.54.6 1.45 0 2.68-.25 3.53-.6.83-.35 1.14-.74 1.2-.99v-1.17l.01-.1v-1.06Zm-9.5-1.57c.04.06.1.14.18.22.2.19.52.39.97.57.9.35 2.18.59 3.62.59a9.7 9.7 0 0 0 3.56-.6c.44-.17.74-.37.94-.56.18-.18.22-.32.22-.4 0-.09-.04-.23-.22-.41-.2-.19-.5-.38-.94-.56a9.7 9.7 0 0 0-3.56-.6c-1.44 0-2.72.24-3.62.6-.45.18-.77.38-.97.56a.78.78 0 0 0-.22.31.6.6 0 0 1 .04.22v.06Zm0 7.85v-2.22c.23.15.49.28.74.38 1.05.44 2.44.7 4.02.7 1.57 0 2.97-.26 4-.7.26-.1.5-.23.73-.37v2.2c-.03.25-.33.66-1.23 1.03a9.9 9.9 0 0 1-3.63.59 9 9 0 0 1-3.5-.59c-.81-.35-1.09-.75-1.13-1.02ZM7.05 41.2c-1.56 0-3 .24-4.07.67-.54.21-1.01.48-1.36.82-.35.33-.62.76-.62 1.29 0 .13.02.26.05.38v7.68a.6.6 0 0 0 0 .06c.09.95.89 1.63 1.86 2.06 1 .44 2.38.69 3.98.69 1.61 0 3.04-.25 4.1-.69 1-.4 1.9-1.08 2-2.06a.6.6 0 0 0 0-.06v-8.06c0-.52-.25-.95-.6-1.28-.33-.34-.8-.6-1.32-.82a10.89 10.89 0 0 0-4.02-.69Zm4.72 4.53c-.22.13-.45.24-.7.34-1.04.43-2.46.68-4.02.68-1.56 0-3-.25-4.07-.67a5.5 5.5 0 0 1-.7-.34v2.28c.03.25.32.66 1.2 1.02.86.36 2.09.6 3.54.6 1.46 0 2.69-.24 3.54-.6.88-.36 1.17-.77 1.2-1.02v-2.3Zm-9.5-1.58c.04.06.1.14.19.23.2.18.52.38.97.56.9.36 2.18.59 3.62.59s2.7-.24 3.56-.59c.43-.18.74-.37.93-.56.19-.18.23-.32.23-.4 0-.09-.04-.23-.23-.41-.19-.19-.5-.38-.93-.56a9.69 9.69 0 0 0-3.56-.6c-1.45 0-2.73.24-3.62.6-.45.18-.77.37-.97.56a.75.75 0 0 0-.22.32l.03.2v.06Zm0 7.86v-2.22c.23.15.48.27.74.38 1.04.44 2.44.7 4.01.7 1.58 0 2.97-.26 4.01-.7.26-.1.5-.23.74-.38v2.22c-.04.24-.34.65-1.24 1.02-.88.36-2.14.6-3.64.6s-2.68-.24-3.49-.6c-.82-.35-1.1-.75-1.13-1.02ZM84.86 41.87c1.07-.43 2.5-.68 4.07-.68 1.56 0 2.98.25 4.03.69.52.21.98.48 1.32.82a1.8 1.8 0 0 1 .6 1.4v7.94a.6.6 0 0 1-.01.06c-.1.98-1 1.65-2 2.06-1.06.44-2.49.69-4.1.69-1.6 0-2.97-.25-3.98-.7-.97-.42-1.77-1.1-1.86-2.05a.75.75 0 0 1 0-.06v-7.68a1.51 1.51 0 0 1-.05-.38c0-.53.27-.96.62-1.3.35-.33.82-.6 1.36-.8Zm8.1 4.2c.24-.1.47-.22.69-.34v2.29c-.04.25-.33.66-1.21 1.03-.85.35-2.08.59-3.54.59a9.45 9.45 0 0 1-3.54-.6c-.88-.36-1.17-.77-1.2-1.02v-2.28c.2.12.45.24.7.34 1.07.42 2.5.67 4.07.67 1.56 0 2.97-.25 4.02-.68Zm-8.62-1.7a.93.93 0 0 1-.19-.22v-.05a.6.6 0 0 0-.03-.2.75.75 0 0 1 .22-.33c.2-.19.52-.38.97-.56.9-.36 2.17-.6 3.62-.6 1.44 0 2.7.24 3.56.6.43.18.74.37.93.56.2.18.23.32.23.4 0 .09-.04.23-.23.41-.19.19-.5.38-.93.56-.87.35-2.12.59-3.56.59-1.45 0-2.73-.23-3.62-.59a3.1 3.1 0 0 1-.97-.56Zm-.19 5.42v2.22c.04.27.32.67 1.13 1.03.8.35 2 .59 3.5.59 1.49 0 2.75-.24 3.63-.6.9-.37 1.2-.78 1.24-1.02v-2.22c-.23.15-.48.27-.74.38-1.04.44-2.43.7-4 .7-1.58 0-2.98-.26-4.02-.7-.26-.1-.5-.23-.74-.38ZM77.06 12.32c-1.56 0-3 .25-4.07.68-.53.22-1 .49-1.36.82-.35.33-.61.76-.61 1.29 0 .13.01.26.04.38V23.23c.1.95.9 1.63 1.87 2.05 1 .44 2.37.7 3.98.7 1.6 0 3.03-.26 4.1-.7 1-.4 1.9-1.07 2-2.05a.6.6 0 0 0 0-.06v-8.06c0-.51-.26-.95-.6-1.28-.34-.34-.8-.6-1.32-.82a10.89 10.89 0 0 0-4.03-.69Zm4.72 4.54c-.21.13-.45.24-.7.35a10.9 10.9 0 0 1-4.02.68c-1.56 0-3-.25-4.07-.68a5.5 5.5 0 0 1-.7-.34v2.28c.03.25.33.66 1.2 1.03.86.35 2.1.6 3.55.6 1.46 0 2.68-.25 3.53-.6.88-.37 1.18-.78 1.21-1.03v-2.29Zm-9.5-1.58c.04.06.1.14.2.23.2.19.52.39.96.57.9.35 2.18.59 3.62.59a9.7 9.7 0 0 0 3.56-.6c.44-.17.74-.37.94-.56.19-.18.22-.32.22-.4 0-.09-.04-.23-.22-.41-.2-.19-.5-.38-.94-.56a9.7 9.7 0 0 0-3.56-.6c-1.44 0-2.72.24-3.62.6-.44.18-.77.38-.97.56a.75.75 0 0 0-.22.32c.02.07.04.14.04.2v.06Zm0 7.86v-2.22c.24.15.49.28.75.38 1.04.44 2.43.7 4 .7 1.58 0 2.98-.26 4.02-.7.25-.1.5-.23.73-.37v2.2c-.04.25-.34.66-1.24 1.03-.88.36-2.14.59-3.63.59a9 9 0 0 1-3.5-.59c-.81-.35-1.09-.75-1.12-1.02ZM15.02 70.96a11.3 11.3 0 0 1 4.07-.69c1.56 0 2.98.25 4.02.67.53.21.99.48 1.33.8.34.34.6.77.6 1.28v8.07a.7.7 0 0 1 0 .06c-.1.97-1 1.65-2 2.06a11.1 11.1 0 0 1-4.1.68c-1.6 0-2.97-.25-3.98-.69-.97-.42-1.77-1.1-1.86-2.05v-7.68a1.5 1.5 0 0 1-.06-.41c0-.52.27-.96.62-1.29.35-.33.82-.6 1.36-.81Zm8.1 4.16c.25-.1.48-.22.7-.35v2.35c-.07.25-.38.63-1.2.98-.86.35-2.09.59-3.54.59a9.5 9.5 0 0 1-3.54-.6c-.88-.36-1.18-.77-1.22-1.02v-2.26c.22.13.45.24.7.33 1.07.42 2.51.67 4.07.67 1.56 0 2.98-.25 4.03-.69Zm-8.62-1.67a.95.95 0 0 1-.18-.21v-.09a.6.6 0 0 0-.03-.2.8.8 0 0 1 .21-.3c.2-.18.52-.38.97-.56.9-.36 2.18-.6 3.62-.6 1.45 0 2.7.23 3.57.58.43.18.74.37.93.56.19.18.22.31.22.4 0 .08-.04.22-.22.4-.2.19-.5.38-.94.56a9.7 9.7 0 0 1-3.56.6 10.3 10.3 0 0 1-3.62-.58 3.1 3.1 0 0 1-.97-.56Zm-.18 5.4v2.2c.04.27.32.67 1.13 1.03a9 9 0 0 0 3.5.59 9.9 9.9 0 0 0 3.63-.6c.9-.36 1.2-.77 1.23-1.02v-2.2c-.23.15-.47.27-.73.38-1.04.43-2.43.68-4 .68-1.58 0-2.97-.25-4.01-.68-.26-.11-.51-.24-.75-.38ZM77.06 70.27c-1.56 0-3 .26-4.07.69-.53.21-1 .48-1.36.81-.35.33-.61.77-.61 1.29 0 .13.01.26.04.38v7.71c.1.94.9 1.63 1.87 2.05 1 .44 2.37.69 3.98.69 1.6 0 3.03-.25 4.1-.68 1-.41 1.9-1.09 2-2.06v-8a1.78 1.78 0 0 0-.6-1.4c-.34-.33-.8-.6-1.32-.81a11.09 11.09 0 0 0-4.03-.67Zm4.72 4.5c-.21.14-.45.25-.7.35-1.04.44-2.46.69-4.02.69-1.56 0-3-.25-4.07-.67a5.5 5.5 0 0 1-.7-.33v2.26c.03.25.33.66 1.2 1.03.86.35 2.1.59 3.55.59 1.46 0 2.68-.24 3.54-.6.87-.36 1.17-.76 1.2-1.02v-2.3Zm-9.5-1.55c.04.07.1.14.19.23.2.18.52.38.97.56.9.35 2.18.58 3.62.58a9.7 9.7 0 0 0 3.56-.6c.44-.18.74-.37.94-.56.18-.18.22-.32.22-.4 0-.09-.03-.22-.22-.4-.19-.19-.5-.38-.93-.56a9.9 9.9 0 0 0-3.57-.58c-1.44 0-2.72.24-3.62.6-.44.18-.77.38-.97.57a.78.78 0 0 0-.22.3c.03.06.04.13.04.2v.06Zm0 7.83v-2.2c.24.14.49.27.75.38 1.04.43 2.44.68 4 .68 1.58 0 2.98-.25 4.02-.69.25-.1.5-.23.73-.37v2.2c-.04.25-.34.66-1.24 1.02-.88.36-2.14.6-3.63.6a9 9 0 0 1-3.5-.59c-.81-.36-1.09-.76-1.12-1.03ZM47.98 82.35c-1.56 0-3 .25-4.07.68-.54.22-1 .49-1.36.82-.35.33-.61.76-.61 1.28 0 .15.02.28.05.41v7.72c.1.94.9 1.63 1.86 2.05 1 .44 2.38.69 3.98.69s3.03-.25 4.1-.68c.52-.22.99-.5 1.34-.82a1.98 1.98 0 0 0 .66-1.3v-8.07c0-.5-.25-.94-.59-1.28-.34-.33-.8-.6-1.32-.82a10.92 10.92 0 0 0-4.04-.68Zm4.72 4.54c-.2.13-.44.24-.69.34-1.05.43-2.46.69-4.03.69-1.55 0-3-.26-4.07-.68-.24-.1-.48-.22-.7-.34v2.29c.04.24.33.65 1.21 1.02.86.35 2.09.59 3.54.59 1.45 0 2.68-.24 3.53-.6.88-.36 1.18-.77 1.21-1.02V86.9Zm-9.48-1.57c.03.06.09.13.17.21.2.2.53.39.98.57.9.36 2.17.6 3.61.6 1.45 0 2.7-.24 3.57-.6.43-.18.74-.37.94-.56.18-.19.22-.32.22-.4 0-.1-.04-.23-.22-.41-.2-.19-.5-.39-.94-.57a9.72 9.72 0 0 0-3.57-.59c-1.45 0-2.72.24-3.62.6-.45.18-.77.38-.97.56a.77.77 0 0 0-.22.31c.03.07.05.15.05.22v.06Zm0 7.84v-2.2c.23.14.48.27.73.37 1.04.44 2.44.69 4.01.69 1.57 0 2.96-.25 4-.69.26-.1.51-.23.74-.37v2.2c-.01.12-.08.27-.27.45-.21.2-.53.4-.97.57-.88.36-2.14.6-3.63.6-1.5 0-2.68-.24-3.49-.59-.81-.36-1.09-.76-1.12-1.03ZM39.35 37.6a22 22 0 0 1 7.9-1.32 22 22 0 0 1 7.89 1.31 8 8 0 0 1 2.51 1.5c.63.6 1.05 1.31 1.05 2.13 0 .35-.08.69-.22 1V57.26a.77.77 0 0 1 0 .05c-.06.8-.47 1.5-1.1 2.1-.62.6-1.47 1.1-2.48 1.51a21.53 21.53 0 0 1-7.92 1.32c-3.15 0-5.78-.48-7.69-1.31-1.87-.82-3.2-2.05-3.34-3.61a.6.6 0 0 1 0-.06V42.28c0-.05 0-.1.02-.15a2.44 2.44 0 0 1-.18-.9c0-.83.42-1.55 1.05-2.14a8 8 0 0 1 2.51-1.5Zm-1.67 2.38c-.48.45-.67.87-.67 1.24 0 .38.2.8.67 1.24.47.45 1.19.88 2.13 1.26a20.8 20.8 0 0 0 7.43 1.22c2.94 0 5.57-.48 7.44-1.22a6.8 6.8 0 0 0 2.13-1.26c.48-.44.67-.86.67-1.24 0-.37-.2-.8-.66-1.24a6.8 6.8 0 0 0-2.14-1.25 20.8 20.8 0 0 0-7.44-1.23c-2.93 0-5.56.48-7.43 1.23a6.8 6.8 0 0 0-2.13 1.25Zm17.46 4.87a8.83 8.83 0 0 0 2.12-1.16V46c-.03.43-.26.9-.74 1.35a6.8 6.8 0 0 1-2.09 1.3 18.99 18.99 0 0 1-7.19 1.26c-2.84 0-5.37-.5-7.2-1.27a6.95 6.95 0 0 1-2.11-1.32 2.25 2.25 0 0 1-.76-1.36v-2.33a8.7 8.7 0 0 0 2.18 1.21 22 22 0 0 0 7.9 1.31 22 22 0 0 0 7.89-1.3Zm-15.58 4.92c-.95-.4-1.77-.9-2.4-1.47v3.4c.1.86.96 1.8 2.8 2.57 1.79.75 4.32 1.22 7.28 1.22 2.97 0 5.5-.48 7.28-1.23 1.82-.76 2.67-1.71 2.74-2.56v-3.35a8.22 8.22 0 0 1-2.35 1.44c-2 .85-4.7 1.35-7.67 1.35-2.96 0-5.67-.51-7.68-1.37Zm-2.4 7.46V54a8.08 8.08 0 0 0 2.32 1.4c1.99.82 4.69 1.31 7.76 1.31 3.08 0 5.78-.5 7.75-1.32A8.05 8.05 0 0 0 57.26 54v3.23c-.03.4-.25.84-.72 1.29-.48.45-1.18.89-2.1 1.26a20.33 20.33 0 0 1-7.46 1.23c-3.04 0-5.5-.47-7.2-1.21-1.72-.75-2.52-1.7-2.61-2.58Z" clip-rule="evenodd"/>
  <path class="-path--secondary" fill="#FF9E18" d="M48.6 17.66a.61.61 0 1 0-1.23 0v9.96a.61.61 0 0 0 1.23 0v-9.96ZM48.6 68.63a.61.61 0 0 0-1.23 0v9.96a.61.61 0 0 0 1.23 0v-9.96ZM17.08 48.13c0-.34.27-.61.6-.61h9.91a.61.61 0 0 1 0 1.22h-9.9a.61.61 0 0 1-.61-.61ZM68.38 47.52a.61.61 0 0 0 0 1.22h9.91a.61.61 0 1 0 0-1.22h-9.9ZM61.98 62.19a.61.61 0 0 1 .86 0l7 7.04a.61.61 0 1 1-.86.87l-7-7.05a.61.61 0 0 1 0-.86ZM27 26.15a.61.61 0 1 0-.87.86l7 7.04a.61.61 0 1 0 .87-.86l-7-7.04ZM69.85 26.15c.24.23.24.62 0 .86l-7 7.04a.61.61 0 1 1-.87-.86l7-7.04a.61.61 0 0 1 .87 0ZM34 63.05a.61.61 0 1 0-.87-.86l-7 7.04a.61.61 0 1 0 .86.87L34 63.05Z"/>
</svg>
