<svg id="icon-business-cost-control-euro" viewBox="0 0 96 96" xmlns="http://www.w3.org/2000/svg">
  <path d="M78.08 44.67c0 14.76-11.902 26.727-26.584 26.727-14.68 0-26.582-11.966-26.582-26.727 0-14.76 11.901-26.727 26.582-26.727 14.682 0 26.583 11.966 26.583 26.727Z" class="-path--shadow" fill="#38C6F4"/>
  <path fill-rule="evenodd" d="M68.606 3.005a.658.658 0 0 1 .734.573l1.393 11.14a.662.662 0 0 1-.323.654.654.654 0 0 1-.63.015L58.812 17.11a.533.533 0 0 1-.164-1.053l9.908-1.556c-16.83-11.885-40.08-8.247-52.532 8.467l-.526-.396.526.396c-11.131 14.942-10.113 35.79 2.42 49.551a.663.663 0 0 1-.04.934.655.655 0 0 1-.929-.041C4.516 59.18 3.463 37.625 14.973 22.175 27.833 4.913 51.836 1.134 69.24 13.367l-1.204-9.624a.66.66 0 0 1 .57-.738ZM77.893 22.2a.655.655 0 0 1 .928.04C91.594 36.218 92.876 57.35 81.89 72.802 69.451 90.296 45.645 94.64 27.993 82.937l2.139 9.244a.657.657 0 1 1-1.28.3L26.35 81.667a.663.663 0 0 1-.05-.269.66.66 0 0 1 .687-.684l10.537-3.241a.661.661 0 0 1 .385 1.264l-9.468 2.912c17.091 11.543 40.287 7.39 52.379-9.615 10.626-14.944 9.386-35.383-2.966-48.902a.663.663 0 0 1 .039-.933Z" class="-path--secondary" fill="#FF9E18"/>
  <path fill-rule="evenodd" d="M22.449 47.813c0-14.4 11.609-26.066 25.922-26.066s25.922 11.667 25.922 26.066c0 14.4-11.61 26.066-25.922 26.066-14.313 0-25.922-11.667-25.922-26.066ZM48.37 20.425c-15.05 0-27.244 12.266-27.244 27.388 0 15.122 12.194 27.388 27.244 27.388 15.05 0 27.243-12.266 27.243-27.388 0-15.122-12.194-27.388-27.243-27.388Zm1.108 17.8a6.326 6.326 0 0 1 5.46 3.247l3.348-2.467a9.776 9.776 0 0 0-8.706-4.71c-5.072 0-8.657 3.46-10.082 8.283h-3.332v3.031h2.794a12.695 12.695 0 0 0-.08 1.64v1.36h-2.706v3.087h3.26c1.394 5.069 5.082 8.458 10.337 8.458a9.915 9.915 0 0 0 8.586-5.029l-3.165-2.323c-1.63 2.18-3.055 3.43-5.43 3.43a6.084 6.084 0 0 1-5.824-4.536h7.7v-3.063h-8.373V47.2c-.017-.531.007-1.063.072-1.59h8.301v-3.032h-7.62a5.894 5.894 0 0 1 5.46-4.353Z" class="-path--primary" fill="#083176"/>
</svg>
