<svg id="icon-products-email-security" viewBox="0 0 96 96" xmlns="http://www.w3.org/2000/svg">
  <path d="M89.7 24.216H67.9v19c0 4.5-1.9 8.9-5.2 11.9l-14.6 13c-1.2 1-2.9 1-4.1 0l-14.5-13c-3.4-3.1-5.3-7.4-5.3-12v-18.9H12.6c-2.4 0-4.4 2-4.4 4.4v44.8c0 2.4 2 4.4 4.4 4.4h77.1c2.4 0 4.4-2 4.4-4.4v-44.9c0-2.4-2-4.3-4.4-4.3Z" class="-path--shadow" fill="#38C6F4"/>
  <path d="M55.6 30.516h-1.9v-4.3c0-.1-.9-5.6-7.8-5.6-6.9 0-7.8 5.5-7.8 5.7v4.2h-1.9c-.3 0-.6.3-.6.6v18c0 .3.3.6.6.6h19.4c.3 0 .6-.3.6-.6v-18c0-.4-.3-.6-.6-.6Zm-8.5 10.4v2.5c0 .3-.3.6-.6.6h-1c-.3 0-.6-.3-.6-.6v-2.4c-.7-.4-1.2-1.1-1.2-2 0-1.2 1-2.3 2.3-2.3 1.2 0 2.3 1 2.3 2.3-.1.8-.6 1.5-1.2 1.9Zm5.4-10.4H39.3v-4.1c0-.2.8-4.6 6.6-4.6s6.5 4.4 6.6 4.5v4.2Z" fill="#D62015"/><path fill-rule="evenodd" d="m65.398 15.266-18.645-3.09a2.378 2.378 0 0 0-1.306 0l-18.744 3.09c-1.831.25-3.16 1.834-3.16 3.65v9.2H7.5c-3.1 0-5.6 2.5-5.6 5.5v44.8c0 3.1 2.5 5.5 5.6 5.5h77.1c3.1 0 5.6-2.5 5.6-5.5v-44.8c0-3.1-2.5-5.6-5.6-5.6H68.558v-9.1c0-1.816-1.33-3.4-3.16-3.65Zm3.16 14.05V43.21a15.986 15.986 0 0 1-2.128 8.305L88.8 38.016v-4.5c0-2.3-1.9-4.2-4.2-4.2H68.558Zm-4.062 24.906c-.421.482-.873.943-1.353 1.38l-.006.006-2.937 2.615 28.7 10.993v-29.6L64.496 54.222Zm-5.388 4.974-10.579 9.419-.008.007a3.834 3.834 0 0 1-4.942 0l-.009-.008-10.557-9.465L3.3 70.416v7.9c0 2.3 1.9 4.2 4.2 4.2h77.1c2.3 0 4.2-1.9 4.2-4.2v-7.8l-29.692-11.32Zm-27.182-1.022-2.865-2.568-.004-.004a16.803 16.803 0 0 1-1.44-1.486L3.3 39.616v29.5l28.625-10.942Zm-6.095-6.577a16.945 16.945 0 0 1-2.288-8.48v-13.7H7.5c-2.3 0-4.2 1.9-4.2 4.2v4.5l22.531 13.48ZM45.808 13.44c.165-.055.42-.055.584 0l.05.017 18.76 3.11.011.001c1.164.155 2.03 1.168 2.03 2.348v24.315c.095 4.3-1.72 8.42-4.983 11.397l-.003.002-14.586 12.988a2.519 2.519 0 0 1-3.241 0L29.943 54.63l-.002-.001a15.637 15.637 0 0 1-5.083-11.513v-24.2c0-1.18.866-2.193 2.029-2.348l.01-.001 18.861-3.11.05-.017Z" class="-path--primary" fill="#083176"/>
</svg>
