<svg id="icon-people-software-developer" viewBox="0 0 96 96" xmlns="http://www.w3.org/2000/svg">
  <path fill-rule="evenodd" d="M34.111 27.942c0 8.24 5.45 14.942 12.144 14.942 6.695 0 12.144-6.702 12.144-14.942S52.95 13 46.255 13c-6.694 0-12.144 6.703-12.144 14.942Zm-4.415 43.13H62.57c3.618.013 6.565-2.921 6.588-6.56v-6.524a6.586 6.586 0 0 0-3.475-5.806l-6.454-3.466-2.307-1.295a6.55 6.55 0 0 0-5.492-.434l-3.057 1.139a6.568 6.568 0 0 1-4.487 0l-3.234-1.146a6.536 6.536 0 0 0-5.414.456l-2.278 1.273-6.37 3.444a6.58 6.58 0 0 0-3.467 5.806v6.525c.007 3.644 2.95 6.593 6.574 6.589Z" class="-path--shadow" fill="#38C6F4"/>
  <path fill-rule="evenodd" d="M44.776 14.664c6.186 0 11.448 6.346 11.448 14.465v.001c0 8.12-5.268 14.467-11.447 14.467-6.187 0-11.456-6.348-11.456-14.467 0-8.118 5.27-14.466 11.456-14.466Zm0-1.325C37.602 13.34 32 20.568 32 29.127v.003c0 .754.043 1.497.127 2.226h-16.72a.66.66 0 0 0-.66.66v40.675c0 .365.296.66.66.66H25.71a6.787 6.787 0 0 0 1.842.254H61.74c.636-.001 1.25-.09 1.833-.253h10.545a.66.66 0 0 0 .66-.661V32.017a.66.66 0 0 0-.66-.66h-16.7c.084-.73.128-1.473.128-2.227v-.003c0-8.559-5.594-15.788-12.77-15.788Zm11.776 21.887c-1.915 5.635-6.405 9.692-11.776 9.692-5.375 0-9.867-4.057-11.783-9.691H16.068V72.03h7.138a6.844 6.844 0 0 1-2.465-5.27v-7.395a6.841 6.841 0 0 1 3.589-6.025l6.715-3.625 2.49-1.422a6.797 6.797 0 0 1 5.613-.472l3.612 1.296a5.457 5.457 0 0 0 3.742 0h.002l3.456-1.286a6.76 6.76 0 0 1 5.701.45l2.513 1.419 6.774 3.64a6.842 6.842 0 0 1 3.596 6.032v7.389a6.843 6.843 0 0 1-2.465 5.27h7.378V35.225H56.552ZM63.37 72.03a5.52 5.52 0 0 0 3.853-5.272v-7.383a5.52 5.52 0 0 0-2.9-4.868l-6.793-3.65-2.52-1.423a5.438 5.438 0 0 0-4.587-.362L46.96 50.36l-.004.002a6.78 6.78 0 0 1-4.648 0h-.002l-3.605-1.294a5.474 5.474 0 0 0-4.52.38l-2.495 1.426-6.73 3.632a5.52 5.52 0 0 0-2.894 4.862v7.39a5.52 5.52 0 0 0 3.852 5.272H63.37ZM6.66 78.704c-.364 0-.66.29-.66.647v1.002c0 .358.296.647.66.647h76.205c.365 0 .66-.29.66-.647v-1.002a.654.654 0 0 0-.66-.647H6.661Z" class="-path--primary" fill="#083176"/>
  <path fill-rule="evenodd" d="m69.144 27.382-7.191 2.45L65.6 24.4V8.076c0-.318.256-.576.572-.576h28.22c.317 0 .573.258.573.576v18.73a.574.574 0 0 1-.573.576H69.144Zm3.335-10.776v1.375l4.787 2.131V18.66l-3.342-1.382 3.342-1.376V14.5l-4.787 2.105Zm9.758-3.744h1.272l-4.379 9.202h-1.272l4.379-9.202Zm5.352 4.441-3.341 1.382v1.427l4.786-2.13v-1.376L84.248 14.5v1.421l3.341 1.382Z" class="-path--secondary" fill="#FF9E18"/>
</svg>
