<svg id="icon-products-wavelength" viewBox="0 0 96 96" xmlns="http://www.w3.org/2000/svg">
  <path fill-rule="evenodd" d="M94 17.067C94 12.059 89.924 8 84.897 8H14.116c-5.028 0-9.104 4.06-9.104 9.067v21.917c.65-1.15 1.436-2.41 2.358-3.67 3.14-4.293 7.97-8.745 14.529-8.745 6.555 0 11.501 4.447 14.756 8.735 1.638 2.158 2.875 4.312 3.703 5.924.415.807.728 1.481.938 1.954a25.273 25.273 0 0 1 .298.701l.016.04.004.01.002.005-.612.24.612-.24.006.014.004.014v.001l.004.01.014.038.056.157c.051.139.13.345.235.609.21.527.53 1.284.966 2.194.871 1.822 2.2 4.246 4.025 6.667 3.66 4.853 9.25 9.6 17.115 9.6 7.845 0 13.082-4.894 16.397-9.91 1.654-2.502 2.81-5.01 3.553-6.894.371-.941.638-1.724.812-2.27a23.868 23.868 0 0 0 .238-.793l.01-.039v-.002l.007-.029.027-.12.105-.453c.09-.39.222-.947.385-1.615.327-1.335.784-3.118 1.3-4.903.516-1.78 1.097-3.584 1.675-4.95.287-.68.586-1.282.892-1.725.152-.22.323-.428.517-.586.19-.155.456-.308.784-.308a.658.658 0 0 1 .066 1.312l-.007.005-.011.01c-.06.05-.151.147-.267.314-.23.333-.488.84-.763 1.49-.547 1.293-1.11 3.037-1.622 4.804-.51 1.761-.962 3.525-1.286 4.85a138.344 138.344 0 0 0-.485 2.047l-.027.117-.009.04-.002.01-.003.013-.636-.167.636.167v.001l-.002.004-.003.013-.013.047-.05.18c-.045.154-.112.38-.203.665-.181.57-.458 1.381-.841 2.353-.766 1.943-1.962 4.538-3.68 7.137-3.43 5.19-9.016 10.5-17.494 10.5-8.457 0-14.387-5.115-18.165-10.123-1.892-2.51-3.264-5.015-4.161-6.891-.45-.94-.781-1.723-1.002-2.274a25.147 25.147 0 0 1-.31-.816l-.015-.046-.001-.001-.013-.032-.055-.135a24.62 24.62 0 0 0-.225-.523 36.934 36.934 0 0 0-.905-1.887c-.804-1.566-2.003-3.65-3.582-5.73-3.177-4.186-7.783-8.215-13.708-8.215-5.92 0-10.408 4.023-13.468 8.206-1.519 2.077-2.658 4.158-3.419 5.722v33.474c0 5.007 4.076 9.067 9.104 9.067h70.78c5.028 0 9.104-4.06 9.104-9.067v-58.22ZM73.332 73.032c0-.363.295-.657.658-.657h1.751a.658.658 0 1 1 0 1.315h-1.75a.658.658 0 0 1-.659-.658Zm-3.17 1.567a.658.658 0 1 0 0 1.315h9.4a.658.658 0 0 0 0-1.315h-9.4Zm-1.477 2.342a.658.658 0 0 0 0 1.316h12.353a.658.658 0 0 0 0-1.316H68.685Zm.819 3.008c0-.364.294-.658.657-.658h9.4a.658.658 0 0 1 0 1.315h-9.4a.658.658 0 0 1-.657-.657Zm4.486 1.692a.658.658 0 1 0 0 1.315h1.751a.658.658 0 1 0 0-1.315h-1.75Zm-61.655-3.99a2.133 2.133 0 0 1-2.152 2.032 2.051 2.051 0 0 1-2.055-2.032 2.08 2.08 0 0 1 2.024-2.135h.01a2.148 2.148 0 0 1 2.173 2.12v.015Zm6.373 0a2.14 2.14 0 0 1-2.159 2.032 2.05 2.05 0 0 1-2.055-2.032 2.08 2.08 0 0 1 2.018-2.136h.037a2.162 2.162 0 0 1 2.16 2.136Zm4.245 2.047a2.088 2.088 0 0 0 2.121-2.047v-.096a2.104 2.104 0 0 0-2.159-2.032 2.096 2.096 0 0 0-1.97 1.963 2.094 2.094 0 0 0 1.97 2.212h.038Z" class="-path--shadow" fill="#38C6F4"/>
  <path fill-rule="evenodd" d="M10.17 76.103a1.493 1.493 0 0 0-1.454 1.53v.013c.006.8.659 1.45 1.468 1.45h.004a1.546 1.546 0 0 0 1.56-1.458 1.56 1.56 0 0 0-1.576-1.536h-.003Zm-.015-1.175a2.735 2.735 0 0 1 2.768 2.702v.02l-.001.027a2.72 2.72 0 0 1-2.74 2.593 2.638 2.638 0 0 1-2.641-2.609 2.668 2.668 0 0 1 2.595-2.733h.02Zm6.348 0h.048a2.75 2.75 0 0 1 2.745 2.716v.018l-.001.017a2.727 2.727 0 0 1-2.748 2.591 2.639 2.639 0 0 1-2.64-2.609 2.668 2.668 0 0 1 2.587-2.733h.009Zm.02 1.175a1.493 1.493 0 0 0-1.442 1.53v.013c.007.8.66 1.45 1.468 1.45h.005a1.553 1.553 0 0 0 1.567-1.457 1.575 1.575 0 0 0-1.573-1.536h-.026Zm5.007 1.418a1.508 1.508 0 0 1 1.41-1.412Zm1.41-1.412a1.516 1.516 0 0 1 1.547 1.456v.08a1.5 1.5 0 0 1-1.527 1.465h-.026a1.507 1.507 0 0 1-1.404-1.59m1.37-2.585a2.691 2.691 0 0 1 2.761 2.601v.125a2.676 2.676 0 0 1-2.713 2.624h-.033l-.035-.001a2.682 2.682 0 0 1-2.523-2.833 2.683 2.683 0 0 1 2.523-2.515h.02Z" class="-path--secondary" fill="#FF9E18"/>
  <path fill-rule="evenodd" d="M2.657 19.852c0-4.641 3.78-8.409 8.446-8.409h70.78c4.668 0 8.447 3.768 8.447 8.41v48.805H2.657V19.852Zm0 50.121v8.099c0 4.641 3.78 8.409 8.446 8.409h70.78c4.668 0 8.447-3.767 8.447-8.41v-8.098H2.657Zm8.446-59.845c-5.388 0-9.76 4.351-9.76 9.724v58.22c0 5.373 4.372 9.724 9.76 9.724h70.78c5.39 0 9.762-4.351 9.762-9.724v-58.22c0-5.373-4.372-9.724-9.761-9.724h-70.78Z" class="-path--primary" fill="#083176"/>
</svg>
