<svg id="icon-places-bank-dollar" viewBox="0 0 96 96" xmlns="http://www.w3.org/2000/svg">
  <path fill-rule="evenodd" d="M52.288 29.884H24.837a.79.79 0 0 1-.546-1.364l13.27-12.696L51.7 2.254c.308-.301.801-.301 1.109 0L66.959 15.8l13.27 12.696c.328.288.36.786.071 1.113a.793.793 0 0 1-.625.267l-27.387.008Zm2.668-9.368c0 4.385-3.57 7.94-7.973 7.94-4.404 0-7.973-3.555-7.973-7.94 0-4.386 3.57-7.94 7.973-7.94 4.403 0 7.973 3.554 7.973 7.94Zm29.849 12.9H14.536c0 2.776 2.257 5.027 5.044 5.031h1.943a2.558 2.558 0 0 0 2.459 1.79h5.447a2.557 2.557 0 0 0 2.443-1.79h12.81a2.557 2.557 0 0 0 2.443 1.79h5.448a2.55 2.55 0 0 0 2.436-1.79h12.678v.048a2.544 2.544 0 0 0 2.558 2.53h5.447a2.544 2.544 0 0 0 2.55-2.538v-.04h1.512c2.79 0 5.051-2.252 5.051-5.03ZM14.536 91.124h70.277a5.037 5.037 0 0 0-3.956-4.913h.211a3.951 3.951 0 0 0-3.959-3.943h-.372v-41.21h-7.522v41.21h-.3a3.952 3.952 0 0 0-3.957 3.824H57.93a3.952 3.952 0 0 0-3.957-3.824h-.348v-41.21h-7.522v41.21h-.333a3.951 3.951 0 0 0-3.917 3.824h-7.058a3.952 3.952 0 0 0-3.957-3.824h-.349v-41.21H22.97v41.21h-.333a3.95 3.95 0 0 0-3.919 3.899c-2.375.41-4.18 2.473-4.18 4.957Z" class="-path--shadow" fill="#38C6F4"/>
  <path d="M47.9 21.413c0-.258-.072-.462-.216-.612-.142-.154-.383-.295-.726-.424a8.965 8.965 0 0 1-.885-.382 2.978 2.978 0 0 1-.64-.438 1.832 1.832 0 0 1-.415-.583 1.98 1.98 0 0 1-.146-.796c0-.531.17-.966.509-1.305.339-.339.79-.537 1.351-.593v-1.008h.754v1.022c.555.078.99.31 1.304.697.314.383.471.88.471 1.493h-1.36c0-.377-.08-.658-.236-.843a.761.761 0 0 0-.622-.283c-.257 0-.457.074-.598.221-.141.145-.212.346-.212.603 0 .239.07.43.207.575.138.144.394.292.768.442.377.151.686.294.928.43.241.13.445.282.612.451.166.167.293.358.381.575.088.213.132.463.132.748 0 .534-.166.967-.5 1.3-.332.333-.79.53-1.374.589v.937h-.749v-.932c-.644-.07-1.143-.297-1.497-.683-.352-.39-.528-.906-.528-1.55h1.361c0 .374.088.661.264.862.179.198.435.297.767.297.277 0 .495-.072.655-.217.16-.147.24-.345.24-.593Z" class="-path--secondary" fill="#FF9E18"/>
  <path fill-rule="evenodd" d="m47.19 4.847-27.3 26.285h54.6L47.19 4.847Zm.693-1.165a1 1 0 0 0-1.387 0l-28.093 27.05c-.649.624-.207 1.72.693 1.72h56.187c.9 0 1.342-1.096.694-1.72L47.883 3.682Zm-.9 9.55c-4.043 0-7.316 3.264-7.316 7.284s3.273 7.283 7.316 7.283c4.043 0 7.315-3.264 7.315-7.283 0-4.02-3.272-7.283-7.315-7.283Zm-8.63 7.284c0-4.751 3.866-8.598 8.63-8.598 4.764 0 8.63 3.847 8.63 8.598 0 4.75-3.866 8.598-8.63 8.598-4.764 0-8.63-3.847-8.63-8.598ZM82.778 34.95H11.187v.658c0 3.144 2.558 5.688 5.709 5.688h1.256a3.207 3.207 0 0 0 1.475 2.107v40.173a4.61 4.61 0 0 0-4.264 4.258 5.694 5.694 0 0 0-4.168 5.48v.657h71.592v-.657a5.691 5.691 0 0 0-3.75-5.345 4.609 4.609 0 0 0-4.326-4.396V43.253a3.203 3.203 0 0 0 1.212-1.956h1.147c3.15 0 5.709-2.544 5.709-5.688v-.658ZM65.874 83.577a4.61 4.61 0 0 0-4.244 4.049H55.85a4.611 4.611 0 0 0-4.252-4.05v-40.16a3.207 3.207 0 0 0 1.45-2.119h11.107a3.21 3.21 0 0 0 1.718 2.27v40.01Zm-24.593-42.28H29.924a3.2 3.2 0 0 1-1.46 2.101v40.179a4.611 4.611 0 0 1 4.252 4.049h5.802a4.611 4.611 0 0 1 4.244-4.049V43.436a3.206 3.206 0 0 1-1.48-2.139Zm-24.385-1.315a4.388 4.388 0 0 1-4.345-3.716h68.863a4.388 4.388 0 0 1-4.344 3.716H16.896Zm64.526 52.675H12.56a4.388 4.388 0 0 1 4.345-3.716h60.174a4.388 4.388 0 0 1 4.344 3.716ZM27.15 83.565h-6.207V43.907h6.207v39.658Zm-7.522 1.332a3.298 3.298 0 0 0-2.894 2.61h14.633a3.297 3.297 0 0 0-2.902-2.61v.014h-8.837v-.014Zm-.1-43.56a1.9 1.9 0 0 0 1.779 1.223h5.471c.814 0 1.505-.51 1.773-1.223h-9.023Zm24.882 1.255h5.517a1.9 1.9 0 0 0 1.753-1.255H42.65a1.9 1.9 0 0 0 1.758 1.255Zm-.332 1.315h6.207v39.658h-6.207V43.907Zm-4.209 43.6a3.298 3.298 0 0 1 2.894-2.61v.014H51.6v-.014a3.298 3.298 0 0 1 2.902 2.61H39.868Zm32.934-44.915h-5.518a1.9 1.9 0 0 1-1.758-1.255h9.028a1.9 1.9 0 0 1-1.752 1.255Zm-5.528 1.315h-.085v39.658h6.207V43.907h-6.122Zm-1.4 40.99a3.298 3.298 0 0 0-2.894 2.61h14.68a3.298 3.298 0 0 0-2.949-2.615v.02h-8.837v-.015Z" class="-path--primary" fill="#083176"/>
</svg>
