<svg id="icon-products-infected-server" viewBox="0 0 96 96" xmlns="http://www.w3.org/2000/svg">
  <path d="M92.28 16.22h-44.5c-1.4 0-2.6 1.1-2.6 2.6v49.1c0 1.4 1.1 2.6 2.6 2.6h44.5c1.4 0 2.6-1.1 2.6-2.6v-49.1c-.1-1.5-1.2-2.6-2.6-2.6Zm-45.4 51.4c-.9 0-1.6-.7-1.6-1.6 0-.9.7-1.6 1.6-1.6.9 0 1.6.7 1.6 1.6 0 .9-.7 1.6-1.6 1.6Zm0-19.1c-.9 0-1.6-.7-1.6-1.6 0-.9.7-1.6 1.6-1.6.9 0 1.6.7 1.6 1.6 0 .9-.7 1.6-1.6 1.6Zm0-19.1c-.9 0-1.6-.7-1.6-1.6 0-.9.7-1.6 1.6-1.6.9 0 1.6.7 1.6 1.6 0 .9-.7 1.6-1.6 1.6Zm4.9 38.2c-.9 0-1.6-.7-1.6-1.6 0-.9.7-1.6 1.6-1.6.9 0 1.6.7 1.6 1.6 0 .9-.7 1.6-1.6 1.6Zm0-19.1c-.9 0-1.6-.7-1.6-1.6 0-.9.7-1.6 1.6-1.6.9 0 1.6.7 1.6 1.6 0 .9-.7 1.6-1.6 1.6Zm0-19.1c-.9 0-1.6-.7-1.6-1.6 0-.9.7-1.6 1.6-1.6.9 0 1.6.7 1.6 1.6 0 .9-.7 1.6-1.6 1.6Zm4.8 38.2c-.9 0-1.6-.7-1.6-1.6 0-.9.7-1.6 1.6-1.6.9 0 1.6.7 1.6 1.6 0 .9-.7 1.6-1.6 1.6Zm0-19.1c-.9 0-1.6-.7-1.6-1.6 0-.9.7-1.6 1.6-1.6.9 0 1.6.7 1.6 1.6 0 .9-.7 1.6-1.6 1.6Zm0-19.1c-.9 0-1.6-.7-1.6-1.6 0-.9.7-1.6 1.6-1.6.9 0 1.6.7 1.6 1.6 0 .9-.7 1.6-1.6 1.6Z" class="-path--shadow" fill="#38C6F4"/>
  <path fill-rule="evenodd" d="M46.928 26.777a1.09 1.09 0 0 0-1.086 1.095c0 .608.489 1.095 1.086 1.095.598 0 1.087-.487 1.087-1.095 0-.607-.49-1.095-1.087-1.095Zm-2.055 1.095a2.06 2.06 0 0 1 2.055-2.064 2.06 2.06 0 0 1 2.056 2.064 2.06 2.06 0 0 1-2.056 2.064 2.06 2.06 0 0 1-2.055-2.064Zm6.902-1.095a1.09 1.09 0 0 0-1.086 1.095c0 .608.489 1.095 1.086 1.095a1.09 1.09 0 0 0 1.087-1.095 1.09 1.09 0 0 0-1.087-1.095Zm-2.055 1.095a2.06 2.06 0 0 1 2.055-2.064 2.06 2.06 0 0 1 2.056 2.064 2.06 2.06 0 0 1-2.056 2.064 2.06 2.06 0 0 1-2.055-2.064Zm5.816 0a1.09 1.09 0 0 1 1.087-1.095 1.09 1.09 0 0 1 1.086 1.095 1.09 1.09 0 0 1-1.087 1.095 1.091 1.091 0 0 1-1.086-1.095Zm1.087-2.064a2.06 2.06 0 0 0-2.056 2.064 2.06 2.06 0 0 0 2.056 2.064 2.06 2.06 0 0 0 2.055-2.064 2.06 2.06 0 0 0-2.055-2.064ZM46.928 45.86c-.597 0-1.086.488-1.086 1.096 0 .607.489 1.095 1.086 1.095.598 0 1.087-.488 1.087-1.096 0-.607-.49-1.095-1.087-1.095Zm-2.055 1.096a2.06 2.06 0 0 1 2.055-2.065 2.06 2.06 0 0 1 2.056 2.065 2.06 2.06 0 0 1-2.056 2.064 2.06 2.06 0 0 1-2.055-2.065Zm5.816 0c0-.608.489-1.096 1.086-1.096a1.09 1.09 0 0 1 1.087 1.096 1.09 1.09 0 0 1-1.087 1.095 1.091 1.091 0 0 1-1.086-1.096Zm1.086-2.065a2.06 2.06 0 0 0-2.055 2.065 2.06 2.06 0 0 0 2.055 2.064 2.06 2.06 0 0 0 2.056-2.065 2.06 2.06 0 0 0-2.056-2.064Zm4.848.97c-.598 0-1.087.487-1.087 1.095 0 .607.489 1.095 1.087 1.095a1.09 1.09 0 0 0 1.086-1.096 1.09 1.09 0 0 0-1.087-1.095Zm-2.056 1.095a2.06 2.06 0 0 1 2.056-2.065 2.06 2.06 0 0 1 2.055 2.065 2.06 2.06 0 0 1-2.055 2.064 2.06 2.06 0 0 1-2.056-2.065Zm-8.788 19.09a1.09 1.09 0 0 1 1.087-1.095 1.09 1.09 0 0 1 1.086 1.095c0 .607-.489 1.095-1.086 1.095a1.091 1.091 0 0 1-1.087-1.095Zm1.087-2.064a2.06 2.06 0 0 0-2.056 2.064 2.06 2.06 0 0 0 2.056 2.064 2.06 2.06 0 0 0 2.055-2.064 2.06 2.06 0 0 0-2.055-2.064Zm4.91.969a1.09 1.09 0 0 0-1.087 1.095c0 .607.489 1.095 1.086 1.095a1.09 1.09 0 0 0 1.087-1.095 1.09 1.09 0 0 0-1.087-1.095Zm-2.056 1.095a2.06 2.06 0 0 1 2.055-2.064 2.06 2.06 0 0 1 2.056 2.064 2.06 2.06 0 0 1-2.056 2.064 2.06 2.06 0 0 1-2.055-2.064Zm5.816 0a1.09 1.09 0 0 1 1.087-1.095 1.09 1.09 0 0 1 1.086 1.095 1.09 1.09 0 0 1-1.087 1.095 1.09 1.09 0 0 1-1.086-1.095Zm1.087-2.064a2.06 2.06 0 0 0-2.056 2.064 2.06 2.06 0 0 0 2.056 2.064 2.06 2.06 0 0 0 2.055-2.064 2.06 2.06 0 0 0-2.055-2.064Z" class="-path--secondary" fill="#FF9E18"/>
  <path fill-rule="evenodd" d="M42.741 55.42c0-.535.504-1.04 1.04-1.04.535 0 1.039.505 1.039 1.04s-.505 1.039-1.04 1.039-1.039-.504-1.039-1.04Zm1.04-2.361c-1.265 0-2.361 1.096-2.361 2.36 0 .428.124.835.339 1.188l-3.352 3.352H36.78a.66.66 0 1 0 0 1.321h1.9a.66.66 0 0 0 .468-.193l3.573-3.573c.322.17.683.266 1.06.266 1.264 0 2.36-1.095 2.36-2.36s-1.096-2.361-2.36-2.361Zm-39.24 2.66c0-.535.504-1.039 1.04-1.039.535 0 1.039.505 1.039 1.04s-.504 1.039-1.04 1.039c-.535 0-1.039-.504-1.039-1.04Zm1.04-2.36c-1.265 0-2.361 1.096-2.361 2.36 0 1.265 1.096 2.361 2.36 2.361.377 0 .738-.097 1.06-.266l3.573 3.573a.66.66 0 0 0 .467.193h1.7a.66.66 0 1 0 0-1.321h-1.426l-3.352-3.352a2.29 2.29 0 0 0 .34-1.187c0-1.265-1.097-2.361-2.362-2.361Zm-3.14 12.56c0-.534.504-1.039 1.04-1.039.534 0 1.039.505 1.039 1.04s-.505 1.039-1.04 1.039-1.039-.504-1.039-1.04Zm1.04-2.36c-1.266 0-2.361 1.096-2.361 2.36 0 1.266 1.095 2.361 2.36 2.361 1.038 0 1.961-.737 2.26-1.7h7.44V65.26H5.74c-.299-.963-1.222-1.7-2.26-1.7Zm41.452 3.021H36.58V65.26h8.478a2.35 2.35 0 0 1 2.186-1.498c1.307 0 2.351 1.072 2.351 2.375s-1.044 2.375-2.351 2.375a2.358 2.358 0 0 1-2.31-1.93Zm-10.453 4.5h4.122l3.692 3.776a2.385 2.385 0 0 0-.285 1.133c0 1.303 1.044 2.375 2.351 2.375s2.352-1.072 2.352-2.375-1.045-2.375-2.352-2.375a2.32 2.32 0 0 0-1.141.298l-3.866-3.954a.66.66 0 0 0-.473-.199h-4.4v1.321Zm-23.8-.721a.66.66 0 0 0-.472.199l-4.092 4.185a2.25 2.25 0 0 0-.886-.184c-1.265 0-2.36 1.096-2.36 2.36 0 1.266 1.095 2.361 2.36 2.361s2.361-1.095 2.361-2.36a2.31 2.31 0 0 0-.442-1.344l3.81-3.896h4.421V70.36h-4.7ZM5.23 75.88c-.535 0-1.039.505-1.039 1.04s.504 1.039 1.04 1.039c.534 0 1.039-.504 1.039-1.04 0-.534-.505-1.039-1.04-1.039Zm39.13-.944c-.56 0-1.03.463-1.03 1.053 0 .59.47 1.054 1.03 1.054s1.03-.463 1.03-1.054c0-.59-.47-1.053-1.03-1.053Zm1.854-8.8c0-.59.47-1.053 1.03-1.053s1.03.463 1.03 1.053c0 .59-.47 1.054-1.03 1.054s-1.03-.463-1.03-1.054Z" fill="#D62015"/>
  <path fill-rule="evenodd" d="M43.68 19.259a2.88 2.88 0 0 0-2.86 2.86v11.6a2.88 2.88 0 0 0 2.86 2.861h45.4a2.88 2.88 0 0 0 2.861-2.86V28.99l-.3-6.986c-.008-1.597-1.341-2.746-2.86-2.746h-45.1Zm-1.539 2.86c0-.834.704-1.539 1.54-1.539h45.1c.875 0 1.539.644 1.539 1.44v.028l.3 6.986v4.686c0 .835-.705 1.539-1.54 1.539h-45.4c-.835 0-1.539-.704-1.539-1.54v-11.6Zm1.54 16.24a2.88 2.88 0 0 0-2.861 2.86v11a.66.66 0 1 0 1.321 0v-11c0-.834.704-1.539 1.54-1.539h45.1c.875 0 1.539.644 1.539 1.44V41.148l.3 6.986v4.686c0 .835-.705 1.539-1.54 1.539h-.004l-41.3.3a.66.66 0 1 0 .01 1.321l41.294-.3h.003a2.88 2.88 0 0 0 2.858-2.86V48.09l-.3-6.986c-.008-1.597-1.341-2.746-2.86-2.746h-45.1Zm3.439 19.66a.66.66 0 0 1 .66-.66h41c1.52 0 2.853 1.149 2.861 2.745l.3 6.987v4.729a2.88 2.88 0 0 1-2.86 2.86h-41.3a.66.66 0 1 1 0-1.321h41.3c.834 0 1.539-.704 1.539-1.54v-4.685l-.3-6.986V60.12c0-.796-.664-1.44-1.54-1.44h-41a.66.66 0 0 1-.66-.66Zm-32.35.4c2.831-5.57 9.629-7.746 15.207-4.912 3.777 1.985 6.143 5.956 6.143 10.213 0 4.167-2.177 7.942-5.76 9.921l-.34.189v4.629h-9.98v-4.545l-.36-.183C14.112 70.9 11.93 64 14.77 58.419Zm15.81-6.088c-6.222-3.164-13.821-.74-16.989 5.49-3.1 6.096-.835 13.618 5.129 16.897v5.062h12.62v-5.178c3.814-2.267 6.1-6.383 6.1-10.882 0-4.743-2.632-9.17-6.853-11.385l-.007-.004Zm1.1 11.389c0 1.4-1.1 2.5-2.5 2.5s-2.5-1.1-2.5-2.5 1.1-2.5 2.5-2.5 2.5 1.1 2.5 2.5Zm-11.3 2.5c1.4 0 2.5-1.1 2.5-2.5s-1.2-2.5-2.5-2.5c-1.4 0-2.5 1.1-2.5 2.5s1.1 2.5 2.5 2.5Z" class="-path--primary" fill="#083176"/>
</svg>
