<svg id="icon-products-security" viewBox="0 0 96 96" xmlns="http://www.w3.org/2000/svg">
  <path d="M18.715 28.13H83v59.917H18.715V28.129Z" class="-path--shadow" fill="#38C6F4"/>
  <path fill-rule="evenodd" d="M44.147 1.343c-10.834 0-16.999 4.329-20.44 8.72a22.063 22.063 0 0 0-3.333 6.002c-.3.819-.492 1.504-.611 1.987a12.959 12.959 0 0 0-.156.722l-.008.043-.002.012v.005l.65.103-.65-.102a.661.661 0 0 0-.008.102V34.15H12a.658.658 0 0 0-.658.657v59.918c0 .363.295.658.658.658h64.285a.658.658 0 0 0 .658-.658V34.81a.658.658 0 0 0-.658-.658h-7.597V18.937a.655.655 0 0 0-.008-.101l-.65.1.65-.1v-.002l-.001-.004-.002-.012-.007-.043a12.923 12.923 0 0 0-.155-.722 19.183 19.183 0 0 0-.61-1.988 22.037 22.037 0 0 0-3.327-6.002c-3.437-4.391-9.598-8.72-20.431-8.72ZM67.69 35.466a.655.655 0 0 0 .678 0h7.258V94.07h-62.97V35.466h55.034Zm-.319-1.315V18.992a11.569 11.569 0 0 0-.136-.627 17.871 17.871 0 0 0-.566-1.85 20.724 20.724 0 0 0-3.128-5.641c-3.19-4.077-8.972-8.216-19.395-8.216-10.424 0-16.21 4.139-19.404 8.216a20.75 20.75 0 0 0-3.134 5.642c-.28.769-.46 1.407-.57 1.85a11.434 11.434 0 0 0-.135.627V34.15h46.468ZM44.148 54.819c-3.418 0-6.192 2.76-6.192 6.17a6.172 6.172 0 0 0 3.97 5.76.667.667 0 0 0-.01.11v8.826c0 .363.295.657.658.657h3.413a.658.658 0 0 0 .658-.657v-8.826a.657.657 0 0 0-.034-.208 6.17 6.17 0 0 0 3.729-5.662c0-3.41-2.775-6.17-6.192-6.17Z" class="-path--primary" fill="#083176"/>
</svg>
