<svg id="icon-products-migration" viewBox="0 0 96 96" xmlns="http://www.w3.org/2000/svg">
  <path fill-rule="evenodd" d="M58.713 8.86c.492-3.573 7.98-6.375 17.13-6.375 9.563 0 17.25 3 17.156 6.844 0 .144-.028.302-.072.468h.223c0 4.134-.141 8.266-.282 12.387v.006a528.294 528.294 0 0 0-.244 8.505v3.664c-.008.097-.02.192-.037.287v.158l-.038.03c-.626 2.632-4.631 4.825-10.457 5.8-1.34.354-2.801.6-4.43.719l-.044-.605c-.967-3.193-3.97-5.548-7.494-5.639h-.187c-.75 0-1.5.094-2.25.282-.089-5.233-3.366-10.046-8.006-11.98V24.14H58.63V8.86h.084ZM11.437 55.64h41.25c1.593 0 2.906 1.22 2.812 2.813v27.28a2.92 2.92 0 0 1-2.906 2.907h-41.25c-.937 0-1.687-.469-2.25-1.125.75-.187 1.219-.75 1.219-1.5 0-.844-.656-1.5-1.5-1.5h-.281V68.86h.281c.844 0 1.5-.656 1.5-1.5s-.656-1.5-1.5-1.5h-.281v-7.312a2.92 2.92 0 0 1 2.906-2.906ZM12 85.829c0 .843.656 1.5 1.5 1.5.843 0 1.5-.657 1.5-1.5 0-.844-.657-1.5-1.5-1.5-.844 0-1.5.656-1.5 1.5Zm0-18.563c0 .844.656 1.5 1.5 1.5.843 0 1.5-.656 1.5-1.5 0-.843-.657-1.5-1.5-1.5-.844 0-1.5.657-1.5 1.5Zm4.593 18.563c0 .843.656 1.5 1.5 1.5s1.5-.657 1.5-1.5c0-.844-.656-1.5-1.5-1.5s-1.5.656-1.5 1.5Zm0-18.563c0 .844.656 1.5 1.5 1.5s1.5-.656 1.5-1.5c0-.843-.656-1.5-1.5-1.5s-1.5.657-1.5 1.5Z" class="-path--shadow" fill="#38C6F4"/>
  <path fill-rule="evenodd" d="M88.687 13.735c0-4.125-7.782-7.407-17.813-7.407-10.03 0-17.812 3.282-17.812 7.407 0 .342.07.685.188 1.027v7.709c-4.817.644-9.069 3.854-10.875 8.326-5.344-1.406-11.063 1.594-12.844 6.937a10.095 10.095 0 0 0 .563 8.063c1.312 2.531 3.468 4.5 6.187 5.344a9.656 9.656 0 0 0 3.281.562h30.469c2.25 0 4.406-.844 5.906-2.437a8.37 8.37 0 0 0 2.266-3.618c5.767-1.19 9.652-3.64 9.921-6.695V15.456c.4-.675.563-1.198.563-1.721ZM65.294 27.412c-2.49-3.058-6.282-5.014-10.427-5.053a3.658 3.658 0 0 1-.399-1.124v-4.688c2.719 2.719 8.906 4.594 16.406 4.594 7.313 0 13.406-1.781 16.219-4.313v4.407c-.281 3.562-7.594 6.562-16.312 6.562-1.94 0-3.751-.128-5.487-.385Zm2.956 7.323a13.182 13.182 0 0 0-1.98-5.96c1.41.178 2.882.24 4.417.24 7.5 0 13.78-2.062 16.312-5.062v6.375c-.357 2.586-4.784 5.172-11.912 5.903a7.993 7.993 0 0 0-4.963-1.684h-.28c-.47 0-1.032.094-1.594.188Zm10.312 8.53c0-2.266-.79-4.357-2.282-5.934 4.913-.719 8.77-2.257 10.625-4.378v5.906c-.178 2.145-3.253 4.29-8.412 5.46.046-.348.069-.7.069-1.053Zm-7.688-23.437c-9.937 0-16.593-3.187-16.593-6.187 0-3 6.656-6.188 16.593-6.188 9.938 0 16.594 3.188 16.594 6.188 0 3-6.656 6.187-16.594 6.187ZM39.562 50.391h30.375c1.969 0 3.844-.75 5.25-2.063 1.406-1.406 2.156-3.187 2.25-5.156 0-1.969-.75-3.844-2.063-5.156-1.406-1.406-3.187-2.156-5.156-2.25h-.187c-.657 0-1.406.094-2.063.281l-.75.188v-.75c-.187-6.75-5.812-12.094-12.562-11.907-5.063.094-9.562 3.375-11.25 8.157l-.187.562-.563-.187a9.451 9.451 0 0 0-11.906 6 9.425 9.425 0 0 0 .563 7.124 9.255 9.255 0 0 0 5.437 4.688 5.583 5.583 0 0 0 2.812.469ZM5.72 75.703A2.72 2.72 0 0 1 3 72.984V62.016a2.72 2.72 0 0 1 2.719-2.72h43.406c1.5 0 2.624 1.126 2.718 2.626l.188 6.656v4.5c0 1.5-1.125 2.625-2.625 2.719H5.719v-.094ZM49.03 60.515H5.719c-.844 0-1.5.657-1.5 1.5v11.063c0 .844.656 1.5 1.5 1.5h43.687c.75 0 1.406-.656 1.406-1.5v-4.5l-.188-6.656a1.62 1.62 0 0 0-1.593-1.406Zm-43.312 33A2.72 2.72 0 0 1 3 90.796V79.734a2.72 2.72 0 0 1 2.719-2.719h43.406c1.5 0 2.624 1.125 2.718 2.625l.188 6.656v4.5c0 1.5-1.125 2.625-2.625 2.72H5.719ZM49.03 78.328H5.719c-.844 0-1.5.656-1.5 1.5V90.89c0 .844.656 1.5 1.5 1.5h43.687c.75 0 1.406-.656 1.406-1.5v-4.5l-.188-6.656c-.093-.844-.75-1.406-1.593-1.406Z" class="-path--primary" fill="#083176"/>
  <path fill-rule="evenodd" d="m83.437 59.953-3.844-3.844-3.75 3.75c-.281.282-.281.657 0 .844.281.281.656.281.844 0l2.344-2.25v15.469H64.687a.64.64 0 0 0-.656.656.64.64 0 0 0 .656.656H80.25v-16.78l2.344 2.343a.716.716 0 0 0 .469.187c.137 0 .224-.05.335-.114.04-.023.083-.048.134-.073.187-.188.187-.563-.094-.844ZM8.907 69.14a1.88 1.88 0 0 1-1.876-1.875c0-1.03.75-1.875 1.781-1.875 1.125 0 1.97.844 1.97 1.875 0 1.125-.845 1.875-1.876 1.875Zm0-3c-.657 0-1.126.563-1.126 1.125 0 .657.469 1.125 1.125 1.125s1.125-.468 1.125-1.125c0-.562-.562-1.125-1.125-1.125Zm2.718 1.125A1.88 1.88 0 0 0 13.5 69.14c.938 0 1.781-.75 1.875-1.875 0-1.03-.844-1.875-1.969-1.875-1.03 0-1.78.844-1.78 1.875Zm.656 0c0-.562.47-1.125 1.125-1.125.656 0 1.219.563 1.125 1.125 0 .657-.469 1.125-1.125 1.125s-1.125-.468-1.125-1.125Zm5.624 1.875a1.88 1.88 0 0 1-1.875-1.875c0-1.03.75-1.875 1.782-1.875 1.125 0 1.968.844 1.968 1.875 0 1.125-.844 1.875-1.875 1.875Zm0-3c-.656 0-1.125.563-1.125 1.125 0 .657.47 1.125 1.125 1.125.657 0 1.125-.468 1.125-1.125 0-.562-.468-1.125-1.125-1.125ZM7.031 85.828a1.88 1.88 0 0 0 1.875 1.875c1.031 0 1.875-.75 1.875-1.875 0-1.032-.844-1.875-1.969-1.875-1.03 0-1.78.843-1.78 1.875Zm.75 0c0-.563.469-1.125 1.125-1.125.563 0 1.125.562 1.125 1.125 0 .656-.562 1.125-1.125 1.125-.656 0-1.125-.469-1.125-1.125Zm5.719 1.875a1.88 1.88 0 0 1-1.875-1.875c0-1.032.75-1.875 1.781-1.875 1.125 0 1.969.843 1.969 1.875-.094 1.125-.938 1.875-1.875 1.875Zm-.094-3c-.656 0-1.125.562-1.125 1.125 0 .656.47 1.125 1.125 1.125.656 0 1.125-.469 1.125-1.125.094-.563-.469-1.125-1.125-1.125Zm2.624 1.125a1.88 1.88 0 0 0 1.875 1.875c1.031 0 1.875-.75 1.875-1.875 0-1.032-.843-1.875-1.968-1.875-1.032 0-1.782.843-1.782 1.875Zm.75 0c0-.563.47-1.125 1.125-1.125.657 0 1.125.562 1.125 1.125 0 .656-.468 1.125-1.125 1.125-.656 0-1.125-.469-1.125-1.125Z" class="-path--secondary" fill="#FF9E18"/>
</svg>
