<svg id="icon-products-news" viewBox="0 0 96 96" xmlns="http://www.w3.org/2000/svg">
  <path fill-rule="evenodd" d="M82.701 9.734a2.529 2.529 0 0 0-.036-.396 1.852 1.852 0 0 0-.376-1.078 1.683 1.683 0 0 0-1.201-.589H8.934a1.615 1.615 0 0 0-1.193.566 1.783 1.783 0 0 0-.412 1.117v58.692c.11 8.454 6.58 15.218 14.468 15.127h57.214c7.932.082 14.428-6.74 14.511-15.243V16.936a1.804 1.804 0 0 0-.55-1.271 1.65 1.65 0 0 0-1.056-.419h-9.216V9.734ZM37.503 23.728c0-1.229-.93-2.225-2.076-2.225H16.19c-1.146 0-2.076.996-2.076 2.225v17.298c0 1.229.93 2.225 2.076 2.225h19.236c1.146 0 2.076-.996 2.076-2.225V23.728Z" class="-path--shadow" fill="#38C6F4"/>
  <path fill-rule="evenodd" d="M76.908 11.51H4.731c-.65.01-1.256.301-1.686.79l-.006.007-.005.007c-.358.43-.553.977-.557 1.539V72.553c.115 8.77 6.838 15.868 15.129 15.775h57.171c8.336.083 15.086-7.074 15.172-15.894V21.438a2.426 2.426 0 0 0-.759-1.734l-.006-.006a2.274 2.274 0 0 0-1.486-.597h-8.571v-4.845c.011-.152.01-.306 0-.458a2.542 2.542 0 0 0-.51-1.437l-.014-.02-.016-.018a2.367 2.367 0 0 0-1.663-.812h-.016ZM4.039 13.163a.97.97 0 0 1 .706-.336h72.13c.259.016.512.135.709.348.138.191.22.43.228.682v.017l.002.016c.008.096.008.192 0 .288l-.002.027v6.212h.036v55.275a.658.658 0 1 0 1.315 0V20.416h8.515c.22.006.439.091.619.253.202.19.33.474.337.786v50.97c-.082 8.18-6.321 14.665-13.847 14.588H17.595C10.114 87.099 3.9 80.67 3.792 72.539V13.862c.003-.264.094-.512.247-.7Zm39.99 9.62c0-.363.294-.657.657-.657H67.88a.658.658 0 1 1 0 1.315H44.686a.658.658 0 0 1-.657-.658Zm0 10.754c0-.363.294-.657.657-.657H67.88a.658.658 0 1 1 0 1.315H44.686a.658.658 0 0 1-.657-.658Zm.657 10.097a.658.658 0 1 0 0 1.315H67.88a.658.658 0 1 0 0-1.315H44.686ZM13.414 66.1c0-.363.295-.657.658-.657h52.533a.658.658 0 1 1 0 1.315H14.072a.658.658 0 0 1-.658-.657Zm.658-9.364a.658.658 0 1 0 0 1.315h52.533a.658.658 0 1 0 0-1.315H14.072Zm-.658 18.072c0-.364.295-.658.658-.658h52.533a.658.658 0 1 1 0 1.315H14.072a.658.658 0 0 1-.658-.657Zm1.109-50.33c0-.91.677-1.567 1.418-1.567h19.236c.741 0 1.418.658 1.418 1.567v17.298c0 .91-.677 1.568-1.418 1.568H15.94c-.74 0-1.418-.659-1.418-1.568V24.478Zm1.418-2.882c-1.552 0-2.733 1.334-2.733 2.882v17.298c0 1.549 1.181 2.883 2.733 2.883h19.236c1.552 0 2.733-1.334 2.733-2.883V24.478c0-1.548-1.181-2.882-2.733-2.882H15.94Z" class="-path--primary" fill="#083176"/>
</svg>
