<svg id="icon-business-checklist" viewBox="0 0 96 96" xmlns="http://www.w3.org/2000/svg">
  <path class="-path--shadow" fill="#38C6F4" fill-rule="evenodd" d="M58.224 8.222h7.272a2.772 2.772 0 0 1 2.764 2.78v52.935L57.414 77.739H22.601a2.78 2.78 0 0 1-2.765-2.78V11.002a2.772 2.772 0 0 1 2.765-2.779h7.005V3.39c0-.768.619-1.39 1.382-1.39h25.853c.764 0 1.383.622 1.383 1.39v4.832Z"/>
  <path class="-path--primary" fill="#083176" fill-rule="evenodd" d="M27.478 6.128c-.417 0-.76.34-.76.767v6.98c0 .427.343.768.76.768H53.73c.417 0 .76-.34.76-.768v-6.98a.764.764 0 0 0-.76-.767H27.478Zm-1.942.767c0-1.073.866-1.948 1.942-1.948H53.73c1.076 0 1.942.875 1.942 1.948v4.432h6.305a3.363 3.363 0 0 1 3.355 3.37v52.966l-1.182 1.503v-54.47a2.181 2.181 0 0 0-2.173-2.188h-6.305v1.368a1.945 1.945 0 0 1-1.942 1.948H27.478a1.945 1.945 0 0 1-1.942-1.948v-1.368h-6.454a2.181 2.181 0 0 0-2.174 2.189v63.956a2.189 2.189 0 0 0 2.182 2.19h35.884l-.928 1.181H19.09a3.37 3.37 0 0 1-3.363-3.368V14.697a3.363 3.363 0 0 1 3.355-3.37h6.454V6.895Zm21.014 20.83L35.984 40.83 32.39 35.93l.952-.699 2.687 3.661 9.602-11.91.92.742ZM25.043 50.45a.59.59 0 0 0 0 1.181H52.75a.59.59 0 1 0 0-1.18H25.043Zm-.59 7.658a.59.59 0 0 1 .59-.59h30.479a.59.59 0 0 1 0 1.18H25.043a.59.59 0 0 1-.59-.59Zm.59 6.208a.59.59 0 1 0 0 1.18h24.942a.59.59 0 1 0 0-1.18H25.043Z"/>
  <path class="-path--secondary" fill="#FF9E18" fill-rule="evenodd" d="M74.99 57.82a.975.975 0 0 0-1.361.24l-.01.014-20.212 25.719a.994.994 0 0 0-.168.307l-.003.01-2.783 7.436-.008.018c-.136.3-.096.65.102.91a.873.873 0 0 0 1.23.162l.014-.011 6.56-4.42.003-.003c.1-.07.191-.156.268-.254l.001-.002 20.21-25.715.01-.012.016-.018a.995.995 0 0 0-.106-1.387l-3.751-2.985-.012-.009Zm-2.318-.451a2.156 2.156 0 0 1 3.003-.511l.005.003.03.022.009.007 3.787 3.014.007.006a2.176 2.176 0 0 1 .245 3.057l-.003.004-.013.015-20.188 25.688h-.001c-.15.193-.329.362-.53.502l-.006.004-6.535 4.404a2.054 2.054 0 0 1-2.873-.393 2.073 2.073 0 0 1-.249-2.096l2.763-7.38c.08-.239.203-.462.36-.659L72.673 57.37Z"/>
</svg>
