<svg id="icon-people-us-network" viewBox="0 0 96 96" xmlns="http://www.w3.org/2000/svg">
  <path fill-rule="evenodd" d="M11.865 19.007 51.6 25.051h.088l16.558 4.877c.167.05.306.169.382.326l3.108 6.445a.618.618 0 0 0 .822.288v-.001h.055l14.482-8.733a.671.671 0 0 0 .261-.327l1.568-4.57c.11-.32.46-.49.782-.38h.001a.666.666 0 0 1 .315.247l2.934 4.603a.607.607 0 0 1 0 .627L75.968 58.74a.61.61 0 0 0-.04.507l3.905 10.454a.607.607 0 0 1-.352.783l-.005.002-.005.002a.604.604 0 0 1-.67-.14l-8.038-8.005a.625.625 0 0 0-.502-.174L55.525 63.77a.63.63 0 0 0-.402.214l-6.698 7.825a.618.618 0 0 1-.869.075l-.002-.002-.067-.073-7.08-8.292a.618.618 0 0 0-.804-.114l-2.01 1.281a.618.618 0 0 1-.837-.16l-3.295-4.71a.623.623 0 0 0-.496-.26l-9.452-.187a.671.671 0 0 1-.368-.133l-11.708-9.246a.54.54 0 0 1-.188-.254L6.687 38.093a.598.598 0 0 1 0-.374l4.488-18.232a.61.61 0 0 1 .69-.48Zm19.17 23.182a3.195 3.195 0 0 1-3.202 3.189 3.195 3.195 0 0 1-3.201-3.19A3.195 3.195 0 0 1 27.833 39a3.195 3.195 0 0 1 3.202 3.189Zm32.347 14.763a3.195 3.195 0 0 0 3.202-3.188 3.195 3.195 0 0 0-3.202-3.19 3.195 3.195 0 0 0-3.202 3.19 3.195 3.195 0 0 0 3.202 3.188Zm-12.707-10.86a3.195 3.195 0 0 1-3.201 3.189 3.195 3.195 0 0 1-3.202-3.19 3.195 3.195 0 0 1 3.202-3.188 3.195 3.195 0 0 1 3.201 3.189ZM36.113 53.69a3.195 3.195 0 0 0 3.202-3.189 3.195 3.195 0 0 0-3.202-3.188 3.195 3.195 0 0 0-3.201 3.188 3.195 3.195 0 0 0 3.201 3.19Z" class="-path--shadow" fill="#38C6F4"/>
  <path fill-rule="evenodd" d="m47.508 29.71-39.7-6.034-4.273 17.355h5.638a.66.66 0 0 1 .265 0h14.714a3.86 3.86 0 0 1 3.681-2.689h.026c2.13 0 3.86 1.72 3.86 3.847a3.853 3.853 0 0 1-3.86 3.846h-.025a3.854 3.854 0 0 1-3.857-3.689H10.571l5.195 7.498h16.57a3.857 3.857 0 0 1 3.803-3.189c2.13 0 3.86 1.72 3.86 3.846a3.853 3.853 0 0 1-3.86 3.847 3.857 3.857 0 0 1-3.803-3.19H15.421a.658.658 0 0 1-.54-.282l-5.91-8.53H3.49l4.371 11.15 11.709 9.23 9.44.2c.41.011.791.218 1.024.555l.003.004 3.264 4.645 1.938-1.25a1.289 1.289 0 0 1 1.682.247l7 8.215.004-.001 6.675-7.778c.214-.257.52-.419.852-.451l14.732-1.6.016-.002c.376-.032.747.098 1.022.356l.012.013 5.15 5.123 1.336 1.33a.445.445 0 0 0 .47.102.436.436 0 0 0 .257-.562l-.24-.643-2.888-7.722-.005-.015a1.32 1.32 0 0 1 .08-1.05l.007-.014 4.524-8.072-8.713.06a3.857 3.857 0 0 1-3.804 3.194 3.853 3.853 0 0 1-3.86-3.846 3.853 3.853 0 0 1 3.86-3.847 3.857 3.857 0 0 1 3.803 3.185l5.81-.041-4.199-6.559H51.337a3.855 3.855 0 0 1-3.838 3.436 3.853 3.853 0 0 1-3.859-3.846 3.853 3.853 0 0 1 3.86-3.847 3.859 3.859 0 0 1 3.752 2.942h17.93c.224 0 .433.114.553.303l4.841 7.56 2.089-.015L88.38 32.127v-.006l-2.55-3.98a.302.302 0 0 0-.15-.12.288.288 0 0 0-.356.18l-1.337 3.92-.001.004c-.096.287-.291.533-.555.689l-.003.002-14.455 8.729a.658.658 0 0 1-.253.088 1.289 1.289 0 0 1-1.578-.66l-3.097-6.41-16.453-4.845a.655.655 0 0 1-.084-.008ZM77.643 53.98l11.875-21.194.003-.004a1.324 1.324 0 0 0-.018-1.347l-2.566-4.002a1.617 1.617 0 0 0-.824-.653l-.012-.004a1.603 1.603 0 0 0-2.02.997l-.002.002-1.335 3.919-14.329 8.652a.66.66 0 0 0-.099.034l-3.085-6.385a1.246 1.246 0 0 0-.807-.69L47.873 28.43a.656.656 0 0 0-.186-.027h-.03l-39.668-6.03h-.003a1.287 1.287 0 0 0-1.448.957L2.054 41.545a1.269 1.269 0 0 0 .022.797l4.559 11.629c.081.217.22.407.402.55h.002l11.721 9.241.003.002c.223.178.5.276.784.277l9.413.2 3.277 4.661v.002c.4.57 1.18.721 1.762.34h.003l1.933-1.247 7.005 8.22a.67.67 0 0 0 .036.04l.074.073a.65.65 0 0 0 .068.06 1.33 1.33 0 0 0 1.786-.17l6.694-7.801 14.713-1.599c.003 0 .005.001.007.003l3.935 3.914 2.536 2.523a1.76 1.76 0 0 0 1.86.406 1.751 1.751 0 0 0 1.03-2.254l-3.123-8.352v-.002l5.052-9.016a.665.665 0 0 0 .035-.063ZM66.318 66.823l-.002-.003h-.007v-.007l-.002-.002.001-.001.018.007v.002h-.002l-.004.005-.002-.001ZM27.845 39.658a2.538 2.538 0 0 0-2.53 2.53 2.538 2.538 0 0 0 2.533 2.532 2.538 2.538 0 0 0 2.53-2.531 2.538 2.538 0 0 0-2.533-2.531Zm5.75 10.843a2.538 2.538 0 0 1 2.544-2.53 2.538 2.538 0 0 1 2.545 2.53 2.538 2.538 0 0 1-2.545 2.531 2.538 2.538 0 0 1-2.544-2.53Zm11.36-4.41a2.538 2.538 0 0 1 2.544-2.53 2.538 2.538 0 0 1 2.545 2.53 2.538 2.538 0 0 1-2.544 2.532 2.538 2.538 0 0 1-2.545-2.531Zm15.909 7.672a2.538 2.538 0 0 1 2.544-2.53 2.538 2.538 0 0 1 2.544 2.535v.013a2.538 2.538 0 0 1-2.544 2.514 2.538 2.538 0 0 1-2.544-2.532Z" class="-path--primary" fill="#083176"/>
</svg>
