<svg id="icon-products-financial-services" viewBox="0 0 96 96" xmlns="http://www.w3.org/2000/svg">
  <path d="m74.975 64.975 3-8.1c.1-.4.2-.8.2-1.2 0-.4-.1-.8-.3-1.2-.2-.4-.4-.7-.7-1-.3-.3-.6-.5-1-.6l-.1.1c-.7-.2-1.5-.2-2.2.1-.7.3-1.3.8-1.6 1.5l-3 5.3c-1.2 2-3 3.6-5.2 4.5l-16 5.8c-.4.2-.9.2-1.4.1-.5-.1-.9-.3-1.2-.6-.4-.4-.7-1-.7-1.6 0-.6.2-1.2.6-1.6.2-.2.5-.4.8-.5l6.3-2.7c.7-.3 1.3-.9 1.6-1.6.3-.7.3-1.5 0-2.3 0-.1-.1-.1-.1-.2-.3-.6-.9-1.1-1.6-1.4-.7-.3-1.4-.3-2.1-.1l-12.4 3.7c-1.9.6-3.6 1.5-5 2.8-1.4 1.3-2.6 2.9-3.3 4.7l-1.5 3.9c-.9 2.3-1.7 4.7-2.5 7.1l-2.9 10h18.3c-.1-1.5.3-3.1 1.1-4.4.8-1.3 1.9-2.4 3.3-3.1l25.2-12.5c2-1 3.6-2.8 4.4-4.9Z" class="-path--shadow" fill="#38C6F4"/>
  <path fill-rule="evenodd" d="M51.6 2.2c-.3-.1-.7-.2-1-.2-.3 0-.7.1-1 .2-.15.1-.275.2-.4.3-.125.1-.25.2-.4.3-.3.2-.5.5-.6.8-.1.3-.2.7-.2 1v2.6c0 .3.1.7.2 1 .2.3.4.6.6.8.2.3.5.5.8.6.3.1.7.2 1 .2.3 0 .7-.1 1-.2.3-.2.6-.4.8-.6.3-.2.5-.5.6-.8.1-.3.2-.7.2-1V4.6c0-.3-.1-.7-.2-1-.2-.3-.4-.6-.6-.8-.2-.3-.5-.5-.8-.6ZM24.475 27.875h2.6c.3 0 .7.1 1 .2.3.1.6.3.8.6.2.2.4.5.6.8.1.3.2.7.2 1 0 .3-.1.7-.2 1-.1.3-.3.6-.6.8-.2.2-.5.4-.8.6-.3.1-.7.2-1 .2h-2.6c-.3 0-.7-.1-1-.2-.3-.1-.6-.3-.8-.6-.2-.2-.4-.5-.6-.8-.1-.3-.2-.7-.2-1 0-.3.1-.7.2-1 .1-.3.3-.6.6-.8.2-.2.5-.4.8-.6.3-.1.6-.2 1-.2Zm49.4 0h2.6c.3 0 .7.1 1 .2.3.1.6.3.8.6.2.2.4.5.6.8.1.3.2.7.2 1 0 .3-.1.7-.2 1-.1.3-.3.6-.6.8-.2.2-.5.4-.8.6-.3.1-.7.2-1 .2h-2.6c-.3 0-.7-.1-1-.2-.3-.1-.6-.3-.8-.6-.2-.2-.4-.5-.6-.8-.1-.3-.2-.7-.2-1 0-.3.1-.7.2-1 .1-.3.3-.6.6-.8.2-.2.5-.4.8-.6.3-.1.6-.2 1-.2Zm-43.6-17.7c.5-.5 1.1-.8 1.8-.8s1.4.3 1.8.8l1.8 1.8c.5.5.8 1.1.8 1.8s-.3 1.4-.8 1.8c-.5.5-1.1.8-1.8.8s-1.4-.3-1.8-.8l-1.8-1.7c-.5-.5-.8-1.1-.8-1.8s.3-1.4.8-1.9Zm36.7 0-1.8 1.9c-.5.5-.8 1.2-.8 1.8 0 .7.3 1.3.8 1.8.4.5 1.1.8 1.8.8s1.3-.3 1.8-.8l1.8-1.9c.5-.4.8-1.1.8-1.8s-.3-1.3-.8-1.8c-.4-.5-1.1-.8-1.8-.8s-1.3.3-1.8.8Z" class="-path--secondary" fill="#FF9E18"/>
  <path fill-rule="evenodd" d="M33.526 30.875c0-9.659 7.79-17.45 17.45-17.45 9.659 0 17.45 7.791 17.45 17.45 0 9.659-7.791 17.45-17.45 17.45a17.422 17.422 0 0 1-17.45-17.45Zm17.45-16.15a16.122 16.122 0 0 0-16.15 16.15c0 8.941 7.209 16.15 16.15 16.15 8.94 0 16.15-7.209 16.15-16.15 0-8.941-7.21-16.15-16.15-16.15Zm-5 24.15c0-.4-.1-.7-.4-.9-.3-.3-.7-.5-1.3-.7-.8-.3-1.5-.6-1.9-1-.4-.4-.6-.9-.6-1.6 0-.7.2-1.2.6-1.6.4-.4.9-.7 1.6-.7v-1.3h.9v1.3c.7.1 1.2.4 1.6.8.4.5.6 1.1.6 1.9h-1.1c0-.6-.1-1-.4-1.3-.3-.3-.6-.5-1.1-.5-.5 0-.8.1-1.1.4-.3.2-.4.6-.4 1s.1.7.4 1a8.363 8.363 0 0 1 .11.076h.001c.287.194.66.448 1.188.624.6.2 1.1.4 1.4.7.3.2.6.5.8.8.2.2.2.5.2 1 0 .7-.2 1.2-.6 1.6-.4.4-1 .7-1.7.7v1.1h-.9v-1.1c-.7-.1-1.3-.3-1.7-.8-.4-.5-.6-1.1-.6-1.9h1.1c0 .6.1 1 .4 1.3.3.3.7.4 1.2.4s.9-.1 1.2-.4c.4-.2.5-.5.5-.9Zm10.4-.8h2.3v-.7h-2.3v-.8h2.3v-.7h-2.3c.1-.7.2-1.3.6-1.7.3-.4.8-.6 1.5-.6.4 0 .9.1 1.3.2l.1-1c-.5-.1-1-.2-1.4-.2-1 0-1.7.3-2.3.9-.6.6-.9 1.4-.9 2.4h-1.1v.7h1.1v.8h-1.1v.7h1.1c0 1.1.3 1.9.9 2.5.5.6 1.3.9 2.3.9.4 0 .9-.1 1.4-.2l-.1-1c-.4.1-.8.2-1.3.2-.6 0-1.1-.2-1.5-.6-.4-.4-.6-1-.6-1.8Zm-5.7-13.8 1.8-4h1.3l-2.2 4.3h1.5v.7h-1.9v1h1.9v.7h-1.9v1.9h-1.1v-1.9h-1.9v-.7h1.9v-1h-1.9v-.7h1.6l-2.2-4.3h1.3l1.8 4ZM71.053 55.75c-.816-.233-1.773-.242-2.635.128-.796.341-1.53.927-1.917 1.69l-2.992 5.287a1.091 1.091 0 0 0-.01.018c-1.025 1.956-2.702 3.452-4.761 4.296l-15.89 5.897a.636.636 0 0 0-.064.028c-.236.118-.567.131-1.11.131-.239 0-.459-.133-.871-.441-.221-.228-.337-.422-.398-.667-.073-.292-.08-.509-.08-.86.082-.316.15-.463.309-.622a.648.648 0 0 0 .081-.1.934.934 0 0 1 .242-.213c.067-.047.14-.092.222-.144l.031-.02c.055-.033.116-.07.175-.11l6.105-2.658c.283-.08.514-.22.692-.343.087-.06.17-.124.24-.176l.017-.013c.078-.059.139-.104.196-.142a.654.654 0 0 0 .099-.081c.358-.359.635-.758.77-1.302l.045-.172c.082-.31.175-.663.175-1.086a4.18 4.18 0 0 0-.213-1.245.747.747 0 0 0-.143-.32.611.611 0 0 0-.012-.026c-.386-.771-1.124-1.363-1.926-1.706-.86-.369-1.716-.362-2.534-.128l-.012.004-12.4 3.8-.005.001c-1.972.623-3.762 1.565-5.247 2.944-1.455 1.351-2.72 3.03-3.463 4.939v.002l-1.5 3.796v.002a85.214 85.214 0 0 0-2.419 7.155v.001l-2.9 10a.65.65 0 0 0 .624.831h18.3a.65.65 0 0 0 .649-.693 6.962 6.962 0 0 1 1.005-4.016c.746-1.213 1.761-2.222 3.036-2.86h.001l25.1-12.5v.001l.01-.006c2.225-1.165 3.944-2.98 4.807-5.245l.002-.005 3-8.1a.646.646 0 0 0 .02-.068l.009-.031c.095-.38.211-.846.211-1.327 0-.512-.129-1.011-.368-1.49a4.237 4.237 0 0 0-.822-1.17c-.342-.342-.722-.61-1.228-.751l-.141-.07a.647.647 0 0 0-.112-.044Zm-2.123 1.322c.522-.223 1.141-.238 1.71-.087l.144.071a.65.65 0 0 0 .133.05c.256.064.456.187.698.429.24.24.401.477.578.83.16.321.231.622.231.91 0 .297-.072.61-.172 1.008l-2.985 8.06-.001.003c-.737 1.932-2.215 3.516-4.188 4.55L39.986 85.393h-.001c-1.525.763-2.71 1.955-3.563 3.341a8.311 8.311 0 0 0-1.21 4.091H18.442l2.658-9.168a83.927 83.927 0 0 1 2.381-7.044v-.001l1.5-3.798.001-.003c.657-1.69 1.792-3.212 3.137-4.46 1.315-1.22 2.923-2.078 4.75-2.655l.003-.001 12.389-3.797c.58-.164 1.12-.156 1.66.074.566.243 1.01.622 1.238 1.026a.752.752 0 0 0 .117.233c.082.257.15.561.15.844 0 .242-.045.416-.122.715l-.058.227c-.06.242-.174.434-.389.657-.072.05-.14.102-.199.146l-.012.01a5.95 5.95 0 0 1-.202.148 1.029 1.029 0 0 1-.325.166.65.65 0 0 0-.102.035l-6.2 2.7a.647.647 0 0 0-.101.055 7.136 7.136 0 0 1-.189.12l-.033.02c-.084.053-.18.113-.275.18-.17.117-.38.28-.544.505-.395.414-.525.841-.63 1.258a.65.65 0 0 0-.019.158v.02c0 .392 0 .76.12 1.238.136.544.412.943.77 1.302a.644.644 0 0 0 .07.06l.049.037c.364.274.92.693 1.641.693h.06c.445 0 1.064.001 1.596-.252l15.87-5.889a.485.485 0 0 0 .02-.007c2.334-.955 4.25-2.655 5.425-4.89l2.995-5.292a.64.64 0 0 0 .016-.03c.214-.428.676-.836 1.274-1.093Z" fill="#1F2E5E"/>
</svg>
