<svg id="icon-products-route-miles" viewBox="0 0 96 96" xmlns="http://www.w3.org/2000/svg">
  <path fill-rule="evenodd" d="M21.5 41.4c1-17.6 16-31.2 33.6-30.2s31 16.1 30 33.7-16 31.2-33.5 30.2c-17.7-1-31.1-16.1-30.1-33.7Zm48.3 8.7c0 1.2-.9 2.1-2.1 2.1-1.2 0-2.1-.9-2.1-2.1 0-1.2.9-2.1 2.1-2.1 1.2 0 2.1 1 2.1 2.1Zm-24 .3c1.2 0 2.1-.9 2.1-2.1 0-1.2-.9-2.1-2.1-2.1-1.2 0-2.1.9-2.1 2.1 0 1.2 1 2.1 2.1 2.1Zm-10-16.5c0 1.2-.9 2.1-2.1 2.1-1.2 0-2.1-.9-2.1-2.1 0-1.2.9-2.1 2.1-2.1 1.2 0 2.1.9 2.1 2.1Zm22.8-2.7c1.2 0 2.1-.9 2.1-2.1 0-1.2-.9-2.1-2.1-2.1-1.2 0-2.1.9-2.1 2.1 0 1.2.9 2.1 2.1 2.1Z" class="-path--shadow" fill="#38C6F4"/>
  <path fill-rule="evenodd" d="M17.4 46.3c0-17.9 14.4-32.4 32.2-32.4 17.8 0 32.2 14.6 32.2 32.4 0 17.9-14.4 32.4-32.2 32.4-17.8 0-32.2-14.5-32.2-32.4Zm1.3 0c0 17.2 13.8 31.1 30.9 31.1 17 0 30.9-13.9 30.9-31.1 0-17.2-13.8-31.1-30.9-31.1-2.944 0-5.79.412-8.485 1.182.293.087.587.221.748.537l.037-.019.1.2v.2c0 .257 0 .473.053.7H43v.5h.017l.058-.35L43 18l.08.125.02-.125.015.18.01.018-.008.001.003.041.022.26h.058-.02l.01-.002a1.287 1.287 0 0 0 .116-.016l-.18-.284c.022-.003.044-.01.068-.017a.54.54 0 0 1 .1-.023l-.094.042.12.279a.381.381 0 0 0 .18-.079v.1l.11-.055c.006.022.01.046.013.07l-.08.034.024.036.06-.022a.707.707 0 0 0-.004-.047l.177-.074V18.4s-.008-.016-.024-.038l-.165.083a.62.62 0 0 0-.125-.252.35.35 0 0 0-.192-.035l.113-.051-.007-.007c-.1-.1-.2-.1-.2-.1H43l.6-.4.15.352 1.45-.652-.773 1.335.023.015c.075.05.15.1.25.15 0 .062.038.085.09.118a.56.56 0 0 1 .11.082c0 .062.038.124.09.21.033.05.07.111.108.186l.047.013.02.006.035-.015.01.028c.06.018.125.04.19.072.025.015.048.03.07.046.51-.39 1.366-.864 2.13-1.246.3-.2.8-.4 1.1-.5.2-.1.4-.1.6-.1.165 0 .4.069.588.262.17-.062.341-.062.512-.062l-.007.1H50.5l-.037.24A.647.647 0 0 1 51 18v.338c.067.029.1.062.1.062l-.05.101.05.003V18.4l.007.02c.01-.02.035-.02.093-.02l.052.124c.114.021.23.055.348.099V18.6c0-.1-.1-.2-.1-.2h-.1s-.1-.1-.3 0V18c.6 0 1.2.3 1.6.6.188.14.375.303.552.457.158.137.308.267.443.368.06.03.105.075.105.075l.1.1-.268.422.04.028.328-.45c.5.3.8.5 1 .7l.3.3.2.4c0 .1 0 .3-.1.5a.583.583 0 0 1-.144.182c.058.073.108.146.144.218.1.1.2.3.2.5 0 .028 0 .063-.002.102l.002-.002.05.05-.05.05-.015.015v.002l.015-.017.005.005.048-.053c.086.083.172.16.255.232.17.15.327.29.453.46l.039-.044c.4.5.7.8 1.1 1.1l-.364.572.134.106.43-.478h.1c.05 0 .1.025.15.05.05.025.1.05.15.05l-.003.008c.167.024.335.108.503.192.05.05.1.075.15.1.05.025.1.05.15.1 0 .05.05.1.112.163.046.045.098.097.142.16.017.024.032.05.046.077.1.3.2.6.2.9 0 .3-.2.6-.4.8-.2.2-.4.3-.6.4-.2.1-.4.2-.6.2l-.075-.325-.089-.384L57.6 27a1.933 1.933 0 0 1-.056.026l.156.674c-.132.044-.244.069-.346.09-.03.008-.06.014-.09.02l-.206.065a.76.76 0 0 1-.072.45l.314-.025-.329.055a1.348 1.348 0 0 1-.012.024l.34-.079v.1l-.162.038.263-.038v.2l-.1.2-.056-.028-.002.004.058.024c-.1.2-.1.4-.1.6l-.117.01.027.09h.09v.323l.1-.023c0 .1 0 .2.1.3l.3.6-.6.3-.2-.4c.057-.058.082-.082.092-.111.008-.022.008-.047.008-.089a.135.135 0 0 0 .044-.106l-.233.128-.011-.022a.42.42 0 0 1-.017.016l.01.015-.041.022.348.547s-.1.1-.2.1h-.2c-.022 0-.048.005-.078.01-.098.017-.236.042-.378-.07l-.044.06c-.069-.069-.15-.149-.221-.241-.18.242-.306.495-.38.641l-.1-.05v.35l-.1.1-.397-.319L55 31.6c0-.034-.162.082-.394.277.029.047.061.09.094.123.1.1.2.2.3.2h.3c-.041.041-.1.083-.169.131a2.413 2.413 0 0 0-.331.269c-.137.137-.286.275-.431.408-.25.23-.487.449-.628.634a.94.94 0 0 1-.019.258 5.79 5.79 0 0 0-.009.055l.387.645h-.584a2.55 2.55 0 0 1-.216.4c-.244.407-.62.879-.806 1.095l.006.005-.099.099-.001.001-.6.6-.43-.478-.003.003.333.375c-.117.117-.166.2-.206.269a.594.594 0 0 1-.094.131c0 .033-.011.078-.026.137-.03.119-.074.296-.074.563l-.595-.046-.005.046a.26.26 0 0 0 .007.054l.593.046s0 .2.1.3c.022.067.05.145.08.23.105.295.242.682.32 1.07.1.2.1.5 0 .8-.1.3-.4.6-.8.7l-.136-.591a.497.497 0 0 1-.036-.003l.072.394c-.3.1-.5.1-.8-.1-.3-.1-.4-.3-.5-.5-.2-.3-.3-.7-.3-1l.102-.016c-.002-.028-.002-.056-.002-.084l.586-.527a1.429 1.429 0 0 0-.052-.092L49.3 39c-.1-.2-.2-.3-.3-.4l-.1-.1s-.1-.1-.4-.2l.024-.047c-.289-.169-.64-.253-.824-.253h-.1v.9l-.872-.29-.028.09a4.811 4.811 0 0 0-2.617-.083c-.988.999-1.38 2.39-.983 3.683l-.06.014c.2.512.48.693.76.786.275.092.718.015 1.252-.152l.048-.048c0-.05.025-.075.05-.1.025-.025.05-.05.05-.1l.038.024c.089-.174.187-.35.362-.524l.6-.6c.2-.2.6-.4 1-.3.375.094.662.364.944.645l.056-.045c.4.4.2 1 .1 1.2-.1.15-.175.3-.25.45-.056.112-.112.224-.178.336A2.554 2.554 0 0 1 47.8 44l-.046-.029a3.97 3.97 0 0 0-.26.523 4.332 4.332 0 0 1-.094.206c-.032.094-.053.159-.068.2h.368v.7h.15l.05-.6c.2 0 .7 0 1.1.1.5.1.9.4 1.2.9l-.086.043c.086.286.086.571.086.857 0 .1-.025.2-.05.3-.025.1-.05.2-.05.3-.1.3-.1.5-.1.6 0 .1 0 .2.2.3l-.026.035c.903.18 1.806.35 2.709.364l.048-.068c.069-.097.152-.214.269-.33l.453.361a9.13 9.13 0 0 0 .113-.15L53.4 48.2c.3-.4.7-.9 1.1-1.2.074-.037.149-.088.228-.143.135-.092.284-.194.472-.257.3-.1.7-.2 1 .1l-.397.546a.673.673 0 0 0 .008.06.523.523 0 0 0-.048-.005l-.027.037a.39.39 0 0 1 .051.075l.04-.04a.316.316 0 0 0 .073.127.19.19 0 0 0 .038.108l.162-.108-.1-.1a.322.322 0 0 0-.121-.079l.42-.42.1-.101v-.3c.2 0 .4.1.5.3a.786.786 0 0 1 .1.329.776.776 0 0 1 .156.127l.045.044-.202.224c0 .005-.002.01-.003.014l.305-.338c.2.1.3.2.4.3 0 .07.05.091.079.097l.02-.097c.267.089.532.02.868-.066l.133-.034.022.095c.391-.097.876-.19 1.456-.099l.022-.096c.7.1 1.2.6 1.5.9l-.569.632.019.018.05-.05.5-.5c.2.2.3.3.5.4l-.413.649a.502.502 0 0 0 .01.005l.503-.754c.6.4 1.2.7 1.9.8l-.075.325.075-.225c.142.07.27.13.392.184.22.1.414.187.608.316l-.35.55-.05.079.002.071h.798c0 .7.5 1.3 1.2 1.4h.2l.2.2.6.6-.034.043c.592.372 1.374.564 2.434.757a7.805 7.805 0 0 0 .094.026c.202.056.404.104.606.152.467.11.933.222 1.4.422l-.242.58a2.261 2.261 0 0 1 .042.02l.3-.6c.4.2.6.6.6.8.07.21.042.418.02.594-.01.076-.02.145-.02.206-.1.5-.3 1.1-.5 1.7-.349.837-.795 1.82-1.168 2.643-.162.357-.311.685-.432.957l-.2-.1c-.117.234-.2.434-.269.6-.028.067-.053.129-.078.185l.047.015c-.58 1.641-1.904 2.723-2.985 3.606l-.11.09.095.104c-.193.165-.385.322-.573.477-.497.406-.965.788-1.327 1.223-1.2 1.3-2.6 2.4-4.2 3.2l-.282-.564L61 70.1l-.013.01.313.49c-1.096.843-2.264 1.544-3.442 2.223L58 73l-.188-.15-.055.031.243.219a1.935 1.935 0 0 0-.144.084 2.46 2.46 0 0 1-.164.095l.008.021s-.1.1-.2.1l-.019-.037c-.062.017-.131.03-.208.035-.1.06-.198.123-.294.187l1.22.215-1.5.9-.398-.597-.002.002-.002.018.303.477a6.932 6.932 0 0 0-.536.453l.236.047v.5h-.118c-.067.356-.311.515-.482.6-.1.1-.3.1-.5.1-.3 0-.7 0-1.1-.1a2.95 2.95 0 0 0-.5-.1c-.14-.02-.279-.04-.406-.072l.006.072h-.4l.005-.061c-.033-.015-.07-.027-.105-.039a.652.652 0 0 1-.169-.074L52.5 76l-.1-.1-.055-.055-.045.055a.756.756 0 0 1-.18-.34L52 75.4l.104-.07c.01-.081.036-.144.059-.199.009-.022.018-.043.024-.064l-.287.133c-.1-.1-.1-.2-.1-.3v-.2c.1 0 .1-.1.1-.2.05-.05.075-.125.1-.2.025-.075.05-.15.1-.2.05-.05.1-.125.15-.2l.053-.078c.006-.14.027-.281.097-.422 0-.147.054-.24.123-.279.029-.125.077-.22.077-.22.1 0 .1-.1.1-.1l.211.168.039-.019c.05-.025.1-.05.15-.05l.111.267a.465.465 0 0 1 .078-.156l-.49-.311c1.1-1.6 1.8-3.5 2.2-5.4l.034-.089c.27-.74.452-1.48.466-2.219-.094-.823-.525-1.142-1.214-1.654L54.1 63.2l.341-.47-.041-.03-.021-.02-.38.52c-.495-.297-1.088-.693-1.488-1.283L52.4 62c-.18-.26-.36-.512-.536-.758-.704-.986-1.344-1.882-1.664-2.842-.5-1.3-.5-2.5 0-4l.786.242a4.088 4.088 0 0 1 .029-.086L50.4 54.3c.2-.7.6-1.2.9-1.5l.051.046c.167-.182.258-.364.349-.546.1-.2.2-.5.2-.8l.7.054v-.004l-.7-.05c0-.05-.025-.1-.063-.175A2.286 2.286 0 0 1 51.7 51c-.054-.08-.1-.154-.143-.221a4.531 4.531 0 0 0-.19-.285.343.343 0 0 1-.067.106c-.1.2-.3.3-.5.3-.05 0-.1-.025-.15-.05-.05-.025-.1-.05-.15-.05-.077-.077-.154-.154-.232-.185l-.068.085c-.06-.03-.121-.07-.187-.113a1.89 1.89 0 0 0-.613-.287l.014-.035c-.458-.194-.917-.467-1.376-.742L48 49.6h-.1l-.1-.1.1-.1c-.164-.167-.317-.333-.4-.5l.49-.312-.065-.028-.425.34-.2-.3.088-.263-.088-.037c.1-.1.1-.3.1-.5 0-.9-.6-1.5-1.4-1.5-.3 0-.5.1-.7.2l-.038-.075L45 46.6l-.3-.1.057-.114a13.982 13.982 0 0 1-.857-.336c-.264-.11-.527-.22-.79-.312l-.01.062c-1.4-.3-2.7-.9-3.8-1.7l.375-.59a17.9 17.9 0 0 1-.15-.094L39 44c-.4-.3-.8-.7-1.2-1.2l.322-.234-.322.134c-.1-.2-.2-.5-.1-.8.047-.095.117-.19.178-.263-.058-.16-.18-.476-.341-.885L37.1 41.8l-.7-1.1.077-.038c-.59-.988-1.083-1.975-1.577-2.962l-.1-.2v-1.8l.306-.024a1.1 1.1 0 0 1 .011-.076H34.7v-.3l.3-.2.196.246a.96.96 0 0 1 .04-.076l-.136-.17c.3-.3.5-.7.5-1.1 0-.7-.5-1.3-1.2-1.4l.1-.646h-.008l-.092.646-.6-.1v-.6c0-.9.2-1.7.6-2.5.503-.922 1.006-1.773 1.626-2.555-.042-.077-.084-.16-.126-.245 0-.1-.025-.2-.05-.3-.025-.1-.05-.2-.05-.3 0-.25 0-.5.116-.693L35.9 25.3v-.2c.1-.1.1-.3 0-.6.04-.203.097-.438.157-.686.088-.365.183-.757.243-1.114.09-.546.182-1.092.198-1.488a1.09 1.09 0 0 1-.198.088l-.05-.1a1.034 1.034 0 0 1-.45-.1.353.353 0 0 1-.055-.034c-.09.031-.185.062-.28.093a7.673 7.673 0 0 1-2.265.641l-.008-.1H33.1c-.1 0-.3-.1-.4-.2a.765.765 0 0 1-.192-.4H32.4v-.6l.6-.1.086.6h.052l-.038-.5c.33 0 .662-.045.982-.134l.433-.556-.015-.01c.021-.021.06-.065.114-.125.199-.221.592-.66.986-.975.092-.092.205-.205.33-.31A31.083 31.083 0 0 0 18.7 46.3Zm18.259-28.397a.875.875 0 0 1 .04.004V17.9l.002-.016-.042.019Zm1.243-.1L38.2 17.8l-.012.008c-.022-.008-.046-.008-.088-.008-.1 0-.2 0-.4.1a.764.764 0 0 0-.25.178c.04.027.08.057.116.09l.029-.036.055.018-.061.039.01.011-.05.05-.005.006.175.067.015-.012.126-.091.09.03.05.05-.023.092-.007.027.063.025a.765.765 0 0 0-.01-.036l-.004-.014c-.01-.033-.02-.064-.02-.094l-.001-.026a.698.698 0 0 1-.02-.015l-.028-.009-.055-.055-.035.025-.21-.07.122-.078L37.7 18h.1s.022 0 .045.01c.067-.058.192-.132.334-.197l.01-.005h.001l.013-.005Zm-.015.526a.712.712 0 0 0 .013-.029.09.09 0 0 1-.035.022l.022.007Zm-.68-.088Zm-.164 2.651c.038-.015.05-.05.055-.073l.001.037c-.001.064-.01.086-.056.036Zm-.831 4.663-.142-.06.132.106a.452.452 0 0 1 .01-.046Zm.518 14.808-.163.104L37 40.4l.458.153-.005-.014-.423-.176Zm1.604 1.127-.373.107-.161-.197s-.1 0-.1.1l.123.136-.123.035v.129l.2-.077.015.016.176.196a.41.41 0 0 1 .07-.095l-.115-.139-.021-.026.316-.122c0-.02-.002-.04-.007-.063Zm-.31.185-.063-.078-.138.04.078.086.124-.048Zm-1.881-21.503-.048.088.015.01.033-.098Zm14.196 5.58.025.02.236-.372a.625.625 0 0 1 .136.093c.023-.05.046-.099.07-.147.08-.168.153-.324.194-.446l.021.01.029-.06c.025-.05.05-.1.05-.15h.1v-.1c-.05-.05-.075-.1-.1-.15-.025-.05-.05-.1-.1-.15l.6-.3.115-.057a1.036 1.036 0 0 1-.01-.03l-.905.487c0-.146-.054-.24-.122-.357a2.619 2.619 0 0 1-.078-.143c0-.1-.025-.2-.05-.3-.025-.1-.05-.2-.05-.3 0-.3 0-.6.2-.8.2-.2.4-.4.7-.5l.126.303c-.016-.003-.026-.003-.026-.003s.014.014.036.026l.122.294a.987.987 0 0 1 .08-.048l-.09-.215a.357.357 0 0 0-.022-.015c.005 0 .01-.002.015-.004L51.8 22a5.67 5.67 0 0 1 .044-.01l-.108-.217-.057-.052-.58-.421.054-.053-.053-.047.056.044.091-.091-.047-.053.1-.1a1.68 1.68 0 0 1 .314-.186l-.107-.107-1.062.75a1.93 1.93 0 0 0-.045.043l-.006-.008-.294.208-.025-.03a.086.086 0 0 0 .021-.04.411.411 0 0 0-.035.021l-.215-.269-.045.007.215.296A.342.342 0 0 0 50 21.7s.01 0 .025-.003l.075.103c-.05.05-.1.075-.15.1-.05.025-.1.05-.15.1l-.05-.07-.069.041c-.459.276-.905.553-1.181.829-.3.3-.5.5-.5.6V23.7c.073.037.16.1.27.18.19.14.45.33.83.52l-.18.36.03.015.15-.275c.6.3 1.1.6 1.7 1l-.16.252Zm-.59-4.429.115.21c.036-.041.036-.062.036-.133a.273.273 0 0 0 .057-.078l-.064-.08a.57.57 0 0 1-.144.081Zm1.784.51.13.13a.48.48 0 0 1 .012-.002l-.065-.071-.077-.057Zm2.45 1.844a.202.202 0 0 0 .017-.077c.067-.067.044-.133.022-.2-.011-.033-.022-.067-.022-.1l-.1-.1v-.012a.986.986 0 0 1-.19-.042l.29.454a2.049 2.049 0 0 1-.106.05c.028.01.058.019.089.027Zm.304-.477H54.5c-.08 0-.16 0-.24-.006a.124.124 0 0 0 .04.006c.1.1.2.1.3.1h.2c-.1-.1-.2-.1-.2-.1h-.013Zm-3.395-4.686a1.252 1.252 0 0 0-.05-.006l-.004-.008h.062l-.008.014Zm-.093.16a.983.983 0 0 1-.086-.1L51 18.6v.243l.099-.17Zm-.228 1.496.029.03.231-.257c-.08.072-.168.15-.26.227Zm-.384-1.083L50.4 19s-.022-.022-.045-.055l-.055.355a1.47 1.47 0 0 1 .187-.213Zm-.237.213.02.021a.059.059 0 0 1-.05 0l-.02-.021h.05Zm-6.073-.23.002-.006-.004.006h.002Zm8.935 2.837-.09.193.023.01.094-.188-.027-.015ZM54.88 23.4l.068-.076h-.007l-.061.076Zm-.417-2.077a.382.382 0 0 0 .037-.071v-.221l-.157.048.002-.006.155-.044v-.008l-.049-.01-.097.02.008-.032-.015-.001-.012.037-.118.026a1.025 1.025 0 0 0-.008.05l.113-.031-.003.006-.108.034.08.061.029-.095.023-.007-.028.122c.047.037.097.078.148.122Zm.181 1.033.123-.123-.022-.042a2.348 2.348 0 0 1-.145-.071.653.653 0 0 0-.1.08l.135.15.01.006Zm-.322-1.276.023-.007.01-.042-.02.004-.013.045Zm-2.467.907c.033-.008.065-.015.096-.02l-.18-.163.084.183Zm-1.83-.29a.103.103 0 0 0 .05-.028l-.014-.018a.49.49 0 0 0-.045.034l.009.012Zm1.901.645a.306.306 0 0 0-.1-.039l.01.023a.135.135 0 0 0 .09.016Zm.063 2.888a1.4 1.4 0 0 0-.006.012L51.9 25.2l.089.03Zm-.52 1.568.03.002a.036.036 0 0 1-.029-.014v.012Zm.024-.306.026-.092h-.02l-.006.092ZM39.157 17.42a.615.615 0 0 0-.042-.034l-.26.26-.02.02a.206.206 0 0 1 .02.006l.013-.011.29-.241Zm-.28.263.005-.004.025-.016a.126.126 0 0 0-.007.038.122.122 0 0 0-.023-.018ZM37.7 18l-.105.132-.095-.032.1-.1h.1Zm5.517 27.04-.003.017.006-.016-.003-.001Zm6.64 3.929.038-.15-.083.114.046.036Zm-2.917-3.773L47.3 45a.438.438 0 0 0-.07-.056l-.356.227.066.026Zm9.159 19.712-.166.025.162.013.004-.038Zm-2.785 8.328-.1-.064.023.058.02.015.057-.009ZM53.2 73.2l.01-.03-.11-.07c-.008 0-.016 0-.023.002l.123.098Zm.192.086a.904.904 0 0 1-.055.01l.15.088-.07-.01.01.007.033.027.039-.016h.002l.202.118.01-.02-.135-.086-.015-.01-.053-.007.025-.01-.143-.091Zm.127.505-.018-.006-.001.015c.005 0 .012-.003.02-.01Zm-.008-.404-.025-.003.014.008.01-.005Zm13.519-8.21.02-.015.27.338-.29-.322ZM65.3 50l-.3.5h.7v-.4l-.4-.1Zm-9.525-2.284-.06-.083a.643.643 0 0 1-.07.043l.063.085.067-.045Zm.058.217.074-.036.068.094a1.3 1.3 0 0 1-.056.06l-.086-.118Zm-.493-.715a.58.58 0 0 1 .067-.008l-.007-.01s-.032 0-.06.018Zm.539.103a.341.341 0 0 0-.068-.016c.004.021.01.044.017.067l.05-.05Zm-10.68-4.42-.12.038a.243.243 0 0 1 .12-.039ZM49.4 39v.1s-.1-.1 0-.1Zm7.264-8.81a.83.83 0 0 0 .044.086l.074-.106-.118.02Zm-1.49-1.962-.373.372.404-.323-.032-.05ZM56.5 29.9h-.046l.053.083.02-.005.024-.027-.051-.051Zm.39.252-.14.19c.017.022.033.042.05.058l.243-.121c-.003-.027-.012-.053-.02-.079-.008-.022-.016-.045-.02-.067l-.113.019Zm-3.51 3.316-.088-.064-.113.056a.234.234 0 0 1 .037.058l.164-.05ZM55.4 32.1s-.1 0-.1.1l.1-.1Zm1.392-1.669.108.169-.09-.178-.018.01Zm-1.139-7.879-.003-.002.05-.05-.047.052Z" class="-path--primary" fill="#083176"/>
  <path fill-rule="evenodd" d="M79.5 22.1c.3.2.9.044 1-.256l.1-.144s.162-.219.162-.319c0-.142.02-.174.066-.252.02-.032.043-.071.072-.129.2-.4.5-1.1.8-1.9.7-1.6 1.4-3.7 1.9-5.8.5-2.1.8-4.2.4-5.7-.3-.8-.7-1.5-1.4-1.9-.7-.4-1.6-.4-2.7-.2-2.2.5-4.5 2.1-6.7 4.2-2.3 2.1-4.5 4.8-6.5 7.3-2 2.6-3.8 5.1-5 6.9-.7.9-1.2 1.7-1.5 2.2-.117.117-.2.269-.269.394-.048.089-.09.165-.131.206 0 .1-.1.2-.1.2-.1 0-.1.1-.1.2-.3-.1-.6-.2-.9-.2-1.3 0-2.4 1.1-2.4 2.4 0 1.3 1.1 2.4 2.4 2.4 1.3 0 2.4-1.1 2.4-2.4 0-.6-.2-1.2-.6-1.6.062 0 .085-.038.118-.091.02-.033.044-.07.082-.109 0-.05.025-.075.05-.1.025-.025.05-.05.05-.1.062-.062.123-.162.209-.3.053-.085.114-.185.19-.3.3-.5.8-1.3 1.4-2.2 1.2-1.8 2.9-4.3 4.9-6.8 1.9-2.5 4.1-5.1 6.3-7.1s4.3-3.5 6.1-3.9c.9-.2 1.5-.1 1.8.1.3.2.6.5.8 1.2.3 1.2.1 3.1-.4 5.1-.5 2.1-1.2 4.1-1.8 5.7-.183.491-.368.907-.529 1.27-.1.23-.193.437-.27.63-.058.115-.055.133-.062.146-.005.01-.014.018-.057.06-.1 0-.181.394-.181.394-.2.3 0 .7.3.8Zm-21 6.2c-.6 0-1.1.5-1.1 1.1 0 .6.5 1.1 1.1 1.1.6 0 1.1-.5 1.1-1.1 0-.6-.5-1.1-1.1-1.1Zm-27 4.4h-.1c-.1-.1-.1-.1-.2-.1-.062 0-.162-.038-.3-.091-.086-.033-.186-.07-.3-.109-.281-.112-.656-.225-1.09-.355h-.001c-.34-.101-.715-.214-1.11-.345-1.9-.6-4.5-1.4-7.4-2-2.9-.6-6-1.2-9-1.4-3-.2-5.9-.1-8.1.7-1.2.4-2 1-2.4 2-.4.9-.3 1.9.1 2.8.7 1.8 2.5 4 4.4 5.9 2 2 4.2 3.8 6 5.2H12c.8.6 1.6 1.2 2.1 1.6.117.117.268.234.394.331.089.07.164.128.206.169.1 0 .2.1.2.1.3.2.7.1.9-.2.2-.3.1-.7-.2-.9-.1 0-.1 0-.2-.1-.062-.062-.162-.124-.3-.21a9.982 9.982 0 0 1-.3-.19c-.183-.146-.405-.305-.653-.483-.431-.309-.94-.672-1.447-1.117l-.167-.138c-1.676-1.38-3.795-3.124-5.633-4.962-1.9-2-3.5-3.9-4.1-5.5-.3-.8-.3-1.4-.1-1.8.2-.4.6-.9 1.6-1.2 2-.8 4.7-.9 7.6-.7 2.9.2 6 .8 8.8 1.4 2.9.6 5.4 1.3 7.3 1.9.394.132.77.244 1.109.345.435.13.81.243 1.09.355.115.038.215.076.3.109.139.053.239.091.3.091.1.1.2.1.2.1v.2c0 1.3 1.1 2.4 2.4 2.4 1.3 0 2.4-1.1 2.4-2.4 0-1.3-1.1-2.4-2.4-2.4-.8 0-1.5.4-1.9 1Zm2 .3c-.6 0-1.1.5-1.1 1.1 0 .6.5 1.1 1.1 1.1.6 0 1.1-.5 1.1-1.1 0-.6-.5-1.1-1.1-1.1Zm34.2 16.2c-.6 0-1.1.5-1.1 1.1 0 .6.5 1.1 1.1 1.1.6 0 1.1-.5 1.1-1.1 0-.6-.5-1.1-1.1-1.1Zm-2.4 1c0-1.3 1.1-2.4 2.4-2.4 1.3 0 2.4 1.1 2.4 2.3 0 .4 0 .8-.2 1.1 0 0 0 .1.1.1.083.042.183.1.3.169.166.097.365.214.6.331.449.225.961.512 1.554.845.464.26.976.548 1.546.855 2.5 1.4 5.8 3.4 9.1 5.5 3.2 2.1 6.4 4.4 8.6 6.5 1.1 1.1 2 2.1 2.5 3.1s.7 2.1.2 3c-.9 1.7-2.8 2.3-4.8 2.5-2 .2-4.4-.1-6.7-.5s-4.5-1-6.1-1.5c-.8-.2-1.4-.4-1.9-.6-.2-.1-.4-.2-.5-.2 0-.1-.1-.1-.1-.1-.3-.1-.5-.5-.4-.8.1-.3.5-.5.8-.4h.1c.056.056.144.08.245.11.08.022.167.046.255.09.244.049.512.145.815.254.318.115.675.244 1.085.346 1.5.5 3.7 1.1 5.9 1.5 2.2.4 4.5.7 6.4.5 1.9-.2 3.2-.8 3.8-1.8.2-.4.2-1-.2-1.8s-1.1-1.8-2.2-2.8c-2.1-2.1-5.2-4.3-8.4-6.4-3.3-2.1-6.6-4-9.1-5.4-1.3-.7-2.4-1.3-3.1-1.7-.234-.117-.434-.234-.6-.331a5.634 5.634 0 0 0-.3-.169c-.05 0-.075-.025-.1-.05-.025-.025-.05-.05-.1-.05h-.1l-.1-.1c-.4.3-.8.4-1.3.4-1.3 0-2.4-1.1-2.4-2.4Zm-20.8-1.7c0-.6.5-1.1 1.1-1.1.6 0 1.1.5 1.1 1.1 0 .6-.5 1.1-1.1 1.1-.6 0-1.1-.5-1.1-1.1Zm1.1-2.4c-1.3 0-2.4 1.1-2.4 2.4 0 .5.1 1 .4 1.3 0 .062-.038.085-.091.118-.033.02-.071.044-.11.082-.1.2-.3.5-.6.9-.5.8-1.2 1.9-2.1 3.3-1.7 2.8-4 6.6-6.3 10.6-2.2 4-4.4 8.4-5.9 12.2-.8 1.9-1.3 3.7-1.7 5.4-.3 1.6-.4 3.1-.2 4.2.3 1.1.7 2 1.4 2.5s1.5.6 2.4.5c1.6-.3 3.5-1.4 5.3-2.8 1.8-1.4 3.5-3 4.7-4.3.331-.33.631-.66.9-.958.22-.242.42-.462.6-.642.118-.117.2-.234.27-.331.048-.069.09-.128.13-.169 0-.07.05-.091.079-.097.013-.003.022-.003.022-.003.2-.3.2-.7-.1-.9-.3-.2-.7-.2-.9.1l-.1.1c-.042.041-.083.1-.132.169a2.413 2.413 0 0 1-.268.331c-.4.4-.9.9-1.5 1.6-1.2 1.3-2.9 2.8-4.6 4.2-1.7 1.3-3.4 2.3-4.7 2.5-.6.1-1.1 0-1.5-.3-.4-.3-.7-.8-.9-1.7-.2-.9-.1-2.1.2-3.7.3-1.5.9-3.3 1.6-5.1 1.5-3.8 3.6-8 5.9-12.1 2.2-4 4.5-7.8 6.2-10.5.9-1.4 1.6-2.5 2.1-3.3.3-.4.5-.7.6-.9 0-.1.1-.1.1-.1.3.2.7.2 1.1.2 1.3 0 2.4-1.1 2.4-2.4.1-1.3-1-2.4-2.3-2.4Z" class="-path--secondary" fill="#FF9E18"/>
</svg>
