<svg id="icon-products-custom-backgrounds" viewBox="0 0 96 96" xmlns="http://www.w3.org/2000/svg">
  <path fill-rule="evenodd" d="M28.6 44.7 18 32.2l-10.9 13V13.8c0-1.5 1.2-2.7 2.7-2.7h83.3c1.5 0 2.7 1.2 2.7 2.7v29.3L86.6 54 74 37.8l-12.1 16-4.7-5.4c.2-.9.3-1.8.3-2.8 0-6.5-4.3-11.8-9.5-11.8-5.5-1.3-10.4 5.3-9.7 8.7l-4.1-4.7-5.6 6.9ZM57 60.4l3.3-.9c8.8-2.5 26.5-.4 35.6 1v11.9c0 1.5-1.2 2.7-2.7 2.7h-27c.1-.3.1-.6.1-1v-5.8c0-1.8-1-3.4-2.6-4.3l-5.3-2.9-1.4-.7Zm-26.8 4.2c-2.2-.1-3.3-.3-5.5-.7-8.2-1.7-14.6-2.7-17.5-3.1v11.5c0 1.5 1.2 2.7 2.7 2.7h19.9c-1.3 0-.8-.9-.8-1.2v-5.3c-.6-1.5.1-3 1.2-3.9Zm17.1-43.9c.8 0 1.5-.7 1.5-1.5s-.7-1.5-1.5-1.5-1.5.7-1.5 1.5c0 .9.7 1.5 1.5 1.5Z" class="-path--shadow" fill="#38C6F4"/>
  <path fill-rule="evenodd" d="M3.5 23v52.6c0 1.6 1.3 3 3 3h25.3c-2.1-.8-3.6-2.8-3.6-5.1v-5.8h.7-.7c0-2 1.1-3.9 2.9-4.8l5.3-2.8.3.6-.3-.6 2-1.1.3.6-.3-.6c1.4-.8 3-.9 4.5-.4l2.9 1c.9.3 1.9.3 2.9 0l.2.6-.2-.6 2.7-1c1.5-.6 3.2-.4 4.6.4l2 1.1 5.3 2.9c1.8 1 2.9 2.8 2.9 4.8v5.8c0 2.3-1.5 4.3-3.6 5.1h25.3c1.7 0 3-1.3 3-3V23H3.5Zm3-8.3c-2.4 0-4.3 1.9-4.3 4.3v56.6c0 2.4 1.9 4.3 4.3 4.3h37v4.3h-7.6c-1 0-1.8.8-1.8 1.8v2c0 1 .8 1.8 1.8 1.8h22.5c1 0 1.8-.8 1.8-1.8v-2c0-1-.8-1.8-1.8-1.8h-7.6v-4.3h37c2.4 0 4.3-1.9 4.3-4.3V19c0-2.4-1.9-4.3-4.3-4.3H6.5ZM38.3 45c0-6.3 4.1-11.2 8.9-11.2 4.8 0 8.9 4.8 8.9 11.2 0 6.3-4.1 11.2-8.9 11.2-4.8 0-8.9-4.9-8.9-11.2Zm8.9-12.4C41.4 32.6 37 38.3 37 45c0 6.8 4.4 12.5 10.2 12.5 5.7 0 10.2-5.7 10.2-12.5 0-6.7-4.5-12.4-10.2-12.4Zm4.6 27.2c1.2-.4 2.4-.3 3.5.3l2 1.1 5.3 2.9c1.4.7 2.2 2.1 2.2 3.7v5.8c0 2.3-1.9 4.2-4.2 4.2H33.7c-2.3 0-4.2-1.9-4.2-4.2v-5.8c0-1.5.8-2.9 2.2-3.7l5.3-2.8 2-1.1c1.1-.6 2.3-.7 3.5-.3l2.9 1c1.2.4 2.5.4 3.8 0l2.6-1.1Zm-4.6-39.3c.7 0 1.3-.6 1.3-1.3 0-.7-.6-1.3-1.3-1.3-.7 0-1.3.6-1.3 1.3 0 .7.6 1.3 1.3 1.3Z" class="-path--primary" fill="#083176"/>
</svg>
