<svg id="icon-products-file-sharing" viewBox="0 0 96 96" xmlns="http://www.w3.org/2000/svg">
  <path fill-rule="evenodd" d="M24.407 6.293h26.654c.437 0 .795.345.808.78V9.63a.805.805 0 0 1-.472.732h2.039c.446 0 .808.36.808.804l-3.894 22.87a.806.806 0 0 1-.735.772h-34.1a.806.806 0 0 1-.808-.804l-3.86-22.838c0-.444.36-.804.807-.804h2.04a.804.804 0 0 1-.473-.732V4.804c0-.444.361-.804.808-.804h8.174l2.204 2.293Zm35.765 55.094h26.653c.434 0 .791.34.808.772v2.606a.804.804 0 0 1-.424.708h1.983c.446 0 .808.36.808.804L86.131 89.14a.806.806 0 0 1-.807.804l.015-.04H51.28a.806.806 0 0 1-.808-.804l-3.828-22.822c0-.444.362-.804.808-.804h1.966a.804.804 0 0 1-.424-.708v-4.883c0-.444.362-.804.808-.804h8.158l2.213 2.309Z" class="-path--shadow" fill="#38C6F4"/>
  <path fill-rule="evenodd" d="M9.166 5.925c-.807 0-1.465.652-1.465 1.462v4.917h-.893c-.807 0-1.466.652-1.466 1.461v.055L9.18 36.665c.033.781.678 1.4 1.464 1.4H44.73c.75-.03 1.356-.62 1.405-1.366L50.03 13.82v-.056c0-.81-.659-1.462-1.466-1.462h-.91V9.707a1.464 1.464 0 0 0-1.445-1.474L19.243 7.64l-1.656-1.715H9.166ZM19.244 7.64l-1.868-.04-.348-.36H9.166a.148.148 0 0 0-.15.147v.028L7.7 7.387l1.315.028v4.862c0 .01 0 .018.002.027h37.32a.142.142 0 0 0 .003-.027v-2.58a.148.148 0 0 0-.149-.149H19.257L17.377 7.6l1.867.041Zm0 0 .572.593H46.19L19.243 7.64Zm-1.868-.04-8.36-.185 8.36.184Zm-8.794 6.019c.18.077.377.12.584.12h37.025c.207 0 .404-.043.583-.12h1.791a.15.15 0 0 1 .147.114l-3.888 22.829-.001.046a.148.148 0 0 1-.136.142H10.644a.148.148 0 0 1-.15-.147v-.055L6.661 13.733a.15.15 0 0 1 .147-.114h1.774ZM44.931 61.01c-.807 0-1.466.652-1.466 1.462v4.925h-.893c-.807 0-1.465.652-1.465 1.462v.054l3.813 22.83c.033.78.678 1.399 1.464 1.399h34.082a1.464 1.464 0 0 0 1.473-1.345l3.872-22.883v-.055c0-.81-.659-1.462-1.465-1.462h-.958V64.775a1.464 1.464 0 0 0-1.465-1.448H55.55l-2.213-2.316h-8.406Zm-.545 7.702c.168.067.352.104.545.104h36.992c.192 0 .376-.037.545-.104h1.878a.15.15 0 0 1 .146.114L80.63 91.649l-.002.039a.149.149 0 0 1-.152.14H46.384a.149.149 0 0 1-.15-.147v-.055l-3.808-22.799a.15.15 0 0 1 .146-.114h1.813Zm37.68-1.315a.142.142 0 0 0 .007-.043v-2.57a.149.149 0 0 0-.15-.143H54.988l-2.213-2.316H44.93a.148.148 0 0 0-.15.147v4.882c0 .015.002.03.006.043h37.28Z" class="-path--primary" fill="#083176"/>
  <path fill-rule="evenodd" d="M58.034 25.374a.658.658 0 0 0-.683 1.124c9.366 5.688 13.61 16.949 10.434 27.304l-2.757-3.138a.658.658 0 1 0-.988.868l3.508 3.992.041.044a.654.654 0 0 0 .73.127l6.045-2.593a.658.658 0 1 0-.519-1.208l-4.722 2.025c3.198-10.855-1.29-22.594-11.09-28.545ZM22.19 43.017a.66.66 0 0 0-.493-.218.657.657 0 0 0-.404.135l-5.585 3.353a.658.658 0 0 0 .677 1.128l4.412-2.649c-1.684 11.195 4.375 22.22 14.906 26.78a.657.657 0 1 0 .523-1.206c-10.062-4.358-15.814-14.938-14.09-25.63l3.157 2.734a.658.658 0 0 0 .86-.994l-3.963-3.433Z" class="-path--secondary" fill="#FF9E18"/>
</svg>
