<svg id="icon-products-internet" viewBox="0 0 96 96" xmlns="http://www.w3.org/2000/svg">
  <path d="M83.228 30.74h-7.084C74.698 45.645 64.69 61.17 49.376 61.17c-16.087 3.312-34.302-15.258-32.548-30.43a2.489 2.489 0 0 0-2.494 2.485v46.449a2.489 2.489 0 0 0 2.494 2.484h66.4a2.489 2.489 0 0 0 2.494-2.484V33.208a2.489 2.489 0 0 0-2.494-2.484v.017Z" class="-path--shadow" fill="#38C6F4"/>
  <path fill-rule="evenodd" d="M79.362 33.53h.449a3.111 3.111 0 0 1 3.116 3.106v46.515a3.111 3.111 0 0 1-3.116 3.106H49.533v3.303h5.628a1.95 1.95 0 0 1 1.954 1.945v.638a1.95 1.95 0 0 1-1.954 1.946H38.02a1.95 1.95 0 0 1-1.954-1.946v-.638a1.95 1.95 0 0 1 1.954-1.945h5.62v-3.303H13.395a3.111 3.111 0 0 1-3.117-3.106V36.686a3.111 3.111 0 0 1 3.117-3.106h3.516v.622h.091a28.62 28.62 0 0 0 1.38 6.143h-6.86v42.806c0 1.026.836 1.862 1.873 1.862H79.81a1.867 1.867 0 0 0 1.871-1.862V40.337h-6.676a28.734 28.734 0 0 0 1.288-5.513h-.025V33.58h3.076l.017-.05Z" class="-path--primary" fill="#083176"/>
  <path fill-rule="evenodd" d="M30.95 7.573a28.893 28.893 0 0 1 15.404-4.417c.974 0 1.936.048 2.885.141-4.108.624-8.218 2.794-11.862 6.102a33.24 33.24 0 0 0-2.34 2.352 43.636 43.636 0 0 1-3.905-4.032.62.62 0 0 0-.182-.146ZM18.118 25.629a28.8 28.8 0 0 0-.705 6.347c0 3.358.577 6.583 1.638 9.58a45.15 45.15 0 0 1 5.597-.825c-.182-3.981.313-8.212 1.48-12.406l-8.01-2.696Zm.301-1.212 8.059 2.713c.152-.49.313-.98.483-1.47 1.736-4.999 4.265-9.408 7.259-12.97a44.863 44.863 0 0 1-4.036-4.165.62.62 0 0 1-.147-.356c-5.606 3.819-9.795 9.55-11.618 16.248Zm8.89 4.306c-1.121 4.052-1.59 8.117-1.419 11.92a45.055 45.055 0 0 1 9.078.41 92.331 92.331 0 0 1 2.359-8.958l-10.019-3.372Zm10.4 2.188-10.051-3.384c.15-.486.31-.972.478-1.457 1.686-4.855 4.135-9.121 7.018-12.558a44.848 44.848 0 0 0 7.51 5.21c-1.541 3.129-3.042 6.681-4.413 10.589v.001c-.186.534-.367 1.067-.542 1.599Zm.797 1.581a91.139 91.139 0 0 0-2.308 8.76 45.11 45.11 0 0 1 12.574 4.182 89.448 89.448 0 0 0 3.63-8.264l-13.895-4.678Zm14.333 3.512-13.95-4.696c.173-.527.352-1.056.537-1.586 1.35-3.85 2.826-7.344 4.337-10.414a45.092 45.092 0 0 0 12.739 4.32 94.474 94.474 0 0 1-3.063 10.701 103.78 103.78 0 0 1-.6 1.675Zm.743 1.563a90.717 90.717 0 0 1-3.708 8.444 44.875 44.875 0 0 1 7.546 5.141c2.45-2.845 4.605-6.287 6.267-10.183l-10.105-3.402Zm10.577 2.248L54.019 36.4c.2-.546.4-1.1.596-1.662a95.658 95.658 0 0 0 3.116-10.908 45.03 45.03 0 0 0 9.289.429c.117 4.46-.63 9.248-2.266 13.945-.19.544-.388 1.08-.595 1.61Zm.71 1.552c-1.713 4.044-3.949 7.629-6.508 10.6a44.878 44.878 0 0 1 3.986 4.032 28.973 28.973 0 0 0 10.32-12.007l-7.797-2.625Zm8.296 1.48-7.825-2.635a44.71 44.71 0 0 0 .59-1.598c1.682-4.833 2.462-9.795 2.332-14.443a45.12 45.12 0 0 0 5.703-.855 28.696 28.696 0 0 1 1.33 8.66c0 3.846-.757 7.516-2.13 10.87ZM29.578 55.462a28.935 28.935 0 0 1-10.08-12.73 43.9 43.9 0 0 1 5.23-.76c.3 3.634 1.182 7.028 2.65 9.952a16.051 16.051 0 0 0 2.2 3.538Zm-1.082-4.086c-1.39-2.766-2.236-6.003-2.526-9.491a43.802 43.802 0 0 1 8.754.39 65.973 65.973 0 0 0-.697 4.42c-.31 2.55-.415 4.868-.297 6.846.11 1.84.417 3.426.962 4.633a14.844 14.844 0 0 1-6.186-6.775l-.004-.01-.006-.013Zm6.766-4.53a64.8 64.8 0 0 1 .692-4.375 43.863 43.863 0 0 1 12.249 4.069c-1.369 2.607-2.751 4.86-4.083 6.71-1.554 2.16-3.021 3.749-4.293 4.72-1.29.985-2.224 1.218-2.81 1.042a2.04 2.04 0 0 1-1.088-1.133 1.143 1.143 0 0 0-.01-.019c-.508-1.018-.833-2.502-.947-4.394-.112-1.882-.014-4.122.29-6.62Zm9.869 7.13c1.368-1.901 2.78-4.203 4.174-6.859a43.64 43.64 0 0 1 7.285 4.962 30.116 30.116 0 0 1-3.972 3.602c-4.291 3.223-8.968 4.74-13.321 4.105a8.74 8.74 0 0 0 1.286-.828c1.406-1.073 2.955-2.768 4.548-4.982Zm8.235 2.7a31.369 31.369 0 0 0 4.166-3.782 43.619 43.619 0 0 1 3.75 3.776 28.895 28.895 0 0 1-14.928 4.125c-.489 0-.974-.012-1.457-.036 2.903-.655 5.782-2.066 8.469-4.083ZM56.76 22.41a43.848 43.848 0 0 1-12.44-4.214c1.313-2.561 2.643-4.8 3.933-6.676 1.484-2.159 2.904-3.818 4.17-4.93 1.288-1.132 2.319-1.612 3.038-1.613.134.002.266.023.393.063l.013.005a2.04 2.04 0 0 1 1.094 1.137c.512 1.018.837 2.503.95 4.395.114 1.882.014 4.123-.29 6.623-.201 1.64-.489 3.386-.861 5.21Zm10.203.607a43.79 43.79 0 0 1-8.974-.406c.374-1.837.664-3.6.866-5.26.312-2.551.417-4.87.299-6.848-.101-1.684-.366-3.154-.828-4.316a14.884 14.884 0 0 1 6.067 6.684c1.471 2.944 2.332 6.412 2.57 10.146Zm6.597-.887c-1.78.378-3.57.643-5.356.797-.247-3.875-1.144-7.499-2.693-10.603A16.093 16.093 0 0 0 62.89 8.32a28.92 28.92 0 0 1 10.672 13.81Zm-30.337-4.52a43.617 43.617 0 0 1-7.253-5.037 31.996 31.996 0 0 1 2.242-2.252c4.203-3.815 8.944-5.964 13.444-5.965.524.002 1.048.035 1.567.098-.533.314-1.076.722-1.622 1.202-1.368 1.202-2.854 2.95-4.374 5.158-1.319 1.918-2.673 4.198-4.004 6.795Zm3.13-15.699c-16.668 0-30.185 13.458-30.185 30.065S29.686 62.04 46.354 62.04s30.185-13.458 30.185-30.065S63.022 1.91 46.354 1.91Z" class="-path--secondary" fill="#FF9E18"/>
</svg>
