<svg id="icon-products-ddos" viewBox="0 0 96 96" xmlns="http://www.w3.org/2000/svg">
  <path fill-rule="evenodd" d="M70.52 78.85c1.2 1.1 3 1.1 4.2 0l.2-.2v.8c0 1.5-1.2 2.7-2.7 2.7H8.52c-1.5 0-2.7-1.2-2.7-2.7v-68.6c0-1.5 1.2-2.7 2.7-2.7h63.7c1.5 0 2.7 1.2 2.7 2.7v12.3l-1.8-.3c-.3-.1-.7-.1-1 0l-19 3.1c-1.5.3-2.6 1.6-2.6 3.1v24.5c-.1 4.6 1.9 9 5.3 12.1l14.7 13.2Zm-63.9-3.1c0 1.2 1 2.2 2.2 2.2 1.2 0 2.2-.9 2.2-2.2 0-1.2-1-2.2-2.2-2.2-1.2 0-2.2 1-2.2 2.2Zm0-25.6c0 1.2 1 2.2 2.2 2.2 1.2 0 2.2-1 2.2-2.2 0-1.2-1-2.2-2.2-2.2-1.2 0-2.2 1-2.2 2.2Zm0-26.8c0 1.2 1 2.2 2.2 2.2 1.2 0 2.2-1 2.2-2.2 0-1.2-1-2.2-2.2-2.2-1.2 0-2.2 1-2.2 2.2Zm6.7 52.4c0 1.2 1 2.2 2.2 2.2 1.2 0 2.2-.9 2.2-2.2 0-1.2-1-2.2-2.2-2.2-1.2 0-2.2 1-2.2 2.2Zm0-25.6c0 1.2 1 2.2 2.2 2.2 1.2 0 2.2-1 2.2-2.2 0-1.2-1-2.2-2.2-2.2-1.2 0-2.2 1-2.2 2.2Zm0-26.8c0 1.2 1 2.2 2.2 2.2 1.2 0 2.2-1 2.2-2.2 0-1.2-1-2.2-2.2-2.2-1.2 0-2.2 1-2.2 2.2Zm6.8 52.4c0 1.2 1 2.2 2.2 2.2 1.2 0 2.2-.9 2.2-2.2 0-1.2-1-2.2-2.2-2.2-1.2 0-2.2 1-2.2 2.2Zm0-25.6c0 1.2 1 2.2 2.2 2.2 1.2 0 2.2-1 2.2-2.2 0-1.2-1-2.2-2.2-2.2-1.2 0-2.2 1-2.2 2.2Zm0-26.8c0 1.2 1 2.2 2.2 2.2 1.2 0 2.2-1 2.2-2.2 0-1.2-1-2.2-2.2-2.2-1.2 0-2.2 1-2.2 2.2Z" class="-path--shadow" fill="#38C6F4"/>
  <path d="M82.42 40.85h-2v-4.3c0-.1-1-5.6-7.8-5.6s-7.8 5.6-7.8 5.7v4.2h-2c-.3 0-.6.2-.6.6v18.2c0 .3.2.6.6.6h19.5c.3 0 .6-.2.6-.6v-18.3c0-.3-.2-.5-.5-.5Zm-8.7 10.4v2.5c0 .3-.2.6-.6.6h-1c-.3 0-.6-.2-.6-.6v-2.5c-.7-.4-1.2-1.1-1.2-2 0-1.2 1-2.2 2.2-2.2 1.2 0 2.2 1 2.2 2.2.2.9-.3 1.6-1 2Zm5.6-10.4h-13.4v-4.1c0-.2.8-4.7 6.7-4.7s6.7 4.5 6.7 4.6v4.2Z" fill="#D62015"/>
  <path fill-rule="evenodd" d="M52.047 27.066c-.53.445-.867 1.133-.867 1.934v24.5c0 4.418 1.824 8.638 5.083 11.61l.002.002L70.96 78.31l.005.004c.948.87 2.36.87 3.308 0l.005-.004 14.696-13.197.002-.002A15.635 15.635 0 0 0 94.06 53.6V29c0-1.167-.852-2.186-2.122-2.345l-.012-.002-.012-.002-19-3.1-.052-.008-.05-.017a1.051 1.051 0 0 0-.583 0l-.052.017-.053.009-1.105.175.001.023-16.194 2.547-1.602.255-.009.001-.008.001a2.574 2.574 0 0 0-1.16.512Zm18.924-4.668-.251-6.848c-.1-2-1.7-3.5-3.7-3.5H4.42c-2 0-3.7 1.6-3.7 3.7v16c-.1 1.8 1.6 3.5 3.6 3.5h45.54v3.6h-.015l-.025-1.2H4.42c-2 0-3.7 1.6-3.7 3.7v16c-.1 1.9 1.5 3.6 3.6 3.6h47.233a16.843 16.843 0 0 0 2.592 3.892L4.32 64.45c-2 0-3.7 1.6-3.7 3.7v16c0 2 1.7 3.7 3.7 3.7h63c2 0 3.7-1.6 3.7-3.7v-4.225c1.35.64 2.981.427 4.143-.636l.003-.002L89.861 66.09l.004-.003A16.955 16.955 0 0 0 95.38 53.6V29c0-1.83-1.343-3.407-3.265-3.653l-18.942-3.09a2.382 2.382 0 0 0-1.304-.001l-.898.142Zm-1.651.262v-7.21c-.1-1.3-1.1-2.3-2.4-2.3H4.32c-1.3 0-2.4 1.1-2.4 2.4v16.1c0 1.3 1.1 2.4 2.4 2.4h45.5v-5c0-.525.098-1.003.282-1.423.46-1.255 1.544-2.193 2.922-2.38L69.32 22.66ZM55.016 65.75c.118.114.238.227.36.338l.003.003L69.72 78.969v5.181c0 1.3-1.1 2.4-2.4 2.4h-63c-1.3 0-2.4-1.1-2.4-2.4v-16c0-1.3 1.1-2.4 2.4-2.4h50.696Zm-4.48-7.465c.1.459.226.914.384 1.365H4.32c-1.3 0-2.4-1.1-2.4-2.4v-16c0-1.3 1.1-2.4 2.4-2.4h45.525l.015.746V53.5c0 1.634.23 3.244.675 4.785Z" class="-path--primary" fill="#083176"/>
  <path fill-rule="evenodd" d="M8.82 20.45c-1.4 0-2.6 1.2-2.6 2.6 0 1.4 1.2 2.6 2.6 2.6 1.4 0 2.6-1.2 2.6-2.6 0-1.4-1.1-2.6-2.6-2.6Zm0 4.3c-1 0-1.8-.8-1.8-1.8s.8-1.7 1.8-1.7 1.8.8 1.8 1.7c0 1-.8 1.8-1.8 1.8Zm6.8-4.3c-1.4 0-2.6 1.2-2.6 2.6 0 1.4 1.2 2.6 2.6 2.6 1.4 0 2.6-1.2 2.6-2.6 0-1.4-1.2-2.6-2.6-2.6Zm0 4.3c-1 0-1.8-.8-1.8-1.8s.8-1.7 1.8-1.7 1.8.8 1.8 1.7c-.1 1-.9 1.8-1.8 1.8Zm9.3-1.7c0 1.4-1.2 2.6-2.6 2.6-1.4 0-2.6-1.2-2.6-2.6 0-1.4 1.2-2.6 2.6-2.6 1.4 0 2.6 1.2 2.6 2.6Zm-.8-.1c0-.9-.8-1.7-1.8-1.7s-1.8.8-1.8 1.7c0 1 .8 1.8 1.8 1.8s1.8-.8 1.8-1.8Zm-15.3 24.3c-1.4 0-2.6 1.2-2.6 2.6 0 1.4 1.2 2.6 2.6 2.6 1.4 0 2.6-1.2 2.6-2.6 0-1.4-1.1-2.6-2.6-2.6Zm0 4.3c-1 0-1.8-.8-1.8-1.7 0-.9.8-1.7 1.8-1.7s1.8.8 1.8 1.7c0 .9-.8 1.7-1.8 1.7Zm4.2-1.7c0-1.4 1.2-2.6 2.6-2.6 1.4 0 2.6 1.2 2.6 2.6 0 1.4-1.2 2.6-2.6 2.6-1.4 0-2.6-1.2-2.6-2.6Zm.8 0c0 .9.8 1.7 1.8 1.7.9 0 1.8-.8 1.8-1.7 0-.9-.8-1.7-1.8-1.7s-1.8.8-1.8 1.7Zm8.5-2.6c-1.4 0-2.6 1.2-2.6 2.6 0 1.4 1.2 2.6 2.6 2.6 1.4 0 2.6-1.2 2.6-2.6 0-1.4-1.2-2.6-2.6-2.6Zm0 4.3c-1 0-1.8-.8-1.8-1.7 0-.9.8-1.7 1.8-1.7s1.8.8 1.8 1.7c0 .9-.8 1.7-1.8 1.7Zm-16.1 24c0-1.4 1.2-2.6 2.6-2.6 1.5 0 2.6 1.2 2.6 2.6 0 1.4-1.2 2.6-2.6 2.6-1.4 0-2.6-1.2-2.6-2.6Zm.8-.1c0 1 .8 1.8 1.8 1.8s1.8-.8 1.8-1.8c0-.9-.8-1.7-1.8-1.7s-1.8.7-1.8 1.7Zm8.6-2.5c-1.4 0-2.6 1.2-2.6 2.6 0 1.4 1.2 2.6 2.6 2.6 1.4 0 2.6-1.2 2.6-2.6 0-1.4-1.2-2.6-2.6-2.6Zm0 4.3c-1 0-1.8-.8-1.8-1.8s.8-1.7 1.8-1.7 1.8.8 1.8 1.7c-.1 1-.9 1.8-1.8 1.8Zm4.1-1.7c0-1.4 1.2-2.6 2.6-2.6 1.4 0 2.6 1.2 2.6 2.6 0 1.4-1.2 2.6-2.6 2.6-1.4 0-2.6-1.2-2.6-2.6Zm.8-.1c0 1 .8 1.8 1.8 1.8s1.8-.8 1.8-1.8c0-.9-.8-1.7-1.8-1.7s-1.8.7-1.8 1.7Z" class="-path--secondary" fill="#FF9E18"/>
</svg>
