<svg id="icon-products-bug" viewBox="0 0 96 96" xmlns="http://www.w3.org/2000/svg">
  <path fill-rule="evenodd" d="M64.583 26.692v4.077h-.007c.005.112.007.225.007.339v4.133h3.38l6.678 7.707s.066 5.102.066 5.523v16.29c0 11.765-10.041 21.39-22.287 21.39-12.245 0-22.286-9.625-22.286-21.39V48.487c0-.422.066-5.523.066-5.523l6.694-7.723h3.371v-4.134c0-.117.002-.233.007-.348h-.007v-4.068c0-5.945 5.97-10.186 12.163-10.186 6.193 0 12.155 4.25 12.155 10.186Z" class="-path--shadow" fill="#38C6F4"/>
  <path fill-rule="evenodd" d="M32.39 1.893a.66.66 0 1 0-1.208.534l8.095 18.3-.086.067c-2.392 1.905-4.011 4.63-4.011 7.833v4.076a.66.66 0 1 0 1.321 0v-4.076c0-2.725 1.371-5.094 3.514-6.8 2.147-1.71 5.041-2.726 7.989-2.726 2.947 0 5.84 1.017 7.984 2.726 2.14 1.706 3.51 4.075 3.51 6.8v4.134a.66.66 0 1 0 1.321 0v-4.134c0-3.203-1.616-5.928-4.007-7.833l-.088-.07 8.093-18.297a.66.66 0 0 0-1.208-.534L55.62 19.95c-2.206-1.383-4.893-2.171-7.617-2.171-2.726 0-5.416.788-7.624 2.173l-7.99-18.06ZM13.374 25.974a.66.66 0 0 1 .817.455l3.993 14.042 7.24 5.469 6.539-7.542a.66.66 0 0 1 .499-.228h31.078a.66.66 0 0 1 .5.228l6.52 7.55 7.265-5.478 3.985-14.04a.66.66 0 0 1 1.271.36l-4.045 14.255a.661.661 0 0 1-.238.347l-7.755 5.846a.662.662 0 0 1-.163.09v.019a4267.41 4267.41 0 0 1 .056 4.721v4.612l11.728 3.931a.66.66 0 0 1 .426.446l4.047 14.263a.66.66 0 0 1-1.272.361l-3.951-13.927-10.978-3.68v10.291c0 2.125-.317 4.182-.907 6.128a.66.66 0 0 1 .126.075l8.643 6.516a.66.66 0 0 1 .254.42l2.023 12.228a.66.66 0 0 1-1.304.216L77.79 81.98l-8.203-6.185c-3.197 8.516-11.712 14.63-21.6 14.63-9.87 0-18.375-6.094-21.583-14.588l-8.187 6.144-1.988 11.967a.66.66 0 0 1-1.304-.216l2.032-12.23a.662.662 0 0 1 .255-.42l8.743-6.56a21.091 21.091 0 0 1-.915-6.157V58.083l-10.946 3.67-3.959 13.928a.66.66 0 1 1-1.27-.361l4.054-14.263a.66.66 0 0 1 .425-.446L25.04 56.69v-4.62c0-.217.017-1.603.033-2.925l.023-1.796-7.886-5.956a.66.66 0 0 1-.237-.347L12.918 26.79a.66.66 0 0 1 .455-.816Zm12.989 42.391V57.266a.657.657 0 0 0 0-.21v-4.988c0-.205.016-1.578.032-2.907l.023-1.797.007-.56 6.338-7.313h30.474l6.315 7.312.007.56a4300.073 4300.073 0 0 1 .055 4.705v16.297c0 11.162-9.358 20.385-20.957 20.728V51.605a.66.66 0 1 0-1.321 0v37.489c-11.607-.335-20.974-9.562-20.974-20.729Z" class="-path--primary" fill="#083176"/>
</svg>
