<svg id="icon-business-deal" viewBox="0 0 96 96" xmlns="http://www.w3.org/2000/svg">
  <path d="M62.026 78.209c0-8.73 7.062-15.791 15.89-15.791 1.863 0 3.629.294 5.296.883C86.84 57.22 88.9 50.158 88.9 42.605 88.9 20.145 70.657 2 48.1 2 25.54 2 7.297 20.145 7.297 42.605c0 22.461 18.243 40.606 40.802 40.606 5.002 0 9.808-.883 14.222-2.55a9.88 9.88 0 0 1-.295-2.452Z" class="-path--shadow" fill="#38C6F4"/>
  <path fill-rule="evenodd" d="M62.025 78.209c0 8.73 7.16 15.791 15.89 15.791 8.729 0 15.889-7.062 15.889-15.791 0-8.73-7.062-15.791-15.89-15.791-8.827 0-15.889 7.062-15.889 15.791Zm1.373 0a14.483 14.483 0 0 1 14.517-14.516A14.483 14.483 0 0 1 92.43 78.209a14.483 14.483 0 0 1-14.516 14.516 14.483 14.483 0 0 1-14.516-14.516Zm7.26 2.354 3.726 5.002 10.79-13.24-.982-.884-9.71 11.966-2.746-3.629-1.079.785Z" class="-path--secondary" fill="#FF9E18"/>
  <path fill-rule="evenodd" d="M2.197 47.02c0-22.952 18.636-41.49 41.685-41.49 23.049 0 41.684 18.636 41.782 41.587a41.184 41.184 0 0 1-3.236 15.988c-.197-.05-.417-.099-.638-.148-.22-.049-.441-.098-.638-.147a38.495 38.495 0 0 0 3.14-13.83c-.3.187-.711.43-1.182.709-.769.453-1.695 1-2.546 1.548l-.49.294-2.256-3.237-6.572 4.414-.588-1.079c-1.177 1.275-2.55 2.354-4.022 3.237.589.784 1.374 2.354.785 3.727-.49 1.275-1.962 1.863-4.414 1.961h-.196l.001.07c.007.408.03 1.77-.981 2.873-.883.882-2.158 1.373-3.826 1.373h-.196l-9.906-5.787.589-1.079 9.611 5.493c1.177 0 2.06-.392 2.649-.981.784-.883.686-2.06.686-2.06l1.177-.098h-.098l-11.377-6.67.686-1.078 11.181 6.473c1.766-.098 2.845-.49 3.14-1.177.391-.883-.59-2.354-.982-2.844-6.375-5.198-13.437-9.808-20.891-13.633l-3.04.784c0 .392-.099.981-.49 1.57-.785 1.274-2.551 2.353-5.2 2.942-2.353.588-3.824.392-4.51-.49-.716-1.073.035-2.39.248-2.764.021-.036.037-.063.045-.08.981-2.06 2.158-4.022 3.433-5.984-2.746-.49-5.394-1.079-7.944-1.863l.392-1.275c2.746.882 5.59 1.47 8.435 1.961 1.275-1.471 3.04-2.354 4.904-2.648 2.158-.392 4.316-.588 6.571-.785 3.325-.277 4.91.229 6.64.78l.324.103c.785.294 1.57.589 2.648.785 1.472.392 3.04.392 4.512-.196l-.588-1.08 6.375-4.02-.981-2.158 8.73-5.983c-7.455-8.73-18.538-14.32-30.896-14.32S20.538 12.2 13.084 20.93l9.024 5.983-.981 2.157 6.375 4.022-9.121 16.87.294-.295 3.139 4.12-.981.784-2.943-3.825-.98 1.864-6.572-4.414-2.256 3.237-.49-.294c-.42-.262-.852-.538-1.275-.808-1.16-.739-2.243-1.429-2.747-1.645.883 21.382 18.636 38.448 40.312 38.448 6.767 0 13.24-1.667 18.831-4.61.098.49.196.883.393 1.276-5.787 3.04-12.26 4.707-19.224 4.707-23.05 0-41.685-18.537-41.685-41.488Zm14.32 3.726 9.318-17.164-5.297-3.335-9.415 16.87 5.394 3.63Zm3.139-21.578.784-1.765-8.14-5.394c-5.395 6.865-8.73 15.594-8.73 25.01v1.08l.197-.688c.49.197 2.844 1.57 4.02 2.354l1.864-2.746 10.005-17.85Zm46 24.717c1.47-.981 2.844-2.06 4.12-3.335l.293.49-8.435-15.594c-1.765.784-3.727.882-5.492.294-.981-.196-1.864-.49-2.648-.785l-.222-.07c-1.755-.556-3.145-.997-6.252-.715-2.158.099-4.315.393-6.473.785-1.765.294-3.335 1.177-4.414 2.55-1.47 2.158-2.844 4.316-3.923 6.67-.196.392-.49 1.177-.294 1.471.098.098.588.588 3.237 0 4.976-1.127 4.739-3.332 4.71-3.604l-.003-.025-.098-.589.589-.196 4.021-1.078.196.098c7.553 3.825 14.614 8.337 21.088 13.633ZM62.32 33.582l9.318 17.164 5.492-3.629-9.514-16.87-5.296 3.335ZM78.504 47.02l1.864 2.746a71.428 71.428 0 0 0 1.975-1.224c.798-.505 1.535-.972 1.85-1.13v-.392c0-9.416-3.237-18.047-8.631-24.912l-7.945 5.296.785 1.667 10.102 17.95ZM24.166 63.595c.295.686.687 1.373 1.57 1.863a6.514 6.514 0 0 0 2.942.687c.589 2.158 2.746 3.629 5.1 3.335h.295l.196-.294c.098.392.392.98.686 1.47.393.59.981 1.178 1.766 1.57.785.392 1.765.392 2.942.098l.197-.098 2.746-3.629c.98-1.275.98-3.04.098-4.414-.687-1.079-1.766-1.765-2.943-2.06v-.097c0-.041.017-.099.037-.166.028-.095.061-.21.061-.325.099-.392.099-.98-.098-1.57-.294-1.176-1.373-2.353-3.629-3.138v-.294c0-.49-.098-1.177-.49-1.765-.294-.687-.883-1.276-1.765-1.668-.883-.392-1.962-.588-3.531-.294h-.295l-1.961 2.55c-.05-.098-.098-.22-.147-.343-.05-.123-.098-.245-.148-.343-.294-.589-.686-1.178-1.275-1.57-.294-.588-1.078-.785-2.06-.686-.784.196-1.47.588-1.96 1.275l-1.962 2.746V56.729a.7.7 0 0 1-.037.166c-.028.095-.062.21-.062.325 0 .392 0 .98.099 1.569.196.588.588 1.275 1.275 1.765.588.393 1.275.687 2.255.785v.196c-.196.687-.196 1.373.098 2.06Zm15.301-1.57c-.049 0-.098-.024-.147-.048l.147.049Zm-.147-.048a.348.348 0 0 0-.147-.05l.147.05Zm.05.735-.099.589c.98.098 1.864.686 2.354 1.47.588.883.588 2.159-.098 3.041l-2.452 3.335c-.883.196-1.471.098-1.864-.098-.49-.196-.882-.589-1.177-1.079-.294-.49-.49-.98-.588-1.471-.098-.196-.098-.392-.098-.589l4.021-5.198Zm-3.532-4.708c1.962.687 2.55 1.668 2.746 2.354.098.393.098.785.098.981 0 .098 0 .196-.098.294l-5.198 6.572c-1.667.196-3.138-.883-3.53-2.55l5.982-7.65Zm-7.258-1.079 2.354-3.04c1.177-.098 1.962 0 2.55.294.589.294.883.687 1.177 1.079.196.49.294.883.294 1.275v.49l-6.08 7.945c-1.178 0-1.962-.196-2.55-.589a1.785 1.785 0 0 1-.982-1.275c-.196-.49-.196-.98-.196-1.373 0-.196 0-.392.098-.49v-.098l3.335-4.218Zm-6.179 2.747c-.392-.295-.686-.687-.785-1.08-.098-.392-.098-.784-.098-1.078 0-.196 0-.294.098-.393l1.864-2.648c.294-.392.686-.686 1.177-.784.686-.098 1.177 0 1.471.294.392.196.589.588.785.98.137.274.226.596.3.865.033.116.062.224.092.313v.294l-2.942 3.727c-.981 0-1.57-.294-1.962-.49Zm32.171 9.317H53.886l-8.827-4.217.49-1.275 8.73 4.12c2.255.293 2.942-2.55 2.942-2.649l1.275.294c-.294 1.373-1.471 3.727-3.924 3.727Zm-2.649-.392 1.177.589c-.098.196-1.373 2.648-5.002 2.648-.687 0-1.471-.098-2.354-.294l-3.825-1.178.392-1.275 3.825 1.177c3.996 1 5.47-1.197 5.744-1.606.022-.032.036-.054.043-.061Z" class="-path--primary" fill="#083176"/>
</svg>
