<svg id="icon-products-healthcare" viewBox="0 0 96 96" xmlns="http://www.w3.org/2000/svg">
  <path fill-rule="evenodd" d="M7.837 22.317a.583.583 0 0 0-.583.583v56.4c0 .322.261.583.583.583h86.2a.583.583 0 0 0 .583-.583V22.9a.583.583 0 0 0-.583-.583h-86.2ZM28.22 55.1c0-10.178 8.34-18.517 18.517-18.517 10.18 0 18.517 8.24 18.517 18.517v.005c.097 10.171-8.236 18.512-18.517 18.512A18.452 18.452 0 0 1 28.22 55.1Z" class="-path--shadow" fill="#38C6F4"/>
  <path fill-rule="evenodd" d="M32.437 12.258c-2.437 0-4.342 1.905-4.342 4.342v8.542H65.58V16.6c0-2.437-1.906-4.342-4.343-4.342h-28.8ZM26.78 16.6v8.542H2.037a.658.658 0 0 0-.657.658v58.6c0 .363.294.658.657.658h89.5a.658.658 0 0 0 .658-.658V25.8a.658.658 0 0 0-.658-.658H66.895V16.6c0-3.163-2.495-5.658-5.658-5.658h-28.8c-3.163 0-5.657 2.495-5.657 5.658ZM2.695 26.458H26.78v.1h40.115v-.1H90.88v17.884l-27.502-.012c-3.537-5.4-9.642-8.988-16.54-8.988-6.825 0-12.872 3.51-16.425 8.813l-27.718-.012V26.458ZM29.604 45.47l-26.91-.012v38.284H90.88V45.657l-26.712-.011a19.58 19.58 0 0 1 2.427 9.454c0 10.863-8.895 19.758-19.758 19.758-10.86 0-19.757-8.793-19.757-19.758 0-3.49.918-6.777 2.524-9.63Zm-1.21 9.63c0-10.137 8.306-18.442 18.443-18.442 10.137 0 18.443 8.305 18.443 18.442s-8.306 18.442-18.443 18.442c-10.139 0-18.442-8.207-18.442-18.442Z" class="-path--primary" fill="#083176"/>
  <path d="M50.137 45.6v6.2h6.2v6.7h-6.2l-.1 6.1h-6.7l.1-6.2h-6.2v-6.6l6.2-.1v-6.2l6.7.1Z" fill="#E1251B"/>
</svg>
