<svg id="icon-business-lower-costs-dollar" viewBox="0 0 96 96" xmlns="http://www.w3.org/2000/svg">
  <path class="-path--shadow" fill="#38C6F4" d="M27.79 30.7c0-.73-.6-1.32-1.32-1.32H12.7c-.72 0-1.31.59-1.31 1.31v60.4c0 .73.59 1.31 1.31 1.31h13.78c.73 0 1.32-.58 1.32-1.3V30.7Zm23.33 16.56c.73 0 1.32.59 1.32 1.31V91.1c0 .73-.6 1.31-1.32 1.31H37.34c-.72 0-1.31-.58-1.31-1.3V48.56c0-.72.59-1.3 1.31-1.3h13.78Zm24.66 17.89c.73 0 1.32.58 1.32 1.3V91.1c0 .73-.6 1.31-1.32 1.31H62c-.72 0-1.31-.58-1.31-1.3V66.45c0-.73.59-1.31 1.31-1.31h13.78Z"/>
  <path class="-path--primary" fill="#083176" d="M21.29 1.29c-6.63 0-12 5.35-12 11.95s5.37 11.94 12 11.94 12-5.35 12-11.94c0-6.6-5.37-11.95-12-11.95ZM8 13.24C8 5.92 13.95 0 21.29 0c7.33 0 13.28 5.92 13.28 13.24 0 7.3-5.95 13.23-13.28 13.23A13.26 13.26 0 0 1 8 13.24Zm12.38 7v-1.62a6.98 6.98 0 0 1-2.93-.74l.51-2c.88.47 1.86.73 2.86.75.98 0 1.66-.38 1.66-1.07 0-.68-.56-1.07-1.83-1.5-1.85-.62-3.1-1.47-3.1-3.14a3.18 3.18 0 0 1 2.91-3.06V6.23h1.72v1.54c.87.01 1.72.2 2.51.56l-.57 1.92a5.78 5.78 0 0 0-2.49-.58c-1.12 0-1.48.48-1.48.95 0 .48.6.94 2.07 1.49 2.05.71 2.88 1.67 2.88 3.2a3.3 3.3 0 0 1-3.06 3.19v1.71l-1.66.04ZM10.04 32.99c-.38 0-.68.3-.68.66v60.4c0 .37.3.67.68.67H23.8c.38 0 .68-.3.68-.66v-60.4c0-.37-.3-.67-.68-.67H10.04Zm-1.96.66c0-1.08.88-1.95 1.96-1.95H23.8c1.08 0 1.96.87 1.96 1.95v60.4c0 1.09-.88 1.96-1.96 1.96H10.04a1.96 1.96 0 0 1-1.96-1.95v-60.4Zm25.94 17.89c0-.37.3-.67.67-.67h13.78c.37 0 .67.3.67.67v42.52c0 .36-.3.66-.67.66H34.69a.67.67 0 0 1-.67-.66V51.53Zm.67-1.96c-1.08 0-1.96.88-1.96 1.96v42.52c0 1.08.88 1.95 1.96 1.95h13.78c1.07 0 1.95-.87 1.95-1.95V51.53c0-1.08-.88-1.96-1.95-1.96H34.69Zm23.98 19.84c0-.37.3-.67.67-.67h13.78c.37 0 .67.3.67.67v24.64c0 .36-.3.66-.67.66H59.34a.67.67 0 0 1-.67-.66V69.4Zm.67-1.95c-1.08 0-1.96.87-1.96 1.95v24.64c0 1.08.88 1.95 1.96 1.95h13.78c1.08 0 1.96-.87 1.96-1.95V69.4c0-1.08-.88-1.95-1.96-1.95H59.34Z"/>
  <path class="-path--secondary" fill="#FF9E18" d="M38.71 26.17a.64.64 0 0 0-.78 1.02l48.11 36.88-4.72.49a.64.64 0 1 0 .13 1.28l6.33-.65h.02c.35-.05.6-.37.56-.72l-.94-7.56a.64.64 0 0 0-1.27.16l.74 6.03-48.18-36.93Z"/>
</svg>
