<svg viewBox="0 0 32 32" xmlns="http://www.w3.org/2000/svg">
  <g fill="none" fill-rule="nonzero">
    <path fill="#8CC63F" d="M2.86 25.25a16.13 16.13 0 003.87 3.88l5.29-9.18-9.16 5.3M6.73 2.88a16.09 16.09 0 00-3.87 3.88l9.16 5.3-5.29-9.18M22.7 1.43a15.87 15.87 0 00-5.3-1.41v10.6l5.3-9.19M9.23 30.57c1.63.76 3.41 1.25 5.29 1.42V21.4l-5.3 9.18M29.07 6.76a16.07 16.07 0 00-3.87-3.88l-5.29 9.17 9.16-5.3m-3.87 22.38a16.15 16.15 0 003.87-3.88l-9.16-5.3 5.29 9.18"/>
    <path fill="#00853F" d="M31.92 14.56a16.09 16.09 0 00-1.42-5.3l-9.16 5.3h10.58M0 17.45a16 16 0 001.41 5.3l9.17-5.3H0m1.41-8.2A15.99 15.99 0 000 14.56h10.58L1.4 9.26m19.93 8.2l9.16 5.3a15.91 15.91 0 001.42-5.3H21.34M14.52 0c-1.88.17-3.66.66-5.3 1.42l5.3 9.18V.01M17.4 32c1.88-.17 3.65-.66 5.3-1.42l-5.3-9.18V32"/>
  </g>
</svg>