<svg id="icon-logo-google" viewBox="0 0 16 16" xmlns="http://www.w3.org/2000/svg">
  <path d="M8.1648 6.8542h7.7076c.085.4652.1276.9097.1276 1.3333 0 1.507-.3225 2.8524-.9674 4.0365-.645 1.184-1.5646 2.1093-2.7588 2.776-1.1943.6667-2.564 1-4.109 1-1.1128 0-2.1723-.21-3.1788-.6302-1.0064-.4201-1.8746-.9879-2.6046-1.7031-.73-.7153-1.3094-1.566-1.7382-2.5521C.2144 10.1285 0 9.0903 0 8c0-1.0903.2144-2.1285.6432-3.1146.4288-.986 1.0082-1.8368 1.7382-2.552.73-.7153 1.5982-1.283 2.6046-1.7032C5.9925.2101 7.052 0 8.1648 0c2.1262 0 3.9513.698 5.475 2.0938L11.418 4.1875c-.8717-.8264-1.9561-1.2396-3.2531-1.2396-.9143 0-1.7595.2257-2.5356.6771-.776.4514-1.3909 1.0642-1.8445 1.8385S3.1043 7.0833 3.1043 8c0 .9167.2268 1.7622.6804 2.5365.4536.7743 1.0685 1.3871 1.8445 1.8385.7761.4514 1.6213.677 2.5356.677.6166 0 1.1836-.0832 1.701-.25.5174-.1666.9426-.375 1.2757-.625.3331-.25.6237-.5346.8718-.854.248-.3195.4306-.6216.5475-.9063.117-.2848.1967-.5556.2392-.8125H8.1648v-2.75z" fill-rule="nonzero"/>
</svg>