<svg id="icon-logo-github" viewBox="0 0 16 16" xmlns="http://www.w3.org/2000/svg">
  <path d="M16 8.2004c0 1.7867-.5087 3.3936-1.526 4.8209-1.0174 1.4272-2.3316 2.4149-3.9428 2.963-.1875.0356-.3246.0107-.4114-.0747-.0868-.0855-.1302-.1922-.1302-.3204v-2.253c0-.6904-.1806-1.1958-.5417-1.5161.3958-.0428.7518-.1068 1.0677-.1922.316-.0855.6424-.2243.9792-.4165.3368-.1922.618-.4289.8437-.71.2257-.2812.4098-.655.5521-1.1212.1424-.4662.2136-1.0019.2136-1.607 0-.8613-.2743-1.5945-.823-2.1995.257-.6478.2292-1.3739-.0833-2.1782-.1944-.0641-.4757-.025-.8437.1174s-.6875.299-.9584.4698L10 4.239c-.6458-.185-1.3125-.2776-2-.2776s-1.3542.0925-2 .2776c-.1111-.0783-.2587-.1744-.4427-.2883s-.474-.251-.8698-.411c-.3958-.1603-.6944-.2083-.8958-.1442-.3056.8043-.3299 1.5304-.073 2.1782-.5486.605-.8229 1.3382-.8229 2.1996 0 .605.0712 1.1389.2136 1.6016.1423.4627.3246.8364.5469 1.1211.2222.2848.5017.5232.8385.7154.3368.1922.6632.331.9792.4165.316.0854.6718.1494 1.0677.1922-.2778.2562-.448.6228-.5104 1.0997a2.031 2.031 0 0 1-.4688.1602c-.1667.0356-.3646.0534-.5938.0534-.2291 0-.4565-.0765-.6822-.2296-.2257-.153-.4184-.3755-.5782-.6673-.132-.2278-.3003-.4129-.5052-.5553-.2048-.1423-.3767-.2277-.5156-.2562l-.2083-.032c-.1459 0-.2466.016-.3021.048-.0556.032-.073.073-.0521.1228a.59.59 0 0 0 .0938.1495.769.769 0 0 0 .1354.1281l.0729.0534c.1528.0712.3038.2064.4531.4057.1493.1994.2587.3809.3281.5446l.1042.2456c.0903.2705.243.4894.4583.6567.2153.1672.448.274.698.3203.25.0462.4913.0712.724.0747.2325.0036.4253-.0089.578-.0374l.2396-.0427c0 .2705.0018.5873.0052.9503.0035.363.0052.5553.0052.5766 0 .1282-.0451.235-.1354.3204-.0903.0854-.2291.1103-.4166.0747-1.6112-.5481-2.9254-1.5358-3.9428-2.963C.5087 11.594 0 9.987 0 8.2003c0-1.4877.3576-2.8597 1.073-4.1161.7152-1.2564 1.6857-2.2512 2.9114-2.9844C5.21.3666 6.5486 0 8 0s2.79.3666 4.0156 1.0998c1.2257.7332 2.1962 1.728 2.9115 2.9844S16 6.7126 16 8.2004z" fill-rule="nonzero"/>
</svg>