<svg id="icon-logo-amazon" viewBox="0 0 16 16" xmlns="http://www.w3.org/2000/svg">
  <path d="M13.5964 13.1786c.0893-.0357.1667-.0447.2322-.0268.0654.0178.0982.07.0982.1562 0 .0863-.0447.186-.134.2991-.0773.0953-.2083.2247-.3928.3884-.1845.1637-.4688.3661-.8527.6072-.384.241-.8035.4613-1.259.6607-.4553.1994-1.0148.372-1.6785.5178-.6637.1459-1.3467.2188-2.049.2188-.7084 0-1.4168-.0923-2.125-.2768-.7084-.1845-1.3304-.4122-1.8662-.683a12.0874 12.0874 0 0 1-1.5401-.9286c-.4911-.3482-.8855-.6607-1.183-.9375-.2977-.2768-.5477-.5372-.75-.7812-.0477-.0536-.0775-.1027-.0894-.1474-.0119-.0446-.0089-.0803.009-.1071a.1819.1819 0 0 1 .0714-.0625.1926.1926 0 0 1 .1027-.0179.1831.1831 0 0 1 .1027.0402c1.1428.6964 2.0357 1.1905 2.6785 1.4822 2.3155 1.0476 4.6935 1.3154 7.134.8035 1.131-.238 2.2946-.6399 3.491-1.2053zm1.8482-1.0268c.0655.0952.073.302.0224.6205a4.1266 4.1266 0 0 1-.2545.9152c-.2024.494-.4554.8631-.759 1.1071-.1011.0834-.1785.1102-.232.0804-.0536-.0298-.0536-.1012 0-.2143.125-.2678.2574-.6295.3972-1.0848.14-.4554.1593-.7485.058-.8795-.0297-.0416-.0758-.0759-.1383-.1027-.0625-.0267-.1429-.0446-.241-.0535a19.2393 19.2393 0 0 0-.2635-.0223c-.0774-.006-.1815-.006-.3125 0s-.2247.0119-.2812.0178c-.0566.006-.1488.0149-.2768.0268s-.195.0179-.2009.0179a1.2497 1.2497 0 0 1-.116.0134 1.9689 1.9689 0 0 0-.0983.0089 5.5913 5.5913 0 0 1-.0759.009.6047.6047 0 0 1-.0625.0044h-.0893l-.0267-.0045-.018-.0134-.0133-.0268c-.0357-.0952.1042-.2143.4196-.3571.3155-.1429.622-.2322.9197-.2679.2738-.0416.5952-.0446.9643-.0089.369.0357.5952.1071.6785.2143zm-3.5178-3.9554c0 .1846.0402.375.1205.5715.0804.1964.1756.369.2857.5178.1102.1488.2218.2857.3349.4107.113.125.2113.2203.2946.2857l.116.0983-2.0267 2a30.0297 30.0297 0 0 1-.7054-.6741c-.2321-.2292-.4047-.4033-.5178-.5224l-.1697-.1785c-.0654-.0655-.1399-.1637-.2232-.2947-.2262.3512-.5164.6563-.8705.9152-.3542.259-.7337.448-1.1384.567a5.1768 5.1768 0 0 1-1.25.2053c-.4286.0179-.8378-.0446-1.2277-.1875-.3899-.1428-.7396-.3378-1.0491-.5848-.3095-.247-.5565-.5833-.741-1.009-.1846-.4255-.2769-.9092-.2769-1.4508 0-.5.0834-.9584.25-1.375.1667-.4167.381-.7634.6429-1.0402.2619-.2768.5789-.5238.9509-.741.372-.2173.7366-.387 1.0937-.509.3572-.122.744-.2247 1.1608-.308.4166-.0834.7723-.1384 1.067-.1652.2946-.0268.5907-.0462.8883-.058v-1.134c0-.3869-.0625-.6756-.1875-.866-.2024-.3155-.5625-.4733-1.0803-.4733-.0358 0-.0849.003-.1474.009-.0625.006-.183.0416-.3616.1071a2.1136 2.1136 0 0 0-.5.2634c-.1547.1101-.3214.2872-.5.5312-.1785.244-.3214.5298-.4285.8572l-2.625-.241c0-.3572.0654-.7114.1964-1.0626.131-.3512.3303-.6875.5982-1.009.2679-.3213.5893-.604.9643-.8481.375-.244.8259-.439 1.3527-.5848C6.7438.0728 7.3107 0 7.9179 0c.5952 0 1.1339.0744 1.616.2232.4822.1488.8676.3319 1.1563.5491.2887.2173.5297.4643.7232.741.1934.2769.3274.5328.4018.768.0744.235.1116.4538.1116.6562v5.259zm-6 .1875c0 .512.2083.9078.625 1.1875.3928.262.8065.3274 1.241.1965.5-.1489.8393-.515 1.018-1.0983.0832-.2678.125-.5684.125-.9017V6.3214c-.3513.012-.6816.0476-.9912.1072-.3095.0595-.6264.1592-.9508.299-.3245.14-.5834.3513-.7768.634-.1935.2827-.2902.6235-.2902 1.0223z" fill-rule="nonzero"/>
</svg>