<svg id="icon-logo-aws" viewBox="0 0 16 16" xmlns="http://www.w3.org/2000/svg">
  <path d="M7.7596 15.5l-3.5423-1.3033V8.872l3.5423 1.2378V15.5zm.6496 0v-5.3902l3.5423-1.2378v5.3247L8.4092 15.5zm-3.828-7.0262l3.5852-1.035 3.3242 1.0993-3.3242 1.1573-3.5851-1.2216zm-1.0389-.4125L0 6.7581V1.4333l3.5423 1.2376v5.3904zm.6496 0V2.6709l3.5425-1.2376V6.758L4.1919 8.0613zM.364 1.0348L3.9494 0l3.3242 1.0992-3.3242 1.1575L.364 1.0347zm11.444 7.0265L8.2655 6.7581V1.4333l3.5424 1.2376v5.3904zm.6496 0V2.6709L16 1.4333V6.758l-3.5425 1.3032zM8.6296 1.0348L12.2147 0l3.3243 1.0992-3.3243 1.1575-3.5851-1.222z" fill-rule="evenodd"/>
</svg>