<svg id="icon-logo-x" viewBox="0 0 16 16" xmlns="http://www.w3.org/2000/svg"><path d="M7.51001 8.09401L10.272 12.019H11.479L5.90501 4.09901H4.69501L7.50901 8.09401H7.51001Z" fill-rule="nonzero"/><path d="M14.652 12.445C15.8309 10.6807 16.2606 8.52025 15.8466 6.43907C15.4326 4.35788 14.2089 2.52639 12.4445 1.34751C11.5709 0.763781 10.5908 0.357843 9.56035 0.15287C8.52985 -0.0521025 7.46907 -0.052096 6.43857 0.152889C4.35738 0.566876 2.52589 1.79065 1.34701 3.55501C0.168118 5.31936 -0.261599 7.47976 0.152388 9.56094C0.566374 11.6421 1.79015 13.4736 3.55451 14.6525C5.31886 15.8314 7.47926 16.2611 9.56044 15.8471C11.6416 15.4331 13.4731 14.2094 14.652 12.445ZM12.269 3.51001L8.943 7.35001L12.56 12.58H9.9L7.46301 9.06001L4.41301 12.58H3.62501L7.11301 8.55001L3.62501 3.51001H6.28501L8.592 6.84801L11.481 3.51001H12.269Z"/></svg>

