<svg xmlns="http://www.w3.org/2000/svg" viewBox="0 0 32 32">
  <g fill="none" fill-rule="evenodd">
    <path fill="#FFC800" d="M7.93 31.86a7.86 7.86 0 0 0-4.9-7.29c-.96-.4-1.99-.6-3.03-.6v7.9h7.93ZM0 7.9A7.95 7.95 0 0 0 7.93 0H0v7.9ZM24.07 31.86a7.86 7.86 0 0 1 4.9-7.29c.96-.4 1.99-.6 3.03-.6v7.9h-7.93ZM32 7.9A7.95 7.95 0 0 1 24.07 0H32v7.9ZM13.22 18.7a18.69 18.69 0 0 0-3.54-2.77A18.74 18.74 0 0 1 0 18.61a13.34 13.34 0 0 1 12.3 8.17c.67 1.61 1 3.34 1 5.08 0-3.4.93-6.73 2.7-9.64a18.6 18.6 0 0 0-2.78-3.52Z"/>
    <path fill="#FA783C" d="M13.22 13.17c1.07-1.06 2-2.25 2.78-3.53A18.57 18.57 0 0 1 13.31 0a13.19 13.19 0 0 1-8.2 12.25c-1.62.66-3.36 1-5.1 1 3.4 0 6.76.92 9.68 2.68 1.28-.78 2.47-1.7 3.53-2.76Z"/>
    <path fill="#FA4628" d="M0 13.25v5.35c3.41 0 6.76-.92 9.68-2.67A18.76 18.76 0 0 0 0 13.25Z"/>
    <path fill="#FA783C" d="M18.78 18.7A18.6 18.6 0 0 0 16 22.22a18.57 18.57 0 0 1 2.69 9.64 13.19 13.19 0 0 1 8.2-12.24c1.62-.67 3.36-1.01 5.1-1-3.4 0-6.76-.93-9.68-2.68-1.28.77-2.47 1.7-3.53 2.76Z"/>
    <path fill="#FA4628" d="M13.3 31.86h5.4c0-3.4-.93-6.73-2.7-9.64a18.57 18.57 0 0 0-2.7 9.64Z"/>
    <path fill="#FFC800" d="M18.78 13.17a18.59 18.59 0 0 0 3.54 2.76A18.76 18.76 0 0 1 32 13.26a13.34 13.34 0 0 1-12.3-8.18 13.19 13.19 0 0 1-1-5.08c0 3.4-.93 6.74-2.7 9.65.78 1.28 1.71 2.46 2.78 3.52Z"/>
    <path fill="#FA4628" d="M18.7 0h-5.4c0 3.4.93 6.73 2.7 9.64 1.76-2.9 2.7-6.24 2.7-9.64ZM22.32 15.93A18.74 18.74 0 0 0 32 18.61v-5.35c-3.41 0-6.76.92-9.68 2.67Z"/>
  </g>
</svg>