<svg xmlns="http://www.w3.org/2000/svg" style="display:none"><symbol id="settings" viewBox="0 0 16 16"><path d="M10.288 13.584l-.128 1.498c-.045.52-.502.918-1.05.918H6.89c-.548 0-1.005-.4-1.05-.917L5.71 13.64v-.056c-.6-.227-1.152-.54-1.644-.925l-.05.026-1.404.63c-.496.222-1.09.046-1.363-.405L.14 11.09c-.273-.45-.137-1.025.313-1.32l1.254-.827.12-.065C1.782 8.59 1.76 8.297 1.76 8c0-.297.023-.59.066-.875l-.094-.052-1.278-.84c-.45-.296-.586-.87-.312-1.322l1.11-1.822c.274-.45.866-.626 1.362-.405l1.38.617.074.04c.492-.383 1.045-.697 1.644-.924v-.064L5.84.916C5.884.398 6.34 0 6.89 0h2.22c.548 0 1.005.4 1.05.917l.128 1.447v.052c.6.227 1.152.54 1.644.925l.08-.043 1.374-.614c.496-.22 1.088-.045 1.362.405l1.11 1.824c.275.45.14 1.025-.31 1.32l-1.26.83-.115.063c.044.286.066.578.066.875 0 .297-.023.59-.067.875l.127.07 1.247.822c.45.296.586.87.312 1.32l-1.11 1.825c-.276.45-.868.626-1.364.404L12 12.696l-.068-.037c-.492.383-1.045.697-1.644.924zM8 11c1.657 0 3-1.343 3-3S9.657 5 8 5 5 6.343 5 8s1.343 3 3 3z" fill="currentColor" fill-rule="evenodd"/></symbol></svg>