<svg id="icon-products-screen-sharing" viewBox="0 0 96 96" xmlns="http://www.w3.org/2000/svg">
  <path fill-rule="evenodd" d="M56.15 31.199h34.41a2.994 2.994 0 0 1 2.99 2.99v23.585a2.994 2.994 0 0 1-2.99 2.991H74.968v1.546h2.98a1.17 1.17 0 0 1 1.17 1.17v.15a1.17 1.17 0 0 1-1.17 1.17H68.76a1.17 1.17 0 0 1-1.17-1.17v-.15a1.17 1.17 0 0 1 1.17-1.17h2.98v-1.547H56.15a2.994 2.994 0 0 1-2.99-2.99V47.045H42.84v10.73a2.994 2.994 0 0 1-2.99 2.991H24.26v1.546h2.98a1.17 1.17 0 0 1 1.17 1.17v.15a1.17 1.17 0 0 1-1.17 1.17H18.05a1.17 1.17 0 0 1-1.17-1.17v-.15a1.17 1.17 0 0 1 1.17-1.17h2.98v-1.546H5.44a2.994 2.994 0 0 1-2.99-2.991V34.19a2.994 2.994 0 0 1 2.99-2.99h34.41a2.994 2.994 0 0 1 2.99 2.99v11.855h10.32V34.189a2.994 2.994 0 0 1 2.99-2.99Zm-33.184 1.86a.577.577 0 1 0-.64.96.577.577 0 0 0 .64-.96Zm18.079 25.91c.316-.317.495-.747.495-1.195V47.045h-9.82a.5.5 0 0 1 0-1h9.82V35.222H3.75v22.552a1.692 1.692 0 0 0 1.69 1.69h34.41c.448 0 .878-.179 1.195-.496Zm32.631-25.91a.577.577 0 1 0-.64.96.577.577 0 0 0 .64-.96Zm18.079 25.91c.316-.317.495-.747.495-1.195V35.222H54.46v10.823h4.166V40.07a1.855 1.855 0 0 1 1.854-1.854h26.072a1.855 1.855 0 0 1 1.854 1.854v14.324a1.855 1.855 0 0 1-1.854 1.853H60.48a1.855 1.855 0 0 1-1.854-1.853v-7.349H54.46v10.729a1.692 1.692 0 0 0 1.69 1.69h34.41c.448 0 .878-.179 1.195-.496Zm-30.609-9.622a.5.5 0 0 1-.35-.852l1.46-1.45h-2.63v7.349a.855.855 0 0 0 .854.853h26.072a.854.854 0 0 0 .854-.853V40.07a.854.854 0 0 0-.854-.854H60.48a.855.855 0 0 0-.854.854v5.975h2.648l-1.477-1.46a.5.5 0 0 1 .704-.711l2.69 2.658-2.69 2.67a.5.5 0 0 1-.354.145ZM16.324 36.915h12.211a.985.985 0 0 1 .984.983v4.25l-.003.012v11.034a.987.987 0 0 1-.984.982H23.75l1.147 1.147a.5.5 0 0 1-.354.853H14.04a.5.5 0 0 1-.5-.5V45.171a.5.5 0 0 1 .854-.353l.95.951V37.9a.986.986 0 0 1 .981-.984Zm-1.785 9.463v8.798h8.797l-8.797-8.798Zm1.803.39 6.408 6.408h5.782l-.016-11.127.003-.012V37.9l-12.193.016.016 8.853Zm-.303 7.408h3.736a.5.5 0 0 0 .353-.853l-3.736-3.737a.5.5 0 0 0-.853.354v3.736a.5.5 0 0 0 .5.5Zm.5-3.03 2.03 2.03h-2.03v-2.03Zm51.413 3.275h7.522a.5.5 0 0 0 .353-.853l-.579-.58h3.084a.846.846 0 0 0 .845-.845v-7.858l-.002-.014a.05.05 0 0 1-.003-.014c0-.008.004-.015.004-.023V41.19a.846.846 0 0 0-.845-.846H69.59a.846.846 0 0 0-.845.846v5.294l-.439-.439a.506.506 0 0 0-.545-.108.5.5 0 0 0-.308.462v7.521a.5.5 0 0 0 .5.5v.001Zm1.792-13.076h8.432v2.889l.003.015c.001.004.003.008.003.013l-.002.011a.035.035 0 0 0-.003.012v7.704h-3.93l-4.503-4.504v-6.14Zm-1.292 6.262 5.815 5.814h-5.815v-5.814Zm1.284 1.854 2.675 2.675a.5.5 0 0 1-.353.854h-2.675a.5.5 0 0 1-.5-.5v-2.675a.5.5 0 0 1 .853-.354Zm.147 1.561v.968h.968l-.968-.968Z"/>
</svg>
