<svg id="icon-people-it-professional" viewBox="0 0 96 96" xmlns="http://www.w3.org/2000/svg">
  <path fill-rule="evenodd" d="M81.943 2.42H61.495a.65.65 0 0 0-.65.65v63.929a41.637 41.637 0 0 0-2.694-4.233V3.07a.65.65 0 0 0-.65-.65H37.05a.65.65 0 0 0-.65.65v25.927c-.263.069-.52.153-.774.246-.071.026-.14.055-.209.084l-.051.021-.04.017a8.63 8.63 0 0 0-1.511.795 1.556 1.556 0 0 0-.068.042 9.718 9.718 0 0 0-.868.663l-.05.043c-.173.15-.343.305-.51.467l-.055.054c-.045.044-.09.088-.134.134-.217.224-.428.455-.628.7a13.49 13.49 0 0 0-2.882 8.513c0 5.78 3.34 10.617 7.78 11.774v2.009l-2.07-.74a5.322 5.322 0 0 0-4.382.369L22.98 57.97c-1.313.705-9.93 10.842-9.564 19.214a9.997 9.997 0 0 0 1.144 4.332c.012.025.028.048.044.072l.038.061c.208.378.441.741.7 1.087.032.043.068.083.104.124.027.03.054.06.08.092.247.315.513.614.796.897.05.05.107.097.162.144.042.036.084.071.125.108.284.266.582.517.893.753.072.053.149.104.226.154.054.035.108.07.16.107.319.219.64.435.99.635.105.06.215.115.325.17l.164.083.238.128c.188.103.376.205.58.298v6.501a.649.649 0 0 0 .65.65h35.203a.65.65 0 0 0 .65-.65v-6.228c.124-.05.238-.106.353-.161.083-.04.166-.08.253-.119l.171-.076c.228-.101.455-.202.669-.312.192-.1.37-.206.55-.313a28.37 28.37 0 0 1 .31-.184h.002c.199-.116.397-.231.58-.355.157-.107.301-.22.445-.335.05-.04.1-.08.152-.119l.026-.02.062-.047.058-.045c.17-.13.342-.26.496-.398a5.95 5.95 0 0 0 .344-.346 13.918 13.918 0 0 1 .21-.22l.07-.07c.142-.144.285-.288.41-.442.092-.11.171-.228.25-.346h.001a9.396 9.396 0 0 1 .233-.33c.12-.167.242-.335.346-.512.06-.105.112-.216.163-.327.029-.064.058-.127.089-.189l.09-.18c.1-.196.2-.393.28-.6.03-.08.053-.166.076-.251.017-.063.034-.125.054-.186.265-.795.43-1.621.489-2.458a17.88 17.88 0 0 0-1.777-8.152V3.72h19.15v73.463a.65.65 0 0 0 1.3 0V3.07a.65.65 0 0 0-.65-.65ZM37.7 3.72h19.15v57.338a16.203 16.203 0 0 0-2.961-3.09l-5.12-2.736-1.91-1.074a5.32 5.32 0 0 0-4.448-.347l-2.62.969c-.217.08-.44.142-.666.184a4.007 4.007 0 0 1-1.425-.002v-2.191h.003c.247.023.493.046.744.046a9.44 9.44 0 0 0 8.028-5.123h7.075a.65.65 0 0 0 0-1.3h-6.42a14.365 14.365 0 0 0 .16-10.828h6.26a.65.65 0 0 0 0-1.3H46.7a10.086 10.086 0 0 0-6.277-5.29 8.086 8.086 0 0 0-1.98-.245c-.25 0-.496.023-.743.046V3.72Zm-7.78 37.056c0-5.924 3.826-10.743 8.527-10.743 4.7 0 8.524 4.82 8.524 10.743s-3.824 10.74-8.524 10.74c-4.701 0-8.526-4.817-8.526-10.74Zm25.257 51.503h-33.17v-20.89h33.17v20.89Zm7.43-14.388c-.296 3.37-2.373 5.874-6.13 7.472V70.738a.65.65 0 0 0-.65-.65h-34.47a.65.65 0 0 0-.65.65v14.477c-3.722-1.716-5.742-4.35-5.972-7.857-.53-8.037 7.954-17.7 8.87-18.244l5.097-2.739 1.89-1.054a3.996 3.996 0 0 1 3.3-.277l2.734.976a5.33 5.33 0 0 0 3.626-.022l2.62-.97a4.01 4.01 0 0 1 3.35.263l7.05 3.822c.95.564 10.033 10.85 9.335 18.778Zm15.387-67.884h-8.86a.65.65 0 1 0 0 1.301h8.86a.65.65 0 0 0 0-1.3v-.001Zm0 12.128h-8.86a.65.65 0 1 0 0 1.301h8.86a.65.65 0 0 0 0-1.3v-.001Zm0 12.13h-8.86a.65.65 0 0 0 0 1.3h8.86a.65.65 0 0 0 0-1.3Zm0 12.128h-8.86a.65.65 0 0 0 0 1.3h8.86a.65.65 0 0 0 0-1.3Zm0 12.127h-8.86a.65.65 0 0 0 0 1.3h8.86a.65.65 0 0 0 0-1.3Zm0 12.129h-8.86a.65.65 0 0 0 0 1.3h8.86a.65.65 0 0 0 0-1.3ZM66.84 10.725a1.186 1.186 0 1 1-2.372 0 1.186 1.186 0 0 1 2.372 0Zm-1.186 13.301a1.186 1.186 0 1 0 0-2.372 1.186 1.186 0 0 0 0 2.372Zm1.186 10.929a1.186 1.186 0 1 1-2.372 0 1.186 1.186 0 0 1 2.372 0Zm-1.186 13.301a1.186 1.186 0 1 0 0-2.372 1.186 1.186 0 0 0 0 2.372Zm1.186 10.929a1.186 1.186 0 1 1-2.372 0 1.186 1.186 0 0 1 2.372 0Zm-1.186 13.301a1.186 1.186 0 1 0 0-2.372 1.186 1.186 0 0 0 0 2.372ZM53.55 11.308h-8.86a.65.65 0 0 1 0-1.3h8.86a.65.65 0 0 1 0 1.3Zm0 12.128h-8.86a.65.65 0 0 1 0-1.3h8.86a.65.65 0 0 1 0 1.3ZM41.21 11.911a1.186 1.186 0 1 0 0-2.372 1.186 1.186 0 0 0 0 2.372Zm1.186 10.929a1.186 1.186 0 1 1-2.372 0 1.186 1.186 0 0 1 2.372 0Z"/>.
</svg>
