<svg id="icon-products-private-branch-exchange" viewBox="0 0 96 96" xmlns="http://www.w3.org/2000/svg">
  <path fill-rule="evenodd" d="M84.273 49.639a15.194 15.194 0 0 1 4.925 3.375v.001a15.293 15.293 0 0 1-10.923 25.987h-3.982a.65.65 0 1 1 0-1.3h3.976a13.99 13.99 0 0 0 .153-27.98h-.304c-1.32.002-2.633.19-3.9.559a.65.65 0 0 1-.833-.606 23.208 23.208 0 0 0-.25-2.773 15.058 15.058 0 0 1-5.48 1.109 3.871 3.871 0 0 1-3.843 3.505h-1.43a3.879 3.879 0 1 1-.002-7.758h1.431a3.877 3.877 0 0 1 3.756 2.956 13.739 13.739 0 0 0 5.336-1.107 23.123 23.123 0 0 0-23.229-18.353c-1.1.033-2.197.143-3.283.33v7.217a2.162 2.162 0 0 1-2.158 2.16 5.871 5.871 0 0 1-5.864-5.865v-.54a22.975 22.975 0 0 0-9.783 12.013.653.653 0 0 1-.817.398 17.662 17.662 0 0 0-10.865-.107c1.233 3.188 2.84 6.316 4.85 8.25l4.28-1.675a28.117 28.117 0 0 1 6.041 9.496l-7.046 6.745a55.176 55.176 0 0 1-14.54-19.259 17.69 17.69 0 0 0-5.25 7.831.605.605 0 0 1-.05.088c-.37 1.027-3.409 9.94.694 15.813.317.451.669.875 1.054 1.269a3.472 3.472 0 0 1 2.93-1.62h58.491a3.466 3.466 0 0 1 3.473 3.345l.344 9.026v6.086a3.477 3.477 0 0 1-3.477 3.48H9.868a3.478 3.478 0 0 1-3.48-3.48V73.278a3.45 3.45 0 0 1 .057-.562 11.516 11.516 0 0 1-1.63-1.827c-4.732-6.781-.96-16.713-.798-17.133l.018.007a18.971 18.971 0 0 1 5.893-8.576c-.017-.04-.035-.08-.054-.118-.017-.037-.035-.074-.05-.111 0 0-5.748-14.004-.733-26.476l8.776.352s1.656 3.344 1.706 11.032l-5.82 1.747a69.81 69.81 0 0 0 2.696 10.025 18.937 18.937 0 0 1 11.131-.093 24.224 24.224 0 0 1 10.79-12.486 5.867 5.867 0 0 1 5.425-5.816v-.61a18.4 18.4 0 0 1 5.538-13.054 18.52 18.52 0 0 1 31.503 13.047v.61a5.994 5.994 0 0 1 5.678 5.975v1.756a5.998 5.998 0 0 1-5.963 5.989 12.635 12.635 0 0 1-6.19 9.356c.14.832.235 1.67.287 2.512 1.137-.266 2.3-.401 3.468-.403h.312c2.01.015 3.997.43 5.846 1.218ZM8.328 71.736a2.18 2.18 0 0 0-.639 1.54v14.978a2.177 2.177 0 0 0 2.176 2.179h58.834a2.176 2.176 0 0 0 2.177-2.175v-6.066l-.343-9a2.17 2.17 0 0 0-2.175-2.094H9.867a2.18 2.18 0 0 0-1.54.638Zm54.053-21.22h1.431l.001-.001a2.88 2.88 0 0 0 0-5.758H62.38a2.881 2.881 0 0 0-2.877 2.876h-.5l.5.003a2.877 2.877 0 0 0 2.877 2.88Zm21.67-24.832a4.998 4.998 0 0 0-3.525-1.464 1.29 1.29 0 0 0-1.29 1.287v9.165a1.287 1.287 0 0 0 1.287 1.285h.001a4.998 4.998 0 0 0 4.991-4.99V29.21a4.998 4.998 0 0 0-1.464-3.526ZM45.052 35.62a1.16 1.16 0 0 0 .34-.82v-9.42a1.16 1.16 0 0 0-1.159-1.16 4.87 4.87 0 0 0-4.864 4.865v2.01a4.87 4.87 0 0 0 4.864 4.865c.308 0 .602-.123.82-.34Zm1.34-9.35a24.891 24.891 0 0 1 3.246-.315 24.418 24.418 0 0 1 24.46 19.017 11.43 11.43 0 0 0 5.2-8.377 2.282 2.282 0 0 1-1.063-1.923v-9.164a2.288 2.288 0 0 1 1.301-2.054v-.822a17.3 17.3 0 0 0-17.07-17.065l-.154-.001a17.22 17.22 0 0 0-17.217 17.072v.765a2.16 2.16 0 0 1 1.296 1.977v.89ZM16.088 81.506a2.036 2.036 0 1 1-4.072 0 2.036 2.036 0 0 1 4.072 0Zm4.246 2.036a2.036 2.036 0 1 0 0-4.072 2.036 2.036 0 0 0 0 4.072Zm8.318-2.036a2.036 2.036 0 1 1-4.072 0 2.036 2.036 0 0 1 4.072 0Z"/>
</svg>
