<svg id="icon-devices-server" viewBox="0 0 96 96" xmlns="http://www.w3.org/2000/svg">
  <path fill-rule="evenodd" d="M88.044 66.762a4.243 4.243 0 0 1 1.298 2.908l.44 11.512v7.757a4.266 4.266 0 0 1-4.257 4.26h-75.05a4.265 4.265 0 0 1-4.26-4.26V69.833a4.266 4.266 0 0 1 4.26-4.258H85.09a4.242 4.242 0 0 1 2.955 1.187Zm-.43 24.268a2.962 2.962 0 0 0 .868-2.09v-7.734l-.44-11.486a2.946 2.946 0 0 0-2.953-2.844H10.477a2.962 2.962 0 0 0-2.96 2.957V88.94a2.962 2.962 0 0 0 2.958 2.96h75.05a2.963 2.963 0 0 0 2.09-.869Zm.43-56.322a4.243 4.243 0 0 1 1.298 2.908l.44 11.51v7.758a4.265 4.265 0 0 1-4.257 4.26h-75.05a4.265 4.265 0 0 1-4.26-4.259V37.777a4.263 4.263 0 0 1 4.259-4.256h74.615a4.242 4.242 0 0 1 2.955 1.187Zm-.429 24.268a2.96 2.96 0 0 0 .867-2.09v-7.737l-.438-11.484a2.946 2.946 0 0 0-2.954-2.844H10.474a2.957 2.957 0 0 0-2.957 2.954v19.11a2.962 2.962 0 0 0 2.958 2.958h75.05a2.96 2.96 0 0 0 2.09-.867Zm-2.09-28.552h-75.05a4.263 4.263 0 0 1-4.26-4.258V7.06a4.265 4.265 0 0 1 4.26-4.259H85.09a4.243 4.243 0 0 1 4.252 4.097l.44 11.51v7.76a4.263 4.263 0 0 1-4.257 4.257ZM8.385 4.968a2.961 2.961 0 0 0-.868 2.091v19.108a2.96 2.96 0 0 0 2.956 2.956h75.052a2.959 2.959 0 0 0 2.957-2.955v-7.736l-.44-11.487a2.947 2.947 0 0 0-2.953-2.843H10.477c-.785 0-1.537.312-2.092.866Zm8.873 13.414a2.598 2.598 0 1 1-2.886-4.32 2.598 2.598 0 0 1 2.886 4.32Zm8.015 0c-.427.285-.93.438-1.443.438h-.001a2.598 2.598 0 1 1 1.444-.438Zm8.013 0a2.598 2.598 0 1 1-2.886-4.32 2.598 2.598 0 0 1 2.886 4.32ZM14.372 46.116a2.598 2.598 0 1 1 2.888 4.32 2.598 2.598 0 0 1-2.888-4.32Zm8.014 0a2.598 2.598 0 1 1 2.887 4.32 2.598 2.598 0 0 1-2.887-4.32Zm8.014 0a2.598 2.598 0 1 1 2.888 4.32 2.598 2.598 0 0 1-2.888-4.32Zm-16.028 30.72a2.599 2.599 0 1 1 2.888 4.321 2.599 2.599 0 0 1-2.888-4.32Zm8.014 0a2.598 2.598 0 1 1 2.887 4.32 2.598 2.598 0 0 1-2.887-4.32Zm8.014 0a2.599 2.599 0 1 1 2.888 4.321 2.599 2.599 0 0 1-2.888-4.32Z"/>
</svg>
