<svg id="icon-platform-edge-compute" viewBox="0 0 96 96" xmlns="http://www.w3.org/2000/svg">
  <path fill-rule="evenodd" d="M93.425 18.474c0-.029.003-.058.006-.086.003-.037.006-.073.006-.11 0-6.691-12.764-11.933-29.058-11.933-16.27 0-29.018 5.227-29.056 11.904h-.02l.116 16.46a27.48 27.48 0 1 0 20.085 36.953c2.604.305 5.224.46 7.846.463h.22c16.317 0 28.637-5.04 29.297-12.032l.683-41.617-.125-.002ZM64.379 7.645c15.046 0 27.758 4.87 27.758 10.633 0 5.763-12.712 10.633-27.758 10.633s-27.757-4.87-27.757-10.633c0-5.763 12.711-10.633 27.757-10.633ZM29.93 87.813a26.18 26.18 0 0 1-11.69-49.61 26.178 26.178 0 0 1 22.614-.349c.917.574 1.87 1.087 2.855 1.536A26.17 26.17 0 0 1 29.93 87.813Zm6.784-53.828c.3.463.639.9 1.012 1.305-.333-.1-.668-.194-1.005-.282l-.007-1.023ZM91.57 60.021c-.583 6.159-12.62 10.804-28.002 10.804a70.83 70.83 0 0 1-7.605-.42 27.39 27.39 0 0 0 1.105-13.071c2.343.245 4.698.37 7.054.372 13.487.038 24.22-3.564 27.63-8.872l-.182 11.187Zm.235-14.397-.234-.021C91 51.76 79.254 56.406 64.243 56.406a65.096 65.096 0 0 1-7.419-.404 27.483 27.483 0 0 0-8.729-14.958 56.05 56.05 0 0 0 16.155 2.229c13.023 0 24.017-3.74 27.74-8.974l-.185 11.325Zm.243-14.852h-.015c-.524 6.176-12.987 11.2-27.783 11.2-7.729 0-14.814-1.418-19.837-3.674a27.39 27.39 0 0 0-3.056-1.642c-2.65-1.714-4.274-3.734-4.458-5.896l-.208.018-.063-8.888c3.645 4.873 14.536 8.32 27.751 8.32 13.297 0 24.24-3.49 27.816-8.41l-.147 8.972ZM37.406 53.508H22.234a.65.65 0 0 0-.65.65v13.8a.65.65 0 0 0 .65.65h15.172a.65.65 0 0 0 .65-.65v-13.8a.65.65 0 0 0-.65-.65Zm-.65 13.8H22.884v-12.5h13.872v12.5Zm11.865-9.83a.65.65 0 0 1-.46.19l-5.28.002v2.837h5.28a.65.65 0 0 1 0 1.3h-5.28v2.838h5.28a.65.65 0 0 1 0 1.3h-5.28v2.837h5.28a.65.65 0 0 1 0 1.3h-5.28v2.268a.65.65 0 0 1-.65.65h-3.576v5.296a.65.65 0 1 1-1.3 0V73h-2.838v5.296a.65.65 0 1 1-1.3 0V73H30.38v5.296a.65.65 0 0 1-1.3 0V73h-2.838v5.296a.65.65 0 0 1-1.3 0V73h-2.838v5.295a.65.65 0 0 1-1.3 0v-5.296h-3.4a.65.65 0 0 1-.65-.65V70.08h-5.14a.65.65 0 1 1 0-1.3h5.14v-2.837h-5.14a.651.651 0 0 1-.46-1.11.653.653 0 0 1 .46-.19h5.14v-2.838h-5.14a.65.65 0 1 1 0-1.3h5.14v-2.838h-5.14a.651.651 0 0 1-.46-1.11.653.653 0 0 1 .46-.19h5.14V53.53h-5.14a.65.65 0 1 1 0-1.3h5.14v-2.467a.65.65 0 0 1 .65-.65h3.399v-5.096a.65.65 0 1 1 1.3 0v5.096h2.839v-5.096a.65.65 0 1 1 1.3 0v5.096h2.838v-5.096a.65.65 0 1 1 1.3 0v5.096h2.838v-5.096a.65.65 0 0 1 1.3 0v5.096h2.838v-5.096a.65.65 0 1 1 1.3 0v5.096h3.576a.65.65 0 0 1 .65.65v2.467h5.28a.65.65 0 0 1 0 1.3h-5.28v2.839h5.28a.65.65 0 0 1 .46 1.11ZM18.056 71.7h23.527V50.414h-3.227a.584.584 0 0 1-.7 0h-3.438a.584.584 0 0 1-.7 0H30.08a.583.583 0 0 1-.7 0h-3.438a.583.583 0 0 1-.7 0h-3.438a.583.583 0 0 1-.7 0h-3.05v2.184a.598.598 0 0 1 0 .566v3.572a.598.598 0 0 1 0 .566v3.572a.598.598 0 0 1 0 .566v3.572a.597.597 0 0 1 0 .567v3.57a.598.598 0 0 1 0 .566V71.7Z"/>
</svg>
