<svg id="icon-business-time" viewBox="0 0 96 96" xmlns="http://www.w3.org/2000/svg">
  <path fill-rule="evenodd" d="M22.692 10.123A45.554 45.554 0 0 1 48 2.446 45.605 45.605 0 0 1 93.553 48a45.554 45.554 0 1 1-70.861-37.877Zm46.711 76.593A44.574 44.574 0 0 0 84.951 72.31l-3.378-1.994.66-1.12 3.42 2.02a43.975 43.975 0 0 0 6.59-22.78h-3.82v-1.301h3.808a43.955 43.955 0 0 0-6.094-21.546l-3.295 1.984-.676-1.112 3.293-1.982A44.571 44.571 0 0 0 69.424 9.296l-1.673 3.033-1.143-.62 1.668-3.024A43.953 43.953 0 0 0 48.65 3.763v3.695h-1.3V3.763A43.964 43.964 0 0 0 27.13 8.99l1.57 2.728-1.128.649-1.575-2.738a44.575 44.575 0 0 0-15.555 15.005l2.645 1.551-.66 1.119-2.655-1.556a43.954 43.954 0 0 0-6.004 21.387h3.15v1.3h-3.16A43.96 43.96 0 0 0 9.69 70.106l2.74-1.59.652 1.125-2.728 1.584a44.579 44.579 0 0 0 15.683 15.168l1.54-2.707 1.131.641-1.537 2.703a43.964 43.964 0 0 0 20.18 5.205v-3.32h1.3v3.321a43.952 43.952 0 0 0 19.604-4.911l-1.76-3.117 1.132-.638 1.777 3.146ZM50.47 45.78a3.18 3.18 0 0 1 .712 2.006c0 .824-.321 1.615-.896 2.206l8.537 15.678-1.142.622-8.475-15.566a3.178 3.178 0 1 1-1.855-6.052V13.06h1.3v31.613a3.18 3.18 0 0 1 1.819 1.107Z"/>
</svg>
