<svg id="icon-products-satellite" viewBox="0 0 96 96" xmlns="http://www.w3.org/2000/svg">
  <path fill-rule="evenodd" d="M93.4 79.147 68.129 53.875a.65.65 0 0 0-.92 0l-5.93 5.93-5.694-5.695 18.85-18.85a.65.65 0 0 0 0-.92l-12.78-12.78a.672.672 0 0 0-.92 0l-18.85 18.85-5.693-5.694 5.93-5.93a.65.65 0 0 0 0-.92L16.848 2.593a.672.672 0 0 0-.92 0L3.15 15.373a.65.65 0 0 0 0 .92l25.273 25.273a.65.65 0 0 0 .919 0l5.93-5.93 5.694 5.694-11.128 11.129a.651.651 0 0 0 0 .92l6.178 6.179-3.698 3.698a.65.65 0 1 0 .919.92l3.699-3.7 5.68 5.682a.65.65 0 0 0 .92 0L54.665 55.03l5.694 5.696-5.93 5.93a.651.651 0 0 0 0 .92L79.7 92.849a.65.65 0 0 0 .92 0l12.78-12.78a.65.65 0 0 0 0-.92v-.002Zm-64.52-38.96L4.53 15.833l11.86-11.861 24.354 24.354L28.88 40.187ZM43.078 64.78l-11.86-11.86 29.979-29.98 11.86 11.86-29.98 29.98Zm37.086 26.69L55.808 67.114l11.86-11.86 24.354 24.353-11.86 11.863Zm-51.76-25.826a2.443 2.443 0 1 0 0 4.886 2.443 2.443 0 0 0 0-4.886ZM26.16 78.957a.65.65 0 1 0-.008-1.3h-.216a7.7 7.7 0 0 1-7.597-7.804.649.649 0 0 0-.641-.659h-.01a.65.65 0 0 0-.65.642 9.002 9.002 0 0 0 8.88 9.121h.242ZM10.982 68.413a.65.65 0 0 0-.64-.66h-.01a.65.65 0 0 0-.65.643A17.683 17.683 0 0 0 27.13 86.313h.471a.65.65 0 0 0-.009-1.3h-.445a16.384 16.384 0 0 1-16.164-16.6Zm16.581 23.873c.215.004.431.004.647 0v.001a.642.642 0 0 1 .658.64.65.65 0 0 1-.64.66l-.343.002-.34-.002A25.51 25.51 0 0 1 2.41 67.769a.68.68 0 0 1 .66-.643.65.65 0 0 1 .641.66 24.206 24.206 0 0 0 23.852 24.5Z"/>
</svg>
