<svg id="icon-business-lower-costs-euro" viewBox="0 0 96 96" xmlns="http://www.w3.org/2000/svg">
  <path fill-rule="evenodd" d="M58.87 66.368h13.042a1.893 1.893 0 0 1 1.892 1.89v23.406a1.893 1.893 0 0 1-1.892 1.89H58.87a1.893 1.893 0 0 1-1.892-1.891V68.259a1.893 1.893 0 0 1 1.892-1.891Zm13.46 25.713c.11-.111.172-.261.172-.418V68.258a.591.591 0 0 0-.59-.591H58.87a.591.591 0 0 0-.59.591v23.406a.59.59 0 0 0 .59.59h13.042a.591.591 0 0 0 .417-.174ZM35.547 49.38H48.59a1.893 1.893 0 0 1 1.891 1.89v40.394a1.893 1.893 0 0 1-1.891 1.89H35.548a1.893 1.893 0 0 1-1.892-1.891V51.271a1.893 1.893 0 0 1 1.892-1.891Zm13.46 42.7c.11-.11.172-.26.172-.417V51.27a.591.591 0 0 0-.59-.59H35.547a.59.59 0 0 0-.59.59v40.394a.59.59 0 0 0 .591.59H48.59a.591.591 0 0 0 .417-.174Zm-36.78-59.689h13.04a1.893 1.893 0 0 1 1.892 1.89v57.383a1.893 1.893 0 0 1-1.892 1.89H12.227a1.894 1.894 0 0 1-1.892-1.891V34.282a1.894 1.894 0 0 1 1.893-1.891Zm13.458 59.69c.11-.111.173-.261.173-.418l-.001-57.382a.591.591 0 0 0-.591-.591H12.226a.591.591 0 0 0-.591.591v57.383a.592.592 0 0 0 .591.59h13.043a.591.591 0 0 0 .417-.174ZM15.953 4.546c2.05-1.37 4.46-2.1 6.924-2.1a12.476 12.476 0 0 1 12.462 12.462A12.462 12.462 0 1 1 15.953 4.546Zm.556 19.892a11.462 11.462 0 0 0 6.368 1.932 11.475 11.475 0 0 0 11.462-11.462 11.463 11.463 0 1 0-17.83 9.53Zm68.024 31.825a.65.65 0 0 1 .248.427l.882 7.174-.001.013-.001.009a.583.583 0 0 1-.142.464l-.014.016a.642.642 0 0 1-.138.12c-.016.01-.031.02-.048.029a.646.646 0 0 1-.215.072l-.007.003h-.003l-.009.001-5.994.62a.65.65 0 1 1-.133-1.294l4.371-.451-45.438-34.968a.65.65 0 1 1 .793-1.031L84.182 62.48l-.691-5.63a.65.65 0 0 1 1.042-.587ZM20.605 19.095c.485.376 1.08.582 1.694.587a3.015 3.015 0 0 0 2.506-1.573l1.442 1.067a4.574 4.574 0 0 1-3.964 2.309 4.848 4.848 0 0 1-4.767-3.881h-1.49v-1.408h1.261c-.016-.197-.016-.412-.016-.621a5.588 5.588 0 0 1 .034-.753h-1.28v-1.393h1.54a4.848 4.848 0 0 1 4.653-3.8 4.506 4.506 0 0 1 3.998 2.161l-1.524 1.126a2.924 2.924 0 0 0-2.523-1.49 2.723 2.723 0 0 0-2.52 2h3.52v1.392h-3.833c-.028.239-.04.48-.034.72 0 .23 0 .442.016.657h3.848v1.407h-3.555c.16.593.508 1.118.994 1.493Z"/>
</svg>
