<svg id="icon-products-router" viewBox="0 0 96 96" xmlns="http://www.w3.org/2000/svg">
  <path fill-rule="evenodd" d="M2.45 46.756C2.45 22.116 22.884 2.069 48 2.069v.001c25.117 0 45.55 20.045 45.55 44.685S73.117 91.442 48 91.442c-25.117 0-45.55-20.046-45.55-44.686Zm1.3 0C3.75 70.678 23.6 90.141 48 90.141s44.25-19.464 44.25-43.386C92.25 22.833 72.4 3.37 48 3.37S3.75 22.834 3.75 46.756Zm62.963-3.982V34.52l13.524 12.41-13.523 12.4-.008-8.26H52.236v14.487h8.236l-12.4 13.526-12.4-13.526h8.267V51.079H29.463v8.253l-13.525-12.4 13.524-12.41v8.264h14.479V28.297h-8.253l12.4-13.525 12.398 13.524h-8.252v14.478h14.479Zm-14.985 7.295h15.977l.005 6.988L78.76 46.93 67.713 36.796v6.978l-16.468.011-.011-.5V27.296h6.98L48.089 16.253 37.962 27.297h6.978v16.478l-.5.01H28.463v-6.989L17.415 46.93l11.046 10.13v-6.98h15.979v.49h.5v15.987h-6.995l10.127 11.045L58.2 66.557h-6.963l-.01-16.478.5-.01Z"/>
</svg>
