<svg id="icon-business-single-provider" viewBox="0 0 96 96" xmlns="http://www.w3.org/2000/svg">
  <path fill-rule="evenodd" d="M67.645 37.42v-1.167a1.075 1.075 0 0 1-.565-.935 1.088 1.088 0 0 1 2.175 0 1.072 1.072 0 0 1-.524.907v1.195a.3.3 0 0 1-.3.3h-.486a.3.3 0 0 1-.3-.3Zm-51.337 1.35a3.174 3.174 0 0 1-3.166-2.936 3.179 3.179 0 0 1 2.29-3.295 8.012 8.012 0 0 1 15.258-4.872c.002.005.006.008.01.01.003.004.007.007.009.012.002.005.001.01 0 .014s-.002.008-.001.012c.011.032.023.063.036.094.016.042.032.083.046.126a8.006 8.006 0 0 1-3.377 9.229 2.584 2.584 0 0 1-2.388 1.606h-8.717Zm11.294-2.536a.296.296 0 0 0-.004.045 7.391 7.391 0 0 0 2.835-4.478l-3.214 1.133c.06.666.076 1.334.05 2.002.219.381.335.813.338 1.252 0 .016-.002.031-.005.046Zm-.44-3.917 3.346-1.179v-.001a7.385 7.385 0 0 0-.276-2.96l-3.687 1.312c.294.921.5 1.868.618 2.828Zm-.582.205c-.108-.961-.31-1.91-.602-2.831l-3.068 1.092a3.793 3.793 0 0 1 1.67 2.444l2-.705Zm-6-2.42c.552-.009 1.1.093 1.613.3l3.599-1.281a17.303 17.303 0 0 0-1.136-2.665l-4.734 1.668c.083.675.206 1.345.37 2.005l.095-.01c.064-.008.128-.016.193-.017Zm6.09 4.113c0-.36-.01-.718-.035-1.076l-1.385.488c.523.045 1.019.25 1.42.588Zm-.313-5.295 3.673-1.307a7.359 7.359 0 0 0-1.625-2.478l-3.174 1.118c.447.857.823 1.75 1.126 2.667Zm1.544-4.244a7.377 7.377 0 0 0-5.408-1.693 7.532 7.532 0 0 1 2.435 2.74l2.973-1.047Zm-6.295-1.418a1.355 1.355 0 0 0-.536.022v-.001c-.954.297-1.383 1.987-1.21 4.23l4.49-1.582a6.643 6.643 0 0 0-2.241-2.482 1.354 1.354 0 0 0-.503-.187Zm-2.335 4.459a7.594 7.594 0 0 1 .488-3.939 7.434 7.434 0 0 0-3.884 5.136l3.396-1.197Zm.067.613-3.566 1.256a7.371 7.371 0 0 0 .252 2.844c.105-.009.211-.012.317-.01l.889-.313a3.947 3.947 0 0 1 2.47-1.875 17.75 17.75 0 0 1-.362-1.902Zm-4.984 5.582a2.57 2.57 0 0 0-.492.878h-.001a2.579 2.579 0 0 0 2.447 3.38h8.717a1.982 1.982 0 1 0 0-3.964.182.182 0 0 1-.033-.003c-.176.003-.351.03-.52.08a.303.303 0 0 1-.349-.148.297.297 0 0 1-.034-.131 3.4 3.4 0 0 0-6.384-1.53l-.008.016c-.08.15-.15.306-.207.467a.304.304 0 0 1-.376.184 2.573 2.573 0 0 0-2.76.77ZM35.229 18.1a5.516 5.516 0 0 1-3.054.926 5.505 5.505 0 1 1 .892-10.94l-.021-2.992h.004c.005-1.417 2.503-2.486 5.815-2.486 3.315 0 5.815 1.071 5.815 2.491l-.002.02-.002.02h.028l-.04 2.423h.003l-.003.018-.093 5.64c-.14 1.463-2.606 2.507-5.863 2.507h-.045c-.47-.006-.938-.036-1.404-.09a5.516 5.516 0 0 1-2.03 2.463Zm3.478-2.973c3.179 0 5.173-.987 5.266-1.941L44 11.495c-.91.869-2.821 1.434-5.16 1.434h-.025c-.39 0-.782-.034-1.175-.068a5.308 5.308 0 0 1-.181 2.201c.413.036.827.059 1.247.066Zm5.308-4.706.003-.027.029-1.734a8.182 8.182 0 0 1-5.2 1.466 11.603 11.603 0 0 1-2.58-.285 5.492 5.492 0 0 1 1.268 2.42c.433.052.869.075 1.305.068 3.1 0 5.086-.956 5.175-1.908Zm-5.167-.894c3.007 0 5.116-1.033 5.217-2.003l.02-1.298c-.927.822-2.865 1.364-5.22 1.364-2.346 0-4.28-.537-5.212-1.354l.01 1.276.003.023c.03.359.374.7.892 1.022.12.057.238.12.354.185a9.042 9.042 0 0 0 3.936.785ZM44.08 5.1c0-.894-2.142-1.892-5.215-1.892v.002c-3.075 0-5.216.995-5.216 1.89 0 .895 2.143 1.892 5.216 1.892 3.073 0 5.215-.998 5.215-1.892Zm-9.177 4.335a4.91 4.91 0 1 0-5.454 8.165 4.91 4.91 0 0 0 5.454-8.165ZM81.71 43.824c.087.026.173.054.258.085h-.001a4.642 4.642 0 0 1 2.764 5.946l-3.99 10.618v.003a12.362 12.362 0 0 1-6.11 6.709l-32.918 16.36a9.915 9.915 0 0 0-5.413 9.172.649.649 0 0 1-.65.674H11.636a.649.649 0 0 1-.624-.834l3.852-13.1c.93-3.164 2.006-6.284 3.223-9.35l1.977-4.972a17.503 17.503 0 0 1 11.308-10.27l16.24-4.91a4.75 4.75 0 0 1 5.583 2.301 4.518 4.518 0 0 1-2.302 6.233l-8.175 3.514a2.33 2.33 0 0 0-.751 3.836 2.65 2.65 0 0 0 2.737.514l20.89-7.575a11.89 11.89 0 0 0 6.343-5.655l3.995-6.958a4.974 4.974 0 0 1 5.778-2.341Zm-2.184 16.19 3.988-10.61h-.001a3.34 3.34 0 0 0-2.176-4.335 3.69 3.69 0 0 0-4.276 1.738l-3.984 6.939a13.17 13.17 0 0 1-7.03 6.251L45.16 67.571a3.969 3.969 0 0 1-4.086-.787 3.629 3.629 0 0 1 1.142-5.979l8.173-3.514a3.22 3.22 0 0 0 1.653-4.433 3.44 3.44 0 0 0-4.05-1.66l-16.248 4.911a16.21 16.21 0 0 0-10.474 9.51l-1.975 4.968a106.58 106.58 0 0 0-3.184 9.238L12.504 92.09h22.493a11.224 11.224 0 0 1 6.135-9.707L74.056 66.02a11.066 11.066 0 0 0 5.47-6.006ZM54.375 19.082a3.156 3.156 0 0 1-2.436-1.153 3.13 3.13 0 0 1 .793-4.651 4.39 4.39 0 0 1 5.338-5.405 5.6 5.6 0 0 1 4.985-3.427 5.565 5.565 0 0 1 5.693 5.044 3.548 3.548 0 1 1 .629 7.04H65.53a2.556 2.556 0 0 1-2.553 2.552h-1.484v1.894a.3.3 0 1 1-.6 0v-1.894h-.58v4.122a1.036 1.036 0 0 1 .442 1.729 1.048 1.048 0 0 1-1.79-.741 1.037 1.037 0 0 1 .749-.988v-4.122h-.547v.986a.3.3 0 0 1-.3.3h-1.583v3.824a.3.3 0 1 1-.6 0v-4.124a.3.3 0 0 1 .3-.3h1.583v-.686h-2.426v2.852a.3.3 0 1 1-.6 0v-2.852h-1.167Zm6.013 5.36a.45.45 0 1 0-.747-.501.45.45 0 0 0 .747.5ZM54.09 9.657a3.776 3.776 0 0 0-.807 3.346 3.099 3.099 0 0 1 1.799-.124 3.951 3.951 0 0 1 7.54 1.12 2.54 2.54 0 0 1 .355-.024h.002a2.533 2.533 0 0 1 2.472 1.953h3.925a2.948 2.948 0 0 0-.005-5.896h-.005c-.276 0-.55.04-.814.116a.3.3 0 0 1-.382-.28 4.965 4.965 0 0 0-5.1-4.825 4.994 4.994 0 0 0-4.537 3.294.304.304 0 0 1-.376.185 3.8 3.8 0 0 0-4.067 1.135Zm-1.645 4.621a2.537 2.537 0 0 0-.585 2.05 2.541 2.541 0 0 0 2.514 2.152h8.603a1.953 1.953 0 0 0 0-3.906v.001c-.184 0-.368.026-.545.078a.304.304 0 0 1-.35-.149.299.299 0 0 1-.034-.131A3.326 3.326 0 0 0 61 12.034a3.38 3.38 0 0 0-2.397-.914 3.33 3.33 0 0 0-3.06 2.221.303.303 0 0 1-.376.185 2.535 2.535 0 0 0-2.722.753ZM38.068 27.547v-.088a6.296 6.296 0 0 1 12.592 0v.084a2.137 2.137 0 0 1 1.955 2.125v.588a2.141 2.141 0 0 1-2.074 2.136 4.34 4.34 0 0 1-4.265 3.678 1.431 1.431 0 0 1-1.411 1.21h-.48a1.434 1.434 0 0 1-1.432-1.433v-.002a1.434 1.434 0 0 1 1.432-1.432h.48a1.43 1.43 0 0 1 1.372 1.041 3.727 3.727 0 0 0 3.727-3.233.874.874 0 0 1-.128-.087.891.891 0 0 1-.262-.636v-3.074a.892.892 0 0 1 .486-.787v-.178a5.696 5.696 0 1 0-11.392 0v.156a.825.825 0 0 1 .486.778v3.154a.857.857 0 0 1-.856.857h-.003a2.101 2.101 0 0 1-2.098-2.1v-.68a2.095 2.095 0 0 1 1.87-2.077Zm.41 4.183a.26.26 0 0 0 .077-.182v-3.16a.257.257 0 0 0-.253-.264l-.002-.09h-.003v.09a1.502 1.502 0 0 0-1.5 1.5v.68a1.502 1.502 0 0 0 1.5 1.5.256.256 0 0 0 .182-.074Zm5.907 4.95h.48a.834.834 0 0 0 0-1.668h-.48a.834.834 0 0 0-.833.833v.002a.834.834 0 0 0 .833.833Zm5.877-8.468a.3.3 0 0 0-.088.21v3.077a.3.3 0 0 0 .298.3 1.545 1.545 0 0 0 1.543-1.543v-.588a1.545 1.545 0 0 0-1.541-1.544l-.001-.195v.195a.3.3 0 0 0-.21.088Zm-3.984 10.151a.277.277 0 0 1-.058.095 2.658 2.658 0 0 1-1.86.77 2.538 2.538 0 0 1-1.823-.768.3.3 0 0 1 .43-.42 1.973 1.973 0 0 0 2.787.036.328.328 0 0 1 .442-.018.277.277 0 0 1 .082.305Zm-5.515 1.02a.3.3 0 0 1 .515-.204 4.335 4.335 0 0 0 6.124.08l.08-.081a.3.3 0 1 1 .432.418l-.069.069a4.962 4.962 0 0 1-5.386 1.032 4.9 4.9 0 0 1-1.611-1.101.3.3 0 0 1-.085-.213Zm-1.429 1.066a.3.3 0 0 0-.005.424 7.057 7.057 0 0 0 9.968.133l.133-.132a.302.302 0 0 0-.005-.425.3.3 0 0 0-.425.005l-.122.123a6.458 6.458 0 0 1-9.12-.122.3.3 0 0 0-.424-.006Zm32.196-9.172v-1.96l-.017-.098a3.81 3.81 0 0 0-7.202 0l-.015 2.058h-.703a.3.3 0 0 0-.3.3v2.09a.296.296 0 0 0-.204-.084h-4.57a.3.3 0 1 0 0 .6h4.57c.077 0 .15-.03.204-.084v1.04a.283.283 0 0 0-.226-.12h-2.62a.3.3 0 0 0 0 .599h2.62a.285.285 0 0 0 .226-.122v1.058a.285.285 0 0 0-.154-.064h-6.566a.09.09 0 0 0-.046.017.132.132 0 0 1-.03.014 1.043 1.043 0 0 0-1.002-.788 1.057 1.057 0 0 0 0 2.113 1.044 1.044 0 0 0 1.002-.788.086.086 0 0 1 .02.008l.01.006c.015.009.03.017.046.017h6.566a.285.285 0 0 0 .154-.063v1.986H61.08v-1.147a.3.3 0 0 0-.3-.3h-2.742a.3.3 0 1 0 0 .6h2.443v1.147a.3.3 0 0 0 .3.3h2.512v.53a.3.3 0 0 0 .3.299h9.153a.3.3 0 0 0 .3-.3v-.715c.005 0 .009.002.012.004a.104.104 0 0 1 .01.006c.009.005.017.01.028.01h4.032a.3.3 0 0 0 0-.599h-4.032c-.01 0-.02.005-.029.01a.07.07 0 0 1-.02.011v-2.5l.003.002h2.082v1.401a.3.3 0 0 0 .3.3h3.743a.3.3 0 1 0 0-.6h-3.443V36.07a.3.3 0 0 0-.3-.3H73.05l-.005.002v-.44h5.212a.97.97 0 0 0 .918.678.978.978 0 1 0 0-1.957.97.97 0 0 0-.918.679h-5.212v-.802h3.882a.3.3 0 1 0 0-.6h-3.882v-1.753a.3.3 0 0 0-.3-.3H71.53Zm-16.035 5.97a.457.457 0 1 1 0-.914.457.457 0 0 1 0 .914Zm9.4-7.877a3.213 3.213 0 0 1 6.035 0v1.907h-6.036l.001-1.907Zm7.55 10.471h-8.553v-7.965h8.554v7.965Zm6.73-5.188a.38.38 0 1 1-.002.761.38.38 0 0 1 .002-.762v.001ZM29.445 15.6a.3.3 0 0 0 .3.3h.485v.853a.3.3 0 0 0 .6 0V15.9h.204v.853a.3.3 0 0 0 .6 0V15.9h.204v.853a.3.3 0 0 0 .6 0V15.9h.203v.853a.3.3 0 0 0 .6 0V15.9h.203v.853a.3.3 0 0 0 .6 0V15.9h.522a.3.3 0 0 0 .3-.3v-.266h.85a.3.3 0 1 0 0-.6h-.85v-.203h.85a.3.3 0 1 0 0-.6h-.85v-.204h.85a.3.3 0 1 0 0-.6h-.85v-.205h.85a.3.3 0 1 0 0-.6h-.85v-.202h.85a.3.3 0 1 0 0-.6h-.85v-.306a.3.3 0 0 0-.3-.3h-.522v-.816a.3.3 0 1 0-.6 0v.817h-.203v-.817a.3.3 0 1 0-.6 0v.817h-.203v-.817a.3.3 0 1 0-.6 0v.817h-.205v-.817a.3.3 0 1 0-.6 0v.817h-.203v-.817a.3.3 0 1 0-.6 0v.817h-.486a.3.3 0 0 0-.3.3v.305h-.824a.3.3 0 1 0 0 .6h.824v.203h-.824a.3.3 0 1 0 0 .6h.824v.204h-.824a.3.3 0 1 0 0 .6h.824v.204h-.824a.3.3 0 1 0 0 .6h.824v.203h-.824a.3.3 0 1 0 0 .6h.824v.266Zm.6-4.086h4.221V15.3h-4.222v-3.786Zm.637.253h2.944a.3.3 0 0 1 .3.299v2.68a.3.3 0 0 1-.3.3h-2.944a.3.3 0 0 1-.3-.3v-2.679a.3.3 0 0 1 .3-.3Zm.299 2.679h2.345v-2.08h-2.345v2.08Z"/>
</svg>
