<svg id="icon-business-lower-costs-yen" viewBox="0 0 96 96" xmlns="http://www.w3.org/2000/svg">
  <path fill-rule="evenodd" d="M58.852 66.337h13.02v-.001a1.891 1.891 0 0 1 1.89 1.89V91.59a1.89 1.89 0 0 1-1.89 1.889h-13.02a1.89 1.89 0 0 1-1.89-1.889V68.226a1.892 1.892 0 0 1 1.89-1.889Zm13.437 25.67a.59.59 0 0 0 .174-.416V68.226a.59.59 0 0 0-.59-.59h-13.02a.59.59 0 0 0-.59.59v23.365a.59.59 0 0 0 .59.589h13.02a.59.59 0 0 0 .416-.172Zm-36.72-42.63h13.02v-.001a1.891 1.891 0 0 1 1.89 1.89V91.59a1.891 1.891 0 0 1-1.89 1.889h-13.02a1.89 1.89 0 0 1-1.89-1.889V51.266a1.892 1.892 0 0 1 1.89-1.889Zm13.436 42.63a.59.59 0 0 0 .173-.416V51.266a.591.591 0 0 0-.59-.59h-13.02a.591.591 0 0 0-.59.59v40.325a.59.59 0 0 0 .59.589h13.02a.59.59 0 0 0 .417-.172ZM12.286 32.417h13.02v-.001a1.892 1.892 0 0 1 1.89 1.89V91.59a1.89 1.89 0 0 1-1.89 1.889h-13.02a1.89 1.89 0 0 1-1.89-1.889V34.305a1.892 1.892 0 0 1 1.89-1.889Zm13.437 59.592a.59.59 0 0 0 .174-.417V34.305a.59.59 0 0 0-.59-.59h-13.02a.59.59 0 0 0-.59.59v57.286a.59.59 0 0 0 .59.589h13.02a.59.59 0 0 0 .416-.172ZM16.006 4.617A12.442 12.442 0 0 1 22.92 2.52 12.456 12.456 0 0 1 35.36 14.962 12.442 12.442 0 1 1 16.006 4.617Zm.556 19.86a11.442 11.442 0 0 0 6.357 1.928A11.455 11.455 0 0 0 34.36 14.962a11.442 11.442 0 1 0-17.8 9.515Zm67.91 31.777a.65.65 0 0 1 .25.423l.879 7.162-.002.018a.585.585 0 0 1-.124.447l-.03.034a.64.64 0 0 1-.156.131c-.01.007-.02.014-.032.02a.643.643 0 0 1-.214.071l-.01.003h-.002l-.008.002-5.984.619a.643.643 0 0 1-.069.003.65.65 0 0 1-.066-1.298l4.364-.45-45.362-34.908a.65.65 0 1 1 .793-1.031L84.12 62.453l-.69-5.618a.65.65 0 0 1 1.042-.58ZM22.365 14.872l3.009-4.792h2.273l-3.795 5.675h2.617v1.455h-3.156v1.193h3.156v1.457h-3.156v1.669h-1.93V19.86h-3.156v-1.457h3.157V17.21h-3.157l.003-1.455h2.584L17.05 10.08h2.34l2.974 4.792Z"/>
</svg>
