<svg id="icon-places-hq-headquarters" viewBox="0 0 96 96" xmlns="http://www.w3.org/2000/svg">
  <path fill-rule="evenodd" d="M91.805 31.887H70.499v-19.91a.65.65 0 0 0-.65-.65h-8.807V3.096a.65.65 0 0 0-.65-.65H36.438a.65.65 0 0 0-.65.65v8.233H26.98a.65.65 0 0 0-.65.65v19.91H4.195a.65.65 0 0 0-.65.65v60.367a.65.65 0 0 0 .65.65h36.81l.007-.002h13.98l.008.002h36.805a.65.65 0 0 0 .65-.65V32.537a.65.65 0 0 0-.65-.65ZM26.33 92.255H4.846V33.187H26.33v59.068Zm10.758-88.51H59.74v7.583H37.09l-.002-7.583Zm17.61 87.95H42.89V74.106h11.808l-.001 17.589Zm14.5.558H56V73.456a.65.65 0 0 0-.65-.65H42.24a.651.651 0 0 0-.65.65v18.797H27.632V12.627h41.566v79.626Zm21.955.002H70.5V33.187h20.655l-.002 59.068ZM40.658 56.699H32.33a.65.65 0 0 0-.65.65v7.85a.65.65 0 0 0 .65.65h8.328a.65.65 0 0 0 .65-.65v-7.85a.65.65 0 0 0-.65-.65Zm-.65 7.85H32.98v-6.55h7.028v6.55Zm12.706-7.85h-8.718a.65.65 0 0 0-.65.65v7.85a.65.65 0 0 0 .65.65h8.718a.65.65 0 0 0 .65-.65v-7.85a.65.65 0 0 0-.65-.65Zm-.65 7.85h-7.418v-6.55h7.417v6.55Zm12.436-7.85h-8.72a.65.65 0 0 0-.65.65v7.85a.65.65 0 0 0 .65.65h8.72a.65.65 0 0 0 .65-.65v-7.85a.65.65 0 0 0-.65-.65Zm-.65 7.85h-7.418v-6.55h7.418v6.55Zm-23.19-26.14h-8.33a.65.65 0 0 0-.65.65v7.85a.65.65 0 0 0 .65.65h8.328a.65.65 0 0 0 .65-.65v-7.85a.65.65 0 0 0-.65-.65h.002Zm-.651 7.85h-7.03v-6.55h7.029v6.55Zm12.705-7.85h-8.718a.65.65 0 0 0-.65.65v7.85a.65.65 0 0 0 .65.65h8.718a.65.65 0 0 0 .65-.65v-7.85a.65.65 0 0 0-.65-.65Zm-.65 7.85h-7.418v-6.55h7.417v6.55Zm12.436-7.85h-8.72a.65.65 0 0 0-.65.65v7.85a.65.65 0 0 0 .65.65h8.72a.65.65 0 0 0 .65-.65v-7.85a.65.65 0 0 0-.65-.65Zm-.65 7.85h-7.418v-6.55h7.418v6.55ZM40.658 21.524H32.33a.65.65 0 0 0-.65.65v7.85a.65.65 0 0 0 .65.65h8.328a.65.65 0 0 0 .65-.65v-7.85a.65.65 0 0 0-.65-.65Zm-.65 7.85H32.98v-6.55h7.028v6.55Zm12.706-7.85h-8.718a.65.65 0 0 0-.65.65v7.85a.65.65 0 0 0 .65.65h8.718a.65.65 0 0 0 .65-.65v-7.85a.65.65 0 0 0-.65-.65Zm-.65 7.85h-7.418v-6.55h7.417v6.55Zm3.066-7.2v7.85a.648.648 0 0 0 .65.65h8.72a.65.65 0 0 0 .65-.65v-7.85a.65.65 0 0 0-.65-.65h-8.72a.65.65 0 0 0-.65.65Zm1.302.65h7.418v6.55h-7.418v-6.55Zm28.039 53.18h-8.172a.65.65 0 0 1-.65-.65V68.52a.65.65 0 0 1 .65-.65h8.172a.65.65 0 0 1 .65.65v6.834a.649.649 0 0 1-.65.65Zm-.651-6.834h-6.871v5.535h6.87V69.17Zm.65-7.37H76.3a.65.65 0 0 1-.65-.65v-6.836a.65.65 0 0 1 .65-.65h8.172a.65.65 0 0 1 .65.65v6.836a.65.65 0 0 1-.65.65Zm-.65-6.836h-6.871V60.5h6.87v-5.536Zm.65-8.53H76.3a.65.65 0 0 1-.65-.65v-6.836a.649.649 0 0 1 .65-.65h8.172a.65.65 0 0 1 .65.65v6.835a.65.65 0 0 1-.65.65Zm-.65-6.836h-6.871v5.535h6.87v-5.535ZM19.7 76.003h-8.17a.65.65 0 0 1-.65-.65v-6.835a.65.65 0 0 1 .65-.65h8.17a.65.65 0 0 1 .65.65v6.835a.65.65 0 0 1-.65.65Zm-.65-6.835h-6.87v5.535h6.87v-5.535Zm.65-7.37h-8.17a.65.65 0 0 1-.65-.65v-6.835a.65.65 0 0 1 .65-.65h8.17a.65.65 0 0 1 .65.65v6.834a.65.65 0 0 1-.65.65Zm-.65-6.835h-6.87v5.535h6.87v-5.535Zm.65-8.53h-8.17a.65.65 0 0 1-.65-.65v-6.835a.65.65 0 0 1 .65-.65h8.17a.65.65 0 0 1 .65.65v6.835a.65.65 0 0 1-.65.65Zm-.65-6.835h-6.87v5.535h6.87v-5.535Z"/>
</svg>
