<svg id="icon-products-network-solutions" viewBox="0 0 96 96" xmlns="http://www.w3.org/2000/svg">
  <path d="M91.842 38.067c-.003-.012 0-.025-.005-.038-.004-.01-.013-.018-.018-.03a29.789 29.789 0 0 0-51.427-8.517H25.64a5.7 5.7 0 1 0-.034 1.301h13.809a29.667 29.667 0 0 0-5.19 21.45.6.6 0 0 0-.081-.017l-7.444-.024.02-10.476a.647.647 0 0 0-.648-.652l-21.809-.067h-.002a.65.65 0 1 0-.002 1.3l21.16.066-.02 10.477a.65.65 0 0 0 .648.651l8.093.026h.002a.636.636 0 0 0 .284-.073 29.562 29.562 0 0 0 1.142 4.316c.003.012 0 .023.005.034.004.012.013.021.018.033.236.673.494 1.336.774 1.987h-22.58a5.702 5.702 0 1 0-.026 1.298l.015.003h23.192a29.95 29.95 0 0 0 5.325 7.57H25.016a.65.65 0 1 0 0 1.3h18.602a29.73 29.73 0 0 0 28.296 6.681 5.176 5.176 0 0 0 2.173-.706 29.8 29.8 0 0 0 17.755-37.893Zm-71.858-3.682a4.38 4.38 0 1 1 4.382-4.38 4.385 4.385 0 0 1-4.382 4.38ZM8.132 64.75a4.38 4.38 0 1 1 4.381-4.38 4.386 4.386 0 0 1-4.381 4.38Zm82.246-26.897L75.54 43.065a66.847 66.847 0 0 0-4.632-10.903l12.793-4.494a28.592 28.592 0 0 1 6.676 10.185h.001ZM74.71 44.734a66.22 66.22 0 0 1 2.51 11.701l-18.747 6.586a65.21 65.21 0 0 1-4.634-10.955l20.871-7.332Zm-21.26 6.09a65.778 65.778 0 0 1-2.43-11.675l18.605-6.536a64.644 64.644 0 0 1 4.69 10.882l-20.865 7.33Zm10.283-31.34a28.392 28.392 0 0 1 18.894 7.184l-12.36 4.342c-3.334-5.815-7.15-9.849-10.704-11.218a28.6 28.6 0 0 1 4.171-.308h-.001Zm-8.002 1.276c.41-.126.837-.19 1.266-.188 3.621 0 8.105 4.255 11.977 10.892l-18.083 6.352c-.768-8.952.93-15.849 4.84-17.056Zm-3.603 1.202c-2.335 3.236-3.223 9.133-2.54 16.312l-13.954 4.902A28.597 28.597 0 0 1 52.13 21.962h-.002ZM36.596 56.745a28.234 28.234 0 0 1-1.17-12.118l14.305-5.025a68.456 68.456 0 0 0 2.494 11.653l-15.629 5.49Zm.426 1.228 15.591-5.476a67.63 67.63 0 0 0 4.582 10.973l-13.54 4.756a28.59 28.59 0 0 1-6.633-10.253Zm26.712 18.543a28.399 28.399 0 0 1-19.013-7.287l13.106-4.603c3.313 5.882 7.121 10.007 10.684 11.482-1.578.27-3.176.406-4.777.408Zm9.768-1.724c-.605.22-1.222.415-1.845.595-3.741.306-8.492-4.15-12.541-11.214l18.245-6.41c.782 8.384-.573 15.032-3.86 17.03h.001Zm3.027-1.32c2.1-3.395 2.85-9.197 2.135-16.166L91.86 52.67a28.591 28.591 0 0 1-15.33 20.802h-.001Zm15.458-22.224-13.475 4.734a69.094 69.094 0 0 0-2.562-11.637l-.013-.04 14.876-5.227a28.248 28.248 0 0 1 1.248 12.16.58.58 0 0 0-.074.01Z"/>
</svg>
