<svg id="icon-products-load-balancer" viewBox="0 0 96 96" xmlns="http://www.w3.org/2000/svg">
  <path d="m82.065 76.004-5.146-5.146a.65.65 0 1 0-.92.92l4.105 4.104H61.032V60.098h11.392a.65.65 0 0 0 .65-.65V37.24a.65.65 0 0 0-.65-.65H48.577a.638.638 0 0 0 .07-.281V25.116a.65.65 0 0 0-.39-.594 11.045 11.045 0 1 0-.522 0 .65.65 0 0 0-.39.594V36.31a.638.638 0 0 0 .07.28H23.569a.651.651 0 0 0-.65.651v22.207a.65.65 0 0 0 .65.65h11.39v15.785H16.036l4.105-4.104a.65.65 0 0 0-.92-.92l-5.285 5.286a.65.65 0 0 0 0 .92l5.146 5.145a.65.65 0 0 0 .92-.92l-4.108-4.106h19.716a.65.65 0 0 0 .65-.65V60.097h11.087v31.167l-4.104-4.105a.65.65 0 0 0-.92.92l5.284 5.285a.653.653 0 0 0 .92 0l5.146-5.146a.65.65 0 0 0-.92-.92l-4.106 4.107V60.098H59.73v16.434a.65.65 0 0 0 .65.65h19.587l-4.107 4.106a.65.65 0 1 0 .92.92l5.284-5.284a.651.651 0 0 0 0-.92ZM38.252 13.49a9.744 9.744 0 1 1 9.744 9.744 9.755 9.755 0 0 1-9.744-9.744ZM24.219 58.797V37.89h47.554v20.906l-47.554.001Z"/>
</svg>
