<svg id="icon-products-ethernet" viewBox="0 0 96 96" xmlns="http://www.w3.org/2000/svg">
  <path fill-rule="evenodd" d="M3.687 3.687v88.626h88.626V3.687H3.686Zm87.326 87.326H4.987V4.987h86.026v86.026Zm-43.39-38.698a3.891 3.891 0 1 0-4.016-3.89 3.954 3.954 0 0 0 4.015 3.89Zm-8.029-3.891c0 2.148-1.797 3.89-4.014 3.89-2.218 0-4.015-1.742-4.015-3.89s1.797-3.89 4.015-3.89c2.217 0 4.014 1.742 4.014 3.89Zm20.072 3.89c2.218 0 4.015-1.742 4.015-3.89s-1.797-3.89-4.015-3.89c-2.217 0-4.015 1.742-4.015 3.89s1.798 3.89 4.015 3.89ZM31.65 62.342a.65.65 0 0 1-.46-.176L17.452 48.855a.65.65 0 0 1 0-.934L31.189 34.61a.65.65 0 0 1 .904.934L18.838 48.388l13.255 12.844a.65.65 0 0 1-.444 1.11Zm31.482-1.11 13.255-12.844L63.13 35.544a.65.65 0 1 1 .904-.933l13.737 13.31a.65.65 0 0 1 0 .934L64.035 62.166a.652.652 0 0 1-1.11-.476.65.65 0 0 1 .206-.458Z"/>
</svg>
