<svg id="icon-business-checklist" viewBox="0 0 96 96" xmlns="http://www.w3.org/2000/svg">
  <path fill-rule="evenodd" d="m76.501 55.73 3.897 3.083a2.145 2.145 0 0 1 .227 3.022L59.851 88.082a2.36 2.36 0 0 1-.526.494l-6.73 4.51a1.95 1.95 0 0 1-1.183.395 2.014 2.014 0 0 1-1.847-2.833l2.836-7.548c.084-.227.201-.44.35-.63l.003-.004.822-1.04H18.35a3.5 3.5 0 0 1-3.493-3.494v-65.4A3.5 3.5 0 0 1 18.35 9.04h6.582V4.558a2.042 2.042 0 0 1 2.04-2.04H53.95a2.042 2.042 0 0 1 2.04 2.04V9.04h6.435a3.5 3.5 0 0 1 3.494 3.492v53.3l7.622-9.631a2.133 2.133 0 0 1 2.96-.47ZM26.451 4.036a.74.74 0 0 0-.218.523v7.128a.74.74 0 0 0 .74.74h26.976a.74.74 0 0 0 .74-.74V4.558a.74.74 0 0 0-.74-.74H26.973a.74.74 0 0 0-.523.217ZM16.8 79.483c.41.412.968.644 1.55.645l36.253-.001L64.62 67.476V12.532a2.197 2.197 0 0 0-2.193-2.192H55.99v1.346a2.042 2.042 0 0 1-2.04 2.04H26.972a2.042 2.042 0 0 1-2.04-2.04V10.34H18.35a2.198 2.198 0 0 0-2.192 2.193v65.4c.001.581.232 1.139.643 1.55Zm42.265 7.98 20.79-26.266a1.144 1.144 0 0 0-.097-1.615L75.9 56.53a1.132 1.132 0 0 0-1.56.274l-20.8 26.28c-.084.11-.152.233-.2.363l-2.849 7.58a1.028 1.028 0 0 0 .106 1.05 1.01 1.01 0 0 0 1.418.195l6.75-4.525c.115-.079.217-.174.302-.283Zm-13.47-62.4 1.012.816-10.85 13.433-3.766-5.046 1.041-.777 2.766 3.704 9.797-12.13Zm7.35 25.272H24.47a.65.65 0 0 1 0-1.3h28.474a.65.65 0 0 1 0 1.3Zm2.844 7.218H24.471a.65.65 0 0 1 0-1.3h31.32a.65.65 0 0 1 0 1.3Zm-31.319 5.654h25.63a.65.65 0 1 1 0 1.3h-25.63a.65.65 0 0 1 0-1.3Z"/>
</svg>
