<svg id="icon-products-uc-and-c" viewBox="0 0 96 96" xmlns="http://www.w3.org/2000/svg">
  <path fill-rule="evenodd" d="M81.073 63.01a.653.653 0 0 0-.72.043l-1.727 1.312a13.03 13.03 0 0 1-3.086-3.01V26.656a3.883 3.883 0 0 0-3.877-3.878h-52.34a3.883 3.883 0 0 0-3.878 3.878v4.943H3.022a.65.65 0 0 0-.65.65v21.956a.65.65 0 0 0 .65.65h12.423v6.495a3.883 3.883 0 0 0 3.878 3.878h52.34l.017-.001.013-.002.03-.003a32.044 32.044 0 0 0 10.712 7.942.648.648 0 0 0 .83-.263l2.793-4.758a.652.652 0 0 0-.039-.718 16.48 16.48 0 0 0-4.946-4.416v.001Zm-77.4-9.456V32.9H35.7v20.654h-.95c.222-.384.34-.82.343-1.263v-2.283a2.56 2.56 0 0 0-1.352-2.257l-2.094-1.12-.783-.441a2.553 2.553 0 0 0-2.144-.167l-.38.14a5.241 5.241 0 0 0 3.297-5.131c0-2.937-1.98-5.325-4.415-5.325-2.434 0-4.414 2.388-4.414 5.325 0 2.332 1.248 4.319 2.981 5.038l-.126-.045a2.564 2.564 0 0 0-2.112.178l-2.853 1.548a2.552 2.552 0 0 0-1.35 2.257v2.285c.003.443.122.878.346 1.261H3.674Zm23.11-7.129-.628-.224a3.7 3.7 0 0 0 1.95.049l-.46.17a1.274 1.274 0 0 1-.862.005Zm7.01 3.583v2.284a1.26 1.26 0 0 1-1.26 1.262H21.91a1.261 1.261 0 0 1-1.26-1.26v-2.287a1.255 1.255 0 0 1 .663-1.11l2.872-1.56a1.269 1.269 0 0 1 1.042-.087l1.121.4a2.564 2.564 0 0 0 1.75-.01l1.076-.398a1.26 1.26 0 0 1 1.054.082l2.9 1.573a1.259 1.259 0 0 1 .665 1.111Zm-6.57-4.95c-1.716 0-3.113-1.807-3.113-4.026s1.397-4.025 3.113-4.025 3.114 1.805 3.114 4.025c0 2.22-1.397 4.025-3.114 4.025v.001Zm-7.9 18.87a2.58 2.58 0 0 1-2.577-2.578v-6.495H36.35a.65.65 0 0 0 .65-.65V32.25a.65.65 0 0 0-.65-.65H16.746v-4.944a2.58 2.58 0 0 1 2.577-2.577h52.34a2.58 2.58 0 0 1 2.577 2.577v25.27a13.585 13.585 0 0 0-2.18-4.183.649.649 0 0 0-.633-.196l-4.83 1.163a.65.65 0 0 0-.495.563c-.194 2-.04 4.018.452 5.966H16.752v1.5h50.222c.835 2.573 2.07 5 3.66 7.188l-51.31.001Zm54.03-8.69.887-.566v.567l-.887-.001Zm.887 1.5v2.797a40.67 40.67 0 0 1-1.685-2.796l1.685-.001Zm8.203 14.995a30.726 30.726 0 0 1-10.7-8.494v-.001c-.088-.113-4.906-6.365-4.389-13.373l3.966-.955a17.102 17.102 0 0 1 2.126 4.726l-2.483 1.586a.65.65 0 0 0-.236.831c.15.308 3.696 7.56 7.642 9.664a.646.646 0 0 0 .7-.055l1.72-1.307a15.156 15.156 0 0 1 3.927 3.507l-2.273 3.871Zm1.145-12.745-.106.009a.613.613 0 0 0-.539.699.675.675 0 0 0 .74.589 2.7 2.7 0 0 1 2.885 2.5.65.65 0 0 0 .648.603h.02a.652.652 0 0 0 .629-.697 4.001 4.001 0 0 0-4.277-3.703Zm2.173-2.544c.933.311 1.794.805 2.533 1.453a7.43 7.43 0 0 1 2.563 5.119.65.65 0 0 1-.622.697h-.027a.65.65 0 0 1-.648-.603 6.18 6.18 0 0 0-6.606-5.724l-.162.013a.65.65 0 0 1-.128-1.293l.2-.017a7.374 7.374 0 0 1 2.897.355ZM82.447 53.2l-.286.024a.65.65 0 0 0-.582.711.638.638 0 0 0 .71.582l.248-.02a9.306 9.306 0 0 1 9.947 8.619.65.65 0 0 0 .648.603h.022l.026-.002a.65.65 0 0 0 .601-.695 10.613 10.613 0 0 0-11.334-9.822ZM15.41 42.336l-2.12-1.149a2.062 2.062 0 0 0-1.727-.138l-.792.295a.757.757 0 0 1-.52.002l-.827-.296a2.083 2.083 0 0 0-1.702.141l-2.098 1.142a2.06 2.06 0 0 0-1.084 1.815v1.687a2.063 2.063 0 0 0 2.06 2.059h7.842a2.066 2.066 0 0 0 2.057-2.056v-1.685a2.06 2.06 0 0 0-1.089-1.817Zm-.212 3.5a.76.76 0 0 1-.758.757H6.6a.76.76 0 0 1-.76-.759v-1.686a.758.758 0 0 1 .4-.67l2.116-1.152a.77.77 0 0 1 .63-.051l.828.296a2.08 2.08 0 0 0 1.41-.008l.79-.294a.761.761 0 0 1 .638.05l2.144 1.163a.763.763 0 0 1 .402.67v1.684Zm-1.424-8.533c0 2.141-1.46 3.883-3.251 3.883-1.793 0-3.253-1.743-3.253-3.883 0-2.14 1.46-3.882 3.254-3.882 1.79 0 3.25 1.741 3.25 3.882Zm-1.301 0c0-1.424-.875-2.581-1.95-2.581v.001c-1.076 0-1.952 1.156-1.952 2.58 0 1.424.876 2.582 1.952 2.582 1.075 0 1.95-1.158 1.95-2.582Z"/>
</svg>
