<svg id="icon-products-pharma" viewBox="0 0 96 96" xmlns="http://www.w3.org/2000/svg">
  <path fill-rule="evenodd" d="m35.96 5.319.238.114a12.282 12.282 0 0 1 5.442 16.19l-16.647 34.69a11.775 11.775 0 0 1-15.65 5.668l-.24-.116-.007-.004a12.283 12.283 0 0 1-5.433-16.186l16.65-34.691A11.768 11.768 0 0 1 35.96 5.319ZM17.9 61.158a10.485 10.485 0 0 0 5.917-5.402l8.05-16.774-18.994-9.493-8.04 16.751A10.976 10.976 0 0 0 9.684 60.7l.215.105a10.485 10.485 0 0 0 8.003.353ZM32.43 37.81l8.04-16.752a10.974 10.974 0 0 0-4.853-14.462l-.205-.099-.003-.001a10.47 10.47 0 0 0-13.921 5.044l-8.052 16.777L32.43 37.81Zm20.273 19.115v.001a17.296 17.296 0 0 1 17.105 17.43l.002.012-.002.013-.003.33a17.447 17.447 0 1 1-17.102-17.786ZM41.36 85.939a15.967 15.967 0 0 0 11.002 4.574 15.968 15.968 0 0 0 15.77-15.493H36.589a15.967 15.967 0 0 0 4.772 10.919Zm-.055-23.193a15.775 15.775 0 0 0-4.717 10.973h31.545a15.775 15.775 0 0 0-26.828-10.973Zm49.65-56.072v.001a3.11 3.11 0 0 1 2.59 3.09v19.6a13.74 13.74 0 0 1-4.336 10.107l-11.49 10.54a3.064 3.064 0 0 1-4.13-.002L62.12 39.496a13.819 13.819 0 0 1-4.364-10.161V9.767a3.108 3.108 0 0 1 2.583-3.088l.005-.001 14.808-2.451c.327-.053.66-.053.987 0l14.816 2.447Zm.286 27.68a12.422 12.422 0 0 0 1.003-4.984V9.762a1.811 1.811 0 0 0-1.504-1.806L75.93 5.51a1.75 1.75 0 0 0-.566 0L60.56 7.96a1.813 1.813 0 0 0-1.503 1.803V29.34a12.505 12.505 0 0 0 3.948 9.203l11.464 10.51a1.758 1.758 0 0 0 2.37.002l11.487-10.536a12.421 12.421 0 0 0 2.915-4.165ZM72.043 14.27h7.203v6.49h6.36v7.349h-6.36v6.49h-7.203v-6.49h-6.358V20.76h6.358v-6.49Z"/>
</svg>
