<svg id="icon-products-ship-satellite-internet" viewBox="0 0 96 96" xmlns="http://www.w3.org/2000/svg">
  <path fill-rule="evenodd" d="M38.5 19.6c-.1.1-.3.2-.4.2-.062 0-.124-.038-.21-.09a2.288 2.288 0 0 0-.19-.11c-.2-.2-.2-.5 0-.7 5.7-5.8 15.1-5.9 20.9-.2l.2.2c.2.2.2.5 0 .7-.2.2-.5.2-.7 0l-.2-.2c-5.4-5.3-14.1-5.2-19.4.2Zm16.4 2.7c.2.2.5.2.7 0 .2-.2.2-.5 0-.7l-.2-.2c-4.1-3.9-10.6-3.9-14.5.2-.2.2-.2.5 0 .7.1.1.2.1.4.1.1 0 .3-.1.4-.2 3.6-3.6 9.4-3.7 13.1-.1l.1.2ZM44.5 24c-.2.2-.2.5 0 .7.2.2.5.2.7 0 1.6-1.7 4.4-1.7 6-.1l.1.1c.1.1.2.2.4.2.1 0 .3 0 .4-.1.2-.2.2-.5 0-.7l-.1-.2c-2.1-2.1-5.5-2-7.5.1Zm30.3 29.4-8.7-3.2V38.4c0-.3-.2-.5-.5-.5h-6.1V32c0-.3-.2-.5-.5-.5H48.8v-3.7c0-.3-.2-.5-.5-.5s-.5.2-.5.5v3.7H37.7c-.3 0-.5.2-.5.5v5.8H31c-.3 0-.5.2-.5.5v11.8l-8.7 3.2c-.3.1-.4.4-.3.6L28 75.6c.1.2.3.4.5.4h.1c.3-.1.4-.4.3-.6l-6.4-21.1 25.2-9.4v31.3c0 .3.2.5.5.5s.5-.2.5-.5V44.8L74 54.2l-6.4 21.1c-.1.3.1.6.3.6.3.1.6-.1.6-.3L75 54c.2-.2 0-.5-.2-.6ZM38.2 32.5h20.3v5.3H38.2v-5.3ZM65 38.9v10.863L48.5 43.6h-.4l-16.6 6.2V38.9H65ZM59.3 55h-.2l-5.4-2c-.3-.1-.4-.4-.3-.7.1-.3.4-.4.7-.3l5.4 2c.3.1.4.4.3.7-.1.2-.3.3-.5.3Zm-21.9.1h.2l5.3-2.1c.3-.1.4-.4.3-.7-.1-.3-.4-.4-.7-.3l-5.3 2.1c-.3.1-.4.4-.3.7.1.1.3.3.5.3Zm34 22.1c.1-.3.5-.3.7-.2.2.2.3.5 0 .6-1.6 2.9-4.6 4.5-7.7 4.5-1.5 0-2.9-.3-4.3-1.1s-2.6-2-3.4-3.4c-.1-.3-.4-.3-.7-.2-.1 0-.2.1-.2.2-2.4 4.2-7.8 5.7-12 3.3-1.4-.8-2.5-2-3.3-3.4-.1-.2-.4-.3-.7-.2-.1 0-.2.1-.2.2-2.4 4.2-7.8 5.7-12 3.3-1.4-.8-2.5-2-3.3-3.4-.1-.2 0-.6.2-.7.2-.1.6 0 .7.2.7 1.3 1.8 2.3 3 3 3.7 2.1 8.5.8 10.6-2.9.1-.2.3-.5.6-.6.7-.4 1.7-.1 2.1.6.7 1.3 1.8 2.3 3 3 3.7 2.1 8.5.8 10.6-2.9.2-.3.4-.5.6-.6.7-.4 1.7-.1 2.1.6.7 1.3 1.8 2.3 3 3 3.7 2.1 8.5.8 10.6-2.9Z"/>
</svg>
