<svg id="icon-products-end-user-remote" viewBox="0 0 96 96" xmlns="http://www.w3.org/2000/svg">
  <path fill-rule="evenodd" d="M67.12 12.736a26.104 26.104 0 0 1 26.418 26.419.65.65 0 0 1-.65.642h-.009a.649.649 0 0 1-.642-.66 24.8 24.8 0 0 0-25.1-25.101h-.009a.65.65 0 1 1-.009-1.3Zm1.13 7.448a8.586 8.586 0 0 0-.492 0 .65.65 0 1 0 .013 1.3l.012-.001A16.785 16.785 0 0 1 84.79 38.494a.65.65 0 0 0 .64.659h.01a.65.65 0 0 0 .65-.642 18.107 18.107 0 0 0-17.84-18.327Zm-4.398 30.282 5.38-12.44.02.001.018.002c.013.002.026.004.04.004a1.826 1.826 0 1 0-1.824-1.802.184.184 0 0 1 .002.024l-12.636 5.21-9.04-9.04a.672.672 0 0 0-.917 0C39.32 38 40.745 48.523 47.958 56.247l-14.483 6.51H3.09a.65.65 0 0 0 0 1.3h39.626l18.824 18.825a.65.65 0 1 0 .92-.92l-10.3-10.298-2.169-13.44a22.278 22.278 0 0 0 14.193 5.817 12.321 12.321 0 0 0 8.908-3.415.65.65 0 0 0 0-.92l-9.238-9.24Zm4.132-13.01.014.016.038.042-5.172 11.964-7.015-7.017 12.135-5.005ZM50.589 70.09l-7.142-7.142a.654.654 0 0 0-.46-.19h-6.342l11.897-5.347L50.59 70.09Zm-1.08-14.08c-7.051-7.053-8.822-16.837-4.14-22.189l8.868 8.87.01.009 17.45 17.451c-5.35 4.683-15.133 2.913-22.188-4.142v.001Zm19.97-28.295h-.242a.65.65 0 1 0 .009 1.3h.216a7.911 7.911 0 0 1 7.797 8.005.648.648 0 0 0 .642.66h.008a.65.65 0 0 0 .65-.642 9.213 9.213 0 0 0-9.08-9.323Z"/>
</svg>
