<svg id="icon-business-growth" viewBox="0 0 96 96" xmlns="http://www.w3.org/2000/svg">
  <path d="M36.3 61.722H21.047a2.183 2.183 0 0 0-2.181 2.18v27.474a2.183 2.183 0 0 0 2.18 2.179H36.3a2.182 2.182 0 0 0 2.18-2.18V63.903a2.181 2.181 0 0 0-2.18-2.18v-.001Zm.878 29.654a.88.88 0 0 1-.88.879h-15.25a.88.88 0 0 1-.88-.88V63.903a.88.88 0 0 1 .88-.88h15.25a.88.88 0 0 1 .88.88v27.473Zm25.067-49.69H46.993a2.183 2.183 0 0 0-2.18 2.18v47.51a2.183 2.183 0 0 0 2.18 2.179h15.252a2.182 2.182 0 0 0 2.18-2.18v-47.51a2.182 2.182 0 0 0-2.18-2.18v.001Zm.879 49.69a.88.88 0 0 1-.88.879h-15.25a.88.88 0 0 1-.88-.88v-47.51a.88.88 0 0 1 .88-.88h15.252a.88.88 0 0 1 .879.88l-.001 47.511Zm25.219-69.73H73.09a2.183 2.183 0 0 0-2.18 2.18v67.548a2.183 2.183 0 0 0 2.18 2.18h15.252a2.182 2.182 0 0 0 2.18-2.18V23.825a2.182 2.182 0 0 0-2.18-2.179Zm.88 69.728a.88.88 0 0 1-.88.88H73.09a.88.88 0 0 1-.88-.88V23.825a.88.88 0 0 1 .88-.879h15.252a.88.88 0 0 1 .88.88v67.548Zm-7.086-78.15a.65.65 0 1 0 1.274.263l1.839-8.871v-.019l.004-.008c0-.009-.003-.017-.001-.025a.637.637 0 0 0-.021-.257.641.641 0 0 0-.087-.187l-.012-.019a.641.641 0 0 0-.16-.157c-.003-.003-.01-.002-.013-.004a.645.645 0 0 0-.246-.095l-8.792-1.392a.65.65 0 0 0-.204 1.284l7.163 1.135L5.76 57.06a.65.65 0 1 0 .73 1.076L83.65 5.92l-1.514 7.304Z"/>
</svg>
