<svg id="icon-products-warning" viewBox="0 0 96 96" xmlns="http://www.w3.org/2000/svg">
  <path fill-rule="evenodd" d="m57.434 11.014 34.72 63.855h-.002a10.586 10.586 0 0 1-9.296 15.643h-69.93a10.587 10.587 0 0 1-9.27-15.7L38.864 10.96a10.586 10.586 0 0 1 18.57.053ZM88.41 87.365a9.289 9.289 0 0 0 3.348-4.806v-.001a9.23 9.23 0 0 0-.748-7.068L56.292 11.635a9.286 9.286 0 0 0-16.29-.048L4.796 75.44a9.286 9.286 0 0 0 8.131 13.772h69.924a9.289 9.289 0 0 0 5.559-1.847ZM46.496 30.011l3.384-.001a3.868 3.868 0 0 1 3.863 3.864v.211l-1.57 24.777a3.867 3.867 0 0 1-3.853 3.608h-.01a3.87 3.87 0 0 1-3.854-3.615l-1.57-24.747a3.867 3.867 0 0 1 3.61-4.097Zm4.678 28.786 1.57-24.744v-.179a2.866 2.866 0 0 0-2.864-2.864h-3.353a2.861 2.861 0 0 0-2.643 3.035l1.57 24.747a2.867 2.867 0 0 0 2.856 2.678h.01a2.865 2.865 0 0 0 2.854-2.673Zm-4.079 8.453h2.283a3.726 3.726 0 0 1 3.721 3.721v2.124a3.726 3.726 0 0 1-3.72 3.722h-2.284a3.726 3.726 0 0 1-3.722-3.722v-2.124a3.726 3.726 0 0 1 3.722-3.721Zm4.2 7.762a2.714 2.714 0 0 0 .795-1.917v-2.124a2.714 2.714 0 0 0-2.712-2.712h-2.283a2.715 2.715 0 0 0-2.712 2.712v2.124a2.715 2.715 0 0 0 2.712 2.712h2.283c.72 0 1.409-.287 1.917-.795Z"/>
</svg>
