<svg id="icon-places-call-center" viewBox="0 0 96 96" xmlns="http://www.w3.org/2000/svg">
  <path fill-rule="evenodd" d="M37.525 2.442h49.647V2.44a.65.65 0 0 1 .65.65V77.67a.65.65 0 0 1-.65.65h-42.64a.65.65 0 0 1 0-1.3h9.136V57.176a.65.65 0 0 1 .65-.65H69.5a.65.65 0 0 1 .65.65V77.02h16.372V3.74H38.176v35.273a.619.619 0 0 1-.027.132 16.616 16.616 0 0 1 3.474 2.926 16.326 16.326 0 0 1 4.245 10.762v.39l.195.013a5.487 5.487 0 0 1 4.94 5.459v1.543a5.491 5.491 0 0 1-5.422 5.476c-1.066 5.837-5.193 9.374-11.204 9.597a3.62 3.62 0 0 1-3.586 3.223h-1.26a3.625 3.625 0 0 1-3.621-3.621v-.01a3.626 3.626 0 0 1 3.62-3.621h1.26a3.623 3.623 0 0 1 3.503 2.733c5.485-.186 9.106-3.307 10.032-8.651a2.22 2.22 0 0 1-1.032-1.871v-8.068a2.22 2.22 0 0 1 1.275-2.004v-.581A15.16 15.16 0 0 0 29.58 37.916h-.103A15.107 15.107 0 0 0 14.39 52.904v.469a2.114 2.114 0 0 1 1.27 1.935v8.297a2.113 2.113 0 0 1-2.106 2.113 5.382 5.382 0 0 1-5.375-5.374v-1.768a5.383 5.383 0 0 1 4.11-5.224l.8-.156V52.9a16.36 16.36 0 0 1 23.786-14.482V3.092a.65.65 0 0 1 .65-.65ZM14.123 64.179a.812.812 0 0 0 .237-.573v-8.298a.814.814 0 0 0-.718-.806h-.09a4.08 4.08 0 0 0-4.074 4.074v1.768a4.08 4.08 0 0 0 4.074 4.074.812.812 0 0 0 .571-.24ZM29.53 77.236h1.26a2.327 2.327 0 1 0 0-4.653h-1.26a2.323 2.323 0 0 0-2.321 2.322v.009a2.324 2.324 0 0 0 2.32 2.322Zm15.291-22.42a.926.926 0 0 0-.23.61v8.068a.925.925 0 0 0 .924.924h.002a4.19 4.19 0 0 0 4.185-4.18v-1.543a4.185 4.185 0 0 0-4.174-4.186h-.132a.926.926 0 0 0-.575.307Zm10.147 22.03H68.85v-19.02H54.968v19.02Zm15.764-27.347a.65.65 0 0 1-.05-.249v-8.444a.65.65 0 0 1 .65-.65h9.646a.65.65 0 0 1 .65.65v8.444a.65.65 0 0 1-.65.65h-9.646a.651.651 0 0 1-.6-.401Zm9.596-8.043h-8.346v7.143h8.346v-7.143ZM56.913 49.71a.65.65 0 0 1-.19-.46v-8.444a.65.65 0 0 1 .65-.65h10.095a.65.65 0 0 1 .65.65v8.444a.65.65 0 0 1-.65.65H57.372a.65.65 0 0 1-.46-.19Zm9.905-8.254h-8.796v7.143h8.796v-7.143ZM46.591 49.9c-.045-.436-.113-.87-.202-1.3l6.78-.001.002-7.147h-8.795v2.41c-.39-.57-.825-1.11-1.3-1.612v-1.448a.65.65 0 0 1 .65-.65h10.095a.65.65 0 0 1 .65.65l-.002 8.448a.65.65 0 0 1-.65.65h-7.228Zm24.14-15.084a.65.65 0 0 1-.049-.249v-8.443a.65.65 0 0 1 .65-.65h9.646a.65.65 0 0 1 .65.65v8.443a.65.65 0 0 1-.65.65h-9.646a.651.651 0 0 1-.6-.401Zm9.597-8.042h-8.346v7.143h8.346v-7.143Zm-23.415 8.253a.65.65 0 0 1-.19-.46v-8.443a.65.65 0 0 1 .65-.65h10.095a.65.65 0 0 1 .65.65v8.443a.65.65 0 0 1-.65.65H57.372a.65.65 0 0 1-.46-.19Zm9.905-8.253h-8.796v7.143h8.796v-7.143Zm-23.554 8.253a.65.65 0 0 1-.19-.46l-.002-8.443a.65.65 0 0 1 .65-.65h10.096a.65.65 0 0 1 .65.65v8.443a.65.65 0 0 1-.65.65H43.723a.65.65 0 0 1-.46-.19Zm9.904-8.253h-8.795v7.143h8.795v-7.143Zm27.81-6.242h-9.646v.002a.65.65 0 0 1-.65-.65V11.44a.65.65 0 0 1 .65-.65h9.646a.651.651 0 0 1 .65.65v8.442a.65.65 0 0 1-.65.65Zm-.65-8.443h-8.346v7.144h8.346v-7.144Zm-12.86 8.443H57.372v.002a.65.65 0 0 1-.65-.65V11.44a.65.65 0 0 1 .65-.65h10.096a.65.65 0 0 1 .65.65v8.442a.65.65 0 0 1-.65.65Zm-.65-8.443h-8.796v7.144h8.796v-7.144Zm-13 8.443H43.722v.002a.65.65 0 0 1-.65-.65V11.44a.65.65 0 0 1 .65-.65h10.096a.65.65 0 0 1 .65.65v8.442a.65.65 0 0 1-.65.65Zm-.65-8.443h-8.796v7.144h8.796v-7.144Zm-19.04 69.717a6.56 6.56 0 0 1-4.606 1.872h-.09a6.565 6.565 0 0 1-4.647-1.998.65.65 0 1 1 .932-.908 5.306 5.306 0 0 0 7.506.1l.106-.106a.65.65 0 0 1 .92.92l-.12.12Zm-13.767 1.935a.649.649 0 0 0-.012.92 12.822 12.822 0 0 0 18.11.233l.232-.232a.65.65 0 1 0-.93-.91l-.21.212a11.52 11.52 0 0 1-16.271-.21.65.65 0 0 0-.92-.013Zm21.064 3.688c.108-.106.217-.213.322-.322a.648.648 0 0 1 .92-.013.653.653 0 0 1 .15.707.65.65 0 0 1-.138.213 18.387 18.387 0 0 1-26.316 0 .649.649 0 1 1 .932-.907 17.085 17.085 0 0 0 24.13.322Z"/>
</svg>
