<svg id="icon-products-agility" viewBox="0 0 96 96" xmlns="http://www.w3.org/2000/svg">
  <path fill-rule="evenodd" d="M49.964 80.243a.65.65 0 0 0-.806-.445 33.997 33.997 0 0 1-9.406 1.323h-.05a32.638 32.638 0 0 1-9.07-64.18h.159a.65.65 0 0 0 .65-.65V3.61h16.75v12.68a.675.675 0 0 0 .54.635 33.4 33.4 0 0 1 10.758 5.15c3.233 2.335 13.79 11.133 13.935 26.351a.66.66 0 0 0 .655.644.651.651 0 0 0 .646-.657c-.153-15.827-11.118-24.967-14.474-27.392a34.689 34.689 0 0 0-10.76-5.234V2.96a.65.65 0 0 0-.65-.65H30.79a.65.65 0 0 0-.65.65v12.766a33.938 33.938 0 0 0 9.576 66.695h.053c3.298 0 6.58-.462 9.75-1.374a.65.65 0 0 0 .444-.804h.002Zm40.362-5.983-9.464-13.644a3.511 3.511 0 0 0-2.885-1.511h-5.532a3.511 3.511 0 0 0-2.883 5.517l7.197 10.382a2.22 2.22 0 0 1 0 2.521l-7.2 10.382a3.514 3.514 0 0 0 2.888 5.512h5.528a3.51 3.51 0 0 0 2.886-1.511l9.463-13.647a3.529 3.529 0 0 0 0-4l.002-.001Zm-1.069 3.26-9.464 13.647a2.209 2.209 0 0 1-1.817.953h-5.528a2.215 2.215 0 0 1-1.817-3.473l7.195-10.381a3.525 3.525 0 0 0 0-4.003L70.63 63.881a2.212 2.212 0 0 1 1.816-3.476h5.53a2.212 2.212 0 0 1 1.819.952L89.256 75a2.221 2.221 0 0 1 0 2.52ZM47.771 27.97a.65.65 0 0 1-.497.024 22.446 22.446 0 1 0-15.088 42.279 22.206 22.206 0 0 0 8.223 1.296h.02a.65.65 0 1 1 .02 1.3 23.747 23.747 0 0 1-20.221-37.283 23.747 23.747 0 0 1 27.484-8.817.65.65 0 0 1 .06 1.2Zm8.555 4.145a.65.65 0 0 1 .422 1.124l-12.464 11.65a5.347 5.347 0 1 1-.96-.882L55.86 32.289a.65.65 0 0 1 .466-.174Zm5.29 28.501 9.465 13.644a3.523 3.523 0 0 1 0 4.002l-9.464 13.646a3.508 3.508 0 0 1-2.885 1.511h-5.52a3.513 3.513 0 0 1-2.886-5.513l7.195-10.381a2.22 2.22 0 0 0 0-2.521l-7.195-10.382a3.51 3.51 0 0 1 2.884-5.517h5.52a3.508 3.508 0 0 1 2.887 1.511ZM60.55 91.167l9.464-13.647a2.217 2.217 0 0 0 0-2.52l-9.464-13.643a2.209 2.209 0 0 0-1.818-.952H53.21a2.21 2.21 0 0 0-1.816 3.476l7.196 10.382a3.524 3.524 0 0 1 0 4.003l-7.196 10.381a2.213 2.213 0 0 0 1.818 3.473h5.52a2.21 2.21 0 0 0 1.817-.953Z"/>
</svg>
