<svg id="icon-places-network-globe" viewBox="0 0 96 96" xmlns="http://www.w3.org/2000/svg">
  <path d="M16.812 53.978v.01a.635.635 0 0 0 .04.071l.036.07c.009.012.014.03.024.042a35.4 35.4 0 0 0 29.525 19.05 6.483 6.483 0 0 0 1.557.197 6.534 6.534 0 0 0 1.53-.185c2.949-.1 5.874-.566 8.708-1.387a35.361 35.361 0 0 0 25.476-34.452l.003-.013-.003-.015a35.393 35.393 0 0 0-70.782.7.188.188 0 0 0 .003.143 35.671 35.671 0 0 0 3.883 15.77ZM14.24 38.77l19.93-.212a84.36 84.36 0 0 0 .45 10.445 96.192 96.192 0 0 0-16.846 3.983A34.362 34.362 0 0 1 14.24 38.77Zm17.677 28.99a33.894 33.894 0 0 1-13.535-13.604 94.916 94.916 0 0 1 16.387-3.86c1.265 10.093 4.398 17.934 8.556 21.31a34.12 34.12 0 0 1-11.408-3.847Zm30.17-29.499v.133a81.034 81.034 0 0 1-.965 10.486 117.591 117.591 0 0 0-13.296-.87c-3.974.021-7.943.288-11.884.798a80.451 80.451 0 0 1-.47-10.264l26.615-.283Zm-26.58-1.018c.106-3.429.426-6.848.957-10.237 3.53.338 7.494.561 11.847.561 4.437.002 8.87-.295 13.267-.889.39 3.413.564 6.847.52 10.282l-26.591.283Zm13.736 34.714c-.864.025-1.727.016-2.587-.026-4.974-1.349-9.04-10.15-10.557-21.833a94.986 94.986 0 0 1 11.725-.788c4.374.038 8.742.323 13.084.853-2.083 11.748-6.61 20.53-11.665 21.794Zm28.98-17.7a33.882 33.882 0 0 1-20.356 16.34c-1.72.5-3.477.866-5.253 1.094 4.34-3.314 7.877-11.17 9.624-21.36 5.5.726 10.94 1.846 16.28 3.35-.1.19-.191.384-.295.574v.001Zm.896-1.76a117.336 117.336 0 0 0-16.671-3.45c.533-3.516.847-7.063.939-10.618v-.182l19.033-.202a33.864 33.864 0 0 1-3.301 14.452Zm3.275-15.753-18.996.202a82.47 82.47 0 0 0-.534-10.45 75.407 75.407 0 0 0 15.9-3.977 34.365 34.365 0 0 1 3.63 14.225ZM64.722 7.948a33.893 33.893 0 0 1 13.432 13.414 74.609 74.609 0 0 1-15.438 3.841 55.459 55.459 0 0 0-2.78-11.69c-1.626-4.394-3.683-7.549-5.998-9.294a33.945 33.945 0 0 1 10.784 3.73ZM49.724 3.942c3.393.093 6.67 3.745 8.993 10.02a54.14 54.14 0 0 1 2.713 11.424c-4.348.588-8.73.882-13.118.88-4.271 0-8.161-.217-11.626-.546a55.454 55.454 0 0 1 3.508-12.265c2.663-6.139 6.11-9.567 9.53-9.513Zm-31.31 17.51A34.105 34.105 0 0 1 45.69 3.866c-2.48 1.581-4.775 4.661-6.688 9.07a56.888 56.888 0 0 0-3.61 12.653 83.6 83.6 0 0 1-16.9-3.3.632.632 0 0 0-.538.056c.152-.298.3-.599.462-.895h-.002Zm-.781 1.515a.648.648 0 0 0 .427.55 84.814 84.814 0 0 0 17.11 3.356 84.031 84.031 0 0 0-.964 10.383l-19.982.212a33.863 33.863 0 0 1 3.409-14.5Zm68.4 59.912a5.323 5.323 0 0 0-5.268 4.682H53.644v-4.03a.65.65 0 0 0-.65-.65h-4.032v-6.21a.65.65 0 1 0-1.3 0v6.21h-4.037a.65.65 0 0 0-.65.65v4.031h-27.74a5.336 5.336 0 1 0 0 1.301h27.74v4.035a.65.65 0 0 0 .65.65h9.37a.65.65 0 0 0 .649-.65v-4.035h27.12a5.323 5.323 0 1 0 5.27-5.983ZM9.967 92.25a4.035 4.035 0 1 1 0-8.07 4.035 4.035 0 0 1-.001 8.07Zm42.378-4.037v4.035h-8.07V84.18h8.07v4.033Zm33.69 4.037a4.036 4.036 0 1 1 0-8.071 4.036 4.036 0 0 1 0 8.071Z"/>
</svg>
