<svg id="icon-places-globe" viewBox="0 0 96 96" xmlns="http://www.w3.org/2000/svg">
  <path fill-rule="evenodd" d="M50.54 2.587a45.553 45.553 0 0 1 31.406 15.037h.001a45.555 45.555 0 0 1-36.472 75.859 45.254 45.254 0 0 1-31.422-15.107A45.553 45.553 0 0 1 50.541 2.587ZM80.72 77.768a44.326 44.326 0 0 0 11.467-27.315A44.254 44.254 0 0 0 47.942 3.745 43.928 43.928 0 0 0 18.49 15.022a44.255 44.255 0 0 0 29.536 77.232 44.137 44.137 0 0 0 3.32-.137 3.574 3.574 0 0 0-.082-.025c-.043-.013-.086-.026-.129-.042-.026-.028.061-.062.175-.096-.037-.09-.043-.346.087-.356l.003-.084v-.043c-.161.04-.32.089-.477.145-.117-.167.471-1.432.846-1.332-.93-.236-.468-.426.019-.626.248-.102.503-.207.582-.322a3.219 3.219 0 0 1-.09.478c.101.035.991-1.492.857-1.625.013.012-1.244.809-1.088.622 1.476-1.816 2.424-4.963 3.177-7.459l.231-.763c.46-1.191.73-2.447.803-3.722-.22-1.685-1.354-2.45-2.546-3.254-.716-.483-1.452-.98-2.023-1.698-3.04-3.823-4.62-6.1-3.22-10.098.3-.858.774-1.38 1.225-1.875.597-.657 1.153-1.268 1.203-2.555.053-1.331-2.508-4.2-2.468-2.543.01.949-.017.93-.483.614-.28-.19-.72-.49-1.406-.75a13.853 13.853 0 0 1-2.206-1.09c-.425-.388-.664-.874-.908-1.37-.31-.629-.628-1.274-1.343-1.753a37.01 37.01 0 0 0-5.642-2.442c-.528-.216-1.1-.389-1.683-.564-1.3-.392-2.657-.802-3.723-1.75a8.002 8.002 0 0 1-1.686-1.583c-.214-.398-.04-.54.135-.685.162-.133.326-.268.187-.606-.29-.703-3.83-9.016-3.97-8.971-.895.282-.004 2.676.728 4.647.453 1.216.845 2.271.72 2.568.003-.008-.15-.269-.381-.66-.642-1.089-1.88-3.185-1.966-3.618a16.386 16.386 0 0 0-.115-3.577 28.233 28.233 0 0 1-1.283-2.675 8.347 8.347 0 0 1 .765-5.07 21.77 21.77 0 0 1 2.879-4.246c-.452-.187-1.057-1.318-.647-1.796.039-.042 2.113-7.687.778-7.457.005-.002-1.593.896-1.593.35.27-.126.507-.312.694-.543-.015-.005-.263.079-.642.206-1.35.456-4.354 1.47-4.354.997a8.736 8.736 0 0 0 3.493-1.09c.02-.24.02-.386-.5-.467.314-.43 2.652-2.864 3.258-2.26-.07.258.79.61 1.105-.154-.086.187-.536-.12-.536-.311-.11-.154 1.369-.897 1.697-.575.003.003.055-.032.145-.093.628-.421 3.102-2.085 3.791-.827-.039.508-.055 1.804.342 2.2.755-.07 1.514-.088 2.271-.057-.13.034.225.06.445-.078.025.054.043.118.06.181.046.164.089.317.25.246-.046.07.21.209.526.38.404.217.906.488 1.004.74a.805.805 0 0 1-.595.36c.253.285.616.262.933.242.42-.027.76-.048.656.66.03.002.3-.161.714-.413 1.576-.956 5.249-3.185 5.806-2.454-.24-.309-1.3 2.168.158 3.099.33.165.229-.222.085-.771-.257-.985-.652-2.49 1.057-2.274-.668-.084-.369 1.375-.109 1.117.52-.523.612-.483.778-.41.144.063.345.15.933-.083-.053.02-.762-.54-.584-.54 1.203 0 2.685 1.251 3.469 1.912.201.17.357.301.45.362 2.771 1.823 1.924 1.623 1.156 1.44-.353-.083-.69-.162-.652-.04-.056-.171 2.307 1.605 1.638 1.935-.099.049-.59-.21-1.013-.434-.273-.144-.518-.273-.612-.296.35.345.747.64 1.177.879-.433.327-1.515-.237-2.537-.77-.84-.437-1.639-.853-2.004-.737a1.529 1.529 0 0 1 1.187-.24c.335-.143-.102-1.36-.102-1.204-.412.095-.873-.433-1.237-.851-.14-.16-.266-.305-.37-.391.247.214-2.109 1.918-2.45 2.166a1.22 1.22 0 0 0-.041.029l-.48.318c-3.025 1.998-4.907 3.24-.876 5.185.875.439 1.723.928 2.54 1.466.205.126.356.4.506.675.21.383.42.766.776.745-.438.025.419-1.7.888-2.647.161-.324.276-.556.279-.596.02-.306-.181-.693-.392-1.096-.418-.799-.87-1.663.317-2.09.53-.191 1.036.101 1.514.377.48.277.933.539 1.354.276-1.875 1.196 3.898 1.86 1.885.036.443.401.848.826 1.249 1.248.58.609 1.154 1.212 1.83 1.729.124.095.466.215.839.346.546.192 1.158.407 1.251.6.721 1.544-.316 1.784-1.491 2.057-.428.099-.873.202-1.259.374l-.064.025c-.486.187-3.519 1.351-2.941 1.929.063.067.34-.121.699-.365.75-.509 1.863-1.263 2.14-.451.08.245-.451.451-.748.567-.126.048-.21.081-.186.093.005.002 1.029.055 1.005-.06.329 1.664.88 1.264 1.522.797.252-.184.518-.377.79-.46 1.357.09-2.193 2.828-2.432 2.663-.578-.409-.05-.778.316-1.034.195-.136.345-.24.254-.301-1.265-.842-2.582 1.624-3.022 2.446-.074.14-.124.233-.143.253-1.035.8-1.988 1.7-2.845 2.688.888.516-1.254 2.932-1.655 3.384l-.057.065a8.964 8.964 0 0 1-.908.898c-.613.542-.947.838-1.03 2.23-.008.135.123.462.286.87.423 1.055 1.061 2.65.064 2.836-.877.164-1.069-.864-1.224-1.697-.076-.408-.144-.77-.279-.92a8.045 8.045 0 0 1-.5-.612c-.224-.3-.245-.329-1.055-.74-1.094-.558-3.007-.962-2.996.57a8.669 8.669 0 0 0-5.054 0 6.38 6.38 0 0 0-1.727 6.283c.765 2.1 2.52 2.4 4.64 1.666.11-.039.277-.31.49-.66.623-1.016 1.645-2.688 2.864-1.154.318.396-.15 1.175-.646 2.002-.535.892-1.104 1.839-.754 2.42.23.382.828.38 1.516.375.955-.005 2.08-.01 2.623 1.017.239.448.084.956-.078 1.487-.25.822-.518 1.7.623 2.498a23.22 23.22 0 0 0 4.763.674c.225-.092.62-.554 1.093-1.106.982-1.148 2.3-2.688 3.12-2.115.393.275.157.438-.083.604-.181.125-.364.252-.275.429.493.968 1.501-.868 1.345-.868.098 0 .354.21.657.46.41.336.905.743 1.21.795.678.115 1.369-.056 2.027-.218.618-.153 1.206-.298 1.728-.194.74.148 1.301.635 1.854 1.114.311.27.62.537.956.74 1.002.584 2.093 1 3.23 1.23 1.933.683 2.624 1.683 3.347 2.729.469.678.951 1.375 1.794 2.019 1.093.836 2.647 1.12 4.179 1.399 1.08.197 2.15.392 3.04.778 1.122.484-1.336 5.526-2.72 8.365-.385.788-.686 1.407-.806 1.71-.864 2.23-2.624 3.59-4.395 4.959-1.052.813-2.108 1.628-2.983 2.632-1.427 1.636-2.673 2.377-4.188 3.279-.59.35-1.22.725-1.918 1.187.066-.044-5.822 3.888-6.134 3.718a.428.428 0 0 0 .383.185M80.72 77.769a44.326 44.326 0 0 1-26.113 13.99Zm-26.113 13.99a9.225 9.225 0 0 1 1.907-1.536Zm1.907-1.536s-1.018-.164-.898-.39Zm-.898-.39a12.756 12.756 0 0 1 2.355-1.569Zm2.355-1.569a.586.586 0 0 0 .345-.195Zm.345-.195c-.067.032-.13.07-.192.107Zm-.192.107c-.05.03-.1.06-.153.088Z"/>
</svg>
