<svg id="icon-places-bank-dollar" viewBox="0 0 96 96" xmlns="http://www.w3.org/2000/svg">
  <path fill-rule="evenodd" d="M20.505 31.85h54.974a1.475 1.475 0 0 0 1.047-.446 1.46 1.46 0 0 0-.038-2.064L49 2.92a1.456 1.456 0 0 0-2.017.002L19.493 29.34a1.457 1.457 0 0 0 1.01 2.508l.002.002Zm-.11-1.573L47.883 3.86a.157.157 0 0 1 .218-.001l27.487 26.417a.178.178 0 0 1 .005.224.16.16 0 0 1-.113.05H20.507a.158.158 0 0 1-.158-.159.158.158 0 0 1 .047-.114h-.001Zm59.634 57.167a4.564 4.564 0 0 0-4.246-4.344V42.595a3.221 3.221 0 0 0 1.446-2.127h.926a5.72 5.72 0 0 0 5.712-5.712v-.65H12.13v.65a5.72 5.72 0 0 0 5.713 5.712h1.259a3.205 3.205 0 0 0 1.476 2.143v40.486a4.502 4.502 0 0 0-4.252 4.236 5.717 5.717 0 0 0-4.196 5.501v.65h71.74v-.65a5.718 5.718 0 0 0-3.841-5.39Zm-16.006-.445h14.662a3.286 3.286 0 0 0-3.217-2.631H67.24a3.287 3.287 0 0 0-3.217 2.631ZM21.879 43.096h6.238v39.972H21.88l-.001-39.972Zm7.539-.501a3.221 3.221 0 0 0 1.446-2.127h11.43a3.205 3.205 0 0 0 1.477 2.143v40.487a4.56 4.56 0 0 0-4.23 4.025h-5.913a4.56 4.56 0 0 0-4.21-4.023V42.595Zm21.489-.799h-5.46a1.908 1.908 0 0 1-1.801-1.286h9.067a1.915 1.915 0 0 1-1.806 1.286Zm.405 1.3v39.972h-6.24V43.096h6.24ZM44.07 84.368h8.223A3.282 3.282 0 0 1 55.51 87H40.854a3.287 3.287 0 0 1 3.216-2.632Zm8.542-1.268V42.594a3.22 3.22 0 0 0 1.445-2.126h11.41a3.205 3.205 0 0 0 1.475 2.142v40.488a4.56 4.56 0 0 0-4.23 4.025h-5.89a4.56 4.56 0 0 0-4.21-4.023Zm15.63-.032V43.096h6.24v39.972h-6.24Zm5.837-41.272h-5.46a1.91 1.91 0 0 1-1.801-1.286h9.067a1.914 1.914 0 0 1-1.806 1.286Zm-60.6-6.39h69.04a4.42 4.42 0 0 1-4.364 3.762H17.843a4.418 4.418 0 0 1-4.364-3.762Zm6.973 5.104h9.068a1.914 1.914 0 0 1-1.806 1.286h-5.46a1.91 1.91 0 0 1-1.802-1.286Zm-1.896 44.82a3.262 3.262 0 0 1 2.32-.962H29.1A3.283 3.283 0 0 1 32.316 87H17.66a3.25 3.25 0 0 1 .897-1.67h-.001Zm-5.077 6.855a4.417 4.417 0 0 1 4.364-3.763h60.314a4.418 4.418 0 0 1 4.364 3.763H13.479Zm34.518-63.98a8.646 8.646 0 1 0-8.646-8.646 8.656 8.656 0 0 0 8.646 8.646Zm0-15.992a7.346 7.346 0 1 1-7.346 7.346 7.355 7.355 0 0 1 7.346-7.346Zm-2.43 9.174.677-.99v-.001c.412.341.896.582 1.416.704v-1.382c-1.25-.338-1.867-.806-1.867-1.84v-.017c0-.955.73-1.589 1.823-1.702v-.504h.904v.53a3.574 3.574 0 0 1 1.613.634l-.58 1.016a3.686 3.686 0 0 0-1.077-.512v1.32c1.32.355 1.884.885 1.884 1.857v.019c0 .972-.747 1.597-1.84 1.71v.86h-.903v-.877a4.367 4.367 0 0 1-2.05-.825Zm3.526-.816c0-.287-.149-.469-.617-.643v1.216c.407-.061.617-.243.617-.556v-.017Zm-2.032-2.787v.017c0 .278.122.451.6.625v-1.18c-.427.051-.6.26-.6.538Z"/>
</svg>
