<svg id="icon-places-smart-building" viewBox="0 0 96 96" xmlns="http://www.w3.org/2000/svg">
  <path fill-rule="evenodd" d="M37.836 3.689a.65.65 0 0 1-.252.055A24.012 24.012 0 0 0 14.76 29.445a.65.65 0 0 1-.6.696l-.048.002a.65.65 0 0 1-.648-.603 25.315 25.315 0 0 1 24.06-27.094.65.65 0 0 1 .312 1.243Zm-.446 7.297a.65.65 0 0 0 .62-.68.662.662 0 0 0-.68-.62 17.55 17.55 0 0 0-16.699 18.802.65.65 0 0 0 .648.603c.016 0 .032 0 .047-.002a.651.651 0 0 0 .602-.695v-.007c-.01-.142-.02-.282-.026-.425A16.25 16.25 0 0 1 37.39 10.986Zm13.968 50.402h-8.73a.65.65 0 0 1-.65-.65v-7.642a.65.65 0 0 1 .65-.65h8.73a.65.65 0 0 1 .65.65v7.642a.65.65 0 0 1-.65.65Zm-.65-7.642h-7.43v6.341h7.43v-6.34Zm13.283 7.642h-9.136a.65.65 0 0 1-.65-.65v-7.642a.65.65 0 0 1 .65-.65h9.136a.65.65 0 0 1 .65.65v7.642a.65.65 0 0 1-.65.65Zm-.65-7.642h-7.836l-.001 6.341h7.837v-6.34Zm13.004 7.642h-9.137a.65.65 0 0 1-.65-.65v-7.642a.65.65 0 0 1 .65-.65h9.137a.65.65 0 0 1 .65.65v7.642a.65.65 0 0 1-.65.65Zm-.65-7.642h-7.837v6.341h7.837v-6.34Zm-24.337-8.843h-8.73v-.002a.65.65 0 0 1-.65-.65v-7.64a.65.65 0 0 1 .65-.65h8.73a.65.65 0 0 1 .65.65v7.642a.65.65 0 0 1-.65.65Zm-.65-7.642h-7.43v6.34h7.43v-6.34Zm13.283 7.642h-9.136v-.002a.65.65 0 0 1-.65-.65v-7.64a.65.65 0 0 1 .65-.65h9.136a.65.65 0 0 1 .65.65v7.642a.65.65 0 0 1-.65.65Zm-.65-7.642h-7.836l-.001 6.34h7.837v-6.34Zm13.004 7.642h-9.137v-.002a.65.65 0 0 1-.65-.65v-7.64a.65.65 0 0 1 .65-.65h9.137a.65.65 0 0 1 .65.65v7.642a.65.65 0 0 1-.65.65Zm-.65-7.642h-7.837v6.34h7.837v-6.34Zm-38.85-19.115a.65.65 0 0 1-.451.211 7.634 7.634 0 0 0-7.284 7.971l.013.21a.649.649 0 0 1-.603.695l-.046.002a.65.65 0 0 1-.648-.605l-.014-.244a8.938 8.938 0 0 1 8.523-9.329.65.65 0 0 1 .51 1.089Zm.177 6.613h44.931a.65.65 0 0 1 .65.65v67.496a.65.65 0 0 1-.65.65h-44.93a.65.65 0 0 1-.65-.65V25.409a.65.65 0 0 1 .65-.65Zm16.644 66.953h12.44v-17.09h-12.44v17.09Zm13.74.542h13.897V26.06H37.67v66.194h14.695V73.321h15.04v18.933Z"/>
</svg>
