<svg id="icon-products-design" viewBox="0 0 96 96" xmlns="http://www.w3.org/2000/svg">
  <path fill-rule="evenodd" d="m87.65 13.986 3.682 2.914a2.051 2.051 0 0 1 .216 2.9L78.8 35.911c.066.1.102.215.105.334v44.447a3.03 3.03 0 0 1-3.026 3.026H47.993l8.727 8.727a.65.65 0 0 1-.46 1.11H4.602a.65.65 0 0 1-.65-.65V41.243a.65.65 0 0 1 1.11-.46l7.763 7.764V5.471a3.03 3.03 0 0 1 3.026-3.026h60.034a3.03 3.03 0 0 1 3.027 3.026v16.426l5.904-7.461a2.042 2.042 0 0 1 2.834-.45ZM5.252 92.255h49.44L5.251 42.812v49.443ZM77.1 81.912c.323-.323.506-.762.506-1.22V37.421l-5.68 7.18a2.268 2.268 0 0 1-.513.473l-2.698 1.809v17.549a.651.651 0 0 1-.65.65H39.095a.65.65 0 0 1-.65-.65V50.541a18.942 18.942 0 1 1 19.828-15.728H68.69l8.922-11.273V5.471a1.728 1.728 0 0 0-1.727-1.726H15.851a1.728 1.728 0 0 0-1.726 1.726v44.375L46.7 82.424c.006 0 .01-.002.015-.003a.048.048 0 0 1 .014-.003h29.15c.458 0 .897-.182 1.22-.506ZM62.942 49.45a1.928 1.928 0 0 1-.79-2.453l2.672-7.128c.085-.223.205-.432.355-.617l2.484-3.138h-9.658a18.965 18.965 0 0 1-18.26 14.48v13.189h27.67V47.754l-2.358 1.58a1.875 1.875 0 0 1-1.403.359 1.916 1.916 0 0 1-.712-.244ZM38.636 35.003a.65.65 0 0 1 .46-.19H56.96a17.707 17.707 0 1 0-18.515 14.428V35.463a.65.65 0 0 1 .19-.46Zm11.799 10.562a17.662 17.662 0 0 0 6.23-9.452h-16.92v13.18a17.663 17.663 0 0 0 10.69-3.728Zm20.705-1.587 19.638-24.815v-.002a1.055 1.055 0 0 0-.085-1.493l-3.644-2.884a.992.992 0 0 0-.58-.183 1.055 1.055 0 0 0-.856.437L65.956 39.881c-.083.102-.15.217-.197.34l-2.682 7.153a.945.945 0 0 0 .098.969.93.93 0 0 0 1.301.177l6.38-4.277c.107-.073.203-.163.284-.265Zm-38.332 39.74H14.436v.001a.65.65 0 0 1-.65-.65V64.697a.649.649 0 0 1 1.11-.46l18.372 18.371a.65.65 0 0 1-.46 1.11Zm-1.569-1.3L15.086 66.265v16.153H31.24Z"/>
</svg>
