<svg id="icon-products-manufacturing" viewBox="0 0 96 96" xmlns="http://www.w3.org/2000/svg">
  <path fill-rule="evenodd" d="M62.533 67.345a16.132 16.132 0 0 1-.45-1.81l-8.029-42.394a10.482 10.482 0 0 1 7.201-11.972 9.836 9.836 0 0 1 11.926 5.443l18.614 42.36a14.14 14.14 0 0 1-8.748 19.181 16.39 16.39 0 0 1-20.514-10.808Zm5.185-54.55a8.532 8.532 0 0 0-6.078-.384v-.001a9.183 9.183 0 0 0-6.309 10.49l8.03 42.394c.105.563.243 1.12.413 1.666a15.107 15.107 0 0 0 18.888 9.95c.468-.144.927-.316 1.376-.512a12.838 12.838 0 0 0 6.568-16.903l-18.615-42.36a8.532 8.532 0 0 0-4.273-4.34ZM31.756 63.027l22.301-22.502a.65.65 0 1 1 .923.916L32.631 63.986a9.242 9.242 0 0 1-5.896 2.131 9.12 9.12 0 0 1-6.352-2.57 8.604 8.604 0 0 1-.844-11.434l31.34-33.518a.65.65 0 1 1 .95.889l-31.3 33.468a7.293 7.293 0 0 0 .757 9.66 7.86 7.86 0 0 0 10.47.414Zm50.269 7.283a7.68 7.68 0 0 1-4.267 1.294 7.69 7.69 0 0 1-7.68-7.68 7.68 7.68 0 1 1 11.947 6.386Zm-.722-11.69a6.38 6.38 0 0 0-3.545-1.076 6.386 6.386 0 0 0-6.38 6.38 6.38 6.38 0 1 0 9.925-5.305ZM66.53 24.153a3.84 3.84 0 0 1-2.134.647 3.846 3.846 0 0 1-3.84-3.842 3.841 3.841 0 1 1 5.974 3.195Zm-.723-5.307a2.54 2.54 0 1 0-2.822 4.223 2.54 2.54 0 0 0 2.822-4.223ZM23.25 59.43a3.84 3.84 0 0 1-.647-2.133 3.846 3.846 0 0 1 3.84-3.84 3.84 3.84 0 1 1-3.193 5.973Zm5.305-.722a2.54 2.54 0 1 0-4.224-2.822 2.54 2.54 0 0 0 4.224 2.822Zm-17.475 3.959a9.994 9.994 0 1 1 1.368 19.893.65.65 0 0 1 0-1.3 8.693 8.693 0 0 0 8.212-11.54 8.693 8.693 0 1 0-16.427 5.692.65.65 0 1 1-1.229.426 9.993 9.993 0 0 1 8.076-13.171Zm51.54 21.307H92.9a.65.65 0 0 1 0 1.3H62.618a.65.65 0 0 1 0-1.3Z"/>
</svg>
