<svg id="icon-products-cdn-service" viewBox="0 0 96 96" xmlns="http://www.w3.org/2000/svg">
  <path fill-rule="evenodd" d="M93.547 91.287a.65.65 0 0 0-.275-.533l-10.119-7.117a.632.632 0 0 0 .092-.313V34.602a.65.65 0 0 0-.65-.65h-34.23v-8.69a3.589 3.589 0 0 0 2.871-2.871h6.284a5.811 5.811 0 0 0 .002-11.622h-.005c-.283 0-.565.02-.845.062a9.013 9.013 0 0 0-17.22-2.568 7.16 7.16 0 1 0-1.643 14.128h6.382a3.587 3.587 0 0 0 2.873 2.872v8.689h-33.66a.65.65 0 0 0-.65.65v8.065h-.916a7.023 7.023 0 0 0-7.015 7.014v18.74a7.023 7.023 0 0 0 7.015 7.014h.916v7.89c.002.096.024.19.067.276l-9.698 7.054H3.1a.65.65 0 0 0-.65.65v1.2a.65.65 0 0 0 .65.65h89.8a.65.65 0 0 0 .65-.65v-1.2l-.001-.01-.002-.008ZM12.754 74.135h-.916a5.72 5.72 0 0 1-5.714-5.714V49.68a5.72 5.72 0 0 1 5.714-5.715h.916v30.17ZM44.19 21.09h-6.382a5.86 5.86 0 1 1 1.83-11.425l.601.197.213-.596a7.712 7.712 0 0 1 14.975 2.375l.023.84.807-.234c.41-.119.833-.18 1.26-.18v-.649l.004.65a4.51 4.51 0 1 1-.003 9.022h-6.283a3.58 3.58 0 0 0-7.045 0Zm1.235.65A2.287 2.287 0 1 1 50 21.738a2.287 2.287 0 0 1-4.575.002Zm-31.37 16.709h32.94c-.328 2.691-1.958 4.217-4.6 4.217h-28.34v-4.217Zm0 5.517h28.34c3.354 0 5.545-2.089 5.91-5.517h33.64v44.225h-67.89V43.966Zm-8.697 46.67 8.584-6.243h68.026l8.877 6.243H5.358ZM46.987 48.73a11.897 11.897 0 1 0 11.898 11.896A11.91 11.91 0 0 0 46.987 48.73Zm0 22.494a10.597 10.597 0 1 1 10.597-10.598 10.61 10.61 0 0 1-10.597 10.598Zm-3.208-5.706v-9.783l4.236 2.446 4.236 2.446-4.236 2.446-4.236 2.445Z"/>
</svg>
