<svg id="icon-products-cloud-storage" viewBox="0 0 96 96" xmlns="http://www.w3.org/2000/svg">
  <path d="M82.093 55.024a10.067 10.067 0 0 0-7.11-2.972.436.436 0 0 0-.074-.003c-.682 0-1.362.069-2.03.206a15.968 15.968 0 0 0-10.81-13.891c.077-.3.13-.607.16-.916V24.22l.003-.031-.004-.6v-.534h-.004l-.07-9.461h-.004c-.008-6.24-11.412-11.317-25.43-11.317-14.21 0-25.77 4.946-25.77 11.026 0 .05.007.098.01.148h-.01l.01 8.397h-.005l.002 15.289h-.008l.003 13.245c.44 4.656 6.082 8.379 15.091 9.957l.103-.589a12.59 12.59 0 0 0 12.585 12.548h4.53a.644.644 0 0 0-.353.569v6.59a.65.65 0 0 0 1.3 0v-6.59a.645.645 0 0 0-.353-.569H55.32a.633.633 0 0 0-.122.359v4.054H48.2a.65.65 0 0 0-.65.65v12.674a.65.65 0 0 0 1.3 0V78.01h6.997a.65.65 0 0 0 .65-.65v-4.703a.633.633 0 0 0-.123-.359h3.474v14.113a3.691 3.691 0 1 0 1.3-.001V72.298h3.49v9.288a.65.65 0 0 0 1.3 0v-9.288h8.99a10.123 10.123 0 0 0 7.165-17.274ZM60.93 37.387c-.02.204-.055.406-.104.605a15.97 15.97 0 0 0-18.374 8.694c-1.935.181-3.879.252-5.848.284-13.16 0-23.857-4.209-24.35-9.522v-9.973c3.392 4.621 13.002 7.906 24.351 7.906 11.328 0 20.922-3.279 24.323-7.927l.002 9.933Zm-.003-14.143v.94c-.525 5.461-11.412 9.897-24.322 9.897-12.96 0-23.882-4.46-24.347-9.888l-.007-7.495c3.33 4.171 12.745 7.025 24.47 7.025 11.746 0 20.92-2.707 24.16-6.777l.046 6.298ZM36.721 3.577c11.413 0 24.13 4.117 24.13 10.023 0 5.03-10.374 8.824-24.13 8.824-13.493 0-24.47-4.092-24.47-9.121 0-4.697 9.832-9.726 24.47-9.726ZM26.168 59.039c-8.215-1.459-13.547-4.817-13.919-8.718v-9.598c3.04 4.125 11.097 7.008 21.373 7.477a12.478 12.478 0 0 0-7.454 10.839Zm36.724 30.995a2.39 2.39 0 1 1-4.78 0 2.39 2.39 0 0 1 4.78 0Zm18.27-21.614a8.766 8.766 0 0 1-6.235 2.578H38.73A11.299 11.299 0 0 1 29.35 53.4a11.3 11.3 0 0 1 12.91-4.437.652.652 0 0 0 .816-.4 14.705 14.705 0 0 1 28.546 4.53.65.65 0 0 0 .831.606 8.788 8.788 0 0 1 2.416-.35.607.607 0 0 0 .066.003A8.824 8.824 0 0 1 81.16 68.42h.001Z"/>
</svg>
