<svg id="icon-devices-mobile-phone" viewBox="0 0 96 96" xmlns="http://www.w3.org/2000/svg">
  <path fill-rule="evenodd" d="M32.256 2.444h31.619a8.42 8.42 0 0 1 8.41 8.41v74.29a8.42 8.42 0 0 1-8.41 8.41h-31.62a8.42 8.42 0 0 1-8.41-8.41v-74.29a8.42 8.42 0 0 1 8.41-8.41Zm31.619 1.3h-31.62a7.12 7.12 0 0 0-6.952 5.63.602.602 0 0 1 .067-.013h45.39a.612.612 0 0 1 .068.014 7.12 7.12 0 0 0-6.953-5.63Zm-31.62 88.51h31.62a7.115 7.115 0 0 0 6.656-4.63H25.6a7.115 7.115 0 0 0 6.655 4.63Zm38.62-5.906c.07-.397.107-.8.11-1.203v-74.29c0-.043-.002-.086-.005-.13a2.3 2.3 0 0 1-.006-.105.635.635 0 0 1-.214.043H25.37a.635.635 0 0 1-.212-.043c-.001.035-.004.07-.006.104-.003.044-.006.087-.006.132v74.288c.002.395.037.79.106 1.18h45.506c.04.004.079.012.117.024Zm-19.98-8.195a3.316 3.316 0 1 1-6.632 0 3.316 3.316 0 0 1 6.632 0Z"/>
</svg>
