<svg id="icon-products-email-security" viewBox="0 0 96 96" xmlns="http://www.w3.org/2000/svg">
  <path fill-rule="evenodd" d="M71.177 29.205H87.78a5.717 5.717 0 0 1 5.71 5.71V81.38a5.717 5.717 0 0 1-5.71 5.71H8.161a5.717 5.717 0 0 1-5.71-5.71V34.915a5.717 5.717 0 0 1 5.71-5.711h16.604v-9.51a3.823 3.823 0 0 1 3.22-3.781l19.38-3.127a3.812 3.812 0 0 1 1.22 0l19.371 3.129a3.82 3.82 0 0 1 3.22 3.78v9.51ZM26.67 18.053a2.524 2.524 0 0 0-.602 1.642v25.084a16.032 16.032 0 0 0 5.22 11.919l14.991 13.471a2.53 2.53 0 0 0 3.382 0l15.021-13.497a15.945 15.945 0 0 0 5.196-11.855V19.695a2.522 2.522 0 0 0-2.128-2.498l-19.37-3.128a2.534 2.534 0 0 0-.805 0l-19.38 3.127a2.524 2.524 0 0 0-1.525.857ZM5.044 31.798a4.415 4.415 0 0 0-1.293 3.117v4.721l23.427 14.019a17.312 17.312 0 0 1-2.41-8.88v-14.27H8.16a4.415 4.415 0 0 0-3.117 1.293ZM29.1 56.32 3.751 41.15v30.628l29.728-11.363-3.065-2.754A17.28 17.28 0 0 1 29.1 56.32Zm61.795 28.176a4.415 4.415 0 0 0 1.293-3.117v-8.157L61.332 61.429 50.53 71.137a3.83 3.83 0 0 1-5.118 0l-10.934-9.826.038.1L3.751 73.169v8.21a4.415 4.415 0 0 0 4.41 4.41h79.616a4.415 4.415 0 0 0 3.117-1.293ZM62.418 60.452l29.77 11.379V41.07L66.905 56.246c-.424.488-.876.953-1.353 1.39l-3.135 2.816Zm6.402-6.87 23.367-14.029.002-4.638a4.415 4.415 0 0 0-4.41-4.411h-16.6v14.31a17.225 17.225 0 0 1-2.359 8.768Zm-11.072-1.974H37.84a.65.65 0 0 1-.65-.65V32.327a.65.65 0 0 1 .65-.65h1.902v-4.286c.017-.158.992-5.916 8.052-5.916 7.061 0 8.035 5.758 8.044 5.816l.007 4.386h1.903a.65.65 0 0 1 .65.65v18.631a.65.65 0 0 1-.65.65Zm-8.73-6.57v-2.553a2.365 2.365 0 1 0-2.36.046v2.507a.65.65 0 0 0 .65.65h1.06a.65.65 0 0 0 .65-.65Zm-1.225-22.264c-5.678 0-6.652 4.164-6.75 4.674v4.229h13.502v-4.229c-.098-.511-1.072-4.674-6.752-4.674Z"/>
</svg>
