<svg id="icon-products-collaboration" viewBox="0 0 96 96" xmlns="http://www.w3.org/2000/svg">
  <path fill-rule="evenodd" d="M41.51 26.082v7.645h17.57l6.468 2.189-3.371-4.998v-8.927h-11.18v-6.775H31.94v8.222l-3.178 4.702 6.075-2.058h6.673Zm9.486-2.791h9.88v8.024l1.44 2.135-2.92-.989-16.586-.034v-6.345h4.319a1.687 1.687 0 1 0 .81 0h3.057v-2.791Zm-3.85 4.423a.387.387 0 1 1 .775 0 .387.387 0 0 1-.774 0ZM32.002 25.67l1.24-1.834v-7.32h16.455v8.266H34.73L32 25.67Zm58.586 38.08-5.65-3.022-2.108-1.182a5.775 5.775 0 0 0-4.842-.38l-2.89 1.07a4.497 4.497 0 0 1-3.068.02l-3.014-1.076a5.792 5.792 0 0 0-4.77.4l-7.687 4.174a5.778 5.778 0 0 0-3.05 5.1v6.143a5.794 5.794 0 0 0 5.786 5.787h28.568a5.795 5.795 0 0 0 5.782-5.79v-6.14a5.78 5.78 0 0 0-3.057-5.104Zm1.757 11.245a4.494 4.494 0 0 1-4.482 4.49H59.294a4.493 4.493 0 0 1-4.487-4.488v-6.143a4.48 4.48 0 0 1 2.365-3.955l5.627-3.02 2.08-1.165a4.49 4.49 0 0 1 3.7-.31l3.014 1.077a5.8 5.8 0 0 0 3.954-.025l2.89-1.07a4.48 4.48 0 0 1 3.757.294l7.78 4.217a4.48 4.48 0 0 1 2.37 3.957v6.141Zm-18.76-17.058c5.938 0 10.77-5.93 10.77-13.22 0-7.29-4.832-13.221-10.77-13.221-5.939 0-10.772 5.93-10.772 13.22 0 7.29 4.832 13.221 10.77 13.221h.002Zm0-25.142c5.221 0 9.47 5.348 9.47 11.921 0 6.573-4.249 11.921-9.47 11.921-5.222 0-9.472-5.347-9.472-11.92 0-6.573 4.249-11.922 9.47-11.922h.002ZM39.435 63.75l-5.651-3.022-2.107-1.182a5.776 5.776 0 0 0-4.843-.38l-2.89 1.07a4.49 4.49 0 0 1-3.067.02l-3.015-1.076a5.792 5.792 0 0 0-4.77.4l-7.686 4.174a5.776 5.776 0 0 0-3.05 5.1v6.143a5.794 5.794 0 0 0 5.786 5.787H36.71a5.795 5.795 0 0 0 5.783-5.79v-6.14a5.779 5.779 0 0 0-3.056-5.104Zm1.758 11.245a4.493 4.493 0 0 1-4.485 4.49H8.143a4.493 4.493 0 0 1-4.487-4.488v-6.143a4.478 4.478 0 0 1 2.365-3.955l5.625-3.02 2.082-1.165a4.488 4.488 0 0 1 3.699-.31l3.015 1.077c1.28.456 2.68.447 3.954-.025l2.89-1.07a4.48 4.48 0 0 1 3.756.294l7.78 4.217a4.48 4.48 0 0 1 2.37 3.957l.002 6.141ZM22.43 57.937c5.94 0 10.77-5.93 10.77-13.22 0-7.29-4.83-13.221-10.77-13.221-5.94 0-10.77 5.93-10.77 13.22 0 7.29 4.831 13.221 10.77 13.221Zm0-25.142c5.223 0 9.47 5.348 9.47 11.921 0 6.573-4.247 11.921-9.47 11.921-5.222 0-9.47-5.347-9.47-11.92 0-6.573 4.248-11.922 9.47-11.922ZM56.228 29.4a1.688 1.688 0 1 0-.003 0h.003Zm-.003-2.073a.387.387 0 1 1 .002.774h-.002a.387.387 0 0 1 0-.774Zm-4.26 2.073a1.688 1.688 0 1 0 0-3.375 1.688 1.688 0 0 0-.002 3.375h.002Zm-.002-2.073a.387.387 0 1 1 0 .775.387.387 0 0 1 0-.775Zm-7.437-8.149a1.604 1.604 0 1 1 1.783 2.667 1.604 1.604 0 0 1-1.782-2.667Zm.723 1.585a.304.304 0 1 0 .34-.505.304.304 0 0 0-.34.505Zm-4.782-1.585a1.604 1.604 0 1 1 1.782 2.667 1.604 1.604 0 0 1-1.782-2.667Zm.722 1.586a.304.304 0 1 0 .338-.506.304.304 0 0 0-.338.506Zm-4.63-1.586a1.604 1.604 0 1 1 1.78 2.668 1.604 1.604 0 0 1-1.78-2.668Zm.722 1.586a.304.304 0 1 0 .336-.506.304.304 0 0 0-.336.506Z"/>
</svg>
