<svg id="icon-places-hospital" viewBox="0 0 96 96" xmlns="http://www.w3.org/2000/svg">
  <path fill-rule="evenodd" d="M39.516 53.412H9.89a.65.65 0 0 0-.65.65v8.714a.65.65 0 0 0 .65.65h29.627a.65.65 0 0 0 .65-.65v-8.714a.65.65 0 0 0-.65-.65Zm-.65 8.714H10.538v-7.414h28.328v7.414Zm.65 5.807H9.89a.65.65 0 0 0-.65.65v8.714a.65.65 0 0 0 .65.65h29.627a.65.65 0 0 0 .65-.65v-8.714a.65.65 0 0 0-.65-.65Zm-.65 8.715H10.538v-7.415h28.328v7.415Zm24.655-14.27h6.822a.65.65 0 0 0 .65-.65v-5.704a.65.65 0 0 0-.65-.65H63.52a.65.65 0 0 0-.65.65v5.704a.65.65 0 0 0 .65.65h.001Zm.65-5.705h5.522v4.405H64.17l.001-4.405Zm-.65-7.12h6.822a.65.65 0 0 0 .65-.65v-5.705a.65.65 0 0 0-.65-.65H63.52a.65.65 0 0 0-.65.65v5.704a.65.65 0 0 0 .65.65h.001Zm.65-5.705h5.522v4.404H64.17l.001-4.404Zm-.65-7.128h6.822a.65.65 0 0 0 .65-.65v-5.704a.65.65 0 0 0-.65-.65H63.52a.65.65 0 0 0-.65.65v5.704a.65.65 0 0 0 .65.65h.001Zm.65-5.704h5.522v4.404H64.17l.001-4.404Zm-.65-7.128h6.822a.65.65 0 0 0 .65-.65v-5.704a.65.65 0 0 0-.65-.65H63.52a.65.65 0 0 0-.65.65v5.704a.65.65 0 0 0 .65.65h.001Zm.65-5.704h5.522v4.404H64.17l.001-4.404ZM50.935 62.378h6.821a.65.65 0 0 0 .65-.65v-5.704a.65.65 0 0 0-.65-.65h-6.82a.65.65 0 0 0-.65.65v5.704a.65.65 0 0 0 .65.65Zm.65-5.705h5.521v4.405h-5.52v-4.405Zm-.65-7.12h6.821a.65.65 0 0 0 .65-.65v-5.705a.65.65 0 0 0-.65-.65h-6.82a.65.65 0 0 0-.65.65v5.704a.65.65 0 0 0 .65.65Zm.65-5.705h5.521v4.404h-5.52v-4.404Zm-.65-7.128h6.821a.65.65 0 0 0 .65-.65v-5.704a.65.65 0 0 0-.65-.65h-6.82a.65.65 0 0 0-.65.65v5.704a.65.65 0 0 0 .65.65Zm.65-5.704h5.521v4.404h-5.52v-4.404Zm-.65-7.128h6.821a.65.65 0 0 0 .65-.65v-5.704a.65.65 0 0 0-.65-.65h-6.82a.65.65 0 0 0-.65.65v5.704a.65.65 0 0 0 .65.65Zm.65-5.704h5.521v4.404h-5.52v-4.404Zm24.523 44.194h6.821a.65.65 0 0 0 .65-.65v-5.704a.652.652 0 0 0-.65-.65h-6.82a.65.65 0 0 0-.65.65v5.704a.65.65 0 0 0 .65.65Zm.65-5.705h5.521v4.405h-5.52v-4.405Zm-.65-7.12h6.821a.65.65 0 0 0 .65-.65v-5.705a.652.652 0 0 0-.65-.65h-6.82a.65.65 0 0 0-.65.65v5.704a.65.65 0 0 0 .65.65Zm.65-5.705h5.521v4.404h-5.52v-4.404Zm-.65-7.128h6.821a.65.65 0 0 0 .65-.65v-5.704a.652.652 0 0 0-.65-.65h-6.82a.65.65 0 0 0-.65.65v5.704a.65.65 0 0 0 .65.65Zm.65-5.704h5.521v4.404h-5.52v-4.404Zm-.65-7.128h6.821a.65.65 0 0 0 .65-.65v-5.704a.652.652 0 0 0-.65-.65h-6.82a.65.65 0 0 0-.65.65v5.704a.65.65 0 0 0 .65.65Zm.65-5.704h5.521v4.404h-5.52v-4.404ZM19.93 39.895a2.216 2.216 0 0 0 3.01.003l7.506-6.885a9.201 9.201 0 0 0 2.9-6.765V13.453a2.254 2.254 0 0 0-1.88-2.247L21.79 9.612a2.16 2.16 0 0 0-.718 0L11.4 11.206h-.006a2.254 2.254 0 0 0-1.874 2.241v12.78a9.244 9.244 0 0 0 2.923 6.802l7.486 6.866Zm-9.11-26.452a.96.96 0 0 1 .795-.955l9.671-1.593a.953.953 0 0 1 .294 0l9.668 1.593a.959.959 0 0 1 .797.96v12.806a7.896 7.896 0 0 1-2.483 5.806l-7.506 6.883a.915.915 0 0 1-1.244-.003l-7.484-6.864a7.94 7.94 0 0 1-2.507-5.845V13.443Zm81.898-3.555h-50.83a.65.65 0 0 0-.65.65V45.18H3.162a.65.65 0 0 0-.65.65v39.938a.65.65 0 0 0 .65.65h89.556a.651.651 0 0 0 .65-.65v-75.23a.65.65 0 0 0-.65-.65h-.001Zm-35.993 75.23a.641.641 0 0 0 .338-.56V70.13h20.48v14.429a.643.643 0 0 0 .338.559H56.724Zm35.343 0H78.504a.641.641 0 0 0 .338-.56V69.48a.65.65 0 0 0-.65-.65h-21.78a.65.65 0 0 0-.65.65v15.08a.643.643 0 0 0 .339.559H3.81v-38.64h38.077a.65.65 0 0 0 .65-.65V11.189h49.53v73.93ZM23.505 29.664h-4.703v-4.239H14.65v-4.8h4.153v-4.238h4.703v4.238h4.153v4.8h-4.153v4.239Z"/>
</svg>
