<svg id="icon-devices-router" viewBox="0 0 96 96" xmlns="http://www.w3.org/2000/svg">
  <path fill-rule="evenodd" d="M28.64 24.985c-.166.163-.332.328-.496.495v-.001a.65.65 0 0 1-.928-.912 27.242 27.242 0 0 1 38.999.156.65.65 0 1 1-.935.902 25.94 25.94 0 0 0-36.64-.64Zm31.11 5.837a.65.65 0 0 0 .468-1.102 18.875 18.875 0 0 0-26.69-.459l-.353.35a.65.65 0 1 0 .924.916l.334-.332a17.574 17.574 0 0 1 24.85.428.647.647 0 0 0 .467.2Zm3.338 34.445h-.018a3.61 3.61 0 0 1-.08-7.216 3.733 3.733 0 0 1 3.772 3.673v.035a3.67 3.67 0 0 1-3.674 3.508Zm-.905-5.721c-.28.124-.532.303-.741.526a2.32 2.32 0 0 0 1.632 3.894h.012a2.371 2.371 0 0 0 2.376-2.25 2.41 2.41 0 0 0-2.391-2.366 2.289 2.289 0 0 0-.888.196Zm9.88 5.72h-.017a3.61 3.61 0 0 1-.08-7.215 3.733 3.733 0 0 1 3.772 3.673v.035a3.67 3.67 0 0 1-3.675 3.508Zm-.905-5.72c-.28.124-.532.303-.741.526a2.32 2.32 0 0 0 1.632 3.894h.012a2.372 2.372 0 0 0 2.377-2.25 2.41 2.41 0 0 0-2.393-2.366 2.285 2.285 0 0 0-.887.196Zm9.969 5.724h-.055l.001-.001a3.62 3.62 0 0 1-2.63-6.085 3.633 3.633 0 0 1 6.27 2.385v.17a3.592 3.592 0 0 1-3.586 3.53Zm-.985-5.727a2.3 2.3 0 0 0-.75.529h.001a2.32 2.32 0 0 0 1.632 3.896h.041a2.3 2.3 0 0 0 2.347-2.248v-.12a2.313 2.313 0 0 0-2.313-2.251h-.06c-.31.003-.615.07-.898.194ZM39.808 34.12l.182-.18a9.586 9.586 0 0 1 13.554.236.65.65 0 0 1-.935.903 8.287 8.287 0 0 0-11.716-.203l-.157.157a.65.65 0 1 1-.928-.913Zm40.819 15.123h12.342a.651.651 0 0 1 .65.65v23.674a.65.65 0 0 1-.65.65H3.318a.65.65 0 0 1-.65-.65V49.893a.65.65 0 0 1 .65-.65h9.684l-.074-14.994a.651.651 0 0 1 .647-.654h.004a.65.65 0 0 1 .65.648l.074 15H79.38a.622.622 0 0 1-.027-.13l-.073-14.36a.65.65 0 0 1 .647-.653h.003a.65.65 0 0 1 .65.647l.074 14.36a.624.624 0 0 1-.027.136ZM3.968 72.917h88.351l-.001-22.373H3.968v22.373Z"/>
</svg>
