<svg id="icon-products-threat-intelligence" viewBox="0 0 96 96" xmlns="http://www.w3.org/2000/svg">
  <path fill-rule="evenodd" d="M86.69 29.461h2.725a2.186 2.186 0 0 1 2.183 2.184l-.008.109-7.659 45.45a2.187 2.187 0 0 1-2.182 2.125h-67.5a2.187 2.187 0 0 1-2.183-2.124L4.4 31.645a2.186 2.186 0 0 1 2.185-2.184H9.32a2.166 2.166 0 0 1-.19-.882v-9.724a2.186 2.186 0 0 1 2.183-2.184h16.471l4.388 4.602h52.53a2.188 2.188 0 0 1 2.18 2.184v5.121a2.165 2.165 0 0 1-.192.883Zm-76-11.23a.884.884 0 0 0-.26.624v9.723a.884.884 0 0 0 .883.881H84.7a.884.884 0 0 0 .884-.882v-5.12a.884.884 0 0 0-.883-.883H31.616l-4.387-4.602H11.314a.884.884 0 0 0-.624.259Zm71.944 58.914.01-.108 7.654-45.439a.884.884 0 0 0-.882-.836H6.584a.884.884 0 0 0-.882.836l7.664 45.547a.884.884 0 0 0 .884.883h67.5a.885.885 0 0 0 .884-.883ZM40.475 43.119a13.558 13.558 0 0 1 7.532-2.285 13.573 13.573 0 0 1 13.558 13.56 13.558 13.558 0 1 1-21.09-11.275Zm.555 21.716a12.558 12.558 0 0 0 6.977 2.116 12.573 12.573 0 0 0 12.558-12.558A12.558 12.558 0 1 0 41.03 64.835Zm5.005-15.257c-.355.397-.59.885-.68 1.41v.718a.5.5 0 1 0 1 0l-.008-.63a1.693 1.693 0 0 1 3.31-.088v.718a.5.5 0 1 0 1 0l-.007-.807a2.667 2.667 0 0 0-.667-1.333l1.35-3.035a.5.5 0 0 0-.915-.406l-1.26 2.834a2.65 2.65 0 0 0-1.631-.224c-.233.044-.46.12-.672.225l-1.26-2.835a.5.5 0 0 0-.914.406l1.354 3.047Zm8.429 6.8c.056.06.097.13.12.209l.716 2.51a.499.499 0 0 1-.481.638.5.5 0 0 1-.48-.362l-.645-2.257-1.25-.417v1.287a4.577 4.577 0 0 1-.133.894l1.377 1.03c.103.077.172.19.194.318l.358 2.151a.5.5 0 1 1-.986.164l-.325-1.953-.992-.742a4.404 4.404 0 0 1-3.738 2.404c-.069.005-.136.005-.204.005a4.386 4.386 0 0 1-3.93-2.4l-.98.733-.325 1.953a.5.5 0 0 1-.987-.164l.357-2.151a.5.5 0 0 1 .194-.318l1.361-1.018a4.505 4.505 0 0 1-.13-.884v-1.305l-1.236.413-.646 2.257a.5.5 0 0 1-.962-.276l.718-2.51a.502.502 0 0 1 .322-.337l1.803-.601v-.537l.008-.644-1.238-.927a.504.504 0 0 1-.181-.262l-.718-2.509a.501.501 0 0 1 .964-.275l.67 2.347.894.669.92-1.057a.5.5 0 0 1 .377-.172h5.505a.5.5 0 0 1 .377.173l.92 1.062.903-.676.67-2.346a.5.5 0 0 1 .962.275l-.719 2.509a.503.503 0 0 1-.18.263l-1.252.937.008.633v.532l1.816.606c.078.026.147.07.204.129Zm-5.957-1.346v6.173a3.42 3.42 0 0 0 2.937-3.242v-2.852l-.01-.78-.907-1.05h-5.05l-.912 1.05-.01.781v.895a.493.493 0 0 1 0 .057v1.922a3.442 3.442 0 0 0 2.952 3.232v-6.186a.5.5 0 0 1 1 0Z"/>
</svg>
