<svg id="icon-business-cost-control-dollar" viewBox="0 0 96 96" xmlns="http://www.w3.org/2000/svg">
  <path fill-rule="evenodd" d="M41.004 7.338a38.987 38.987 0 0 1 27.805 6.639l-10.057 1.561a.65.65 0 0 0 .198 1.284l11.626-1.804a.63.63 0 0 0 .303-.146.615.615 0 0 0 .2-.28.62.62 0 0 0 .03-.088.646.646 0 0 0 .01-.213v-.015l-.002-.004-1.42-11.258a.65.65 0 0 0-1.29.163l1.235 9.786a40.555 40.555 0 0 0-53.007 60.77.65.65 0 0 0 .955-.882A39.255 39.255 0 0 1 41.004 7.338Zm38.403 14.557a.65.65 0 0 0-.955.881A39.255 39.255 0 0 1 27.8 82.048l9.727-2.933a.65.65 0 0 0-.375-1.245l-10.95 3.302a.062.062 0 0 1-.016 0l-.016.001a.632.632 0 0 0-.328.209l-.01.01a.637.637 0 0 0-.147.562l2.595 11.099a.65.65 0 1 0 1.266-.296l-2.212-9.458a40.555 40.555 0 0 0 52.072-61.404ZM48.02 75.531A27.72 27.72 0 1 0 20.3 47.812a27.75 27.75 0 0 0 27.72 27.72v-.001Zm0-54.138A26.42 26.42 0 1 1 21.6 47.812a26.45 26.45 0 0 1 26.42-26.42v.001Zm-7.128 32.079a13.08 13.08 0 0 0 6.13 1.623c2.098 0 3.544-.811 3.544-2.288 0-1.398-1.18-2.292-3.913-3.215-3.954-1.331-6.645-3.176-6.645-6.757 0-3.25 2.29-5.798 6.24-6.573v-3.51h3.62v3.25c1.851.03 3.676.447 5.356 1.224l-1.07 4.175a12.26 12.26 0 0 0-5.317-1.256c-2.4 0-3.178 1.034-3.178 2.07 0 1.224 1.293 1.993 4.433 3.175 4.394 1.551 6.168 3.579 6.168 6.908 0 3.287-2.328 6.092-6.576 6.832v3.766l-3.62-.018v-3.496a14.893 14.893 0 0 1-6.28-1.59l1.108-4.32Z"/>
</svg>
