<svg id="icon-products-custom-backgrounds" viewBox="0 0 96 96" xmlns="http://www.w3.org/2000/svg">
  <path d="M89.198 9.826H6.802a4.357 4.357 0 0 0-4.352 4.352v57.528a4.357 4.357 0 0 0 4.352 4.352h37.49v4.395h-7.68a1.852 1.852 0 0 0-1.853 1.852v2.017a1.852 1.852 0 0 0 1.852 1.852h22.781a1.852 1.852 0 0 0 1.852-1.852v-2.017a1.852 1.852 0 0 0-1.852-1.852H51.71v-4.395H89.2a4.357 4.357 0 0 0 4.351-4.352V14.178A4.357 4.357 0 0 0 89.2 9.826ZM48 13.03a1.325 1.325 0 1 1 0 2.65 1.325 1.325 0 0 1 0-2.65ZM6.802 74.758a3.056 3.056 0 0 1-3.052-3.052V56.13c5.41 1.376 22.908 4.543 23.75 4.692.123.011 1.4.12 3.1.242a5.537 5.537 0 0 0-1.023 3.195v5.87a5.558 5.558 0 0 0 2.49 4.628l-25.265.001Zm55.627-.371H35.135a4.267 4.267 0 0 1-4.259-4.258V64.26a4.25 4.25 0 0 1 2.246-3.752l5.372-2.883 1.99-1.113a4.253 4.253 0 0 1 3.508-.294l2.881 1.029c1.23.437 2.574.43 3.798-.023l2.76-1.024a4.25 4.25 0 0 1 3.564.276l7.44 4.027a4.256 4.256 0 0 1 2.248 3.755v5.866a4.264 4.264 0 0 1-4.254 4.263Zm29.821-2.681a3.056 3.056 0 0 1-3.052 3.052H65.493a5.555 5.555 0 0 0 2.49-4.634v-5.866a5.55 5.55 0 0 0-2.936-4.901l-5.4-2.887-.283-.158c.98-.223 1.971-.44 2.974-.64 9.537-1.901 26.612.129 29.912.551v15.483Zm0-16.795c-3.75-.483-20.454-2.453-30.167-.513-1.474.296-2.942.62-4.405.97l-.048-.026a5.55 5.55 0 0 0-4.65-.36l-2.76 1.023a4.262 4.262 0 0 1-2.91.017l-2.88-1.028a5.553 5.553 0 0 0-4.58.384l-7.343 3.985c-.257.14-.503.3-.736.48-2.258-.152-4.083-.307-4.1-.307-.196-.035-19.009-3.44-23.92-4.747v-8.58l14.72-17.62 10.671 12.648 5.64-6.928 3.888 4.361a15.451 15.451 0 0 0-.208 2.532c0 6.98 4.63 12.658 10.318 12.658 4.494 0 8.315-3.548 9.728-8.476l4.428 5.15L75.19 34.303l12.665 16.399 4.396-5.184v9.393ZM39.762 41.2c0-6.261 4.046-11.356 9.018-11.356s9.018 5.095 9.018 11.358c0 6.263-4.045 11.357-9.018 11.357-4.973 0-9.018-5.095-9.018-11.358V41.2Zm52.488 2.307-4.349 5.128L75.177 32.16 62.871 48.464l-3.997-4.647c.149-.863.224-1.738.224-2.614 0-6.98-4.628-12.658-10.318-12.658-4.522 0-8.365 3.593-9.755 8.57l-4.289-4.81-5.612 6.894-10.658-12.63L3.75 44.181V18.235h88.5v25.272Z"/>
</svg>
