<svg id="icon-products-portal" viewBox="0 0 96 96" xmlns="http://www.w3.org/2000/svg">
  <path fill-rule="evenodd" d="M93.631 74.977c.058.098.088.21.089.323l.003.015v1.21a.65.65 0 0 1-.65.65H2.71a.65.65 0 0 1-.65-.65v-1.21l.002-.013a.058.058 0 0 0 .004-.013.643.643 0 0 1 .194-.44l.01-.007a.636.636 0 0 1 .117-.096L12.56 68.88a.634.634 0 0 1-.133-.375V19.48a.65.65 0 0 1 .65-.65h64.175a.689.689 0 0 1 .08-.005h5.37a.65.65 0 0 1 .65.65v49.03a.638.638 0 0 1-.25.5l10.29 5.737a.643.643 0 0 1 .238.235ZM81.517 20.13H13.73v43.498h68.323V20.126h-.456a.69.69 0 0 1-.08.004ZM48.768 66.766c.116-.173.178-.377.179-.586v-.001a1.056 1.056 0 1 0-.179.587Zm-35.415 3.159L5.14 74.66l85.435-.001-8.492-4.734h-68.73ZM37.3 33.2H20.247v26.826h38.235V51.35h17.053V24.524H37.301V33.2Zm-15.753 1.301h15.753v4.093H21.548v-4.093Zm35.633 24.225H21.548V39.895h15.753V51.35h19.88v7.376Zm-18.58-32.9h35.634v4.091H38.602v-4.091Zm0 5.392h35.634v18.83H38.602v-18.83Zm-15.097 4.504-.119-.385h-.154l-.118.384-.102-.382h-.18l.193.635h.16l.123-.387.121.387h.161l.196-.635h-.177l-.104.383Zm.996 0-.119-.385h-.154l-.118.384-.102-.382h-.18l.193.635h.16l.123-.387.121.387h.161l.196-.635h-.177l-.104.383Zm.996 0-.119-.385h-.154l-.118.384-.102-.382h-.18l.193.635h.16l.123-.387.121.387h.161l.197-.635H25.6l-.104.383Zm15.062-8.676-.119-.385h-.155l-.118.384-.1-.382h-.182l.193.635h.161l.123-.387.121.387h.161l.196-.635h-.178l-.103.383Zm.996 0-.119-.385h-.155l-.118.384-.1-.382h-.182l.193.635h.161l.123-.387.121.387h.161l.196-.635h-.178l-.103.383Zm.996 0-.119-.385h-.154l-.119.384-.1-.382h-.182l.194.635h.16l.123-.387.121.387h.161l.196-.635h-.177l-.104.383Z"/>
</svg>
