<svg id="icon-products-web-application-firewall" viewBox="0 0 96 96" xmlns="http://www.w3.org/2000/svg">
  <path d="M86.992 9.831h-66.04a6.23 6.23 0 0 0-6.19 6.44v15.1l-.002.01.002.01v13.421l-.002.01.002.01v2.72c-.248-.142-.494-.287-.75-.419l-.915-.468.202 1.036c.013.05.985 5.306-4.74 13.294l-.072.101-.158.18c-5.308 6.017-5.904 10.576-5.462 13.35.022.881.474 7.932 9.369 11.386l.007.004.36-.933-.003-.002a5.197 5.197 0 0 1-2.701-2.974c-.824-2.18-.463-4.999 1.067-8.392a5.652 5.652 0 0 0 2.429 3.762l.763.448-.01-.885a30.3 30.3 0 0 1 .614-5.81v.474a.65.65 0 0 0 .65.65h5.723l.016.015.131.103a11.734 11.734 0 0 1 2.875 7 7.103 7.103 0 0 1-3.006 5.68l-.19.15.55.867.18-.118c2.348-1.503 4.93-2.457 7.742-6.697a13.58 13.58 0 0 0 1.404-7H92.6a.65.65 0 0 0 .65-.65V16.402a6.31 6.31 0 0 0-6.258-6.57v-.001Zm-42.27 20.675v-9h28.735v9a.644.644 0 0 0 .047.224H44.677a.642.642 0 0 0 .045-.224ZM33.797 14.9a1.753 1.753 0 1 1 3.152 1.537 1.753 1.753 0 0 1-3.152-1.537Zm-4.38-.985a1.753 1.753 0 1 1 0 3.506 1.753 1.753 0 0 1 0-3.506Zm-5.805 0a1.753 1.753 0 1 1 0 3.506 1.753 1.753 0 0 1 0-3.506Zm-7.55 7.59h27.36v9a.645.645 0 0 0 .044.225H16.065v-9.225Zm0 10.526h47.224v12.063a.613.613 0 0 0 .016.078h-9.204a.24.24 0 0 1-.188 0H34.563l-.012-10.744a.65.65 0 0 0-.65-.65H33.9a.65.65 0 0 0-.65.652l.012 10.742h-17.2l.003-12.14Zm0 13.441h27.375a.61.61 0 0 0-.016.076v12.065H23.207a19.127 19.127 0 0 0-7.143-9.249v-2.892Zm0 25.581v-3.61c.52-1 1.29-1.848 2.236-2.459a12.474 12.474 0 0 0 1.62 6.07h-3.855Zm12.58 7.641a15.78 15.78 0 0 1-4.677 4.854 7.807 7.807 0 0 0 1.038-5.744 12.374 12.374 0 0 0-3.237-6.22l.003-.002c-2.44-1.91-2.81-7.967-2.81-7.967l-.553.216c-4.435 1.678-5.134 9.38-5.24 12.198-1.37-.937-1.847-5.184-1.847-5.184l-.646 1.175c-2.166 4.227-2.74 7.747-1.7 10.467.133.351.296.69.487 1.014-5.31-3.422-5.58-8.285-5.593-8.911l-.006-.338-.04-.017c-.336-2.583.358-6.744 5.258-12.298.11-.119.213-.246.307-.379 4.57-6.384 5.032-11.122 4.979-13.093a18.08 18.08 0 0 1 8.963 16.045.8.8 0 0 0 1.387.57 12.529 12.529 0 0 0 1.942-3.084c5.235 8.52 2.524 15.942 1.984 16.697l.002.001Zm4.608-19.556v11.915h-2.485a21.639 21.639 0 0 0-3.644-10.079c-.093-.145-.637-.887-.637-.887l-.28.675a30.33 30.33 0 0 1-1.866 3.206 18.82 18.82 0 0 0-.714-5.054h9.672a.642.642 0 0 0-.045.224Zm30.035 0v11.915H34.551V59.138a.641.641 0 0 0-.044-.224h28.825a.642.642 0 0 0-.047.224h.002ZM91.95 71.053H64.588V59.138a.641.641 0 0 0-.046-.224h27.407l.002 12.14Zm0-13.44H44.723V45.548a.608.608 0 0 0-.014-.076h9.203a.239.239 0 0 1 .186 0h19.348l.012 10.844a.651.651 0 0 0 .65.65h.002a.652.652 0 0 0 .65-.652l-.013-10.842H91.95v12.141Zm0-13.442H64.573a.598.598 0 0 0 .014-.077V32.031H91.95v12.14Zm0-13.44H74.713a.641.641 0 0 0 .046-.226v-9h17.19v9.226Z"/>
</svg>
