<svg id="icon-people-us-network" viewBox="0 0 96 96" xmlns="http://www.w3.org/2000/svg">
  <path d="m93.347 29.184-2.663-4.202a1.625 1.625 0 0 0-2.912.345l-1.403 4.104-15.04 9.1-3.217-6.698a1.318 1.318 0 0 0-.81-.69l-17.2-5.085a2.78 2.78 0 0 0-.18-.04l-41.28-6.305a1.301 1.301 0 0 0-1.47.976L2.488 39.717c-.065.262-.046.538.052.79l4.737 12.14c.085.216.225.406.406.55l12.188 9.649c.224.176.5.274.785.28l9.817.201 3.41 4.887a1.308 1.308 0 0 0 1.784.35l2.042-1.317 7.358 8.604a1.312 1.312 0 0 0 1.988-.005l6.957-8.152 15.285-1.667 6.734 6.73a1.794 1.794 0 0 0 2.953-1.893l-3.247-8.736 17.65-31.608a1.31 1.31 0 0 0-.04-1.336Zm-13.284 22.53-2.228.016-5.04-7.909a.651.651 0 0 0-.547-.3H53.573a4.009 4.009 0 1 0 .075 1.3H71.89l4.41 6.92-6.142.041a3.979 3.979 0 1 0 0 1.301l9.175-.063-4.73 8.473a1.31 1.31 0 0 0-.085 1.096l3.248 8.727a.495.495 0 0 1-.815.523l-6.733-6.73a1.313 1.313 0 0 0-1.069-.377l-15.28 1.67c-.33.037-.635.2-.852.453L46.052 75l-7.356-8.602a1.313 1.313 0 0 0-1.706-.242l-2.041 1.313-3.41-4.887a1.316 1.316 0 0 0-1.048-.56l-9.814-.198-12.19-9.651L3.93 40.489h5.762l6.152 8.915a.65.65 0 0 0 .534.282h17.617a3.977 3.977 0 1 0 0-1.301H16.721l-5.45-7.896h13.973a3.977 3.977 0 1 0 0-1.3H10.15a.653.653 0 0 0-.26 0H3.957l4.477-18.185c0-.002.002-.003.003-.004a.008.008 0 0 1 .005-.002h.002l41.284 6.305 17.211 5.093 3.218 6.696a1.31 1.31 0 0 0 1.748.613l.11-.06 15.028-9.103c.262-.159.461-.405.56-.696l1.4-4.1a.329.329 0 0 1 .286-.22.31.31 0 0 1 .126.018c.07.024.13.071.17.134l2.666 4.21-12.189 21.826ZM52.388 44.43a2.677 2.677 0 1 1-5.354.002 2.677 2.677 0 0 1 5.355-.002Zm16.536 8.006a2.677 2.677 0 1 1-5.354 0 2.677 2.677 0 0 1 5.354 0Zm-33.694-3.4a2.677 2.677 0 1 1 5.354 0 2.677 2.677 0 0 1-5.354-.001v.001Zm-8.751-9.197a2.677 2.677 0 1 1 5.354 0 2.677 2.677 0 0 1-5.354 0Z"/>
</svg>
