<svg id="icon-products-sd-wan-router-intelligent-routing" viewBox="0 0 96 96" xmlns="http://www.w3.org/2000/svg">
  <path fill-rule="evenodd" d="M12.854 68.097h.046a2.36 2.36 0 1 1 0 4.716 2.31 2.31 0 0 1-2.308-2.3 2.34 2.34 0 0 1 2.262-2.416Zm7.148 0h.049a2.36 2.36 0 1 1 0 4.716 2.31 2.31 0 0 1-2.308-2.3 2.339 2.339 0 0 1 2.26-2.416Zm7.153 0h.05a2.363 2.363 0 0 1 2.421 2.302v.114a2.338 2.338 0 0 1-2.374 2.301l-.048-.001a2.31 2.31 0 0 1-2.307-2.3 2.337 2.337 0 0 1 2.258-2.416Zm58.005-26.9a13.722 13.722 0 0 1 4.48 3.002 13.816 13.816 0 0 1-9.768 23.587.65.65 0 1 1 0-1.302 12.516 12.516 0 0 0 0-25.03h-.003c-1.18 0-2.354.166-3.488.495a.65.65 0 0 1-.83-.606 20.699 20.699 0 0 0-30.899-17.426 14.37 14.37 0 0 1-4.724 17.659 2.87 2.87 0 0 0-1.214 1.974h.17a1.582 1.582 0 1 1 0 3.164h-.864c-.144 3.042-3.34 6.562-3.376 6.59l-.138.113h-1.633a2.44 2.44 0 0 1-1.674.844c-.038.003-.075.003-.112.003a3.344 3.344 0 0 1-2.046-.847h-1.246v-.33l-.23.244c-.033-.028-3.085-3.56-3.21-6.617h-.863a1.582 1.582 0 1 1 0-3.164h.308a5.135 5.135 0 0 0-1.707-2.814 14.542 14.542 0 0 1-2.409-2.718 15.974 15.974 0 0 0-5.338 17.258.65.65 0 1 1-1.24.385 17.268 17.268 0 0 1 5.886-18.75A14.394 14.394 0 0 1 44.06 22.757a22.012 22.012 0 0 1 32.754 17.739 13.794 13.794 0 0 1 3.056-.343h.002c1.815-.005 3.613.35 5.29 1.044Zm-45.864 3.524a.582.582 0 0 0-.412-.17H23.492a.582.582 0 1 0 0 1.164h15.392a.582.582 0 0 0 .412-.994Zm-.115-4.209a13.103 13.103 0 1 0-16.248-.769 6.356 6.356 0 0 1 2.175 3.66l12.294.001a4.171 4.171 0 0 1 1.78-2.892ZM64.73 60.37h7.022v.001a3.316 3.316 0 0 1 3.31 3.312v13.544a3.315 3.315 0 0 1-3.31 3.312H5.626a3.315 3.315 0 0 1-3.312-3.312V63.683a3.316 3.316 0 0 1 3.312-3.312H63.43l-.058-11.415a.65.65 0 0 1 .648-.654h.002a.65.65 0 0 1 .65.648l.058 11.42Zm8.443 18.277c.377-.376.589-.887.59-1.42V63.683a2.014 2.014 0 0 0-2.01-2.012H5.624a2.014 2.014 0 0 0-2.012 2.012v13.544a2.013 2.013 0 0 0 2.012 2.01h66.127c.533 0 1.044-.213 1.42-.59Z"/>
</svg>
