<svg id="icon-platform-voice-unified-communications" viewBox="0 0 96 96" xmlns="http://www.w3.org/2000/svg">
  <path fill-rule="evenodd" d="M73.445 28.423v.933a8.443 8.443 0 0 1 8.269 8.428v2.488a8.45 8.45 0 0 1-8.438 8.439.975.975 0 0 1-.13-.012 1.35 1.35 0 0 0-.094-.01c-1.6 9.509-8.28 15.24-18.046 15.483a5.444 5.444 0 0 1-5.43 5.184h-2.033a5.442 5.442 0 1 1 0-10.885h2.033a5.45 5.45 0 0 1 5.34 4.405c9.305-.202 15.418-5.468 16.882-14.546a3.175 3.175 0 0 1-1.706-2.803V32.532a3.182 3.182 0 0 1 2.053-2.967v-1.11A24.694 24.694 0 0 0 47.45 3.745h-.016a24.696 24.696 0 0 0-24.68 24.71v1.06a3 3 0 0 1 2.057 2.83v13.358a3.007 3.007 0 0 1-3.003 3.005h-.002a8.267 8.267 0 0 1-8.256-8.257v-2.846a8.26 8.26 0 0 1 7.905-8.24v-.91a26.024 26.024 0 0 1 25.978-26.01h.017a25.994 25.994 0 0 1 25.994 25.978ZM23.512 45.706V32.348a1.7 1.7 0 0 0-.856-1.466h-1.2v-.217a6.96 6.96 0 0 0-6.605 6.94v2.846a6.966 6.966 0 0 0 6.956 6.958h.002a1.705 1.705 0 0 0 1.703-1.703Zm24.03 22.35h2.034a4.143 4.143 0 0 0 0-8.285h-2.033a4.143 4.143 0 0 0 0 8.285Zm30.779-22.738a7.148 7.148 0 0 0 2.093-5.046v-2.488a7.146 7.146 0 0 0-7.138-7.137 1.887 1.887 0 0 0-1.884 1.885v12.995a1.887 1.887 0 0 0 1.884 1.885 7.148 7.148 0 0 0 5.045-2.094ZM54.667 74.72a10.173 10.173 0 0 1-7.143 2.904v-.001h-.14a10.184 10.184 0 0 1-7.205-3.097.649.649 0 0 1 .475-1.104.65.65 0 0 1 .457.197 8.954 8.954 0 0 0 12.649.168l.17-.168a.65.65 0 0 1 .93.908l-.193.193Zm-21.764 3.899a.651.651 0 0 1 1.062-.197 18.916 18.916 0 0 0 27.11 0 .649.649 0 1 1 .93.907 20.078 20.078 0 0 1-14.478 6.115l-.278-.002a20.083 20.083 0 0 1-14.215-6.112.65.65 0 0 1-.131-.711Zm34.063 5.732c.177-.173.353-.348.526-.526a.65.65 0 0 1 .93.906 28.98 28.98 0 0 1-21.293 8.821 28.986 28.986 0 0 1-20.515-8.82.65.65 0 0 1 .932-.907 27.876 27.876 0 0 0 39.42.526Z"/>
</svg>
