<svg id="icon-products-lumen-edge-orchestrator" viewBox="0 0 96 96" xmlns="http://www.w3.org/2000/svg">
  <path fill-rule="evenodd" d="M23.993 56.485h.001a4.033 4.033 0 0 1 3.724 5.574 4.032 4.032 0 0 1-3.725 2.488h-.008a4.031 4.031 0 0 1 .008-8.062Zm-1.519 6.301a2.731 2.731 0 1 0 3.036-4.54 2.731 2.731 0 0 0-3.036 4.54Zm59.991-41.31h.04a11.139 11.139 0 0 1 .038 22.277h-.002a.65.65 0 1 1-.002-1.3 9.84 9.84 0 0 0-.034-19.676h-.036a9.864 9.864 0 0 0-2.675.38.649.649 0 0 1-.828-.607 16.357 16.357 0 0 0-31.755-5.045.65.65 0 0 1-.816.4 12.53 12.53 0 0 0-12.83 3.057.65.65 0 0 1-.92-.92 13.81 13.81 0 0 1 13.56-3.554 17.657 17.657 0 0 1 34.02 5.224 11.13 11.13 0 0 1 2.24-.236ZM46.388 72.89v.001a3.28 3.28 0 0 1-.001 6.558h-.001a3.28 3.28 0 0 1 0-6.559h.002Zm-1.402 4.68a1.98 1.98 0 1 0 1.403-3.38h-.003a1.98 1.98 0 0 0-1.4 3.38Zm34.23-47.496a6.178 6.178 0 0 0-6.17-6.17H8.612a6.178 6.178 0 0 0-6.17 6.17v54.407a6.178 6.178 0 0 0 6.17 6.17h64.432a6.179 6.179 0 0 0 6.17-6.17V36.786l.003-.01-.002-.009v-6.693Zm-1.3 6.053h-8.51a.65.65 0 1 0-.002 1.3h8.511V84.48a4.876 4.876 0 0 1-4.87 4.87H8.613a4.876 4.876 0 0 1-4.87-4.87V37.427h35.153a.65.65 0 0 0 .001-1.3H3.743v-6.053a4.876 4.876 0 0 1 4.87-4.87h64.432a4.875 4.875 0 0 1 4.87 4.87v6.053Zm-59.588-7.633a2.494 2.494 0 1 0 0 4.989 2.494 2.494 0 0 0 0-4.989Zm1.194 2.495a1.194 1.194 0 1 1-2.388.001 1.194 1.194 0 0 1 2.388-.002v.001Zm4.468-2.495a2.496 2.496 0 1 0 2.494 2.496v-.001a2.5 2.5 0 0 0-2.494-2.495Zm1.193 2.495a1.194 1.194 0 1 1 0-.002v.002Zm-12.518-2.495a2.495 2.495 0 1 0 .002 4.99 2.495 2.495 0 0 0-.002-4.99Zm0 3.69a1.195 1.195 0 1 1 0-2.39 1.195 1.195 0 0 1 0 2.39Zm52.186 4.043v-.001a.65.65 0 0 1 .812.277l3.36 5.838a.65.65 0 0 1-.17.841l-3.733 2.85c.035.359.054.723.055 1.086v.003c-.001.327-.016.653-.044.974l3.714 2.861a.651.651 0 0 1 .166.842l-3.383 5.824a.651.651 0 0 1-.814.273l-4.294-1.798c-.564.4-1.165.745-1.793 1.032l-.592 4.537a.65.65 0 0 1-.645.565h-6.734a.65.65 0 0 1-.645-.565l-.6-4.586c-.64-.3-1.25-.662-1.82-1.08l-4.242 1.756a.65.65 0 0 1-.811-.277l-3.36-5.838a.65.65 0 0 1 .169-.84l3.756-2.868c-.06-.788-.033-1.58.08-2.362l-3.566-2.745a.65.65 0 0 1-.166-.842l3.382-5.824a.65.65 0 0 1 .814-.272l4.57 1.912c.397-.25.81-.474 1.235-.67l.61-4.667a.65.65 0 0 1 .644-.566h6.735a.65.65 0 0 1 .645.566l.61 4.667a11 11 0 0 1 1.625.93l4.43-1.833Zm-1.02 9.264a.65.65 0 0 1 .207-.267l3.573-2.729-2.79-4.848-4.237 1.752a.652.652 0 0 1-.636-.078 9.694 9.694 0 0 0-2.004-1.146.65.65 0 0 1-.39-.515l-.584-4.463h-5.593l-.584 4.463a.65.65 0 0 1-.392.515 9.612 9.612 0 0 0-1.652.897.65.65 0 0 1-.615.06l-4.362-1.825-2.81 4.837 3.42 2.633a.65.65 0 0 1 .244.63 9.563 9.563 0 0 0-.096 2.754.652.652 0 0 1-.251.587l-3.59 2.739 2.79 4.85 4.06-1.68a.65.65 0 0 1 .65.09 9.724 9.724 0 0 0 2.176 1.293.65.65 0 0 1 .389.513l.572 4.379h5.594l.566-4.336a.65.65 0 0 1 .396-.516 9.649 9.649 0 0 0 2.157-1.24.648.648 0 0 1 .644-.083l4.107 1.719 2.81-4.837-3.55-2.735a.65.65 0 0 1-.25-.594 9.75 9.75 0 0 0-.012-2.484.65.65 0 0 1 .044-.335Zm-9.681-4.099a5.673 5.673 0 1 0-.075 11.346.61.61 0 0 0 .08.005 5.677 5.677 0 0 0-.005-11.351Zm-.254 9.792v-.001a4.123 4.123 0 1 1 .4-8.237 4.123 4.123 0 0 1-.4 8.238Zm-19.71 6.046-2.26-3.93a.65.65 0 0 0-.811-.276l-2.875 1.19a7.679 7.679 0 0 0-.924-.533l-.394-3.026a.65.65 0 0 0-.645-.566h-4.532a.65.65 0 0 0-.645.566l-.394 3.025a7.81 7.81 0 0 0-.653.356l-2.976-1.248a.65.65 0 0 0-.814.273l-2.275 3.92a.65.65 0 0 0 .166.841l2.302 1.773c-.059.463-.075.93-.047 1.397l-2.436 1.854a.65.65 0 0 0-.17.84l2.26 3.93a.648.648 0 0 0 .812.276l2.745-1.135c.336.237.69.447 1.06.627l.387 2.971a.65.65 0 0 0 .645.566h4.533a.65.65 0 0 0 .644-.566l.384-2.937c.36-.171.706-.37 1.036-.595l2.784 1.165a.653.653 0 0 0 .813-.273l2.275-3.92a.65.65 0 0 0-.167-.842l-2.41-1.85c.027-.394.025-.79-.006-1.184l2.42-1.848a.65.65 0 0 0 .168-.841Zm-3.668 1.878a.65.65 0 0 0-.25.602c.07.534.074 1.075.01 1.61a.649.649 0 0 0 .25.594l2.242 1.723-1.702 2.932-2.593-1.086a.646.646 0 0 0-.643.082 6.35 6.35 0 0 1-1.405.807.65.65 0 0 0-.396.517l-.356 2.732h-3.393l-.36-2.762a.65.65 0 0 0-.39-.514 6.315 6.315 0 0 1-1.418-.84.65.65 0 0 0-.65-.09l-2.558 1.058-1.69-2.94 2.264-1.723a.651.651 0 0 0 .253-.588 6.23 6.23 0 0 1 .063-1.793.652.652 0 0 0-.244-.63l-2.153-1.66 1.702-2.931 2.764 1.159a.648.648 0 0 0 .614-.061 6.34 6.34 0 0 1 1.076-.583.65.65 0 0 0 .393-.516l.367-2.818h3.392l.367 2.818a.648.648 0 0 0 .39.515c.463.197.9.45 1.304.75a.65.65 0 0 0 .637.08l2.679-1.108 1.69 2.94-2.256 1.724ZM54.44 73.543v-.001l-1.76-3.055a.65.65 0 0 0-.81-.277l-2.167.896a5.978 5.978 0 0 0-.6-.344l-.298-2.276a.65.65 0 0 0-.644-.566h-3.524a.65.65 0 0 0-.645.566l-.297 2.276a5.812 5.812 0 0 0-.387.21l-2.246-.94a.648.648 0 0 0-.812.273l-1.774 3.05a.65.65 0 0 0 .165.842l1.727 1.33a5.928 5.928 0 0 0-.031.951l-1.835 1.401a.65.65 0 0 0-.17.841l1.759 3.056a.65.65 0 0 0 .81.276l2.064-.853c.226.155.462.295.707.419l.292 2.234a.65.65 0 0 0 .644.566h3.525a.65.65 0 0 0 .644-.565l.29-2.207c.237-.117.467-.248.688-.394l2.093.875a.652.652 0 0 0 .814-.273l1.77-3.05a.652.652 0 0 0-.166-.84l-1.812-1.395a5.956 5.956 0 0 0-.004-.796l1.82-1.39a.65.65 0 0 0 .17-.84Zm-3.067 1.417a.65.65 0 0 0-.25.601 4.938 4.938 0 0 1 .006 1.223.65.65 0 0 0 .248.597l1.644 1.265-1.197 2.06-1.9-.793a.648.648 0 0 0-.644.082c-.326.247-.682.45-1.06.607a.649.649 0 0 0-.396.516l-.262 2H45.18l-.264-2.022a.65.65 0 0 0-.39-.514 4.72 4.72 0 0 1-1.067-.634.65.65 0 0 0-.65-.09l-1.875.775-1.19-2.067 1.663-1.268a.653.653 0 0 0 .252-.588 4.828 4.828 0 0 1 .047-1.354.65.65 0 0 0-.243-.63l-1.575-1.211 1.2-2.064 2.032.85a.644.644 0 0 0 .615-.06c.256-.172.528-.32.812-.44a.65.65 0 0 0 .39-.516l.27-2.065h2.385l.27 2.065a.651.651 0 0 0 .39.515c.35.148.68.337.985.564a.647.647 0 0 0 .636.079l1.967-.813 1.19 2.066-1.657 1.264Z"/>
</svg>
