<svg id="icon-products-financial-services" viewBox="0 0 96 96" xmlns="http://www.w3.org/2000/svg">
  <path fill-rule="evenodd" d="M27.454 33.387h-2.551a2.552 2.552 0 1 1 0-5.103h2.55a2.552 2.552 0 1 1 0 5.103Zm45.926-5.103h2.55a2.552 2.552 0 1 1 0 5.103h-2.55a2.552 2.552 0 1 1 0-5.103ZM52.22 9.677a2.55 2.55 0 0 1-1.803.747v-.002a2.55 2.55 0 0 1-2.551-2.55V5.32a2.551 2.551 0 0 1 5.102 0v2.553c0 .677-.269 1.325-.747 1.804ZM34.18 17.15a2.551 2.551 0 0 1-1.804-.747l-1.804-1.804a2.551 2.551 0 0 1 3.608-3.608l1.804 1.804a2.551 2.551 0 0 1-1.804 4.355ZM70.26 14.6l-1.803 1.804a2.55 2.55 0 1 1-3.607-3.608l1.804-1.804a2.55 2.55 0 1 1 3.607 3.608Zm.484 41.156a3.641 3.641 0 0 1 2.372 4.731l-2.992 7.96v.003a9.426 9.426 0 0 1-4.68 5.131L40.782 85.835a7.27 7.27 0 0 0-3.966 6.722.65.65 0 0 1-.65.673H18.167a.65.65 0 0 1-.624-.833l2.887-9.819a81.843 81.843 0 0 1 2.42-7.018l1.483-3.727a13.278 13.278 0 0 1 8.592-7.798l12.17-3.68a3.72 3.72 0 0 1 4.375 1.803 3.544 3.544 0 0 1-1.806 4.898l-6.125 2.633a1.58 1.58 0 0 0-.516 2.608 1.8 1.8 0 0 0 1.88.351l15.659-5.68a8.751 8.751 0 0 0 4.665-4.16l2.997-5.223a3.894 3.894 0 0 1 4.52-1.83Zm-1.836 12.233 2.99-7.953-.001-.001a2.34 2.34 0 0 0-1.395-2.991L70.374 57a2.595 2.595 0 0 0-3.021 1.228l-2.986 5.203a10.035 10.035 0 0 1-5.353 4.756l-15.656 5.677a3.13 3.13 0 0 1-3.228-.622 2.882 2.882 0 0 1 .906-4.752l6.123-2.633a2.25 2.25 0 0 0 1.156-3.1 2.42 2.42 0 0 0-2.841-1.159l-12.177 3.683a11.984 11.984 0 0 0-7.758 7.036l-1.48 3.723a80.401 80.401 0 0 0-2.382 6.905l-2.642 8.985H35.52a8.575 8.575 0 0 1 4.68-7.256l24.67-12.26a8.13 8.13 0 0 0 4.038-4.426Zm-8.45-22.476a17.15 17.15 0 0 1-9.528 2.89 17.17 17.17 0 0 1-17.15-17.15 17.15 17.15 0 1 1 26.678 14.26Zm-.722-27.44a15.85 15.85 0 0 0-8.806-2.67 15.868 15.868 0 0 0-15.85 15.85 15.85 15.85 0 1 0 24.656-13.18ZM41.539 38.37l.826-1.207c.501.416 1.091.71 1.725.858v-1.684c-1.524-.413-2.276-.985-2.276-2.245v-.021c0-1.165.89-1.938 2.223-2.076v-.614h1.102v.646c.71.092 1.387.357 1.97.773l-.71 1.239c-.402-.278-.845-.49-1.314-.625v1.61c1.61.434 2.3 1.08 2.3 2.267v.02c0 1.186-.912 1.949-2.246 2.086v1.049h-1.102v-1.07a5.323 5.323 0 0 1-2.498-1.006Zm4.3-.995c0-.35-.18-.572-.754-.784l.001 1.483c.498-.074.752-.297.752-.679v-.02Zm-2.48-3.399v.021c0 .339.15.55.73.762v-1.44c-.517.064-.73.317-.73.657ZM54.49 35.32h-.795v-1.07h.996a3.147 3.147 0 0 1 3.082-2.382 2.942 2.942 0 0 1 2.606 1.355l-1.229.932a1.669 1.669 0 0 0-1.408-.837 1.434 1.434 0 0 0-1.346.932h1.95v1.07h-2.204c-.01.116-.01.243-.01.37a3.36 3.36 0 0 0 .01.349h2.204v1.07h-1.972a1.493 1.493 0 0 0 1.43.974c.616 0 .965-.296 1.43-.868l1.164.858a2.991 2.991 0 0 1-2.593 1.461 3.13 3.13 0 0 1-3.135-2.425h-.975v-1.07h.795c-.01-.105-.01-.211-.01-.328 0-.127 0-.264.01-.391Zm-6.465-10.794v-1.144h1.514l-2.266-3.494h1.873l1.621 2.742 1.653-2.742h1.82l-2.275 3.494h1.523v1.144h-1.947v.656h1.947v1.144h-1.947v.974h-1.568v-.974h-1.948v-1.144h1.948v-.656h-1.948Z"/>
</svg>
