<svg id="icon-business-trust-confidence" viewBox="0 0 96 96" xmlns="http://www.w3.org/2000/svg">
  <path d="m83.677 19.829-.28-.786-10.97 7.315 1.056 2.39-7.109 4.442.678 1.248a8.443 8.443 0 0 1-5.136.188 29.098 29.098 0 0 1-2.983-.854 16.121 16.121 0 0 0-7.578-.927 64.25 64.25 0 0 0-7.335.887 8.703 8.703 0 0 0-5.467 3.032 79.836 79.836 0 0 1-9.55-2.43l.622-1.144-7.11-4.442 1.058-2.39L12.6 19.043l-.28.786C1.967 48.962 2.357 49.756 2.503 50.055l.142.263.257.086c.378.128 2.704 1.535 4.735 2.822l.535.339 2.477-3.695 7.269 4.873 1.107-2.037 3.939 5.034-1.03 1.437-.091.183a4.434 4.434 0 0 0 .462 3.525 4.728 4.728 0 0 0 3.393 1.871 4.787 4.787 0 0 0 .907 3.44 5.454 5.454 0 0 0 4.409 1.725 5.023 5.023 0 0 0 4.864 3.694c.275 0 .55-.022.822-.065l.246-.043.256-.329a5.41 5.41 0 0 0 2.198 3.21c.631.382 1.356.579 2.093.568a5.827 5.827 0 0 0 1.623-.249l.21-.061 1.647-2.222 4.95 1.446c.826.206 1.673.313 2.525.32a6.018 6.018 0 0 0 5.454-2.789l.002-.003.042-.08h-.002l.33-.637.57.273.196.057c.193.026.388.04.584.04 2.602 0 3.913-2.43 4.294-3.924h.003l.01-.053c.008-.034.02-.07.026-.104h-.002l.14-.65a5.031 5.031 0 0 0 3.44-1.49 4.508 4.508 0 0 0 1.085-3.007h.002l-.002-.028a4.1 4.1 0 0 0-.01-.26l-.005.001-.004-.052.08.046.183-.006c2.644-.075 4.282-.78 4.873-2.093.656-1.464-.215-3.153-.823-4.068a27.95 27.95 0 0 0 4.538-3.778l.63 1.158 7.267-4.873 2.479 3.695.535-.339c2.03-1.287 4.356-2.694 4.734-2.822l.278-.103.121-.246c.147-.299.537-1.093-9.82-30.226ZM9.973 48.546l-2.176 3.245c-1.11-.699-3.056-1.907-4.028-2.41.54-2.658 5.893-18.165 9.498-28.33l8.675 5.782-.837 1.891L9.973 48.546Zm7.484 4.322-6.119-4.1 10.589-18.854 5.97 3.731-10.44 19.223Zm8.69 10.64a3.697 3.697 0 0 1-2.757-1.339 3.083 3.083 0 0 1-.33-2.332l2.098-2.932c.294-.45.754-.767 1.28-.88a2.2 2.2 0 0 1 1.829.404 4.463 4.463 0 0 1 1.22 2.812l-3.34 4.267Zm5.043 5.122-.04.001a4.333 4.333 0 0 1-3.525-1.242 3.78 3.78 0 0 1-.58-2.918l3.621-4.628.005.003 2.748-3.65a4.293 4.293 0 0 1 3.608.82 3.746 3.746 0 0 1 .923 2.748l-6.76 8.866Zm5.046 3.673a3.716 3.716 0 0 1-4.01-2.886l6.599-8.656a4.954 4.954 0 0 1 3.014 2.222c.29.589.35 1.263.172 1.894l-5.776 7.426Zm6.31 3.212a3.141 3.141 0 0 1-2.466-.237 4.873 4.873 0 0 1-1.864-3.403l4.053-5.213.523.03a3.724 3.724 0 0 1 2.625 1.72 3.016 3.016 0 0 1-.135 3.413l-2.735 3.69ZM72.55 60.901c-.352.783-1.574 1.237-3.539 1.317l-12.428-7.195-.65 1.125 11.278 6.53.112 1.136a3.23 3.23 0 0 1-.764 2.157 4.084 4.084 0 0 1-3.06 1.105l-10.664-6.097-.646 1.129L62.81 68.18l-.154.64c-.17.618-1.011 3.166-3.349 2.913l-9.62-4.59-.56 1.174 7.964 3.799-.395.765c-.39.594-2.142 2.763-6.423 1.736l-4.474-1.307.526-.71a4.32 4.32 0 0 0 .194-4.882 5.012 5.012 0 0 0-3.33-2.274l.005-.01a3.948 3.948 0 0 0-.17-2.991 6.149 6.149 0 0 0-3.772-2.91 4.86 4.86 0 0 0-1.307-3.44c-1.098-1.079-2.77-1.465-4.974-1.151l-.264.038-2.166 2.876a4.787 4.787 0 0 0-1.444-2.429 3.472 3.472 0 0 0-2.89-.681 3.33 3.33 0 0 0-2.12 1.421l-.335.47-4.05-5.176 8.67-15.963a86.79 86.79 0 0 0 9.337 2.435 51.063 51.063 0 0 0-3.868 6.698c-.12.189-1.142 1.882-.289 3.081.703.986 2.323 1.163 4.962.548 2.919-.682 4.858-1.793 5.76-3.299a3.515 3.515 0 0 0 .521-1.7l3.438-.9a132.004 132.004 0 0 1 23.246 15.233c.49.607 1.544 2.255 1.07 3.306l.001.001Zm-.53-4.537a133.34 133.34 0 0 0-23.416-15.273l-.22-.112-4.44 1.161-.607.172.14.614c.026.11.553 2.711-5.258 4.07-2.845.667-3.48.14-3.606-.036-.276-.386.11-1.285.364-1.7a50.64 50.64 0 0 1 4.35-7.398 7.405 7.405 0 0 1 4.896-2.846c2.391-.43 4.804-.722 7.228-.875 2.395-.287 4.824.01 7.078.866 1.02.35 2.058.647 3.108.889a9.518 9.518 0 0 0 6.04-.312l9.13 16.808a25.496 25.496 0 0 1-4.787 3.972Zm6.523-3.496-10.44-19.223 5.97-3.732L84.66 48.768l-6.117 4.1Zm9.66-1.077-2.18-3.254-11.13-19.82-.834-1.884 8.674-5.783c3.606 10.166 8.959 25.673 9.5 28.33-.972.504-2.92 1.712-4.028 2.41l-.001.001Z"/>
</svg>
