<svg id="icon-products-managed-services" viewBox="0 0 96 96" xmlns="http://www.w3.org/2000/svg">
  <path d="m88.605 61.291-9.585-5.122-3.57-2.005a9.342 9.342 0 0 0-7.834-.617l-4.9 1.82a8.044 8.044 0 0 1-5.51.031l-5.11-1.82a9.36 9.36 0 0 0-7.713.646l-3.52 1.968-9.518 5.108a9.352 9.352 0 0 0-2.828 2.34 19.392 19.392 0 0 1 13.677-34.256c.322 11.762 8.176 21.21 17.79 21.21 9.818 0 17.806-9.85 17.806-21.958 0-12.107-7.988-21.957-17.806-21.957A16.13 16.13 0 0 0 47.79 12.66l-8.492-1.193a.642.642 0 0 0-.735.553l-1.066 7.582a29.435 29.435 0 0 0-10.113 2.523L22.8 16.039a.648.648 0 0 0-.43-.252.658.658 0 0 0-.482.124L13.145 22.5a.65.65 0 0 0-.128.91l4.506 5.987a28.796 28.796 0 0 0-5.418 9.041L4.715 37.4a.65.65 0 0 0-.735.554L2.457 48.801a.65.65 0 0 0 .553.734l7.335 1.031a28.512 28.512 0 0 0 2.587 10.227l-5.906 4.503a.65.65 0 0 0-.125.907l6.586 8.748a.65.65 0 0 0 .91.129l5.942-4.469a28.674 28.674 0 0 0 6.072 3.986v5.364a9.37 9.37 0 0 0 9.36 9.36H84.2a9.36 9.36 0 0 0 9.35-9.369V69.544a9.345 9.345 0 0 0-4.947-8.253h.002ZM59.984 7.979c9.1 0 16.504 9.267 16.504 20.657s-7.404 20.657-16.505 20.657c-9.1 0-16.505-9.267-16.505-20.657S50.886 7.979 59.984 7.979ZM26.41 69.548v3.615a27.457 27.457 0 0 1-5.608-3.873.653.653 0 0 0-.823-.034l-5.843 4.395-5.808-7.713 5.81-4.43a.65.65 0 0 0 .19-.799 27.272 27.272 0 0 1-2.715-10.74.65.65 0 0 0-.56-.615l-7.22-1.014 1.345-9.56 7.27 1.02a.637.637 0 0 0 .707-.436l.042-.125a27.504 27.504 0 0 1 5.646-9.364.65.65 0 0 0 .04-.83l-4.438-5.897 7.704-5.806 4.51 5.984a.651.651 0 0 0 .796.196 28.165 28.165 0 0 1 10.642-2.652.65.65 0 0 0 .611-.558l1.05-7.466 7.084.995a24.81 24.81 0 0 0-4.651 14.24A20.69 20.69 0 0 0 27.764 64.7a9.35 9.35 0 0 0-1.354 4.846v.002Zm65.84 10.405c0 .274-.013.547-.04.82-.003.021-.008.042-.01.064a8.067 8.067 0 0 1-8 7.183H35.77a8.068 8.068 0 0 1-8.059-8.06V69.549a8.051 8.051 0 0 1 4.25-7.102l9.526-5.113 3.53-1.974a8.064 8.064 0 0 1 6.642-.555l5.11 1.82a9.368 9.368 0 0 0 6.4-.038l4.9-1.82a8.04 8.04 0 0 1 6.742.532l3.584 2.012 9.597 5.128a8.044 8.044 0 0 1 4.257 7.107v10.407Z"/>
</svg>
