<svg id="icon-products-lumen-adaptive-virtual-services" viewBox="0 0 96 96" xmlns="http://www.w3.org/2000/svg">
  <path fill-rule="evenodd" d="M52.521 25.293h36.853a4.084 4.084 0 0 1 4.08 4.08v46.941a4.084 4.084 0 0 1-4.08 4.08H58.673v3.531h6.187a1.715 1.715 0 0 1 1.715 1.715v1.31a1.715 1.715 0 0 1-1.715 1.715H46.345a1.714 1.714 0 0 1-1.715-1.716v-1.31a1.717 1.717 0 0 1 1.715-1.715h6.185v-3.53H41.131v6.624a2.3 2.3 0 0 1-2.299 2.298H4.568a2.3 2.3 0 0 1-2.298-2.298v-3.532l.001-.024.198-5.253c.021-.576.26-1.122.666-1.53a2.285 2.285 0 0 1-.865-1.783v-3.53l.001-.025.198-5.255a2.29 2.29 0 0 1 2.296-2.209h5.362a2.37 2.37 0 0 1 1.615-1.62l-.183-34.625h-1.411a.65.65 0 0 1-.645-.566l-.385-2.944a7.57 7.57 0 0 1-1.038-.597l-2.79 1.167a.649.649 0 0 1-.814-.273l-2.28-3.93a.65.65 0 0 1 .166-.84l2.419-1.864a8.296 8.296 0 0 1-.013-.569c0-.209.01-.417.027-.625l-2.423-1.85a.65.65 0 0 1-.17-.84l2.265-3.938a.652.652 0 0 1 .811-.276l2.883 1.194c.296-.198.605-.375.926-.53L9.48 7.32a.65.65 0 0 1 .644-.566h4.542a.65.65 0 0 1 .645.566l.392 3.032c.225.108.443.227.656.356l2.982-1.248a.652.652 0 0 1 .814.273l2.28 3.928a.65.65 0 0 1-.166.841L20.35 15.98h29.804a.65.65 0 0 1 .65.65v6.468a2.366 2.366 0 0 1 1.717 2.196Zm-1.432-.422a1.051 1.051 0 0 0-.285-.335 1.043 1.043 0 0 0-1.709.757c0 .012-.004.023-.008.035-.004.013-.008.026-.008.041a1.074 1.074 0 0 0 2.149 0 .137.137 0 0 0-.008-.04.162.162 0 0 1-.008-.036 1.053 1.053 0 0 0-.123-.422Zm-1.586-7.59H20.021a8.853 8.853 0 0 1-.013.4l2.442 1.865a.65.65 0 0 1 .169.84l-2.265 3.938a.65.65 0 0 1-.813.277l-2.751-1.14a7.65 7.65 0 0 1-1.061.63l-.393 2.978a.65.65 0 0 1-.645.565h-1.83l.183 34.62a2.368 2.368 0 0 1 1.63 1.624h3.076V29.374a4.084 4.084 0 0 1 4.08-4.08h25.956a2.367 2.367 0 0 1 1.717-2.196V17.28ZM10.36 23.593l.358 2.74h3.402l.365-2.77a.653.653 0 0 1 .388-.512 6.346 6.346 0 0 0 1.422-.844.651.651 0 0 1 .65-.09l2.566 1.062 1.696-2.948-2.272-1.735a.652.652 0 0 1-.252-.587 6.233 6.233 0 0 0-.062-1.797.65.65 0 0 1 .243-.63l2.159-1.664-1.706-2.94-2.77 1.16a.65.65 0 0 1-.614-.06 6.308 6.308 0 0 0-1.08-.586.65.65 0 0 1-.392-.516l-.366-2.825h-3.4l-.366 2.825a.649.649 0 0 1-.391.515 6.328 6.328 0 0 0-1.307.746.646.646 0 0 1-.636.08l-2.685-1.11-1.697 2.946 2.263 1.728a.648.648 0 0 1 .249.604c-.038.28-.057.56-.057.842-.003.263.009.526.037.788a.65.65 0 0 1-.25.584l-2.247 1.732 1.707 2.942 2.598-1.087a.651.651 0 0 1 .646.082c.431.33.904.601 1.405.81a.65.65 0 0 1 .396.515Zm1.63 39.973c-.164.066-.31.173-.422.311h-.001a1.054 1.054 0 0 0 .833 1.726 1.057 1.057 0 1 0-.41-2.037Zm27.84 23.452v-8.721a.999.999 0 0 0-.998-.998H4.765a.995.995 0 0 0-.997.96L3.57 83.5v3.52a.999.999 0 0 0 .998.997h34.264a1 1 0 0 0 .998-.998Zm-.293-11.416a1 1 0 0 0 .293-.705v-8.723a.999.999 0 0 0-.998-.999H14.674a2.36 2.36 0 0 1-4.548 0H4.765a.995.995 0 0 0-.997.96L3.57 71.38v3.52a.999.999 0 0 0 .998.997h34.264a1 1 0 0 0 .705-.293ZM91.34 78.28a2.782 2.782 0 0 0 .814-1.965V32.372H19.05v31.505h19.782a2.3 2.3 0 0 1 2.299 2.298v8.723a2.284 2.284 0 0 1-.766 1.7 2.283 2.283 0 0 1 .766 1.7v.796h48.244c.737 0 1.444-.294 1.965-.815Zm-76.217-8.712a1.686 1.686 0 1 1 1.873 2.804 1.686 1.686 0 0 1-1.873-2.804Zm.556 1.972a.686.686 0 1 0 .762-1.14.686.686 0 0 0-.762 1.14Zm-4.216-1.971a1.685 1.685 0 1 1 1.874 2.8 1.685 1.685 0 0 1-1.874-2.8Zm.556 1.97a.686.686 0 1 0 .763-1.138.686.686 0 0 0-.763 1.139Zm-4.215-1.97a1.685 1.685 0 1 1 1.874 2.8 1.685 1.685 0 0 1-1.874-2.8Zm.556 1.97a.686.686 0 1 0 .764-1.139.686.686 0 0 0-.764 1.14Zm6.762 9.539a1.687 1.687 0 1 1 1.873 2.806 1.687 1.687 0 0 1-1.873-2.806Zm.556 1.974a.687.687 0 1 0 .762-1.144.687.687 0 0 0-.762 1.144Zm-4.216-1.974a1.687 1.687 0 1 1 1.875 2.805 1.687 1.687 0 0 1-1.875-2.805Zm.556 1.973a.687.687 0 1 0 .763-1.142.687.687 0 0 0-.763 1.142Zm-4.215-1.973a1.687 1.687 0 1 1 1.875 2.806 1.687 1.687 0 0 1-1.875-2.806Zm.556 1.973a.687.687 0 1 0 .763-1.142.687.687 0 0 0-.763 1.142Zm6.845-68.66a3.967 3.967 0 1 1-6.771 2.803v-.002a3.973 3.973 0 0 1 3.968-3.965c1.051.001 2.06.42 2.803 1.164Zm-4.69 4.688a2.667 2.667 0 1 0 1.887-4.553H12.4a2.667 2.667 0 0 0-1.886 4.553Z"/>
</svg>
