<svg id="icon-products-flexibility" viewBox="0 0 96 96" xmlns="http://www.w3.org/2000/svg">
  <path d="M73.655 90.619c-.543-1.584-1.981-5.824-2.125-6.417a.65.65 0 1 0-1.263.305c.135.56 1.134 3.524 1.73 5.28a.63.63 0 0 0-.137-.11c-.06-.032-4.867-2.53-10.485-6.222a141.156 141.156 0 0 0-4.472-30.798c.597-1.055 1.18-2.116 1.748-3.185 4.81-9.05 7.745-17.076 8.805-24.08a11.625 11.625 0 0 1 3.626 6.14c1.192 6.717-6.772 11.814-6.853 11.865a.65.65 0 0 0 .69 1.1c.36-.225 8.785-5.606 7.444-13.186-.464-2.624-2.028-5.137-4.691-7.539.964-8.552-1.006-15.466-5.924-20.671a2.14 2.14 0 0 0-1.536-.656h-27.34a2.11 2.11 0 0 0-1.56 3.532l.002.001a75.003 75.003 0 0 1 3.136 3.674 274.119 274.119 0 0 0-9.812-2.282l4.108-3.304a.651.651 0 1 0-.814-1.013L22.13 7.72l.425.508c1.074 1.284 3.937 4.727 4.284 5.23a.65.65 0 1 0 1.07-.738c-.305-.444-2.068-2.576-3.266-4.017 4.042.867 7.735 1.748 11.127 2.636a118.224 118.224 0 0 1 19.724 41.067 187.151 187.151 0 0 1-10.476 16.217 8.864 8.864 0 0 1-1.465-6.162 16.54 16.54 0 0 1 9.23-11.795.65.65 0 1 0-.55-1.179 17.842 17.842 0 0 0-9.955 12.72c-.49 2.427.318 4.991 1.917 7.548-5.59 7.695-10.69 13.725-13.125 16.511a2.112 2.112 0 0 0 1.594 3.496h26.703a2.124 2.124 0 0 0 2.115-2.14c-.01-.869-.043-1.712-.065-2.567 4.825 3.12 8.87 5.266 9.712 5.706l-4.745 1.525a.649.649 0 0 0 .142 1.273.65.65 0 0 0 .256-.036l7.09-2.278-.217-.626ZM32.273 5.1a.81.81 0 0 1 .6-1.356H60.21a.832.832 0 0 1 .598.252c4.757 5.035 6.238 11.544 5.598 18.705-5.825-4.62-15.811-8.803-29.88-12.513A79.505 79.505 0 0 0 32.274 5.1h-.001Zm5.53 6.782c15.213 4.155 23.794 8.465 28.43 12.39-1.102 8.463-4.98 17.734-9.835 26.521a120.158 120.158 0 0 0-18.594-38.91l-.001-.001ZM55.98 54.268a139.922 139.922 0 0 1 4.063 28.298 102.545 102.545 0 0 1-3.331-2.346c-5.093-3.75-8.75-7.246-10.923-10.392 3.413-4.723 6.962-10.015 10.19-15.56Zm3.962 33.949a.819.819 0 0 1-.582.246H32.664a.814.814 0 0 1-.614-1.343 245.966 245.966 0 0 0 12.933-16.19c3.497 4.863 9.633 9.614 15.112 13.26.037 1.14.074 2.279.085 3.443a.816.816 0 0 1-.24.585l.002-.001Z"/>
</svg>
