<svg id="icon-products-financial-services-company" viewBox="0 0 96 96" xmlns="http://www.w3.org/2000/svg">
  <path fill-rule="evenodd" d="M91.691 31.927H70.442V12.07a.65.65 0 0 0-.65-.65h-8.784V3.211a.65.65 0 0 0-.65-.65H36.466a.65.65 0 0 0-.65.65v8.21h-8.78a.65.65 0 0 0-.65.65v19.856H4.306a.65.65 0 0 0-.65.65V92.79a.65.65 0 0 0 .65.65h36.71l.01-.002H54.97l.01.002h36.71a.65.65 0 0 0 .65-.65V32.577a.65.65 0 0 0-.65-.65ZM37.117 3.861h22.59v7.56h-22.59v-7.56ZM33.02 64.503v-6.529h7.007v5.609l-3.045.92H33.02Zm9.696-.375a2.117 2.117 0 0 1 2.487 1.015 1.959 1.959 0 0 1-1.013 2.704l-5.517 2.372a2.661 2.661 0 0 0-.832 4.39 2.852 2.852 0 0 0 2.974.574l14.112-5.117a9.103 9.103 0 0 0 4.858-4.314l2.693-4.69a2.282 2.282 0 0 1 2.642-1.077l.11.036a2.044 2.044 0 0 1 1.222 2.613l-2.695 7.167a7.265 7.265 0 0 1-3.596 3.952l-22.24 11.054a7.795 7.795 0 0 0-4.253 6.535h-14.71l2.358-8.017a70.877 70.877 0 0 1 2.145-6.221l1.332-3.356a10.74 10.74 0 0 1 6.946-6.301l10.977-3.319Zm3.614.375a3.41 3.41 0 0 0-1.675-1.505v-5.024h7.395v6.53l-5.72-.001Zm17.475-5.843a3.566 3.566 0 0 0-2.457 1.76l-2.345 4.083h-2.592v-6.529h7.394v.686ZM4.96 92.14V33.227h21.425v35.897a12.085 12.085 0 0 0-2.798 4.14l-1.333 3.36a72.381 72.381 0 0 0-2.185 6.334l-2.603 8.85a.642.642 0 0 0-.002.33L4.96 92.14Zm36.644-.002h-6.669a.63.63 0 0 0 .028-.168 6.486 6.486 0 0 1 3.54-6l3.101-1.54v7.708Zm13.075-.557H42.904v-7.798l11.774-5.852.001 13.65Zm14.463.557H55.98V77.283l4.76-2.365a8.56 8.56 0 0 0 4.235-4.656l.001-.002 2.696-7.175a3.347 3.347 0 0 0-1.996-4.285l-.18-.06a3.583 3.583 0 0 0-.388-.08v-1.336a.65.65 0 0 0-.65-.65H55.76a.65.65 0 0 0-.65.65v7.83a.65.65 0 0 0 .65.649h2.488a7.816 7.816 0 0 1-3.773 3.044L43.74 72.74h-1.486a.65.65 0 0 0-.65.65v.125l-1.243.45a1.59 1.59 0 0 1-1.625-.3 1.364 1.364 0 0 1 .441-2.246l5.52-2.374a3.217 3.217 0 0 0 2-3.242h6.006a.65.65 0 0 0 .65-.65v-7.829a.65.65 0 0 0-.65-.65h-8.697a.65.65 0 0 0-.65.65v5.418a3.365 3.365 0 0 0-1.019.143l-1.007.304v-5.865a.65.65 0 0 0-.65-.65h-8.31a.65.65 0 0 0-.65.65v7.83a.65.65 0 0 0 .65.649h.313l-1.318.398a12.117 12.117 0 0 0-3.68 1.811V12.72H69.14l.002 79.418Zm21.9.002h-20.6V33.227h20.6V92.14ZM55.11 22.24v.891a15.428 15.428 0 0 0-13.781-.596v-.295a.65.65 0 0 0-.65-.65h-8.31a.65.65 0 0 0-.65.65v7.829a.65.65 0 0 0 .65.65h.928a15.273 15.273 0 0 0-1.1 7.748.641.641 0 0 0-.478.615v7.829a.65.65 0 0 0 .65.65h4.16a15.478 15.478 0 0 0 22.169 0h5.758a.65.65 0 0 0 .65-.65v-7.829a.65.65 0 0 0-.65-.65h-1.42a15.315 15.315 0 0 0-1.106-7.713h2.526a.65.65 0 0 0 .65-.65V22.24a.65.65 0 0 0-.65-.65H55.76a.65.65 0 0 0-.65.65Zm-22.09 7.179v-6.53h7.008v.297a15.625 15.625 0 0 0-6.107 6.233h-.9Zm0 16.842v-4.308a15.49 15.49 0 0 0 2.38 4.308h-2.38Zm14.595 4.675a14.222 14.222 0 1 1 14.222-14.222 14.238 14.238 0 0 1-14.222 14.222ZM62.84 39.732h.966v6.529H59.83a15.446 15.446 0 0 0 3.01-6.529ZM56.412 22.89h7.394v6.529H61.31a15.628 15.628 0 0 0-4.897-5.48l-.001-1.049Zm27.964 53.043h-8.151a.65.65 0 0 1-.65-.65v-6.817a.651.651 0 0 1 .65-.65h8.15a.65.65 0 0 1 .65.65v6.817a.65.65 0 0 1-.65.65Zm-.65-6.817h-6.851v5.517h6.85v-5.517Zm.65-7.352h-8.151a.65.65 0 0 1-.65-.65v-6.816a.65.65 0 0 1 .65-.65h8.15a.65.65 0 0 1 .65.65v6.816a.65.65 0 0 1-.65.65Zm-.65-6.816h-6.851v5.517h6.85v-5.517Zm.65-8.51h-8.151v-.001a.65.65 0 0 1-.65-.65V38.97a.65.65 0 0 1 .65-.65h8.15a.65.65 0 0 1 .65.65v6.818a.65.65 0 0 1-.65.65Zm-.65-6.817h-6.851v5.517h6.85v-5.517Zm-63.3 28.844v6.816a.65.65 0 0 1-.651.65h-8.15a.65.65 0 0 1-.65-.65v-6.816a.65.65 0 0 1 .65-.65h8.15a.65.65 0 0 1 .65.65Zm-8.151 6.166h6.85v-5.516h-6.85v5.516Zm7.5-12.868h-8.15a.65.65 0 0 1-.65-.65v-6.817a.65.65 0 0 1 .65-.65h8.15a.65.65 0 0 1 .65.65v6.817a.649.649 0 0 1-.65.65Zm-.65-6.817h-6.85v5.517h6.85v-5.517Zm.65-8.508h-8.15v-.001a.65.65 0 0 1-.65-.65V38.97a.65.65 0 0 1 .65-.65h8.15a.65.65 0 0 1 .65.65v6.818a.65.65 0 0 1-.65.65Zm-.65-6.817h-6.85v5.517h6.85v-5.517Zm24.274-.332v1.209c1.209.325 1.726.811 1.726 1.701v.016c0 .89-.684 1.462-1.686 1.566v.787h-.827v-.803a3.992 3.992 0 0 1-1.876-.755l.62-.907c.376.312.82.533 1.296.644v-1.264c-1.145-.31-1.71-.739-1.71-1.685v-.016c0-.875.669-1.455 1.67-1.559v-.46h.827v.485a3.27 3.27 0 0 1 1.478.58l-.532.931a3.387 3.387 0 0 0-.986-.47Zm-1.296.437c0 .255.11.413.549.573v-1.081c-.39.047-.55.238-.55.493v.015Zm1.296 3.061c.374-.055.564-.222.564-.508v-.017c0-.262-.134-.428-.564-.588v1.113Zm9.492-.186c.193.13.421.199.654.194.462 0 .724-.222 1.074-.652l.875.644a2.248 2.248 0 0 1-1.95 1.097 2.348 2.348 0 0 1-2.351-1.82h-.732v-.803h.596c-.008-.08-.008-.159-.008-.247 0-.095 0-.198.008-.294h-.596v-.803h.748a2.364 2.364 0 0 1 2.313-1.788 2.208 2.208 0 0 1 1.956 1.017l-.923.699a1.25 1.25 0 0 0-1.056-.628 1.075 1.075 0 0 0-1.01.7h1.463v.803h-1.655c-.007.088-.007.183-.007.278 0 .088 0 .183.007.263h1.655v.803h-1.48c.08.218.227.406.42.537Zm-5.354-12.857 1.24-2.059h1.367l-1.71 2.624h1.147v.858h-1.463v.493h1.463v.859h-1.463v.731H46.94v-.731h-1.463v-.859h1.463v-.493h-1.463v-.858h1.137l-1.701-2.624h1.407l1.216 2.059Z"/>
</svg>
