<svg id="icon-products-retail" viewBox="0 0 96 96" xmlns="http://www.w3.org/2000/svg">
  <path d="M93.62 58.781 46.91 12.328a.644.644 0 0 0-.567-.18l-17.974 3.01a.65.65 0 0 0-.354.183l-5.812 5.842L3.559 2.636a.65.65 0 0 0-.917.922l18.643 18.547-4.83 4.855a.648.648 0 0 0-.185.39l-1.794 16.869a.651.651 0 0 0 .188.53L61.367 91.2a.65.65 0 0 0 .92-.003L93.62 59.7a.65.65 0 0 0-.002-.919Zm-31.797 31.04L15.8 44.046l1.737-16.332 4.669-4.692 5.517 5.489a8.01 8.01 0 1 0 .919-.92l-5.52-5.491 5.667-5.694 17.439-2.92 46.013 45.76-30.418 30.575ZM34.269 33.187l-4.705-4.68a6.69 6.69 0 1 1-.917.922l4.705 4.68a.65.65 0 1 0 .917-.922Z"/>
</svg>
