<svg id="icon-products-iot" viewBox="0 0 96 96" xmlns="http://www.w3.org/2000/svg">
  <path fill-rule="evenodd" d="M80.353 43.643a9.347 9.347 0 0 0-9.308 8.692H42.657V38.077h10.094l-10.739-18.6-10.74 18.6h10.085V66.66H20.75v-8.5H2.45v18.3h18.3v-8.5h21.908V53.637h28.388a9.336 9.336 0 1 0 9.308-9.993ZM19.45 67.283a.05.05 0 0 1-.002.014l-.003.013a.05.05 0 0 0 .003.014l.002.013v7.822H3.75V59.46h15.7v7.823Zm14.076-30.507 8.487-14.7 8.487 14.7H33.525Zm46.828 24.25a8.05 8.05 0 0 1-8.04-8.035v-.012a8.041 8.041 0 1 1 8.04 8.047Zm-4.56-24.176-.123.122a.65.65 0 1 0 .926.914l.101-.1a5.248 5.248 0 0 1 7.411.097.653.653 0 0 0 .707.15.65.65 0 0 0 .225-1.057 6.548 6.548 0 0 0-9.247-.126Zm13.62-1.909a.65.65 0 0 0 .013-.92 12.66 12.66 0 0 0-17.904-.24l-.242.242a.652.652 0 0 0 .216 1.076.65.65 0 0 0 .717-.172l.217-.216a11.36 11.36 0 0 1 16.064.217.65.65 0 0 0 .92.013Zm-8.817-9.717a18.182 18.182 0 0 1 12.77 5.483.65.65 0 1 1-.932.906 16.882 16.882 0 0 0-24.163 0 .65.65 0 1 1-.932-.906 18.182 18.182 0 0 1 13.257-5.483Z"/>
</svg>
