<svg id="icon-products-news" viewBox="0 0 96 96" xmlns="http://www.w3.org/2000/svg">
  <path fill-rule="evenodd" d="M93.326 19.37c.138.294.213.615.221.94l.001 49.56a15.64 15.64 0 0 1-15.614 15.46H17.992a15.57 15.57 0 0 1-15.54-15.338V12.96a2.3 2.3 0 0 1 .594-1.526 2.411 2.411 0 0 1 1.722-.764h75.145a2.452 2.452 0 0 1 1.721.78c.35.39.563.886.603 1.41.027.153.04.307.04.462v4.71h8.947a2.38 2.38 0 0 1 1.522.565c.245.215.443.478.58.772Zm-5.33 60.514a14.336 14.336 0 0 0 4.251-10.022l.001-49.538a1.035 1.035 0 0 0-.352-.744 1.06 1.06 0 0 0-.677-.247h-8.943v53.71a.65.65 0 1 1-1.3 0V13.322c0-.086-.007-.173-.023-.258l-.012-.087a1.073 1.073 0 0 0-.268-.653 1.142 1.142 0 0 0-.787-.354l-75.11.001a1.093 1.093 0 0 0-.774.343.993.993 0 0 0-.25.652v57.016A14.25 14.25 0 0 0 18.197 84.03H77.93a14.336 14.336 0 0 0 10.067-4.146ZM36.769 42.166H16.73a2.812 2.812 0 0 1-2.809-2.809v-16.81a2.812 2.812 0 0 1 2.81-2.81h20.038a2.812 2.812 0 0 1 2.81 2.81v16.81a2.812 2.812 0 0 1-2.81 2.81ZM15.664 21.48a1.51 1.51 0 0 0-.442 1.066v16.811a1.51 1.51 0 0 0 1.508 1.508h20.04a1.51 1.51 0 0 0 1.507-1.508v-16.81a1.51 1.51 0 0 0-1.508-1.509H16.73c-.4 0-.783.16-1.066.442Zm30.75-.499h24.151v.001a.65.65 0 1 1 0 1.3H46.413a.65.65 0 0 1 0-1.3Zm0 10.447h24.151a.65.65 0 1 1 0 1.3H46.413a.65.65 0 0 1 0-1.3Zm0 10.45h24.151a.65.65 0 1 1 0 1.3H46.413a.65.65 0 0 1 0-1.3ZM14.531 63.07h54.701v.001a.65.65 0 1 1 0 1.3h-54.7a.65.65 0 0 1 0-1.3Zm0-8.46h54.701v.001a.65.65 0 1 1 0 1.3h-54.7a.65.65 0 0 1 0-1.3Zm0 16.92h54.701v.001a.65.65 0 1 1 0 1.3h-54.7a.65.65 0 0 1 0-1.3Z"/>
</svg>
