<svg id="icon-places-security-operations-center" viewBox="0 0 96 96" xmlns="http://www.w3.org/2000/svg">
  <path fill-rule="evenodd" d="M92.956 21.887v21.362a4.372 4.372 0 0 1-4.367 4.367h-28.75c.065.499.108 1.005.13 1.519h28.619a4.372 4.372 0 0 1 4.368 4.367v21.362a4.372 4.372 0 0 1-4.368 4.367H70.316v4.297a6.358 6.358 0 0 1-6.35 6.347H32.28a6.356 6.356 0 0 1-6.35-6.35V79.23H7.412a4.372 4.372 0 0 1-4.368-4.367V53.502a4.372 4.372 0 0 1 4.368-4.367h28.87c.022-.514.066-1.02.13-1.52h-29a4.372 4.372 0 0 1-4.368-4.366V21.887a4.372 4.372 0 0 1 4.368-4.368h35.034a4.372 4.372 0 0 1 4.367 4.368v13.547a8.894 8.894 0 0 1 2.374-.028v-13.52a4.372 4.372 0 0 1 4.367-4.367h10.442V9.593a2.047 2.047 0 0 1 1.726-2.032l9.47-1.528a1.96 1.96 0 0 1 .658 0l9.468 1.527a2.046 2.046 0 0 1 1.725 2.033v7.926h1.545a4.372 4.372 0 0 1 4.368 4.368Zm-27.71-12.98a1.052 1.052 0 0 0-.25.685v12.263a7.655 7.655 0 0 0 2.492 5.69l7.327 6.584a1.054 1.054 0 0 0 1.412 0l7.34-6.597a7.607 7.607 0 0 0 2.476-5.658V9.592a1.052 1.052 0 0 0-.885-1.045l-9.47-1.528a1.036 1.036 0 0 0-.334 0l-9.472 1.529c-.248.04-.474.167-.636.358Zm-6.543 41.028c0-7.331-4.746-13.295-10.577-13.295h-.001c-5.832 0-10.575 5.965-10.575 13.295s4.742 13.294 10.575 13.294c5.833 0 10.578-5.964 10.578-13.294Zm-9.516 17.464v-2.935a8.89 8.89 0 0 1-2.374-.03v2.92c.776.205 1.59.22 2.374.045ZM5.244 45.416a3.07 3.07 0 0 0 2.168.899h29.22c1.103-5.275 4.54-9.404 8.88-10.608v-13.82a3.07 3.07 0 0 0-3.066-3.067H7.412a3.07 3.07 0 0 0-3.067 3.067v21.362a3.07 3.07 0 0 0 .9 2.167Zm2.168 32.515h18.517V76.71a6.34 6.34 0 0 1 3.348-5.594l8.526-4.63a6.35 6.35 0 0 1 5.236-.44l2.473.885v-2.768c-5.165-1.433-9.056-7.008-9.243-13.728H7.412a3.07 3.07 0 0 0-3.067 3.067v21.362a3.07 3.07 0 0 0 3.067 3.067Zm60.122 9.163a5.054 5.054 0 0 0 1.48-3.566l.002-6.811a5.041 5.041 0 0 0-2.667-4.453l-6.282-3.36-2.35-1.32a5.053 5.053 0 0 0-4.225-.331l-3.206 1.188a6.366 6.366 0 0 1-4.34.026l-3.344-1.197a5.045 5.045 0 0 0-4.163.35l-2.308 1.29-6.238 3.35a5.041 5.041 0 0 0-2.662 4.45v6.815a5.054 5.054 0 0 0 5.049 5.049h31.687a5.054 5.054 0 0 0 3.567-1.48Zm21.054-36.66H59.983c-.19 6.83-4.204 12.487-9.495 13.804v2.742l2.552-.946a6.339 6.339 0 0 1 5.313.418l2.338 1.312 6.27 3.353a6.34 6.34 0 0 1 3.355 5.6v1.214h18.272a3.07 3.07 0 0 0 3.067-3.067V53.502a3.07 3.07 0 0 0-3.067-3.067Zm-38.1-14.803c4.459 1.11 8.007 5.306 9.13 10.684h28.97a3.07 3.07 0 0 0 3.067-3.066V21.887a3.07 3.07 0 0 0-3.067-3.066h-1.545v3.05a8.604 8.604 0 0 1-2.805 6.402l-7.344 6.6a2.052 2.052 0 0 1-2.747 0l-7.331-6.587a8.652 8.652 0 0 1-2.82-6.435V18.82H53.554a3.07 3.07 0 0 0-3.066 3.067V35.63ZM79.99 25.533h-9.502a.652.652 0 0 1-.65-.65V15.99a.65.65 0 0 1 .65-.65h.567v-1.706c0-.034.003-.067.008-.1a4.377 4.377 0 0 1 8.352 0l.005 1.806h.57a.65.65 0 0 1 .65.65v8.893a.65.65 0 0 1-.65.65Zm-4.4-3.064V20.782a1.032 1.032 0 1 0-.704 0v1.687h.705Zm-.351-10.698c-2.35 0-2.812 1.586-2.883 1.924v1.645h5.766v-1.646c-.072-.337-.533-1.923-2.883-1.923Z"/>
</svg>
