<svg id="icon-people-support" viewBox="0 0 96 96" xmlns="http://www.w3.org/2000/svg">
  <path d="m79.525 62.732-10.57-5.652-3.936-2.211a10.239 10.239 0 0 0-8.582-.676l-5.4 2a8.976 8.976 0 0 1-6.118.037l-5.635-2.01a10.25 10.25 0 0 0-8.448.706l-3.883 2.17-10.492 5.627a10.233 10.233 0 0 0-5.402 9.033V83.24a10.265 10.265 0 0 0 10.25 10.252h53.382a10.267 10.267 0 0 0 10.25-10.245V71.772a10.234 10.234 0 0 0-5.416-9.04Zm4.116 20.515a8.963 8.963 0 0 1-8.95 8.944h-53.38a8.962 8.962 0 0 1-8.952-8.952V71.756a8.933 8.933 0 0 1 4.717-7.887l10.502-5.632 3.893-2.176a8.952 8.952 0 0 1 7.376-.617l5.634 2.01c2.267.808 4.747.794 7.006-.041l5.402-2.001a8.946 8.946 0 0 1 7.493.59l3.948 2.217 10.582 5.66a8.937 8.937 0 0 1 4.729 7.893v11.475ZM48.014 50.794c7.022 0 13.19-4.591 16.642-11.467a12.978 12.978 0 0 0 6.485-2.95 7.273 7.273 0 0 0 2.038-6.605 7.05 7.05 0 0 0 3.283-6.839l-.248-2.09a7.073 7.073 0 0 0-7.866-6.187 2.614 2.614 0 0 0-2.317 2.587C63.053 8.591 56.098 2.508 48.014 2.508c-10.788 0-19.565 10.831-19.565 24.144 0 13.313 8.777 24.142 19.565 24.142Zm22.434-15.14A11.237 11.237 0 0 1 65.2 38.18a28.16 28.16 0 0 0 2.28-9.114 2.63 2.63 0 0 0 2.79 1.733 7.101 7.101 0 0 0 1.953-.522 6.133 6.133 0 0 1-1.775 5.377ZM67.37 16.261a1.633 1.633 0 0 1 1.095-.613 6.09 6.09 0 0 1 6.755 5.313l.249 2.091a6.08 6.08 0 0 1-5.318 6.755 1.663 1.663 0 0 1-1.21-.342 1.627 1.627 0 0 1-.613-1.095l-1.3-10.9a1.637 1.637 0 0 1 .342-1.209ZM48.014 3.81c10.07 0 18.263 10.247 18.263 22.843a27.105 27.105 0 0 1-2.65 11.839c-3.042.428-6.12.524-9.182.287.006-.14.03-.274.025-.415a5.024 5.024 0 0 0-5.21-4.793l-1.904.078a5 5 0 0 0-4.792 5.18v.029a5 5 0 0 0 5.207 4.792l1.906-.078a4.996 4.996 0 0 0 4.622-3.783c1.137.077 2.372.129 3.654.129 1.704.007 3.407-.1 5.098-.321-3.297 5.973-8.806 9.898-15.037 9.898-10.072 0-18.264-10.246-18.264-22.842 0-12.596 8.192-22.843 18.264-22.843Zm5.456 34.595a4.002 4.002 0 0 1-3.834 4.167l-1.911.078a3.868 3.868 0 0 1-2.874-1.055 3.972 3.972 0 0 1-1.287-2.778v-.008a3.996 3.996 0 0 1 3.833-4.16l1.905-.078a4.01 4.01 0 0 1 4.168 3.834Z"/>
</svg>
