<svg id="icon-places-bank-yen" viewBox="0 0 96 96" xmlns="http://www.w3.org/2000/svg">
  <path fill-rule="evenodd" d="M20.493 31.847h27.501l27.508-.003a1.466 1.466 0 0 0 1.05-.447 1.46 1.46 0 0 0-.04-2.064L49.005 2.896a1.46 1.46 0 0 0-2.02 0L19.48 29.337a1.459 1.459 0 0 0 1.012 2.51h.001Zm-.11-1.574 27.5-26.438a.16.16 0 0 1 .222 0L75.611 30.27a.159.159 0 0 1 .004.225.163.163 0 0 1-.114.05l-55.007.002a.16.16 0 0 1-.11-.274Zm59.66 57.192a4.566 4.566 0 0 0-4.247-4.343V42.594a3.222 3.222 0 0 0 1.45-2.128h.92a5.72 5.72 0 0 0 5.715-5.714v-.65H12.11v.65a5.72 5.72 0 0 0 5.715 5.714h1.266a3.205 3.205 0 0 0 1.473 2.14V83.12a4.563 4.563 0 0 0-4.254 4.237 5.72 5.72 0 0 0-4.195 5.503v.65h71.777v-.65a5.72 5.72 0 0 0-3.849-5.395ZM77.8 85.352c.459.456.771 1.038.897 1.672H64.033a3.289 3.289 0 0 1 3.22-2.634h8.226a3.264 3.264 0 0 1 2.322.962ZM50.908 41.795h-5.457a1.916 1.916 0 0 1-1.807-1.287h9.07a1.916 1.916 0 0 1-1.806 1.287Zm.404 1.3V83.09H45.07V43.095h6.243Zm-7.543-.489v40.515a4.564 4.564 0 0 0-4.228 4.025h-5.923a4.562 4.562 0 0 0-4.212-4.024v-40.53a3.222 3.222 0 0 0 1.446-2.126h11.445a3.207 3.207 0 0 0 1.472 2.14Zm.3 41.784h8.225a3.293 3.293 0 0 1 3.22 2.634h-14.66a3.29 3.29 0 0 1 3.214-2.634Zm8.543-1.268V42.593a3.223 3.223 0 0 0 1.447-2.127h11.42a3.207 3.207 0 0 0 1.473 2.142v40.513a4.562 4.562 0 0 0-4.23 4.025h-5.897a4.562 4.562 0 0 0-4.213-4.024Zm15.64-.032V43.095h6.243V83.09h-6.243Zm5.84-41.295h-5.46a1.916 1.916 0 0 1-1.808-1.287H75.9a1.916 1.916 0 0 1-1.807 1.287Zm-56.268-2.63a4.422 4.422 0 0 1-4.367-3.763h69.076a4.422 4.422 0 0 1-4.367 3.764H17.824Zm2.608 1.343h9.076a1.916 1.916 0 0 1-1.807 1.287h-5.457a1.924 1.924 0 0 1-1.812-1.287Zm7.673 2.587V83.09h-6.242V43.095h6.242ZM20.861 84.39h8.227a3.283 3.283 0 0 1 3.22 2.634H17.642a3.289 3.289 0 0 1 3.218-2.634Zm-7.4 7.82a4.423 4.423 0 0 1 4.368-3.764h60.347a4.423 4.423 0 0 1 4.367 3.764H13.461Zm34.73-64.11a8.37 8.37 0 1 0-8.37-8.37 8.38 8.38 0 0 0 8.37 8.37Zm0-15.44a7.07 7.07 0 1 1-7.07 7.07 7.078 7.078 0 0 1 7.07-7.07Zm-2.154 8.006v-.886h1.174l-1.757-2.709h1.453l1.256 2.126 1.28-2.126h1.412l-1.764 2.709h1.181v.886h-1.51v.51h1.51v.886h-1.51v.755h-1.215v-.755h-1.51v-.886h1.51v-.51h-1.51Z"/>
</svg>
