<svg id="icon-people-customer" viewBox="0 0 96 96" xmlns="http://www.w3.org/2000/svg">
  <path d="m79.507 62.72-10.565-5.65-3.937-2.208a10.234 10.234 0 0 0-8.574-.674l-5.398 1.998a8.947 8.947 0 0 1-6.114.036l-5.627-2.01a10.257 10.257 0 0 0-8.442.709l-3.88 2.17-10.487 5.626a10.227 10.227 0 0 0-5.398 9.028v11.471A10.257 10.257 0 0 0 21.33 93.46h53.344a10.258 10.258 0 0 0 10.241-10.24V71.754a10.227 10.227 0 0 0-5.408-9.035v.001Zm4.107 20.498a8.955 8.955 0 0 1-8.94 8.942H21.33a8.955 8.955 0 0 1-8.944-8.944v-11.47a8.93 8.93 0 0 1 4.713-7.884l10.496-5.632 3.89-2.174a8.954 8.954 0 0 1 7.37-.62l5.626 2.01a10.24 10.24 0 0 0 7.003-.041l5.398-1.998a8.935 8.935 0 0 1 7.487.589l3.95 2.214 10.575 5.656a8.926 8.926 0 0 1 4.72 7.888v11.464Zm-35.61-32.426c10.78 0 19.549-10.822 19.549-24.125s-8.77-24.126-19.55-24.126c-10.78 0-19.55 10.823-19.55 24.127 0 13.302 8.77 24.124 19.55 24.124h.001Zm0-46.952c10.062 0 18.248 10.24 18.248 22.827 0 12.586-8.186 22.825-18.248 22.825-10.064 0-18.25-10.24-18.25-22.825 0-12.586 8.186-22.827 18.25-22.827Z"/>
</svg>
