<svg id="icon-places-retail-location" viewBox="0 0 96 96" xmlns="http://www.w3.org/2000/svg">
  <path fill-rule="evenodd" d="m90.204 63.532 2.988 4.876a.502.502 0 0 1 .034.456L85.2 87.915a.502.502 0 0 1-.655.266l-12.846-5.413a.499.499 0 0 1-.267-.655l.845-2.005H10.33a.65.65 0 0 1-.65-.65V39.285c-7.255-1.501-7.35-7.501-7.35-7.57V20.26a.618.618 0 0 1 .038-.19.636.636 0 0 1 .041-.106.214.214 0 0 0 .016-.043c.005-.02.01-.04.024-.057l10.42-13.611a.652.652 0 0 1 .516-.255h61.374a.65.65 0 0 1 .516.254l10.368 13.54.014.009a.652.652 0 0 1 .19.46l-.014 11.455c0 .103-.117 6.081-7.366 7.573v26.123l.99-2.349a.498.498 0 0 1 .323-.286l5.12-1.46a.484.484 0 0 1 .331.02l1.704.717 3.088-7.331a.5.5 0 0 1 .922.389l-3.088 7.33 2.115.89c.097.041.178.11.233.2ZM74.905 38.323c9.467 0 9.625-6.341 9.627-6.611l.013-10.802H65.278v10.805c.002.268.16 6.608 9.627 6.608Zm-.468-31.024H13.705L4.28 19.61h79.585l-9.428-12.31ZM63.964 31.713l.013-10.803H44.76l-.01 10.805c0 .012-.004.118-.02.288.124 1.269 1.15 6.319 9.607 6.319 9.455 0 9.625-6.324 9.627-6.609Zm-20.535.291c-.125 1.275-1.153 6.319-9.607 6.319-9.467 0-9.625-6.34-9.627-6.608v-9l.002-1.804H43.41v10.804c0 .008.002.115.02.29ZM3.63 20.913v10.804c.002.268.16 6.608 9.627 6.608s9.625-6.341 9.628-6.611l.01-8.487v-2.314H3.63Zm48.173 57.895H68.73l.001-30.231H51.802v30.231ZM70.03 47.926v30.881h2.794L77.165 68.5V39.492c-.75.089-1.505.133-2.26.132-6.678 0-9.274-2.992-10.284-5.295-1.01 2.303-3.606 5.295-10.284 5.295-6.624 0-9.23-2.943-10.258-5.239-1.027 2.296-3.634 5.239-10.257 5.239-6.677 0-9.273-2.99-10.283-5.293-1.01 2.303-3.607 5.293-10.283 5.293-.76 0-1.52-.044-2.276-.134v39.317h39.522V47.926a.65.65 0 0 1 .65-.65H69.38a.65.65 0 0 1 .65.65Zm2.518 34.115 11.925 5.024 7.732-18.353-2.77-4.52-1.966-.828-.734 1.743a2.815 2.815 0 1 1-.922-.39l.734-1.74-1.543-.65-4.718 1.346-7.738 18.368Zm12.848-14.134a.5.5 0 0 1-.65-.657l.663-1.575a1.761 1.761 0 0 0-.207-.03 1.798 1.798 0 1 0 1.67 1.124 1.763 1.763 0 0 0-.54-.704l-.664 1.573a.501.501 0 0 1-.272.269Zm-67.127.941h24.15V47.426h-24.15v21.422Zm1-20.422h22.15v19.422h-22.15V48.426Zm7.252 3.886a.651.651 0 0 0-.92 0l-2.831 2.831a.65.65 0 1 0 .92.92l2.83-2.83a.651.651 0 0 0 0-.92Zm4.54 1.518-6.773 6.773a.65.65 0 1 0 .92.92l6.773-6.772a.65.65 0 0 0-.92-.92Z"/>
</svg>
