<svg id="icon-products-infected-server" viewBox="0 0 96 96" xmlns="http://www.w3.org/2000/svg">
  <path fill-rule="evenodd" d="M45.12 35.025h45.597a2.846 2.846 0 0 0 2.843-2.843V27.46l-.267-6.994a2.827 2.827 0 0 0-2.835-2.734H45.123a2.84 2.84 0 0 0-2.842 2.84v11.611a2.846 2.846 0 0 0 2.84 2.843v-.001ZM43.583 20.57a1.54 1.54 0 0 1 1.54-1.54H90.46a1.533 1.533 0 0 1 1.537 1.483l.264 6.97v4.7a1.544 1.544 0 0 1-1.542 1.542H45.122a1.544 1.544 0 0 1-1.54-1.543l.001-11.612Zm4.786 7.89a2.08 2.08 0 1 0-.002-4.158 2.08 2.08 0 0 0 .002 4.158Zm4.867 0a2.08 2.08 0 1 0 .002-4.158 2.08 2.08 0 0 0-.002 4.158Zm6.948-2.078a2.079 2.079 0 1 1-4.158 0 2.079 2.079 0 0 1 4.158 0Zm33.11 13.156a2.828 2.828 0 0 0-2.836-2.733H45.123a2.84 2.84 0 0 0-2.842 2.84v11.047a.65.65 0 0 0 1.3 0V39.645a1.54 1.54 0 0 1 1.542-1.54h45.334a1.534 1.534 0 0 1 1.538 1.482l.264 6.97v4.7a1.546 1.546 0 0 1-1.547 1.542l-41.535.318a.65.65 0 0 0 .005 1.3h.005l41.53-.319a2.846 2.846 0 0 0 2.843-2.842v-4.724l-.267-6.994Zm-43.77 7.641a2.079 2.079 0 1 1-2.312-3.455 2.079 2.079 0 0 1 2.312 3.455Zm5.44-2.883a2.08 2.08 0 1 1-3.457 2.31 2.08 2.08 0 0 1 3.458-2.31Zm3.141 3.234a2.079 2.079 0 1 0 0-4.158 2.079 2.079 0 0 0 0 4.158Zm34.321 9.137c.53.51.841 1.206.867 1.941l.266 6.994v4.726a2.845 2.845 0 0 1-2.842 2.84H49.181a.65.65 0 0 1 0-1.3h41.54a1.542 1.542 0 0 0 1.54-1.54v-4.7l-.266-6.97a1.54 1.54 0 0 0-1.54-1.483H49.182a.65.65 0 0 1 0-1.3h41.271a2.834 2.834 0 0 1 1.973.792Zm-37.11 7.853a2.079 2.079 0 1 0-4.158 0 2.079 2.079 0 0 0 4.157 0Zm4.868 0a2.079 2.079 0 1 1-4.158 0 2.079 2.079 0 0 1 4.158 0Zm-14.178.567a2.36 2.36 0 1 0 0-1.3h-7.303l.027-.21c.033-.243.066-.487.078-.735l.023-.649c0-.826-.08-1.65-.237-2.462h1.453a.65.65 0 0 0 .462-.192l3.524-3.555c.346.2.738.307 1.138.31a2.388 2.388 0 1 0-2.05-1.236l-3.344 3.373h-1.508a12.684 12.684 0 0 0-24.347.334.641.641 0 0 0-.221-.044h-1.475L8.88 55.347a2.336 2.336 0 1 0-2.05 1.237c.4-.003.792-.11 1.139-.31l3.525 3.554a.65.65 0 0 0 .462.193h1.687a12.636 12.636 0 0 0-.068 3.766H7.01a2.36 2.36 0 1 0 0 1.3h6.807c.315 1.33.843 2.601 1.562 3.764h-3.406a.65.65 0 0 0-.46.192L7.782 72.8a2.308 2.308 0 0 0-1.115-.296 2.388 2.388 0 1 0 2.038 1.211l3.538-3.563h4.048A12.595 12.595 0 0 0 20 73.263v5.006h12.688v-5.164a12.666 12.666 0 0 0 3.808-3.588h3.608l3.645 3.673a2.334 2.334 0 1 0 1.787-.848 2.304 2.304 0 0 0-.684.114l-4.017-4.047a.649.649 0 0 0-.46-.192h-3.078c.528-.987.923-2.04 1.176-3.13h7.533Zm-.835-12.215a1.061 1.061 0 1 1 .029 2.122 1.061 1.061 0 0 1-.03-2.122ZM6.83 55.284a1.06 1.06 0 1 1-.029-2.118 1.06 1.06 0 0 1 .029 2.117v.001ZM4.765 65.499a1.06 1.06 0 1 1 1.046-1.06 1.054 1.054 0 0 1-1.046 1.06Zm1.903 10.425a1.06 1.06 0 1 1 1.046-1.06 1.054 1.054 0 0 1-1.046 1.06Zm38.867-2.283a1.06 1.06 0 1 1 .027 2.117 1.06 1.06 0 0 1-.027-2.116v-.001Zm-13.818-1.475-.33.186v4.617h-2.312v-2.634h.004a.667.667 0 0 0 0-.137.635.635 0 0 0-.94-.503.632.632 0 0 0-.318.64v2.634h-2.81v-2.634a.594.594 0 0 0-.006-.144.634.634 0 0 0-1.26.144v2.634H21.3v-4.493l-.353-.181a11.386 11.386 0 1 1 16.576-10.57v.469a11.42 11.42 0 0 1-5.805 9.972h-.001ZM29.156 60.09a2.517 2.517 0 0 1 1.404-.413 2.507 2.507 0 0 1 2.495 2.517 2.518 2.518 0 1 1-3.9-2.104Zm-8.894 0a2.517 2.517 0 0 1 1.404-.413 2.507 2.507 0 0 1 2.495 2.517 2.518 2.518 0 1 1-3.9-2.104Z"/>
</svg>
