<svg id="icon-places-government-state-and-local" viewBox="0 0 96 96" xmlns="http://www.w3.org/2000/svg">
  <path fill-rule="evenodd" d="M87.303 78.06V34.22h-9.545a30.02 30.02 0 0 0-59.505 0H8.697v43.84H2.45v9.666h91.1V78.06h-6.247Zm-9.382-42.54h8.082v42.54h-11.25V35.52h3.168Zm-33.2-25.843a28.734 28.734 0 0 1 31.734 24.542h-8.562c0-.008.002-.014.004-.022.002-.007.004-.014.004-.021V22.047c0-.694-.002-1.394-.005-2.124a.65.65 0 0 0-.432-.608 8.76 8.76 0 0 0-6.267.147 8.944 8.944 0 0 0-1.593.977 3.77 3.77 0 0 1-1.696.85 4.87 4.87 0 0 1-3.543-1.219.65.65 0 0 0-1.083.485v8.039a.65.65 0 0 0 .433.612c.626.224 1.27.397 1.924.516.743.21 1.51.317 2.282.317a8.638 8.638 0 0 0 2.81-.477 4.615 4.615 0 0 0 1.894-1.629c.253-.439.645-.78 1.115-.97a4.667 4.667 0 0 1 2.862.304v6.909c0 .008.002.015.004.023a.101.101 0 0 1 .004.02h-23.9c0-.007.003-.014.005-.02.002-.008.004-.015.004-.023V22.047c0-.694-.002-1.394-.006-2.124a.65.65 0 0 0-.43-.608 8.76 8.76 0 0 0-6.268.147 8.95 8.95 0 0 0-1.594.977 3.77 3.77 0 0 1-1.695.85 4.873 4.873 0 0 1-3.544-1.219.65.65 0 0 0-1.082.485v8.039a.65.65 0 0 0 .432.612c.626.224 1.27.397 1.924.516.743.21 1.51.317 2.282.317a8.639 8.639 0 0 0 2.811-.477 4.615 4.615 0 0 0 1.894-1.629c.253-.439.645-.78 1.115-.97a4.667 4.667 0 0 1 2.861.304v6.909c0 .008.002.015.005.023a.092.092 0 0 1 .004.02H19.545A28.61 28.61 0 0 1 44.721 9.677Zm3.282 50.192a7.188 7.188 0 0 0-7.18 7.18v11.01H22.548V35.52h50.906v42.54h-18.27V67.05a7.19 7.19 0 0 0-7.18-7.18v-.001Zm5.88 7.181v11.01h-11.76V67.05a5.88 5.88 0 0 1 11.76 0ZM66.6 25.156l-.002.7a6.067 6.067 0 0 0-3.192-.148 3.483 3.483 0 0 0-1.818 1.444 3.36 3.36 0 0 1-1.334 1.203 7.208 7.208 0 0 1-4.32.102 11.426 11.426 0 0 1-1.35-.332V21.81a6.232 6.232 0 0 0 3.462.77 4.965 4.965 0 0 0 2.322-1.089c.42-.324.87-.604 1.346-.836A7.447 7.447 0 0 1 66.6 20.4c.006 1.638.004 3.16 0 4.756h.001Zm-25.184 0v.7a6.067 6.067 0 0 0-3.193-.148 3.483 3.483 0 0 0-1.819 1.444 3.36 3.36 0 0 1-1.333 1.203 7.208 7.208 0 0 1-4.322.102 11.426 11.426 0 0 1-1.35-.332V21.81a6.232 6.232 0 0 0 3.464.77 4.966 4.966 0 0 0 2.321-1.089c.42-.324.87-.604 1.346-.836a7.447 7.447 0 0 1 4.885-.255c.007 1.615.004 3.117.001 4.688v.068ZM9.997 35.519h11.25v42.54H9.997v-42.54ZM3.75 86.426V79.36h88.5v7.066H3.75ZM48 40.146a6.994 6.994 0 1 0 6.996 6.995A7.003 7.003 0 0 0 48 40.146Zm0 12.69a5.695 5.695 0 1 1 5.696-5.695A5.702 5.702 0 0 1 48 52.836Zm.649-5.841h1.527a.65.65 0 0 1 0 1.3h-2.177a.65.65 0 0 1-.65-.65v-3.408a.65.65 0 0 1 1.3 0v2.758Z"/>
</svg>
