<svg id="icon-products-edge-security" viewBox="0 0 96 96" xmlns="http://www.w3.org/2000/svg">
  <path fill-rule="evenodd" d="M87.41 49.457a3.74 3.74 0 0 1 2.398-.877v.001a3.737 3.737 0 1 1-3.675 4.39h-4.908a3.151 3.151 0 0 1-3.148-3.148v-1.877a1.85 1.85 0 0 0-1.849-1.848h-4.525v4.273a17.166 17.166 0 0 1-5.593 12.762L51.165 76.567a3.807 3.807 0 0 1-5.099 0L31.142 63.158a17.25 17.25 0 0 1-5.62-12.826v-4.234H19.77a1.846 1.846 0 0 0-1.848 1.848v1.877a3.15 3.15 0 0 1-3.147 3.148h-4.91a3.741 3.741 0 1 1 0-1.3h4.91a1.85 1.85 0 0 0 1.847-1.848v-1.877a3.148 3.148 0 0 1 3.146-3.148h5.753V40.09h-8.27a3.74 3.74 0 1 1 0-1.3h8.27v-4.673h-4.323a3.755 3.755 0 0 1-3.75-3.75V28.36a1.775 1.775 0 0 0-1.773-1.772h-5.81a3.74 3.74 0 1 1 0-1.3h5.81a3.075 3.075 0 0 1 3.072 3.072v2.005a2.453 2.453 0 0 0 2.45 2.45h4.325v-7.44a3.796 3.796 0 0 1 3.206-3.765l19.277-3.106a3.787 3.787 0 0 1 1.216 0l19.276 3.111a3.796 3.796 0 0 1 3.206 3.765v7.437h3.096a2.453 2.453 0 0 0 2.45-2.45V28.36a3.075 3.075 0 0 1 3.07-3.072h5.814a3.743 3.743 0 1 1 0 1.3h-5.811a1.775 1.775 0 0 0-1.772 1.772v2.006a3.754 3.754 0 0 1-3.75 3.75h-3.097v4.673h7.044a3.742 3.742 0 1 1 0 1.3h-7.044v4.709h4.525a3.152 3.152 0 0 1 3.148 3.147v1.877a1.85 1.85 0 0 0 1.847 1.848h4.91a3.74 3.74 0 0 1 1.277-2.213ZM83.78 37.41a2.441 2.441 0 1 0-2.714 4.059 2.441 2.441 0 0 0 2.713-4.06Zm7.385-13.507a2.44 2.44 0 0 0-1.357-.411 2.444 2.444 0 0 0-2.029 3.798 2.441 2.441 0 1 0 3.386-3.387Zm-86.332 4.06c.402.269.874.412 1.357.412a2.444 2.444 0 0 0 2.03-3.797 2.44 2.44 0 1 0-3.387 3.386Zm7.387 13.505a2.44 2.44 0 1 0 2.714-4.057 2.44 2.44 0 0 0-2.714 4.057ZM4.834 54.35a2.444 2.444 0 0 0 3.386-3.386 2.44 2.44 0 1 0-3.386 3.386Zm64.238 2.47a15.862 15.862 0 0 0 1.33-6.446l.001-24.993A2.502 2.502 0 0 0 68.29 22.9l-19.276-3.112a2.503 2.503 0 0 0-.8 0l-19.278 3.108a2.503 2.503 0 0 0-2.113 2.48v24.96a15.944 15.944 0 0 0 5.194 11.858L46.937 75.6a2.51 2.51 0 0 0 3.36 0L65.24 62.17a15.863 15.863 0 0 0 3.832-5.35Zm19.38-2.47a2.44 2.44 0 1 0 2.713-4.06 2.44 2.44 0 0 0-2.713 4.06ZM54.654 41.024H55.9a.65.65 0 0 1 .65.65v13.824a.65.65 0 0 1-.65.65H41.127a.65.65 0 0 1-.65-.65V41.674a.65.65 0 0 1 .65-.65h1.245V38.01c.014-.144.76-4.557 6.142-4.557 5.38 0 6.127 4.413 6.134 4.457l.006 3.114Zm-5.065 10.082v-1.797a1.918 1.918 0 1 0-2.086.035v1.762a.65.65 0 0 0 .65.65h.786a.65.65 0 0 0 .65-.65Zm-5.92-10.082h9.686v-2.955c-.083-.412-.813-3.316-4.841-3.316-4.281 0-4.83 3.219-4.85 3.357l.006 2.914Z"/>
</svg>
