<svg id="icon-products-email" viewBox="0 0 96 96" xmlns="http://www.w3.org/2000/svg">
  <path fill-rule="evenodd" d="M79.853 15.955V28.05l13.899 8.204v50.343a3.975 3.975 0 0 1-3.971 3.97H6.639a3.975 3.975 0 0 1-3.97-3.97V36.255l13.84-8.195V15.955h20.453l11.18-6.62 11.215 6.62h20.496ZM56.8 15.954l-8.657-5.11-8.63 5.11H56.8Zm21.752 1.3h-60.74v35.715l30.416 18.045L78.552 52.95V17.254ZM16.51 29.571 3.97 36.995v7.761l12.54 7.44V29.571ZM32.1 62.958 3.97 46.269v27.442L32.1 62.958Zm59.567 25.526c.5-.5.782-1.18.783-1.887V75.158L62.824 63.833 48.23 72.526l-14.702-8.721L3.97 75.102v11.495a2.673 2.673 0 0 0 2.67 2.67h83.14c.708 0 1.386-.282 1.887-.783Zm-27.42-25.499L92.45 73.767V46.185l-28.203 16.8Zm15.605-10.809 12.598-7.505v-7.674L79.852 29.56v22.616Zm-23.302.831.633 1.013a15.496 15.496 0 0 1-8.38 2.37 13.818 13.818 0 1 1-.252-27.632c7.746 0 13.785 6.038 13.785 12.52 0 5.28-2.814 7.935-6.292 7.935a6.084 6.084 0 0 1-4.836-1.897 6.858 6.858 0 0 1-4.68 1.897c-3.225 0-5.787-2.339-5.787-6.101 0-4.458 3.384-7.936 7.082-7.936a5.048 5.048 0 0 1 4.364 2.15l.347-1.676 3.732.601-1.487 8.505c-.06.323-.091.651-.094.98a2.039 2.039 0 0 0 2.307 1.992c2.246 0 4.016-2.245 4.016-6.45 0-5.849-5.343-11.255-12.457-11.255a12.555 12.555 0 0 0-8.755 21.57 12.552 12.552 0 0 0 9.008 3.533 14.214 14.214 0 0 0 7.746-2.119Zm-7.61-7.331a3.41 3.41 0 0 0 1.097-.762 4.975 4.975 0 0 0 1.359-3.51 2.813 2.813 0 0 0-2.94-2.972 3.457 3.457 0 0 0-2.466 1.075 4.699 4.699 0 0 0-1.328 3.383 2.814 2.814 0 0 0 2.972 3.067 3.41 3.41 0 0 0 1.305-.282Z"/>
</svg>
