<svg id="icon-products-route-miles" viewBox="0 0 96 96" xmlns="http://www.w3.org/2000/svg">
  <path d="M93.263 67.802c-1-3.336-7.792-8.154-14.057-11.998A31.5 31.5 0 0 0 66.02 18.636C69.996 13.416 75.052 7.8 78.973 6.88c1.094-.254 1.846-.116 2.296.429 1.934 2.347-1.414 11.245-2.867 14.474a.5.5 0 0 0 .912.41c.56-1.245 5.404-12.27 2.726-15.52a3.054 3.054 0 0 0-3.296-.766c-4.241.996-9.524 6.845-13.61 12.215-.16-.091-.313-.188-.475-.277a31.48 31.48 0 0 0-42.18 11.554c-5.89-1.272-12.915-2.18-17.373-.684a3.176 3.176 0 0 0-2.48 2.493c-.682 4.938 12.188 13.865 13.657 14.867a.5.5 0 1 0 .563-.826C12.996 42.623 3.11 35.01 3.618 31.345c.105-.76.695-1.31 1.807-1.683 4.14-1.387 10.81-.547 16.518.664a31.487 31.487 0 0 0 9.127 40.532c-2.66 5.555-4.44 10.714-3.743 13.63a3.361 3.361 0 0 0 2.336 2.815c.26.064.528.095.797.094 4.598 0 12.139-8.317 13.03-9.319a.5.5 0 1 0-.746-.664c-2.458 2.761-9.543 9.734-12.837 8.92-.796-.202-1.321-.88-1.607-2.078-.636-2.665 1.055-7.517 3.597-12.814A31.394 31.394 0 0 0 78.85 56.765c6.074 3.727 12.55 8.298 13.456 11.324a1.52 1.52 0 0 1-.07 1.233c-2.295 4.057-14.597.702-19.143-.936a.502.502 0 0 0-.648.299.5.5 0 0 0 .31.642c.474.171 8.197 2.916 14.113 2.916 2.81 0 5.215-.62 6.24-2.43a2.496 2.496 0 0 0 .156-2.011h-.001Zm-29.23-48.817c.108.058.21.123.316.183a124.945 124.945 0 0 0-5.357 7.847 2.042 2.042 0 0 0-.584-.102c.2-.104.364-.267.47-.467a1.452 1.452 0 0 0-.088-1.267c-.138-.308-.487-.447-1.093-.669-.172-.062-.334-.116-.392-.15a9.801 9.801 0 0 1-1.118-1.1c-.265-.288-.533-.58-.824-.854l-.1.106a.674.674 0 0 0 .06-.711 2.325 2.325 0 0 0-.297-.411.574.574 0 0 0 .097-.151c.21-.475-.17-.786-1.397-1.623-.05-.035-.132-.109-.24-.203a4.662 4.662 0 0 0-2.554-1.393l-.344.008-.244-.059h-.004a1.637 1.637 0 0 0-.61.022l-.22-.109c-.664-.233-1.902.411-3.97 1.71a.72.72 0 0 0-.416-.185l-.03-.08a1.59 1.59 0 0 0-.778-.702l-.475-.508a2.245 2.245 0 0 0-1.822-.08 3.776 3.776 0 0 1-.034-.9l.012-.144-.067-.127c-.115-.21-.3-.374-.523-.462a30.043 30.043 0 0 1 22.627 2.58v.001Zm-4.196 9.981a1.464 1.464 0 1 1-2.928 0 1.464 1.464 0 0 1 2.928 0Zm-8.52-5.04c.078.14.142.288.19.44-.03.07-.077.167-.133.284a26.75 26.75 0 0 0-.386.837.985.985 0 0 0-.26-.252 16.806 16.806 0 0 0-1.687-1.01c-1.092-.546-1.203-.863-1.202-.958.002-.37.959-1.042 1.826-1.637l.33-.228c.46-.332.9-.688 1.322-1.066.125.147.269.277.428.387a2.703 2.703 0 0 0-.625.393l.737.657c-.061.043-.69.436-.806.732a1.77 1.77 0 0 0 .267 1.42v.001Zm-15.062-5.557c-.453.378-.87.8-1.243 1.256l-.296.532c-.406.152-.83.25-1.26.29l-.454.043.027.765.21.15c.309.22.764.184 2.689-.471a.649.649 0 0 0 .475.19c.232-.034.459-.094.677-.18a22.79 22.79 0 0 1-.747 4.073 1.073 1.073 0 0 0-.095.817c.056.228.154.444.288.637a15.056 15.056 0 0 0-1.626 2.576 6.213 6.213 0 0 0-.566 2.09 2.016 2.016 0 0 0-2.352.795 108.28 108.28 0 0 0-8.17-2.236A29.955 29.955 0 0 1 36.254 18.37v-.001ZM35.152 33.08a1.465 1.465 0 1 1-2.93 0 1.465 1.465 0 0 1 2.93 0ZM31.65 69.672a30.185 30.185 0 0 1-8.546-38.762c.055-.1.115-.194.17-.292 3.696.84 6.83 1.776 8.377 2.262-.006.067-.02.132-.02.2a2.054 2.054 0 0 0 3.537 1.425c.01.023.02.048.032.07.094.725.114 1.459.06 2.188l-.005.066.013.066c.375.943.842 1.847 1.394 2.698l.158.278.306-.152.604.12a.827.827 0 0 0 .046-.405c.265.64.487 1.18.603 1.469a.82.82 0 0 0-.097 1.084c.34.444.744.837 1.198 1.165a11.057 11.057 0 0 0 3.583 1.598c.51.179 1.01.386 1.505.6a2.039 2.039 0 0 0-.077 2.796 205.516 205.516 0 0 0-12.84 21.526h-.001ZM46.03 45.33a1.464 1.464 0 1 1 0 2.928 1.464 1.464 0 0 1 0-2.928Zm29.93 14.584A30.178 30.178 0 0 1 35.03 71.84a29.586 29.586 0 0 1-2.558-1.575 211.944 211.944 0 0 1 12.843-21.549 2.019 2.019 0 0 0 2.362-.7c.103.142.22.273.348.392.474.3.975.554 1.496.763.283.113.551.262.797.443a.71.71 0 0 0 .777.157.572.572 0 0 0 .303-.47c.303.328.511.733.603 1.17a1.948 1.948 0 0 1-.647 1.393 3.884 3.884 0 0 0-.883 1.418c-.977 2.904.177 4.62 2.14 7.181.404.485.88.904 1.413 1.241.73.513 1.307.917 1.417 1.72a8.245 8.245 0 0 1-.504 2.398 17.574 17.574 0 0 1-2.094 5.276l-.125.484c-.251.12-.525.304-.498.661a.553.553 0 0 0 .053.208c-.157.267-.42.857-.218 1.184l.232.314c.238.397 1.799.606 2.656.606a2.09 2.09 0 0 0 .48-.04.852.852 0 0 0 .275-.129l.26-1.308c.134-.097.28-.208.446-.339l.875-.697-.74-.126c.197-.136.946-.825.946-.825a31.234 31.234 0 0 0 3.465-2.21 15.791 15.791 0 0 0 4.065-3.095 12.737 12.737 0 0 1 1.84-1.681 8.298 8.298 0 0 0 2.976-3.518c.076-.202.269-.61.513-1.129 1.465-3.12 2.2-4.966 1.897-5.778a.767.767 0 0 0-.41-.448 9.306 9.306 0 0 0-2.053-.552 5.887 5.887 0 0 1-2.47-.833 3.585 3.585 0 0 1-.324-.292 2.05 2.05 0 0 0 1.27-.804c1.327.696 5.195 2.758 9.467 5.33a30.244 30.244 0 0 1-1.761 3.833ZM65.137 49.537a1.464 1.464 0 1 1 2.928 0 1.464 1.464 0 0 1-2.928 0Zm12.93 5.576a186.971 186.971 0 0 0-9.437-5.296c.016-.093.025-.186.028-.28a2.052 2.052 0 0 0-4.025-.569 5.295 5.295 0 0 0-.822-.38 6.093 6.093 0 0 1-1.908-.757 4.24 4.24 0 0 1-.538-.436 3.108 3.108 0 0 0-1.435-.866 2.982 2.982 0 0 0-1.32.136 2.808 2.808 0 0 1-1.077.142c-.11-.04-.924-.591-.924-.591l-.383.252-.003.003a.735.735 0 0 0-.34-.526c-.904-.656-1.93.588-2.678 1.496-.158.191-.363.44-.464.547a13.898 13.898 0 0 1-2.684-.4c-.352-.288-.298-.533-.143-1.062a1.773 1.773 0 0 0 .016-1.36 2.09 2.09 0 0 0-2.133-.949l-.534.002c-.062-.174.306-.81.483-1.115.387-.667.786-1.358.382-1.887a1.247 1.247 0 0 0-1.104-.606c-.746.044-1.216.842-1.56 1.424-.06.102-.11.194-.154.257a2.083 2.083 0 0 1-1.534.058 1.414 1.414 0 0 1-.69-.86 3.867 3.867 0 0 1 .894-3.614 4.825 4.825 0 0 1 2.819.036l.656.208a6.366 6.366 0 0 1 .037-.861c.398-.062.805.023 1.145.24.361.132.658.4.827.746.04.136.071.274.092.414.022.528.249 1.027.632 1.391a.96.96 0 0 0 .736.14.88.88 0 0 0 .617-.437c.315-.567-.02-1.432-.286-2.125a8.622 8.622 0 0 0-.151-.369c.04-.726.147-.823.5-1.146.232-.208.45-.433.65-.672a8.234 8.234 0 0 0 1.104-1.537l.18-.442c.063-.187.072-.387.025-.578.458-.514 1.578-1.481 1.578-1.481l.282-.308-.057-.08c.142-.277.302-.544.48-.799.07.137.173.255.299.343a.711.711 0 0 0 .825-.096 2.052 2.052 0 0 0 2.877-2.927 129.658 129.658 0 0 1 5.385-7.854 30.192 30.192 0 0 1 12.835 35.43v.001Z"/>
</svg>
