<svg id="icon-products-sd-wan" viewBox="0 0 96 96" xmlns="http://www.w3.org/2000/svg">
  <path fill-rule="evenodd" d="M41.1 34.06c3.232-9.033 13.225-13.757 22.323-10.544C70.23 25.92 74.843 32.232 75.04 39.4l.018.657.63-.183c5.619-1.62 11.492 1.591 13.12 7.166 1.63 5.573-1.596 11.408-7.213 13.028h-.003c-.958.283-1.951.426-2.95.428h-26.7a8.234 8.234 0 0 0-2.288-2.058h2.092V43.902H44.04v13.463a8.534 8.534 0 0 0-.316.059c-.515-6.822-6.341-12.102-13.291-11.916a13.017 13.017 0 0 0-7.636 2.726c-.549-6.2 3.337-12.138 9.58-13.985a13.561 13.561 0 0 1 8.085.123l.471.154.167-.466ZM21.865 49.03c-.965-6.926 3.275-13.7 10.223-15.756a14.579 14.579 0 0 1 8.225-.013c3.59-9.266 13.982-14.047 23.449-10.703 6.997 2.47 11.81 8.851 12.266 16.179 5.957-1.375 12.029 2.106 13.756 8.018 1.788 6.118-1.754 12.514-7.906 14.29l.001-.001-.143-.488.14.489h.002c-1.05.308-2.14.466-3.236.467h-26.04a8.082 8.082 0 0 1 .997 3.9c0 4.51-3.678 8.159-8.21 8.159H15.997a10.296 10.296 0 0 1-3.177-.51 6.883 6.883 0 0 1-.592-.193l-.007-.003C6.918 70.95 4.18 65.123 6.11 59.85c1.873-5.115 7.448-7.823 12.62-6.23a12.868 12.868 0 0 1 3.135-4.59Zm25.194 8.392a8.295 8.295 0 0 0-2.002-.162V44.919h5.673v12.503h-3.671Zm-3.019.975a7.223 7.223 0 0 0-.65.157l-.632.183-.018-.658c-.178-6.556-5.673-11.732-12.28-11.555-4.946.133-9.297 3.276-10.95 7.904l-.172.48-.48-.173c-4.778-1.727-10.057.723-11.793 5.464-1.736 4.74.724 9.984 5.5 11.71.191.069.356.128.525.172l.016.004.015.005a9.282 9.282 0 0 0 2.876.464H45.39c3.975 0 7.193-3.2 7.193-7.142 0-3.41-2.408-6.265-5.631-6.974H44.04v-.04Zm24.732-28.014h-7.707V58.43h7.707V30.383Zm-6.69 27.03V31.4h5.673v26.014h-5.673Zm-9.524-20.03h7.706v21.055h-7.706V37.383Zm1.016 1.017v19.022h5.673V38.4h-5.673Z"/>
</svg>
