<svg id="icon-products-cloud-solutions" viewBox="0 0 96 96" xmlns="http://www.w3.org/2000/svg">
  <path d="M78.23 30.757c-1.183 0-2.363.137-3.516.406a24.657 24.657 0 0 0-47.62-7.367 19.335 19.335 0 1 0-6.8 37.836v13.524a.65.65 0 0 0 1.3 0V61.683l.06.003h10.912v5.256H25.58a.65.65 0 0 0-.65.65v16.716a.65.65 0 0 0 1.3 0V68.242h6.986a.65.65 0 0 0 .65-.65v-5.906h3.345V80.69a3.684 3.684 0 1 0 1.3 0V61.686h3.478v9.587a.65.65 0 0 0 1.3 0v-9.587h34.94a15.465 15.465 0 1 0 .002-30.929ZM40.245 84.31a2.385 2.385 0 1 1-4.769 0 2.385 2.385 0 0 1 4.77 0ZM78.23 60.386H21.653a18.04 18.04 0 1 1 5.632-35.168.652.652 0 0 0 .816-.4 23.357 23.357 0 0 1 45.35 7.195.65.65 0 0 0 .83.606 14.155 14.155 0 0 1 13.965 3.587 14.165 14.165 0 0 1-10.017 24.181v-.001Z"/>
</svg>
