<svg id="icon-products-session-border-controllers" viewBox="0 0 96 96" xmlns="http://www.w3.org/2000/svg">
  <path fill-rule="evenodd" d="M60.93 36.573H92.9a.65.65 0 0 1 .65.65v21.552a.65.65 0 0 1-.65.65H60.931a17.223 17.223 0 0 1-12.58 5.839v4.042h21.232l-2.017-2.016a.65.65 0 0 1 .92-.92l3.085 3.085a.651.651 0 0 1 0 .92l-3.167 3.167a.65.65 0 0 1-.92-.92l2.016-2.015H47.7a.649.649 0 0 1-.65-.65v-4.723a17.224 17.224 0 0 1-11.98-5.809H3.1a.65.65 0 0 1-.65-.65V37.223a.65.65 0 0 1 .65-.65h31.973a17.221 17.221 0 0 1 11.977-5.806v-4.073H25.84l2.017 2.017a.652.652 0 0 1-.21 1.06.65.65 0 0 1-.709-.14l-3.085-3.085a.65.65 0 0 1 0-.92l3.168-3.168a.65.65 0 0 1 .918.92l-2.014 2.015H47.7a.65.65 0 0 1 .65.65v4.694a17.22 17.22 0 0 1 12.58 5.836ZM3.75 37.874v20.251l30.276-.001a17.153 17.153 0 0 1 .003-20.25H3.75Zm35.373 23.412A15.98 15.98 0 0 0 48 63.98h.001A15.999 15.999 0 0 0 63.981 48a15.98 15.98 0 1 0-24.858 13.286Zm22.852-3.162H92.25V37.873H61.973a17.155 17.155 0 0 1 .002 20.251ZM12.663 48.119a1.796 1.796 0 1 1-3.592 0 1.796 1.796 0 0 1 3.592 0Zm5.547-1.796a1.795 1.795 0 1 0 0 3.59 1.795 1.795 0 0 0 0-3.59Zm9.14 1.796a1.796 1.796 0 1 1-3.592 0 1.796 1.796 0 0 1 3.592 0Zm43.06 1.796a1.796 1.796 0 1 0 0-3.592 1.796 1.796 0 0 0 0 3.592Zm8.342-.303a1.795 1.795 0 1 1-1.996-2.985 1.795 1.795 0 0 1 1.996 2.985Zm6.346.303a1.796 1.796 0 1 0 0-3.592 1.796 1.796 0 0 0 0 3.592Zm-31.834-7.097h1.044a.65.65 0 0 1 .65.65V55.81a.65.65 0 0 1-.65.65h-13.19a.65.65 0 0 1-.65-.65V43.468a.65.65 0 0 1 .65-.65h1.042V40.2a.63.63 0 0 1 .007-.099c.006-.04.684-4.04 5.546-4.04 4.864 0 5.539 4 5.545 4.04l.006 2.718Zm-4.522 9.071v-1.572a1.787 1.787 0 1 0-2 .04v1.532a.65.65 0 0 0 .65.65h.7a.65.65 0 0 0 .65-.65Zm-5.283-9.072h8.507v-2.559c-.08-.379-.733-2.897-4.253-2.897-3.556 0-4.18 2.517-4.254 2.894v2.562Z"/>
</svg>
