<svg id="icon-products-energy-and-utilities" viewBox="0 0 96 96" xmlns="http://www.w3.org/2000/svg">
  <path fill-rule="evenodd" d="M21.88 86.512H8.936a.65.65 0 0 1-.65-.65V36.775a.65.65 0 0 1 .65-.65H21.88a.65.65 0 0 1 .65.65v49.087a.65.65 0 0 1-.65.65Zm-.65-49.087H9.586l.001 47.787H21.23V37.425Zm.65-6.722H8.936a.65.65 0 0 1-.65-.65v-9.027a.65.65 0 0 1 .65-.65H21.88a.65.65 0 0 1 .65.65v9.027a.65.65 0 0 1-.65.65Zm-.65-9.028H9.586l.001 7.728H21.23v-7.728Zm6.871 64.189V57.728a.651.651 0 0 1 .322-.56l19.92-11.706a.65.65 0 0 1 .98.56V56.39l18.74-10.929a.65.65 0 0 1 .977.561v10.941l18.31-11.491a.65.65 0 0 1 .995.55v39.842a.65.65 0 0 1-.65.65H28.751a.65.65 0 0 1-.65-.65Zm19.921-38.706-18.62 10.943.001 27.113h57.641V47.197l-18.31 11.492a.65.65 0 0 1-.996-.55V47.154L49 58.085a.65.65 0 0 1-.978-.562V47.158Zm43.37 42.372H4.421v-.001a1.39 1.39 0 0 0-1.39 1.389v1.626a1.389 1.389 0 0 0 1.39 1.39H91.39a1.389 1.389 0 0 0 1.39-1.39v-1.626a1.389 1.389 0 0 0-1.389-1.388ZM15.028 17.001a.967.967 0 0 1-.61.217v.001a.97.97 0 0 1-.917-1.292c2.002-5.959 4.882-7.979 6.947-8.624 2.24-.693 4.651-.228 9.455.702 4.103.793 5.628.878 7.416.415a6.537 6.537 0 0 0 4.215-3.543.99.99 0 0 1 .605-.501.97.97 0 0 1 1.215.754c.513 2.598.3 6.09-1.835 8.09-3.679 3.445-10.578 2.167-15.616 1.233a20.647 20.647 0 0 0-4.168-.548 12.412 12.412 0 0 0-6.683 3.076l-.024.02Zm7.8-8.731a6.6 6.6 0 0 0-1.993.274c-2.283.712-4.283 3.071-5.7 6.691a13.71 13.71 0 0 1 6.448-2.62c1.536.01 3.065.197 4.557.56h.005c4.496.834 11.286 2.092 14.485-.904 1.75-1.638 1.748-4.415 1.588-5.942a7.834 7.834 0 0 1-4.566 3.346c-2.022.525-3.664.444-7.996-.395a40.799 40.799 0 0 0-6.829-1.01Zm21.87 62.286h-8.912v-8.91H44.7v8.91Zm-1.3-7.611h-6.312l.001 6.311h6.31v-6.311Zm19.283 7.611H53.77v-8.91h8.912v8.91Zm-1.3-7.611H55.07l.001 6.311h6.31v-6.311Zm19.283 7.611h-8.912v-8.91h8.912v8.91Zm-1.302-7.611h-6.31v6.311h6.31v-6.311Z"/>
</svg>
