<svg id="icon-products-internet-cloud" viewBox="0 0 96 96" xmlns="http://www.w3.org/2000/svg">
  <path d="m78.493 32.258-.015-.001h-.328c-1.176 0-2.348.134-3.494.4A24.575 24.575 0 0 0 27.2 25.313a19.269 19.269 0 1 0-6.79 37.692 27.637 27.637 0 0 0 17.96 21.8c.129.05.25.113.382.16.206.07.415.123.623.181A27.555 27.555 0 0 0 74.882 63.08h3.28a15.413 15.413 0 0 0 .331-30.822ZM21.628 62.285a26.648 26.648 0 0 1-.2-4.635l.01-.21c.021-.414.053-.826.094-1.234l.003-.034a26.14 26.14 0 0 1 .49-2.995l7.122 2.407a36.65 36.65 0 0 0-1.328 11.22c-1.661.145-3.311.39-4.942.735a26.048 26.048 0 0 1-1.25-5.254Zm37.07-26.806a13.584 13.584 0 0 1 5.295 5.992 24.158 24.158 0 0 1 2.324 9.13 39.57 39.57 0 0 1-7.987-.356c1.28-6.385 1.459-11.786.367-14.766Zm4.46 2.22a26.376 26.376 0 0 1 9.14 12.119c-1.547.325-3.11.559-4.684.699a25.385 25.385 0 0 0-2.447-9.604 14.648 14.648 0 0 0-2.01-3.215v.001Zm.924 14.287c.763 0 1.527-.023 2.293-.066a36.277 36.277 0 0 1-2.055 12.643c-.16.461-.328.916-.503 1.365l-9.081-3.069a86.863 86.863 0 0 0 3.326-11.331c1.992.301 4.005.454 6.02.458ZM40.216 56.41c-.163.464-.313.925-.465 1.386L30.74 54.75c.13-.419.26-.838.405-1.255a36.53 36.53 0 0 1 6.338-11.362 40.88 40.88 0 0 0 6.718 4.672 86.99 86.99 0 0 0-3.986 9.604v.001Zm5.112-8.991a40.81 40.81 0 0 0 11.447 3.896 85.58 85.58 0 0 1-2.752 9.679c-.174.496-.353.965-.53 1.447l-12.51-4.229a86.505 86.505 0 0 1 4.345-10.793ZM40.584 59.45l12.465 4.212a81.793 81.793 0 0 1-3.233 7.384 40.81 40.81 0 0 0-11.288-3.76 83.068 83.068 0 0 1 2.056-7.836Zm13.697 4.628 9.044 3.057a35.736 35.736 0 0 1-5.612 9.153 40.851 40.851 0 0 0-6.748-4.624 84.845 84.845 0 0 0 3.316-7.586Zm2.76-14.038a39.516 39.516 0 0 1-11.123-3.793c4.002-7.845 8.011-11.97 10.03-11.97.104 0 .208.013.308.041a1.828 1.828 0 0 1 .98 1.019c1.284 2.564 1.133 8.104-.194 14.703h-.002Zm-12.255-4.402a39.581 39.581 0 0 1-6.43-4.491c4.175-4.61 9.244-7.437 14.123-7.437a11.938 11.938 0 0 1 1.194.063c-2.688 1.706-5.91 6.05-8.887 11.865Zm-7.443-5.38a39.966 39.966 0 0 1-3.481-3.603.613.613 0 0 0-.082-.065 26.09 26.09 0 0 1 13.871-3.979c.68 0 1.352.034 2.02.086-4.392.825-8.697 3.525-12.33 7.561h.002Zm-.862.974a38.14 38.14 0 0 0-6.97 13.102l-7.17-2.423a26.339 26.339 0 0 1 10.403-14.64.647.647 0 0 0 .124.224 41.27 41.27 0 0 0 3.613 3.737Zm-7.388 36.183a26.34 26.34 0 0 1-5.746-8.641 39.999 39.999 0 0 1 4.555-.672 25.105 25.105 0 0 0 2.396 9.043c.419.923.931 1.8 1.53 2.617a26.654 26.654 0 0 1-2.736-2.347Zm7.8 5.23a13.589 13.589 0 0 1-5.42-6.057 23.87 23.87 0 0 1-2.274-8.567c2.6-.145 5.208-.032 7.785.335-1.184 6.269-1.266 11.498-.092 14.29v-.001Zm-7.779-15.921A35.287 35.287 0 0 1 30.38 56l8.97 3.032a83.925 83.925 0 0 0-2.114 8.047 40.875 40.875 0 0 0-8.122-.356v.001Zm10.098 16.789a1.835 1.835 0 0 1-.98-1.022c-1.235-2.463-1.148-7.67.04-13.93a39.519 39.519 0 0 1 10.944 3.638c-4.104 7.82-8.209 11.905-10.005 11.314Zm2.269.74c2.655-1.481 5.873-5.647 8.894-11.43a39.56 39.56 0 0 1 6.474 4.437c-4.596 4.946-10.197 7.639-15.37 6.993h.002Zm6.17.746c-.13 0-.255-.008-.384-.01a23.9 23.9 0 0 0 10.556-6.91 39.987 39.987 0 0 1 3.23 3.282 26.388 26.388 0 0 1-13.401 3.638Zm18.56-7.584a26.628 26.628 0 0 1-4.036 3.25 41.297 41.297 0 0 0-3.481-3.551 36.88 36.88 0 0 0 5.86-9.564l6.916 2.338a26.366 26.366 0 0 1-5.258 7.527Zm7.636-16.878-.011.142a25.9 25.9 0 0 1-.17 1.664v.006a26.023 26.023 0 0 1-1.677 6.341l-6.954-2.35c.173-.449.354-.891.513-1.35a37.57 37.57 0 0 0 2.123-13.175 41.277 41.277 0 0 0 5.05-.753c.252.809.466 1.634.64 2.475l.014.066c.073.357.135.717.193 1.078.016.1.034.2.048.3.038.25.067.502.097.755.037.317.069.634.094.952.062.71.094 1.422.097 2.134v.012c0 .568-.02 1.136-.058 1.703Zm4.314 1.242H75.05c.057-.546.098-1.096.122-1.651l.001-.04c.019-.406.032-.814.032-1.224 0-.077-.005-.153-.006-.23-.001-.196-.01-.391-.014-.587a27.502 27.502 0 0 0-.096-1.638c-.022-.26-.049-.519-.08-.776-.02-.161-.03-.324-.05-.485-.016-.117-.04-.232-.056-.349-.017-.115-.037-.23-.055-.344a27.79 27.79 0 0 0-.197-1.098l-.024-.11a27.511 27.511 0 0 0-50.01-9.483l-.047.07c-.338.52-.658 1.051-.96 1.594-.044.076-.089.152-.13.229-.28.51-.54 1.028-.785 1.555-.046.098-.096.193-.14.291-.28.617-.541 1.242-.775 1.88l-.01.028a26.91 26.91 0 0 0-.409 1.203l-.03.095c-.121.393-.235.79-.34 1.19l-.03.114c-.105.411-.2.826-.288 1.244l-.017.073a27.34 27.34 0 0 0-.413 2.702c-.012.117-.018.236-.027.353-.029.317-.056.634-.073.954-.017.302-.023.607-.03.912-.002.127-.007.253-.01.38 0 .078-.005.155-.005.233 0 .345.013.687.026 1.029.022.607.058 1.21.12 1.808a17.97 17.97 0 1 1 7.148-34.965.653.653 0 0 0 .817-.398 23.274 23.274 0 0 1 45.186 7.17.65.65 0 0 0 .83.605 14.102 14.102 0 0 1 3.926-.555h.32a14.113 14.113 0 0 1-.31 28.221Z"/>
</svg>
