<svg id="icon-products-sap-applications" viewBox="0 0 96 96" xmlns="http://www.w3.org/2000/svg">
  <path fill-rule="evenodd" d="M87.78 48.263c.058.726.062 1.456.013 2.183l5.882 4.219-4.955 9.24-6.77-2.567a15.015 15.015 0 0 1-2.399 1.498l-.734 7.323-6.113.181v-.335a6.089 6.089 0 0 1-4.804 2.352H24.908a6.091 6.091 0 0 1-4.804-2.35v.054h-9.376a8.345 8.345 0 1 1 2.015-16.447 10.626 10.626 0 0 1 6.06-5.758V32.569a6.11 6.11 0 0 1 6.105-6.105H67.9a6.091 6.091 0 0 1 4.804 2.352v-.193l4.921-.14 1.156 7.171c.385.165.762.347 1.132.544.664.358 1.3.764 1.903 1.217l6.348-2.854 5.496 8.926-5.88 4.776ZM18.803 68.76V49.239a9.326 9.326 0 0 0-5.058 5.383l-.214.595-.602-.197a7.048 7.048 0 1 0-2.201 13.74h8.075Zm16.583-39.236a1.817 1.817 0 1 0-2.018 3.022 1.817 1.817 0 0 0 2.018-3.022Zm-4.042 0a1.817 1.817 0 1 0-2.018 3.022 1.817 1.817 0 0 0 2.018-3.022Zm-4.045 0a1.817 1.817 0 1 0-2.02 3.022 1.817 1.817 0 0 0 2.02-3.021Zm43.996 40.124c.9-.9 1.407-2.122 1.408-3.395V34.958H20.104v31.295a4.808 4.808 0 0 0 4.804 4.803H67.9a4.808 4.808 0 0 0 3.395-1.408Zm6.373-24.203a6.16 6.16 0 0 0-3.665-2.102v12.141a6.16 6.16 0 0 0 3.665-10.04ZM81.72 59.86l6.393 2.423 3.878-7.228-5.557-3.984.034-.371c.083-.884.079-1.773-.012-2.656l-.036-.35 5.537-4.496-4.3-6.982-6.023 2.707-.31-.247a13.437 13.437 0 0 0-3.37-1.96l-.34-.136-1.09-6.765-2.518.072v12.137a7.478 7.478 0 0 1 0 14.803v12.175l3.632-.108.694-6.915.334-.156a13.738 13.738 0 0 0 2.764-1.729l.29-.234Zm-47.172-7.737c.67.618 1.54.971 2.45.996.738 0 1.183-.294 1.183-.774v-.023c0-.457-.28-.692-1.652-1.043-1.652-.422-2.718-.879-2.718-2.508v-.023c0-1.489 1.194-2.473 2.87-2.473a4.749 4.749 0 0 1 3.047 1.042l-.937 1.36a3.85 3.85 0 0 0-2.133-.808c-.692 0-1.055.316-1.055.715v.023c0 .539.352.715 1.77 1.08 1.664.432 2.601 1.03 2.601 2.46v.022c0 1.629-1.242 2.544-3.012 2.544a5.22 5.22 0 0 1-3.48-1.313l1.066-1.277Zm12.172.632h-3.468l-.75 1.84h-1.84l3.515-8.26h1.664l3.516 8.26H47.47l-.75-1.84Zm-.644-1.593-1.09-2.66-1.09 2.66h2.18Zm7.72.972h-1.373v2.461H50.62v-8.203h3.352c1.956 0 3.14 1.16 3.14 2.836v.024c0 1.898-1.476 2.882-3.316 2.882Zm.022-4.113h-1.395v2.508h1.43a1.272 1.272 0 0 0 1.43-1.242v-.024c0-.808-.563-1.242-1.465-1.242Z"/>
</svg>
