<svg id="icon-business-consulting" viewBox="0 0 96 96" xmlns="http://www.w3.org/2000/svg">
  <path fill-rule="evenodd" d="M89.995 7.422H6.005a3.56 3.56 0 0 0-3.556 3.554v49.72a3.56 3.56 0 0 0 3.556 3.554.65.65 0 0 0 0-1.3 2.258 2.258 0 0 1-2.255-2.254v-49.72A2.257 2.257 0 0 1 6.005 8.72h83.99a2.257 2.257 0 0 1 2.255 2.255v49.72a2.258 2.258 0 0 1-2.255 2.254h-29.15a.65.65 0 0 0 0 1.3h29.15a3.56 3.56 0 0 0 3.556-3.554v-49.72a3.56 3.56 0 0 0-3.556-3.554v.001Zm-17.24 6.275h.083a14.088 14.088 0 0 1 14.048 14.13l-14.13-.13v-14Zm11.933 16.71v.888c0 9.412-6.965 17.07-15.528 17.07a17.15 17.15 0 0 1-17.07-17.069c0-8.564 7.657-15.531 17.07-15.531h.885v14.644l14.643-.002ZM44.645 63.998l7.05 3.772a7.047 7.047 0 0 1 3.728 6.225v7.656a7.059 7.059 0 0 1-7.052 7.063H12.74a7.066 7.066 0 0 1-7.058-7.058v-7.665a7.045 7.045 0 0 1 3.72-6.216l7.003-3.76 2.586-1.452a7.055 7.055 0 0 1 5.82-.488l3.758 1.341a5.77 5.77 0 0 0 3.936-.022l3.604-1.336a7.043 7.043 0 0 1 5.907.466l2.628 1.474Zm9.04 19.857a5.756 5.756 0 0 0 .437-2.204v-7.657a5.747 5.747 0 0 0-3.04-5.077l-7.062-3.78-2.64-1.48a5.74 5.74 0 0 0-4.818-.38l-3.605 1.336a7.07 7.07 0 0 1-4.824.027l-3.76-1.34a5.753 5.753 0 0 0-4.745.397l-2.596 1.458-7.013 3.765a5.747 5.747 0 0 0-3.036 5.071v7.663a5.765 5.765 0 0 0 5.758 5.76H48.37a5.754 5.754 0 0 0 5.316-3.56ZM43.83 43.888c0 9.004-5.954 16.329-13.272 16.329-7.32 0-13.274-7.325-13.274-16.329 0-9.004 5.956-16.33 13.274-16.33 7.318 0 13.272 7.326 13.272 16.33Zm-1.301 0c0-8.287-5.37-15.03-11.971-15.03-6.602 0-11.973 6.743-11.973 15.03 0 8.287 5.372 15.029 11.973 15.029 6.6 0 11.97-6.742 11.97-15.029Z"/>
</svg>
