<svg id="icon-people-engineers" viewBox="0 0 96 96" xmlns="http://www.w3.org/2000/svg">
  <path fill-rule="evenodd" d="M93.024 8.339a1.088 1.088 0 0 0-.774-.321H63.146a1.095 1.095 0 0 0-1.091 1.093v16.593l-4.513 6.68 8.746-2.961h25.963a1.095 1.095 0 0 0 1.092-1.094V9.112a1.087 1.087 0 0 0-.32-.773h.001Zm-.681 19.99a.094.094 0 0 1-.093.094H66.206l-6.175 2.062 3.024-4.475V9.111a.093.093 0 0 1 .092-.093H92.25a.093.093 0 0 1 .093.093v19.218Zm-9.584 57.394-8.868-6.234a.646.646 0 0 0 .053-.256v-42.98a.65.65 0 0 0-.65-.65H55.897a.655.655 0 0 1 .002-.068c.002-.023.003-.045.003-.069 0-8.9-5.886-16.14-13.12-16.14-7.236 0-13.12 7.24-13.12 16.14 0 .023 0 .045.002.068a1.2 1.2 0 0 1 .003.069H12.258a.65.65 0 0 0-.65.65v42.98a.64.64 0 0 0 .043.217L3.16 85.625a.649.649 0 0 0-.64.648v1.06a.65.65 0 0 0 .65.65h79.216a.65.65 0 0 0 .65-.65v-1.06l-.002-.013a.648.648 0 0 0-.274-.537ZM42.782 20.626c6.518 0 11.82 6.657 11.82 14.84S49.3 50.307 42.78 50.307c-6.517 0-11.82-6.658-11.82-14.84 0-8.182 5.302-14.84 11.82-14.841Zm0 0ZM12.908 39.647h17.215c1.502 6.876 6.6 11.96 12.658 11.96s11.154-5.084 12.657-11.96h17.206v38.937H64.25a6.982 6.982 0 0 0 3.107-5.796v-7.566a6.968 6.968 0 0 0-3.688-6.156l-6.966-3.726-2.596-1.458a6.962 6.962 0 0 0-5.843-.458l-3.563 1.32a5.688 5.688 0 0 1-3.88.024l-3.715-1.331a6.986 6.986 0 0 0-5.753.481l-2.555 1.43-6.919 3.713a6.97 6.97 0 0 0-3.681 6.151v7.57a6.979 6.979 0 0 0 3.105 5.802h-8.394V39.647Zm11.367 38.737a5.686 5.686 0 0 1-4.778-5.601v-7.57a5.67 5.67 0 0 1 2.995-5.006l1.782-.957v19.134Zm18.498-15.249-10.218-8.354a5.648 5.648 0 0 1 4.114-.12l3.715 1.33c1.544.55 3.232.54 4.77-.03l3.561-1.318a5.665 5.665 0 0 1 4.28.14l-10.222 8.352Zm11.442-7.67 5.767 3.147v19.847H43.427v-14.18l10.79-8.814Zm-12.09 8.82v14.178h-16.55V58.616l5.762-3.152 10.787 8.821Zm19.157 14.098V59.265l1.773.948a5.671 5.671 0 0 1 3 5.01v7.564a5.689 5.689 0 0 1-4.773 5.596ZM5.398 85.605l7.36-5.352h59.96l7.612 5.352H5.398Zm74.165-69.78 1.917-.794 1.35 2.349-1.62 1.238c.025.183.038.368.038.553a4.296 4.296 0 0 1-.034.512l1.612 1.24-1.36 2.344-1.866-.781a4.12 4.12 0 0 1-.927.532l-.256 1.973h-2.71l-.26-1.99a4.15 4.15 0 0 1-.935-.555l-1.845.763-1.352-2.348 1.626-1.242a4.153 4.153 0 0 1 .043-1.183l-1.559-1.2 1.361-2.343 1.968.824a4.11 4.11 0 0 1 .71-.384l.263-2.025h2.71l.266 2.025c.306.129.594.294.86.492Zm-1.09 4.726a1.98 1.98 0 0 0 .58-1.4v-.001a1.98 1.98 0 1 0-1.98 1.98v.001a1.98 1.98 0 0 0 1.4-.58Z"/>
</svg>
