<svg id="icon-products-online-shopping" viewBox="0 0 96 96" xmlns="http://www.w3.org/2000/svg">
  <path d="M85.765 65.065A7.782 7.782 0 0 0 78 72.625H47.067a7.77 7.77 0 0 0-10.094-7.203l-1.928-6.23h49.763a.651.651 0 0 0 .637-.518l6.434-31a.65.65 0 0 0-.636-.783H25.07c-.008 0-.015.004-.023.005l-3.423-11.058a.65.65 0 0 0-.622-.458H3.952a.65.65 0 1 0 0 1.301h16.571l5.154 16.65h-14.22a.5.5 0 0 0 0 1H25.89a.471.471 0 0 0 .091-.018l1.242 4.013H8.24a2.916 2.916 0 1 0 0 1h19.293l.835 2.698h-9.222v6.08H6.333a.5.5 0 0 0 0 1h13.813v-6.08h8.532l2.786 9H17.46a.5.5 0 0 0 0 1h14.315l3.993 12.899a7.772 7.772 0 1 0 11.226 8.003h31.08a7.773 7.773 0 1 0 7.692-8.861h-.001ZM5.374 40.742a1.916 1.916 0 1 1 .002-3.831 1.916 1.916 0 0 1-.002 3.831Zm20.074-12.55h64.996l-6.165 29.7H34.642l-9.194-29.7ZM39.3 79.319a6.477 6.477 0 1 1 0-12.956 6.477 6.477 0 0 1 0 12.957v-.001Zm46.465 0a6.477 6.477 0 1 1 6.477-6.477 6.485 6.485 0 0 1-6.477 6.477Z"/>
</svg>
