<svg id="icon-business-opportunities" viewBox="0 0 96 96" xmlns="http://www.w3.org/2000/svg">
  <path fill-rule="evenodd" d="M50 2.77h-.001a2.531 2.531 0 0 0-2.531 2.531v2.532a2.53 2.53 0 0 0 2.53 2.531H50a2.531 2.531 0 0 0 2.53-2.531V5.301A2.531 2.531 0 0 0 50 2.77ZM24.683 28.085h2.532a2.531 2.531 0 0 1 2.531 2.531v.001a2.53 2.53 0 0 1-2.53 2.531h-2.533a2.531 2.531 0 0 1-2.53-2.531v-.001a2.531 2.531 0 0 1 2.53-2.531Zm48.099 0h2.532a2.531 2.531 0 0 1 2.531 2.531v.001a2.531 2.531 0 0 1-2.531 2.531h-2.532a2.53 2.53 0 0 1-2.531-2.531v-.001a2.531 2.531 0 0 1 2.531-2.531Zm-42.474-17.16-.001.001v-.001a2.529 2.529 0 0 0 0 3.58l1.79 1.79a2.53 2.53 0 0 0 3.58 0 2.531 2.531 0 0 0 0-3.58l-1.79-1.79a2.532 2.532 0 0 0-3.58 0Zm35.8.002-1.79 1.79a2.531 2.531 0 0 0 0 3.578l.002.002a2.53 2.53 0 0 0 3.578 0l1.79-1.79a2.531 2.531 0 1 0-3.58-3.58Zm-21.822 35.8v-4.103a13.311 13.311 0 1 1 11.427 0v4.103a2.268 2.268 0 0 1-2.26 2.262h-6.904a2.265 2.265 0 0 1-2.263-2.262Zm5.05-28.1a12 12 0 0 0-4.138 22.983.65.65 0 0 1 .39.596v4.522a.962.962 0 0 0 .962.96h6.902a.963.963 0 0 0 .962-.962v-4.52a.65.65 0 0 1 .39-.596 12 12 0 0 0 6.204-15.798 12.058 12.058 0 0 0-11.01-7.204c-.22 0-.44.006-.661.019Zm2.284 36.596h-3.241a.912.912 0 0 1-.912-.912v-1.628h-1.96a.57.57 0 0 1-.57-.57v-1.388h10.126v1.388a.57.57 0 0 1-.57.57H52.53v1.628a.912.912 0 0 1-.91.912Zm19.347.823a3.617 3.617 0 0 1 2.352 4.706l-2.962 7.894-.001.004a9.354 9.354 0 0 1-4.636 5.077L41.24 85.892a7.206 7.206 0 0 0-3.93 6.665.651.651 0 0 1-.65.673H18.806a.65.65 0 0 1-.624-.834l2.863-9.743a81.084 81.084 0 0 1 2.403-6.967l1.469-3.7a13.179 13.179 0 0 1 8.52-7.733l12.077-3.652a3.696 3.696 0 0 1 4.348 1.796 3.52 3.52 0 0 1-1.795 4.867l-6.078 2.613a1.578 1.578 0 0 0-.98 1.477c.004.416.175.813.473 1.104a1.777 1.777 0 0 0 1.859.346l15.539-5.629a8.677 8.677 0 0 0 4.626-4.129l2.973-5.18a3.867 3.867 0 0 1 4.489-1.82ZM69.14 68.187 72.1 60.3v-.001a2.312 2.312 0 0 0-1.373-2.962l-.136-.046a2.571 2.571 0 0 0-2.983 1.216l-2.963 5.162a9.957 9.957 0 0 1-5.314 4.724l-15.534 5.628a3.074 3.074 0 0 1-3.21-.621 2.87 2.87 0 0 1 .896-4.72l6.08-2.615a2.22 2.22 0 0 0 1.144-3.071 2.393 2.393 0 0 0-2.813-1.149L33.81 65.498a11.885 11.885 0 0 0-7.686 6.973l-1.467 3.696a79.475 79.475 0 0 0-2.365 6.853l-2.618 8.91h16.343a8.512 8.512 0 0 1 4.643-7.2l24.483-12.169a8.062 8.062 0 0 0 3.997-4.374Z"/>
</svg>
