<svg id="icon-places-remote-office" viewBox="0 0 96 96" xmlns="http://www.w3.org/2000/svg">
  <path fill-rule="evenodd" d="M21.255 7.333a.65.65 0 0 1-.246.061h-.001A12.995 12.995 0 0 0 8.684 21.328a.65.65 0 1 1-1.296.097 14.296 14.296 0 0 1 13.561-15.33.661.661 0 0 1 .68.62.65.65 0 0 1-.374.618ZM86.668 78.65l-3.41-1.907-1.266-.739a3.65 3.65 0 0 0-3.136-.274l-1.837.683a2.345 2.345 0 0 1-1.674-.01l-.61-.237v-.964a5.44 5.44 0 0 0 1.43.195c3.756 0 6.811-3.872 6.811-8.63 0-4.758-3.055-8.632-6.81-8.632a5.432 5.432 0 0 0-1.43.195V41.844l6.347.002L47.938 8.148l-.463-.463-18.504 18.81V20.73a1.003 1.003 0 0 0-.97-1.037h-7.39a1.184 1.184 0 0 0-1.127 1.218v15.227l-5.587 5.68 6.379.002v38.305a.651.651 0 0 0 .65.65H63.92c-.15.422-.227.868-.227 1.316v3.892a3.855 3.855 0 0 0 3.778 3.92h17.413a3.848 3.848 0 0 0 3.766-3.912v-3.897a3.945 3.945 0 0 0-1.981-3.446l-.002.001ZM76.165 59.435c3.04 0 5.512 3.288 5.512 7.33s-2.473 7.33-5.512 7.33c-3.04 0-5.512-3.288-5.512-7.33s2.472-7.33 5.512-7.33Zm-55.53-38.74 7.336.015v6.732h.069l-7.556 7.68V20.89a.187.187 0 0 1 .15-.196Zm-3.636 19.822L47.48 9.535l30.502 31.01H48.13L17 40.517Zm36.84 39.26H41.168V66.085a4.748 4.748 0 0 1 4.733-4.75h3.208a4.748 4.748 0 0 1 4.734 4.75l-.002 13.692Zm10.838-.3H54.84V66.084a5.75 5.75 0 0 0-5.734-5.75H45.9a5.749 5.749 0 0 0-5.733 5.75v13.391H21.574V41.821l51.86.022v17.02c-2.4 1.337-4.08 4.373-4.08 7.902 0 3.53 1.681 6.566 4.082 7.902v1.014a3.64 3.64 0 0 0-3.039.3l-4.724 2.67a3.902 3.902 0 0 0-.996.825v.001Zm22.673 6.527a2.547 2.547 0 0 1-2.478 2.6l-17.388.001a2.55 2.55 0 0 1-2.49-2.603v-3.915a2.638 2.638 0 0 1 1.319-2.304l3.46-1.93 1.284-.75a2.354 2.354 0 0 1 2.06-.17l1.76.68a3.64 3.64 0 0 0 2.598.016l1.835-.68a2.366 2.366 0 0 1 2.025.177l4.694 2.654a2.643 2.643 0 0 1 1.322 2.31v3.914ZM20.294 14.192a5.24 5.24 0 0 0-4.98 5.47l.008.145a.6.6 0 0 0 .635.552l.058-.002a.698.698 0 0 0 .598-.748 3.939 3.939 0 0 1 3.74-4.118.65.65 0 0 0-.06-1.3v.001Zm.608-2.786a.65.65 0 0 0 .62-.68.666.666 0 0 0-.68-.62A10.013 10.013 0 0 0 11.33 20.57l.017.27a.65.65 0 1 0 1.296-.097l-.014-.233a8.71 8.71 0 0 1 8.274-9.103v-.001Z"/>
</svg>
