<svg id="icon-platform-it-agility-hybrid-cloud" viewBox="0 0 96 96" xmlns="http://www.w3.org/2000/svg">
  <path d="M82.497 26.791a36.057 36.057 0 0 0-7.248-13.493.633.633 0 0 0-.024-.326.644.644 0 0 0-.632-.414 31.703 31.703 0 0 0-8.97-6.904 28.562 28.562 0 0 0-21.649-1.907 6.22 6.22 0 0 0-3.473 1.33c-13.53 6.148-21.407 21.884-19.242 37.707-.637.207-1.258.46-1.858.759a13.485 13.485 0 0 0 6.08 25.519h3.092v10.224a.65.65 0 0 0 1.3 0V69.062h12.412v1.124h-7.882a.652.652 0 0 0-.65.65v18.68a.65.65 0 0 0 1.3 0v-18.03h7.882a.65.65 0 0 0 .65-.65v-1.774h3.89v16.476a4.04 4.04 0 1 0 1.3 0V69.062h4.04v5.884a.65.65 0 1 0 1.3 0v-5.884h10.341a10.83 10.83 0 0 0 9.72-6.089c8.661-9.145 12.08-23.193 8.321-36.182Zm-8.31-12.737a34.552 34.552 0 0 1 6.555 11.498l-14.87 5.223A77.737 77.737 0 0 0 60.8 19.056l13.387-5.002ZM65.054 32.44c.131.404.273.798.4 1.206a66.834 66.834 0 0 1 2.845 12.713l-3.124 1.09c-.202-.014-.402-.036-.607-.038l-.218-.002h-.005c-.75 0-1.5.079-2.235.234a17.072 17.072 0 0 0-6.263-11.969l9.207-3.234Zm-10.466 2.3a17.116 17.116 0 0 0-16.402-1.54 72.35 72.35 0 0 1-.865-5.37l22.252-8.315a76.323 76.323 0 0 1 5.073 11.69L54.588 34.74ZM65.032 6.81a30.304 30.304 0 0 1 8.214 6.207l-13.07 4.884a50.707 50.707 0 0 0-4.656-6.928c-2.823-3.48-5.657-5.749-8.305-6.711A27.318 27.318 0 0 1 65.032 6.81Zm-23.89-.598a28.755 28.755 0 0 1 2.05-.838c.332-.12.666-.225 1-.33 3.01-.113 6.686 2.27 10.318 6.748a49.202 49.202 0 0 1 4.427 6.571l-21.764 8.133c-.985-9.692.45-17.44 3.97-20.284Zm-2.877 1.493c-2.389 4.08-3.24 10.994-2.356 19.264l-13.282 4.963c1.543-10.161 7.217-19.24 15.638-24.227ZM22.433 33.393l13.632-5.094c.226 1.775.53 3.607.914 5.482a17.028 17.028 0 0 0-7.884 8.806 13.357 13.357 0 0 0-6.57-.157 37.338 37.338 0 0 1-.09-9.037h-.002Zm28.433 56.12a2.741 2.741 0 1 1-5.483 0 2.741 2.741 0 0 1 5.483 0Zm13.583-21.75-.103-.001H25.48A12.182 12.182 0 0 1 13.45 53.651a12.184 12.184 0 0 1 15.837-9.647.652.652 0 0 0 .815-.4 15.84 15.84 0 0 1 30.751 4.88.649.649 0 0 0 .832.606 9.536 9.536 0 0 1 2.66-.38h.213a9.527 9.527 0 0 1-.108 19.053Zm10.702-7.93a10.68 10.68 0 0 0-5.277-10.957c-.046-.545-.108-1.088-.167-1.631l12.604-4.393a35.664 35.664 0 0 1-7.16 16.98v.001Zm7.18-18.365L69.558 45.92a68.065 68.065 0 0 0-2.867-12.67c-.13-.42-.275-.825-.41-1.24l14.853-5.218c.036.12.078.239.114.36a37.365 37.365 0 0 1 1.244 14.294.626.626 0 0 0-.16.022Z"/>
</svg>
