<svg id="icon-business-support-ticket" viewBox="0 0 96 96" xmlns="http://www.w3.org/2000/svg">
	<path d="m70.664 31.637-.103-.108a.636.636 0 0 0-.9.007l-8.91 8.984-5.444-5.512 8.896-8.985a.664.664 0 0 0-.151-1.063 11.27 11.27 0 0 0-5.11-1.246h-.365A13.667 13.667 0 0 0 45.998 42l.152.42-18.602 18.775a5.322 5.322 0 0 0-.014 7.29 4.865 4.865 0 0 0 3.391 1.67h.3a4.782 4.782 0 0 0 3.173-1.206l.393-.394 18.613-18.786.434.171a11.61 11.61 0 0 0 4.688.812 13.613 13.613 0 0 0 13.407-13.478 11.671 11.671 0 0 0-1.25-5.601ZM67.18 45.673a12.21 12.21 0 0 1-8.634 3.728h-.025a10.374 10.374 0 0 1-4.522-.865l-.461-.223a.635.635 0 0 0-.697.141l-18.98 19.178a3.347 3.347 0 0 1-1.462.978 3.584 3.584 0 0 1-3.9-1.056 3.96 3.96 0 0 1-.008-5.438L47.4 43.022a.685.685 0 0 0 .128-.726l-.175-.451a12.303 12.303 0 0 1 11.3-16.823h.29a9.85 9.85 0 0 1 2.588.35l1.17.321-8.747 8.826a.677.677 0 0 0 0 .95l6.355 6.427a.634.634 0 0 0 .899 0l8.802-8.897.298 1.237a12.29 12.29 0 0 1-3.13 11.437Z"/>
	<path d="m91.19 32.276-9.238-9.35a.584.584 0 0 0-.2-.145.633.633 0 0 0-.697.156 6.055 6.055 0 0 1-4.33 1.865 5.8 5.8 0 0 1-5.864-5.993 6.073 6.073 0 0 1 1.835-4.301.68.68 0 0 0 .008-.959l-5.895-5.967-3.356-3.396a7.27 7.27 0 0 0-10.31.164L4.998 53.158a7.446 7.446 0 0 0-2.253 5.232 6.958 6.958 0 0 0 2.049 5.247l9.256 9.411a.596.596 0 0 0 .19.114.655.655 0 0 0 .72-.141 6.07 6.07 0 0 1 4.344-1.865 5.77 5.77 0 0 1 .234-.006 5.438 5.438 0 0 1 3.957 1.727 5.72 5.72 0 0 1 1.66 4.286 6.06 6.06 0 0 1-1.824 4.289.706.706 0 0 0-.01.981l9.213 9.325a6.908 6.908 0 0 0 4.87 2.119l.27-.013a7.326 7.326 0 0 0 5.21-2.253l1.774-1.799L91.018 42.8a7.44 7.44 0 0 0 2.23-4.75l.009-.512a7.08 7.08 0 0 0-2.067-5.262Zm-.852 9.347v.017l-.204.207-45.089 45.695-1.31 1.335-1.767 1.799a6.057 6.057 0 0 1-4.33 1.85c-.1.007-.2.01-.301.01a5.011 5.011 0 0 1-1.958-.407 5.54 5.54 0 0 1-1.942-1.32l-8.747-8.865.358-.487a7.224 7.224 0 0 0 1.416-4.272 7.05 7.05 0 0 0-2.052-5.27 7.262 7.262 0 0 0-9.399-.64l-.494.368-8.822-8.94a5.64 5.64 0 0 1-1.643-4.276 6.166 6.166 0 0 1 1.85-4.311L54.063 5.294a6.024 6.024 0 0 1 4.313-1.863 5.483 5.483 0 0 1 4.189 1.702l3.333 3.373 5.453 5.52-.351.485a7.441 7.441 0 0 0-1.419 4.27A6.975 6.975 0 0 0 71.63 24a7.238 7.238 0 0 0 9.418.694l.494-.363 8.762 8.881a5.76 5.76 0 0 1 1.671 4.314 6.172 6.172 0 0 1-1.637 4.097Z"/>
</svg>