<svg id="icon-business-lower-costs-dollar" viewBox="0 0 96 96" xmlns="http://www.w3.org/2000/svg">
  <path fill-rule="evenodd" d="M58.857 66.375h13.028v.001a1.893 1.893 0 0 1 1.89 1.89v23.378a1.893 1.893 0 0 1-1.89 1.89H58.857a1.892 1.892 0 0 1-1.89-1.89V68.265a1.892 1.892 0 0 1 1.89-1.89ZM72.302 92.06a.59.59 0 0 0 .173-.417V68.266a.591.591 0 0 0-.59-.59H58.858a.591.591 0 0 0-.59.59v23.377a.59.59 0 0 0 .589.59h13.028a.59.59 0 0 0 .417-.173ZM35.56 49.407h13.029l.001-.001a1.893 1.893 0 0 1 1.89 1.89v40.348a1.893 1.893 0 0 1-1.89 1.89H35.56a1.893 1.893 0 0 1-1.89-1.89V51.297a1.893 1.893 0 0 1 1.89-1.89ZM49.134 91.87a.591.591 0 0 0 .045-.226l.001-40.348a.59.59 0 0 0-.59-.59H35.56a.59.59 0 0 0-.59.59v40.348a.59.59 0 0 0 .59.59h13.029a.591.591 0 0 0 .545-.364ZM12.267 32.436h13.027a1.893 1.893 0 0 1 1.89 1.89v57.318a1.893 1.893 0 0 1-1.89 1.89H12.266a1.893 1.893 0 0 1-1.89-1.89V34.326a1.893 1.893 0 0 1 1.891-1.89Zm13.444 59.625a.59.59 0 0 0 .173-.417V34.326a.591.591 0 0 0-.59-.59H12.267a.591.591 0 0 0-.59.59v57.318a.59.59 0 0 0 .59.59h13.027a.59.59 0 0 0 .417-.173ZM15.988 4.623a12.449 12.449 0 0 1 6.916-2.099v-.001a12.462 12.462 0 0 1 12.45 12.45 12.449 12.449 0 1 1-19.366-10.35Zm.555 19.868a11.45 11.45 0 0 0 6.361 1.93 11.46 11.46 0 0 0 11.45-11.448 11.449 11.449 0 1 0-17.81 9.518Zm5.317-11.996c0 .538.57.88 1.957 1.402 1.939.685 2.728 1.581 2.728 3.049a3.126 3.126 0 0 1-2.907 3.016v1.661H22.04v-1.548a6.558 6.558 0 0 1-2.771-.7l.489-1.907c.83.457 1.758.704 2.706.717.929 0 1.565-.359 1.565-1.009 0-.62-.521-1.012-1.727-1.42-1.745-.588-2.935-1.402-2.935-2.984a3.012 3.012 0 0 1 2.754-2.9v-1.55h1.598v1.436a5.86 5.86 0 0 1 2.369.536l-.477 1.843a5.407 5.407 0 0 0-2.348-.554c-1.06 0-1.403.456-1.403.912Zm62.804 43.97c.042.076.068.16.077.245l.88 7.165c.002.008-.001.015-.001.022a.585.585 0 0 1-.123.442c-.01.014-.023.026-.034.039a.64.64 0 0 1-.136.119l-.05.03a.64.64 0 0 1-.211.07l-.01.004h-.005l-.006.001-5.987.62a.65.65 0 1 1-.135-1.294l4.365-.452L37.9 28.548a.65.65 0 1 1 .793-1.031L84.14 62.491l-.69-5.622a.647.647 0 0 1 .564-.737.648.648 0 0 1 .65.333Z"/>
</svg>
