<svg id="icon-products-ai-machine-learning" viewBox="0 0 96 96" xmlns="http://www.w3.org/2000/svg">
  <path fill-rule="evenodd" d="M78.811 43.058a16.979 16.979 0 0 0 5.383 8.399v.001a2.684 2.684 0 0 1 1.262 2.228c-.115 1.729-2.626 2.689-4.092 2.986a9.124 9.124 0 0 1-1.548.164c-.033 1.828-.1 3.7-.169 5.516-.436 11.84-2.317 13.33-3.12 13.965-5.339 4.219-15.537-.453-16.682-1a23.612 23.612 0 0 1-3.386-2.03.152.152 0 0 0-.243.133l1.222 18.182a1.568 1.568 0 0 1-2.111 1.573l-25.352-9.44a1.906 1.906 0 0 1-1.24-1.775V55.378a9.892 9.892 0 0 0-.953-4.203 25.042 25.042 0 0 1-1.754-4.621l-2.112 2.567a.652.652 0 0 1-.846.139l-7.064-4.415a.65.65 0 0 1-.246-.822l2.414-5.28a13.538 13.538 0 0 1-1.267-2.45l-5.688-.954a.65.65 0 0 1-.542-.664l.302-8.325a.65.65 0 0 1 .59-.624l5.9-.553c.471-.91 1.045-1.762 1.71-2.54l-1.97-5.3a.65.65 0 0 1 .306-.801l7.365-3.891a.65.65 0 0 1 .834.199l3.587 5.069c.628-.005 1.256.033 1.88.115l3.755-4.558a.65.65 0 0 1 .846-.137l5.315 3.321a27.493 27.493 0 0 1 7.754-1.957l.012-.158c.008-.121.016-.242.032-.363l-3.06-2.357a.65.65 0 0 1-.165-.84l2.94-5.064a.648.648 0 0 1 .813-.274l3.934 1.647a9.663 9.663 0 0 1 1.003-.545l.522-4.01a.65.65 0 0 1 .645-.566h5.854a.65.65 0 0 1 .645.566l.523 4.011c.467.22.916.478 1.342.77l3.81-1.578a.649.649 0 0 1 .813.276l2.92 5.075a.65.65 0 0 1-.17.841l-3.21 2.45c.055.57.06 1.142.013 1.712l3.197 2.465a.65.65 0 0 1 .166.842l-1.109 1.91c.049.047.1.092.15.137.058.05.116.102.17.156 4.219 4.247 5.328 8.935 7.538 18.271l.002.009c.235.989.445 1.983.63 2.982Zm-31.73-31.924 2.914 2.243a.653.653 0 0 1 .244.632 3.73 3.73 0 0 0-.043.367c-.006.068-.012.136-.02.203-.047.429-.06.86-.04 1.291.004.065.005.13.005.196.002.103.004.207.015.31a.654.654 0 0 1-.252.588l-3.062 2.34 2.352 4.087 3.461-1.433a.648.648 0 0 1 .65.09c.573.45 1.203.825 1.873 1.112a.65.65 0 0 1 .39.514l.487 3.734h4.715l.482-3.698a.65.65 0 0 1 .396-.517 8.327 8.327 0 0 0 1.856-1.066.645.645 0 0 1 .645-.082l3.502 1.465 1.012-1.743.676-1.164.68-1.17-3.03-2.338a.65.65 0 0 1-.25-.593 8.348 8.348 0 0 0-.017-2.133.65.65 0 0 1 .25-.604l3.05-2.329-2.35-4.085-3.615 1.498a.65.65 0 0 1-.637-.08 8.302 8.302 0 0 0-1.722-.985.65.65 0 0 1-.39-.515l-.497-3.806h-4.713l-.496 3.806a.65.65 0 0 1-.393.516c-.498.21-.975.468-1.424.77a.648.648 0 0 1-.614.06l-3.723-1.558-2.368 4.077ZM23.274 47.855l2.375-2.888 1.085-1.319.064-.077a.65.65 0 0 1 .61-.228c1.028.173 2.075.212 3.113.116l.06-.003a.647.647 0 0 1 .53.275l3.26 4.605 6.356-3.359-1.98-5.327a.65.65 0 0 1 .11-.64 11.209 11.209 0 0 0 1.634-2.631.65.65 0 0 1 .533-.38l5.672-.532.26-7.183-5.727-.96a.65.65 0 0 1-.498-.404c-.352-.9-.811-1.755-1.366-2.546a.65.65 0 0 1-.06-.643l2.366-5.188-.687-.429-1.316-.823-4.093-2.557-3.626 4.4a.651.651 0 0 1-.604.228 12.228 12.228 0 0 0-2.354-.146.671.671 0 0 1-.552-.274l-3.457-4.885-6.357 3.358 1.908 5.13a.65.65 0 0 1-.128.663 12.071 12.071 0 0 0-1.93 2.862.648.648 0 0 1-.526.364l-5.692.533-.262 7.185 5.494.922a.65.65 0 0 1 .504.42c.361.999.85 1.946 1.456 2.818a.65.65 0 0 1 .057.641l-2.328 5.092 6.096 3.81Zm57.837 7.54c1.401-.283 3-1.086 3.046-1.786.007-.152.023-.487-.79-1.149l-.01-.008a18.304 18.304 0 0 1-5.813-9.101 62.964 62.964 0 0 0-.63-2.975c-2.154-9.105-3.236-13.675-7.196-17.663a.534.534 0 0 0-.033-.03l-.034-.03-1.164 2.004a.653.653 0 0 1-.813.273l-3.69-1.544a9.6 9.6 0 0 1-1.492.856l-.508 3.9a.65.65 0 0 1-.645.566h-5.855a.65.65 0 0 1-.645-.566l-.515-3.94a9.72 9.72 0 0 1-1.516-.9l-3.647 1.508a.65.65 0 0 1-.81-.276l-2.92-5.076a.65.65 0 0 1 .167-.84l3.23-2.469-.001-.084c0-.028 0-.056-.002-.084a26.465 26.465 0 0 0-6.364 1.522l.383.24a.65.65 0 0 1 .247.82l-2.45 5.374c.451.684.84 1.409 1.16 2.164l5.933.995a.65.65 0 0 1 .542.665l-.302 8.323a.65.65 0 0 1-.589.624l-5.87.551c-.206.424-.433.836-.682 1.236l-.003.004a12.78 12.78 0 0 1-.736 1.044l2.051 5.516a.652.652 0 0 1-.306.801l-7.365 3.892a.65.65 0 0 1-.834-.199l-3.376-4.77c-.9.056-1.803.023-2.696-.101l-.516.627a23.7 23.7 0 0 0 1.898 5.298 11.225 11.225 0 0 1 1.084 4.77v26.58a.6.6 0 0 0 .392.558l25.353 9.44a.265.265 0 0 0 .322-.112.27.27 0 0 0 .04-.153l-1.223-18.18a1.452 1.452 0 0 1 2.302-1.277 22.277 22.277 0 0 0 3.188 1.912c3.88 1.85 11.477 4.18 15.31 1.15.55-.432 2.216-1.749 2.63-12.992l.002-.064c.074-2.006.15-4.077.174-6.073a.653.653 0 0 1 .207-.467.607.607 0 0 1 .48-.174 7.771 7.771 0 0 0 1.9-.13ZM36.71 31.19a7.477 7.477 0 0 1-1.133 4.189 7.484 7.484 0 0 1-10.303 2.378l-.012-.008A7.477 7.477 0 1 1 36.71 31.19Zm-10.747 5.464c.221.136.451.259.688.366a6.184 6.184 0 0 0 7.825-2.33 6.17 6.17 0 0 0-4.535-9.403 6.172 6.172 0 0 0-3.978 11.367Zm30.305-16.04a5.418 5.418 0 0 1-1.767-1.184l.001.001a5.398 5.398 0 0 1-1.57-3.578 1.32 1.32 0 0 0-.013-.124c-.007-.05-.014-.1-.014-.152a5.435 5.435 0 1 1 5.45 5.449 5.417 5.417 0 0 1-2.087-.412Zm3.887-8.784a4.123 4.123 0 0 0-1.8-.401 4.198 4.198 0 0 0-4.149 4.148c0 .073.01.143.019.213l.014.121a4.132 4.132 0 0 0 8.158.572 4.123 4.123 0 0 0-2.242-4.652Z"/>
</svg>
