<svg id="icon-products-teleport" viewBox="0 0 96 96" xmlns="http://www.w3.org/2000/svg">
  <path fill-rule="evenodd" d="M75.707 4.3a22.762 22.762 0 0 1 7.36 5.077v-.001a22.758 22.758 0 0 1 6.493 16.287.65.65 0 0 1-.65.642h-.01a.65.65 0 0 1-.64-.66A21.607 21.607 0 0 0 66.365 3.75h-.01a.65.65 0 1 1-.01-1.3 22.761 22.761 0 0 1 9.361 1.85ZM35.669 83.87l.367.1 2.144 8.579a.65.65 0 0 1-1.26.315l-.847-3.382H8.657l-.942 3.392a.65.65 0 0 1-1.253-.348l7.183-25.856.781 1.27A36.041 36.041 0 0 0 35.67 83.87ZM14.11 69.853 9.02 88.181h26.73l-.79-3.16a37.323 37.323 0 0 1-20.85-15.168ZM67.35 8.97a16.207 16.207 0 0 0-.441 0 .651.651 0 0 0-.641.659.662.662 0 0 0 .658.641A14.63 14.63 0 0 1 81.74 25.084a.65.65 0 0 0 .64.659h.01a.65.65 0 0 0 .65-.642A15.932 15.932 0 0 0 67.35 8.97Zm4.469 55.777L67.022 35.18l4.806-4.807-10.191-10.191-4.84 4.84-29.312-4.61-4.06-4.06a.649.649 0 0 0-.46-.19.88.88 0 0 0-.464.195 37.586 37.586 0 0 0 53.15 53.15.649.649 0 0 0 .005-.923l-3.838-3.837ZM65.544 34.19l4.702 28.983-13.271-13.27 6.71-17.571 1.859 1.858Zm-2.865-2.865-6.711 17.57-14.38-14.38 18.783-5.498 2.308 2.308Zm-4.82-4.82 1.464 1.464-18.783 5.498-11.493-11.492 28.812 4.53ZM23.96 68.582a36.286 36.286 0 0 1-.986-50.84l32.793 32.793 18.501 18.502a36.49 36.49 0 0 1-50.308-.455Zm44.458-53.016h-.22a.65.65 0 0 0-.64.66.66.66 0 0 0 .66.64h.181a6.837 6.837 0 0 1 6.747 6.927.65.65 0 0 0 .64.659h.01a.65.65 0 0 0 .65-.642 8.137 8.137 0 0 0-8.028-8.244Z"/>
</svg>
