<svg id="icon-products-cce-dynamic-connections" viewBox="0 0 96 96" xmlns="http://www.w3.org/2000/svg">
  <path d="M93.047 47.126a12.59 12.59 0 0 0-14.808-8.781 19.998 19.998 0 0 0-38.567-5.933 15.695 15.695 0 0 0-19.87 17.139 14.064 14.064 0 0 0-3.354 4.923 11.097 11.097 0 1 0-2.902 21.808h31.652a8.917 8.917 0 0 0 7.91-13.055h27.849a12.588 12.588 0 0 0 12.09-16.1v-.001Zm-47.85 27.857h-31.62a10.036 10.036 0 0 1-3.113-.499 9.798 9.798 0 0 1 6.17-18.597l.604.2.214-.598a12.767 12.767 0 0 1 24.787 3.933l.024.841.808-.236a7.63 7.63 0 1 1 2.127 14.956h-.001Zm38.91-13.504a11.3 11.3 0 0 1-3.15.448H52.272a8.895 8.895 0 0 0-8.778-3.339 14.08 14.08 0 0 0-22.5-10.042 14.328 14.328 0 0 1 .759-5.709h21.776l3.938 6.45a3.8 3.8 0 1 0 1.12-.658l-3.534-5.792h7.384l3.829 5.58a.65.65 0 0 0 .536.281h10.8a3.72 3.72 0 1 0 .065-1.3H57.144l-3.358-4.893 7.16-7.343h3.597a3.787 3.787 0 1 0-.03-1.3h-3.841a.648.648 0 0 0-.465.197l-7.293 7.479h-30.64a14.375 14.375 0 0 1 17.589-7.707l.602.197.213-.597a18.697 18.697 0 0 1 36.3 5.759l.024.84.807-.234a11.29 11.29 0 0 1 6.298 21.683ZM49.874 49.687a2.447 2.447 0 1 1-.003 4.894 2.447 2.447 0 0 1 .003-4.894Zm18.983-1.426a2.448 2.448 0 1 1 4.897 0 2.448 2.448 0 0 1-4.897 0ZM65.76 34.387a2.447 2.447 0 1 1 4.894.002 2.447 2.447 0 0 1-4.894-.002Z"/>
</svg>
