<svg id="icon-business-solutions" viewBox="0 0 96 96" xmlns="http://www.w3.org/2000/svg">
  <path fill-rule="evenodd" d="m90.52 69.761-4.48 4.481 2.475 2.647a10.864 10.864 0 0 1 3.51 7.257 8.098 8.098 0 0 1-2.404 6.032 8.71 8.71 0 0 1-6.173 2.535 10.999 10.999 0 0 1-7.76-3.555L43.8 57.268a28.653 28.653 0 0 1-12.763 3.044h-.063a28.465 28.465 0 0 1-20.112-48.626 28.107 28.107 0 0 1 19.984-8.398h.18a28.33 28.33 0 0 1 20.16 8.4 28.113 28.113 0 0 1 8.4 20.167 28.513 28.513 0 0 1-3.135 12.777l.854.854c.04.025.077.055.11.088l6.286 6.287 4.468-4.452c2.54-2.543 5.43-3.619 7.923-2.95a5.169 5.169 0 0 1 3.684 3.705c.674 2.512-.348 5.361-2.803 7.817a939.14 939.14 0 0 0-4.635 4.706l4.912 4.97 4.466-4.467c2.54-2.541 5.424-3.62 7.924-2.951a5.171 5.171 0 0 1 3.684 3.705c.673 2.513-.349 5.362-2.804 7.817ZM76.606 88.238c4.305 4.306 9.342 3.772 12.094 1.022l.001-.002a6.813 6.813 0 0 0 2.023-5.073 9.62 9.62 0 0 0-3.144-6.393l-2.92-3.121a.652.652 0 0 1 .015-.904l4.926-4.927c2.118-2.117 3.017-4.508 2.467-6.56a3.836 3.836 0 0 0-2.764-2.786c-2.033-.545-4.465.408-6.668 2.614l-4.926 4.927a.65.65 0 0 1-.92 0l-5.826-5.893a.65.65 0 0 1 0-.91s3.654-3.735 5.09-5.172c2.117-2.118 3.016-4.51 2.466-6.56a3.832 3.832 0 0 0-2.763-2.785c-2.032-.545-4.464.408-6.668 2.613l-4.928 4.912a.65.65 0 0 1-.919 0l-2.248-2.25a.629.629 0 0 1-.11-.087l-5.69-5.69a.652.652 0 0 1-.114-.766 27.176 27.176 0 0 0 3.206-12.6 26.799 26.799 0 0 0-8.014-19.236 27.032 27.032 0 0 0-19.249-8.024h-.173a26.806 26.806 0 0 0-19.066 8.015 27.087 27.087 0 0 0-.013 38.477 27.226 27.226 0 0 0 31.851 4.818.64.64 0 0 1 .551-.025c.079.033.15.08.211.141l32.222 32.225ZM31.014 16.177h.087a15.24 15.24 0 0 1 10.94 4.657 15.4 15.4 0 0 1-.015 22.028 15.472 15.472 0 0 1-10.923 4.474h-.127a15.58 15.58 0 0 1 .038-31.159Zm10.142 25.718a14.11 14.11 0 0 0-.038-20.145 13.952 13.952 0 0 0-10.016-4.273l-.08.001a14.28 14.28 0 0 0-.035 28.558h.116c3.749.01 7.35-1.465 10.014-4.102l.005-.006.034-.033Z"/>
</svg>
