<svg id="icon-people-executive" viewBox="0 0 96 96" xmlns="http://www.w3.org/2000/svg">
  <path d="M71.33 84.759a.628.628 0 0 0 .033-.161V77.42l-.003-.015.003-.015a.65.65 0 0 0-.65-.65H48.65v-7.246a.65.65 0 0 0-1.3 0v7.246H25.31c-.007 0-.014-.005-.021-.005a.649.649 0 0 0-.65.65v7.177a.634.634 0 0 0 .039.195 4.43 4.43 0 1 0 1.22 0 .635.635 0 0 0 .04-.195V78.04h21.413v6.72a4.43 4.43 0 1 0 1.3.001V78.04h21.41v6.557a.63.63 0 0 0 .034.16 4.43 4.43 0 1 0 1.234 0v.002Zm-42.912 4.366a3.13 3.13 0 1 1-6.26 0 3.13 3.13 0 0 1 6.26.001v-.001Zm22.71 0a3.13 3.13 0 1 1-6.26 0 3.13 3.13 0 0 1 6.262.001l-.001-.001Zm19.584 3.13a3.13 3.13 0 1 1 0-6.26 3.13 3.13 0 0 1 0 6.26ZM28.768 67.238h37.797a7.45 7.45 0 0 0 7.44-7.44v-8.123a7.428 7.428 0 0 0-3.933-6.568l-7.48-4.001-2.788-1.565a7.43 7.43 0 0 0-6.226-.49l-3.825 1.417c-1.354.5-2.84.51-4.2.025l-3.99-1.425a7.452 7.452 0 0 0-6.136.515l-2.746 1.536-7.43 3.987a7.429 7.429 0 0 0-3.924 6.563v8.128a7.45 7.45 0 0 0 7.44 7.441Zm-6.141-15.57a6.131 6.131 0 0 1 3.24-5.417l7.44-3.992 2.755-1.542a6.146 6.146 0 0 1 5.066-.425l3.988 1.425a7.462 7.462 0 0 0 5.089-.03l3.824-1.416a6.13 6.13 0 0 1 5.139.404l2.798 1.571 7.493 4.007a6.13 6.13 0 0 1 3.248 5.421v8.123a6.148 6.148 0 0 1-6.142 6.141H28.768a6.148 6.148 0 0 1-6.141-6.14v-8.13Zm25.04-14.66c7.743 0 14.042-7.753 14.042-17.281 0-9.528-6.3-17.282-14.042-17.282-7.74 0-14.038 7.753-14.038 17.282s6.297 17.28 14.038 17.28v.001Zm0-33.263c7.026 0 12.742 7.17 12.742 15.982s-5.716 15.981-12.742 15.981c-7.024 0-12.738-7.17-12.738-15.981S40.643 3.745 47.667 3.745Z"/>
</svg>
