<svg id="icon-business-cost-control-euro" viewBox="0 0 96 96" xmlns="http://www.w3.org/2000/svg">
  <path fill-rule="evenodd" d="M41.004 7.338a38.985 38.985 0 0 1 27.805 6.639l-10.057 1.561a.65.65 0 0 0 .199 1.284l11.625-1.804a.644.644 0 0 0 .224-.083.636.636 0 0 0 .076-.06.647.647 0 0 0 .093-.086.634.634 0 0 0 .112-.2.618.618 0 0 0 .039-.298l-.002-.013v-.004l-1.421-11.26a.652.652 0 0 0-.968-.483.652.652 0 0 0-.322.646l1.235 9.786a40.555 40.555 0 0 0-53.007 60.77.65.65 0 0 0 .955-.882A39.255 39.255 0 0 1 41.004 7.338Zm38.404 14.557a.65.65 0 0 0-.956.881 39.255 39.255 0 0 1-50.65 59.272l9.727-2.933a.65.65 0 0 0-.375-1.245l-10.95 3.302h-.017l-.016.001a.632.632 0 0 0-.328.209l-.01.01a.636.636 0 0 0-.147.562l2.596 11.099a.65.65 0 0 0 1.265-.296l-2.211-9.458a40.554 40.554 0 0 0 52.072-61.404ZM48.02 75.531A27.72 27.72 0 1 0 20.3 47.812a27.75 27.75 0 0 0 27.72 27.72v-.001Zm0-54.138A26.42 26.42 0 1 1 21.6 47.812a26.45 26.45 0 0 1 26.42-26.42v.001Zm-9.358 26.849c-.037-.441-.037-.918-.037-1.388v.001c-.013-.56.013-1.12.076-1.676H35.85v-3.103h3.427c1.457-4.924 5.144-8.46 10.358-8.46a10.03 10.03 0 0 1 8.9 4.812l-3.393 2.52a6.51 6.51 0 0 0-5.616-3.318 6.063 6.063 0 0 0-5.613 4.45h7.836v3.101h-8.533a11.37 11.37 0 0 0-.074 1.605c0 .509 0 .984.037 1.46h8.57v3.135h-7.913a6.248 6.248 0 0 0 5.982 4.63c2.445 0 3.902-1.272 5.58-3.502l3.209 2.374a10.18 10.18 0 0 1-8.822 5.14c-5.397 0-9.19-3.463-10.612-8.645h-3.318v-3.136h2.807Z"/>
</svg>
