<svg id="icon-business-cost-control-yen" viewBox="0 0 96 96" xmlns="http://www.w3.org/2000/svg">
  <path fill-rule="evenodd" d="M40.993 7.276a39.026 39.026 0 0 1 27.85 6.65L58.768 15.49a.65.65 0 0 0 .2 1.284l11.642-1.807a.63.63 0 0 0 .303-.146.614.614 0 0 0 .2-.28.616.616 0 0 0 .03-.088.64.64 0 0 0 .01-.213v-.015l-.002-.004-1.423-11.275a.65.65 0 1 0-1.29.163l1.238 9.803a40.615 40.615 0 0 0-53.088 60.86.65.65 0 1 0 .955-.883 39.315 39.315 0 0 1 23.45-65.613Zm38.461 14.58a.65.65 0 0 0-.955.882 39.45 39.45 0 0 1 3.044 49.634A39.316 39.316 0 0 1 27.768 82.1l9.745-2.939a.65.65 0 1 0-.375-1.245L26.17 81.223a.061.061 0 0 1-.015 0l-.017.001a.633.633 0 0 0-.329.209l-.009.01a.638.638 0 0 0-.147.562l2.598 11.116a.653.653 0 0 0 .781.485.649.649 0 0 0 .485-.781l-2.215-9.475a40.258 40.258 0 0 0 22.235 6.694 41.17 41.17 0 0 0 6.636-.541 40.615 40.615 0 0 0 23.28-67.647h.001ZM48.02 75.572a27.76 27.76 0 1 0-27.76-27.76 27.792 27.792 0 0 0 27.76 27.76Zm0-54.22a26.46 26.46 0 1 1-26.46 26.46 26.49 26.49 0 0 1 26.46-26.46Zm-8.217 29.129.007-2.899h5.147l-7.494-11.306h4.662l5.928 9.546 5.995-9.546h4.529l-7.56 11.306h5.213v2.899h-6.287v2.376h6.287v2.9h-6.287v3.328H46.09v-3.328h-6.287v-2.9h6.287v-2.376h-6.287Z"/>
</svg>
