<svg id="icon-places-data-center" viewBox="0 0 96 96" xmlns="http://www.w3.org/2000/svg">
  <path fill-rule="evenodd" d="M74.851 47.193c10.253 0 18.313 3.318 18.664 7.602h.035v17.862l-.003.015v9.237c-.437 4.639-8.44 7.962-19.035 7.962-8.76 0-15.474-2.371-17.532-5.956a.65.65 0 0 1-.46.19H3.1a.65.65 0 0 1-.65-.65V6.78a.65.65 0 0 1 .65-.65h62.205a.65.65 0 0 1 .65.65v41.336a41.17 41.17 0 0 1 8.896-.922Zm-48.959 35.39h17.723V69.896a7.289 7.289 0 0 0-7.28-7.28h-3.163a7.29 7.29 0 0 0-7.28 7.28v12.687Zm30.455-26.397a3.627 3.627 0 0 1-.195-1.103c.001-2.824 3.356-5.252 8.502-6.643V7.429H3.75v75.377h20.841v-12.91a8.591 8.591 0 0 1 8.582-8.58h3.162a8.591 8.591 0 0 1 8.581 8.58v12.91h11.575a4.598 4.598 0 0 1-.16-.836l-.003-9.54h.005l-.003-10.987h.007l.01-5.257Zm35.901-1.103c0-3.182-6.99-6.59-17.397-6.59-10.408 0-17.398 3.408-17.398 6.59 0 3.184 6.991 6.59 17.398 6.59s17.397-3.406 17.397-6.59ZM57.63 81.909c.312 3.279 6.214 6.662 16.884 6.662 10.704 0 17.424-3.42 17.737-6.723v-6.37c-2.677 3.103-9.205 5.14-17.3 5.14-8.11 0-14.649-2.04-17.32-5.118v6.409Zm.002-9.251c.302 3.243 6.864 6.66 17.318 6.66 10.444 0 17-3.417 17.304-6.72l-.002-6.642c-2.724 3.189-9.428 5.4-17.3 5.4-7.884 0-14.597-2.213-17.32-5.376v6.678Zm.001-9.526c.325 3.793 8.095 6.925 17.318 6.925v-.001c9.214 0 16.976-3.131 17.303-6.98l-.002-5.068c-2.702 2.934-9.38 4.966-17.4 4.966-7.827 0-14.384-1.932-17.208-4.752l-.01 4.91Zm-4.49-33.846H15.292a4.815 4.815 0 0 1-4.81-4.81v-2.26a4.815 4.815 0 0 1 4.81-4.81h37.848a4.815 4.815 0 0 1 4.81 4.81v2.26a4.815 4.815 0 0 1-4.81 4.81Zm-40.329-9.55a3.513 3.513 0 0 0-1.029 2.48v2.26a3.513 3.513 0 0 0 3.51 3.51H53.14a3.513 3.513 0 0 0 3.508-3.51v-2.26a3.513 3.513 0 0 0-3.508-3.51H15.293a3.513 3.513 0 0 0-2.48 1.03Zm43.727 19.54a4.815 4.815 0 0 1 1.41 3.4l.002 2.261a4.815 4.815 0 0 1-4.81 4.81H15.294a4.815 4.815 0 0 1-4.81-4.81v-2.26a4.815 4.815 0 0 1 4.81-4.81H53.14a4.815 4.815 0 0 1 3.4 1.41Zm-.919 8.142a3.513 3.513 0 0 0 1.03-2.48v-2.261a3.513 3.513 0 0 0-3.509-3.51H15.294a3.513 3.513 0 0 0-3.509 3.51v2.26a3.513 3.513 0 0 0 3.51 3.51H53.14c.93 0 1.823-.37 2.481-1.029Z"/>
</svg>
