<svg id="icon-devices-ip-phone" viewBox="0 0 96 96" xmlns="http://www.w3.org/2000/svg">
  <path fill-rule="evenodd" d="M92.933 16.508h-9.217v-7.16a.65.65 0 0 0-.65-.65H57.809a.65.65 0 0 0-.65.65v7.158H3.09a.65.65 0 0 0-.65.65v62.14a.65.65 0 0 0 .65.651h54.07v6.705a.65.65 0 0 0 .65.65h25.258a.65.65 0 0 0 .65-.65v-6.704h9.216a.65.65 0 0 0 .65-.65v-62.14a.65.65 0 0 0-.65-.65ZM57.158 78.646H3.74v-60.84h53.42v60.84Zm25.258 7.356H58.46V17.17l.002-.015-.002-.014V9.998h23.957v76.004Zm9.868-7.355h-8.568V17.81h8.568v60.837ZM8.75 33.752h37.092a.65.65 0 0 0 .65-.65V21.769a.65.65 0 0 0-.65-.65H8.75a.65.65 0 0 0-.65.65v11.333a.65.65 0 0 0 .65.65Zm.65-11.333h35.792v10.032H9.4V22.419Zm-.65 39.329h7.752a.65.65 0 0 0 .65-.65v-7.751a.65.65 0 0 0-.65-.65H8.75a.65.65 0 0 0-.65.65v7.75a.65.65 0 0 0 .65.651Zm.65-7.75h6.452v6.45H9.4v-6.45Zm22.02-1.302h-7.75a.65.65 0 0 0-.65.65v7.752a.65.65 0 0 0 .65.65h7.75a.65.65 0 0 0 .65-.65v-7.751a.65.65 0 0 0-.65-.65v-.001Zm-.65 7.751h-6.45v-6.45h6.45v6.45Zm15.57-7.751h-7.75a.65.65 0 0 0-.65.65v7.752a.65.65 0 0 0 .65.65h7.75a.65.65 0 0 0 .65-.65v-7.751a.65.65 0 0 0-.65-.65v-.001Zm-.65 7.751h-6.45v-6.45h6.45v6.45ZM8.75 74.633h7.752a.65.65 0 0 0 .65-.65V66.23a.65.65 0 0 0-.65-.65H8.75a.65.65 0 0 0-.65.65v7.751a.65.65 0 0 0 .65.65v.002Zm.65-7.751h6.452v6.45H9.4v-6.45Zm22.02-1.301h-7.75a.65.65 0 0 0-.65.65v7.751a.65.65 0 0 0 .65.65h7.75a.65.65 0 0 0 .65-.65v-7.75a.65.65 0 0 0-.65-.65v-.001Zm-.65 7.751h-6.45v-6.45h6.45v6.45Zm15.57-7.751h-7.75a.65.65 0 0 0-.65.65v7.751a.65.65 0 0 0 .65.65h7.75a.65.65 0 0 0 .65-.65v-7.75a.65.65 0 0 0-.65-.65v-.001Zm-.65 7.751h-6.45v-6.45h6.45v6.45ZM8.75 47.848h7.752a.65.65 0 0 0 .65-.65v-7.752a.65.65 0 0 0-.65-.65H8.75a.65.65 0 0 0-.65.65v7.751a.65.65 0 0 0 .65.65v.001Zm.65-7.751h6.452v6.45H9.4v-6.45Zm22.02-1.301h-7.75a.65.65 0 0 0-.65.65v7.751a.65.65 0 0 0 .65.65h7.75a.65.65 0 0 0 .65-.65v-7.75a.65.65 0 0 0-.65-.651Zm-.65 7.75h-6.45v-6.45h6.45v6.45Zm7.82-7.75a.65.65 0 0 0-.65.65v7.751a.65.65 0 0 0 .65.65h7.75a.65.65 0 0 0 .65-.65v-7.75a.65.65 0 0 0-.65-.651h-7.75Zm7.1 7.75h-6.45v-6.45h6.45v6.45ZM24.938 24.143h-1.552v7.067h1.552v-7.067Zm1.77 0h2.896a2.42 2.42 0 0 1 2.704 2.443v.02a2.523 2.523 0 0 1-2.856 2.483h-1.183v2.12h-1.56v-7.066Zm4.012 2.614a.943.943 0 0 0 .009-.12v-.02c0-.696-.485-1.07-1.262-1.07h-1.202v2.16h1.23a1.095 1.095 0 0 0 1.225-.95Z"/>
</svg>
