<svg id="icon-products-cloud-saas-applications" viewBox="0 0 96 96" xmlns="http://www.w3.org/2000/svg">
  <path d="M90.895 69.292a8.863 8.863 0 0 0-6.3-2.633h-.055c-.571 0-1.14.054-1.7.163a14.054 14.054 0 0 0-7.44-11.209V20.68a9.187 9.187 0 0 0-9.174-9.173H20.519a9.185 9.185 0 0 0-9.175 9.173v4.253a9.18 9.18 0 0 0-8.826 9.158v37.37a9.174 9.174 0 0 0 9.173 9.177H44.58a11.035 11.035 0 0 0 8.386 3.855h31.602a8.918 8.918 0 0 0 6.327-15.201ZM22.08 30.132a1.534 1.534 0 1 1-3.068-.002 1.534 1.534 0 0 1 3.068.002Zm-4.71 0a1.535 1.535 0 1 1-3.07 0 1.535 1.535 0 0 1 3.07 0Zm-6.242-1.535a1.534 1.534 0 1 1 0 3.068 1.534 1.534 0 0 1 0-3.068Zm52.76-.99a9.115 9.115 0 0 0-6.49-2.688H12.645v-3.634H74.1v33.719a13.965 13.965 0 0 0-5.65-1.035c-.63.02-1.256.08-1.876.181V34.096a9.116 9.116 0 0 0-2.687-6.489Zm-43.933-12.42a1.534 1.534 0 1 1 0 3.068 1.534 1.534 0 0 1 0-3.068Zm10.95 1.535a1.535 1.535 0 1 1-3.07-.002 1.535 1.535 0 0 1 3.07.002Zm-4.708 0a1.534 1.534 0 1 1-3.068-.002 1.534 1.534 0 0 1 3.068.002ZM11.689 79.338a7.877 7.877 0 0 1-7.55-5.643h-.446V34.299h61.62v20.11a13.933 13.933 0 0 0-9.482 8.305 11.078 11.078 0 0 0-12.224 16.624H11.689Zm78.246 1.642a7.566 7.566 0 0 1-5.37 2.213h-31.6a9.78 9.78 0 0 1-5.086-18.128 9.777 9.777 0 0 1 8.14-.939.65.65 0 0 0 .817-.399 12.748 12.748 0 0 1 24.749 3.928.65.65 0 0 0 .83.606c.69-.2 1.406-.302 2.125-.302l-.001-.65.054.65a7.618 7.618 0 0 1 5.342 13.021Z"/>
</svg>
