<svg id="icon-devices-desktop" viewBox="0 0 96 96" xmlns="http://www.w3.org/2000/svg">
  <path d="M89.018 9.842H6.982a4.517 4.517 0 0 0-4.512 4.512v57.178a4.517 4.517 0 0 0 4.512 4.512h37.313v4.395h-7.6a1.932 1.932 0 0 0-1.931 1.932v1.855a1.932 1.932 0 0 0 1.932 1.932h22.61a1.932 1.932 0 0 0 1.932-1.932v-1.855a1.932 1.932 0 0 0-1.932-1.932h-7.598v-4.395h37.31a4.517 4.517 0 0 0 4.512-4.512V14.354a4.517 4.517 0 0 0-4.512-4.512ZM48 13.046a1.324 1.324 0 1 1 0 2.648 1.324 1.324 0 0 1 0-2.648Zm44.23 58.486a3.216 3.216 0 0 1-3.213 3.212H6.982a3.216 3.216 0 0 1-3.212-3.212V18.247h88.46v53.285Z"/>
</svg>
