<svg id="icon-products-services" viewBox="0 0 96 96" xmlns="http://www.w3.org/2000/svg">
  <path fill-rule="evenodd" d="M80.78 48.157a32.788 32.788 0 0 1-.215 3.661l12.11 9.314a.65.65 0 0 1 .165.842L82.365 80.011a.652.652 0 0 1-.813.274L67.55 74.426a32.564 32.564 0 0 1-6.626 3.802L58.99 93.036a.65.65 0 0 1-.644.566H37.507a.65.65 0 0 1-.645-.565l-1.96-14.95a32.75 32.75 0 0 1-6.702-3.973l-13.852 5.733a.652.652 0 0 1-.813-.276L3.133 61.493a.65.65 0 0 1 .17-.84l12.218-9.335a32.436 32.436 0 0 1 .294-8.532L4.137 33.793a.65.65 0 0 1-.165-.84l10.481-18.036a.646.646 0 0 1 .813-.273l14.815 6.194a32.8 32.8 0 0 1 4.94-2.675l1.986-15.2a.65.65 0 0 1 .645-.566h20.85a.65.65 0 0 1 .645.566l1.986 15.2a32.629 32.629 0 0 1 6.111 3.5l14.414-5.968a.652.652 0 0 1 .813.276L92.876 34.05a.65.65 0 0 1-.17.84l-12.174 9.295a32.93 32.93 0 0 1 .248 3.97v.002ZM67.708 73.084l13.82 5.781 9.901-17.049-11.95-9.191a.651.651 0 0 1-.248-.598c.342-2.67.33-5.375-.035-8.043a.651.651 0 0 1 .25-.604l12.018-9.175-9.834-17.089-14.225 5.89a.649.649 0 0 1-.637-.08 31.322 31.322 0 0 0-6.484-3.712.651.651 0 0 1-.392-.514l-1.96-15h-19.71l-1.96 15a.649.649 0 0 1-.393.514 31.498 31.498 0 0 0-5.355 2.9.645.645 0 0 1-.614.061l-14.61-6.11-9.908 17.048 11.538 8.882a.648.648 0 0 1 .243.63 31.138 31.138 0 0 0-.31 8.918.652.652 0 0 1-.253.587L4.544 61.34l9.833 17.087 13.675-5.66a.649.649 0 0 1 .65.09 31.458 31.458 0 0 0 7.052 4.183.65.65 0 0 1 .39.512L38.076 92.3h19.7l1.907-14.61a.65.65 0 0 1 .396-.517 31.335 31.335 0 0 0 6.984-4.008.646.646 0 0 1 .644-.081Zm3.533-38.72c.281.486.55.98.8 1.484h-.003l.024.046a26.104 26.104 0 0 1-2.472 27.084l-.003.005a23.982 23.982 0 0 1-.41.528 26.008 26.008 0 0 1-12.774 8.868l-.07.023-.093.031c-.044.015-.087.03-.132.043l-.838.253v-.025a26.183 26.183 0 0 1-13.177.06v.02l-.832-.242a2.34 2.34 0 0 1-.118-.04c-.039-.014-.078-.028-.118-.04a25.372 25.372 0 0 1-1.593-.537c-.136-.05-.27-.104-.403-.157l-.14-.057a25.207 25.207 0 0 1-1.372-.593c-.146-.068-.292-.136-.436-.207a27.062 27.062 0 0 1-3.524-2.091l-.047-.034a26.164 26.164 0 0 1-11.013-19.31l-.005-.069c-.05-.66-.083-1.324-.083-1.996a26.51 26.51 0 0 1 .032-1.258v-.04c.011-.223.03-.445.049-.667l.01-.125.012-.165a10.503 10.503 0 0 1 .095-.914l.015-.127c.026-.215.052-.43.084-.645.01-.066.022-.13.034-.196a9.03 9.03 0 0 0 .022-.128c.052-.33.111-.66.176-.988l.01-.04c.004-.02.009-.038.012-.058a26.224 26.224 0 0 1 15.335-18.708l.125-.056c.273-.115.55-.22.827-.327l.15-.059c.086-.033.172-.067.258-.098.115-.041.231-.08.348-.119l.174-.058.03-.01c.239-.082.477-.163.72-.238l.142-.04a26.09 26.09 0 0 1 13.755-.342l.135.031a25.954 25.954 0 0 1 3.172 1.024c.586.229 1.16.477 1.725.745l.076.036a25.867 25.867 0 0 1 10.294 8.894 25.402 25.402 0 0 1 1.015 1.629Zm-15.97 22.572.32-.188h-.002a13.475 13.475 0 0 0-2.484-24.32v13.397h-8.843V32.426a13.478 13.478 0 0 0-2.486 24.32l.318.19v14.478a24.764 24.764 0 0 0 13.176-.062V56.936Zm14.19 3.941.041-.064v.001a24.818 24.818 0 0 0 2.873-20.558c-.39-1.3-.885-2.565-1.478-3.785l-.028-.054a25.102 25.102 0 0 0-.754-1.402l-.035-.06a21.703 21.703 0 0 0-.933-1.493 25.034 25.034 0 0 0-9.76-8.438l-.134-.064a24.949 24.949 0 0 0-1.555-.672l-.067-.026c-.257-.1-.515-.2-.777-.293a25.523 25.523 0 0 0-2.226-.674l-.095-.022a25.22 25.22 0 0 0-13.127.331l-.028.008a1.386 1.386 0 0 0-.064.019c-.256.077-.508.164-.76.25v.001l-.15.05c-.099.032-.198.065-.297.1-.086.032-.172.065-.257.1l-.182.07-.126.049a19.348 19.348 0 0 0-.686.276l-.092.04a24.957 24.957 0 0 0-14.53 17.757l-.02.096c-.064.309-.117.622-.168.934l-.021.12a6.17 6.17 0 0 0-.034.193c-.026.177-.047.356-.069.535l-.02.178-.025.192a7.859 7.859 0 0 0-.065.633l-.014.185-.013.168c-.018.207-.035.414-.045.622v.028c-.02.403-.03.807-.03 1.214a24.506 24.506 0 0 0 .08 1.898 25.023 25.023 0 0 0 8.537 16.891l.057.049a24.814 24.814 0 0 0 1.511 1.205c.023.016.045.031.067.048a25.725 25.725 0 0 0 1.408.954c.072.047.144.093.217.138.612.376 1.24.724 1.883 1.045a25.012 25.012 0 0 0 1.843.831 23.91 23.91 0 0 0 1.48.542V57.67a14.778 14.778 0 0 1 3.946-26.752l.824-.226v13.831h6.241v-13.83l.823.227a14.776 14.776 0 0 1 3.945 26.75v13.279l.164-.055c.114-.038.23-.076.342-.117l.076-.028a24.95 24.95 0 0 0 9.8-6.608l.044-.05a26.38 26.38 0 0 0 .883-1.034 25.033 25.033 0 0 0 1.58-2.18Z"/>
</svg>
