<svg id="icon-products-security-endpoint-application" viewBox="0 0 96 96" xmlns="http://www.w3.org/2000/svg">
  <path fill-rule="evenodd" d="M93.394 75.298a.646.646 0 0 0 .066-.13.65.65 0 0 0-.243-.728L83.09 67.26V19.158a.65.65 0 0 0-.65-.65H12.597a.651.651 0 0 0-.65.65V67.72l-9.175 6.726a.647.647 0 0 0 .017 1.058.617.617 0 0 0-.023.116v1.222a.65.65 0 0 0 .65.65h89.425a.65.65 0 0 0 .65-.65V75.62a.632.632 0 0 0-.098-.322h.001Zm-80.146-55.49H81.79v43.993H13.248V19.808ZM5.143 74.32l8.617-6.316h68.132L90.8 74.32H5.143ZM56.79 28.916l-8.956-1.457a1.887 1.887 0 0 0-.629 0l-8.959 1.456a1.97 1.97 0 0 0-1.656 1.957v11.69a8.306 8.306 0 0 0 2.676 6.154l6.934 6.281a1.957 1.957 0 0 0 2.639 0l6.948-6.293a8.268 8.268 0 0 0 2.66-6.122V30.873a1.97 1.97 0 0 0-1.656-1.957h-.001Zm.657 13.669a7.266 7.266 0 0 1-2.335 5.38l-6.945 6.292a.962.962 0 0 1-1.295 0l-6.932-6.28a7.305 7.305 0 0 1-2.35-5.412V30.872a.976.976 0 0 1 .816-.97l8.96-1.457a1.04 1.04 0 0 1 .307 0l8.958 1.457a.975.975 0 0 1 .816.971v11.712Zm-5.935-5.481h.502a.65.65 0 0 1 .65.65v8.481a.651.651 0 0 1-.651.65h-8.99a.65.65 0 0 1-.65-.65v-8.481a.65.65 0 0 1 .65-.65h.503v-1.597c0-.072.012-.144.036-.212a4.176 4.176 0 0 1 2.582-2.6 4.129 4.129 0 0 1 3.19.183 4.175 4.175 0 0 1 2.141 2.417c.024.068.036.14.037.212v1.597Zm-3.66 6.829v-1.61a.976.976 0 1 0-.667 0v1.61h.667Zm-3.025-6.83h5.384v-1.482a2.882 2.882 0 0 0-1.444-1.573 2.844 2.844 0 0 0-2.194-.127 2.882 2.882 0 0 0-1.746 1.7v1.482Z"/>
</svg>
