<svg id="icon-business-reports" viewBox="0 0 96 96" xmlns="http://www.w3.org/2000/svg">
  <path fill-rule="evenodd" d="m57.798 2.624 26.828 26.22a.649.649 0 0 1 .196.465v54.795a9.47 9.47 0 0 1-9.458 9.458H20.636a9.47 9.47 0 0 1-9.458-9.456v-72.21a9.46 9.46 0 0 1 9.459-9.458h36.707c.17 0 .333.067.454.186Zm23.331 87.245a8.167 8.167 0 0 0 2.393-5.765V29.583L57.079 3.739H20.637a8.159 8.159 0 0 0-8.16 8.157v72.208a8.158 8.158 0 0 0 8.159 8.157h54.728a8.167 8.167 0 0 0 5.765-2.392ZM65.77 73.614H55.46v-31.34H65.77v31.34Zm-1.3-30.04H56.76v28.739h7.708V43.574ZM53.154 73.616H42.845V32.418h10.309v41.198Zm-1.3-39.897h-7.709v38.596h7.708V33.719ZM40.537 73.614H30.231V22.56h10.307v51.054Zm-1.3-49.752h-7.707v48.451h7.708V23.862Z"/>
</svg>
