<svg id="icon-products-infected" viewBox="0 0 96 96" xmlns="http://www.w3.org/2000/svg">
  <path fill-rule="evenodd" d="m93.293 74.81-.007.016h-.001c.02.057.032.117.035.178v1.195a.65.65 0 0 1-.65.65H3.329a.65.65 0 0 1-.65-.65v-1.195a.629.629 0 0 1 .035-.174l-.008-.015a.65.65 0 0 1 .256-.729l9.97-6.792V19.801a.65.65 0 0 1 .65-.65h68.837a.65.65 0 0 1 .65.65V67.52l9.959 6.56a.65.65 0 0 1 .264.73ZM48.58 20.209a1.044 1.044 0 1 0-1.16 1.737 1.044 1.044 0 0 0 1.16-1.737Zm33.189 3.421H14.234v43.293h67.535V23.63ZM13.877 68.223l-8.44 5.75h85.066l-8.73-5.75H13.878Zm28.971-28.398v-1.5a3.978 3.978 0 0 1 1.425-3.034l-2.868-6.455 1.187-.529 2.776 6.247a5.773 5.773 0 0 1 5.266 0l2.776-6.247 1.188.529-2.869 6.456a3.978 3.978 0 0 1 1.424 3.033v1.5h-1.3v-1.5c0-1.858-1.992-3.106-3.852-3.106-1.86 0-3.853 1.248-3.853 3.106v1.5h-1.3Zm14.064 8.541v-1.434c-.005-.103-.015-.95-.021-1.517l2.932-2.198 1.56-5.463-1.25-.357-1.441 5.042-2.108 1.581-1.428-1.798a4.026 4.026 0 0 0-3.172-1.578h-7.966a4.021 4.021 0 0 0-3.158 1.57l-1.437 1.81-2.111-1.585-1.44-5.042-1.25.357 1.559 5.463 2.939 2.203c-.007.573-.016 1.433-.016 1.536v1.407l-4.387 1.461-1.594 5.582 1.25.358 1.407-4.923 3.324-1.108v3.194a8.875 8.875 0 0 0 .173 2.193l-3.13 2.348-.793 4.759 1.283.214.707-4.246 2.307-1.73a8.929 8.929 0 0 0 8.362 5.819 8.93 8.93 0 0 0 8.348-5.812l2.297 1.723.707 4.246 1.284-.214-.793-4.76-3.119-2.338c.09-.433.149-.873.174-1.315.014-.285.015-.57.001-.855v-3.223l3.316 1.105 1.406 4.923 1.25-.358-1.594-5.582-4.378-1.458Zm-1.3 5.384a7.612 7.612 0 0 1-10.895 6.533 7.613 7.613 0 0 1-4.312-7.323v-6.004c0-.126.014-1.41.02-1.875v-.008l.001-.158v-.063l1.457-1.837a2.733 2.733 0 0 1 2.142-1.071h7.952a2.74 2.74 0 0 1 2.155 1.08l1.452 1.828v.07s.023 1.901.028 2.034v6.035c.013.253.013.506 0 .759Zm-7.715-8.106a.65.65 0 0 1 .65.638l.208 11.72a.65.65 0 0 1-.638.661h-.01a.65.65 0 0 1-.65-.638l-.209-11.72a.65.65 0 0 1 .638-.661h.011Z"/>
</svg>
