<svg id="icon-products-mpls-ip-vpn-service" viewBox="0 0 96 96" xmlns="http://www.w3.org/2000/svg">
  <path fill-rule="evenodd" d="M83.401 36.483a5.99 5.99 0 0 1 4.185-1.713 5.986 5.986 0 1 1-5.867 7.165l-15.223 2.963a15.577 15.577 0 0 1-3.113 11.947l9.385 8.282c.053.05.098.11.132.175a6 6 0 1 1-.83.894.624.624 0 0 1-.163-.094l-9.356-8.257a15.85 15.85 0 0 1-17.613 4.203l-7.06 14.564a.626.626 0 0 1-.314.29 6.02 6.02 0 1 1-.916-.575.635.635 0 0 1 .06-.282l7.039-14.52a15.97 15.97 0 0 1-8.997-14.006l-20.39-.367a5.99 5.99 0 1 1 .004-1.3l20.416.368a15.985 15.985 0 0 1 12.467-14.636l-2.548-11.3a5.983 5.983 0 1 1 1.268-.286l2.563 11.364a15.817 15.817 0 0 1 17.735 12.257l15.342-2.986a5.99 5.99 0 0 1 1.794-4.15ZM41.44 18.231a4.686 4.686 0 1 0 5.207-7.792 4.686 4.686 0 0 0-5.207 7.792ZM5.811 50.385a4.685 4.685 0 1 0 5.206-7.791 4.685 4.685 0 0 0-5.206 7.791Zm32.037 33.883a4.686 4.686 0 1 0-7.793-5.206 4.686 4.686 0 0 0 7.793 5.206ZM55.082 52.7c.47-.47.734-1.107.734-1.772v-4.554a2.492 2.492 0 0 0-.888-1.9v-1.812l-.028-.164a4.422 4.422 0 0 0-8.354 0l-.021 1.94a2.491 2.491 0 0 0-.931 1.936v4.554a2.506 2.506 0 0 0 2.506 2.506h5.21c.664 0 1.302-.264 1.772-.734Zm24.363 13.198a4.685 4.685 0 0 0-2.602-.79 4.69 4.69 0 0 0-4.686 4.686 4.685 4.685 0 1 0 7.288-3.896Zm5.538-21.247a4.685 4.685 0 1 0 5.207-7.79 4.685 4.685 0 0 0-5.207 7.79Zm-34.14-4.12c.475.017.942.132 1.37.339v-.001a3.397 3.397 0 0 1 1.715 1.88v1.205a2.49 2.49 0 0 0-.62-.086h-5.21c-.195.002-.39.027-.58.075V42.75a3.424 3.424 0 0 1 3.325-2.219Zm-.965 6.408c.239-.177.528-.273.826-.272a1.378 1.378 0 0 1 .793 2.505l-.008 1.72h-1.541v-1.693a1.377 1.377 0 0 1-.07-2.26Z"/>
</svg>
