<svg id="icon-products-apps" viewBox="0 0 96 96" xmlns="http://www.w3.org/2000/svg">
  <path fill-rule="evenodd" d="M11.66 2.442h32.703a.65.65 0 0 1 .65.65v32.703a.65.65 0 0 1-.65.65H11.66a.65.65 0 0 1-.65-.65V3.092a.65.65 0 0 1 .65-.65Zm.65 32.703h31.403V3.742H12.31v31.403Zm70.066 1.3H49.673a.65.65 0 0 1-.65-.65V3.092a.65.65 0 0 1 .65-.65h32.703a.65.65 0 0 1 .65.65v32.703a.649.649 0 0 1-.65.65Zm-.65-32.703H50.323l-.001 31.403h31.404V3.742ZM11.66 40.428h32.703a.65.65 0 0 1 .65.65V73.78a.649.649 0 0 1-.65.65H11.66a.65.65 0 0 1-.65-.65V41.078a.65.65 0 0 1 .65-.65Zm.65 32.702h31.403V41.728H12.31V73.13Zm48.55.19a.65.65 0 0 1-.46 1.11H49.673a.65.65 0 0 1-.65-.65V41.077a.65.65 0 0 1 .65-.65h32.704a.65.65 0 0 1 .65.65v24.885a.65.65 0 0 1-1.3 0V41.727H50.323V73.13H60.4a.65.65 0 0 1 .46.19Zm19.508-4.714c.085.134.161.274.228.418 1.275 2.366 5.397 10.7 4.167 17.078-.588 3.053-1.98 5.211-4.132 6.416a8.653 8.653 0 0 1-4.266 1.04 14.53 14.53 0 0 1-4.984-.98 18.809 18.809 0 0 1-5.626-3.793c-1.984-1.737-3.702-3.241-5.772-2.833-2.224.432-4.25-.249-4.927-1.663-.261-.546-.66-1.994 1.288-3.634 2.444-2.059 6.612-1.318 8.692-.764a180.23 180.23 0 0 0-7.055-17.37 4.06 4.06 0 0 1 .03-4.085 2.75 2.75 0 0 1 2.539-1.16 4.047 4.047 0 0 1 3.173 2.583l3.844 8.307a3.608 3.608 0 0 1 3.962-1.022.654.654 0 0 1 .196.119 3.203 3.203 0 0 1 4.23.005 3.54 3.54 0 0 1 4.413 1.338Zm-.371 22.776c1.803-1.008 2.977-2.866 3.49-5.526h-.001c1.149-5.957-2.812-13.945-4.053-16.252a2.62 2.62 0 0 0-.162-.299 2.218 2.218 0 0 0-2.578-.92l1.35 2.916a.65.65 0 1 1-1.18.546l-1.41-3.047a.643.643 0 0 1-.058-.26.627.627 0 0 1-.068-.058 1.94 1.94 0 0 0-2.967-.042l1.826 3.946a.65.65 0 1 1-1.18.546l-1.984-4.289a.65.65 0 0 1-.06-.305 2.306 2.306 0 0 0-2.76 1.19l1.874 4.048a.651.651 0 0 1-1.03.751.65.65 0 0 1-.15-.205l-1.985-4.289a.036.036 0 0 0-.006-.008c-.002-.002-.005-.005-.006-.008l-4.355-9.412a2.805 2.805 0 0 0-2.112-1.835 1.463 1.463 0 0 0-1.357.614 2.83 2.83 0 0 0 .084 2.789 181.362 181.362 0 0 1 7.52 18.701.65.65 0 0 1-.838.82c-.06-.022-5.956-2.125-8.66.155-.882.743-1.23 1.5-.952 2.079.345.723 1.693 1.302 3.505.948 2.7-.527 4.727 1.249 6.874 3.129l.003.002a17.521 17.521 0 0 0 5.229 3.555c3.109 1.173 6.082 1.179 8.157.02Z"/>
</svg>
