<svg id="icon-products-ui-ux-modernization" viewBox="0 0 96 96" xmlns="http://www.w3.org/2000/svg">
  <path fill-rule="evenodd" d="M72.21 62.434c.473.708.71 1.549.675 2.4l.001 14.032a18.692 18.692 0 0 1-2.206 7.316c-3.733 5.669-11.137 7.386-17.229 7.386a22.41 22.41 0 0 1-8.534-1.399c-5.697-2.699-7.832-8.27-8.744-10.651v-.001a32.78 32.78 0 0 1-.792-2.324h-.29a11.994 11.994 0 0 1-11.98-11.979V14.411c.005-.535.045-1.07.12-1.6a.624.624 0 0 1-.023-.114.634.634 0 0 1 .088-.308 11.99 11.99 0 0 1 11.795-9.956h20.443a11.993 11.993 0 0 1 11.77 9.79.642.642 0 0 1 .21.474.632.632 0 0 1-.09.311c.058.466.088.935.09 1.404v46.417a4.572 4.572 0 0 1 4.695 1.605ZM55.532 3.733H35.091a10.69 10.69 0 0 0-10.406 8.313H65.94a10.69 10.69 0 0 0-10.406-8.313ZM27.57 74.78a10.685 10.685 0 0 0 7.452 3.109h.002c-.797-3.155-1.262-7.203.156-10.545H24.42a10.685 10.685 0 0 0 3.149 7.436Zm-3.158-60.368v51.631h11.451a8.687 8.687 0 0 1 1.17-1.511c.01-.01.02-.018.031-.026.01-.008.021-.016.031-.026h-6.7a.65.65 0 0 1-.65-.65V48.191a.65.65 0 0 1 .65-.65h11.643v-2.739a6.79 6.79 0 0 1-1.702-1.988h-9.942a.65.65 0 0 1-.65-.65V32.18a.65.65 0 0 1 .65-.65H60.33a.65.65 0 0 1 .65.65v9.985a.65.65 0 0 1-.65.65h-8.235a6.793 6.793 0 0 1-1.558 1.876c.022 6.652.023 9.951.012 11.602l.002.012v.177a6.824 6.824 0 0 1 2.521-.947 5.336 5.336 0 0 1 3.906 1.153 4.854 4.854 0 0 1 1.16 2.855c.043.086.066.18.067.277v.117a6.14 6.14 0 0 1 1.338-.767 5.087 5.087 0 0 1 4.028.198 4.32 4.32 0 0 1 2.087 2.065c.07.066.123.147.157.236.129-.102.262-.197.4-.284V14.412c0-.36-.019-.715-.054-1.065H24.465c-.034.35-.054.705-.054 1.065Zm6.633 27.102h8.726a6.745 6.745 0 0 1 5.55-8.682H31.044v8.682Zm28.635-8.682H47.11a6.742 6.742 0 0 1 5.55 8.682h7.02v-8.682Zm-10.585 2.052a5.437 5.437 0 0 0-2.879-.818 5.444 5.444 0 0 0-4.177 8.938v-1.922a4.244 4.244 0 0 1 8.483-.275l.008 2.02a5.438 5.438 0 0 0-1.435-7.943Zm-7.056 26.97V48.842H31.044v14.337h7.772a10.325 10.325 0 0 1 3.222-1.325Zm3.437 29.14c3.886 1.84 18.62 2.828 24.092-5.48a17.329 17.329 0 0 0 2.022-6.707l-.003-14a2.73 2.73 0 0 0-.432-1.618 3.26 3.26 0 0 0-3.85-.921c-.597.273-1.1.718-1.444 1.278v.996a.65.65 0 0 1-1.3 0v-2.355c-.17-.73-.685-1.155-1.598-1.67a3.744 3.744 0 0 0-2.944-.137 4.805 4.805 0 0 0-1.814 1.347v2.816a.65.65 0 1 1-1.3 0v-3.02a.645.645 0 0 1-.007-.076l.005-.095.001-.051v-1.008a4.312 4.312 0 0 0-.794-2.64 3.958 3.958 0 0 0-2.87-.829 5.486 5.486 0 0 0-2.69 1.287v6.43a.65.65 0 0 1-1.3 0v-6.52a.65.65 0 0 1-.02-.287c.016-.452.024-.904.021-1.356v-.075c.011-1.978.008-6.366-.029-15.472a2.942 2.942 0 0 0-4.162-2.555 2.945 2.945 0 0 0-1.72 2.783v21.33l.001.005v11.998a.65.65 0 1 1-1.3 0V63.216a9.05 9.05 0 0 0-4.093 2.242c-4.254 4.31-1.81 12.341-.56 15.593.928 2.425 2.86 7.467 8.088 9.943Zm8.603-71.721H30.393a.65.65 0 0 1 0-1.3h23.685a.65.65 0 0 1 0 1.3ZM46.63 23.37H30.393v-.001a.65.65 0 0 1 0-1.3H46.63a.65.65 0 0 1 0 1.301Zm11.173 4.096H30.393a.65.65 0 0 1 0-1.3h27.41a.65.65 0 0 1 0 1.3Z"/>
</svg>
