<svg id="icon-devices-switch" viewBox="0 0 96 96" xmlns="http://www.w3.org/2000/svg">
  <path fill-rule="evenodd" d="M17.385 2.33h61.23a15.336 15.336 0 0 1 15.32 15.32v60.7a15.336 15.336 0 0 1-15.32 15.32h-61.23a15.336 15.336 0 0 1-15.32-15.32v-60.7a15.336 15.336 0 0 1 15.32-15.32Zm71.14 85.93a14.034 14.034 0 0 0 4.11-9.91v-60.7a14.034 14.034 0 0 0-14.02-14.02h-61.23A14.034 14.034 0 0 0 3.366 17.65v60.7a14.034 14.034 0 0 0 14.02 14.02h61.23a14.034 14.034 0 0 0 9.908-4.11ZM77.305 62.691c.007.009.007.021.014.03a.633.633 0 0 1 .131.344.644.644 0 0 1-.047.321l-.002.003a.644.644 0 0 1-.146.203l-7.389 6.852a.648.648 0 0 1-1.052-.25.652.652 0 0 1 .167-.703l6.174-5.725H19.473a.65.65 0 1 1 0-1.301h55.923l-5.894-6.835a.65.65 0 1 1 .984-.85l6.82 7.911Zm-52.2-21.386a.65.65 0 0 1-.19-.176l-6.037-7.683a.643.643 0 0 1-.344-.564c0-.009.003-.016.005-.024a.09.09 0 0 0 .004-.02.637.637 0 0 1 .195-.537l7.39-6.847a.651.651 0 1 1 .882.953l-6.286 5.825h55.806a.65.65 0 1 1 0 1.301h-55.93l5.335 6.793a.651.651 0 0 1-.83.979Z"/>
</svg>
