<svg id="icon-products-analytics" viewBox="0 0 96 96" xmlns="http://www.w3.org/2000/svg">
  <path fill-rule="evenodd" d="M73.542 54.627 90.274 72.44v.001a4.718 4.718 0 0 1-3.434 7.947l-.152-.003a4.685 4.685 0 0 1-3.29-1.485l-9.855-10.494v22.842a2.31 2.31 0 0 1-2.307 2.307H57.619a2.31 2.31 0 0 1-2.306-2.307V54.122a26.976 26.976 0 0 1-7.203 2.312v34.813a2.31 2.31 0 0 1-2.306 2.306H32.187a2.31 2.31 0 0 1-2.307-2.306V53.18a27.195 27.195 0 1 1 40.658-26.207h.697a2.31 2.31 0 0 1 2.307 2.307v25.347Zm-2.306-26.354h-.6a27.053 27.053 0 0 1-5.338 17.578l6.944 7.392V29.28a1.008 1.008 0 0 0-1.006-1.007ZM46.513 91.958c.189-.189.295-.444.296-.711V56.625c-1.106.139-2.22.21-3.334.212a27.019 27.019 0 0 1-12.296-2.95v37.36a1.008 1.008 0 0 0 1.007 1.006h13.617c.266 0 .522-.107.71-.295Zm-15.067-39.39a25.883 25.883 0 0 0 12.029 2.969l-.001-.001a25.885 25.885 0 1 0-21.67-11.742.643.643 0 0 1 .18-.485l16.45-16.84 1.85 7.362 15.764-18.719-6.91-.603a.65.65 0 1 1 .115-1.295l8.8.768.767 8.233a.65.65 0 0 1-.587.707c-.021.003-.041.003-.061.003a.65.65 0 0 1-.646-.59l-.584-6.268-17.298 20.544-1.904-7.571-14.824 15.179a.627.627 0 0 1-.74.128 25.882 25.882 0 0 0 9.27 8.22Zm40.5 39.392c.19-.189.295-.445.296-.712V67.022l-13.8-14.69a26.53 26.53 0 0 1-1.83 1.112v37.804a1.008 1.008 0 0 0 1.006 1.007h13.617c.267 0 .523-.106.711-.295ZM59.52 51.58l10.732 11.426 4.98-4.681-10.745-11.44a27.431 27.431 0 0 1-4.967 4.695ZM6.753 64.024H20.37v-.001a2.31 2.31 0 0 1 2.307 2.307v24.917a2.31 2.31 0 0 1-2.307 2.306H6.753a2.31 2.31 0 0 1-2.306-2.306V66.331a2.31 2.31 0 0 1 2.306-2.307Zm14.329 27.934c.188-.189.295-.444.295-.711V66.33a1.008 1.008 0 0 0-1.007-1.007H6.753a1.008 1.008 0 0 0-1.007 1.007v24.917a1.008 1.008 0 0 0 1.007 1.006H20.37c.267 0 .523-.106.712-.295Z"/>
</svg>
