<svg id="icon-products-voice" viewBox="0 0 96 96" xmlns="http://www.w3.org/2000/svg">
  <path fill-rule="evenodd" d="M45.898 61.536a.647.647 0 0 0-.698-.148l-7.765 3.038c-9.152-9.202-13.88-31.997-14.633-35.89l10.517-3.155a.65.65 0 0 0 .463-.627c-.098-14.613-3.186-21.014-3.317-21.279a.65.65 0 0 0-.557-.361l-16.697-.67a.667.667 0 0 0-.629.408c-9.534 23.704 1.284 50.603 1.391 50.862 9.325 23.802 28.935 39.544 29.132 39.7a.65.65 0 0 0 .853-.04l13.41-12.83a.65.65 0 0 0 .17-.67c-3.139-9.71-11.294-17.99-11.64-18.338Zm-2.42 30.5C40.543 89.58 23.608 74.749 15.18 53.23c-.108-.263-10.597-26.365-1.56-49.468l15.83.634c.614 1.482 2.89 7.778 3.028 19.88l-10.61 3.183a.65.65 0 0 0-.453.737c.197 1.112 4.934 27.362 15.413 37.457a.65.65 0 0 0 .688.137l7.753-3.033c1.475 1.563 8.11 8.893 10.903 17.131L43.477 92.036Zm15.048-40.78-.313-.06a.66.66 0 0 0-.757.521.65.65 0 0 0 .521.758l.287.055a10.63 10.63 0 0 1 8.24 12.553.65.65 0 0 0 1.271.263 11.931 11.931 0 0 0-9.25-14.09h.001Zm.296-10.052a26.702 26.702 0 0 0-.62-.121.65.65 0 1 0-.235 1.279 22.323 22.323 0 0 1 17.907 26.515.65.65 0 1 0 1.273.263 23.626 23.626 0 0 0-18.325-27.936Zm13.58-4.557a33.925 33.925 0 0 1 9.332 9.515A33.926 33.926 0 0 1 86.62 71.84a.651.651 0 0 1-.769.505.65.65 0 0 1-.503-.768 32.85 32.85 0 0 0-26.34-39.009.65.65 0 1 1 .227-1.279 33.925 33.925 0 0 1 13.168 5.358Z"/>
</svg>
