<svg id="icon-people-attacker" viewBox="0 0 96 96" xmlns="http://www.w3.org/2000/svg">
  <path fill-rule="evenodd" d="M21.587 86.99v-8.401a8.758 8.758 0 0 1-4.986-7.89v-9.693a8.742 8.742 0 0 1 4.616-7.716l.37-.198v-2.384a.65.65 0 0 1 .65-.65h5.002l2.837-1.523 3.275-1.832a8.757 8.757 0 0 1 7.22-.606l4.757 1.698a7.46 7.46 0 0 0 5.102-.031l4.56-1.688a8.744 8.744 0 0 1 7.329.576l3.325 1.865 2.878 1.54h5.24a.65.65 0 0 1 .65.65v2.5l.155.084a8.741 8.741 0 0 1 4.625 7.721v9.689a8.743 8.743 0 0 1-4.78 7.797v8.492a.65.65 0 0 1-.65.65H22.237a.65.65 0 0 1-.65-.65Zm55.376-29.57a7.43 7.43 0 0 0-2.551-2.697v22.272a7.45 7.45 0 0 0 3.48-6.295v-9.687a7.43 7.43 0 0 0-.93-3.594Zm-42.977-9.583-3.284 1.838-.714.383h35.779l-.748-.4-3.336-1.872a7.445 7.445 0 0 0-6.242-.492l-4.56 1.688a8.768 8.768 0 0 1-5.99.038l-4.757-1.698a7.454 7.454 0 0 0-6.148.515Zm39.126 5.736H22.887V86.34h50.225V53.573Zm-54.224 3.733a7.435 7.435 0 0 0-.988 3.7V70.7a7.453 7.453 0 0 0 3.686 6.42V54.589a7.435 7.435 0 0 0-2.698 2.717Zm45.626-34.392c0 11.296-7.455 20.486-16.618 20.486-9.164 0-16.62-9.19-16.62-20.485S38.734 2.43 47.897 2.43s16.618 9.188 16.618 20.484Zm-1.3 0c0-10.579-6.872-19.185-15.318-19.185v.001c-8.446 0-15.32 8.605-15.32 19.184S39.45 42.1 47.897 42.1c8.446 0 15.318-8.607 15.318-19.186Zm-48.65 68.463h66.873a.65.65 0 0 1 .65.65v.894a.65.65 0 0 1-.65.65H14.564a.65.65 0 0 1-.65-.65v-.894a.65.65 0 0 1 .65-.65ZM63.99 69.209a1.746 1.746 0 0 0-1.666 1.259h-5.33l.023-.177c.022-.17.045-.341.053-.515l.016-.46c-.005-.6-.068-1.2-.187-1.788h1.058a.5.5 0 0 0 .355-.148l2.58-2.602c.254.144.541.22.833.222a1.778 1.778 0 1 0-1.535-.935l-2.442 2.463h-1.09a9.347 9.347 0 0 0-17.927.243.49.49 0 0 0-.146-.03h-1.07l-2.446-2.465a1.74 1.74 0 1 0-1.536.937c.293-.002.58-.079.835-.223l2.582 2.604a.5.5 0 0 0 .355.148h1.213a9.312 9.312 0 0 0-.05 2.726h-4.786a1.757 1.757 0 1 0 0 1h4.972c.23.96.61 1.88 1.127 2.722h-2.47a.5.5 0 0 0-.356.148l-2.727 2.75a1.779 1.779 0 1 0 .711.703l2.58-2.6h2.963c.75.927 1.67 1.7 2.713 2.278v3.69h9.368v-3.806a9.343 9.343 0 0 0 2.793-2.629h2.632l2.66 2.682a1.738 1.738 0 1 0 1.345-.649c-.17.002-.338.03-.499.082l-2.942-2.967a.5.5 0 0 0-.355-.148H55.97c.378-.712.663-1.47.847-2.256h5.508a1.745 1.745 0 1 0 1.667-2.259Zm-2.265-6.723a.757.757 0 1 1 .02 1.513.757.757 0 0 1-.02-1.513Zm-28.192 1.727a.757.757 0 1 1-.02-1.514.757.757 0 0 1 .02 1.514Zm-1.518 7.51a.757.757 0 1 1-.02-1.514.757.757 0 0 1 .02 1.514Zm1.4 7.667a.757.757 0 1 1-.02-1.514.757.757 0 0 1 .02 1.514Zm28.578-1.633a.757.757 0 1 1 .018 1.515.757.757 0 0 1-.018-1.515ZM51.818 76.63l-.255.143v3.386H49.89v-1.916h.006a.473.473 0 0 0-.052-.263.467.467 0 0 0-.63-.192.464.464 0 0 0-.244.455v1.916h-2.068v-1.916a.466.466 0 1 0-.925 0v1.916h-1.78v-3.295l-.273-.14a8.352 8.352 0 1 1 12.156-7.77l.001.362a8.38 8.38 0 0 1-4.262 7.314Zm12.173-4.907a.757.757 0 1 1-.02-1.514.757.757 0 0 1 .02 1.514ZM49.95 67.77a1.85 1.85 0 0 1 1.737-.161 1.842 1.842 0 0 1 1.13 1.707 1.85 1.85 0 1 1-2.867-1.546Zm-6.54 0a1.85 1.85 0 0 1 1.031-.304 1.842 1.842 0 0 1 1.834 1.85 1.85 1.85 0 1 1-2.866-1.546Z"/>
</svg>
