<svg id="icon-platform-adaptive-networking" viewBox="0 0 96 96" xmlns="http://www.w3.org/2000/svg">
  <path d="M89.363 29.8a14.408 14.408 0 0 0-10.248-4.242h-.007c-1.09 0-2.175.124-3.237.367a23.1 23.1 0 0 0-44.596-6.887A18.134 18.134 0 0 0 8.834 41.581l.007.012a12.758 12.758 0 0 0 6.303 23.852h5.65a.65.65 0 0 0-.051.25v12.543a.65.65 0 0 0 1.3 0V65.695a.646.646 0 0 0-.051-.25H33.66c-.001.01-.006.02-.006.03v4.154h-7.38a.65.65 0 0 0-.65.65v17.59a.65.65 0 0 0 1.3 0v-16.94h7.38a.652.652 0 0 0 .65-.65v-4.805c0-.01-.006-.019-.006-.029h3.592v18.646a3.843 3.843 0 1 0 1.3 0V65.446h3.73v8.706a.65.65 0 1 0 1.299 0v-8.706h6.97a10.255 10.255 0 0 0 10.135-10.38c-.002-.17-.02-.335-.03-.503h17.177a14.502 14.502 0 0 0 10.24-24.762ZM41.735 87.87a2.543 2.543 0 1 1-5.086 0 2.543 2.543 0 0 1 5.086 0Zm16.392-26.422a8.896 8.896 0 0 1-6.295 2.7H15.145a11.47 11.47 0 1 1 3.58-22.364.65.65 0 0 0 .816-.398 14.925 14.925 0 0 1 28.964 4.599.651.651 0 0 0 .832.603 8.887 8.887 0 0 1 2.49-.356h.002a8.891 8.891 0 0 1 8.674 7.21.635.635 0 0 0 .136 1.035c.016.2.035.4.037.605a8.895 8.895 0 0 1-2.548 6.365h-.001ZM88.455 49.39a13.117 13.117 0 0 1-9.333 3.872H61.789a10.181 10.181 0 0 0-9.95-8.33h-.011c-.695-.001-1.387.07-2.067.21a16.226 16.226 0 0 0-31.224-4.775 12.704 12.704 0 0 0-8.511.626 16.827 16.827 0 0 1 21.443-20.538.65.65 0 0 0 .814-.398 21.8 21.8 0 0 1 42.324 6.716.651.651 0 0 0 .83.606 13.184 13.184 0 0 1 3.67-.522h.007a13.202 13.202 0 0 1 9.34 22.534Z"/>
</svg>
