<svg id="icon-products-speed" viewBox="0 0 96 96" xmlns="http://www.w3.org/2000/svg">
  <path d="M68.881 82.287h-4.848c-1.683-.028-3.035-1.381-3.035-3.042a2.92 2.92 0 0 1 .55-1.717l6.364-8.979c.469-.682.469-1.575.003-2.253l-6.369-9.049a3.02 3.02 0 0 1 .912-4.215 3.13 3.13 0 0 1 1.583-.487h4.88a3.1 3.1 0 0 1 2.49 1.29l8.373 11.877a3.013 3.013 0 0 1-.004 3.421l-8.412 11.919a3.1 3.1 0 0 1-2.487 1.235Zm.001-1.022c.66.001 1.28-.306 1.66-.814l8.4-11.901c.469-.683.469-1.576.003-2.254l-8.366-11.87a2.075 2.075 0 0 0-1.662-.859h-4.858a2.095 2.095 0 0 0-1.052.326c-.953.608-1.224 1.857-.617 2.779l6.364 9.04a3.013 3.013 0 0 1-.004 3.422l-6.371 8.988c-.235.327-.36.718-.36 1.12 0 1.103.902 2.004 2.022 2.023h4.841ZM51.87 82.287h-4.882c-1.674.002-3.037-1.334-3.039-2.99a2.963 2.963 0 0 1 .552-1.725l6.362-9.03a1.932 1.932 0 0 0-.002-2.255l-6.36-9.026a2.968 2.968 0 0 1 .753-4.172l.013-.008a3.12 3.12 0 0 1 1.72-.536h4.89a3.1 3.1 0 0 1 2.488 1.289l8.38 11.869a3.012 3.012 0 0 1-.002 3.43l-8.386 11.919a3.1 3.1 0 0 1-2.487 1.235Zm0-1.022a2.073 2.073 0 0 0 1.66-.813l8.375-11.903a1.987 1.987 0 0 0 .003-2.261l-8.375-11.862a2.074 2.074 0 0 0-1.662-.859h-4.878c-.413.005-.814.13-1.156.362l-.003.002a1.947 1.947 0 0 0-.498 2.74l6.358 9.025a2.952 2.952 0 0 1 .002 3.437l-6.362 9.03a1.944 1.944 0 0 0-.363 1.133c.001 1.087.902 1.97 2.016 1.969h4.884Zm-4.66-36.121s-1.433 3.462-4.618 2.178c-3.184-1.283-1.716-4.737-1.716-4.737l10.102-18.088c.247-.45.8-.643 1.28-.448.49.183.76.7.626 1.2l-5.674 19.895Zm-2.335 25.633v1.022C28.377 71.799 15 58.638 15 42.399 15 26.161 28.377 13 44.874 13 61.373 13 74.75 26.16 74.75 42.4v.008h-1.022v-.009c0-15.67-12.916-28.377-28.853-28.377-15.936 0-28.852 12.707-28.852 28.377 0 15.671 12.916 28.378 28.852 28.378Z"/>
</svg>
