<svg id="icon-products-apps-other" viewBox="0 0 96 96" xmlns="http://www.w3.org/2000/svg">
  <path fill-rule="evenodd" d="M72.443 74.803c-.001.428-.023.862-.063 1.29l4.725 3.638a.65.65 0 0 1 .165.842l-4.235 7.29a.65.65 0 0 1-.813.273l-5.462-2.284c-.744.534-1.54.992-2.375 1.366l-.75 5.77a.65.65 0 0 1-.644.567h-8.436a.65.65 0 0 1-.645-.566l-.762-5.831a13.624 13.624 0 0 1-2.408-1.43l-5.396 2.232a.65.65 0 0 1-.812-.276l-4.207-7.31a.642.642 0 0 1-.017-.597H25.857a7.234 7.234 0 0 1-7.226-7.226V9.594a7.235 7.235 0 0 1 7.226-7.226h26.796a7.235 7.235 0 0 1 7.226 7.226v46.305h3.172a.65.65 0 0 1 .644.566l.775 5.933c.758.346 1.483.76 2.166 1.239l5.63-2.33a.648.648 0 0 1 .812.277l4.205 7.311a.65.65 0 0 1-.17.84l-4.747 3.628c.05.477.076.956.077 1.436v.004ZM52.653 3.667H25.857a5.933 5.933 0 0 0-5.761 4.562h38.318a5.934 5.934 0 0 0-5.761-4.562ZM19.93 9.594v62.959c.002.302.028.602.076.9h25.292l.008-.089c.02-.194.038-.389.067-.582l-4.541-3.496a.65.65 0 0 1-.165-.842l4.236-7.292a.649.649 0 0 1 .813-.273l5.802 2.43c.538-.342 1.1-.647 1.68-.911l.774-5.932a.65.65 0 0 1 .644-.566h3.963V9.594c0-.014-.001-.028-.003-.041a.44.44 0 0 1-.002-.042.615.615 0 0 1-.087.018H20.022a.612.612 0 0 1-.087-.018l-.002.033a.738.738 0 0 0-.002.05Zm2.607 67.862a5.933 5.933 0 0 0 3.319 1.022l16.019-.001 3.393-2.59a13.52 13.52 0 0 1-.045-1.1v-.035H20.36a5.933 5.933 0 0 0 2.179 2.704Zm44.384 7.054 5.275 2.207 3.663-6.303-4.563-3.513a.65.65 0 0 1-.248-.595 12.122 12.122 0 0 0-.017-3.147.648.648 0 0 1 .25-.603l4.59-3.509-3.637-6.32-5.438 2.25a.648.648 0 0 1-.635-.079 12.379 12.379 0 0 0-2.543-1.454.65.65 0 0 1-.39-.515l-.75-5.73h-7.291l-.748 5.73a.65.65 0 0 1-.392.515c-.735.31-1.437.691-2.098 1.137a.65.65 0 0 1-.614.06l-5.594-2.343-3.663 6.305 4.396 3.385a.65.65 0 0 1 .243.63 12.404 12.404 0 0 0-.122 3.497.65.65 0 0 1-.252.586l-4.607 3.52 3.637 6.32 5.215-2.156a.648.648 0 0 1 .65.09A12.347 12.347 0 0 0 54 86.115a.65.65 0 0 1 .389.513l.735 5.627h7.295l.723-5.572a.65.65 0 0 1 .396-.517 12.306 12.306 0 0 0 2.738-1.574.646.646 0 0 1 .645-.082ZM54.948 68.967a6.94 6.94 0 0 1 3.856-1.17 6.947 6.947 0 0 1 6.94 6.94 6.94 6.94 0 1 1-10.796-5.77Zm.722 10.457a5.64 5.64 0 0 0 3.134.951v.001a5.646 5.646 0 0 0 5.64-5.64 5.64 5.64 0 1 0-8.774 4.688ZM30.254 17.372h-2.658v2.658h2.658v-2.658Zm0 7.975h-2.658v2.658h2.658v-2.658Zm0 7.975h-2.658v2.658h2.658v-2.658Zm19.937-15.95H31.583v2.658H50.19v-2.658Zm0 7.975H31.583v2.658H50.19v-2.658Zm0 7.975H31.583v2.658H50.19v-2.658Z"/>
</svg>
