<svg id="icon-products-ddos" viewBox="0 0 96 96" xmlns="http://www.w3.org/2000/svg">
  <path fill-rule="evenodd" d="m90.033 23.854-18.261-2.948a3.624 3.624 0 0 0-1.162 0l-1.036.167-.251-6.648A3.548 3.548 0 0 0 65.766 11H5.561A3.565 3.565 0 0 0 2 14.56v15.417a3.566 3.566 0 0 0 3.561 3.558h43.714v2.25H5.561A3.565 3.565 0 0 0 2 39.345v15.418a3.568 3.568 0 0 0 3.561 3.56h45.38a16.345 16.345 0 0 0 2.147 3.326H5.561A3.565 3.565 0 0 0 2 65.209v15.416a3.567 3.567 0 0 0 3.561 3.562h60.552a3.567 3.567 0 0 0 3.561-3.562v-4.06a3.586 3.586 0 0 0 3.955-.59L87.793 63.25A16.3 16.3 0 0 0 93.1 51.133V27.455a3.632 3.632 0 0 0-3.067-3.6v-.001ZM5.56 32.236a2.263 2.263 0 0 1-2.26-2.26V14.56a2.263 2.263 0 0 1 2.26-2.26h60.205a2.253 2.253 0 0 1 2.258 2.174l.257 6.808-15.94 2.572a3.63 3.63 0 0 0-3.066 3.6v4.782H5.56Zm0 24.786a2.265 2.265 0 0 1-2.26-2.26V39.344a2.263 2.263 0 0 1 2.26-2.26h43.714v14.012a16.308 16.308 0 0 0 1.104 5.925l-44.818.001Zm62.813 23.602a2.265 2.265 0 0 1-2.261 2.262H5.56a2.265 2.265 0 0 1-2.26-2.262V65.208a2.263 2.263 0 0 1 2.26-2.26h48.736c.05.048.099.099.147.15.056.059.113.118.173.174l13.757 12.36v4.992Zm23.425-29.487a14.993 14.993 0 0 1-4.88 11.148L72.76 75.007a2.344 2.344 0 0 1-3.137 0L55.49 62.308a15.07 15.07 0 0 1-4.914-11.207V27.453a2.335 2.335 0 0 1 1.972-2.317l18.269-2.948c.248-.04.5-.04.748 0l18.26 2.948a2.338 2.338 0 0 1 1.974 2.318l-.001 23.683ZM80.404 38.712h-1.758l-.007-4.104c-.009-.055-.93-5.515-7.619-5.515-6.688 0-7.61 5.46-7.628 5.615v4.004h-1.756a.65.65 0 0 0-.65.65v17.561a.65.65 0 0 0 .65.65h18.768a.65.65 0 0 0 .65-.65V39.362a.65.65 0 0 0-.65-.65ZM72.21 48.957v2.387a.65.65 0 0 1-.65.65h-.999a.65.65 0 0 1-.65-.65v-2.343a2.264 2.264 0 1 1 2.3-.044Zm5.136-10.245H64.693v-3.947c.095-.49 1.016-4.372 6.327-4.372s6.232 3.882 6.326 4.372v3.947ZM8.431 19.795a2.596 2.596 0 1 1 2.883 4.318 2.596 2.596 0 0 1-2.883-4.318Zm.555 3.488a1.596 1.596 0 1 0 1.772-2.655 1.596 1.596 0 0 0-1.772 2.655Zm5.91-3.488a2.596 2.596 0 1 1 2.884 4.319 2.596 2.596 0 0 1-2.883-4.319Zm.556 3.488a1.598 1.598 0 0 0 2.213-2.214 1.597 1.597 0 1 0-2.213 2.214Zm.886-3.925h.001Zm5.024.438a2.596 2.596 0 1 1 2.885 4.317 2.596 2.596 0 0 1-2.885-4.317Zm.556 3.486a1.596 1.596 0 1 0 1.773-2.655 1.596 1.596 0 0 0-1.773 2.655ZM8.43 45.66a2.596 2.596 0 1 1 2.883 4.317 2.596 2.596 0 0 1-2.883-4.317Zm.555 3.487a1.596 1.596 0 1 0 1.772-2.656 1.596 1.596 0 0 0-1.772 2.656Zm5.91-3.487a2.596 2.596 0 1 1 2.884 4.318 2.596 2.596 0 0 1-2.883-4.318Zm.556 3.487a1.598 1.598 0 0 0 2.213-2.214 1.597 1.597 0 1 0-2.213 2.214Zm5.91-3.486a2.596 2.596 0 1 1 2.885 4.317 2.596 2.596 0 0 1-2.885-4.317Zm.556 3.485a1.596 1.596 0 1 0 1.773-2.655 1.596 1.596 0 0 0-1.773 2.655ZM8.43 70.445a2.596 2.596 0 1 1 2.883 4.316 2.596 2.596 0 0 1-2.883-4.317Zm.555 3.486a1.596 1.596 0 1 0 1.772-2.655 1.596 1.596 0 0 0-1.772 2.655Zm5.91-3.487a2.596 2.596 0 1 1 2.884 4.318 2.596 2.596 0 0 1-2.883-4.318Zm.556 3.487a1.598 1.598 0 0 0 2.213-2.214 1.597 1.597 0 1 0-2.213 2.214Zm5.91-3.486a2.596 2.596 0 1 1 2.885 4.317 2.596 2.596 0 0 1-2.885-4.317Zm.556 3.485a1.596 1.596 0 1 0 1.773-2.655 1.596 1.596 0 0 0-1.773 2.655Z"/>
</svg>
