<svg id="icon-products-sip-voice-calling" viewBox="0 0 96 96" xmlns="http://www.w3.org/2000/svg">
  <path fill-rule="evenodd" d="M83.27 52.354a25.75 25.75 0 0 0-5.563-8.745.646.646 0 0 0-.704-.155l-3.445 1.349c-3.338-3.512-5.38-10.926-6.232-14.634h6.844a8.14 8.14 0 0 0 .112-16.278h-.218c-.499 0-.996.046-1.486.137a12.787 12.787 0 0 0-24.556-3.721 10.08 10.08 0 0 0-12.569 10.988H22.255v19.213h-8.918a.65.65 0 0 0-.65.65v51.794a.65.65 0 0 0 .65.65h17.35l.01.003H52.12l.01-.002h17.583a.65.65 0 0 0 .65-.65V53.597a49.956 49.956 0 0 0 5.555 5.54.65.65 0 0 0 .87-.026l6.325-6.056a.65.65 0 0 0 .156-.702v.001ZM37.11 17.33a8.792 8.792 0 0 1 11.1-5.613.65.65 0 0 0 .816-.398 11.486 11.486 0 0 1 22.297 3.537.651.651 0 0 0 .83.605 6.892 6.892 0 0 1 1.91-.27h.2a6.84 6.84 0 0 1-.104 13.678h-7.12l-.072-.35 4.662-1.404a.65.65 0 0 0 .462-.626c-.044-6.965-1.536-10.054-1.6-10.182a.65.65 0 0 0-.556-.36l-7.876-.315a.626.626 0 0 0-.628.407 29.198 29.198 0 0 0-1.825 12.83H45.46a8.778 8.778 0 0 1-8.408-6.273h11.993a2.268 2.268 0 0 1-.123-1.3H36.77a8.727 8.727 0 0 1 .341-3.966Zm-13.556 5.266h12.143c.18.703.436 1.384.761 2.033a10.103 10.103 0 0 0 9 5.54h14.258c.046.46.1.91.16 1.35h-4.23a.65.65 0 0 0-.65.651v3.843h-3.17a.65.65 0 0 0-.65.65v3.845h-2.887a.65.65 0 0 0-.65.65v10.81H35.406v-10.81a.65.65 0 0 0-.65-.65h-11.2l-.003-17.912Zm3.17 69.706h-5.102v-9.69h5.102v9.69Zm3.45-40.052a.634.634 0 0 0-.128.368v.099h-3.79v-3.266h3.918v2.799Zm.65-4.1h-5.218a.651.651 0 0 0-.65.651v4.566a.65.65 0 0 0 .65.65h4.44v4.281h-4.595a.65.65 0 0 0-.65.65v4.566a.65.65 0 0 0 .65.65h4.595v3.604H25.45a.65.65 0 0 0-.65.65v4.566a.65.65 0 0 0 .65.65h4.595v18.668h-2.023v-10.34a.65.65 0 0 0-.65-.65h-6.402a.65.65 0 0 0-.65.65v10.34h-6.336V41.809h20.12v10.16h-2.63V48.8a.65.65 0 0 0-.65-.65h-.002Zm-.805 11.45v3.265h-3.916V59.6h3.916Zm0 9.47v3.264h-3.916V69.07h3.916Zm14.066 23.235H38.98v-9.69h5.103v9.69Zm7.383-.002h-5.5l-.009.002h-.575v-10.34a.65.65 0 0 0-.65-.65h-6.403a.65.65 0 0 0-.65.65v10.34h-.59l-.01-.002h-5.735V53.736a.633.633 0 0 0 .13-.368v-.1h19.992v39.035Zm9.96 0h-5.1v-9.69h5.101v9.69Zm7.635 0h-6.334v-10.34a.65.65 0 0 0-.65-.65h-6.4a.65.65 0 0 0-.65.65v10.34h-2.26v-21.37h4.83a.65.65 0 0 0 .65-.65v-4.566a.65.65 0 0 0-.65-.65h-4.83V60.11h4.83a.65.65 0 0 0 .65-.65v-4.566a.65.65 0 0 0-.65-.65h-4.83v-1.627a.65.65 0 0 0-.65-.65h-3.178v-10.16h2.886a.65.65 0 0 0 .65-.65v-3.844h3.16l.01.002a.65.65 0 0 0 .65-.65V32.82h3.78a38.13 38.13 0 0 0 2.017 7.474 49.67 49.67 0 0 0 1.816 3.803h-3.894a.65.65 0 0 0-.65.65v4.566a.65.65 0 0 0 .65.65h5.217a.65.65 0 0 0 .65-.65v-1.776a50.632 50.632 0 0 0 3.18 4.486v40.28ZM53.029 69.632v-3.266h3.918v3.266H53.03Zm0-10.822v-3.265h3.918v3.265H53.03Zm11.553-13.411v3.264h-3.917V45.4l3.917-.001Zm11.73 12.366a49.11 49.11 0 0 1-13.02-17.969c-.05-.12-4.88-12.128-.82-22.846l6.997.279a26.807 26.807 0 0 1 1.319 8.783l-4.755 1.433a.65.65 0 0 0-.454.734c.094.53 2.339 13.016 7.369 17.854a.651.651 0 0 0 .688.136l3.433-1.344a24.43 24.43 0 0 1 4.83 7.593l-5.587 5.347ZM35.026 73.431h5.218a.65.65 0 0 0 .65-.65v-4.567a.651.651 0 0 0-.65-.65h-5.218a.65.65 0 0 0-.65.65v4.567a.65.65 0 0 0 .65.65Zm.65-4.566h3.918v3.265h-3.918v-3.265Zm6.657 4.566h5.46a.65.65 0 0 0 .65-.65v-4.567a.651.651 0 0 0-.65-.65h-5.46a.65.65 0 0 0-.65.65v4.567a.65.65 0 0 0 .65.65Zm.65-4.566h4.16v3.265h-4.16v-3.265Zm-7.957-4.562h5.218a.65.65 0 0 0 .65-.65v-4.566a.65.65 0 0 0-.65-.65h-5.218a.65.65 0 0 0-.65.65v4.566a.65.65 0 0 0 .65.65Zm.65-4.565h3.918v3.264h-3.918v-3.264Zm6.657 4.565h5.46a.65.65 0 0 0 .65-.65v-4.566a.65.65 0 0 0-.65-.65h-5.46a.65.65 0 0 0-.65.65v4.566a.65.65 0 0 0 .65.65Zm.65-4.565h4.16v3.264h-4.16v-3.264Zm-20.1 8.03h-5.217a.65.65 0 0 0-.65.65v4.566a.65.65 0 0 0 .65.65h5.218a.65.65 0 0 0 .65-.65v-4.566a.65.65 0 0 0-.65-.65Zm-.65 4.565h-3.917V69.07h3.918v3.263Zm.65-14.035h-5.217a.65.65 0 0 0-.65.65v4.566a.65.65 0 0 0 .65.65h5.218a.65.65 0 0 0 .65-.65v-4.565a.65.65 0 0 0-.65-.65v-.001Zm-.65 4.566h-3.917v-3.265h3.918v3.265Zm.805-14.714h-5.218a.65.65 0 0 0-.65.651v4.566a.65.65 0 0 0 .65.65h5.218a.65.65 0 0 0 .65-.65v-4.566a.65.65 0 0 0-.65-.65v-.001Zm-.65 4.567h-3.918v-3.266h3.918v3.266Zm43 12.349H60.17a.65.65 0 0 0-.65.65v4.567a.65.65 0 0 0 .65.65h5.218a.65.65 0 0 0 .65-.65v-4.567a.65.65 0 0 0-.65-.65h-.001Zm-.65 4.566H60.82v-3.266h3.918l-.001 3.266Zm.65-15.388H60.17a.65.65 0 0 0-.65.65v4.566a.65.65 0 0 0 .65.65h5.218a.65.65 0 0 0 .65-.65v-4.565a.65.65 0 0 0-.65-.65l-.001-.001Zm-.65 4.566H60.82v-3.265h3.918l-.001 3.265Zm-7.293-14.712h-5.217a.65.65 0 0 0-.65.65v4.566a.65.65 0 0 0 .65.65h5.217a.65.65 0 0 0 .65-.65v-4.566a.65.65 0 0 0-.65-.65Zm-.65 4.565h-3.917V45.4h3.917v3.263ZM52.41 23.455c-.34.227-.742.349-1.151.349h-.002a2.076 2.076 0 0 1-2.072-2.073 2.073 2.073 0 1 1 3.225 1.724Zm-.723-2.365a.772.772 0 0 0-.428-.131h-.002a.773.773 0 1 0 .43.13Z"/>
</svg>
