<svg id="icon-products-system-integrators" viewBox="0 0 96 96" xmlns="http://www.w3.org/2000/svg">
  <path fill-rule="evenodd" d="M82.671 75a7.312 7.312 0 0 1 3.56-.93 7.315 7.315 0 1 1-6.77 4.549.634.634 0 0 1-.241-.07L60.977 67.256l-.105.16c-.161.249-.322.496-.5.73l2.469 6.253a.65.65 0 0 1-.29.807l-8.45 4.687a.648.648 0 0 1-.84-.183l-4.032-5.466a15.38 15.38 0 0 1-3.291-.097l-4.203 5.277a.65.65 0 0 1-.843.152l-8.274-4.99a.65.65 0 0 1-.26-.817l2.784-6.352a15.667 15.667 0 0 1-.58-.948l-17.96 12.066a.615.615 0 0 1-.082.04 7.207 7.207 0 1 1-.606-1.142l18.045-12.124a16.133 16.133 0 0 1-.475-1.137l-6.547-.99a.65.65 0 0 1-.553-.656l.196-9.664a.65.65 0 0 1 .579-.633l7.214-.796c.36-.67.768-1.311 1.223-1.92l-2.537-6.427a.649.649 0 0 1 .29-.807l8.45-4.685a.647.647 0 0 1 .839.183l4.104 5.56c.087-.007.174-.009.261-.01.066-.001.131-.003.197-.006l-.06-21.431a7.39 7.39 0 1 1 1.3.005l.059 21.409c.398.013.796.03 1.192.073l4.382-5.5a.65.65 0 0 1 .844-.151l8.273 4.988a.65.65 0 0 1 .26.817l-2.766 6.319c.324.458.623.933.896 1.423l.004.005c.244.45.467.912.667 1.382l6.804 1.03a.65.65 0 0 1 .553.655l-.196 9.66a.65.65 0 0 1-.578.634l-6.795.747a7.89 7.89 0 0 1-.27.511l-.13.239 18.267 11.309c.04.03.077.065.11.104A7.311 7.311 0 0 1 82.67 75ZM6.425 86.39a6.017 6.017 0 0 0 3.343 1.015 6.024 6.024 0 0 0 6.017-6.017 6.017 6.017 0 1 0-9.36 5.003Zm35.369-71.293a6.016 6.016 0 1 0 11.992-.974 6.016 6.016 0 0 0-11.992.974Zm17.329 52.54a14.214 14.214 0 0 0 1.883-3.117.648.648 0 0 1 .524-.385l6.594-.727.172-8.518-6.604-1a.647.647 0 0 1-.307-.134.051.051 0 0 1-.012-.015c-.003-.006-.006-.011-.011-.015a.642.642 0 0 1-.177-.24 14.832 14.832 0 0 0-.742-1.584c-.307-.55-.65-1.078-1.026-1.583a.65.65 0 0 1-.073-.65l2.687-6.137-7.297-4.398-4.252 5.337a.649.649 0 0 1-.595.24 13.995 13.995 0 0 0-3.381-.046.662.662 0 0 1-.592-.261l-3.983-5.396-7.453 4.132 2.462 6.237a.65.65 0 0 1-.093.639c-.568.723-1.063 1.5-1.48 2.32a.65.65 0 0 1-.508.353l-6.99.77-.173 8.523 6.367.963a.652.652 0 0 1 .518.433 14.37 14.37 0 0 0 1.017 2.295c.248.447.52.881.815 1.3a.65.65 0 0 1 .064.634l-2.7 6.16 7.297 4.4 4.08-5.124a.623.623 0 0 1 .157-.115.612.612 0 0 1 .21-.096.634.634 0 0 1 .246-.025 14.1 14.1 0 0 0 3.703.11.65.65 0 0 1 .589.261l3.91 5.3 7.453-4.132-2.395-6.066a.649.649 0 0 1 .096-.642Zm23.766 18.754a6.017 6.017 0 0 0 3.343 1.015 6.024 6.024 0 0 0 6.018-6.017 6.017 6.017 0 1 0-9.361 5.002ZM43.962 52.7A7.269 7.269 0 0 1 48 51.474a7.276 7.276 0 0 1 7.27 7.268 7.269 7.269 0 1 1-11.308-6.043Zm.723 11.004a5.968 5.968 0 1 0 6.634-9.921 5.968 5.968 0 0 0-6.634 9.921Z"/>
</svg>
