<svg id="icon-places-government" viewBox="0 0 96 96" xmlns="http://www.w3.org/2000/svg">
  <path fill-rule="evenodd" d="M23.642 56.214H73.01a2.961 2.961 0 0 1 2.958 2.958v18.815a2.96 2.96 0 0 1-2.958 2.958H23.642a2.961 2.961 0 0 1-2.958-2.958V59.172a2.961 2.961 0 0 1 2.958-2.958Zm50.54 22.945c.31-.31.485-.732.486-1.172V59.172a1.66 1.66 0 0 0-1.658-1.658H23.642a1.66 1.66 0 0 0-1.658 1.658v18.815a1.66 1.66 0 0 0 1.658 1.658H73.01c.44 0 .86-.175 1.171-.486Zm-51.09-26.84a2.459 2.459 0 0 1-2.416-2.773 27.508 27.508 0 0 1 20.218-23.07V24.93a2.166 2.166 0 0 1 2.164-2.163h2.602l1.994-20.04h.838l1.997 20.04h2.662a2.104 2.104 0 0 1 2.102 2.102v1.608a27.49 27.49 0 0 1 20.24 23.152 2.385 2.385 0 0 1-2.355 2.691H23.092Zm19.102-24.832-.492.123a26.217 26.217 0 0 0-19.737 22.105 1.157 1.157 0 0 0 1.06 1.3c.021 0 .045.001.077.004h50.034a1.085 1.085 0 0 0 1.069-1.219 26.205 26.205 0 0 0-19.76-22.19l-.493-.122v-2.62a.803.803 0 0 0-.802-.802H43.058a.864.864 0 0 0-.864.863v2.558ZM19.438 84.523h57.124a2.748 2.748 0 0 1 2.745 2.745v3.172a2.748 2.748 0 0 1-2.745 2.745H19.438a2.748 2.748 0 0 1-2.745-2.745v-3.172a2.748 2.748 0 0 1 2.745-2.745Zm58.146 6.939c.27-.271.423-.639.423-1.022v-3.172a1.447 1.447 0 0 0-1.445-1.445H19.438a1.447 1.447 0 0 0-1.445 1.445v3.172a1.447 1.447 0 0 0 1.445 1.446h57.124c.384 0 .751-.153 1.022-.424ZM28.518 76.98h-5.046v-16.8h5.046v16.8Zm-1.3-15.5h-2.446v14.2h2.446v-14.2Zm10.232 15.5h-5.046v-16.8h5.046v16.8Zm-1.3-15.5h-2.446v14.2h2.446v-14.2Zm10.232 15.5h-5.046v-16.8h5.046v16.8Zm-1.299-15.5h-2.447v14.2h2.447v-14.2Zm10.231 15.5H50.27l.001-16.8h5.044v16.8Zm-1.299-15.5H51.57v14.2h2.446v-14.2Zm10.232 15.5h-5.046v-16.8h5.046v16.8Zm-1.3-15.5h-2.446v14.2h2.446v-14.2Zm10.233 15.5h-5.046v-16.8h5.046v16.8Zm-1.3-15.5h-2.446v14.2h2.446v-14.2Z"/>
</svg>
