<svg id="icon-products-total-solution" viewBox="0 0 96 96" xmlns="http://www.w3.org/2000/svg">
  <path fill-rule="evenodd" d="M80.526 51.8c.14-1.207.215-2.42.223-3.636v-.006a33.372 33.372 0 0 0-.25-3.964l12.16-9.286a.65.65 0 0 0 .168-.84L82.433 16.011a.652.652 0 0 0-.812-.277L67.227 21.69a32.62 32.62 0 0 0-6.106-3.493L59.137 3.011a.65.65 0 0 0-.645-.567h-20.83a.65.65 0 0 0-.645.567l-1.984 15.187a32.734 32.734 0 0 0-4.936 2.678l-14.8-6.193a.648.648 0 0 0-.812.273L4.02 32.97a.649.649 0 0 0 .166.84l11.668 8.984a32.9 32.9 0 0 0-.448 5.362c0 1.045.051 2.106.152 3.158L3.34 60.64a.65.65 0 0 0-.168.84l10.393 18.056a.65.65 0 0 0 .813.277l13.834-5.724a32.617 32.617 0 0 0 6.69 3.97l1.95 14.931a.65.65 0 0 0 .644.567h20.832a.65.65 0 0 0 .644-.567l1.934-14.79a32.65 32.65 0 0 0 6.616-3.804l13.987 5.844a.65.65 0 0 0 .814-.273l10.463-18.014a.649.649 0 0 0-.166-.84L80.526 51.8Zm.959 27.022-13.805-5.77a.646.646 0 0 0-.645.082 31.348 31.348 0 0 1-6.973 4.01.65.65 0 0 0-.396.516l-1.908 14.595H38.066l-1.922-14.73a.651.651 0 0 0-.389-.514 31.343 31.343 0 0 1-7.04-4.179.65.65 0 0 0-.65-.09l-13.658 5.65-9.823-17.066 12.053-9.199a.65.65 0 0 0 .253-.586 31.96 31.96 0 0 1-.184-3.384c.004-1.852.17-3.7.497-5.523a.649.649 0 0 0-.244-.63L5.432 33.129l9.89-17.026 14.596 6.107a.646.646 0 0 0 .614-.06 31.4 31.4 0 0 1 5.35-2.902.65.65 0 0 0 .393-.515L38.23 3.745h19.69l1.956 14.988a.65.65 0 0 0 .392.515 31.33 31.33 0 0 1 6.48 3.705.648.648 0 0 0 .636.08l14.206-5.879 9.825 17.068-12.002 9.167a.65.65 0 0 0-.25.603c.37 2.659.379 5.355.028 8.016a.65.65 0 0 0 .249.597l11.933 9.19-9.89 17.027ZM70.11 40.517a.65.65 0 0 0-.43.812 22.692 22.692 0 1 1-5.42-9.134.65.65 0 1 0 .932-.906 23.994 23.994 0 1 0 5.73 9.657.652.652 0 0 0-.812-.43v.001Zm-35.474 6.134 11.106 12.225L72.506 29.24l.965.871-27.726 30.701-12.071-13.286.962-.875Z"/>\
</svg>
