<svg id="icon-products-wifi" viewBox="0 0 96 96" xmlns="http://www.w3.org/2000/svg">
  <path fill-rule="evenodd" d="M92.386 28.882C86.223 23.486 69.561 10.936 48 10.936c-21.595 0-38.229 12.55-44.37 17.94l-.104.093a3.448 3.448 0 0 0-.136 4.867l3.84 4.061a3.443 3.443 0 0 0 4.738.25 58.272 58.272 0 0 1 35.77-14.325c.184-.018.369-.017.552.002a58.209 58.209 0 0 1 35.743 14.328 3.44 3.44 0 0 0 4.73-.255l3.84-4.061.087-.096a3.442 3.442 0 0 0-.304-4.858Zm-.672 4-3.895 4.122a2.136 2.136 0 0 1-2.936.164 59.478 59.478 0 0 0-36.503-14.64 3.72 3.72 0 0 0-.732-.003 59.54 59.54 0 0 0-36.53 14.637 2.14 2.14 0 0 1-2.943-.157l-3.84-4.062a2.162 2.162 0 0 1 .145-3.084C10.518 24.561 26.846 12.236 48 12.236c21.12 0 37.477 12.326 43.528 17.622a2.14 2.14 0 0 1 .186 3.024ZM48 32.926c-16.588 0-29.29 10.34-32.826 13.543a2.045 2.045 0 0 0-.072 2.888l3.636 3.848a2.05 2.05 0 0 0 2.853.113A42.156 42.156 0 0 1 47.94 42.611a.7.7 0 0 1 .168.006A42.065 42.065 0 0 1 74.4 53.32a2.047 2.047 0 0 0 2.85-.118l3.635-3.845.03-.03a2.045 2.045 0 0 0-.127-2.892c-3.5-3.17-16.215-13.51-32.788-13.51v.001Zm31.952 15.527-.01.012-3.633 3.842a.753.753 0 0 1-1.043.045 43.3 43.3 0 0 0-27.04-11.028 1.81 1.81 0 0 0-.244-.017.946.946 0 0 0-.163.011 43.394 43.394 0 0 0-27.094 11.03.75.75 0 0 1-1.044-.038l-3.635-3.847a.751.751 0 0 1 .037-1.065c3.412-3.09 15.795-13.17 31.917-13.17 16.11 0 28.502 10.081 31.913 13.168a.748.748 0 0 1 .04 1.057ZM24.825 60.066c2.45-2.26 11.358-9.63 23.164-9.63h-.001c11.83 0 20.725 7.371 23.17 9.631a1.408 1.408 0 0 1 .085 1.986l-.012.012-2.84 3.003a1.404 1.404 0 0 1-1.954.077 29.15 29.15 0 0 0-18.374-7.555c-.01.003-.059.002-.098 0H47.913a29.177 29.177 0 0 0-18.363 7.551 1.405 1.405 0 0 1-1.955-.067l-2.844-3.008a1.41 1.41 0 0 1 .063-1.99l.01-.01Zm42.628 4.105 2.834-2.998h-.001a.545.545 0 0 1 .04-.039.194.194 0 0 0-.048-.109c-2.36-2.18-10.932-9.29-22.29-9.29-11.336 0-19.922 7.11-22.283 9.287l-.003.003a.107.107 0 0 0-.004.15l2.837 3.001a.106.106 0 0 0 .144 0 30.476 30.476 0 0 1 19.18-7.885c.104-.012.21-.01.315.005a30.396 30.396 0 0 1 19.134 7.884.106.106 0 0 0 .145-.009Zm-23.726 6.84a7.673 7.673 0 0 1 4.263-1.293 7.682 7.682 0 0 1 7.673 7.673 7.672 7.672 0 1 1-11.936-6.38Zm.722 11.678a6.373 6.373 0 0 0 3.54 1.075h.002a6.38 6.38 0 0 0 6.373-6.373 6.373 6.373 0 1 0-9.915 5.298Z"/>
</svg>
