<svg id="icon-products-threat-detect" viewBox="0 0 96 96" xmlns="http://www.w3.org/2000/svg">
  <path fill-rule="evenodd" d="M59.757 14.975a28.186 28.186 0 0 1 4.75 15.659A28.218 28.218 0 0 1 36.32 58.819a28.186 28.186 0 1 1 23.436-43.845ZM21.384 52.987a26.885 26.885 0 0 0 14.937 4.531 26.915 26.915 0 0 0 26.886-26.885 26.885 26.885 0 1 0-41.822 22.354Zm9.58-31.926V22.6h1.3v-1.538c0-1.906 2.041-3.186 3.95-3.186 1.906 0 3.95 1.28 3.95 3.186V22.6h1.3v-1.538a4.05 4.05 0 0 0-1.459-3.094l2.937-6.61-1.188-.527-2.843 6.4a5.888 5.888 0 0 0-5.392-.003l-2.843-6.397-1.188.527 2.936 6.607a4.049 4.049 0 0 0-1.46 3.097ZM45.304 31.33v-1.485a124.6 124.6 0 0 1-.024-1.543l2.998-2.248 1.593-5.575-1.25-.358-1.473 5.155-2.166 1.624-1.474-1.853a4.104 4.104 0 0 0-3.229-1.607h-8.133a4.099 4.099 0 0 0-3.215 1.6l-1.482 1.864-2.17-1.628-1.473-5.155-1.25.358 1.593 5.575 3.005 2.253c-.006.585-.015 1.464-.015 1.572v1.445l-4.489 1.497-1.627 5.696 1.25.357 1.44-5.037 3.427-1.144v3.286a9.126 9.126 0 0 0 .174 2.258l-3.198 2.398-.81 4.857 1.283.213.723-4.342 2.375-1.78a9.098 9.098 0 0 0 8.54 5.953 9.112 9.112 0 0 0 8.522-5.945l2.365 1.772.723 4.342 1.282-.213-.808-4.857-3.187-2.389c.094-.442.154-.89.18-1.34a8.28 8.28 0 0 0 0-.894v-3.313l3.41 1.138 1.44 5.037 1.25-.357-1.627-5.696-4.473-1.491Zm-1.298 5.509a7.8 7.8 0 0 1-7.249 7.373V29.2a.649.649 0 1 0-1.3 0v14.987a7.777 7.777 0 0 1-7.018-8.177v-6.133c0-.132.014-1.47.019-1.932l.001-.156v-.07l1.496-1.88a2.803 2.803 0 0 1 2.198-1.1h8.12a2.813 2.813 0 0 1 2.212 1.107l1.49 1.874v.078s.021 1.947.03 2.079v6.167c.014.264.014.529 0 .793l.001.001Zm42.847 48.528-24.91-31.038a4.597 4.597 0 0 0-6.462-.707l-.89.714a4.597 4.597 0 0 0-.708 6.462l24.91 31.039a4.602 4.602 0 0 0 6.462.707l.89-.714a4.603 4.603 0 0 0 .708-6.463Zm-1.52 5.45-.89.713a3.298 3.298 0 0 1-4.636-.508l-24.91-31.039a3.296 3.296 0 0 1 .507-4.633l.89-.714a3.296 3.296 0 0 1 4.635.508L85.84 86.18a3.301 3.301 0 0 1-.507 4.634v.002Z"/>
</svg>
