<svg id="icon-products-big-data-apps-and-services" viewBox="0 0 96 96" xmlns="http://www.w3.org/2000/svg">
  <path fill-rule="evenodd" d="M48.65 36.081V39.355a3.857 3.857 0 0 1-.654 7.66h-.007a3.856 3.856 0 0 1-.64-7.66v-3.273h-7.516v.22a5.587 5.587 0 0 1-5.58 5.58h-8.19a4.283 4.283 0 0 0-4.279 4.278v5.068H40.65a2.308 2.308 0 0 1 2.313 2.228l.205 5.317v3.597a2.32 2.32 0 0 1-2.317 2.316H6.19a2.315 2.315 0 0 1-2.318-2.317v-8.824a2.32 2.32 0 0 1 2.316-2.317h14.294v-5.066a5.587 5.587 0 0 1 5.58-5.58h8.191a4.285 4.285 0 0 0 4.28-4.28v-.22h-6.867a12.234 12.234 0 1 1 3.225-24.037 15.535 15.535 0 0 1 29.897 4.563 9.835 9.835 0 1 1 1.953 19.474h-9.398v.22a4.285 4.285 0 0 0 4.28 4.28h8.192a5.578 5.578 0 0 1 5.578 5.578v5.067h14.22a2.31 2.31 0 0 1 2.314 2.229l.202 5.316v3.597a2.32 2.32 0 0 1-2.317 2.316h-34.66a2.317 2.317 0 0 1-2.317-2.317v-8.824a2.314 2.314 0 0 1 2.316-2.317h18.941v-5.068a4.279 4.279 0 0 0-4.278-4.278h-8.19a5.589 5.589 0 0 1-5.582-5.58v-.22H48.65Zm41.668 16.73a1.014 1.014 0 0 0-.705-.284H55.151a1.014 1.014 0 0 0-1.015 1.015v8.827a1.013 1.013 0 0 0 1.014 1.016h34.662a1.017 1.017 0 0 0 1.016-1.016v-3.573l-.2-5.292a1.014 1.014 0 0 0-.31-.694Zm-48.963 0a1.013 1.013 0 0 0-.706-.284H21.145l-.012.002-.012-.002H6.187a1.017 1.017 0 0 0-1.016 1.015v8.827a1.015 1.015 0 0 0 1.014 1.016H40.85a1.019 1.019 0 0 0 1.017-1.016v-3.573l-.203-5.291a1.013 1.013 0 0 0-.31-.695Zm15.338-24.075.013.003h.001a2.603 2.603 0 1 0-.03 0l.016-.003Zm-17.51 0 .015.003a2.552 2.552 0 1 0-.029 0l.014-.003Zm.651 1.238v4.807h16.21v-4.807a3.865 3.865 0 1 1 1.3 0v4.808h9.397a8.535 8.535 0 1 0 0-17.07v-.001c-.805 0-1.606.115-2.38.339a.65.65 0 0 1-.83-.607 14.234 14.234 0 0 0-27.634-4.384.65.65 0 0 1-.815.4 10.937 10.937 0 1 0-3.416 21.322h6.867v-4.807a3.862 3.862 0 1 1 1.301 0Zm10.528 14.16a2.56 2.56 0 0 0-.553-2.792A2.563 2.563 0 0 0 48 40.59h-.004a2.563 2.563 0 0 0-.003 5.125h.004a2.56 2.56 0 0 0 2.366-1.58ZM7.709 56.548a1.7 1.7 0 1 1 1.889 2.826 1.7 1.7 0 0 1-1.89-2.826Zm.555 1.995a.7.7 0 1 0 .778-1.163.7.7 0 0 0-.778 1.163Zm3.146-1.995a1.7 1.7 0 1 1 1.889 2.827 1.7 1.7 0 0 1-1.89-2.828Zm.555 1.995a.7.7 0 1 0 .778-1.162.7.7 0 0 0-.778 1.162Zm3.146-1.995A1.7 1.7 0 1 1 17 59.373a1.7 1.7 0 0 1-1.89-2.828Zm.555 1.995a.7.7 0 1 0 .778-1.162.7.7 0 0 0-.778 1.162Zm26.591 7.831c.431.416.684.983.705 1.582l.205 5.317v3.598a2.32 2.32 0 0 1-2.317 2.316H6.188a2.32 2.32 0 0 1-2.317-2.316v-8.826a2.321 2.321 0 0 1 2.316-2.316H40.65c.6-.002 1.175.23 1.607.645Zm-.688 11.215c.19-.19.298-.448.298-.718v-3.573l-.203-5.293a1.012 1.012 0 0 0-1.014-.976H6.187a1.017 1.017 0 0 0-1.016 1.015v8.827a1.018 1.018 0 0 0 1.017 1.016H40.85c.27 0 .528-.107.719-.298ZM8.653 70.756a1.7 1.7 0 1 0 0 3.4 1.7 1.7 0 0 0 0-3.4Zm0 2.4a.7.7 0 1 1 0-1.4.7.7 0 0 1 0 1.4Zm3.701-2.4a1.7 1.7 0 1 0 0 3.4 1.7 1.7 0 0 0 0-3.4Zm0 2.4a.7.7 0 1 1 0-1.4.7.7 0 0 1 0 1.4Zm3.701-2.4a1.7 1.7 0 1 0 0 3.4 1.7 1.7 0 0 0 0-3.4Zm0 2.4a.7.7 0 1 1 0-1.4.7.7 0 0 1 0 1.4Zm26.907 9.296a2.31 2.31 0 0 0-2.313-2.227H6.187a2.32 2.32 0 0 0-2.316 2.317v8.824a2.315 2.315 0 0 0 2.314 2.317H40.85a2.32 2.32 0 0 0 2.317-2.317V87.77l-.205-5.318Zm-1.095 8.914a1.018 1.018 0 0 1-1.017 1.017H6.185a1.013 1.013 0 0 1-1.014-1.017V82.54a1.017 1.017 0 0 1 1.016-1.016H40.65a1.014 1.014 0 0 1 1.015.978l.203 5.292v3.572ZM7.71 85.538a1.7 1.7 0 1 1 1.889 2.827 1.7 1.7 0 0 1-1.89-2.826Zm.555 1.996a.7.7 0 1 0 .778-1.163.7.7 0 0 0-.778 1.163Zm3.146-1.996a1.7 1.7 0 1 1 1.888 2.827 1.7 1.7 0 0 1-1.888-2.826Zm.555 1.996a.7.7 0 1 0 .778-1.163.7.7 0 0 0-.778 1.163Zm3.146-1.996a1.7 1.7 0 1 1 1.888 2.827 1.7 1.7 0 0 1-1.888-2.826Zm.555 1.996a.7.7 0 1 0 .778-1.163.7.7 0 0 0-.778 1.163Zm42.897-28.16a1.7 1.7 0 1 1-1.89-2.827 1.7 1.7 0 0 1 1.89 2.827Zm-.556-1.996a.7.7 0 1 0-.778 1.164.7.7 0 0 0 .778-1.164Zm4.257 1.995a1.7 1.7 0 1 1-1.89-2.826 1.7 1.7 0 0 1 1.89 2.827Zm-.556-1.995a.7.7 0 1 0-.778 1.164.7.7 0 0 0 .778-1.164Zm4.257 1.995a1.7 1.7 0 1 1-1.89-2.827 1.7 1.7 0 0 1 1.89 2.828Zm-.556-1.995a.7.7 0 1 0-.778 1.164.7.7 0 0 0 .778-1.164Zm25.813 8.995c.431.416.684.983.705 1.582l.201 5.318v3.597a2.32 2.32 0 0 1-2.317 2.316h-34.66a2.319 2.319 0 0 1-2.317-2.316v-8.826a2.316 2.316 0 0 1 2.316-2.316h34.464c.6-.002 1.176.23 1.608.645Zm-.69 11.215c.19-.19.298-.448.298-.718v-3.573l-.2-5.293a1.012 1.012 0 0 0-1.015-.976H55.152a1.014 1.014 0 0 0-1.015 1.015v8.827a1.017 1.017 0 0 0 1.016 1.016h34.66c.27 0 .528-.107.719-.298Zm-32.915-6.832a1.7 1.7 0 1 0 0 3.4 1.7 1.7 0 0 0 0-3.4Zm.001 2.4a.7.7 0 1 1-.002-1.4.7.7 0 0 1 .002 1.4Zm3.701-2.4a1.7 1.7 0 1 0 0 3.4 1.7 1.7 0 0 0 0-3.4Zm0 2.4a.7.7 0 1 1 0-1.4.7.7 0 0 1 0 1.4Zm3.701-2.4a1.7 1.7 0 1 0 0 3.4 1.7 1.7 0 0 0 0-3.4Zm0 2.4a.7.7 0 1 1 0-1.4.7.7 0 0 1 0 1.4Zm26.907 9.297v-.001a2.31 2.31 0 0 0-2.314-2.227H55.15a2.316 2.316 0 0 0-2.316 2.317v8.824a2.314 2.314 0 0 0 2.315 2.317h34.663a2.32 2.32 0 0 0 2.316-2.315v-3.596l-.201-5.319Zm-1.098 8.915a1.017 1.017 0 0 1-1.016 1.015H55.15a1.014 1.014 0 0 1-1.014-1.017V82.54a1.014 1.014 0 0 1 1.015-1.015h34.462a1.015 1.015 0 0 1 1.015.977l.2 5.295.001 3.571Zm-34.156-5.83a1.7 1.7 0 0 1 .945-.286h-.001a1.702 1.702 0 0 1 1.413 2.645 1.7 1.7 0 1 1-2.357-2.359Zm.556 1.996a.7.7 0 1 0 .776-1.165.7.7 0 0 0-.776 1.165Zm3.145-1.996a1.7 1.7 0 1 1 1.89 2.828 1.7 1.7 0 0 1-1.89-2.828Zm.556 1.996a.7.7 0 1 0 .778-1.162.7.7 0 0 0-.778 1.162Zm3.146-1.996a1.7 1.7 0 1 1 1.889 2.828 1.7 1.7 0 0 1-1.89-2.828Zm.555 1.996a.7.7 0 1 0 .778-1.162.7.7 0 0 0-.778 1.162Z"/>
</svg>
