<svg id="icon-business-big-data" viewBox="0 0 96 96" xmlns="http://www.w3.org/2000/svg">
  <path d="m14.555 19.644-.002.011.003 4.714c.152 1.602 2.427 2.679 5.66 2.679 3.326 0 5.754-1.102 5.905-2.74v-7.545c0-.013-.006-.024-.007-.037.002-.029.01-.056.01-.084 0-1.782-2.897-2.713-5.76-2.713-2.911 0-5.86.931-5.86 2.713.001.125.018.25.049.371l.002 2.631Zm5.66 6.104c-2.88 0-4.307-.896-4.361-1.44V22.28a9.031 9.031 0 0 0 4.487.99c1.555.065 3.1-.28 4.48-.998l.002 1.975c-.057.613-1.731 1.501-4.607 1.501h-.001Zm4.608-6.355-.003.015v1.074c-.066.611-1.69 1.488-4.48 1.488-2.801 0-4.433-.887-4.486-1.44v-2.094c1.412.653 2.956.97 4.51.925a9.68 9.68 0 0 0 4.459-.94v.972Zm-4.458-4.164c2.884 0 4.457.933 4.457 1.413 0 .482-1.573 1.42-4.457 1.42-2.613 0-4.27-.781-4.511-1.295v-.004a.627.627 0 0 0-.033-.162c.084-.505 1.786-1.372 4.544-1.372ZM14.58 48.05l.002-.007v-3.767c0-.014-.007-.026-.008-.04 0-.026.008-.051.008-.078 0-1.786-2.897-2.721-5.76-2.721-2.911 0-5.86.935-5.86 2.72 0 .128.018.255.05.378l.003 2.617-.003.016.003 4.713c.152 1.602 2.426 2.68 5.659 2.68 3.326 0 5.753-1.103 5.906-2.741v-3.77Zm-5.757-5.313c2.885 0 4.458.938 4.458 1.42 0 .48-1.573 1.414-4.458 1.414-2.604 0-4.26-.772-4.51-1.284v-.011a.627.627 0 0 0-.033-.164c.093-.508 1.793-1.375 4.543-1.375Zm-.15 10.523c-2.88 0-4.306-.896-4.36-1.44v-2.026a9.032 9.032 0 0 0 4.488.99 8.9 8.9 0 0 0 4.48-.999v1.973c-.056.614-1.731 1.502-4.607 1.502h-.001Zm4.606-6.34v1.077c-.07.612-1.692 1.487-4.478 1.487-2.804 0-4.435-.887-4.488-1.44v-2.095c1.412.651 2.956.967 4.51.922a9.7 9.7 0 0 0 4.46-.938v.967c0 .007-.004.013-.004.02Zm79.757-2.762c0-1.786-2.896-2.721-5.758-2.721-2.913 0-5.862.935-5.862 2.72.001.127.018.253.05.375l.002 2.625-.002.01.003 4.714c.152 1.602 2.426 2.68 5.66 2.68 3.326 0 5.754-1.102 5.905-2.741v-3.77l.002-.007v-3.767c0-.014-.007-.026-.008-.04 0-.026.008-.051.008-.078Zm-5.758-1.421c2.884 0 4.457.938 4.457 1.42 0 .48-1.573 1.414-4.457 1.414-2.61 0-4.266-.774-4.511-1.286v-.01a.629.629 0 0 0-.033-.161c.09-.509 1.79-1.377 4.544-1.377Zm-.15 10.523c-2.88 0-4.307-.896-4.361-1.44v-2.026a9.028 9.028 0 0 0 4.487.99c1.555.065 3.1-.28 4.48-.999l.002 1.974c-.057.614-1.731 1.501-4.607 1.501h-.001Zm4.605-6.34v1.077c-.07.612-1.693 1.487-4.48 1.487-2.801 0-4.433-.887-4.486-1.44v-2.096c1.412.651 2.956.967 4.51.923a9.696 9.696 0 0 0 4.46-.938v.967c0 .007-.004.013-.004.02ZM70.1 19.644l-.002.011.003 4.714c.15 1.602 2.425 2.679 5.66 2.679 3.325 0 5.752-1.102 5.905-2.74v-3.77l.002-.007v-3.768c0-.015-.008-.029-.01-.044.002-.026.009-.05.009-.077 0-1.782-2.896-2.713-5.758-2.713-2.912 0-5.861.931-5.861 2.713.001.126.018.252.05.374l.002 2.628Zm5.66 6.104c-2.881 0-4.308-.896-4.362-1.44V22.28a9.032 9.032 0 0 0 4.488.99c1.555.064 3.1-.28 4.48-.998l.002 1.974c-.057.614-1.732 1.502-4.607 1.502h-.001Zm4.61-6.36c-.001.007-.005.013-.005.02v1.077c-.07.611-1.692 1.485-4.48 1.485-2.801 0-4.433-.886-4.487-1.44v-2.093c1.412.653 2.956.969 4.51.924a9.676 9.676 0 0 0 4.46-.94l.002.967Zm-4.46-4.16c2.883 0 4.456.934 4.456 1.414 0 .482-1.573 1.42-4.457 1.42-2.608 0-4.265-.779-4.51-1.293v-.006a.63.63 0 0 0-.034-.164c.088-.505 1.789-1.37 4.544-1.37v-.001ZM20.365 69.126c-2.912 0-5.861.932-5.861 2.713.001.126.018.25.049.372l.002 2.632-.002.011.003 4.714c.152 1.602 2.426 2.68 5.66 2.68 3.326 0 5.754-1.103 5.905-2.742v-7.545c0-.013-.006-.025-.007-.038.002-.028.01-.055.01-.084 0-1.78-2.897-2.713-5.76-2.713Zm0 1.3c2.884 0 4.457.934 4.457 1.413 0 .482-1.573 1.42-4.457 1.42-2.613 0-4.27-.78-4.511-1.295v-.003a.627.627 0 0 0-.033-.162c.084-.506 1.786-1.373 4.544-1.373Zm-.15 10.521c-2.88 0-4.307-.896-4.361-1.44v-2.028a9.028 9.028 0 0 0 4.487.99c1.555.065 3.1-.28 4.48-.998l.002 1.974c-.057.614-1.731 1.502-4.607 1.502h-.001Zm4.605-6.34v1.074c-.066.611-1.69 1.488-4.48 1.488-2.801 0-4.433-.887-4.486-1.44v-2.095c1.412.653 2.956.97 4.51.925a9.68 9.68 0 0 0 4.459-.94v.973l-.003.015Zm56.847-2.767c0-1.782-2.896-2.714-5.758-2.714-2.912 0-5.861.932-5.861 2.713.001.127.018.253.05.375l.002 2.63-.002.01.003 4.713c.15 1.603 2.425 2.68 5.66 2.68 3.325 0 5.752-1.101 5.905-2.74v-3.77l.002-.008v-3.768c0-.016-.008-.029-.01-.044.002-.026.009-.051.009-.078v.001Zm-5.758-1.414c2.884 0 4.457.934 4.457 1.413 0 .482-1.573 1.42-4.457 1.42-2.608 0-4.265-.778-4.51-1.292v-.006a.63.63 0 0 0-.034-.164c.088-.505 1.789-1.37 4.544-1.37v-.001Zm-.148 10.521c-2.882 0-4.31-.896-4.363-1.44v-2.028a9.028 9.028 0 0 0 4.488.99c1.555.065 3.1-.28 4.48-.998l.002 1.974c-.057.614-1.732 1.502-4.607 1.502Zm4.604-6.34v1.076c-.07.611-1.692 1.486-4.48 1.486-2.801 0-4.433-.887-4.487-1.44v-2.095a10.06 10.06 0 0 0 4.51.925 9.675 9.675 0 0 0 4.46-.94v.968c0 .007-.003.013-.003.02ZM42.243 7.931l-.002.01.003 4.714c.152 1.604 2.425 2.681 5.658 2.681 3.327 0 5.755-1.103 5.907-2.742V5.048c0-.015-.007-.027-.008-.042 0-.025.008-.049.008-.074 0-1.786-2.897-2.72-5.757-2.72-2.913 0-5.863.934-5.863 2.72.001.128.019.256.052.38l.002 2.619Zm5.66 6.105c-2.88 0-4.307-.897-4.361-1.442v-2.027a9.03 9.03 0 0 0 4.486.99 8.904 8.904 0 0 0 4.482-1v1.976c-.057.614-1.73 1.503-4.608 1.503ZM52.51 7.68l-.003.015v1.074c-.067.611-1.69 1.488-4.48 1.488-2.801 0-4.433-.886-4.486-1.44V6.724c1.412.65 2.956.966 4.51.921a9.693 9.693 0 0 0 4.458-.939v.974Zm-4.46-4.167c2.885 0 4.457.938 4.457 1.42 0 .48-1.572 1.413-4.456 1.413-2.601 0-4.256-.77-4.51-1.281v-.016a.625.625 0 0 0-.033-.164c.097-.508 1.795-1.372 4.543-1.372h-.001Zm5.759 79.867c0-1.78-2.897-2.713-5.757-2.713-2.913 0-5.863.932-5.863 2.713.001.129.019.257.052.381l.002 2.622-.002.011.003 4.714c.15 1.603 2.425 2.68 5.658 2.68 3.327 0 5.755-1.102 5.907-2.74V83.5c0-.015-.007-.028-.008-.043 0-.027.008-.051.008-.078v.001Zm-5.757-1.413c2.884 0 4.456.934 4.456 1.413 0 .482-1.572 1.42-4.456 1.42-2.601 0-4.256-.773-4.51-1.287V83.5a.628.628 0 0 0-.034-.167c.094-.506 1.793-1.367 4.544-1.367v.001Zm-.15 10.52c-2.88 0-4.306-.895-4.36-1.44V89.02a9.03 9.03 0 0 0 4.486.99 8.904 8.904 0 0 0 4.482-1v1.976c-.057.614-1.73 1.502-4.608 1.502v-.001Zm4.606-6.34v1.074c-.067.611-1.69 1.488-4.48 1.488-2.801 0-4.433-.886-4.486-1.44v-2.092c1.412.652 2.955.968 4.51.923a9.673 9.673 0 0 0 4.458-.94v.972l-.002.015Zm-4.51-50.098c-6.045 0-10.604 1.979-10.604 4.603.004.26.053.517.144.76a.643.643 0 0 0-.048.237l.002 2.467-.002.01.003 5.987-.003.014.003 5.236c.26 2.743 4.37 4.586 10.224 4.586 6.037 0 10.43-1.886 10.69-4.647V44.6l-.003-.01v-2.94c0-.015-.007-.028-.01-.043.138-.3.21-.625.21-.954 0-2.624-4.56-4.603-10.605-4.603v-.001Zm-.281 22.6c-5.59 0-8.772-1.756-8.926-3.347V52.49c1.75 1.467 5.11 2.405 9.164 2.405 4.048 0 7.403-.937 9.153-2.424v2.769c-.153 1.639-3.79 3.408-9.391 3.408v.001Zm9.389-13.655c-.15 1.71-3.86 3.54-9.152 3.54-5.303 0-9.02-1.833-9.163-3.49v-2.047c1.795 1.371 5.165 2.259 9.208 2.259 3.97 0 7.287-.856 9.106-2.185v1.923Zm-9.152 4.839c3.998 0 7.388-.993 9.153-2.527v2.339l-.001.008v.545c-.16 1.636-3.697 3.399-9.15 3.399-5.47 0-9.017-1.769-9.165-3.348v-2.925c1.766 1.516 5.16 2.509 9.163 2.509ZM48 43.956c-5.483 0-9.305-1.741-9.305-3.304 0-1.563 3.82-3.302 9.305-3.302 5.484 0 9.305 1.74 9.305 3.303S53.483 43.957 48 43.957v-.001Zm.65 30.366v-8.608a.65.65 0 1 0-1.301 0v8.608a.65.65 0 0 0 1.3 0Zm-1.301-52.65v8.607a.65.65 0 0 0 1.3 0v-8.607a.65.65 0 0 0-1.3 0ZM21.023 47.997a.65.65 0 0 0 .65.65h8.608a.65.65 0 1 0 0-1.3h-8.607a.65.65 0 0 0-.65.65h-.001Zm44.694-.65a.65.65 0 1 0 0 1.3h8.607a.65.65 0 0 0 0-1.3h-8.607Zm-4.73 12.719a.65.65 0 1 0-.92.919l6.087 6.086a.65.65 0 0 0 .92-.919l-6.087-6.086ZM29.846 28.923a.65.65 0 0 0-.92.92l6.086 6.086a.65.65 0 1 0 .92-.92l-6.086-6.086Zm30.68 7.197a.649.649 0 0 0 .46-.191l6.088-6.087a.65.65 0 1 0-.92-.919l-6.087 6.087a.65.65 0 0 0 .46 1.11ZM35.013 60.066l-6.086 6.086a.65.65 0 0 0 .92.92l6.086-6.087a.65.65 0 1 0-.92-.919Z"/>
</svg>
