<svg id="icon-products-upload-download" viewBox="0 0 96 96" xmlns="http://www.w3.org/2000/svg">
  <path d="M92.859 53.19H76.412l6.112-6.308a.65.65 0 0 0-.467-1.102h-8.335V18.473a.649.649 0 0 0-.65-.65H58.925a.65.65 0 0 0-.65.65V45.78h-8.327a.65.65 0 0 0-.467 1.102l6.113 6.308h-13.97v-17.5h8.325a.65.65 0 0 0 .466-1.102L34.362 18.021a.667.667 0 0 0-.934 0L17.374 34.588a.65.65 0 0 0 .467 1.103h8.334V53.19H3.16a.65.65 0 0 0-.65.65v23.687a.65.65 0 0 0 .65.65h89.7a.65.65 0 0 0 .65-.65V53.84a.65.65 0 0 0-.65-.65h-.001Zm-41.376-6.11h7.442a.65.65 0 0 0 .65-.65V19.124H72.42V46.43a.65.65 0 0 0 .65.65h7.45L66.004 62.065 51.483 47.08ZM19.376 34.39l14.519-14.983L48.414 34.39h-7.44a.65.65 0 0 0-.651.65v27.307H27.476V35.041a.65.65 0 0 0-.65-.65l-7.45-.001Zm72.832 42.486H3.81V54.491h22.366v8.507a.65.65 0 0 0 .65.65h14.148a.65.65 0 0 0 .65-.65V54.49h15.23l8.684 8.959a.649.649 0 0 0 .933 0l8.68-8.96H92.21l-.001 22.387Z"/>
</svg>
