<svg id="icon-business-business" viewBox="0 0 96 96" xmlns="http://www.w3.org/2000/svg">
  <path d="M87.754 25.237H67.869v-9.653a4.514 4.514 0 0 0-4.508-4.509H32.645a4.513 4.513 0 0 0-4.508 4.509v9.653H8.247a5.285 5.285 0 0 0-5.28 5.28v49.127a5.286 5.286 0 0 0 5.28 5.28h79.507a5.286 5.286 0 0 0 5.28-5.28V30.517a5.286 5.286 0 0 0-5.28-5.28Zm-58.317-9.653a3.212 3.212 0 0 1 3.208-3.209H63.36a3.212 3.212 0 0 1 3.209 3.209v9.653H29.437v-9.653Zm62.297 64.06a3.985 3.985 0 0 1-3.98 3.981H8.246a3.925 3.925 0 0 1-.485-.05l32.916-22.189a.458.458 0 0 1 .637.094l5.076 6.856a1.773 1.773 0 0 0 2.478.343l22.287-18.42-.271 6.233a.649.649 0 0 0 .62.678h.03a.65.65 0 0 0 .649-.621l.382-8.793-.646-.03c-1.862-.09-6.842-.347-7.516-.447a.65.65 0 0 0-.192 1.286c.667.1 4.466.3 6.47.4L48.07 67.654a.46.46 0 0 1-.638-.093l-5.075-6.855a1.757 1.757 0 0 0-2.428-.382L6.216 83.049a3.97 3.97 0 0 1-1.95-3.405V40h87.468v39.644Zm0-40.943H4.266v-8.184a3.985 3.985 0 0 1 3.98-3.98h79.508a3.985 3.985 0 0 1 3.98 3.98v8.184Z"/>
</svg>
