<svg id="icon-platform-connected-security" viewBox="0 0 96 96" xmlns="http://www.w3.org/2000/svg">
  <path fill-rule="evenodd" d="M87.422 52.86h-19.66v-.001a.621.621 0 0 1-.103-.02v2.53a.612.612 0 0 1 .101-.02h8.72a.65.65 0 0 1 .65.65v5.578h12.987a.651.651 0 0 1 .46 1.11.652.652 0 0 1-.46.19H76.481a.65.65 0 0 1-.65-.65v-5.579h-8.07a.633.633 0 0 1-.1-.02v10.014a.639.639 0 0 1 .273-.066h14.713a.65.65 0 1 1 0 1.3H67.934a.641.641 0 0 1-.274-.065v4.376a.65.65 0 0 1-.65.65h-33.4a.65.65 0 0 1-.65-.65v-4.31H23.78a.65.65 0 0 1-.65-.65v-4.64h-9.357a.65.65 0 0 1 0-1.3h10.008a.65.65 0 0 1 .65.65v4.64h8.528v-7.972H9.168a3.43 3.43 0 1 1-.02-1.3h23.811v-4.098a.617.617 0 0 1-.127.026h-9.56a.65.65 0 0 1 0-1.3h9.56a.612.612 0 0 1 .128.025v-3.97c-.008 0-.015.003-.022.005-.009.002-.018.005-.028.005H16.23a.65.65 0 0 1 0-1.3h16.681c.01 0 .018.002.027.005.007.002.014.005.022.005v-5.777a.65.65 0 0 1 .65-.65h3.632v-7.635c.022-.193 1.596-9.483 13.067-9.483 11.473 0 13.046 9.29 13.06 9.384l.007 7.734h3.634a.65.65 0 0 1 .65.65v5.513h14.62a.65.65 0 1 1 0 1.3H67.66v3.836a.601.601 0 0 1 .102-.02h19.66a3.127 3.127 0 1 1 0 1.3Zm4.07-2.168a1.826 1.826 0 1 0-2.03 3.036 1.826 1.826 0 0 0 2.03-3.036Zm-86.855 9.09a2.115 2.115 0 1 0 2.35-3.517 2.115 2.115 0 0 0-2.35 3.517ZM50.31 24.462c-10.042 0-11.636 7.506-11.768 8.239v7.58h23.535v-7.579c-.13-.734-1.725-8.24-11.767-8.24ZM34.26 71.538h32.1l.001-29.958h-3.398a.604.604 0 0 1-.47 0H34.26v29.958ZM48.098 51.84a3.523 3.523 0 0 1 2.212-.778 3.516 3.516 0 0 1 1.61 6.648v4.546a.65.65 0 0 1-.65.65h-1.774a.65.65 0 0 1-.65-.65v-4.467a3.522 3.522 0 0 1-.748-5.949Z"/>
</svg>
