<svg id="icon-products-private-fiber-network" viewBox="0 0 96 96" xmlns="http://www.w3.org/2000/svg">
  <path fill-rule="evenodd" d="M30.057 18.15c.037-2.276 1.924-4.092 4.214-4.055h.001c2.281.028 4.108 1.888 4.08 4.155v.067c-.057 2.262-1.938 4.055-4.214 4.019-2.29-.037-4.118-1.911-4.08-4.187Zm18.333-2.704a29.649 29.649 0 0 1 9.01 1.394c.102-.378.245-.743.425-1.09a30.904 30.904 0 0 0-18.87 0c.18.343.32.706.416 1.081a30 30 0 0 1 9.02-1.385ZM30.225 21.62A30.165 30.165 0 0 0 18.87 40.366a4.798 4.798 0 0 0-.994-.135h-.204a31.37 31.37 0 0 1 11.9-19.625c.178.361.397.702.654 1.013Zm5.321 3.418a.508.508 0 0 0-.508.509v37.4c0 .28.228.508.508.509l25.058.008a.508.508 0 0 0 .509-.508v-37.41a.508.508 0 0 0-.508-.508H35.546Zm.509 37.401V26.054h24.041v36.392l-7.679-.002v-9.775a.508.508 0 0 0-.508-.508h-7.667a.508.508 0 0 0-.509.508v9.772l-7.678-.003ZM52.87 43.953a.508.508 0 0 0-.509.508v4.24c0 .28.228.508.509.508h4.53c.28 0 .508-.228.508-.509v-4.239a.508.508 0 0 0-.508-.508h-4.53Zm.508 4.239v-3.223h3.514v3.223h-3.514Zm-8.046-3.73c0-.282.228-.51.508-.51h4.76c.281 0 .509.229.509.51V48.7c0 .281-.228.509-.509.509h-4.76a.508.508 0 0 1-.508-.509v-4.239Zm1.017.507v3.223h3.743v-3.223h-3.743Zm6.52-8.38a.508.508 0 0 0-.508.509v4.239c0 .28.228.508.509.508h4.53c.28 0 .508-.227.508-.508v-4.24a.508.508 0 0 0-.508-.508h-4.53Zm.509 4.24v-3.223h3.514v3.222h-3.514Zm-8.046-3.731c0-.281.228-.509.508-.509h4.76c.281 0 .509.228.509.509v4.239c0 .28-.228.508-.509.508h-4.76a.508.508 0 0 1-.508-.508v-4.24Zm1.017.508v3.222h3.743v-3.222h-3.743Zm6.52-8.38a.508.508 0 0 0-.508.508v4.24c0 .28.228.508.509.508h4.53c.28 0 .508-.228.508-.509v-4.239a.508.508 0 0 0-.508-.508h-4.53Zm.509 4.239v-3.223h3.514v3.223h-3.514Zm-8.046-3.73c0-.282.228-.51.508-.51h4.76c.281 0 .509.228.509.51v4.238c0 .281-.228.509-.509.509h-4.76a.508.508 0 0 1-.508-.509v-4.239Zm1.017.508v3.222h3.743v-3.223h-3.743Zm-7.597 13.71a.508.508 0 0 0-.509.508v4.24c0 .28.228.508.508.508h4.76c.281 0 .509-.228.509-.509v-4.239a.508.508 0 0 0-.509-.508h-4.76Zm.508 4.239v-3.223h3.743v3.223H39.26Zm-1.017-11.094c0-.281.228-.509.508-.509h4.76c.281 0 .509.228.509.509v4.239c0 .28-.228.508-.509.508h-4.76a.508.508 0 0 1-.508-.508v-4.24Zm1.017.508v3.222h3.743v-3.222H39.26Zm-.508-8.38a.508.508 0 0 0-.509.508v4.24c0 .28.228.508.508.508h4.76c.281 0 .509-.228.509-.509v-4.239a.508.508 0 0 0-.509-.508h-4.76Zm.508 4.239v-3.223h3.743v3.223H39.26Zm5.49 19.712v9.176h6.65v-9.175h-6.65Zm12.444 20.147c0-4.174 3.408-7.564 7.618-7.564 4.21 0 7.618 3.39 7.618 7.564 0 4.175-3.408 7.565-7.618 7.565-4.21 0-7.618-3.39-7.618-7.565Zm7.618-8.58c-4.765 0-8.634 3.838-8.634 8.58 0 4.743 3.869 8.582 8.634 8.582 4.766 0 8.634-3.84 8.634-8.582 0-4.742-3.868-8.58-8.634-8.58Zm-3.797 6.706c0-.281.227-.509.508-.509h.486v-1.18c0-.058.01-.116.03-.171a3.174 3.174 0 0 1 5.972 0c.02.055.03.113.03.17v1.181h.392c.281 0 .509.228.509.509v6.426c0 .28-.228.508-.508.508h-6.911a.508.508 0 0 1-.508-.508V71.45Zm6.009-.509h-3.999v-1.087a2.14 2.14 0 0 1 1.28-1.222 2.158 2.158 0 0 1 2.719 1.222v1.087Zm-4.993 1.017v5.41h5.894v-5.41h-5.894Zm3.526 2.412a.59.59 0 0 0-.583-.708.593.593 0 0 0-.584.708h-.086v1.962h1.382V74.37h-.129ZM18.87 50.735a5.46 5.46 0 0 1-.978.093h-.203a31.37 31.37 0 0 0 11.84 19.6c.17-.36.381-.7.629-1.013a30.156 30.156 0 0 1-11.288-18.68Zm59.39-10.462h-.366a30.099 30.099 0 0 0-11.365-18.654c.257-.31.474-.65.646-1.013A31.293 31.293 0 0 1 79.11 40.34a5.65 5.65 0 0 0-.85-.067Zm-.001 10.555h-.366a30.015 30.015 0 0 1-7.106 14.694c.306.236.59.49.85.76a31.338 31.338 0 0 0 7.463-15.53c-.277.05-.56.076-.841.076ZM39.32 74.22a29.783 29.783 0 0 0 15.734.65c.059.386.144.767.255 1.14A31.007 31.007 0 0 1 38.86 75.3a5.04 5.04 0 0 0 .46-1.08Zm-5.048-5.632c-2.295-.041-4.19 1.773-4.231 4.054-.042 2.28 1.785 4.162 4.08 4.203 2.288.041 4.18-1.762 4.231-4.035v-.101c.01-2.254-1.812-4.093-4.08-4.121Zm-20.611-23.12c.042-2.28 1.936-4.096 4.231-4.054 2.28.032 4.104 1.89 4.08 4.154v.068c-.052 2.273-1.943 4.076-4.23 4.035-2.296-.041-4.123-1.923-4.081-4.204Zm64.598-4.054c-2.295-.042-4.19 1.773-4.231 4.053-.042 2.28 1.785 4.163 4.08 4.204 2.288.041 4.18-1.762 4.231-4.035v-.068c.024-2.264-1.8-4.122-4.08-4.154ZM58.27 18.149c.037-2.276 1.924-4.09 4.214-4.054h.001c2.281.028 4.108 1.888 4.08 4.155v.067c-.057 2.262-1.938 4.055-4.214 4.019-2.29-.037-4.118-1.911-4.08-4.187Z"/>
</svg>
