<svg id="icon-products-healthcare" viewBox="0 0 96 96" xmlns="http://www.w3.org/2000/svg">
  <path fill-rule="evenodd" d="M68.099 24.964h24.829a.65.65 0 0 1 .65.65V84.72a.65.65 0 0 1-.65.65H3.07a.65.65 0 0 1-.65-.65V25.615a.65.65 0 0 1 .65-.65H27.9v-8.68a5.662 5.662 0 0 1 5.654-5.655h28.89a5.662 5.662 0 0 1 5.655 5.655v8.679ZM30.476 13.207a4.36 4.36 0 0 0-1.277 3.078v8.68h37.6v-8.68a4.36 4.36 0 0 0-4.355-4.355h-28.89a4.36 4.36 0 0 0-3.078 1.277ZM3.721 84.07H92.28V45.456H65.133a19.713 19.713 0 1 1-34.266 0H3.72V84.07Zm54.675-44.461A18.713 18.713 0 0 0 48 36.455a18.734 18.734 0 0 0-18.713 18.713 18.713 18.713 0 1 0 29.11-15.56Zm5.947 4.547h27.936V26.264H3.72v17.892h27.936a19.698 19.698 0 0 1 32.686 0ZM51.265 64.785h-6.707l.056-6.216-6.216-.045v-6.707l6.216-.047.043-6.214 6.748-.005v6.214h6.216v6.759l-6.216.045-.14 6.216Z"/>
</svg>
