<svg id="icon-places-branch-office" viewBox="0 0 96 96" xmlns="http://www.w3.org/2000/svg">
  <path fill-rule="evenodd" d="m91.508 76.78-3.53-1.969-1.312-.762a3.765 3.765 0 0 0-3.225-.28l-1.902.704a2.47 2.47 0 0 1-1.755-.01l-1.822-.702a3.765 3.765 0 0 0-3.276.267l-.248.145-2.478-1.38-1.795-1.043a4.912 4.912 0 0 0-4.208-.366l-2.603.964a3.627 3.627 0 0 1-2.57-.016l-2.497-.96a4.912 4.912 0 0 0-4.272.347l-6.7 3.772a5.29 5.29 0 0 0-2.67 4.626v5.5c-.002.487.066.972.2 1.44h-4.998V65.188a.65.65 0 0 0-.65-.65h-16.68a.649.649 0 0 0-.65.65v21.87H3.75V6.42h53.246v42.03a12.936 12.936 0 0 0-4.329 10.026c0 6.573 4.21 11.92 9.385 11.92 5.174 0 9.383-5.347 9.383-11.92 0-6.573-4.209-11.92-9.383-11.92a7.674 7.674 0 0 0-3.756 1.003V5.77a.65.65 0 0 0-.65-.65H3.1a.65.65 0 0 0-.65.65v81.937a.65.65 0 0 0 .65.65h42.286a5.08 5.08 0 0 0 4.344 2.523h24.663a5.166 5.166 0 0 0 4.33-2.523h10.954a3.959 3.959 0 0 0 3.872-4.016V80.32a4.045 4.045 0 0 0-2.04-3.54v.001ZM62.052 47.854c4.457 0 8.084 4.765 8.084 10.621 0 5.856-3.627 10.62-8.084 10.62-4.458 0-8.085-4.764-8.085-10.62 0-5.856 3.627-10.62 8.085-10.62Zm-23.505 39.01H23.165V65.838h15.382v21.026Zm39.62-1.229a3.876 3.876 0 0 1-3.788 3.945H49.742a3.877 3.877 0 0 1-3.798-3.946v-5.52a3.987 3.987 0 0 1 2.01-3.489l4.898-2.722 1.82-1.062a3.62 3.62 0 0 1 3.148-.257l2.496.96a4.915 4.915 0 0 0 3.49.022l2.603-.963a3.626 3.626 0 0 1 3.102.27l6.647 3.748a3.995 3.995 0 0 1 2.01 3.494v5.52Zm14.082-1.282a2.657 2.657 0 0 1-2.586 2.705H79.266c.136-.466.203-.95.201-1.435V80.12a5.295 5.295 0 0 0-2.67-4.63l-.984-.549a2.467 2.467 0 0 1 1.682.034l1.821.702c.86.333 1.812.338 2.676.016l1.901-.705a2.474 2.474 0 0 1 2.12.185l4.856 2.74a2.744 2.744 0 0 1 1.38 2.402v4.04ZM50.838 46.556H39.746a.65.65 0 0 0-.65.65v9.276a.65.65 0 0 0 .65.65h11.092a.65.65 0 0 0 .65-.65v-9.276a.65.65 0 0 0-.65-.65Zm-.648 9.276h-9.793v-7.977h9.792v7.977ZM80.65 72.16c3.878 0 7.032-3.986 7.032-8.886 0-4.9-3.154-8.887-7.03-8.887-3.877 0-7.031 3.987-7.031 8.887s3.154 8.887 7.03 8.887v-.001Zm0-16.473c3.16 0 5.732 3.403 5.732 7.587 0 4.184-2.57 7.587-5.73 7.587-3.16 0-5.731-3.403-5.731-7.587 0-4.184 2.57-7.587 5.73-7.587ZM9.909 46.556h10.598a.65.65 0 0 1 .65.65v9.276a.65.65 0 0 1-.65.65H9.908a.65.65 0 0 1-.65-.65v-9.276a.65.65 0 0 1 .65-.65Zm.65 9.276h9.298v-7.977h-9.298v7.977Zm14.192-9.276h11.092a.65.65 0 0 1 .65.65v9.276a.65.65 0 0 1-.65.65H24.75a.65.65 0 0 1-.65-.65v-9.276a.65.65 0 0 1 .65-.65Zm.65 9.276h9.792v-7.977H25.4v7.977Zm-4.435-25.218a.65.65 0 0 1 .19.46v9.276a.65.65 0 0 1-.65.65H9.909a.65.65 0 0 1-.65-.65v-9.276a.65.65 0 0 1 .65-.65h10.598a.65.65 0 0 1 .46.19ZM10.558 39.7h9.298v-7.976h-9.298V39.7ZM36.3 30.614a.65.65 0 0 1 .19.46v9.276a.65.65 0 0 1-.65.65H24.75a.65.65 0 0 1-.65-.65v-9.276a.65.65 0 0 1 .65-.65h11.092a.65.65 0 0 1 .46.19ZM25.4 39.7h9.792v-7.976H25.4V39.7Zm25.9-9.086a.65.65 0 0 1 .19.46l-.002 9.276a.65.65 0 0 1-.65.65H39.746a.65.65 0 0 1-.65-.65v-9.276a.65.65 0 0 1 .65-.65H50.84a.65.65 0 0 1 .46.19ZM40.396 39.7h9.793l-.001-7.976h-9.792V39.7ZM20.965 14.48a.65.65 0 0 1 .19.46v9.276a.65.65 0 0 1-.65.65H9.909a.65.65 0 0 1-.65-.65V14.94a.65.65 0 0 1 .65-.65h10.598a.65.65 0 0 1 .46.19Zm-10.407 9.086h9.298v-7.977h-9.298v7.977ZM36.3 14.48a.65.65 0 0 1 .19.46v9.276a.65.65 0 0 1-.65.65H24.75a.65.65 0 0 1-.65-.65V14.94a.65.65 0 0 1 .65-.65h11.092a.65.65 0 0 1 .46.19ZM25.4 23.566h9.792v-7.977H25.4v7.977Zm25.9-9.086a.65.65 0 0 1 .19.46l-.002 9.276a.65.65 0 0 1-.65.65H39.746a.65.65 0 0 1-.65-.65V14.94a.65.65 0 0 1 .65-.65H50.84a.65.65 0 0 1 .46.19Zm-10.903 9.086h9.793l-.001-7.977h-9.792v7.977Z"/>
</svg>
