<svg id="icon-products-plane-satellite-internet" viewBox="0 0 96 96" xmlns="http://www.w3.org/2000/svg">
  <path fill-rule="evenodd" d="M40.79 27.493c-.091.091-.274.183-.365.183-.091 0-.274 0-.274-.183a.441.441 0 0 1 0-.639c4.29-4.38 11.318-4.472 15.699-.182l.182.182a.441.441 0 0 1 0 .64.441.441 0 0 1-.639 0l-.182-.183c-4.016-3.925-10.496-3.834-14.421.182Zm12.139 2.1c.09.09.182.182.365.182.09 0 .274 0 .365-.091a.441.441 0 0 0 0-.64l-.183-.182c-3.103-3.012-8.032-2.92-10.952.183a.441.441 0 0 0 0 .639.441.441 0 0 0 .639 0c2.647-2.739 6.936-2.739 9.674-.183l.092.091Zm-7.758 1.095a.441.441 0 0 0 0 .639.441.441 0 0 0 .639 0c1.186-1.187 3.194-1.278 4.472 0 .091.09.183.182.365.182.091 0 .274 0 .365-.091a.441.441 0 0 0 0-.64l-.091-.09c-1.643-1.643-4.198-1.552-5.75 0Zm48.464 26.924H60.778c-.091-2.282-.64-4.016-1.552-5.476l9.218-1.734c.274 0 .365-.274.365-.548 0-.273-.182-.456-.456-.456H56.944a10.164 10.164 0 0 0-2.19-1.46c-2.19-1.187-4.29-1.643-5.385-1.826l-.365-12.047c0-.274-.183-.457-.456-.457-.274 0-.457.183-.457.457l-1.278 12.047c-1.004.183-3.194.64-5.384 1.826-.73.365-1.46.912-2.19 1.46h-11.5c-.275 0-.457.182-.457.456s.182.457.365.548l9.31 1.643c-.913 1.46-1.552 3.285-1.644 5.567H2.456c-.273 0-.456.183-.456.457 0 .273.183.456.365.547l22.27 4.472c-1.552.548-2.738 2.008-2.738 3.742 0 2.191 1.825 4.016 4.016 4.016 2.19 0 4.016-1.825 4.016-4.016 0-1.186-.548-2.19-1.37-2.92l8.762 1.734h.274c3.468 5.02 9.584 6.845 9.675 6.845h1.46c.091 0 6.207-1.916 9.675-6.845h.274l8.214-1.643a3.895 3.895 0 0 0-.913 2.464c0 2.19 1.826 4.016 4.016 4.016s4.016-1.825 4.016-4.016c0-1.46-.822-2.829-2.1-3.468l21.723-4.38c.274-.092.365-.275.365-.548 0-.274-.091-.457-.365-.457Zm-30.21-7.301-4.473.821-.912-.821h5.385Zm-15.151-9.492.182 5.11h-.73l.548-5.11ZM32.94 50.31h5.02l-.912.73-4.108-.73Zm-3.924 16.428c0 1.643-1.37 3.012-3.103 3.012-1.734 0-3.012-1.278-3.012-3.012 0-1.643 1.369-3.012 3.103-3.012 1.734 0 3.012 1.37 3.012 3.012ZM7.202 58.525h28.111c.092 2.373.73 4.29 1.643 6.024L7.202 58.525Zm41.437 12.96h-1.187c-.912-.274-11.226-3.833-11.226-13.416 0-3.104 1.095-5.66 3.103-7.576l.274-.274a12.19 12.19 0 0 1 2.1-1.46c2.829-1.551 5.658-1.825 5.658-1.825h1.278c.091 0 11.226 1.186 11.226 11.135 0 9.583-10.313 13.142-11.226 13.416Zm24.551-5.11c0 1.642-1.369 3.011-3.103 3.011-1.734 0-3.103-1.369-3.103-3.012a3.04 3.04 0 0 1 2.19-2.92l.457-.092h.365c1.825-.091 3.195 1.278 3.195 3.012Zm-3.65-3.925c-.092 0-.183.022-.274.045a1.142 1.142 0 0 1-.274.046l-9.948 2.008c1.004-1.643 1.643-3.651 1.643-6.024h28.11L69.54 62.45ZM48 57.52l5.568-1.277c.274-.091.548.091.548.365.09.274-.092.457-.365.548l-5.568 1.278h-.091c-.046 0-.069-.023-.091-.046-.023-.023-.046-.046-.092-.046-.052.053-.075.075-.101.085-.02.007-.042.007-.081.007h-.091l-5.568-1.278c-.274 0-.456-.274-.365-.548 0-.274.274-.456.548-.365l5.567 1.278h.183Z"/>
</svg>
