<svg id="icon-devices-video-streaming" viewBox="0 0 96 96" xmlns="http://www.w3.org/2000/svg">
  <path fill-rule="evenodd" d="M89.52 41.79a2.5 2.5 0 0 1-1.028-1.43H74.168v1.53h6.537a.65.65 0 0 1 .65.65v4.005h9.54a.65.65 0 0 1 0 1.3h-10.19a.65.65 0 0 1-.65-.65V43.19h-5.887v7.12a.622.622 0 0 1 .154-.03h10.995a.65.65 0 0 1 0 1.3H74.323a.618.618 0 0 1-.154-.031v8.334a.652.652 0 0 1-.65.65H26.905a.65.65 0 0 1-.65-.65V52.03h-6.516a.65.65 0 0 1-.65-.65v-3.3h-6.83a.65.65 0 1 1 0-1.3h7.478a.65.65 0 0 1 .65.65v3.3h5.867v-5.596a.613.613 0 0 1-.093.018H7.949a2.717 2.717 0 1 1 0-1.3H26.16c.032.004.063.01.094.019V41.14h-7.43a.65.65 0 1 1 0-1.301h7.429v-2.611H13.563a.65.65 0 1 1 0-1.301h12.69v-8.545a.65.65 0 0 1 .65-.65h46.615a.65.65 0 0 1 .65.65v7.854h10.6a.65.65 0 0 1 0 1.3h-10.6v2.524h14.324a2.5 2.5 0 1 1 1.027 2.73Zm2.041-3.078a1.2 1.2 0 1 0-1.333 1.994 1.2 1.2 0 0 0 1.334-1.994Zm-87.027 6.97a1.416 1.416 0 1 0 1.573-2.355 1.416 1.416 0 0 0-1.573 2.354Zm23.02 13.552h45.314V28.033H27.554v31.2Zm15.715-7.04a.65.65 0 0 1-.936-.582V35.655a.65.65 0 0 1 .937-.584l16.166 7.979a.65.65 0 0 1 0 1.166l-16.167 7.98Zm14.41-8.562-14.047-6.933v13.867l14.048-6.934ZM37.506 65.098h36.013a.65.65 0 0 1 0 1.3H37.505a3.513 3.513 0 0 1-6.905 0h-3.696a.65.65 0 1 1 0-1.3H30.6a3.512 3.512 0 0 1 6.905 0Zm-4.685 2.496c.364.244.793.374 1.232.374v-.001a2.22 2.22 0 0 0 1.845-3.45 2.218 2.218 0 1 0-3.077 3.077Z"/>
</svg>
