<svg id="icon-products-vpn-gateway" viewBox="0 0 96 96" xmlns="http://www.w3.org/2000/svg">
  <path fill-rule="evenodd" d="m91.04 58.158.005 3.884a2.852 2.852 0 0 1 2.414 2.81v11.702a2.86 2.86 0 0 1-2.855 2.855H77.775a2.86 2.86 0 0 1-2.855-2.855V71.97H3.19a.65.65 0 0 1-.65-.65v-1.146a.65.65 0 0 1 .65-.65h.265l10.119-6.14V17.24a.65.65 0 0 1 .65-.65h66.009a.65.65 0 0 1 .65.65v36.61a8.112 8.112 0 0 1 3.305-.64c6.015 0 6.844 4.897 6.852 4.947ZM47.784 17.63a1.001 1.001 0 1 0-1.11 1.666 1.001 1.001 0 0 0 1.11-1.666ZM74.92 69.47v-4.617c.005-.099.015-.197.03-.295H14.147l-8.094 4.912H74.92Zm2.413-7.427v-3.808a6.214 6.214 0 0 1 2.249-3.618V20.912H14.875v42.16h60.686a2.84 2.84 0 0 1 1.772-1.03Zm7.849 12.164.011-2.805a2.009 2.009 0 1 0-1.943.036v2.769h1.932Zm-7.349-11.878 12.213.163v-4.257l-.003-.014c-.057-.27-.846-4.008-5.855-4.008-5.138 0-5.834 3.933-5.861 4.1l.006 4.016h-.5ZM62.606 27.73a3.468 3.468 0 0 1 2.339-.9h.002a3.468 3.468 0 0 1 .65 6.876v6.73H47.88v3.846h5.86v13.025H40.716V44.283h5.861v-3.845H28.861v-6.731a3.47 3.47 0 1 1 1.3 0v5.43h16.418v-5.43a3.47 3.47 0 1 1 1.3 0v5.43h16.416v-5.43a3.468 3.468 0 0 1-1.689-5.976Zm-34.898 1.364a2.17 2.17 0 1 0 3.609 2.412 2.17 2.17 0 0 0-3.61-2.412ZM52.44 56.008V45.585l-10.422-.001v10.424H52.44Zm-6.416-23.902a2.17 2.17 0 1 0 2.411-3.608 2.17 2.17 0 0 0-2.41 3.608Zm17.716 0a2.17 2.17 0 1 0 2.411-3.608 2.17 2.17 0 0 0-2.41 3.608Z"/>
</svg>
