<svg id="icon-business-calendar" viewBox="0 0 96 96" xmlns="http://www.w3.org/2000/svg">
  <path fill-rule="evenodd" d="M26.602 3.45c.103.265.153.547.145.83v13.069h-4.256V4.263a2.128 2.128 0 0 1 2.961-1.996 2.128 2.128 0 0 1 1.15 1.184Zm46.817.015c.106.258.16.535.159.815v13.069H69.32V4.263a2.13 2.13 0 0 1 4.099-.798Zm-40.32 63.127H17.378a.65.65 0 0 1-.65-.65V55.489a.65.65 0 0 1 .65-.65h15.72a.65.65 0 0 1 .65.65v10.453a.65.65 0 0 1-.65.65Zm-.65-10.453H18.029l.002 9.153h14.42v-9.153Zm23.41 10.453H40.14a.65.65 0 0 1-.65-.65V55.489a.65.65 0 0 1 .65-.65h15.72a.65.65 0 0 1 .65.65v10.453a.65.65 0 0 1-.65.65Zm-.65-10.453h-14.42v9.153h14.42v-9.153Zm23.413 10.453H62.9a.65.65 0 0 1-.65-.65V55.489a.65.65 0 0 1 .65-.65h15.724a.65.65 0 0 1 .65.65v10.453a.65.65 0 0 1-.65.65Zm-.65-10.453H63.551v9.153h14.421v-9.153ZM33.1 83.928H17.378a.65.65 0 0 1-.65-.65V72.825a.651.651 0 0 1 .65-.65h15.72a.65.65 0 0 1 .65.65v10.453a.65.65 0 0 1-.65.65Zm-.65-10.453H18.029l.002 9.153h14.42v-9.153Zm23.41 10.453H40.14a.65.65 0 0 1-.65-.65V72.825a.651.651 0 0 1 .65-.65h15.72a.65.65 0 0 1 .65.65v10.453a.65.65 0 0 1-.65.65Zm-.65-10.453h-14.42v9.153h14.42v-9.153Zm23.413 10.453H62.9a.65.65 0 0 1-.65-.65V72.825a.65.65 0 0 1 .65-.65h15.724a.65.65 0 0 1 .65.65v10.453a.65.65 0 0 1-.65.65Zm-.65-10.453H63.551v9.153h14.421v-9.153ZM24.62 30.467h-.003a4.913 4.913 0 0 1-4.907-4.907c0-.07.01-.136.02-.203.006-.047.012-.094.015-.142a4.872 4.872 0 0 1 2.963-4.175l.016-.005c.004 0 .007-.002.01-.003.283-.118.575-.21.875-.273.183-.03.369-.05.555-.06.048-.005.096-.012.144-.019.08-.011.16-.023.245-.023a.634.634 0 0 1 .063-.004h.004a4.907 4.907 0 1 1 0 9.814Zm2.002-7.907a3.607 3.607 0 1 0-4.007 6 3.607 3.607 0 0 0 4.007-6Zm44.827 7.907h-.001a4.913 4.913 0 0 1-4.907-4.907c0-.07.009-.137.018-.204.007-.047.013-.095.016-.143a4.873 4.873 0 0 1 2.963-4.173c.012-.005.026-.007.04-.013.278-.116.566-.206.86-.268.184-.03.37-.05.556-.06.048-.005.096-.012.145-.019.08-.011.16-.023.243-.023a.634.634 0 0 1 .064-.004h.004a4.907 4.907 0 1 1 0 9.814Zm2.003-7.907a3.607 3.607 0 1 0-4.007 6 3.607 3.607 0 0 0 4.007-6Zm17.805-6.756a6.98 6.98 0 0 0-4.973-2.014h-6.351a.65.65 0 0 0 0 1.3h6.406a5.715 5.715 0 0 1 5.714 5.663v16.925H3.95V20.86a5.72 5.72 0 0 1 5.663-5.764h6.458a.65.65 0 0 0 0-1.3H9.604a7.022 7.022 0 0 0-6.955 7.07v17.463a.65.65 0 0 0 .65.65h89.403a.65.65 0 0 0 .65-.65v-17.58a6.973 6.973 0 0 0-2.096-4.944v-.001Zm-58.154-.709h29.8a.65.65 0 1 0 0-1.3h-29.8a.65.65 0 0 0 0 1.3Zm59.6 28.502H3.3a.653.653 0 0 0-.653.65v42.655a7.023 7.023 0 0 0 7.01 6.955h76.74a7.016 7.016 0 0 0 6.954-7.07v-42.54a.65.65 0 0 0-.65-.65Zm-.65 43.196a5.714 5.714 0 0 1-5.66 5.764H9.662a5.72 5.72 0 0 1-5.715-5.661l.002-42h88.103v41.897Z"/>
</svg>
