<svg id="icon-products-media-and-entertainment" viewBox="0 0 96 96" xmlns="http://www.w3.org/2000/svg">
  <path fill-rule="evenodd" d="M83.068 59.44h10.46v19.161H68.503v-5.78h-46.04a5.492 5.492 0 0 1-5.487-5.486V44.051H2.472V22.633H32.78v3.54h28.955v-8.774h25.099v17.105h-3.766v17.264l8.202-1.928a.64.64 0 0 1 .675.253c.05.07.085.148.105.231l.9 3.826a.651.651 0 0 1-.484.782l-9.398 2.21v2.298Zm4.597 1.301h-3.68l-1.232 2.63h3.679l1.233-2.63Zm3.87-6.926-.486-2.072-.483 2.3.97-.228Zm-5.641 1.326.598-2.842-3.582.842-.598 2.843 3.582-.843ZM85.533 18.7H63.036v14.503h2.658v6.105l6.616-6.105h13.223V18.7ZM31.48 23.935H3.772v14.057l7.62-6.83 7.3 6.003 4.29-3.845 8.498 7.145v-16.53ZM23.01 35.04 19.708 38l5.108 4.2-.451.549h7.115v-.587l-8.47-7.122ZM3.772 39.737v3.013h19.665l-12.008-9.875-7.657 6.862Zm64.732 22.318v-2.547l-.813-3.457a.65.65 0 0 1 .485-.78l13.59-3.197v-17.57h-8.95l-8.422 7.772v-7.772h-2.66v-7.03H32.78v16.577H18.276v23.284a4.19 4.19 0 0 0 4.187 4.185h46.04v-8.165H18.35v-1.3h50.155Zm13.264-4.608-8.476 1.993h8.476v-1.993Zm-3.813 5.924 1.232-2.63h-3.68l-1.232 2.63h3.68Zm-3.298-8.289-.598 2.843 3.582-.842.598-2.843-3.582.842Zm-4.671 1.099-.881.207.442 1.877.439-2.084Zm-.181 6.488.903-1.928h-.903v1.928Zm0 14.631h22.423V64.67H69.805V77.3ZM91.23 63.37h.998v-2.128l-.998 2.128ZM46.25 38.818l11.392 6.578a.65.65 0 0 1 0 1.125L46.25 53.098a.65.65 0 0 1-.976-.563V39.381a.65.65 0 0 1 .976-.563Zm9.767 7.14-9.443-5.451v10.902l9.443-5.451ZM20.615 32.021a2.838 2.838 0 1 1-3.154-4.72 2.838 2.838 0 0 1 3.154 4.72Zm-1.575.478h-.002.002Zm.853-4.117a1.538 1.538 0 1 0-1.71 2.557 1.538 1.538 0 0 0 1.71-2.557Zm61.562-5.262H67.472v-.001a.65.65 0 1 1 0-1.301h13.983a.65.65 0 1 1 0 1.302Zm-5.877 3.546h-8.106a.65.65 0 0 1 0-1.3h8.106a.65.65 0 0 1 0 1.3Zm2.828 3.785H67.472a.65.65 0 0 1 0-1.3h10.934a.65.65 0 0 1 0 1.3Z"/>
</svg>
