<svg id="icon-people-chief-financial-officer" viewBox="0 0 96 96" xmlns="http://www.w3.org/2000/svg">
  <path fill-rule="evenodd" d="m46.563 55.873 8.001 4.28a7.91 7.91 0 0 1 4.186 6.984v8.688a7.93 7.93 0 0 1-7.92 7.924H10.402a7.932 7.932 0 0 1-7.92-7.921v-8.694a7.911 7.911 0 0 1 4.175-6.977l7.947-4.27 2.938-1.642a7.916 7.916 0 0 1 6.526-.547l4.27 1.523a6.642 6.642 0 0 0 4.525-.027l4.091-1.515a7.899 7.899 0 0 1 6.628.521l2.981 1.673Zm8.946 24.633a6.63 6.63 0 0 0 1.94-4.681l.001-8.688a6.61 6.61 0 0 0-3.498-5.838l-8.013-4.285-2.994-1.68a6.61 6.61 0 0 0-5.54-.436l-4.09 1.515a7.943 7.943 0 0 1-5.413.033l-4.27-1.523a6.608 6.608 0 0 0-5.455.457l-2.947 1.648-7.957 4.274a6.61 6.61 0 0 0-3.489 5.832v8.694a6.63 6.63 0 0 0 6.62 6.621H50.83a6.63 6.63 0 0 0 4.68-1.943Zm-9.914-47.529c0 10.168-6.718 18.44-14.973 18.44S15.65 43.145 15.65 32.977c0-10.167 6.717-18.44 14.972-18.44 8.255 0 14.973 8.273 14.973 18.44Zm-1.3 0c0-9.45-6.134-17.14-13.673-17.14-7.538 0-13.67 7.69-13.67 17.14 0 9.451 6.132 17.14 13.67 17.14 7.54 0 13.672-7.689 13.672-17.14ZM59.385 12.25H92.2v.001a1.319 1.319 0 0 1 1.317 1.316v21.67a1.319 1.319 0 0 1-1.317 1.317H62.943L52.85 39.971l5.22-7.721V13.568a1.32 1.32 0 0 1 1.316-1.318Zm3.45 23.004H92.2l.018-21.686-32.832-.018-.016 19.099-3.282 4.853 6.747-2.248Zm1.558-11.766.648-.934v-.001a3.714 3.714 0 0 0 1.782.89v-1.994c-1.478-.375-2.165-.934-2.165-2.075v-.01c0-1.093.858-1.833 2.124-1.943v-.587h.88v.607c.691.084 1.348.35 1.903.77l-.566.953a3.75 3.75 0 0 0-1.376-.658v1.943c1.538.384 2.196.992 2.196 2.074v.022c0 1.102-.87 1.841-2.157 1.962v.993h-.88v-1.01a4.67 4.67 0 0 1-2.389-1.002Zm3.231-1.844v-.006 1.842c.648-.071 1.001-.385 1.001-.87v-.02c.002-.441-.22-.718-1-.946Zm-1.773-2.362v.009c.002.43.195.704.974.945l-.001-.004v-1.79c-.65.06-.974.4-.974.84Zm15.209 2.553v-.9h1.6l-2.329-3.511h1.449l1.84 2.964 1.869-2.964h1.406l-2.349 3.511h1.62v.9h-1.953v.737h1.954v.901h-1.954v1.03h-1.2V23.47H81.06v-.9h1.952v-.735H81.06Zm-3.474 9.638c-.43.251-.92.383-1.418.384h.002a2.994 2.994 0 0 1-2.946-2.401h-.92v-.87h.78c-.01-.12-.01-.253-.01-.385-.003-.155.004-.31.02-.465h-.79v-.86h.951a2.994 2.994 0 0 1 2.874-2.348 2.785 2.785 0 0 1 2.47 1.334l-.94.708a1.804 1.804 0 0 0-1.558-.92 1.682 1.682 0 0 0-1.56 1.234h2.175v.86H74.35a3.165 3.165 0 0 0-.021.446c0 .14 0 .266.01.4h2.377v.87h-2.194a1.736 1.736 0 0 0 1.66 1.285 1.867 1.867 0 0 0 1.547-.972l.89.657a2.822 2.822 0 0 1-1.032 1.043Z"/>
</svg>
