<svg id="icon-products-cisco-unified-comm-manager" viewBox="0 0 96 96" xmlns="http://www.w3.org/2000/svg">
  <path fill-rule="evenodd" d="M73.064 16.761A39.86 39.86 0 0 1 87.72 42.103c2.89.202 5.18 2.895 5.18 6.198 0 3.338-2.34 6.054-5.275 6.202a39.827 39.827 0 0 1-14.56 24.739 5.844 5.844 0 0 1-10.12 5.843 39.828 39.828 0 0 1-29.325-.008 5.844 5.844 0 0 1-10.124-5.837A39.896 39.896 0 0 1 8.932 54.5a7.347 7.347 0 0 0-.082.006c-.075.006-.149.012-.224.012-3.052 0-5.526-2.784-5.526-6.217 0-3.434 2.474-6.217 5.526-6.217.049 0 .097.004.145.008l.08.005A39.827 39.827 0 0 1 23.496 16.76a5.844 5.844 0 0 1 10.12-5.843 39.828 39.828 0 0 1 29.323.008 5.844 5.844 0 0 1 10.125 5.836Zm-4.306 59.522a5.84 5.84 0 0 1 3.387 1.722 38.04 38.04 0 0 0 13.159-20.083c.316-1.19.576-2.384.78-3.582a6.42 6.42 0 0 1 .1-12.108A38.314 38.314 0 0 0 72.132 18.01a5.84 5.84 0 0 1-9.808-5.644 38.343 38.343 0 0 0-28.094-.025 5.84 5.84 0 0 1-9.813 5.656 38.043 38.043 0 0 0-13.16 20.084 38.94 38.94 0 0 0-.89 4.322 6.49 6.49 0 0 1 .073 11.765 38.485 38.485 0 0 0 13.972 23.839 5.84 5.84 0 0 1 9.817 5.652 38.95 38.95 0 0 0 4.13 1.366 38.046 38.046 0 0 0 23.974-1.355 5.84 5.84 0 0 1 6.425-7.387Zm-5.586-32.01v.45a5.113 5.113 0 0 1 4.758 5.087v1.475a5.122 5.122 0 0 1-5.009 5.112c-.989 5.71-5.009 9.158-10.88 9.328a3.337 3.337 0 0 1-3.304 2.935h-1.203a3.344 3.344 0 1 1 0-6.688h1.203a3.34 3.34 0 0 1 3.21 2.457c5.35-.132 8.867-3.163 9.718-8.382a2.003 2.003 0 0 1-.862-1.644V46.69a1.999 1.999 0 0 1 1.068-1.761v-.658A14.396 14.396 0 0 0 47.48 29.758a14.394 14.394 0 0 0-14.393 14.513v.613a1.893 1.893 0 0 1 1.068 1.696v7.929a1.9 1.9 0 0 1-1.896 1.898 5.02 5.02 0 0 1-5.016-5.014v-1.692a5.005 5.005 0 0 1 4.543-4.967v-.461a15.693 15.693 0 1 1 31.387 0ZM33.154 54.511v-7.93a.888.888 0 0 0-.77-.87h-.377a4.009 4.009 0 0 0-3.765 3.989v1.693a4.02 4.02 0 0 0 4.016 4.014.898.898 0 0 0 .896-.896Zm14.38 13.149h1.204a2.34 2.34 0 0 0 2.33-2.198.59.59 0 0 1-.05-.67 2.345 2.345 0 0 0-2.28-1.82h-1.204a2.347 2.347 0 0 0-2.345 2.344 2.347 2.347 0 0 0 2.345 2.344Zm18.197-13.472a4.126 4.126 0 0 0 1.2-2.902V49.81a4.128 4.128 0 0 0-4.123-4.123 1.007 1.007 0 0 0-1.005 1.004v7.713a.987.987 0 0 0 .427.799.62.62 0 0 1 .223-.01c.15.023.285.099.384.213a4.126 4.126 0 0 0 2.894-1.218Z"/>
</svg>
