<svg id="icon-people-admin" viewBox="0 0 96 96" xmlns="http://www.w3.org/2000/svg">
  <path fill-rule="evenodd" d="M80.503 51.846c.138-1.212.208-2.431.21-3.651v-.003a33.017 33.017 0 0 0-.25-3.959l12.152-9.276a.65.65 0 0 0 .17-.841L82.402 16.073a.65.65 0 0 0-.812-.277L67.205 21.75a32.685 32.685 0 0 0-6.1-3.49l-1.98-15.175a.65.65 0 0 0-.645-.565H37.662a.65.65 0 0 0-.644.565L35.035 18.26a32.756 32.756 0 0 0-4.926 2.676l-14.787-6.188a.65.65 0 0 0-.813.273L4.052 33.027a.65.65 0 0 0 .166.842l11.657 8.973a32.406 32.406 0 0 0-.288 8.518L3.385 60.677a.65.65 0 0 0-.17.841L13.598 79.56a.65.65 0 0 0 .812.276l13.825-5.72a32.612 32.612 0 0 0 6.683 3.966L36.868 93a.65.65 0 0 0 .643.566h20.816a.65.65 0 0 0 .645-.566l1.93-14.78a32.62 32.62 0 0 0 6.61-3.799l13.975 5.85a.653.653 0 0 0 .814-.274l10.454-18.005a.65.65 0 0 0-.166-.842l-12.086-9.304Zm.96 27.005L67.67 73.078a.65.65 0 0 0-.645.083 31.275 31.275 0 0 1-6.97 4.005.65.65 0 0 0-.396.517l-1.903 14.583H38.08l-1.923-14.719a.65.65 0 0 0-.388-.513 31.281 31.281 0 0 1-7.033-4.176.65.65 0 0 0-.65-.09l-13.649 5.648-9.81-17.052 12.038-9.192a.651.651 0 0 0 .252-.588 31.066 31.066 0 0 1 .304-8.903.65.65 0 0 0-.243-.63L5.463 33.187l9.884-17.02L29.93 22.27a.65.65 0 0 0 .615-.061 31.39 31.39 0 0 1 5.34-2.899.651.651 0 0 0 .391-.515L38.232 3.82h19.676l1.956 14.976a.65.65 0 0 0 .392.515 31.34 31.34 0 0 1 6.472 3.703.651.651 0 0 0 .636.079l14.198-5.876 9.811 17.053-11.996 9.159a.65.65 0 0 0-.25.603c.366 2.66.38 5.358.042 8.023a.648.648 0 0 0 .248.596l11.927 9.183-9.88 17.017ZM47.997 22.483a25.555 25.555 0 1 0 25.555 25.555 25.584 25.584 0 0 0-25.555-25.555ZM31.433 65.732a.633.633 0 0 0 .036-.18v-2.587a3.888 3.888 0 0 1 2.053-3.432l4.978-2.674 1.84-1.03a3.895 3.895 0 0 1 3.21-.266l2.668.953c1.15.408 2.406.4 3.55-.023l2.554-.948a3.885 3.885 0 0 1 3.26.257l6.881 3.733a3.884 3.884 0 0 1 2.057 3.435v2.459a.638.638 0 0 0 .067.278 24.19 24.19 0 0 1-33.154.025Zm34.387-1.266V62.97a5.184 5.184 0 0 0-2.744-4.581l-4.996-2.675-1.862-1.046a5.188 5.188 0 0 0-4.348-.342l-2.556.948a3.903 3.903 0 0 1-2.66.018l-2.667-.953a5.198 5.198 0 0 0-4.28.355l-6.8 3.693a5.187 5.187 0 0 0-2.739 4.578v1.495a24.254 24.254 0 1 1 35.652.006ZM38.392 39.815c0-6.489 4.308-11.769 9.603-11.769s9.604 5.279 9.604 11.769-4.31 11.77-9.604 11.77c-5.295 0-9.603-5.28-9.603-11.77Zm1.3 0c0 5.773 3.725 10.471 8.303 10.471v-.001c4.578 0 8.303-4.697 8.303-10.47 0-5.773-3.725-10.469-8.303-10.469-4.578 0-8.303 4.696-8.303 10.469Z"/>
</svg>
