<svg id="icon-products-wavelength" viewBox="0 0 96 96" xmlns="http://www.w3.org/2000/svg">
  <path d="M83.459 8.943H12.54a9.785 9.785 0 0 0-9.773 9.773v58.568a9.785 9.785 0 0 0 9.773 9.773h70.918a9.785 9.785 0 0 0 9.773-9.773V18.716a9.785 9.785 0 0 0-9.773-9.773ZM9.559 76.86a2.088 2.088 0 0 1 2.02-2.153h.037a2.099 2.099 0 1 1 0 4.198 2.06 2.06 0 0 1-2.057-2.045Zm6.379 0a2.088 2.088 0 0 1 2.02-2.153h.037a2.1 2.1 0 1 1 0 4.198 2.061 2.061 0 0 1-2.057-2.045Zm6.38.01a2.088 2.088 0 0 1 2.02-2.152h.039a2.108 2.108 0 0 1 2.16 2.046c0 .03 0 .063-.002.097a2.088 2.088 0 0 1-2.12 2.055h-.038a2.061 2.061 0 0 1-2.06-2.045Zm49.398 2.952a.65.65 0 1 1 0-1.3h9.416a.65.65 0 0 1 0 1.3h-9.416Zm6.236 1.713a.65.65 0 0 1-.65.65h-1.756a.65.65 0 0 1 0-1.3h1.756a.65.65 0 0 1 .65.65Zm4.66-4.076H70.236a.65.65 0 0 1 0-1.3H82.61a.65.65 0 0 1 0 1.3h.002Zm-1.48-3.662a.65.65 0 1 1 0 1.301h-9.416a.65.65 0 0 1 0-1.3h9.416Zm-6.236-1.579a.65.65 0 0 1 .65-.65h1.756a.65.65 0 0 1 0 1.3h-1.756a.65.65 0 0 1-.65-.65Zm17.036-4.393H4.068V45.59c.544-1.359 7.756-18.805 19.288-18.805 11.94 0 18.47 16.471 18.527 16.612.068.202 7.07 20.278 23.7 20.278 16.666 0 22.268-20.808 22.328-21.042 1.206-5.443 2.973-11.499 4.02-13.27v38.463Zm0-40.14c-1.887.968-3.895 8.376-5.285 14.642-.052.2-5.407 20.046-21.064 20.046-6.558 0-12.323-3.24-17.136-9.63a39.482 39.482 0 0 1-5.342-9.79 39.996 39.996 0 0 0-4.958-8.686c-4.34-5.747-9.454-8.785-14.79-8.785-5.345 0-10.6 3.434-15.196 9.93a49.944 49.944 0 0 0-4.093 6.982V18.716a8.482 8.482 0 0 1 8.473-8.472h70.918a8.482 8.482 0 0 1 8.473 8.472v8.97Z"/>
</svg>
