<svg id="icon-products-conferencing" viewBox="0 0 96 96" xmlns="http://www.w3.org/2000/svg">
  <path fill-rule="evenodd" d="M4.86 10.024h86.36a2.136 2.136 0 0 1 2.136 2.133v61.624a2.137 2.137 0 0 1-2.135 2.134H51.729v4.37h7.56a1.925 1.925 0 0 1 1.925 1.925v1.841a1.925 1.925 0 0 1-1.925 1.924H36.792a1.925 1.925 0 0 1-1.925-1.924v-1.842a1.925 1.925 0 0 1 1.925-1.925h7.56v-4.37H4.86a2.137 2.137 0 0 1-2.135-2.134V49.555a1.148 1.148 0 0 1-.081-.4v-29.68c.002-.137.03-.273.08-.4v-6.918a2.137 2.137 0 0 1 2.136-2.133Zm43.913 3.414a1.318 1.318 0 1 0-1.465 2.191 1.318 1.318 0 0 0 1.465-2.19ZM36.33 19.606H4.026v29.418H36.33V19.606Zm55.48 54.765a.835.835 0 0 0 .246-.59l-.001-55.389h-55.17a1.166 1.166 0 0 1 .745 1.083v29.679a1.17 1.17 0 0 1-1.17 1.17H4.026v23.457a.835.835 0 0 0 .834.834h86.36a.835.835 0 0 0 .59-.244Zm-12.727-2.765H52.058a5.52 5.52 0 0 1-5.511-5.513v-5.81a5.495 5.495 0 0 1 2.906-4.854l7.27-3.949a5.511 5.511 0 0 1 4.543-.381l2.853 1.018c.932.331 1.95.325 2.878-.018l2.735-1.013a5.5 5.5 0 0 1 4.613.363l1.992 1.118 5.345 2.86a5.509 5.509 0 0 1 2.912 4.858v5.809a5.52 5.52 0 0 1-5.511 5.512ZM48.443 58.12c-.39.654-.596 1.4-.595 2.162l-.001 5.812a4.217 4.217 0 0 0 4.21 4.212h27.026a4.218 4.218 0 0 0 4.21-4.212v-5.808a4.206 4.206 0 0 0-2.225-3.713l-7.36-3.99a4.203 4.203 0 0 0-3.525-.279l-2.735 1.014a5.52 5.52 0 0 1-3.766.024l-2.854-1.018a4.204 4.204 0 0 0-3.47.29l-1.969 1.102-5.322 2.858a4.196 4.196 0 0 0-1.623 1.546ZM75.8 37.45c0 6.916-4.587 12.542-10.223 12.542v-.001c-5.637 0-10.224-5.625-10.224-12.541s4.588-12.543 10.224-12.543S75.8 30.533 75.8 37.449Zm-1.3 0c0-6.199-4.003-11.243-8.923-11.243s-8.923 5.044-8.923 11.243c0 6.199 4.003 11.243 8.923 11.243S74.5 43.648 74.5 37.449Zm-48.541-1.098 2.893 1.549a3.137 3.137 0 0 1 1.657 2.765v3.15a3.146 3.146 0 0 1-3.13 3.136H12.724a3.142 3.142 0 0 1-3.14-3.139V40.66a3.134 3.134 0 0 1 1.654-2.764l3.941-2.137a3.143 3.143 0 0 1 2.584-.216l1.547.553c.473.167.989.164 1.459-.01l1.484-.55a3.136 3.136 0 0 1 2.626.208l1.08.607Zm2.922 8.971c.4-.4.625-.942.627-1.507v-3.15a2.138 2.138 0 0 0-1.128-1.883l-3.99-2.166a2.132 2.132 0 0 0-1.79-.142l-1.483.549c-.69.256-1.45.261-2.143.014l-1.547-.552a2.141 2.141 0 0 0-1.761.148l-3.956 2.144a2.135 2.135 0 0 0-1.126 1.883v3.152a2.14 2.14 0 0 0 2.139 2.139h14.652a2.144 2.144 0 0 0 1.506-.629Zm-3.135-17.043c0 3.832-2.555 6.95-5.695 6.95h-.001c-3.139 0-5.694-3.116-5.694-6.949 0-3.833 2.554-6.95 5.694-6.95s5.696 3.117 5.696 6.949Zm-1 .001c0-3.28-2.105-5.95-4.695-5.95-2.589 0-4.694 2.669-4.694 5.949s2.105 5.95 4.694 5.95 4.695-2.669 4.695-5.949Z"/>
</svg>
