<svg id="icon-people-software-developer" viewBox="0 0 96 96" xmlns="http://www.w3.org/2000/svg">
  <path fill-rule="evenodd" d="M65.583 8.887H92.49l.002-.001a1.203 1.203 0 0 1 1.198 1.2V27.85a1.2 1.2 0 0 1-1.198 1.198H68.515l-6.76 2.288a.64.64 0 0 1-.544-.058.65.65 0 0 1-.202-.922l3.377-4.984V10.086a1.203 1.203 0 0 1 1.197-1.199Zm2.824 18.86h23.98v-17.56H65.687v15.384c0 .13-.04.257-.112.364l-2.405 3.55 5.03-1.703a.624.624 0 0 1 .208-.035Zm5.796-8.475 2.399.986v1.015l-3.434-1.507v-.979l3.434-1.505v1.004l-2.4.986Zm5.965-3.163h.915L77.94 22.68h-.915l3.143-6.571Zm1.443 1.174 3.434 1.505v.979l-3.434 1.505V20.27l2.398-.985-2.398-.987v-1.015Zm-9.966 61.559 8.598 6.047h-.001a.65.65 0 0 1 .273.538l.002.008v1.028a.65.65 0 0 1-.65.65H2.96a.65.65 0 0 1-.65-.65v-1.028a.65.65 0 0 1 .64-.65l8.226-5.98a.633.633 0 0 1-.04-.204V36.872a.65.65 0 0 1 .65-.65h16.647c.034-8.695 5.793-15.756 12.87-15.756 7.077 0 12.837 7.061 12.872 15.756h16.869a.65.65 0 0 1 .65.65v41.729a.648.648 0 0 1-.05.241ZM52.878 36.3c0-8.013-5.192-14.533-11.574-14.533S29.73 28.286 29.73 36.3s5.19 14.534 11.573 14.534c6.382 0 11.574-6.52 11.574-14.534Zm-24.043 3.867H12.437V77.95h7.015a6.833 6.833 0 0 1-2.261-5.074v-7.419a6.843 6.843 0 0 1 3.613-6.04l9.289-5.041a6.853 6.853 0 0 1 5.65-.474l3.64 1.3a5.572 5.572 0 0 0 3.795-.023l3.49-1.292a6.836 6.836 0 0 1 5.738.45l2.544 1.43 6.828 3.651a6.85 6.85 0 0 1 3.623 6.046v7.416a6.834 6.834 0 0 1-2.264 5.07h7.256V40.167H53.775c-1.41 6.865-6.457 11.968-12.47 11.968-6.013 0-11.061-5.103-12.47-11.968Zm-4.788 38.265h34.5A5.562 5.562 0 0 0 64.1 72.88v-7.416a5.548 5.548 0 0 0-2.935-4.9l-6.84-3.658-2.556-1.435a5.548 5.548 0 0 0-4.65-.366l-3.491 1.292a6.862 6.862 0 0 1-4.681.03l-3.642-1.3a5.551 5.551 0 0 0-4.578.384l-2.516 1.406-6.792 3.646a5.542 5.542 0 0 0-2.927 4.893v7.42a5.56 5.56 0 0 0 5.555 5.556ZM12.28 79.61l-7.096 5.16h72.63l-7.336-5.16H59.807a6.85 6.85 0 0 1-1.26.122H24.046a6.852 6.852 0 0 1-1.266-.122h-10.5Z"/>.
</svg>
