<svg id="icon-people-chief-information-officer" viewBox="0 0 96 96" xmlns="http://www.w3.org/2000/svg">
  <path fill-rule="evenodd" d="M39.6 50.782c10.727 0 19.454-10.771 19.454-24.01 0-13.24-8.727-24.01-19.455-24.01-10.728 0-19.456 10.77-19.456 24.01 0 13.239 8.728 24.01 19.456 24.01Zm0-46.72c10.01 0 18.154 10.188 18.154 22.71S49.61 49.481 39.6 49.481s-18.156-10.188-18.156-22.71S29.588 4.061 39.6 4.061v.001Zm50.244 37.929-12.288-1.983a3.898 3.898 0 0 0-1.257 0L64.004 41.99a3.907 3.907 0 0 0-3.297 3.872V57.16l-.275-.148-3.914-2.197a10.18 10.18 0 0 0-8.534-.67l-5.372 1.989a8.9 8.9 0 0 1-6.08.036l-5.602-2a10.2 10.2 0 0 0-8.403.705l-3.86 2.158-10.435 5.602a10.18 10.18 0 0 0-5.374 8.984V83.04a10.208 10.208 0 0 0 10.196 10.197H66.14a10.198 10.198 0 0 0 10.19-10.204v-2.462a3.798 3.798 0 0 0 3.216-.95l9.532-8.566a12.423 12.423 0 0 0 4.064-9.25V45.862a3.907 3.907 0 0 0-3.298-3.872v.001ZM75.03 83.034a8.895 8.895 0 0 1-8.89 8.904H13.053a8.907 8.907 0 0 1-8.897-8.897V71.618a8.88 8.88 0 0 1 4.69-7.839l10.444-5.607 3.87-2.163a8.894 8.894 0 0 1 7.332-.615l5.602 2c2.257.803 4.723.788 6.97-.043l5.371-1.987a8.881 8.881 0 0 1 7.445.584l3.926 2.204.9.481v3.15a12.472 12.472 0 0 0 4.078 9.286l9.517 8.553c.223.195.467.364.727.504l.002 2.908Zm16.208-21.229a10.515 10.515 0 0 1-3.432 7.834l-9.533 8.566a2.02 2.02 0 0 1-2.698 0l-9.517-8.553a10.566 10.566 0 0 1-3.447-7.868v-15.92a2.017 2.017 0 0 1 1.697-1.993l12.295-1.983a1.97 1.97 0 0 1 .643 0L89.54 43.87a2.02 2.02 0 0 1 1.697 1.992l.001 15.943Zm-8.91-7.837h1.083v-.001a.65.65 0 0 1 .65.65v12.657a.65.65 0 0 1-.65.65H69.887a.65.65 0 0 1-.65-.65V54.617a.65.65 0 0 1 .65-.65h1.085v-2.7a.66.66 0 0 1 .036-.213 5.972 5.972 0 0 1 11.283 0 .66.66 0 0 1 .036.214v2.7Zm-4.638 9.284V61.63a1.814 1.814 0 1 0-2.02.04v1.582a.65.65 0 0 0 .65.65h.72a.65.65 0 0 0 .65-.65ZM72.273 51.38v2.587h8.755V51.38a4.671 4.671 0 0 0-8.755 0Z"/>
</svg>
