<svg id="icon-products-train-satellite-internet" viewBox="0 0 96 96" xmlns="http://www.w3.org/2000/svg">
  <path fill-rule="evenodd" d="M58.192 19.195c-5.8-5.5-15-5.4-20.6.3-.2.2-.5.2-.7 0-.2-.2-.2-.5 0-.7 6-6.1 15.9-6.3 22-.3l.4.4c.2.2.2.5 0 .7-.1.1-.3.1-.4.1-.2 0-.3-.1-.4-.2l-.3-.3Zm-3.2 3.1c.1.1.2.2.4.2.1 0 .3 0 .4-.1.2-.2.2-.5 0-.7l-.2-.2c-4.3-4.1-11.1-4-15.3.2-.2.2-.2.5 0 .7.2.2.5.2.7 0 3.8-3.9 10-4 13.8-.2.1 0 .2.1.2.1Zm-11 1.8c-.2.2-.2.5 0 .7.1.1.2.1.4.1.1 0 .3-.1.4-.2 1.8-1.8 4.6-1.8 6.4-.1l.1.1c.2.2.5.2.7 0 .2-.2.2-.5 0-.7h-.1c-2.2-2.1-5.7-2.1-7.9.1Zm27.5 56.9-10-9.9h4.2c1.5 0 2.7-1.2 2.7-2.6v-32.2c0-4.4-3.6-7.9-7.9-7.9h-24.8c-4.4 0-7.9 3.5-7.9 7.9v32.2c0 1.5 1.2 2.6 2.6 2.6h4.1l-10 9.9c-.2.2-.2.5 0 .7.1.1.2.2.4.2.1 0 .3 0 .4-.1l2.4-2.4h40.7l2.4 2.4c.1.1.2.1.4.1.1 0 .3-.1.4-.2.1-.2.1-.5-.1-.7Zm-42.7-44.7c0-3.8 3.1-6.9 6.9-6.9h24.6c3.8 0 6.9 3.1 6.9 6.9v.7l-38.5-.3v-.4h.1Zm0 1.5 38.5.3v13.2h-38.5v-13.5Zm1.6 32.3c-.9 0-1.6-.7-1.6-1.6v-16.2h38.5v16.2c0 .9-.7 1.6-1.6 1.6h-35.3Zm5.5 1.1.1-.1h24s0 .1.1.1l3.2 3.1h-30.6l3.2-3.1Zm-7.2 7.1 3.2-3.1c.1.1.2.2.4.2h32.1l3 3h-38.7v-.1Zm4.9-17.5c0-1.9 1.6-3.5 3.5-3.5s3.5 1.6 3.5 3.5-1.6 3.5-3.5 3.5-3.5-1.6-3.5-3.5Zm1 0c0 1.3 1.1 2.4 2.5 2.4 1.3 0 2.5-1.1 2.5-2.4 0-1.3-1.1-2.4-2.5-2.4s-2.5 1.1-2.5 2.4Zm24.3-3.5c-1.9 0-3.5 1.6-3.5 3.5s1.6 3.5 3.5 3.5 3.5-1.6 3.5-3.5-1.5-3.5-3.5-3.5Zm0 5.9c-1.4 0-2.5-1.1-2.5-2.4 0-1.3 1.1-2.4 2.5-2.4s2.5 1.1 2.5 2.4c0 1.3-1.1 2.4-2.5 2.4Zm-17.5-30.8h13.2c.3 0 .5.2.5.5s-.2.5-.5.5h-13.2c-.3 0-.5-.2-.5-.5s.2-.5.5-.5Z"/>
</svg>
