<svg id="icon-products-database" viewBox="0 0 96 96" xmlns="http://www.w3.org/2000/svg">
  <path d="M87.846 34.495V18.157h-.04C87.017 9.28 69.82 2.418 47.997 2.418c-22.343 0-39.846 7.193-39.846 16.375.004.825.146 1.643.42 2.42l-.023 11.394h-.013l.003 23.863h-.004l.003 20.644c.916 9.697 16.84 16.468 38.723 16.468 22.608 0 39.672-6.926 40.577-16.529V57.041c.003-.028.01-.054.012-.082V34.495h-.003Zm-1.298 1.718c-.744 8.745-17.942 15.86-38.336 15.86-20.417 0-37.633-7.115-38.374-15.803l.028-12.627c4.918 6.743 19.914 11.525 38.131 11.525 18.768 0 34.115-5.075 38.55-12.141l.001 13.186ZM9.452 18.793c0-8.313 17.291-15.075 38.545-15.075 21.255 0 38.546 6.762 38.546 15.075 0 8.313-17.29 15.076-38.546 15.076-19.33 0-35.377-5.595-38.125-12.861v-.141h-.046a6.198 6.198 0 0 1-.374-2.074Zm37.808 73.49c-20.85 0-36.59-6.431-37.425-15.23V60.886c4.408 7.489 19.386 12.6 38.377 12.6 18.95 0 33.9-5.1 38.325-12.613l.002 16.12c-.823 8.716-17.71 15.29-39.28 15.29h.001Zm39.276-37.695v2.408c-.916 8.667-17.35 15.191-38.324 15.191-21.076 0-37.576-6.572-38.376-15.228V40.202c4.49 7.63 19.945 13.17 38.376 13.17 18.41 0 33.85-5.538 38.337-13.202l.001 14.418h-.014Z"/>
</svg>
