<svg id="icon-products-internet" viewBox="0 0 96 96" xmlns="http://www.w3.org/2000/svg">
  <path d="M80.417 33.841h-2.954a29.509 29.509 0 1 0-58.934 0H15.58a3.074 3.074 0 0 0-3.07 3.07v45.55a3.074 3.074 0 0 0 3.07 3.07h29.54v3.259h-5.49a1.91 1.91 0 0 0-1.91 1.91v.62a1.91 1.91 0 0 0 1.91 1.91h16.733a1.91 1.91 0 0 0 1.91-1.91v-.62a1.91 1.91 0 0 0-1.91-1.91h-5.488v-3.26h29.543a3.074 3.074 0 0 0 3.07-3.07V36.91a3.075 3.075 0 0 0-3.072-3.07v.001Zm-4.213-1.563A28.044 28.044 0 0 1 74.13 42.88l-7.548-2.552c.193-.496.393-.987.57-1.496a40.232 40.232 0 0 0 2.27-14.167 44.226 44.226 0 0 0 5.495-.817 28.108 28.108 0 0 1 1.288 8.43h-.001ZM36.552 57.895a14.619 14.619 0 0 1-5.951-6.583 25.685 25.685 0 0 1-2.45-9.261 42.485 42.485 0 0 1 8.458.366c-1.294 6.828-1.373 12.514-.057 15.478Zm-5.187-2.851a28.358 28.358 0 0 1-9.507-12.176c1.65-.344 3.318-.59 4.997-.738a26.92 26.92 0 0 0 2.57 9.739 15.662 15.662 0 0 0 1.94 3.175Zm-3.298-14.29a37.878 37.878 0 0 1 1.37-11.607l9.713 3.283a89.94 89.94 0 0 0-2.288 8.712 43.78 43.78 0 0 0-8.795-.388Zm27.006-2.942 9.8 3.312a38.396 38.396 0 0 1-6.08 9.91 43.797 43.797 0 0 0-7.308-5.009 91.173 91.173 0 0 0 3.588-8.213Zm-4.743 7.591a43.728 43.728 0 0 0-12.197-4.06 89.954 89.954 0 0 1 2.248-8.497l13.46 4.55a87.327 87.327 0 0 1-3.511 8.007Zm5.198-8.81a93.061 93.061 0 0 0 3.597-12.243 43.79 43.79 0 0 0 6.498.496c.833 0 1.668-.027 2.504-.075a38.932 38.932 0 0 1-2.205 13.636c-.177.507-.363 1.01-.56 1.51l-9.834-3.324Zm-.657-2.02c-.19.543-.38 1.078-.574 1.604l-13.515-4.568c.168-.508.334-1.016.512-1.527a92.526 92.526 0 0 1 4.193-10.15 43.736 43.736 0 0 0 12.368 4.206 93.53 93.53 0 0 1-2.984 10.434v.001Zm-14.806-4.919c-.18.515-.345 1.027-.514 1.54l-9.753-3.297a39.21 39.21 0 0 1 7.293-13.636 43.8 43.8 0 0 0 7.268 5.056 93.374 93.374 0 0 0-4.294 10.337Zm-2.19 12.965a42.43 42.43 0 0 1 11.86 3.94c-4.43 8.447-8.877 12.84-10.812 12.198a2.013 2.013 0 0 1-1.073-1.117c-1.355-2.71-1.275-8.27.025-15.021Zm13.02 4.564a42.488 42.488 0 0 1 7.035 4.822c-4.99 5.386-11.088 8.3-16.703 7.536 2.867-1.518 6.377-6.041 9.668-12.358Zm8.01 5.638a42.952 42.952 0 0 1 3.583 3.648 28.033 28.033 0 0 1-14.492 4.019c-.383 0-.763-.014-1.142-.029a25.157 25.157 0 0 0 12.05-7.638Zm.87-.966A39.53 39.53 0 0 0 66.1 41.538l7.508 2.538A28.388 28.388 0 0 1 63.6 55.762a44.266 44.266 0 0 0-3.827-3.908v.001Zm14.72-29.25a42.897 42.897 0 0 1-5.127.765 27.21 27.21 0 0 0-2.623-10.328 15.706 15.706 0 0 0-2.358-3.698 28.342 28.342 0 0 1 10.107 13.26v.001ZM59.747 7.083c2.56 1.527 4.59 3.8 5.822 6.514a25.986 25.986 0 0 1 2.5 9.854 42.507 42.507 0 0 1-8.677-.39c1.398-6.946 1.577-12.806.355-15.977v-.001ZM56.91 5.857c.113 0 .225.013.335.041a1.98 1.98 0 0 1 1.072 1.117c1.41 2.821 1.262 8.726-.192 15.847a42.446 42.446 0 0 1-12.047-4.104c4.312-8.456 8.64-12.901 10.819-12.901h.013Zm-3.698-.609c.46.003.918.03 1.375.082-2.901 1.776-6.407 6.487-9.642 12.819a42.499 42.499 0 0 1-6.982-4.874c4.493-4.974 9.955-8.027 15.213-8.027h.036ZM47.996 4.07c.86 0 1.71.045 2.55.12-4.842.8-9.604 3.739-13.602 8.193a42.91 42.91 0 0 1-3.777-3.906.624.624 0 0 0-.126-.1A28.03 28.03 0 0 1 47.996 4.07ZM32.044 9.03a.635.635 0 0 0 .13.288 44.239 44.239 0 0 0 3.907 4.037 40.86 40.86 0 0 0-7.061 12.722c-.162.466-.31.934-.454 1.403l-7.778-2.63A28.302 28.302 0 0 1 32.044 9.03Zm-11.57 17.087 7.73 2.612a39.247 39.247 0 0 0-1.432 12.102 44.23 44.23 0 0 0-5.383.802 28.084 28.084 0 0 1-.915-15.516ZM82.188 82.46a1.772 1.772 0 0 1-1.77 1.77H15.582a1.772 1.772 0 0 1-1.77-1.77V40.505h5.852a29.636 29.636 0 0 0 18.386 19.552c.14.056.274.124.417.176.227.075.456.134.685.198a29.506 29.506 0 0 0 37.176-19.919h5.86V82.46Z"/>
</svg>
