<svg id="icon-products-hyperscalers" viewBox="0 0 96 96" xmlns="http://www.w3.org/2000/svg">
  <path fill-rule="evenodd" d="M85.558 13.215H92.9v.001a.649.649 0 0 1 .65.65v7.15a.65.65 0 0 1-1.3 0v-5.684l-8.26 8.26c.596.66.941 1.507.977 2.395l.387 10.146v6.843a3.836 3.836 0 0 1-3.83 3.828h-66.15a3.836 3.836 0 0 1-3.83-3.828V26.133c.004-.873.31-1.718.864-2.392L3.75 15.323v5.692a.65.65 0 0 1-1.3 0v-7.15a.65.65 0 0 1 .65-.65h7.342a.65.65 0 0 1 0 1.3H4.784l8.6 8.362a3.79 3.79 0 0 1 1.99-.573h65.768a3.804 3.804 0 0 1 1.821.475l8.264-8.264h-5.669a.65.65 0 0 1 0-1.3Zm-1.504 29.76v-6.817l-.386-10.121a2.515 2.515 0 0 0-.598-1.526l-7.66 7.662a.65.65 0 1 1-.92-.92l7.496-7.497a2.521 2.521 0 0 0-.844-.152H15.374c-.351 0-.698.075-1.019.218l3.142 3.054A.651.651 0 0 1 17.056 28a.649.649 0 0 1-.465-.192l-3.253-3.162c-.32.43-.492.952-.494 1.488v16.842a2.533 2.533 0 0 0 2.53 2.528h66.15a2.533 2.533 0 0 0 2.53-2.529Zm8.596 31.41a.649.649 0 0 1 .248-.049v-.001a.649.649 0 0 1 .65.65v7.15a.65.65 0 0 1-.65.65h-7.342a.65.65 0 0 1 0-1.3h5.661l-8.313-7.943a3.79 3.79 0 0 1-1.38.268h-66.15a3.79 3.79 0 0 1-1.972-.565l-8.618 8.24h5.658a.65.65 0 0 1 0 1.3H3.1a.65.65 0 0 1-.65-.65v-7.149a.65.65 0 1 1 1.3 0v5.69l8.67-8.29a3.796 3.796 0 0 1-.877-2.406V53.139a3.836 3.836 0 0 1 3.831-3.831h65.767a3.818 3.818 0 0 1 3.826 3.683l.387 10.147v6.842a3.81 3.81 0 0 1-1.306 2.857l8.2 7.836v-5.687a.65.65 0 0 1 .401-.6ZM79.184 68.25a.65.65 0 0 1 .214.145l3.708 3.542a2.515 2.515 0 0 0 .948-1.958v-6.816l-.386-10.122a2.522 2.522 0 0 0-2.527-2.434H15.374a2.533 2.533 0 0 0-2.53 2.53V69.98c.002.546.182 1.076.513 1.51l3.237-3.096a.651.651 0 0 1 .9.94l-3.11 2.973c.313.134.65.203.99.203h66.15c.09-.004.181-.014.271-.028L78.5 69.334a.649.649 0 0 1 .43-1.134.65.65 0 0 1 .254.05ZM26.08 29.993a2.792 2.792 0 0 1 3.87 3.87 2.79 2.79 0 1 1-3.87-3.87Zm.556 3.807c.294.196.64.301.995.301l-.001.001a1.791 1.791 0 1 0-.994-.302Zm6.509-3.807a2.79 2.79 0 1 1 3.1 4.64 2.79 2.79 0 0 1-3.1-4.64ZM33.7 33.8c.295.197.64.302.995.302v.001a1.791 1.791 0 1 0-.995-.303Zm6.507-3.806a2.792 2.792 0 0 1 3.87 3.87 2.79 2.79 0 1 1-3.87-3.87Zm.556 3.807c.294.196.64.301.995.301l-.001.001a1.791 1.791 0 1 0-.994-.302ZM26.081 58.246a2.79 2.79 0 0 1 1.55-.47v-.001a2.792 2.792 0 0 1 1.068 5.368 2.79 2.79 0 0 1-2.618-4.897Zm.556 3.807a1.79 1.79 0 1 0 1.988-2.977 1.79 1.79 0 0 0-1.988 2.977Zm6.509-3.807a2.79 2.79 0 0 1 1.55-.47v-.001a2.792 2.792 0 0 1 1.068 5.368 2.789 2.789 0 0 1-2.618-4.897Zm.555 3.806a1.79 1.79 0 1 0 1.99-2.976 1.79 1.79 0 0 0-1.99 2.976Zm6.507-3.806a2.79 2.79 0 0 1 1.55-.47v-.001a2.792 2.792 0 0 1 1.068 5.368 2.79 2.79 0 0 1-2.618-4.897Zm.556 3.807a1.79 1.79 0 1 0 1.988-2.977 1.79 1.79 0 0 0-1.988 2.977Z"/>
</svg>
