<svg id="icon-business-contracts" viewBox="0 0 96 96" xmlns="http://www.w3.org/2000/svg">
  <path fill-rule="evenodd" d="M89.669 42.158c.166.207.288.446.36.702h.002a1.966 1.966 0 0 1-.18 1.506l-10.376 20.95V90.65a2.994 2.994 0 0 1-2.99 2.99h-67.6a2.994 2.994 0 0 1-2.99-2.99V5.491a2.994 2.994 0 0 1 2.99-2.99h67.6a2.994 2.994 0 0 1 2.99 2.99v42.135l3.36-6.78a1.973 1.973 0 0 1 2.59-.994l3.638 1.8c.233.126.44.298.606.506Zm-11.99 49.685c.317-.316.495-.746.495-1.194V67.942l-.409.827c-.1.2-.23.385-.386.546l-4.595 4.73a1.837 1.837 0 0 1-1.4.624 1.883 1.883 0 0 1-1.838-2.274l.978-6.477c.034-.221.102-.436.203-.636l7.447-15.032V5.492a1.692 1.692 0 0 0-1.69-1.69h-67.6a1.692 1.692 0 0 0-1.69 1.69v85.157a1.692 1.692 0 0 0 1.69 1.69h67.6c.449 0 .878-.179 1.195-.496ZM76.601 68.19l12.1-24.43v.001a.701.701 0 0 0 .078-.548.675.675 0 0 0-.323-.41l-3.579-1.772a.676.676 0 0 0-.864.365L71.89 65.858a.889.889 0 0 0-.08.254l-.986 6.516a.602.602 0 0 0 .183.599.582.582 0 0 0 .82-.06l4.62-4.758a.9.9 0 0 0 .154-.22ZM60.635 15.145H15.178a.65.65 0 0 1 0-1.3h45.456a.65.65 0 0 1 0 1.3Zm0 11.498H15.178a.65.65 0 0 1 0-1.3h45.456a.65.65 0 0 1 0 1.3Zm-22.268 9.821a.65.65 0 0 1 .19.46h-.002a.65.65 0 0 1-.65.65H15.177a.65.65 0 0 1 0-1.3h22.73a.65.65 0 0 1 .459.19Zm-6.253 43.077h34.092a.65.65 0 0 1 0 1.3H32.113a.65.65 0 0 1 0-1.3Zm21.603-4.596a5.7 5.7 0 0 1 3.223.325c2.058.37 4.168.34 6.215-.086a.65.65 0 1 1 .264 1.274c-2.234.464-4.537.49-6.78.078a.632.632 0 0 1-.137-.04 4.419 4.419 0 0 0-2.45-.29c-.412.217-.835.412-1.268.584a3.865 3.865 0 0 1-2.76-.609c-.9-.462-1.365-.652-1.732-.399a8.018 8.018 0 0 0-.644.685 1.48 1.48 0 0 1-1.824.33.685.685 0 0 1-.086-.056 1.558 1.558 0 0 1-.493-1.355c.007-.13 0-.261-.023-.39-.009-.033-.032-.117-.185-.186a1.155 1.155 0 0 0-.907.046 4.906 4.906 0 0 0-.87.618 6.152 6.152 0 0 1-1.06.75c-.282.17-.615.234-.94.182a1.471 1.471 0 0 1-.953-1.848 14.608 14.608 0 0 1 2.998-5.468 1.16 1.16 0 0 0 .191-.448.27.27 0 0 0-.14-.006c-1.48.185-2.552 1.588-3.445 2.89l-3.757 5.475a.65.65 0 0 1-1.072-.735l3.757-5.475c1.053-1.536 2.341-3.195 4.301-3.435a1.54 1.54 0 0 1 1.214.284 1.632 1.632 0 0 1-.024 2.247 13.452 13.452 0 0 0-2.762 4.972.807.807 0 0 0 .007.228c.307-.177.595-.384.86-.617a5.958 5.958 0 0 1 1.116-.778 2.458 2.458 0 0 1 2.018-.068 1.578 1.578 0 0 1 .906 1.029c.058.241.081.49.07.738v.024c0 .085 0 .19.008.264a.168.168 0 0 0 .106-.056c.256-.306.534-.593.83-.86 1.114-.77 2.226-.201 3.124.259l.004.002a2.93 2.93 0 0 0 1.775.53c.33-.138.741-.33 1.137-.543a.656.656 0 0 1 .188-.066Zm-30.083-4.241c.08.033.151.08.211.141v-.001a.648.648 0 0 1 0 .92l-3.127 3.126 3.127 3.127a.65.65 0 1 1-.92.919l-3.127-3.126-3.126 3.127a.65.65 0 1 1-.92-.92l3.127-3.127-3.127-3.126a.65.65 0 0 1 .92-.919l3.126 3.126 3.127-3.126a.65.65 0 0 1 .71-.141Z"/>
</svg>
