<svg id="icon-business-finance" viewBox="0 0 96 96" xmlns="http://www.w3.org/2000/svg">
  <path fill-rule="evenodd" d="M91.297 28.65h-2.899c.144-.298.219-.624.22-.954V22.34a2.256 2.256 0 0 0-2.25-2.252H31.44l-4.586-4.81H9.646a2.255 2.255 0 0 0-2.252 2.252v10.165c.002.33.077.655.22.953h-2.91a2.256 2.256 0 0 0-2.255 2.253l8.016 47.626a2.255 2.255 0 0 0 2.252 2.193h70.566a2.255 2.255 0 0 0 2.252-2.193l8.006-47.518.01-.108a2.256 2.256 0 0 0-2.254-2.253v.002ZM8.694 17.53a.953.953 0 0 1 .952-.953h16.65l4.588 4.81h55.482a.954.954 0 0 1 .951.953v5.355a.953.953 0 0 1-.952.95H9.646a.953.953 0 0 1-.952-.95V17.53Zm75.551 60.83-.01.108a.955.955 0 0 1-.954.953H12.717a.953.953 0 0 1-.952-.953L3.75 30.855a.954.954 0 0 1 .952-.906h86.594a.954.954 0 0 1 .952.906L84.245 78.36ZM48.007 40.533a14.151 14.151 0 1 0 14.151 14.151 14.167 14.167 0 0 0-14.15-14.15v-.001Zm0 27.303a13.15 13.15 0 1 1 13.151-13.152 13.167 13.167 0 0 1-13.15 13.152Zm-1.194-15.98c0 .614.653 1.002 2.236 1.6 2.218.783 3.112 1.808 3.112 3.484a3.57 3.57 0 0 1-3.316 3.446v1.898l-1.822-.001v-1.768a7.483 7.483 0 0 1-3.173-.8l.56-2.179c.947.523 2.01.804 3.092.818 1.06 0 1.788-.409 1.788-1.154 0-.707-.595-1.154-1.975-1.62-1.992-.668-3.351-1.601-3.351-3.408a3.44 3.44 0 0 1 3.146-3.315v-1.77h1.825v1.64a6.696 6.696 0 0 1 2.702.614l-.54 2.104a6.19 6.19 0 0 0-2.681-.633c-1.213 0-1.603.523-1.603 1.044Z"/>
</svg>
