<svg id="icon-products-analytics-data-dashboards" viewBox="0 0 96 96" xmlns="http://www.w3.org/2000/svg">
  <path fill-rule="evenodd" d="m15.192 9.488.503.002-.12 13.15H2.538v-.5A12.648 12.648 0 0 1 15.156 9.488h.036Zm16.688 7.957h46.783a14.816 14.816 0 0 1 14.8 14.798v39.47a14.816 14.816 0 0 1-14.8 14.799H31.88a14.816 14.816 0 0 1-14.8-14.799V39.929c-6.892-.615-12.332-6.962-12.332-14.69v-.833h12.596l-.001-12.592h.831a15.203 15.203 0 0 1 12.067 5.727 14.864 14.864 0 0 1 1.639-.096Zm56.325 63.81a13.514 13.514 0 0 0 3.958-9.542l.001-39.468a13.514 13.514 0 0 0-13.5-13.5H31.88c-.186 0-.37.013-.554.025l-.224.015a12.41 12.41 0 0 1 1.824 6.455 14.648 14.648 0 0 1-1.409 6.21h3.113v-5.262a.65.65 0 0 1 1.3 0v5.262h11.75v-5.037a.65.65 0 0 1 1.3 0v5.037h12v-5.262a.65.65 0 0 1 1.3 0v5.262h11.83v-5.262a.65.65 0 0 1 1.3 0v5.262h5.54a.65.65 0 0 1 0 1.3h-5.54v3.747c1.424.079 2.907.154 3.747.194l.646.032-.342 7.854h1.49a.65.65 0 0 1 0 1.3h-1.827a.633.633 0 0 1-.346.113h-.029a.632.632 0 0 1-.32-.114H75.41v12.51h5.766a.65.65 0 0 1 0 1.3H75.41v11.75h5.54a.65.65 0 0 1 0 1.3h-5.54v5.035a.65.65 0 1 1-1.3 0v-5.035H62.28v5.035a.65.65 0 1 1-1.3 0v-5.035H48.979v5.26a.65.65 0 1 1-1.3 0v-5.26h-11.75v5.035a.65.65 0 1 1-1.3 0v-5.035h-5.26a.65.65 0 0 1 0-1.3h5.261v-10.73l-2.85 2.177a.648.648 0 0 1-1.023-.35.65.65 0 0 1 .233-.683l2.834-2.164h-4.23a.65.65 0 0 1 0-1.3h5.035V45.877h-5.26a.65.65 0 0 1 0-1.3h5.261V32.75h-3.805a14.792 14.792 0 0 1-12.444 7.23v31.733a13.515 13.515 0 0 0 13.499 13.5h46.783a13.514 13.514 0 0 0 9.542-3.958ZM47.677 49.102v-3.226h-11.75v12.2l11.75-8.974Zm-11.75-16.353v11.827h11.75V32.749h-11.75Zm11.75 25.636v-7.647l-10.011 7.647h10.011Zm0 1.3H35.963l-.036.027v11.723h11.75v-11.75Zm13.301-7.765v-6.045l-12.001.001v2.885a1.725 1.725 0 0 1 1.157.68l4.982 6.729a.44.44 0 0 0 .61.09l5.252-4.34Zm-12-19.17v11.825l12 .002V32.75h-12Zm5.094 24.196-4.982-6.731a.42.42 0 0 0-.112-.1v8.27h12v-4.779l-4.453 3.68a1.747 1.747 0 0 1-2.453-.34Zm6.906 14.489v-11.75h-12v11.75h12Zm13.131-33.71c-1.192-.071-2.211-.14-2.524-.187h.001a.65.65 0 0 1 .19-1.286c.264.04 1.195.102 2.334.17v-3.673H62.28v11.827h7.585l4.244-3.507v-3.344Zm0 6.85v-1.82l-2.204 1.82h2.204Zm-11.831 6.271 6.014-4.971-6.014.001v4.97Zm11.831-4.971h-3.777l-8.052 6.657v5.853h11.829v-12.51Zm0 25.56v-11.75H62.28v11.75h11.829Zm4.05-26.86.233-5.36-2.983 2.466v2.894h2.75Zm-2.75-6.776v2.196l2.498-2.065c-.691-.035-1.588-.081-2.498-.131Z"/>
</svg>
