<svg id="icon-products-data" viewBox="0 0 96 96" xmlns="http://www.w3.org/2000/svg">
  <path fill-rule="evenodd" d="M24.694 9.127A45.55 45.55 0 0 1 50 1.45 45.602 45.602 0 0 1 95.55 47 45.55 45.55 0 1 1 24.694 9.127Zm.722 74.666A44.25 44.25 0 0 0 50 91.25 44.3 44.3 0 0 0 94.25 47a44.25 44.25 0 1 0-68.834 36.793Zm47-34.008a4.573 4.573 0 0 1 5.377-.293 4.555 4.555 0 1 1-7.02 4.21H56.967a.65.65 0 0 1-.536-.282l-4.885-7.126h-9.735l4.684 7.67c.005.008.005.018.01.026a4.45 4.45 0 1 1-1.109.662l-.01-.01-5.098-8.348H20.69a.65.65 0 0 1 0-1.3h31.436l9.269-9.511a.65.65 0 0 1 .465-.197h5.01a4.61 4.61 0 1 1 .03 1.3h-4.765l-9.198 9.439 4.373 6.377h13.518a4.574 4.574 0 0 1 1.589-2.617ZM73.2 33.07a3.265 3.265 0 1 0-3.628 5.43 3.265 3.265 0 0 0 3.628-5.43ZM50.026 55.502a3.265 3.265 0 1 0-3.628 5.43 3.265 3.265 0 0 0 3.628-5.43Zm23.46.535a3.265 3.265 0 1 0 3.626-5.43 3.265 3.265 0 0 0-3.626 5.43Z"/>
</svg>
