<svg id="icon-products-firewall" viewBox="0 0 96 96" xmlns="http://www.w3.org/2000/svg">
  <path d="m93.42 40.59.002-.005V12.927a.65.65 0 0 0-.65-.65H73.753l-.007-.002-.007.002H42.85l-.007-.002-.007.002h-4.623l-.007-.002h-24.85a.65.65 0 0 0-.65.65v13.816l-.004.014.003.015v13.8l-.003.015.003.015v9.23a28.467 28.467 0 0 1-4.136 7.95l-.077.107-.162.185C2.87 64.26 2.26 68.946 2.716 71.797c.02.926.47 8.135 9.626 11.693l.01.005.36-.934-.004-.001a5.368 5.368 0 0 1-2.788-3.067c-.85-2.255-.476-5.171 1.116-8.683a5.84 5.84 0 0 0 2.508 3.908l.765.45-.01-.887c.014-1.807.185-3.609.51-5.386h6.092c.197.203.407.394.628.57l.133.103a12.098 12.098 0 0 1 2.965 7.217 7.322 7.322 0 0 1-3.099 5.856l-.19.15.04.69.39.088c.03.007.06.01.091.01 1.263 0 6.877-4.288 8.17-6.92.562-.753 1.635-3.704 1.433-7.764h14.212l.008.001H92.77a.65.65 0 0 0 .65-.65V40.59ZM43.494 25.854V13.577h29.604v12.277c0 .086.017.172.05.251H43.442a.649.649 0 0 0 .051-.25l.001-.001ZM14.006 13.575h24.19l.008.002h3.988v12.277c0 .086.018.172.051.251H14.006v-12.53Zm0 13.83H62.63v12.433c.004.033.011.065.02.097h-9.494a.244.244 0 0 1-.19 0H33.04l-.014-11.533a.65.65 0 0 0-.65-.649.65.65 0 0 0-.65.651l.013 11.531H14.006v-12.53Zm1.09 40.19c.582-2.333 1.585-4.627 3.334-5.656a12.067 12.067 0 0 0 1.457 5.656h-4.79Zm14.223 8.393-.114.077-.06.124c-.745 1.56-2.975 3.52-4.789 4.858a8.026 8.026 0 0 0 1.11-5.987 12.72 12.72 0 0 0-3.32-6.38l.001-.003c-2.52-1.972-2.67-5.639-2.728-7.019a1.748 1.748 0 0 0-.095-.71l-.2-.404-.424.16c-4.572 1.73-5.279 9.703-5.385 12.572a6.628 6.628 0 0 1-1.482-3.71 3.579 3.579 0 0 0-.075-.435l-.107-.447-.905.1v.33c-2.23 4.345-2.818 7.965-1.752 10.758.146.38.324.747.533 1.096-5.543-3.531-5.802-8.563-5.812-9.209l-.005-.364-.044-.016c-.343-2.66.378-6.939 5.413-12.645.118-.125.227-.259.324-.4 4.701-6.57 5.166-11.473 5.11-13.483a18.616 18.616 0 0 1 9.267 16.535.806.806 0 0 0 .79.843.91.91 0 0 0 .61-.26c.822-.962 1.499-2.04 2.007-3.2 5.41 8.787 2.65 16.533 2.132 17.22v-.001Zm2.408-20.672v12.28h-.375a22.746 22.746 0 0 0-3.687-9.938.64.64 0 0 0-.872-.223l-.213.165-.062.166a11.97 11.97 0 0 1-1.732 3.106 19.37 19.37 0 0 0-.914-5.806h7.905a.646.646 0 0 0-.05.25Zm-8.317-1.55a19.582 19.582 0 0 0-9.248-10.244l-.156-.08v-2.207h28.206a.608.608 0 0 0-.02.098v12.434l-18.782-.001Zm39.22 1.55v12.28H33.028v-12.28a.646.646 0 0 0-.05-.25H62.68a.646.646 0 0 0-.05.25Zm29.49 12.28H63.932v-12.28a.646.646 0 0 0-.05-.25H92.12v12.53Zm0-13.83H43.493V41.334a.62.62 0 0 0-.02-.098h9.494a.246.246 0 0 1 .19 0h19.926l.014 11.533a.65.65 0 0 0 .65.649h.001a.651.651 0 0 0 .65-.651l-.014-11.53H92.12v12.529Zm0-13.83H63.912a.615.615 0 0 0 .02-.098V27.405H92.12v12.531Zm0-13.83H74.347a.649.649 0 0 0 .05-.252V13.577H92.12v12.529Z"/>
</svg>
