<svg id="icon-products-video-chat" viewBox="0 0 96 96" xmlns="http://www.w3.org/2000/svg">
  <path fill-rule="evenodd" d="M2.457 37.707c0-19.287 20.426-34.979 45.532-34.979 25.11 0 45.54 15.69 45.54 34.976 0 19.287-20.426 34.98-45.533 34.98a59.856 59.856 0 0 1-4.089-.144L25.332 92.857a.648.648 0 0 1-1.017-.071.648.648 0 0 1-.113-.367V67.54C10.577 61.126 2.457 49.999 2.457 37.707ZM47.989 2.728h.001-.001Zm-4.301 68.493c1.452.107 2.902.162 4.309.162 24.39 0 44.233-15.109 44.233-33.68 0-18.568-19.846-33.674-44.24-33.674-24.39 0-44.233 15.108-44.233 33.678 0 11.884 7.987 22.661 21.366 28.829a.648.648 0 0 1 .377.589v23.62l17.661-19.314a.672.672 0 0 1 .527-.21Zm15.485-39.344 9.875-4.959a.65.65 0 0 1 .942.581V47.92a.649.649 0 0 1-.942.581l-9.875-4.959v7.202a.65.65 0 0 1-.65.65H26.635a.65.65 0 0 1-.65-.65V24.676a.65.65 0 0 1 .65-.65h31.888a.65.65 0 0 1 .65.65v7.201Zm-.359 10.03 9.876 4.959V28.553l-9.876 4.958a.65.65 0 0 1-.94-.58v-7.605H27.284v24.768h30.588v-7.606a.65.65 0 0 1 .941-.581Z"/>
</svg>
