<svg id="icon-products-bug" viewBox="0 0 96 96" xmlns="http://www.w3.org/2000/svg">
  <path fill-rule="evenodd" d="M36.453 24.57c.7-1.352 1.691-2.53 2.902-3.451L31.351 3.108a.649.649 0 1 1 1.187-.528l7.894 17.762a14.68 14.68 0 0 1 15.136 0L63.462 2.58a.65.65 0 1 1 1.187.528L56.645 21.12a10.267 10.267 0 0 1 4.046 7.811v4.01a.65.65 0 0 1-1.3 0v-4.01c0-5.617-5.89-9.39-11.392-9.39-5.5 0-11.39 3.773-11.39 9.39v4.01a.65.65 0 0 1-1.3 0v-4.01c.053-1.52.444-3.01 1.144-4.361Zm46.29 36.298 4.015 14.05h-.001a.648.648 0 0 1-.7.828.65.65 0 0 1-.55-.471l-3.92-13.72-10.86-3.621v10.137c0 2.218-.354 4.421-1.05 6.527a.64.64 0 0 1 .79-.023l8.028 6.021a.65.65 0 0 1 .25.413l2.006 12.042a.65.65 0 0 1-1.282.214l-1.963-11.786-7.82-5.864a.64.64 0 0 1-.236-.38A22.714 22.714 0 0 1 48 89.792h-.005a22.714 22.714 0 0 1-21.448-14.558.64.64 0 0 1-.236.38l-7.82 5.864-1.963 11.786a.65.65 0 0 1-1.282-.214l2.008-12.041a.65.65 0 0 1 .25-.414l8.028-6.02a.64.64 0 0 1 .79.023 20.766 20.766 0 0 1-1.05-6.528V57.935l-10.86 3.62-3.92 13.72a.65.65 0 1 1-1.25-.357l4.014-14.05a.65.65 0 0 1 .42-.438l11.597-3.866v-4.549c0-.282.028-2.688.047-4.206l.005-.449-7.818-5.864a.65.65 0 0 1-.235-.342l-4.014-14.048a.648.648 0 0 1 .699-.828.65.65 0 0 1 .55.471l3.955 13.838 7.184 5.389 6.474-7.435a.65.65 0 0 1 .49-.223h30.78a.65.65 0 0 1 .49.223l6.474 7.436 7.186-5.39 3.953-13.838a.65.65 0 1 1 1.25.357l-4.014 14.048a.651.651 0 0 1-.234.342l-7.82 5.865c.017 1.433.05 4.344.05 4.656v4.546l11.598 3.867a.649.649 0 0 1 .42.438ZM48.649 88.461c11.513-.33 20.777-9.338 20.777-20.39V52.017c0-.35-.044-3.985-.057-5.104l-.001-.088-6.275-7.207H32.906l-6.276 7.206-.001.096c-.014 1.13-.057 4.746-.057 5.095V68.07c0 11.052 9.264 20.06 20.777 20.392V51.56a.65.65 0 0 1 1.3 0v36.901Z"/>
</svg>
