<svg id="icon-products-security" viewBox="0 0 96 96" xmlns="http://www.w3.org/2000/svg">
  <path fill-rule="evenodd" d="M71.703 34.222h7.304a.65.65 0 0 1 .65.65v58.032a.65.65 0 0 1-.65.65H16.993a.65.65 0 0 1-.65-.65V34.871a.65.65 0 0 1 .65-.65h7.302V19.495C24.33 19.226 27.174 2.443 48 2.443c10.856 0 16.722 4.597 19.73 8.453a20.201 20.201 0 0 1 3.965 8.5l.008 14.826ZM48 3.745c-19.341 0-22.213 14.674-22.404 15.804v14.673h44.806V19.549C70.21 18.419 67.34 3.745 48 3.745ZM17.644 35.522v56.733h60.712V35.522H17.644Zm26.524 20.1A5.99 5.99 0 0 1 48 54.239a5.991 5.991 0 0 1 2.395 11.484.635.635 0 0 1 .039.194v8.551a.65.65 0 0 1-.65.65h-3.296a.649.649 0 0 1-.651-.651v-8.55a.617.617 0 0 1 .02-.094 5.99 5.99 0 0 1-1.689-10.2Z"/>
</svg>
