<svg id="icon-products-file-sharing" viewBox="0 0 96 96" xmlns="http://www.w3.org/2000/svg">
  <path d="M88.366 66.749h-1.044c.008-.054.013-.108.016-.163v-2.694a1.457 1.457 0 0 0-1.454-1.446H58.427l-2.302-2.408H47.34a1.458 1.458 0 0 0-1.453 1.456v5.093c.002.054.008.108.017.162H44.86a1.456 1.456 0 0 0-1.455 1.454l4.029 23.96a1.457 1.457 0 0 0 1.453 1.392h35.457a1.459 1.459 0 0 0 1.45-1.394l4.018-23.85.009-.108a1.456 1.456 0 0 0-1.455-1.454Zm-41.18-5.255a.156.156 0 0 1 .154-.157h8.23l2.302 2.41h28.012a.153.153 0 0 1 .155.149v2.69a.155.155 0 0 1-.155.155H47.342a.157.157 0 0 1-.156-.155v-5.092ZM84.504 91.99l-.01.108a.156.156 0 0 1-.154.156H48.887a.155.155 0 0 1-.155-.154L44.71 68.17a.155.155 0 0 1 .15-.121h43.507a.155.155 0 0 1 .15.12L84.505 91.99ZM48.56 34.577l4.02-23.852.008-.11a1.458 1.458 0 0 0-1.454-1.452h-1.048a1.42 1.42 0 0 0 .017-.158V6.313a1.459 1.459 0 0 0-1.454-1.453H21.195l-2.303-2.415h-8.784A1.456 1.456 0 0 0 8.653 3.9v5.106c.002.053.007.106.016.158H7.633a1.458 1.458 0 0 0-1.454 1.453l4.028 23.962a1.458 1.458 0 0 0 1.454 1.39h35.445a1.456 1.456 0 0 0 1.454-1.391v-.001ZM9.953 3.899a.155.155 0 0 1 .155-.154h8.227l2.304 2.415h28.009a.157.157 0 0 1 .155.154v2.69a.157.157 0 0 1-.155.156h-38.54a.155.155 0 0 1-.155-.155V3.899Zm1.552 30.614L7.483 10.585a.156.156 0 0 1 .15-.122h43.5a.156.156 0 0 1 .15.122L47.27 34.407l-.01.108a.155.155 0 0 1-.154.154H11.66a.157.157 0 0 1-.156-.156ZM60.247 23.89A25.034 25.034 0 0 1 71.122 52.5l-2.887-3.297a.65.65 0 1 0-.978.857l3.657 4.174a.636.636 0 0 0 .04.051.642.642 0 0 0 .182.115l.009.006c.08.035.166.054.253.055l.005-.001.004.001a.647.647 0 0 0 .246-.053h.003l6.31-2.723a.65.65 0 1 0-.515-1.194l-4.99 2.153a26.357 26.357 0 0 0-11.54-29.865.65.65 0 0 0-.674 1.112v-.001ZM38.275 69.767A25.03 25.03 0 0 1 23.6 42.896l3.318 2.882a.65.65 0 0 0 .853-.981l-4.195-3.644c-.01-.008-.02-.01-.03-.017-.01-.007-.015-.016-.024-.023-.012-.008-.027-.006-.04-.013a.63.63 0 0 0-.27-.091.603.603 0 0 0-.066-.008.64.64 0 0 0-.31.08c-.007.004-.017.002-.025.006l-5.874 3.55a.65.65 0 0 0 .672 1.112l4.643-2.806A26.355 26.355 0 0 0 37.757 70.96a.65.65 0 1 0 .518-1.192v-.001Z"/>
</svg>
